<svg width="300" height="300" viewBox="0 0 300 300" fill="none" xmlns="http://www.w3.org/2000/svg">
<g clip-path="url(#clip0_2313_17261)">
<rect width="300" height="300" fill="#F3F3FF"/>
<path fill-rule="evenodd" clip-rule="evenodd" d="M182.438 212.824C175.258 212.824 169.463 205.558 169.463 196.562C169.463 187.652 175.258 180.386 182.438 180.386C189.617 180.386 195.413 187.652 195.413 196.562C195.413 205.558 189.617 212.824 182.438 212.824ZM150 144.661C139.274 144.661 130.537 137.395 130.537 128.485C130.537 119.489 139.274 112.223 150 112.223C160.726 112.223 169.463 119.489 169.463 128.485C169.463 137.395 160.726 144.661 150 144.661ZM117.562 212.824C110.382 212.824 104.587 205.558 104.587 196.562C104.587 187.652 110.382 180.386 117.562 180.386C124.741 180.386 130.537 187.652 130.537 196.562C130.537 205.558 124.741 212.824 117.562 212.824ZM150 118.711C153.546 118.711 156.487 121.652 156.487 125.198C156.487 128.745 153.546 131.686 150 131.686C146.453 131.686 143.512 128.745 143.512 125.198C143.512 121.652 146.453 118.711 150 118.711ZM208.388 151.149C205.62 151.149 202.939 151.754 200.517 152.879C196.364 147.602 190.742 143.104 183.995 139.644C188.925 132.724 191.866 124.333 191.866 115.251V114.732C201.295 112.742 208.388 104.351 208.388 94.2307C208.388 82.726 198.96 73.2974 187.455 73.2974C181.486 73.2974 175.95 75.8059 172.317 79.785C165.645 75.548 157.904 73.298 150 73.298C142.096 73.298 134.355 75.548 127.682 79.785C124.049 75.8059 118.513 73.2974 112.545 73.2974C101.04 73.2974 91.6114 82.726 91.6114 94.2307C91.6114 104.265 98.7045 112.656 108.047 114.732V115.251C108.047 124.333 111.074 132.81 115.918 139.644C109.258 143.104 103.635 147.602 99.483 152.879C96.5269 151.547 93.284 150.978 90.0512 151.225C86.8185 151.472 83.6993 152.525 80.9794 154.29C78.2594 156.054 76.0257 158.473 74.4829 161.325C72.9401 164.176 72.1375 167.369 72.1486 170.611C72.1486 181.424 80.7987 190.074 91.6114 190.074H92.1304C91.7844 192.15 91.6114 194.399 91.6114 196.562C91.6114 214.468 103.203 229 117.562 229C126.298 229 133.997 223.55 138.755 215.246C142.388 215.765 146.107 216.025 150 216.025C153.892 216.025 157.612 215.765 161.245 215.246C166.003 223.55 173.701 229 182.438 229C196.797 229 208.388 214.468 208.388 196.562C208.388 194.399 208.215 192.15 207.869 190.074H208.388C219.201 190.074 227.851 181.424 227.851 170.611C227.851 159.799 219.201 151.149 208.388 151.149ZM133.384 111.383C133.384 114.27 131.378 116.61 128.903 116.61C126.429 116.61 124.423 114.27 124.423 111.383C124.423 108.496 126.429 106.155 128.903 106.155C131.378 106.155 133.384 108.496 133.384 111.383ZM170.723 116.61C173.197 116.61 175.203 114.27 175.203 111.383C175.203 108.496 173.197 106.155 170.723 106.155C168.248 106.155 166.242 108.496 166.242 111.383C166.242 114.27 168.248 116.61 170.723 116.61Z" fill="#C4CCF6"/>
<path d="M198.676 80.264C205.168 84.8225 204.66 90.9831 203.698 90.8754C201.625 90.6431 203.245 86.2076 196.753 81.6491C190.261 77.0906 182.513 78.4528 182.513 78.4528C182.466 76.7671 192.184 75.7055 198.676 80.264Z" fill="white"/>
<path d="M115.981 76.385C122.273 78.0881 123.86 82.0413 123.109 82.1448C121.49 82.368 121.282 79.2987 114.989 77.5957C108.697 75.8926 103.358 78.1252 103.358 78.1252C102.786 77.0765 109.688 74.682 115.981 76.385Z" fill="white"/>
<path d="M217.259 157.911C222.765 161.641 223.024 165.924 222.268 165.77C220.639 165.438 221.424 162.456 215.918 158.726C210.411 154.996 204.56 155.319 204.56 155.319C204.346 154.132 211.753 154.18 217.259 157.911Z" fill="white"/>
</g>
<defs>
<clipPath id="clip0_2313_17261">
<rect width="300" height="300" fill="white"/>
</clipPath>
</defs>
</svg>
