<svg viewBox="0 0 225 145" fill="none" xmlns="http://www.w3.org/2000/svg">
<g opacity="0.7">
<path fill-rule="evenodd" clip-rule="evenodd" d="M91.2043 103.879C91.3671 103.876 91.5124 104.016 91.5156 104.179L91.726 114.806C91.7276 114.887 91.7089 114.969 91.649 115.032C91.5888 115.073 91.5082 115.116 91.4268 115.117L91.1215 115.123C90.9587 115.127 90.8341 115.007 90.8106 114.844C90.4787 111.45 90.5323 107.986 90.5883 104.645L90.5994 104.177C90.5962 104.014 90.7362 103.889 90.899 103.885L91.2043 103.879ZM127.44 74.8516C127.443 75.0145 127.588 75.1542 127.751 75.1509L128.118 75.1437C128.28 75.1404 128.42 74.9951 128.417 74.8322L128.047 56.143C128.045 56.0616 128.003 55.981 127.961 55.9207C127.899 55.8608 127.817 55.8421 127.736 55.8437L127.43 55.8498C127.349 55.8514 127.268 55.8937 127.208 55.9356C127.148 55.9979 127.129 56.0798 127.131 56.1612C127.182 58.7467 127.214 61.3734 127.223 63.8987C127.231 64.4755 127.239 65.056 127.247 65.6392C127.287 68.6796 127.328 71.795 127.44 74.8516ZM116.915 50.7794C115.604 50.0986 114.244 49.3917 112.837 48.8682C112.673 48.8103 112.608 48.6487 112.646 48.4646C112.683 48.3213 112.824 48.2167 112.987 48.2542C115.439 48.6944 117.6 49.8532 119.679 50.9932C121.429 51.9565 123.26 52.9385 125.225 53.4495C125.388 53.487 125.493 53.6478 125.456 53.8115C125.418 53.9548 125.298 54.059 125.155 54.0619L125.094 54.0631C122.255 53.5695 119.765 52.2746 117.338 50.9989C117.197 50.9262 117.056 50.8529 116.915 50.7794Z" fill="#AFBBF2"/>
<path fill-rule="evenodd" clip-rule="evenodd" d="M87.5289 78.657L87.4407 74.1985L86.8531 44.5156L86.6199 32.7315C86.6057 32.0154 87.371 31.5545 87.9951 31.9056L88.3277 32.0927C89.0541 32.5016 89.7769 32.9085 90.4995 33.3028C91.4479 33.8318 92.3827 34.3527 93.3089 34.8687C95.6198 36.1563 97.8767 37.4139 100.155 38.6919C100.711 38.9965 101.266 39.3063 101.822 39.616C102.378 39.9258 102.934 40.2355 103.49 40.5402C106.866 42.4285 110.366 44.3754 113.863 46.2002C117.624 48.1385 121.483 50.0153 125.225 51.8347L125.357 51.899C126.611 52.5055 127.865 53.112 129.139 53.7385C129.571 53.954 129.676 54.1148 129.705 54.5216L129.708 54.6348C129.757 56.0645 129.806 57.5303 129.874 58.9378C129.895 59.5202 129.922 60.1125 129.949 60.7073C129.976 61.318 130.004 61.9314 130.026 62.5397C130.163 66.3659 130.3 70.1921 130.437 74.0386C130.475 75.1209 130.513 76.2073 130.551 77.2973C130.848 85.78 131.152 94.4766 131.358 103.063C131.525 110.543 131.743 131.506 131.813 140.561C131.819 141.312 131.026 141.8 130.358 141.457C119.077 135.663 107.773 129.797 97.0003 123.092C96.4323 122.737 95.8602 122.379 95.2852 122.019C93.2724 120.758 91.2235 119.475 89.1875 118.217C88.5281 117.823 88.3174 117.46 88.3029 116.727C88.0311 104.024 87.776 91.1368 87.5289 78.657ZM127.751 75.1509C127.588 75.1542 127.443 75.0145 127.44 74.8516C127.328 71.795 127.287 68.6796 127.247 65.6392C127.239 65.056 127.231 64.4755 127.223 63.8987C127.214 61.3734 127.182 58.7467 127.131 56.1612C127.129 56.0798 127.148 55.9979 127.208 55.9356C127.268 55.8937 127.349 55.8514 127.43 55.8498L127.736 55.8437C127.817 55.8421 127.899 55.8608 127.961 55.9207C128.003 55.981 128.045 56.0616 128.047 56.143L128.417 74.8322C128.42 74.9951 128.28 75.1404 128.118 75.1437L127.751 75.1509ZM126.135 68.5638C126.096 67.6481 126.037 66.7328 125.979 65.8582L125.97 65.702C125.757 62.068 125.537 58.2987 126.326 54.5886C126.343 54.4253 126.484 54.3207 126.647 54.3378C126.79 54.3553 126.914 54.4751 126.918 54.6379L127.193 68.5429C127.195 68.6243 127.155 68.7065 127.096 68.7688C127.056 68.8103 126.975 68.8527 126.894 68.8543L126.446 68.8632C126.283 68.846 126.138 68.7267 126.135 68.5638ZM125.094 54.0631C122.255 53.5695 119.765 52.2746 117.338 50.9989C117.197 50.9262 117.056 50.8529 116.915 50.7794C115.604 50.0986 114.244 49.3917 112.837 48.8682C112.673 48.8103 112.608 48.6487 112.646 48.4646C112.683 48.3213 112.824 48.2167 112.987 48.2542C115.439 48.6944 117.6 49.8532 119.679 50.9932C121.429 51.9565 123.26 52.9385 125.225 53.4495C125.388 53.487 125.493 53.6478 125.456 53.8115C125.418 53.9548 125.298 54.059 125.155 54.0619L125.094 54.0631ZM89.8432 95.8005C90.006 95.7973 90.1513 95.937 90.1545 96.0999L90.5377 115.461C90.5393 115.542 90.5003 115.625 90.4404 115.687C90.3806 115.749 90.3199 115.771 90.2385 115.772L90.2182 115.773L89.9532 115.758C89.79 115.74 89.6654 115.621 89.6622 115.458L89.2794 96.1172C89.2778 96.0358 89.2965 95.9539 89.3563 95.8916C89.4166 95.8497 89.4972 95.8074 89.5786 95.8058L89.8432 95.8005ZM91.2043 103.879C91.3671 103.876 91.5124 104.016 91.5156 104.179L91.726 114.806C91.7276 114.887 91.7089 114.969 91.649 115.032C91.5888 115.073 91.5082 115.116 91.4268 115.117L91.1215 115.123C90.9587 115.127 90.8341 115.007 90.8106 114.844C90.4787 111.45 90.5323 107.986 90.5883 104.645L90.5994 104.177C90.5962 104.014 90.7362 103.889 90.899 103.885L91.2043 103.879Z" fill="#AFBBF2"/>
<path d="M161.254 52.1448C159.932 52.171 158.588 52.1976 157.245 52.2242C148.983 52.388 140.537 52.5554 132.214 52.7611C132.194 52.7615 132.194 52.7615 132.173 52.7619C130.891 52.7874 129.746 52.5249 128.574 51.9372C127.998 51.6431 127.422 51.3694 126.867 51.0953C126.148 50.7429 125.408 50.391 124.688 50.0183C123.68 49.4884 122.672 48.9789 121.664 48.449C117.817 46.4479 113.847 44.3881 109.957 42.286C106.623 40.4784 103.268 38.6102 99.9949 36.8014C98.4097 35.9163 96.8245 35.0313 95.219 34.1466C93.5723 33.2424 91.9257 32.3382 90.2994 31.4336C89.8285 31.1766 90.0033 30.4619 90.5396 30.4512L168.911 28.8978C169.457 28.8869 169.911 29.3156 169.93 29.861L170.739 51.9771L169.782 51.9961C166.953 52.0318 164.104 52.0883 161.254 52.1448ZM165.728 31.5848C165.665 31.525 165.583 31.4859 165.501 31.4671L154.036 31.3278C153.955 31.3294 153.874 31.3514 153.814 31.4137C153.754 31.476 153.715 31.5582 153.717 31.6396L153.706 32.149C153.708 32.2304 153.73 32.3115 153.792 32.3713C153.854 32.4312 153.937 32.4703 154.018 32.4687L165.476 32.2416C165.618 32.2387 165.738 32.1345 165.776 31.9912L165.794 31.8483C165.812 31.7461 165.79 31.6651 165.728 31.5848Z" fill="#AFBBF2"/>
<path d="M85.1545 89.3963C85.7067 89.3853 86.1632 89.8241 86.1741 90.3763L86.2719 95.3186C86.2829 95.8707 85.8441 96.3272 85.2919 96.3382L23.2136 97.5687C21.9019 97.5947 20.9209 96.3721 21.2304 95.0972L22.1304 91.3905C22.2375 90.9493 22.6284 90.6356 23.0824 90.6266L85.1545 89.3963ZM23.5618 94.12C23.6241 94.1799 23.7063 94.219 23.7877 94.2173L30.4426 94.0854C30.524 94.0838 30.6046 94.0415 30.6648 93.9996C30.7251 93.9576 30.7434 93.8555 30.7418 93.774L30.7386 93.6112C30.7354 93.4483 30.5901 93.3086 30.4273 93.3119L23.7927 93.4434C23.6299 93.4466 23.5102 93.5711 23.4931 93.7344L23.476 93.8977C23.4776 93.9791 23.5199 94.0597 23.5618 94.12ZM22.7159 92.5279C24.0611 92.6031 25.4255 92.6167 26.7687 92.5901C28.0915 92.5639 29.3932 92.4974 30.6749 92.4516C32.4854 92.375 34.3565 92.2768 36.1893 92.3016C36.2707 92.2999 36.3517 92.278 36.4116 92.2157C36.4714 92.1534 36.5105 92.0712 36.5089 91.9897L36.5009 91.5826C36.4992 91.5012 36.4569 91.4205 36.415 91.3603C36.3527 91.3004 36.2709 91.2817 36.1895 91.2833L22.7169 91.5503C22.5541 91.5536 22.4145 91.6989 22.4177 91.8617L22.4254 92.2485C22.4282 92.391 22.5531 92.5311 22.7159 92.5279Z" fill="#AFBBF2"/>
<path d="M22.7159 92.5279C24.0611 92.6031 25.4255 92.6167 26.7687 92.5901C28.0915 92.5639 29.3932 92.4974 30.6749 92.4516C32.4854 92.375 34.3565 92.2768 36.1893 92.3016C36.2707 92.2999 36.3517 92.278 36.4116 92.2157C36.4714 92.1534 36.5105 92.0712 36.5089 91.9897L36.5009 91.5826C36.4992 91.5012 36.4569 91.4205 36.415 91.3603C36.3527 91.3004 36.2709 91.2817 36.1895 91.2833L22.7169 91.5503C22.5541 91.5536 22.4145 91.6989 22.4177 91.8617L22.4254 92.2485C22.4282 92.391 22.5531 92.5311 22.7159 92.5279Z" fill="#AFBBF2"/>
<path d="M23.5618 94.12C23.6241 94.1799 23.7063 94.219 23.7877 94.2173L30.4426 94.0854C30.524 94.0838 30.6046 94.0415 30.6648 93.9996C30.7251 93.9576 30.7434 93.8555 30.7418 93.774L30.7386 93.6112C30.7354 93.4483 30.5901 93.3086 30.4273 93.3119L23.7927 93.4434C23.6299 93.4466 23.5102 93.5711 23.4931 93.7344L23.476 93.8977C23.4776 93.9791 23.5199 94.0597 23.5618 94.12Z" fill="#AFBBF2"/>
<path d="M26.0448 74.5392C30.6112 54.6618 35.3381 34.1044 39.1494 13.6986C39.3238 12.765 40.1289 12.0811 41.0784 12.0623L102.46 10.8455C103.151 10.8318 103.648 11.508 103.427 12.1639L102.688 14.3644C101.073 19.1826 99.5547 23.734 98.018 28.3877C97.8836 28.7977 97.722 28.862 97.2743 28.8708C96.5232 28.8857 92.1543 29.1379 88.8433 29.3333C86.701 29.4598 85.0448 31.2566 85.0873 33.4022L86.1468 86.93C86.1577 87.4822 85.719 87.9387 85.1668 87.9496L23.9656 89.1628C23.3169 89.1757 22.8279 88.5768 22.9708 87.9438C23.9873 83.4434 25.0317 78.9227 26.0448 74.5392ZM97.0291 23.6822C97.0909 23.7217 97.1524 23.7409 97.2135 23.7397C97.2949 23.7381 97.3555 23.7165 97.4154 23.6542C98.7747 22.3849 101.66 14.894 101.665 13.0812C101.662 12.9387 101.557 12.7982 101.415 12.7807C101.271 12.7428 101.13 12.8271 101.072 12.9708L96.9201 23.3178C96.8614 23.4412 96.9054 23.6032 97.0291 23.6822ZM95.1848 22.0487C95.2271 22.1294 95.2893 22.1892 95.3508 22.2084L95.6788 22.3241C95.7199 22.3436 95.7607 22.3428 95.8014 22.342C95.9031 22.34 96.0037 22.2769 96.0631 22.1943C97.6189 19.5362 98.6602 16.6031 99.2454 13.2514C99.2625 13.0881 99.1783 12.9472 99.035 12.9093C98.8918 12.8714 98.7302 12.9357 98.6723 13.0998L95.2206 21.8036C95.1408 21.8867 95.1429 21.9885 95.1848 22.0487Z" fill="#AFBBF2"/>
<path d="M97.0291 23.6822C97.0909 23.7217 97.1524 23.7409 97.2135 23.7397C97.2949 23.7381 97.3555 23.7165 97.4154 23.6542C98.7747 22.3849 101.66 14.894 101.665 13.0812C101.662 12.9387 101.557 12.7982 101.415 12.7807C101.271 12.7428 101.13 12.8271 101.072 12.9708L96.9201 23.3178C96.8614 23.4412 96.9054 23.6032 97.0291 23.6822Z" fill="#AFBBF2"/>
<path d="M95.1848 22.0487C95.2271 22.1294 95.2893 22.1892 95.3508 22.2084L95.6788 22.3241C95.7199 22.3436 95.7607 22.3428 95.8014 22.342C95.9031 22.34 96.0037 22.2769 96.0631 22.1943C97.6189 19.5362 98.6602 16.6031 99.2454 13.2514C99.2625 13.0881 99.1783 12.9472 99.035 12.9093C98.8918 12.8714 98.7302 12.9357 98.6723 13.0998L95.2206 21.8036C95.1408 21.8867 95.1429 21.9885 95.1848 22.0487Z" fill="#AFBBF2"/>
<path d="M219.411 54.6177C219.407 54.4548 219.282 54.3147 219.12 54.3179L218.753 54.3048C218.712 54.3057 218.692 54.3061 218.652 54.3272C218.651 54.3137 218.653 54.3 218.655 54.2864C218.659 54.2592 218.663 54.2319 218.649 54.2051C218.627 54.1037 218.564 54.0235 218.462 53.9848C218.419 53.9714 218.376 53.9482 218.34 53.9287C218.324 53.9202 218.31 53.9125 218.297 53.9066C218.281 53.8988 218.264 53.8909 218.248 53.8829C218.096 53.8098 217.927 53.7286 217.744 53.7139C214.607 53.6335 211.287 53.5771 207.336 53.5332C207.153 53.5368 207.013 53.6414 206.913 53.7249L206.893 53.7457L203.112 54.0446C203.03 54.0462 202.95 54.0886 202.91 54.1505C202.85 54.2127 202.832 54.2946 202.833 54.376L202.883 54.8231C202.884 54.9045 202.927 54.9852 202.989 55.0247C203.05 55.0642 203.112 55.0833 203.193 55.0817L203.234 55.0809C203.64 55.0321 204.068 55.0236 204.495 55.0152C205.411 54.997 206.367 54.9781 207.295 54.5116C207.376 54.5304 207.458 54.5491 207.54 54.5475C207.805 54.6033 208.071 54.6592 208.356 54.6331C212.074 54.2743 215.109 54.316 217.886 54.7294C217.906 54.729 217.927 54.7336 217.947 54.7383C217.968 54.743 217.988 54.7477 218.008 54.7473C218.171 54.7441 218.312 54.6802 218.453 54.5756L218.453 54.5959L218.117 71.5475C218.12 71.7104 218.245 71.8505 218.388 71.868L218.796 71.9007L218.837 71.8998C218.918 71.8982 218.979 71.8767 219.038 71.8144C219.098 71.7521 219.138 71.6902 219.136 71.6088C219.461 65.3906 219.555 59.8286 219.411 54.6177Z" fill="#AFBBF2"/>
<path d="M220.968 55.1367C220.966 55.0145 220.882 54.894 220.759 54.8557C220.636 54.8174 220.514 54.8402 220.415 54.944C219.798 55.6487 219.897 64.7913 219.918 65.8499C219.959 68.9245 220.123 76.192 220.853 77.0941C220.916 77.1743 220.998 77.2134 221.1 77.2114C221.14 77.2106 221.161 77.2102 221.201 77.189C221.322 77.1459 221.401 77.0221 221.399 76.8999L220.968 55.1367Z" fill="#AFBBF2"/>
<path fill-rule="evenodd" clip-rule="evenodd" d="M136.659 131.186L136.593 127.888L136.293 115.797C136.286 115.471 136.238 115.085 135.985 114.662C135.922 114.562 135.799 114.503 135.677 114.526C135.556 114.548 135.455 114.632 135.417 114.734C135.397 114.776 135.378 114.817 135.378 114.857C135.372 114.877 135.365 114.898 135.359 114.919C135.323 115.028 135.282 115.151 135.285 115.287L135.613 131.859C135.617 132.042 135.681 132.204 135.745 132.345C135.705 132.407 135.666 132.469 135.668 132.571L135.825 140.49L135.84 141.243C135.842 141.365 135.925 141.466 136.028 141.525C136.07 141.544 136.11 141.543 136.151 141.543C136.232 141.541 136.293 141.519 136.353 141.457C137.292 140.542 137.142 135.026 136.688 132.693L136.659 131.186ZM138.628 136.035L138.536 134.489L138.374 126.305C138.371 126.142 138.246 126.002 138.063 126.006L137.614 125.994C137.452 125.998 137.332 126.122 137.315 126.285C137.318 126.448 137.301 126.612 137.284 126.775C137.28 126.894 137.273 127.015 137.267 127.138C137.253 127.391 137.24 127.648 137.245 127.896C137.298 129.544 137.374 131.355 137.479 133.573C137.483 133.74 137.526 133.891 137.566 134.03C137.571 134.045 137.575 134.061 137.579 134.076C137.584 134.091 137.588 134.106 137.592 134.121C137.597 134.134 137.601 134.145 137.605 134.157C137.622 134.199 137.635 134.235 137.636 134.283C137.641 134.547 137.641 134.807 137.641 135.066L137.641 135.067C137.641 135.327 137.641 135.586 137.647 135.851C137.655 137.277 137.663 138.722 137.691 140.168C137.699 140.534 137.747 140.92 137.795 141.266C137.818 141.428 137.842 141.591 137.845 141.753C137.868 141.896 137.972 142.016 138.115 142.033L138.38 142.048L138.421 142.047C138.563 142.045 138.683 141.94 138.721 141.797C138.726 141.776 138.731 141.754 138.736 141.731C138.74 141.709 138.745 141.687 138.749 141.664C138.758 141.618 138.768 141.572 138.777 141.531C138.834 141.306 138.89 141.081 138.865 140.837C138.839 139.531 138.758 138.184 138.678 136.876C138.661 136.594 138.644 136.313 138.628 136.035ZM154.623 139.792L141.687 139.417C141.545 139.419 141.424 139.503 141.387 139.647C141.349 139.79 141.412 139.931 141.536 139.99C142.606 140.559 147.172 140.835 150.693 140.766C152.483 140.73 154.028 140.598 154.696 140.401C154.838 140.358 154.937 140.213 154.914 140.071C154.89 139.908 154.765 139.789 154.623 139.792ZM219.411 54.6177C219.407 54.4548 219.282 54.3147 219.12 54.3179L218.753 54.3048C218.712 54.3057 218.692 54.3061 218.652 54.3272C218.651 54.3137 218.653 54.3 218.655 54.2864C218.659 54.2592 218.663 54.2319 218.649 54.2051C218.627 54.1037 218.564 54.0235 218.462 53.9848C218.419 53.9714 218.376 53.9482 218.34 53.9287C218.324 53.9202 218.31 53.9125 218.297 53.9066L218.248 53.8829C218.096 53.8098 217.927 53.7286 217.744 53.7139C214.607 53.6335 211.287 53.5771 207.336 53.5332C207.153 53.5368 207.013 53.6414 206.913 53.7249L206.893 53.7457L203.112 54.0446C203.03 54.0462 202.95 54.0886 202.91 54.1505C202.85 54.2127 202.832 54.2946 202.833 54.376L202.883 54.8231C202.884 54.9045 202.927 54.9852 202.989 55.0247C203.05 55.0642 203.112 55.0833 203.193 55.0817L203.234 55.0809C203.64 55.0321 204.068 55.0236 204.495 55.0152C205.411 54.997 206.367 54.9781 207.295 54.5116C207.376 54.5304 207.458 54.5491 207.54 54.5475C207.805 54.6033 208.071 54.6592 208.356 54.6331C212.074 54.2743 215.109 54.316 217.886 54.7294C217.906 54.729 217.927 54.7336 217.947 54.7383C217.968 54.743 217.988 54.7477 218.008 54.7473C218.171 54.7441 218.312 54.6802 218.453 54.5756L218.453 54.5959L218.117 71.5475C218.12 71.7104 218.245 71.8505 218.388 71.868L218.796 71.9007L218.837 71.8998C218.918 71.8982 218.979 71.8767 219.038 71.8144C219.098 71.7521 219.138 71.6902 219.136 71.6088C219.461 65.3906 219.555 59.8286 219.411 54.6177ZM220.968 55.1367C220.966 55.0145 220.882 54.894 220.759 54.8557C220.636 54.8174 220.514 54.8402 220.415 54.944C219.798 55.6487 219.897 64.7913 219.918 65.8499C219.959 68.9245 220.123 76.192 220.853 77.0941C220.916 77.1743 220.998 77.2134 221.1 77.2114C221.14 77.2106 221.161 77.2102 221.201 77.189C221.322 77.1459 221.401 77.0221 221.399 76.8999L220.968 55.1367Z" fill="#AFBBF2"/>
<path fill-rule="evenodd" clip-rule="evenodd" d="M136.593 127.888L136.659 131.186L136.688 132.693C137.142 135.026 137.292 140.542 136.353 141.457C136.293 141.519 136.232 141.541 136.151 141.543C136.11 141.543 136.07 141.544 136.028 141.525C135.925 141.466 135.842 141.365 135.84 141.243L135.825 140.49L135.668 132.571C135.666 132.469 135.705 132.407 135.745 132.345C135.681 132.204 135.617 132.042 135.613 131.859L135.285 115.287C135.282 115.151 135.323 115.028 135.359 114.919C135.365 114.898 135.372 114.877 135.378 114.857C135.378 114.817 135.397 114.776 135.417 114.734C135.455 114.632 135.556 114.548 135.677 114.526C135.799 114.503 135.922 114.562 135.985 114.662C136.238 115.085 136.286 115.471 136.293 115.797L136.593 127.888ZM138.536 134.489L138.628 136.035C138.644 136.313 138.661 136.594 138.678 136.876C138.758 138.184 138.839 139.531 138.865 140.837C138.89 141.081 138.834 141.306 138.777 141.531C138.768 141.572 138.758 141.618 138.749 141.664L138.736 141.731C138.731 141.754 138.726 141.776 138.721 141.797C138.683 141.94 138.563 142.045 138.421 142.047L138.38 142.048L138.115 142.033C137.972 142.016 137.868 141.896 137.845 141.753C137.842 141.591 137.818 141.428 137.795 141.266C137.747 140.92 137.699 140.534 137.691 140.168C137.663 138.722 137.655 137.277 137.647 135.851C137.641 135.586 137.641 135.327 137.641 135.067L137.641 135.066C137.641 134.807 137.641 134.547 137.636 134.283C137.635 134.235 137.622 134.199 137.605 134.157C137.601 134.145 137.597 134.134 137.592 134.121C137.588 134.106 137.584 134.091 137.579 134.076L137.566 134.03C137.526 133.891 137.483 133.74 137.479 133.573C137.374 131.355 137.298 129.544 137.245 127.896C137.24 127.648 137.253 127.391 137.267 127.138C137.273 127.015 137.28 126.894 137.284 126.775C137.301 126.612 137.318 126.448 137.315 126.285C137.332 126.122 137.452 125.998 137.614 125.994L138.063 126.006C138.246 126.002 138.371 126.142 138.374 126.305L138.536 134.489ZM141.687 139.417L154.623 139.792C154.765 139.789 154.89 139.908 154.914 140.071C154.937 140.213 154.838 140.358 154.696 140.401C154.028 140.598 152.483 140.73 150.693 140.766C147.172 140.835 142.606 140.559 141.536 139.99C141.412 139.931 141.349 139.79 141.387 139.647C141.424 139.503 141.545 139.419 141.687 139.417ZM219.12 54.3179C219.282 54.3147 219.407 54.4548 219.411 54.6177C219.555 59.8286 219.461 65.3906 219.136 71.6088C219.138 71.6902 219.098 71.7521 219.038 71.8144C218.979 71.8767 218.918 71.8982 218.837 71.8998L218.796 71.9007L218.388 71.868C218.245 71.8505 218.12 71.7104 218.117 71.5475L218.453 54.5959L218.453 54.5756C218.312 54.6802 218.171 54.7441 218.008 54.7473C217.988 54.7477 217.968 54.743 217.947 54.7383C217.927 54.7336 217.906 54.729 217.886 54.7294C215.109 54.316 212.074 54.2743 208.356 54.6331C208.071 54.6592 207.805 54.6033 207.54 54.5475C207.458 54.5491 207.376 54.5304 207.295 54.5116C206.367 54.9781 205.411 54.997 204.495 55.0152C204.068 55.0236 203.64 55.0321 203.234 55.0809L203.193 55.0817C203.112 55.0833 203.05 55.0642 202.989 55.0247C202.927 54.9852 202.884 54.9045 202.883 54.8231L202.833 54.376C202.832 54.2946 202.85 54.2127 202.91 54.1505C202.95 54.0886 203.03 54.0462 203.112 54.0446L206.893 53.7457L206.913 53.7249C207.013 53.6414 207.153 53.5368 207.336 53.5332C211.287 53.5771 214.607 53.6335 217.744 53.7139C217.927 53.7286 218.096 53.8098 218.248 53.8829L218.297 53.9066C218.31 53.9125 218.324 53.9202 218.34 53.9287C218.376 53.9482 218.419 53.9714 218.462 53.9848C218.564 54.0235 218.627 54.1037 218.649 54.2051C218.663 54.2319 218.659 54.2592 218.655 54.2864C218.653 54.3 218.651 54.3137 218.652 54.3272C218.692 54.3061 218.712 54.3057 218.753 54.3048L219.12 54.3179ZM220.759 54.8557C220.882 54.894 220.966 55.0145 220.968 55.1367L221.399 76.8999C221.401 77.0221 221.322 77.1459 221.201 77.189C221.161 77.2102 221.14 77.2106 221.1 77.2114C220.998 77.2134 220.916 77.1743 220.853 77.0941C220.123 76.192 219.959 68.9245 219.918 65.8499C219.897 64.7913 219.798 55.6487 220.415 54.944C220.514 54.8402 220.636 54.8174 220.759 54.8557Z" fill="#AFBBF2"/>
<path fill-rule="evenodd" clip-rule="evenodd" d="M134.32 142.348C133.744 142.384 133.257 141.926 133.257 141.349C133.26 111.871 132.551 82.5761 131.145 54.2492L220.128 52.4853C221.834 52.4515 223.225 53.845 223.187 55.5506L221.5 132.283C221.442 134.88 219.407 137.001 216.814 137.163L134.32 142.348ZM136.593 127.888L136.659 131.186L136.688 132.693C137.142 135.026 137.292 140.542 136.353 141.457C136.293 141.519 136.232 141.541 136.151 141.543C136.11 141.543 136.07 141.544 136.028 141.525C135.925 141.466 135.842 141.365 135.84 141.243L135.825 140.49L135.668 132.571C135.666 132.469 135.705 132.407 135.745 132.345C135.681 132.204 135.617 132.042 135.613 131.859L135.285 115.287C135.282 115.151 135.323 115.028 135.359 114.919C135.365 114.898 135.372 114.877 135.378 114.857C135.378 114.817 135.397 114.776 135.417 114.734C135.455 114.632 135.556 114.548 135.677 114.526C135.799 114.503 135.922 114.562 135.985 114.662C136.238 115.085 136.286 115.471 136.293 115.797L136.593 127.888ZM138.536 134.489L138.628 136.035C138.644 136.313 138.661 136.594 138.678 136.876C138.758 138.184 138.839 139.531 138.865 140.837C138.89 141.081 138.834 141.306 138.777 141.531C138.768 141.572 138.758 141.618 138.749 141.664L138.736 141.731C138.731 141.754 138.726 141.776 138.721 141.797C138.683 141.94 138.563 142.045 138.421 142.047L138.38 142.048L138.115 142.033C137.972 142.016 137.868 141.896 137.845 141.753C137.842 141.591 137.818 141.428 137.795 141.266C137.747 140.92 137.699 140.534 137.691 140.168C137.663 138.722 137.655 137.277 137.647 135.851C137.641 135.586 137.641 135.327 137.641 135.067L137.641 135.066C137.641 134.807 137.641 134.547 137.636 134.283C137.635 134.235 137.622 134.199 137.605 134.157C137.601 134.145 137.597 134.134 137.592 134.121C137.588 134.106 137.584 134.091 137.579 134.076L137.566 134.03C137.526 133.891 137.483 133.74 137.479 133.573C137.374 131.355 137.298 129.544 137.245 127.896C137.24 127.648 137.253 127.391 137.267 127.138C137.273 127.015 137.28 126.894 137.284 126.775C137.301 126.612 137.318 126.448 137.315 126.285C137.332 126.122 137.452 125.998 137.614 125.994L138.063 126.006C138.246 126.002 138.371 126.142 138.374 126.305L138.536 134.489ZM141.687 139.417L154.623 139.792C154.765 139.789 154.89 139.908 154.914 140.071C154.937 140.213 154.838 140.358 154.696 140.401C154.028 140.598 152.483 140.73 150.693 140.766C147.172 140.835 142.606 140.559 141.536 139.99C141.412 139.931 141.349 139.79 141.387 139.647C141.424 139.503 141.545 139.419 141.687 139.417ZM219.12 54.3179C219.282 54.3147 219.407 54.4548 219.411 54.6177C219.555 59.8286 219.461 65.3906 219.136 71.6088C219.138 71.6902 219.098 71.7521 219.038 71.8144C218.979 71.8767 218.918 71.8982 218.837 71.8998L218.796 71.9007L218.388 71.868C218.245 71.8505 218.12 71.7104 218.117 71.5475L218.453 54.5959L218.453 54.5756C218.312 54.6802 218.171 54.7441 218.008 54.7473C217.988 54.7477 217.968 54.743 217.947 54.7383C217.927 54.7336 217.906 54.729 217.886 54.7294C215.109 54.316 212.074 54.2743 208.356 54.6331C208.071 54.6592 207.805 54.6033 207.54 54.5475C207.458 54.5491 207.376 54.5304 207.295 54.5116C206.367 54.9781 205.411 54.997 204.495 55.0152C204.068 55.0236 203.64 55.0321 203.234 55.0809L203.193 55.0817C203.112 55.0833 203.05 55.0642 202.989 55.0247C202.927 54.9852 202.884 54.9045 202.883 54.8231L202.833 54.376C202.832 54.2946 202.85 54.2127 202.91 54.1505C202.95 54.0886 203.03 54.0462 203.112 54.0446L206.893 53.7457L206.913 53.7249C207.013 53.6414 207.153 53.5368 207.336 53.5332C211.287 53.5771 214.607 53.6335 217.744 53.7139C217.927 53.7286 218.096 53.8098 218.248 53.8829L218.297 53.9066C218.31 53.9125 218.324 53.9202 218.34 53.9287C218.376 53.9482 218.419 53.9714 218.462 53.9848C218.564 54.0235 218.627 54.1037 218.649 54.2051C218.663 54.2319 218.659 54.2592 218.655 54.2864C218.653 54.3 218.651 54.3137 218.652 54.3272C218.692 54.3061 218.712 54.3057 218.753 54.3048L219.12 54.3179ZM220.759 54.8557C220.882 54.894 220.966 55.0145 220.968 55.1367L221.399 76.8999C221.401 77.0221 221.322 77.1459 221.201 77.189C221.161 77.2102 221.14 77.2106 221.1 77.2114C220.998 77.2134 220.916 77.1743 220.853 77.0941C220.123 76.192 219.959 68.9245 219.918 65.8499C219.897 64.7913 219.798 55.6487 220.415 54.944C220.514 54.8402 220.636 54.8174 220.759 54.8557Z" fill="#AFBBF2"/>
<path d="M171.533 30.4169C171.517 30.0434 171.902 29.7851 172.242 29.9404C179.486 33.2483 186.922 36.3469 194.127 39.3548C202.217 42.7258 210.536 46.1972 218.684 50.0045C219.162 50.2278 219.01 50.9388 218.482 50.9493L172.936 51.8521C172.665 51.8575 172.438 51.6449 172.427 51.3735L171.533 30.4169ZM186.784 40.702C186.865 40.7003 186.946 40.658 187.006 40.5957C187.085 40.4923 187.102 40.3494 187.019 40.2289C186.285 39.1436 177.694 35.0574 175.74 35.0961C175.699 35.0969 175.679 35.0973 175.658 35.0977C175.516 35.1209 175.417 35.2247 175.378 35.3477C175.361 35.4906 175.424 35.6115 175.548 35.6702L186.64 40.6641C186.682 40.6836 186.743 40.7028 186.784 40.702ZM174.866 44.4209C174.907 44.4404 174.947 44.4396 174.988 44.4388C175.07 44.4372 175.15 44.3948 175.21 44.3326C176.006 43.4003 176.152 38.4484 175.45 36.8941C175.386 36.7732 175.242 36.6945 175.12 36.7173C174.978 36.7405 174.879 36.8647 174.882 37.0072L174.697 44.1391C174.679 44.2616 174.743 44.3826 174.866 44.4209ZM172.59 44.6696C172.594 44.8325 172.739 44.9722 172.902 44.9689L173.227 44.9625C173.309 44.9609 173.389 44.9185 173.45 44.8766C173.509 44.8143 173.528 44.7325 173.526 44.6511L173.295 32.945C173.292 32.7821 173.146 32.6425 172.983 32.6457L172.658 32.6521C172.576 32.6537 172.496 32.6961 172.436 32.738C172.376 32.8003 172.357 32.8821 172.359 32.9636L172.59 44.6696Z" fill="#AFBBF2"/>
<path d="M172.59 44.6696C172.594 44.8325 172.739 44.9722 172.902 44.9689L173.227 44.9625C173.309 44.9609 173.389 44.9185 173.45 44.8766C173.509 44.8143 173.528 44.7325 173.526 44.6511L173.295 32.945C173.292 32.7821 173.146 32.6425 172.983 32.6457L172.658 32.6521C172.576 32.6537 172.496 32.6961 172.436 32.738C172.376 32.8003 172.357 32.8821 172.359 32.9636L172.59 44.6696Z" fill="#AFBBF2"/>
<path d="M174.866 44.4209C174.907 44.4404 174.947 44.4396 174.988 44.4388C175.07 44.4372 175.15 44.3948 175.21 44.3326C176.006 43.4003 176.152 38.4484 175.45 36.8941C175.386 36.7732 175.242 36.6945 175.12 36.7173C174.978 36.7405 174.879 36.8647 174.882 37.0072L174.697 44.1391C174.679 44.2616 174.743 44.3826 174.866 44.4209Z" fill="#AFBBF2"/>
<path d="M79.0038 10.027C73.4885 10.1363 67.9733 10.2456 62.4785 10.3545C54.8671 10.5054 47.276 10.6558 39.6646 10.8067C39.1965 10.816 38.8697 10.7614 38.6235 10.6644C34.9973 9.08176 31.3832 7.47111 27.76 5.88143C26.7752 5.44937 27.0674 3.96844 28.1426 3.94634C34.0123 3.82567 39.8817 3.69662 45.7511 3.55828C57.1881 3.31123 69.0119 3.0565 80.6321 2.80581C81.3851 2.79089 82.1381 2.77596 82.8911 2.76104C89.953 2.62106 97.0967 2.49983 104.037 2.40299L106.642 2.35136C111.549 2.2541 116.364 5.79741 120.954 8.1163C121.441 8.36274 121.275 9.1891 120.728 9.19993L109.917 9.41421C99.64 9.61792 89.3219 9.82244 79.0038 10.027ZM106.945 3.22107C106.941 3.05821 106.796 2.91853 106.633 2.92176L91.9599 3.2126C91.8785 3.21422 91.7979 3.25654 91.7381 3.31882C91.6782 3.38111 91.6595 3.46294 91.6611 3.54437L91.6879 3.86968C91.6911 4.03253 91.836 4.15185 91.9988 4.14862L106.652 3.85819C106.733 3.85657 106.814 3.81425 106.874 3.77232C106.934 3.7304 106.953 3.62821 106.951 3.54678L106.945 3.22107ZM111.314 4.88585L111.329 4.62081C111.328 4.53938 111.306 4.45836 111.243 4.39849C111.181 4.33863 111.099 4.29953 111.017 4.30115L98.5302 4.54866C98.3877 4.55148 98.2672 4.63533 98.2497 4.77823C98.2114 4.90118 98.2753 5.04247 98.3786 5.12188C98.9765 5.49697 103.267 5.61321 105.526 5.56844C106.991 5.53939 110.042 5.39984 111.075 5.17569C111.217 5.13216 111.317 5.02835 111.314 4.88585Z" fill="#AFBBF2"/>
<path d="M106.945 3.22107C106.941 3.05821 106.796 2.91853 106.633 2.92176L91.9599 3.2126C91.8785 3.21422 91.7979 3.25654 91.7381 3.31882C91.6782 3.38111 91.6595 3.46294 91.6611 3.54437L91.6879 3.86968C91.6911 4.03253 91.836 4.15185 91.9988 4.14862L106.652 3.85819C106.733 3.85657 106.814 3.81425 106.874 3.77232C106.934 3.7304 106.953 3.62821 106.951 3.54678L106.945 3.22107Z" fill="#AFBBF2"/>
<path d="M116.833 28.4217C113.67 28.5048 110.451 28.589 107.324 28.6713C105.778 28.7223 104.214 28.7533 102.669 28.8043C101.905 28.8195 101.123 28.835 100.341 28.8505C99.9813 28.8576 99.7186 28.5125 99.8213 28.1676L100.705 25.1977C102.12 20.3835 103.467 15.8354 104.831 11.2056C104.951 10.8162 105.096 10.793 105.532 10.7843C108.278 10.7299 111.024 10.6755 113.77 10.6211L121.455 10.4687C122.128 10.4554 122.621 11.0974 122.433 11.7432C121.928 13.4771 121.675 14.2629 121.325 15.4407C120.096 19.5384 118.816 23.7796 117.588 27.9383C117.469 28.3684 117.306 28.392 116.833 28.4217ZM118.761 11.8256C118.723 11.7449 118.649 11.7056 118.576 11.6867L118.339 11.6303C118.21 11.5921 118.067 11.6764 118.033 11.84L115.558 20.056C115.525 20.1993 115.564 20.341 115.693 20.42C115.729 20.4396 115.784 20.4589 115.839 20.4578C115.912 20.4563 115.984 20.4142 116.037 20.352C117.436 18.4302 117.918 16.1396 118.402 13.9101C118.535 13.2964 118.669 12.6828 118.82 12.0688C118.819 11.9874 118.817 11.9059 118.761 11.8256ZM120.079 12.2475L119.877 12.17C119.731 12.1119 119.587 12.1962 119.535 12.3601L115.027 26.3191C115.011 26.4008 115.012 26.4823 115.032 26.543C115.051 26.6037 115.125 26.6633 115.18 26.703L115.547 26.8586C115.584 26.8783 115.62 26.8776 115.639 26.8772C115.748 26.875 115.837 26.8122 115.89 26.6889C117.813 21.8239 119.231 17.2134 120.25 12.6107C120.284 12.4675 120.208 12.3061 120.079 12.2475Z" fill="#AFBBF2"/>
<path d="M118.761 11.8256C118.723 11.7449 118.649 11.7056 118.576 11.6867L118.339 11.6303C118.21 11.5921 118.067 11.6764 118.033 11.84L115.558 20.056C115.525 20.1993 115.564 20.341 115.693 20.42C115.729 20.4396 115.784 20.4589 115.839 20.4578C115.912 20.4563 115.984 20.4142 116.037 20.352C117.436 18.4302 117.918 16.1396 118.402 13.9101C118.535 13.2964 118.669 12.6828 118.82 12.0688C118.819 11.9874 118.817 11.9059 118.761 11.8256Z" fill="#AFBBF2"/>
<path d="M120.079 12.2475L119.877 12.17C119.731 12.1119 119.587 12.1962 119.535 12.3601L115.027 26.3191C115.011 26.4008 115.012 26.4823 115.032 26.543C115.051 26.6037 115.125 26.6633 115.18 26.703L115.547 26.8586C115.584 26.8783 115.62 26.8776 115.639 26.8772C115.748 26.875 115.837 26.8122 115.89 26.6889C117.813 21.8239 119.231 17.2134 120.25 12.6107C120.284 12.4675 120.208 12.3061 120.079 12.2475Z" fill="#AFBBF2"/>
<path d="M31.2127 26.0251L31.54 26.1001L31.6214 26.0985C31.7638 26.0956 31.8843 26.0118 31.9019 25.8689L34.8039 14.0802C34.8414 13.9165 34.7567 13.7552 34.5931 13.7178L34.1837 13.6037C34.1019 13.5849 34.0205 13.5865 33.9399 13.6289C33.8593 13.6712 33.8198 13.7331 33.801 13.8149C33.4804 15.1044 33.1195 16.415 32.7578 17.6849C32.7426 17.7392 32.7274 17.7935 32.7122 17.8478C32.0034 20.3783 31.2674 23.006 30.9616 25.6838C30.9649 25.8467 31.0491 25.9876 31.2127 26.0251Z" fill="#AFBBF2"/>
<path d="M31.2855 30.7283C31.3266 30.7479 31.3677 30.7674 31.4287 30.7662C31.5305 30.7642 31.6111 30.7219 31.6705 30.6392C33.0988 28.7372 35.5434 18.5258 35.5825 14.3295C35.5793 14.1666 35.4751 14.0465 35.3119 14.0294C35.1487 14.0122 35.0082 14.1169 34.9703 14.2602L31.1158 30.3855C31.0775 30.5084 31.1414 30.6497 31.2855 30.7283Z" fill="#AFBBF2"/>
<path fill-rule="evenodd" clip-rule="evenodd" d="M30.4231 8.7636C27.7749 7.58654 25.1257 6.40902 22.4422 5.32755C21.281 4.85961 19.9963 5.59004 19.7724 6.82173C16.2817 26.0195 11.8757 45.1937 7.58924 63.7642C5.80221 71.4881 3.96921 79.4308 2.2217 87.316C1.91141 88.7161 2.63839 90.1386 3.95355 90.7103L16.9766 96.3711C18.1182 96.8673 19.4311 96.2112 19.7187 95C22.3698 83.8373 24.9704 72.662 27.5168 61.4751L27.6667 60.8204C27.8312 60.0944 27.9963 59.3664 28.1618 58.6365C29.9548 50.7282 31.7961 42.6073 33.5197 34.5741C34.5435 29.7269 35.5242 24.7584 36.4475 19.9743C36.6228 19.0865 36.7978 18.1828 36.974 17.2733C37.244 15.8786 37.5168 14.4702 37.7974 13.084C37.9457 12.3478 37.857 11.983 36.9743 11.6135C34.7789 10.6997 32.6013 9.7318 30.4231 8.7636ZM31.4287 30.7662C31.3677 30.7674 31.3266 30.7479 31.2855 30.7283C31.1414 30.6497 31.0775 30.5084 31.1158 30.3855L34.9703 14.2602C35.0082 14.1169 35.1487 14.0122 35.3119 14.0294C35.4751 14.0465 35.5793 14.1666 35.5825 14.3295C35.5434 18.5258 33.0988 28.7372 31.6705 30.6392C31.6111 30.7219 31.5305 30.7642 31.4287 30.7662ZM31.54 26.1001L31.2127 26.0251C31.0491 25.9876 30.9649 25.8467 30.9616 25.6838C31.2674 23.006 32.0034 20.3783 32.7122 17.8478C32.7274 17.7935 32.7426 17.7392 32.7578 17.6849C33.1195 16.415 33.4804 15.1044 33.801 13.8149C33.8198 13.7331 33.8593 13.6712 33.9399 13.6289C34.0205 13.5865 34.1019 13.5849 34.1837 13.6037L34.5931 13.7178C34.7567 13.7552 34.8414 13.9165 34.8039 14.0802L31.9019 25.8689C31.8843 26.0118 31.7638 26.0956 31.6214 26.0985L31.54 26.1001ZM4.10808 87.4381C3.98597 87.4405 3.86227 87.3615 3.81955 87.2605C3.20396 85.9896 5.08297 79.0888 5.46341 77.7371C6.5086 73.9689 8.08513 69.2737 9.02594 68.4608C9.12568 68.357 9.26816 68.3541 9.39188 68.4332C9.5156 68.5122 9.55912 68.6539 9.52083 68.7768C9.38643 69.1868 9.24685 69.5918 9.10726 69.9968C8.96767 70.4019 8.82808 70.8069 8.69368 71.2169C8.19835 72.6746 7.81384 74.7643 7.40443 76.9893C6.66586 81.0032 5.84625 85.4575 4.1488 87.4373L4.10808 87.4381Z" fill="#AFBBF2"/>
</g>
<g clip-path="url(#clip0_1908_4223)">
<path d="M162.492 79.4426C162.579 79.6554 162.594 80.0285 162.576 80.521L162.563 80.6789C162.549 80.8172 162.553 80.9154 162.555 80.9743L162.607 82.7032L162.612 82.8211L162.615 82.8996C162.632 83.312 162.626 83.6467 162.577 83.8847C162.561 83.9641 162.545 84.0434 162.509 84.1236C162.302 84.7813 161.795 85.2743 161.009 85.6214C160.319 85.9252 159.506 86.0964 158.551 86.1358C158.492 86.1382 158.414 86.1414 158.317 86.1454L158.278 86.147L158.063 86.1362C157.847 86.1254 157.614 86.1351 157.398 86.1046L157.182 86.0938L157.143 86.0954C157.006 86.0814 156.908 86.0658 156.849 86.0486L156.711 86.0345C156.378 85.9893 156.043 85.9244 155.727 85.839C155.589 85.8054 155.45 85.7521 155.332 85.7176L155.213 85.6832C154.56 85.474 153.978 85.0849 153.446 84.497C152.914 83.9091 152.478 83.278 152.179 82.6412C151.818 81.9282 151.609 81.1303 151.535 80.2875C151.462 79.4643 151.546 78.6543 151.768 77.878C151.837 77.6588 151.907 77.4592 151.977 77.2596C152.224 76.6199 152.591 76.054 153.038 75.5438C153.506 75.0328 154.036 74.6372 154.649 74.3562L154.686 74.3153L154.859 74.2491L154.878 74.2287C155.108 74.1209 155.397 74.0303 155.706 73.9389L155.86 73.8932L155.898 73.8719L155.918 73.8711C157.134 73.5456 158.382 73.5138 159.643 73.7766C159.683 73.7947 159.721 73.7931 159.761 73.8111C160.668 74.0098 161.33 74.4546 161.766 75.0858C161.891 75.2774 161.957 75.4517 161.964 75.6284C161.97 75.7659 161.899 75.9458 161.772 76.1871C161.573 76.5691 161.348 76.7751 161.095 76.8052C161.018 76.828 160.959 76.8108 160.88 76.7944L160.86 76.7952L160.821 76.7968L160.584 76.7279L160.642 76.7058C160.622 76.7066 160.622 76.7066 160.602 76.6878C160.562 76.6698 160.523 76.6517 160.502 76.6329C160.363 76.56 160.165 76.5091 159.928 76.4402C159.888 76.4221 159.81 76.4253 159.731 76.3893C159.179 76.2547 158.63 76.2182 158.104 76.2399C157.19 76.3169 156.441 76.6232 155.838 77.1595C155.197 77.717 154.82 78.5194 154.746 79.565C154.695 80.2163 154.758 80.8038 154.957 81.3661C155.042 81.5396 155.108 81.7139 155.213 81.8867C155.57 82.5014 156.038 82.9542 156.654 83.2239C157.271 83.4936 157.897 83.5465 158.575 83.4005C158.981 83.3051 159.267 83.1359 159.413 82.8939C159.523 82.7123 159.553 82.4947 159.542 82.2394C159.512 81.9849 159.425 81.7721 159.281 81.5813C159.076 81.3537 158.72 81.2307 158.232 81.2508C158.193 81.2524 158.096 81.2564 157.98 81.2809C157.903 81.3037 157.805 81.3077 157.726 81.2913C157.629 81.2953 157.55 81.2789 157.471 81.2625C157.393 81.246 157.333 81.2092 157.271 81.133C157.209 81.0569 157.166 80.9603 157.122 80.8441C157.006 80.3768 156.952 80.0249 156.962 79.7885C156.941 79.7696 156.94 79.7304 156.937 79.6714L156.956 79.651C157.019 79.2747 157.203 79.0113 157.47 78.8626C157.623 78.7777 157.837 78.7492 158.129 78.7371C158.285 78.7307 158.499 78.7219 158.791 78.6902L158.81 78.6894L158.985 78.6625L159.004 78.6617L159.043 78.6601C159.374 78.6268 159.647 78.6156 159.881 78.6256C159.998 78.6208 160.174 78.6135 160.407 78.5843C160.854 78.5461 161.166 78.5333 161.402 78.5826C161.56 78.6154 161.698 78.6491 161.838 78.722C161.977 78.7949 162.118 78.8875 162.24 79.0201C162.343 79.134 162.427 79.2879 162.492 79.4426Z" fill="#F1F4FF"/>
<path d="M173.79 83.56C173.94 83.8883 173.972 84.182 173.885 84.4413C173.817 84.6802 173.65 84.9035 173.364 85.0726C172.889 85.3872 172.346 85.4687 171.733 85.2972C171.516 85.2274 171.336 85.1365 171.155 85.0063C170.974 84.876 170.832 84.7442 170.749 84.6296C170.666 84.5149 170.523 84.3438 170.357 84.1146L169.798 83.3311L169.177 82.4715L169.095 82.3765C168.824 81.9746 168.58 81.7289 168.341 81.6207C168.182 81.5486 168.045 81.5542 167.949 81.5779C167.853 81.6212 167.74 81.7242 167.648 81.8657C167.484 82.1282 167.399 82.4464 167.374 82.8015C167.35 83.1566 167.364 83.4904 167.415 83.7834C167.447 84.0968 167.477 84.3316 167.483 84.4888C167.493 84.7244 167.462 84.9224 167.39 85.0631C167.299 85.2242 167.148 85.3681 166.938 85.4751C166.689 85.6034 166.38 85.6751 166.029 85.6896C165.308 85.7193 164.813 85.543 164.543 85.1607C164.439 85.0076 164.37 84.7547 164.336 84.402C164.308 84.1868 164.298 83.9512 164.268 83.6967L164.266 83.6574L164.254 83.3628C164.225 83.128 164.215 82.8923 164.205 82.637L164.193 82.3425L164.191 82.3032C164.177 81.9497 164.154 81.3999 164.144 80.6921C164.134 79.9647 164.111 79.4148 164.096 79.0417L163.97 75.9782C163.943 75.3302 163.981 74.8368 164.084 74.4785L164.103 74.4777L164.102 74.4384L164.12 74.3983C164.172 74.2585 164.227 74.1579 164.301 74.0761C164.393 73.9346 164.584 73.8284 164.874 73.7574C164.951 73.7346 165.009 73.7125 165.047 73.6913C165.24 73.644 165.433 73.577 165.626 73.5297L165.646 73.5289L165.762 73.5045C165.781 73.5037 165.801 73.5029 165.82 73.5021L165.917 73.4784C166.342 73.3822 166.847 73.322 167.432 73.2979C168.62 73.2097 169.579 73.2685 170.308 73.4352C171.057 73.6207 171.696 73.9681 172.245 74.4963L172.266 74.5151L172.449 74.7043L172.43 74.7051C172.757 75.0653 173.008 75.4681 173.182 75.9133L173.27 76.1458L173.272 76.185C173.383 76.5149 173.435 76.8471 173.43 77.1818C173.435 77.3192 173.442 77.4763 173.428 77.6146C173.366 78.4827 173.027 79.2638 172.45 79.9368C172.412 79.958 172.375 80.0185 172.3 80.1003C172.131 80.2646 172.02 80.4069 171.966 80.5075C171.874 80.649 171.821 80.7889 171.826 80.9067C171.832 81.0442 171.855 81.1415 171.917 81.2177C171.959 81.2946 172.061 81.4084 172.186 81.5804C172.267 81.6557 172.308 81.713 172.329 81.7515L173.273 82.8732C173.538 83.1376 173.704 83.3669 173.79 83.56ZM168.33 78.9853C168.487 78.9985 168.662 78.9716 168.855 78.9243C169.474 78.8004 169.892 78.5078 170.089 78.0669C170.232 77.7659 170.258 77.4501 170.204 77.0786C170.153 76.7857 170.026 76.5548 169.862 76.3649C169.678 76.1561 169.399 76.0299 169.084 75.9445C168.867 75.8944 168.553 75.868 168.163 75.8644C168.104 75.8668 168.065 75.8685 168.026 75.8701C167.89 75.8757 167.793 75.8993 167.716 75.9222C167.486 76.03 167.337 76.2132 167.252 76.5118C167.167 76.8103 167.139 77.0869 167.151 77.3815C167.183 77.6752 167.214 77.9493 167.283 78.2022C167.307 78.3192 167.35 78.4158 167.392 78.4928C167.415 78.5705 167.456 78.6082 167.477 78.6467C167.661 78.8555 167.919 78.9628 168.272 78.9877L168.33 78.9853Z" fill="#F1F4FF"/>
<path d="M186.663 78.0327C186.694 78.3265 186.705 78.5818 186.694 78.7986C186.68 78.9369 186.667 79.0751 186.634 79.2339L186.601 79.3729C186.602 79.3926 186.602 79.4122 186.604 79.4515C186.39 80.4242 185.959 81.3272 185.311 82.1801C184.662 83.033 183.91 83.7328 183.033 84.241C182.098 84.7713 181.153 85.0463 180.179 85.0865C179.555 85.1122 178.947 85.0389 178.373 84.8658C177.76 84.6747 177.201 84.3633 176.697 83.971C176.656 83.9333 176.595 83.8768 176.535 83.84C175.705 83.1267 175.139 82.1861 174.857 81.0175C174.574 79.8488 174.624 78.6862 175.024 77.4894C175.406 76.3328 176.029 75.3432 176.913 74.5396L176.952 74.5183L177.083 74.3949C177.31 74.2085 177.537 74.0418 177.784 73.8742L177.765 73.875L177.917 73.79L177.974 73.7484C178.794 73.2622 179.642 73.0108 180.557 72.9338C181.472 72.8764 182.356 73.017 183.211 73.3752L183.25 73.3933L183.429 73.4646C183.449 73.4834 183.449 73.4834 183.489 73.5014C183.509 73.5203 183.529 73.5195 183.548 73.5187C183.987 73.7367 184.389 74.0152 184.753 74.3346C184.774 74.3534 184.774 74.3534 184.794 74.3722C184.814 74.3911 184.814 74.3911 184.815 74.4107L184.814 74.3911L184.957 74.5425L184.997 74.5606L184.998 74.5802C185.283 74.8635 185.55 75.1869 185.78 75.5512C186.009 75.9155 186.2 76.2814 186.353 76.6685C186.505 77.0557 186.599 77.4452 186.674 77.8356L186.698 77.9329L186.702 78.0311L186.663 78.0327ZM179.029 80.4127C179.177 80.6821 179.382 80.9097 179.624 81.0964C179.866 81.2832 180.143 81.3898 180.418 81.4178C180.909 81.4959 181.333 81.3604 181.69 81.0113C181.764 80.9295 181.839 80.8478 181.914 80.766C182.044 80.6033 182.133 80.4029 182.242 80.2017C182.403 79.841 182.525 79.4819 182.587 79.1055C182.65 78.7292 182.634 78.3365 182.558 77.9265C182.464 77.5173 182.293 77.1702 182.008 76.8869C181.642 76.5282 181.207 76.3888 180.723 76.4874C180.297 76.5837 179.897 76.8165 179.521 77.1861C179.146 77.5556 178.91 77.9785 178.811 78.4153C178.763 78.673 178.734 78.9299 178.744 79.1656C178.737 79.4609 178.786 79.7146 178.855 79.9675C178.901 80.1426 178.946 80.2785 179.029 80.4127Z" fill="#F1F4FF"/>
<path d="M202.261 72.8264C202.409 73.0957 202.464 73.4869 202.39 74.0407L202.337 74.6724C202.175 76.4101 202.014 77.715 201.893 78.5855L201.896 78.6445L201.864 78.8228C201.818 79.1198 201.77 79.3775 201.722 79.6352L201.69 79.8135L201.673 79.8733C201.496 80.7854 201.297 81.6395 201.074 82.3962C200.834 83.2126 200.505 83.7572 200.087 84.0302C199.801 84.1994 199.434 84.2932 198.966 84.3124L198.947 84.3132C198.05 84.3502 197.382 84.24 196.98 83.9615L196.939 83.9238L196.698 83.7568L196.757 83.7543C196.737 83.7551 196.737 83.7551 196.737 83.7355C196.634 83.6217 196.548 83.4285 196.438 83.138C196.395 83.0217 196.351 82.9055 196.327 82.8081L196.327 82.7885C196.283 82.6919 196.239 82.5561 196.173 82.3817C195.863 81.4896 195.64 80.8103 195.523 80.3431C195.477 80.1679 195.433 80.0517 195.391 79.9944C195.309 79.8798 195.229 79.8437 195.153 79.8862C195.076 79.909 195.02 79.9704 194.985 80.0898C194.883 80.4481 194.783 80.8653 194.665 81.3226C194.582 81.6801 194.503 82.1162 194.405 82.5923L194.344 83.0079C194.268 83.5225 194.107 83.8832 193.88 84.0499C193.711 84.2143 193.422 84.3245 193.015 84.4003C192.434 84.5029 191.967 84.5418 191.615 84.5367C191.322 84.5291 191.046 84.4618 190.807 84.3536C190.569 84.2454 190.388 84.1348 190.246 84.0029C190.104 83.8711 189.98 83.6992 189.834 83.4691C189.688 83.2391 189.601 83.0263 189.536 82.8716C189.471 82.7169 189.383 82.4845 189.273 82.1743L189.206 81.9803L189.205 81.9607L189.184 81.9222C189.072 81.5531 188.937 81.1259 188.8 80.6398L188.732 80.4262L188.731 80.3869C188.684 80.1921 188.594 79.9008 188.5 79.5308L188.408 79.2002C188.225 78.539 188.06 77.8572 187.915 77.1747C187.87 77.0192 187.822 76.8048 187.731 76.4938C187.639 76.1632 187.59 75.9292 187.543 75.7344C187.497 75.5593 187.448 75.3252 187.397 75.0322C187.346 74.7393 187.316 74.4848 187.326 74.2483C187.336 74.0119 187.346 73.7754 187.376 73.5578C187.441 73.2404 187.606 72.9975 187.853 72.83L187.891 72.8087L188.12 72.6813L188.122 72.7205C188.314 72.6339 188.547 72.6047 188.82 72.5934C189.268 72.575 189.642 72.6579 189.944 72.8619C189.944 72.8815 189.964 72.8807 189.984 72.8995L189.983 72.8603L190.187 73.0879L190.207 73.1067L190.208 73.1263C190.372 73.3163 190.5 73.5668 190.552 73.8794C190.866 75.3418 191.362 77.4458 192.024 80.2315C192.044 80.2504 192.045 80.27 192.046 80.2896C192.066 80.3085 192.086 80.3273 192.125 80.3257C192.222 80.302 192.316 80.2195 192.425 80.0183C192.535 79.8367 192.607 79.696 192.641 79.5766C192.709 79.3377 192.772 78.9614 192.83 78.4672C192.86 78.2693 192.874 78.1114 192.888 77.9927C192.993 77.2212 193.197 76.485 193.5 75.784L193.499 75.7644L193.518 75.7439C193.553 75.6441 193.589 75.5836 193.606 75.5239C193.679 75.3832 193.771 75.2614 193.865 75.1592C194.015 75.0153 194.227 74.9475 194.459 74.8986L194.439 74.8798L194.673 74.8702L194.712 74.8686C195.064 74.8737 195.399 74.9583 195.738 75.1213C196.374 75.4099 196.823 75.8831 197.085 76.5412C197.193 76.8121 197.288 77.2213 197.408 77.7671C197.599 78.6051 197.818 79.1862 198.048 79.5505C198.132 79.6848 198.213 79.7601 198.292 79.7765C198.391 79.8314 198.469 79.8282 198.525 79.7473C198.563 79.726 198.58 79.6663 198.595 79.5673C198.656 79.1517 198.714 78.6575 198.768 78.0848L198.783 77.9662C198.808 77.6111 198.852 77.2552 198.875 76.8805C198.934 76.406 198.99 75.8725 199.063 75.2794L199.044 75.2802L199.061 75.2401L199.091 75.0225C199.153 74.6265 199.214 74.2109 199.274 73.756L199.363 73.0835C199.427 72.7465 199.515 72.5068 199.626 72.3645C199.944 72.017 200.487 71.9356 201.255 72.1007C201.751 72.277 202.071 72.4801 202.261 72.8264Z" fill="#F1F4FF"/>
<path d="M166.979 92.1421C167.127 92.4114 167.182 92.8026 167.108 93.3565L167.055 93.9881C166.893 95.7258 166.732 97.0308 166.611 97.9012L166.614 97.9602L166.582 98.1385C166.536 98.4355 166.488 98.6932 166.44 98.9509L166.408 99.1293L166.391 99.1889C166.214 100.101 166.015 100.955 165.792 101.712C165.552 102.528 165.223 103.073 164.805 103.346C164.519 103.515 164.152 103.609 163.684 103.628L163.665 103.629C162.768 103.666 162.1 103.556 161.698 103.277L161.658 103.24L161.416 103.072L161.475 103.07C161.455 103.071 161.455 103.071 161.455 103.051C161.352 102.937 161.266 102.744 161.157 102.454C161.113 102.337 161.069 102.221 161.045 102.124L161.045 102.104C161.002 102.008 160.957 101.872 160.891 101.697C160.581 100.805 160.358 100.126 160.241 99.6588C160.195 99.4836 160.151 99.3673 160.11 99.3101C160.027 99.1955 159.947 99.1594 159.871 99.202C159.794 99.2248 159.738 99.286 159.704 99.4056C159.601 99.7639 159.501 100.181 159.383 100.638C159.3 100.996 159.221 101.432 159.123 101.908L159.062 102.324C158.986 102.838 158.825 103.199 158.598 103.366C158.429 103.53 158.14 103.64 157.733 103.716C157.152 103.819 156.685 103.858 156.333 103.852C156.04 103.845 155.764 103.777 155.525 103.669C155.287 103.561 155.106 103.451 154.964 103.319C154.822 103.187 154.698 103.015 154.552 102.785C154.406 102.555 154.319 102.342 154.254 102.187C154.189 102.033 154.101 101.8 153.991 101.49L153.924 101.296L153.903 101.258C153.79 100.888 153.656 100.461 153.519 99.9751L153.451 99.7615L153.449 99.7026C153.402 99.5078 153.312 99.2165 153.218 98.8466L153.127 98.5159C152.943 97.8546 152.778 97.173 152.633 96.4904C152.588 96.3349 152.54 96.1206 152.449 95.8095C152.357 95.479 152.309 95.2449 152.261 95.0501C152.215 94.875 152.167 94.6409 152.115 94.348C152.064 94.055 152.034 93.8005 152.044 93.564C152.054 93.3276 152.064 93.0911 152.094 92.8736C152.159 92.5561 152.324 92.3131 152.571 92.1457L152.61 92.1245L152.839 91.9969L152.843 92.0951C153.034 92.0085 153.267 91.9793 153.54 91.968C153.989 91.9495 154.363 92.0325 154.664 92.2365C154.665 92.2561 154.684 92.2553 154.705 92.2741L154.702 92.2152L154.907 92.4428L154.927 92.4616L154.928 92.4814C155.092 92.6713 155.219 92.9218 155.271 93.2343C155.585 94.6967 156.082 96.8008 156.743 99.5864C156.764 99.6054 156.765 99.625 156.765 99.6446C156.786 99.6634 156.806 99.6822 156.845 99.6806C156.942 99.657 157.036 99.5744 157.145 99.3732C157.254 99.1917 157.327 99.0511 157.361 98.9315C157.429 98.6928 157.492 98.3164 157.549 97.8222C157.58 97.6243 157.593 97.4663 157.608 97.3477C157.713 96.5762 157.917 95.8399 158.22 95.139L158.219 95.1193L158.238 95.0989C158.273 94.9991 158.309 94.9385 158.326 94.8789C158.399 94.7382 158.491 94.6164 158.585 94.5142C158.735 94.3702 158.947 94.3026 159.179 94.2536L159.159 94.2348L159.393 94.2251L159.432 94.2235C159.783 94.2287 160.119 94.3132 160.457 94.4763C161.094 94.7649 161.543 95.2381 161.804 95.8962C161.913 96.1671 162.008 96.5762 162.128 97.122C162.319 97.9601 162.538 98.5412 162.768 98.9056C162.851 99.0397 162.932 99.1151 163.011 99.1315C163.111 99.1864 163.189 99.1832 163.244 99.1022C163.282 99.081 163.3 99.0213 163.315 98.9223C163.376 98.5066 163.434 98.0125 163.488 97.4399L163.503 97.3211C163.527 96.966 163.571 96.6101 163.595 96.2354C163.653 95.761 163.709 95.2275 163.783 94.6344L163.802 94.6336L163.82 94.5935L163.85 94.3759C163.912 93.9799 163.973 93.5643 164.032 93.1094L164.122 92.4369C164.186 92.0999 164.274 91.8602 164.385 91.7178C164.703 91.3704 165.246 91.289 166.014 91.454C166.489 91.6115 166.79 91.8155 166.979 92.1421Z" fill="#F1F4FF"/>
<path d="M172.125 101.863C172.128 101.942 172.132 102.02 172.115 102.099L172.116 102.119L172.118 102.158L172.107 102.375L172.106 102.356C172.091 102.455 172.055 102.535 172.038 102.594C171.914 102.895 171.669 103.101 171.283 103.216L171.303 103.235L171.109 103.262L171.05 103.265C170.954 103.288 170.876 103.291 170.817 103.294C170.778 103.295 170.739 103.297 170.7 103.299C170.563 103.285 170.407 103.291 170.23 103.259C169.741 103.22 169.404 103.096 169.218 102.868C169.115 102.735 169.028 102.502 168.995 102.189C168.882 101.347 168.786 100.427 168.743 99.3862L168.741 99.3272L168.733 99.1505C168.722 98.8755 168.711 98.6006 168.699 98.3061L168.691 98.1293L168.689 98.0704C168.69 97.6179 168.662 96.9503 168.645 96.046C168.629 94.7091 168.587 93.7075 168.56 93.0399L168.551 92.8239C168.527 92.2347 168.665 91.7962 168.946 91.5093C169.115 91.3449 169.383 91.2159 169.692 91.1244L169.672 91.1252L169.924 91.0756L169.963 91.074C170.604 91.0081 171.079 91.146 171.386 91.4874C171.61 91.7339 171.727 92.2012 171.716 92.8705L171.702 93.0087C171.7 93.4416 171.727 94.0896 171.742 94.9349L171.748 95.0723C171.762 95.8783 171.832 97.1147 171.939 98.7626C172.036 100.175 172.098 101.195 172.125 101.863Z" fill="#F1F4FF"/>
<path d="M182.619 92.2242C182.616 92.6374 182.512 92.9565 182.268 93.1829C182.118 93.3268 181.926 93.4134 181.694 93.4623C181.461 93.5112 181.092 93.5461 180.604 93.5465L180.545 93.5489C180.506 93.5505 180.448 93.553 180.33 93.5382C179.978 93.533 179.706 93.5443 179.551 93.5899C179.513 93.6111 179.474 93.6127 179.456 93.6529C179.38 93.6953 179.345 93.7951 179.31 93.8949C179.241 94.1142 179.217 94.4693 179.276 94.9586L179.283 95.1353L179.309 95.2916C179.314 95.4094 179.322 95.6058 179.334 95.9004L179.347 96.2146L179.378 96.4887C179.389 96.7636 179.398 96.9797 179.404 97.1171C179.441 98.0204 179.478 98.9238 179.514 99.8075C179.518 99.8861 179.522 99.9842 179.529 100.161C179.57 101.162 179.502 101.873 179.304 102.295C179.236 102.534 179.145 102.695 179.013 102.799C178.88 102.902 178.707 102.968 178.474 102.998C178.339 103.023 178.202 103.029 178.085 103.033C177.598 103.053 177.204 102.971 176.924 102.806C176.763 102.695 176.62 102.543 176.534 102.33C176.447 102.118 176.381 101.943 176.375 101.806C176.35 101.669 176.343 101.492 176.333 101.257L176.322 100.982L176.319 100.903C176.324 100.568 176.31 100.215 176.294 99.8418L176.292 99.783L176.289 99.7044L176.284 99.5865L176.145 95.7367C176.141 95.6385 176.135 95.5011 176.146 95.2842C176.162 94.7328 176.126 94.3409 176.021 94.1485C175.934 93.9356 175.712 93.7677 175.356 93.6448C175.178 93.5931 174.924 93.5839 174.613 93.6163L174.574 93.618C174.243 93.6512 173.932 93.6838 173.602 93.7171C173.368 93.7267 173.191 93.6946 173.071 93.621C172.911 93.5291 172.785 93.3179 172.733 93.0054C172.659 92.6346 172.647 92.3401 172.696 92.1021C172.779 91.7446 172.963 91.4812 173.231 91.3521C173.269 91.3308 173.308 91.3292 173.385 91.2868L173.443 91.2844L173.617 91.2378C173.694 91.215 173.772 91.2118 173.85 91.2086L175.331 91.1475L175.526 91.1395L175.546 91.1387L180.71 90.9063C180.846 90.9006 180.944 90.8966 181.002 90.8942C181.352 90.8602 181.646 90.8873 181.865 90.9767L181.864 90.9571L182.004 91.0496L182.024 91.0488L182.044 91.0676L182.063 91.0668L182.084 91.0858C182.426 91.347 182.598 91.7137 182.619 92.2242Z" fill="#F1F4FF"/>
<path d="M194.076 95.4321C194.188 97.6701 194.277 99.3581 194.324 100.497C194.361 101.401 194.15 101.96 193.691 102.195C193.404 102.345 192.996 102.401 192.448 102.365C191.979 102.344 191.642 102.221 191.439 102.032C191.236 101.844 191.126 101.553 191.091 101.181C191.061 100.907 191.047 100.573 191.049 100.16L191.058 99.8842C191.056 99.8449 191.053 99.786 191.05 99.7074C191.047 99.629 191.045 99.57 191.042 99.5111C191.047 99.1568 191.056 98.9007 191.049 98.7239L191.047 98.6847C191.058 98.4679 191.033 98.3312 190.971 98.255C190.782 97.9285 190.286 97.7521 189.486 97.7458C189.309 97.7334 189.037 97.7447 188.686 97.7591C188.647 97.7608 188.627 97.7616 188.608 97.7624L188.413 97.7704L188.354 97.7728C188.315 97.7744 188.276 97.776 188.276 97.7563C187.885 97.7527 187.596 97.8433 187.408 98.0085C187.2 98.1745 187.074 98.4353 187.048 98.7708C187.018 98.9885 187.051 99.3018 187.107 99.7126C187.138 99.9868 187.166 100.202 187.172 100.359C187.2 101.027 187.145 101.599 187.028 102.076C186.995 102.215 186.96 102.315 186.905 102.396C186.831 102.498 186.716 102.561 186.561 102.587C186.523 102.609 186.465 102.611 186.407 102.633C186.213 102.661 186.019 102.688 185.824 102.696C185.707 102.701 185.59 102.706 185.472 102.691C185.121 102.686 184.825 102.62 184.606 102.511C184.127 102.255 183.889 101.694 183.871 100.79C183.864 100.141 183.854 99.4335 183.842 98.6669C183.848 98.3322 183.833 97.9787 183.816 97.5663C183.797 96.6229 183.739 95.209 183.662 93.3433C183.639 92.7739 183.618 92.2829 183.601 91.8705C183.589 91.576 183.6 91.3591 183.653 91.2193C183.793 90.8398 184.117 90.6297 184.641 90.5687C185.593 90.4508 186.204 90.5831 186.512 90.9637C186.595 91.0783 186.661 91.2526 186.71 91.5063C186.761 91.7994 186.796 92.1717 186.814 92.6038L186.816 92.6626L186.825 92.8787C186.832 93.0357 186.836 93.1339 186.837 93.1732C186.835 93.5863 186.847 93.881 186.875 94.0962C186.878 94.1551 186.881 94.2337 186.904 94.3114C186.981 94.7607 187.168 95.048 187.447 95.1742C187.606 95.2463 187.9 95.2736 188.288 95.2182C188.424 95.193 188.521 95.1889 188.58 95.1865C188.716 95.1809 188.97 95.1705 189.341 95.1748C189.555 95.166 189.711 95.1596 189.809 95.1752C190.121 95.1623 190.353 95.0938 190.503 94.9499C190.653 94.8061 190.762 94.6049 190.791 94.348C190.851 93.9323 190.823 93.2449 190.746 92.3236C190.708 91.8727 190.676 91.5594 190.668 91.3629C190.658 91.1273 190.69 90.949 190.743 90.8288C190.833 90.648 191.023 90.5221 191.351 90.4103C191.987 90.207 192.513 90.1853 192.928 90.306C193.344 90.4463 193.628 90.7099 193.782 91.1362L193.804 91.1944L193.87 91.3687L193.85 91.3695C193.898 91.5839 193.931 91.917 193.929 92.3302L193.934 92.448L193.935 92.4872C193.923 92.6648 193.929 92.8219 193.933 92.9005C193.958 93.5093 194.012 94.3529 194.076 95.4321Z" fill="#F1F4FF"/>
<path d="M163.207 115.766C163.263 116.649 163.217 117.438 163.11 118.15C163.003 118.863 162.755 119.483 162.346 119.991C162.327 120.012 162.309 120.032 162.271 120.073L162.086 120.317L162.085 120.297C161.955 120.44 161.824 120.583 161.692 120.707L161.712 120.706L161.503 120.852L161.465 120.874C160.576 121.559 159.517 121.937 158.311 122.026C158.291 122.027 158.252 122.029 158.233 122.03C158.038 122.038 157.822 122.027 157.567 121.998L157.451 122.003L157.372 121.987C156.98 121.944 156.605 121.861 156.229 121.738L156.21 121.739L156.13 121.703L156.031 121.668C155.753 121.542 155.514 121.434 155.294 121.305C154.372 120.733 153.732 119.894 153.375 118.807L153.353 118.749L153.288 118.575C153.199 118.323 153.149 118.049 153.098 117.756L153.071 117.58L153.068 117.521C153.017 117.209 152.984 116.895 152.97 116.562L152.776 111.357C152.762 111.023 152.772 110.786 152.824 110.627C152.909 110.328 153.114 110.104 153.4 109.934C153.686 109.765 153.995 109.674 154.326 109.66L154.404 109.657L154.658 109.666L154.64 109.687C154.992 109.711 155.29 109.837 155.513 110.024C155.755 110.231 155.925 110.558 156.004 111.047L156.033 111.281L156.035 111.34C156.067 111.634 156.085 112.066 156.069 112.637C156.062 112.933 156.05 113.13 156.054 113.228C156.073 113.68 156.1 114.328 156.116 115.193C156.134 116.116 156.163 116.823 156.182 117.275C156.204 117.805 156.379 118.27 156.708 118.67C157.037 119.069 157.495 119.286 158.062 119.302C158.609 119.319 159.051 119.144 159.368 118.796C159.856 118.304 160.078 117.528 160.015 116.488L160.006 116.252L159.938 115.094L159.783 111.796C159.738 111.188 159.778 110.734 159.884 110.454C159.955 110.274 160.045 110.093 160.176 109.95C160.306 109.807 160.457 109.663 160.628 109.558C160.799 109.452 160.992 109.385 161.167 109.378C161.322 109.352 161.498 109.345 161.676 109.397L161.715 109.395L162.01 109.461L161.971 109.463C162.21 109.571 162.431 109.719 162.576 109.93L162.574 109.871L162.701 110.121L162.702 110.141L162.724 110.199C162.831 110.431 162.884 110.763 162.922 111.214C162.971 111.94 163.035 113.019 163.094 114.453C163.176 115.02 163.194 115.452 163.207 115.766Z" fill="#F1F4FF"/>
<path d="M204.334 119.834L169.603 121.265C169.174 121.283 168.808 120.944 168.791 120.511C168.773 120.08 169.109 119.712 169.538 119.694L203.471 118.296L202.33 90.5866C202.312 90.1546 202.648 89.7866 203.077 89.769C203.506 89.7513 203.871 90.0903 203.889 90.5224L205.063 119.037C205.099 119.448 204.763 119.816 204.334 119.834Z" fill="#F1F4FF"/>
</g>
<defs>
<clipPath id="clip0_1908_4223">
<rect width="52.0717" height="48.3697" fill="white" transform="matrix(0.999152 -0.0411711 0.0411415 0.999153 151.233 73.8677)"/>
</clipPath>
</defs>
</svg>
