<svg width="47" height="50" viewBox="0 0 47 50" fill="none" xmlns="http://www.w3.org/2000/svg">
<path fill-rule="evenodd" clip-rule="evenodd" d="M16.0605 42.6067C20.6873 44.3418 30.1197 45.2408 36.7061 38.4796C43.2924 31.7185 46.3927 18.512 36.9954 11.4351C29.9222 5.14773 20.7668 4.76995 14.2161 8.44449C9.54861 11.13 5.84464 15.5555 4.54026 19.4103C0.930054 30.5239 6.6292 39.0698 16.0605 42.6067Z" fill="#696599"/>
<path fill-rule="evenodd" clip-rule="evenodd" d="M25.2748 12.3423C25.7556 12.9367 25.6374 14.1511 26.0484 14.8178C27.9931 15.2962 31.3128 14.4177 32.9414 15.5813C33.1567 16.6484 32.3541 16.7976 31.209 16.9023C30.6252 23.4963 31.0963 32.6018 31.1225 38.3009C27.0539 39.2378 20.8789 38.5915 16.0548 38.8449C15.3914 38.7427 14.8959 38.8569 14.5738 37.8447C14.9823 31.4026 14.4217 23.71 14.9549 16.7599C14.4708 16.4664 13.3813 16.7989 13.0449 16.3526C13.7268 13.7593 17.9584 15.4892 19.8958 14.6279C20.5235 14.1314 20.2536 12.7663 21.0299 12.4133C22.1834 12.1862 24.122 12.1075 25.2746 12.3426L25.2748 12.3423ZM21.2614 13.3578C20.7278 15.1109 22.5955 14.844 25.022 14.6886C25.1959 14.0637 24.9721 13.7393 24.7041 13.2304C23.5055 13.3182 22.0259 12.8497 21.2614 13.3578L21.2614 13.3578ZM16.1541 16.6738C16.1221 16.8829 15.8842 16.6981 15.8358 16.8909C15.1174 23.1321 15.5107 27.7674 15.5554 35.1937C15.4299 36.1891 15.5824 36.4936 15.5915 37.3883C20.7192 37.6353 24.8088 37.4017 30.1038 37.5228C30.2872 32.0094 30.3552 23.2684 29.9514 16.7123C25.5412 16.7368 20.6803 16.9976 16.1542 16.6742L16.1541 16.6738Z" fill="white"/>
<path fill-rule="evenodd" clip-rule="evenodd" d="M28.425 18.681C28.5719 18.6786 28.7182 18.6763 28.8645 18.6738C28.6284 22.1954 29.1525 26.0057 28.8976 29.4928C28.739 31.6698 29.4858 33.7658 28.5412 35.743C27.6624 30.9956 27.9395 23.8592 28.425 18.6807V18.681Z" fill="white"/>
<path fill-rule="evenodd" clip-rule="evenodd" d="M17.3655 19.0096C17.5117 19.0071 17.6582 19.0044 17.8045 19.002C17.3484 22.5489 18.1679 28.061 18.0169 31.7328C17.9576 33.1691 17.891 34.9324 17.0581 35.7016C17.144 30.0865 16.54 24.9016 17.3655 19.0095L17.3655 19.0096Z" fill="white"/>
<path fill-rule="evenodd" clip-rule="evenodd" d="M23.2192 18.81C23.3504 18.8726 23.4829 18.9344 23.5167 19.098C23.2834 23.6213 23.5713 26.3508 23.5527 30.0763C23.5465 31.3097 23.2515 32.6092 23.3232 33.8863C23.3599 34.5305 24.0187 35.2833 23.2091 35.7907C22.2589 30.5965 22.2105 23.9881 23.2192 18.8096L23.2192 18.81Z" fill="white"/>
<path fill-rule="evenodd" clip-rule="evenodd" d="M25.7397 18.4064C26.6733 22.8504 26.3939 27.2123 26.2518 31.5718C26.211 32.7844 27.0466 35.0537 25.8845 35.9696C25.3416 30.6376 25.3682 24.1586 25.7397 18.4062V18.4064Z" fill="white"/>
<path fill-rule="evenodd" clip-rule="evenodd" d="M20.3456 18.8535C20.5813 18.8083 20.5998 18.988 20.7871 18.9927C20.464 24.9634 20.759 31.0237 20.1894 35.8367C19.2615 34.2014 19.7817 32.3864 19.8136 30.8654C19.8872 27.3332 19.9068 23.2302 20.2065 19.2953C20.1616 19.059 20.3402 19.0405 20.3456 18.8534V18.8535Z" fill="white"/>
</svg>
