<svg width="296" height="274" viewBox="0 0 296 274" fill="none" xmlns="http://www.w3.org/2000/svg">
<path d="M30.1359 159.612C28.8194 182.969 39.8137 221.274 69.4672 247.12C94.8011 269.201 132.539 285.592 183.349 261.394C306.839 202.582 258.27 72.4614 116.081 85.3036C56.496 90.6852 31.4523 136.255 30.1359 159.612Z" fill="white"/>
<path d="M291.728 2.72782C270.589 -14.7643 173.719 124.426 148.621 154.729C123.522 185.032 125.576 109.448 99.0087 84.7173C72.4412 59.9869 30.497 72.4796 35.611 114.877C44.0024 184.445 118.14 313.675 188.193 215.876C218.707 173.275 312.868 20.2199 291.728 2.72782Z" fill="#C4CCF6"/>
<path d="M211.24 88.4958C213.279 90.0535 236.061 59.2907 234.465 58.0719C232.868 56.8529 209.2 86.9381 211.24 88.4958Z" fill="white"/>
<path d="M90.088 104.816C90.5369 107.589 88.8375 110.17 86.294 110.582C83.7506 110.993 81.3239 109.081 80.875 106.307C80.4264 103.536 82.1256 100.953 84.669 100.541C87.2125 100.129 89.6394 102.044 90.088 104.816Z" fill="white"/>
<path d="M53.7719 103.509C51.3346 103.903 49.7029 106.346 50.1269 108.965C50.5509 111.585 52.8695 113.388 55.307 112.993C57.7445 112.599 59.3759 110.156 58.9519 107.537C58.5295 104.917 56.2094 103.114 53.7719 103.509Z" fill="white"/>
<path d="M76.5547 116.519C74.39 116.87 72.0593 116.257 70.4324 114.778C68.4315 116.234 66.0199 117.143 63.5511 117.349C63.06 117.391 62.6266 117.024 62.5862 116.532C62.5442 116.039 62.9195 115.594 63.403 115.567C65.7874 115.372 68.1095 114.417 69.9497 112.89L70.635 112.322L71.2058 113.007C72.9331 115.076 76.4385 115.443 78.5549 113.78C78.944 113.474 79.5059 113.543 79.8113 113.93C80.1165 114.317 80.0487 114.882 79.6609 115.187C78.7534 115.896 77.6762 116.338 76.5543 116.519L76.5547 116.519Z" fill="white"/>
<path d="M72.7905 126.219C71.9631 126.353 71.062 126.227 70.2532 125.829C69.174 125.297 68.2675 124.349 67.5572 123.013C66.4269 120.878 66.1262 118.474 65.864 116.354C65.8023 115.863 66.1694 115.376 66.6413 115.356C67.1317 115.294 67.5786 115.643 67.639 116.134C67.8829 118.101 68.1633 120.333 69.1393 122.178C69.5042 122.864 70.1297 123.777 71.0457 124.229C71.8231 124.614 72.7558 124.568 73.3091 124.122C73.7665 123.755 74.0712 123.092 74.2724 122.04C74.6093 120.28 74.6028 118.421 74.2535 116.661C74.1574 116.177 74.4719 115.707 74.9567 115.611C75.3969 115.497 75.9107 115.829 76.0068 116.314C76.4024 118.298 76.408 120.394 76.0278 122.377C75.8489 123.318 75.4872 124.667 74.427 125.517C73.9646 125.885 73.3951 126.121 72.7905 126.219L72.7905 126.219Z" fill="white"/>
<path d="M117.399 237.881C102.704 231.814 99.507 223.18 101.304 223.285C105.18 223.512 105.232 229.788 119.927 235.855C134.621 241.922 147.619 239.654 147.619 239.654C148.827 242.008 132.093 243.948 117.399 237.881Z" fill="white"/>
<path d="M79.391 77.7571C89.4927 80.4914 92.3377 85.7277 91.1585 85.7972C88.6152 85.9471 88.0263 81.969 77.9246 79.2347C67.8229 76.5004 59.5625 78.9258 59.5625 78.9258C58.568 77.5238 69.2893 75.0228 79.391 77.7571Z" fill="white"/>
<path d="M29.1602 240.792C30.9686 239.212 33.1846 235.836 33.4121 232.233C33.6065 229.155 32.6715 225.742 27.9792 224.434C16.5746 221.253 9.687 233.39 18.7461 240.95C22.5423 244.118 27.3518 242.373 29.1602 240.792Z" fill="white"/>
<path d="M254.372 227.154C257.364 226.282 262.558 225.991 266.546 227.724C269.953 229.204 272.894 231.944 270.869 237.135C265.95 249.753 248.064 249.765 246.631 237.019C246.031 231.677 251.38 228.026 254.372 227.154Z" fill="white"/>
<path d="M263.2 134.189C264.299 133.846 266.259 133.913 267.848 135.022C269.206 135.969 270.442 137.578 269.897 140.298C268.572 146.91 261.778 146.146 260.684 139.19C260.226 136.276 262.101 134.532 263.2 134.189Z" fill="white"/>
<path d="M9.06757 126.581C10.2582 126.227 12.3416 126.167 13.9685 127.008C15.3583 127.726 16.5784 129.01 15.8367 131.337C14.034 136.993 6.84516 136.751 6.09285 130.949C5.77759 128.517 7.87697 126.935 9.06757 126.581Z" fill="white"/>
</svg>
