<svg width="590" height="238" viewBox="0 0 590 238" fill="none" xmlns="http://www.w3.org/2000/svg">
<g clip-path="url(#clip0_1653_5511)">
<path d="M994 -66V220.615C775.469 207.072 526.578 256.14 295.5 228.295C58.9307 199.789 -160.834 239.008 -403 215.157V-66H994Z" fill="url(#paint0_linear_1653_5511)"/>
<g filter="url(#filter0_f_1653_5511)">
<path d="M-557.145 128.496C-404.447 48.2139 528.003 291.294 1132.28 4.38394" stroke="url(#paint1_linear_1653_5511)" stroke-width="42"/>
</g>
<g filter="url(#filter1_f_1653_5511)">
<ellipse cx="4.09716" cy="4.09823" rx="4.09716" ry="4.09823" transform="matrix(0.999775 -0.0212143 0.0212032 0.999775 8.78564 103.029)" fill="white" fill-opacity="0.5"/>
</g>
<g filter="url(#filter2_f_1653_5511)">
<ellipse cx="2.97975" cy="2.98053" rx="2.97975" ry="2.98053" transform="matrix(0.999775 -0.0212143 0.0212032 0.999775 103.842 123.368)" fill="white" fill-opacity="0.5"/>
</g>
<g filter="url(#filter3_f_1653_5511)">
<ellipse cx="2.97975" cy="2.98053" rx="2.97975" ry="2.98053" transform="matrix(0.999775 -0.0212143 0.0212032 0.999775 102.12 42.167)" fill="white" fill-opacity="0.5"/>
</g>
<g filter="url(#filter4_f_1653_5511)">
<ellipse cx="2.97975" cy="2.98053" rx="2.97975" ry="2.98053" transform="matrix(0.999775 -0.0212143 0.0212032 0.999775 216.083 75.5234)" fill="white" fill-opacity="0.5"/>
</g>
<path d="M111.704 128.448L111.705 128.442C111.747 128.182 111.522 127.991 111.357 127.851C111.317 127.817 111.28 127.785 111.253 127.759C111.065 127.55 110.864 127.391 110.652 127.223C110.598 127.18 110.543 127.136 110.488 127.092C110.362 126.98 110.247 126.86 110.125 126.734C109.959 126.561 109.787 126.382 109.579 126.222C109.304 126.029 109.153 125.858 108.957 125.594C108.934 125.557 108.902 125.514 108.864 125.466C108.879 125.44 108.89 125.412 108.888 125.381C108.893 125.331 108.907 125.267 108.909 125.255C108.934 124.972 108.983 124.672 109.064 124.296C109.122 124.145 109.195 123.946 109.26 123.74C109.309 123.577 109.35 123.414 109.388 123.255C109.47 122.921 109.547 122.605 109.706 122.307C109.815 122.075 109.92 121.699 109.891 121.427C109.888 121.358 109.872 121.287 109.848 121.226L109.854 121.221C109.849 121.216 109.845 121.21 109.838 121.202C109.823 121.168 109.806 121.141 109.788 121.119L109.658 121.037L109.65 121.048C109.431 120.951 109.198 121.077 108.988 121.195C108.86 121.22 108.734 121.302 108.625 121.38C108.532 121.429 108.441 121.481 108.35 121.533C108.255 121.588 108.158 121.643 108.062 121.694C107.95 121.744 107.85 121.795 107.762 121.847C107.692 121.881 107.622 121.913 107.552 121.945C107.291 122.064 107.021 122.188 106.772 122.395C106.55 122.597 106.313 122.798 106.112 122.952C106.043 123.022 105.977 123.088 105.862 123.136C105.841 123.15 105.793 123.172 105.752 123.19C105.703 123.155 105.655 123.121 105.609 123.091C105.547 123.045 105.487 122.996 105.428 122.947C105.367 122.898 105.307 122.849 105.242 122.799C105.07 122.681 104.904 122.59 104.745 122.502C104.586 122.415 104.437 122.332 104.279 122.224C104.187 122.168 104.099 122.095 104.005 122.016C103.911 121.937 103.819 121.855 103.716 121.798L103.686 121.776C103.465 121.611 103.005 121.266 102.672 121.541C102.654 121.558 102.641 121.575 102.629 121.592C102.574 121.615 102.524 121.654 102.475 121.716C102.415 121.816 102.422 121.946 102.428 122.04L102.427 122.157C102.421 122.335 102.416 122.536 102.462 122.721C102.55 123.121 102.716 123.464 102.891 123.827C102.972 123.994 103.056 124.167 103.132 124.348C103.159 124.407 103.188 124.467 103.218 124.527C103.416 124.928 103.587 125.275 103.213 125.57C103.038 125.708 102.866 125.864 102.7 126.013C102.493 126.201 102.278 126.395 102.057 126.556C101.544 126.929 100.964 127.352 100.664 127.977C100.587 128.137 100.585 128.27 100.657 128.372C100.834 128.622 101.411 128.56 101.689 128.531L101.734 128.525C101.864 128.492 102.055 128.459 102.113 128.455L102.149 128.457C102.214 128.45 102.287 128.441 102.361 128.432C102.431 128.423 102.501 128.415 102.574 128.406C102.777 128.355 103.197 128.286 103.197 128.286C103.32 128.273 103.448 128.268 103.573 128.264C103.701 128.259 103.833 128.255 103.962 128.241C104.028 128.234 104.085 128.23 104.143 128.225L104.174 128.222C104.213 128.348 104.251 128.474 104.287 128.6C104.301 128.795 104.393 129.009 104.445 129.128L104.477 129.235C104.5 129.315 104.523 129.395 104.551 129.48C104.595 129.587 104.665 129.733 104.754 129.835C104.791 129.906 104.828 129.977 104.867 130.05L104.965 130.237C105.009 130.315 105.083 130.479 105.161 130.653C105.261 130.874 105.364 131.102 105.439 131.232C105.464 131.272 105.491 131.326 105.522 131.386C105.614 131.568 105.73 131.8 105.91 131.907C105.975 131.946 106.049 131.969 106.133 131.967C106.414 131.953 106.567 131.678 106.679 131.477C106.697 131.444 106.715 131.413 106.729 131.389C107.045 130.921 107.262 130.527 107.412 130.143C107.443 130.042 107.468 129.936 107.493 129.832C107.517 129.733 107.541 129.634 107.569 129.539C107.633 129.427 107.843 128.976 107.861 128.721C107.849 128.605 107.857 128.501 107.865 128.39C108.185 128.523 108.511 128.585 108.826 128.645C108.943 128.667 109.06 128.689 109.181 128.716C109.667 128.798 110.113 128.832 110.639 128.872L110.735 128.873C111.058 128.877 111.599 128.886 111.704 128.448L111.704 128.448Z" fill="white"/>
<g filter="url(#filter5_f_1653_5511)">
<ellipse cx="3.00611" cy="3.0069" rx="3.00611" ry="3.0069" transform="matrix(0.99943 0.0337589 -0.0337413 0.999431 300.55 120.291)" fill="white" fill-opacity="0.5"/>
</g>
<path d="M303.328 119.477L303.323 119.478C303.15 119.54 303.108 119.742 303.077 119.89C303.07 119.926 303.063 119.96 303.055 119.985C302.99 120.171 302.96 120.347 302.927 120.534C302.919 120.581 302.911 120.63 302.902 120.678C302.876 120.794 302.841 120.904 302.804 121.021C302.753 121.181 302.701 121.347 302.672 121.528C302.646 121.762 302.591 121.912 302.495 122.121C302.48 122.147 302.464 122.181 302.448 122.221C302.427 122.22 302.405 122.223 302.387 122.235C302.355 122.248 302.311 122.261 302.303 122.264C302.121 122.343 301.921 122.413 301.662 122.49C301.55 122.505 301.403 122.526 301.255 122.555C301.139 122.58 301.025 122.61 300.915 122.639C300.682 122.701 300.462 122.759 300.226 122.762C300.047 122.772 299.781 122.834 299.624 122.943C299.583 122.968 299.544 123.001 299.514 123.036L299.51 123.035C299.508 123.039 299.506 123.043 299.503 123.05C299.487 123.071 299.476 123.09 299.469 123.109L299.462 123.216L299.471 123.218C299.485 123.385 299.641 123.485 299.784 123.575C299.842 123.645 299.934 123.695 300.019 123.736C300.08 123.777 300.142 123.815 300.205 123.854C300.27 123.894 300.337 123.935 300.4 123.977C300.468 124.029 300.533 124.073 300.595 124.11C300.639 124.142 300.682 124.174 300.725 124.206C300.886 124.327 301.052 124.451 301.263 124.535C301.461 124.603 301.663 124.682 301.826 124.753C301.892 124.773 301.954 124.791 302.022 124.845C302.038 124.854 302.068 124.876 302.092 124.895C302.087 124.937 302.083 124.978 302.08 125.016C302.072 125.069 302.062 125.123 302.052 125.176C302.042 125.229 302.032 125.283 302.023 125.339C302.009 125.485 302.008 125.617 302.007 125.744C302.007 125.871 302.006 125.99 301.992 126.123C301.989 126.199 301.974 126.278 301.957 126.361C301.94 126.446 301.92 126.53 301.92 126.612L301.916 126.638C301.889 126.829 301.831 127.227 302.112 127.34C302.128 127.345 302.143 127.347 302.157 127.349C302.19 127.375 302.231 127.393 302.285 127.402C302.367 127.405 302.444 127.357 302.5 127.323L302.572 127.284C302.683 127.228 302.808 127.164 302.906 127.073C303.122 126.885 303.277 126.669 303.442 126.439C303.517 126.334 303.595 126.224 303.681 126.117C303.708 126.081 303.735 126.042 303.762 126.004C303.942 125.748 304.098 125.527 304.404 125.658C304.548 125.719 304.701 125.772 304.848 125.824C305.033 125.889 305.224 125.956 305.397 126.038C305.798 126.228 306.252 126.443 306.736 126.418C306.86 126.411 306.942 126.368 306.981 126.289C307.076 126.097 306.844 125.763 306.733 125.602L306.714 125.576C306.65 125.508 306.566 125.402 306.544 125.367L306.533 125.345C306.508 125.307 306.477 125.265 306.447 125.223C306.418 125.183 306.39 125.143 306.36 125.1C306.261 124.993 306.077 124.758 306.077 124.758C306.028 124.687 305.982 124.609 305.938 124.534C305.892 124.457 305.845 124.378 305.794 124.303C305.767 124.265 305.745 124.231 305.723 124.197L305.711 124.179C305.775 124.113 305.84 124.048 305.905 123.983C306.02 123.909 306.121 123.781 306.176 123.709L306.231 123.654C306.273 123.613 306.314 123.572 306.357 123.526C306.408 123.464 306.474 123.371 306.507 123.282C306.538 123.236 306.569 123.189 306.601 123.141L306.683 123.018C306.716 122.965 306.792 122.865 306.873 122.758C306.975 122.623 307.081 122.484 307.136 122.393C307.152 122.365 307.176 122.33 307.202 122.291C307.284 122.174 307.387 122.025 307.392 121.878C307.394 121.825 307.384 121.772 307.354 121.721C307.252 121.553 307.031 121.551 306.87 121.55C306.844 121.549 306.82 121.549 306.8 121.549C306.407 121.511 306.092 121.51 305.806 121.546C305.733 121.561 305.66 121.581 305.587 121.601C305.519 121.619 305.45 121.637 305.382 121.652C305.292 121.651 304.945 121.672 304.783 121.746C304.715 121.793 304.648 121.823 304.578 121.855C304.552 121.614 304.481 121.393 304.412 121.179C304.387 121.1 304.361 121.021 304.337 120.938C304.225 120.611 304.096 120.326 303.944 119.989L303.913 119.93C303.807 119.73 303.632 119.395 303.328 119.477L303.328 119.477Z" fill="white"/>
<path d="M103.64 47.9804L103.644 47.9808C103.825 47.9951 103.943 47.8302 104.03 47.7098C104.051 47.6804 104.071 47.653 104.087 47.6332C104.22 47.4924 104.318 47.3464 104.421 47.1918C104.448 47.1522 104.475 47.1117 104.502 47.0722C104.572 46.9791 104.647 46.8938 104.727 46.8035C104.837 46.68 104.95 46.5524 105.048 46.4009C105.165 46.2017 105.274 46.0885 105.444 45.94C105.468 45.9219 105.495 45.898 105.526 45.8688C105.545 45.8782 105.565 45.8841 105.586 45.8807C105.621 45.8813 105.665 45.8876 105.673 45.8882C105.868 45.8898 106.076 45.9067 106.339 45.9417C106.445 45.9727 106.586 46.0122 106.73 46.0452C106.845 46.0701 106.959 46.0886 107.07 46.1064C107.303 46.1439 107.524 46.1795 107.737 46.2716C107.902 46.3337 108.165 46.3846 108.35 46.35C108.397 46.3439 108.445 46.3295 108.485 46.3095L108.489 46.313C108.493 46.3098 108.496 46.3066 108.501 46.3014C108.524 46.2888 108.541 46.2762 108.555 46.2623L108.604 46.169L108.596 46.1639C108.651 46.0084 108.552 45.8559 108.459 45.7179C108.435 45.6319 108.372 45.5503 108.312 45.4794C108.274 45.4188 108.233 45.3594 108.192 45.2993C108.149 45.2372 108.106 45.1741 108.066 45.1113C108.026 45.0371 107.985 44.9712 107.945 44.914C107.918 44.8677 107.892 44.8213 107.866 44.7752C107.77 44.603 107.67 44.4249 107.514 44.2654C107.364 44.1247 107.213 43.9734 107.096 43.844C107.045 43.8002 106.996 43.7589 106.957 43.6829C106.946 43.6688 106.928 43.6374 106.914 43.6103C106.935 43.5749 106.956 43.5397 106.974 43.5065C107.002 43.4619 107.032 43.4182 107.062 43.3745C107.093 43.3304 107.123 43.2863 107.153 43.2388C107.225 43.1144 107.278 42.9962 107.329 42.8818C107.38 42.7685 107.429 42.6614 107.494 42.5476C107.527 42.4813 107.573 42.4165 107.621 42.3482C107.67 42.2791 107.722 42.2113 107.755 42.138L107.769 42.1159C107.869 41.9554 108.08 41.6213 107.873 41.4079C107.86 41.3968 107.848 41.3885 107.836 41.3816C107.817 41.3452 107.788 41.3129 107.743 41.2829C107.67 41.2472 107.582 41.2593 107.518 41.2681L107.438 41.2738C107.316 41.2801 107.178 41.2873 107.053 41.3296C106.784 41.4118 106.559 41.5443 106.32 41.6846C106.209 41.7492 106.096 41.8161 105.976 41.878C105.937 41.9 105.897 41.9235 105.858 41.9471C105.594 42.1048 105.366 42.2411 105.143 42.0013C105.038 41.8889 104.923 41.7798 104.811 41.6743C104.671 41.5423 104.526 41.4058 104.404 41.263C104.12 40.9325 103.798 40.5579 103.353 40.3868C103.24 40.3432 103.148 40.3489 103.082 40.4041C102.921 40.5388 102.995 40.9315 103.031 41.1201L103.037 41.1508C103.067 41.2381 103.1 41.3671 103.106 41.4069L103.107 41.4312C103.115 41.4752 103.125 41.5252 103.135 41.5752C103.145 41.6227 103.155 41.67 103.165 41.7197C103.211 41.8559 103.282 42.1403 103.282 42.14C103.297 42.2236 103.307 42.3116 103.317 42.3966C103.327 42.4841 103.338 42.5744 103.354 42.6622C103.363 42.7067 103.369 42.746 103.376 42.7851L103.379 42.8066C103.295 42.8399 103.211 42.873 103.126 42.9049C102.994 42.9252 102.852 43 102.773 43.0424L102.702 43.0697C102.649 43.09 102.595 43.1104 102.538 43.1343C102.467 43.17 102.371 43.2262 102.306 43.2933C102.259 43.3221 102.213 43.3518 102.165 43.3821L102.042 43.4601C101.992 43.4942 101.883 43.554 101.768 43.6174C101.622 43.6977 101.472 43.7808 101.387 43.8398C101.361 43.8593 101.325 43.8808 101.286 43.9049C101.166 43.978 101.014 44.0706 100.95 44.1997C100.927 44.2467 100.916 44.2986 100.922 44.356C100.947 44.5477 101.144 44.6376 101.288 44.7033C101.311 44.7139 101.333 44.724 101.35 44.7324C101.688 44.9236 101.97 45.0502 102.242 45.132C102.313 45.1475 102.387 45.159 102.46 45.1706C102.529 45.1813 102.597 45.1922 102.664 45.2065C102.745 45.2436 103.065 45.3632 103.241 45.3614C103.32 45.3466 103.392 45.346 103.468 45.3456C103.394 45.5724 103.37 45.799 103.346 46.0187C103.337 46.1001 103.329 46.1813 103.317 46.2656C103.287 46.6032 103.289 46.9112 103.291 47.2739L103.296 47.3395C103.31 47.5613 103.334 47.9323 103.64 47.9803L103.64 47.9804Z" fill="white"/>
<path d="M219.409 74.6865L219.406 74.6856C219.27 74.6513 219.159 74.7617 219.077 74.8423C219.057 74.8619 219.039 74.8803 219.023 74.8932C218.904 74.9833 218.81 75.082 218.711 75.1864C218.686 75.2132 218.66 75.2406 218.634 75.2672C218.569 75.3292 218.5 75.3844 218.428 75.4429C218.328 75.5229 218.226 75.6055 218.131 75.7083C218.016 75.845 217.918 75.9172 217.769 76.0084C217.749 76.0191 217.725 76.0338 217.697 76.052C217.685 76.0425 217.67 76.0353 217.653 76.0352C217.627 76.0303 217.594 76.0197 217.588 76.0182C217.439 75.9916 217.283 75.9517 217.087 75.891C217.01 75.8536 216.908 75.8052 216.802 75.7614C216.718 75.7276 216.633 75.6987 216.551 75.6707C216.378 75.6118 216.215 75.5561 216.064 75.4582C215.946 75.3895 215.752 75.3166 215.607 75.319C215.57 75.3176 215.532 75.3223 215.498 75.3323L215.496 75.3292C215.493 75.3312 215.49 75.3331 215.485 75.3364C215.466 75.3431 215.451 75.3505 215.439 75.3593L215.389 75.424L215.395 75.4289C215.333 75.5404 215.389 75.6696 215.442 75.7868C215.449 75.8555 215.486 75.926 215.522 75.9877C215.544 76.0389 215.567 76.0895 215.591 76.1406C215.615 76.1935 215.64 76.2472 215.663 76.3003C215.684 76.3621 215.706 76.4176 215.73 76.4665C215.744 76.5053 215.758 76.544 215.772 76.5825C215.823 76.7263 215.876 76.875 215.974 77.0168C216.07 77.1437 216.165 77.2785 216.238 77.3923C216.271 77.4324 216.303 77.4702 216.323 77.5333C216.33 77.5454 216.339 77.5717 216.347 77.5942C216.326 77.6184 216.306 77.6426 216.288 77.6656C216.26 77.6959 216.232 77.7253 216.203 77.7547C216.174 77.7844 216.145 77.8142 216.116 77.8464C216.045 77.9321 215.99 78.0153 215.935 78.0958C215.882 78.1755 215.831 78.251 215.766 78.3292C215.733 78.3756 215.689 78.419 215.644 78.4648C215.597 78.5112 215.549 78.5562 215.515 78.6078L215.501 78.6229C215.404 78.7321 215.2 78.9597 215.33 79.1491C215.338 79.1593 215.346 79.1672 215.355 79.174C215.364 79.2042 215.383 79.2327 215.413 79.2614C215.464 79.298 215.532 79.3002 215.583 79.3019L215.644 79.3078C215.738 79.3189 215.844 79.3313 215.945 79.3152C216.161 79.2874 216.35 79.2156 216.55 79.1396C216.643 79.1046 216.738 79.0683 216.837 79.0367C216.87 79.025 216.903 79.0122 216.936 78.9993C217.158 78.9133 217.349 78.8389 217.488 79.0507C217.554 79.1499 217.628 79.2481 217.699 79.3431C217.789 79.4618 217.881 79.5847 217.956 79.7094C218.13 79.9983 218.327 80.3256 218.644 80.5137C218.725 80.5617 218.795 80.5692 218.853 80.5357C218.994 80.454 218.988 80.1449 218.985 79.9965L218.984 79.9722C218.973 79.9018 218.964 79.7991 218.965 79.7681L218.967 79.7494C218.967 79.7148 218.965 79.6753 218.964 79.6359C218.963 79.5984 218.962 79.5611 218.96 79.5218C218.943 79.412 218.926 79.186 218.926 79.1862C218.925 79.1205 218.928 79.0521 218.932 78.9859C218.935 78.9179 218.939 78.8477 218.938 78.7787C218.937 78.7436 218.937 78.7128 218.938 78.6822L218.938 78.6653C219.006 78.6508 219.074 78.6365 219.143 78.6231C219.247 78.6249 219.365 78.5861 219.43 78.5641L219.488 78.5525C219.531 78.5439 219.575 78.5353 219.622 78.5245C219.68 78.5064 219.761 78.4761 219.819 78.4334C219.858 78.4174 219.898 78.4008 219.938 78.3839L220.042 78.3403C220.085 78.3209 220.175 78.2894 220.271 78.2559C220.393 78.2136 220.518 78.1698 220.591 78.1359C220.613 78.1243 220.643 78.1125 220.676 78.0992C220.777 78.0591 220.905 78.0082 220.97 77.918C220.994 77.8851 221.009 77.8471 221.012 77.8025C221.018 77.6531 220.879 77.5589 220.778 77.4902C220.762 77.4791 220.746 77.4686 220.734 77.4599C220.501 77.2703 220.303 77.1372 220.106 77.0396C220.054 77.0186 219.999 77.0003 219.945 76.982C219.894 76.9649 219.843 76.9476 219.794 76.9281C219.737 76.8893 219.509 76.7566 219.374 76.7352C219.312 76.7363 219.257 76.7273 219.199 76.7178C219.284 76.5544 219.332 76.3848 219.379 76.2204C219.396 76.1594 219.413 76.0986 219.433 76.0359C219.5 75.7822 219.538 75.5473 219.584 75.2704L219.589 75.2198C219.606 75.0487 219.636 74.7628 219.409 74.6865L219.409 74.6865Z" fill="white"/>
<path d="M16.1695 101.016L16.1622 101.014C15.8756 100.942 15.6397 101.175 15.4671 101.345C15.4251 101.387 15.386 101.426 15.3538 101.453C15.1012 101.644 14.9037 101.852 14.6947 102.073C14.6411 102.129 14.5865 102.187 14.5322 102.243C14.394 102.374 14.249 102.491 14.0955 102.614C13.8854 102.783 13.6684 102.958 13.4687 103.175C13.2261 103.464 13.0192 103.617 12.7049 103.809C12.6613 103.832 12.6102 103.863 12.5527 103.901C12.5256 103.881 12.4944 103.866 12.4598 103.866C12.404 103.855 12.3338 103.833 12.3214 103.83C12.0072 103.774 11.6767 103.689 11.2632 103.561C11.1003 103.482 10.8849 103.38 10.6615 103.287C10.4837 103.216 10.3046 103.155 10.1312 103.096C9.76536 102.971 9.41992 102.854 9.10172 102.647C8.85263 102.502 8.44229 102.348 8.13564 102.353C8.05842 102.35 7.97709 102.36 7.90647 102.381L7.90184 102.374C7.89491 102.378 7.88864 102.383 7.87855 102.39C7.83877 102.404 7.80768 102.419 7.78143 102.438L7.67626 102.575L7.68759 102.585C7.55738 102.821 7.67563 103.093 7.78699 103.341C7.80193 103.486 7.88147 103.635 7.95762 103.765C8.00326 103.874 8.05267 103.98 8.10237 104.088C8.15409 104.2 8.20637 104.314 8.25359 104.426C8.29844 104.556 8.34601 104.674 8.39534 104.777C8.42626 104.859 8.45536 104.941 8.4843 105.022C8.59211 105.326 8.70376 105.64 8.91087 105.94C9.11524 106.208 9.31575 106.493 9.46885 106.733C9.53979 106.818 9.60709 106.898 9.64971 107.031C9.6632 107.056 9.68335 107.112 9.69911 107.159C9.65519 107.211 9.61242 107.262 9.57424 107.31C9.51636 107.374 9.4558 107.436 9.39542 107.499C9.33439 107.561 9.27355 107.624 9.21176 107.692C9.06269 107.873 8.94456 108.049 8.8301 108.219C8.71679 108.388 8.60981 108.547 8.47275 108.712C8.40186 108.81 8.31055 108.902 8.21389 108.999C8.11626 109.097 8.01456 109.192 7.94147 109.301L7.91298 109.333C7.70669 109.564 7.2761 110.044 7.55072 110.445C7.56809 110.466 7.58594 110.483 7.60314 110.497C7.62338 110.561 7.66251 110.621 7.72645 110.682C7.8332 110.759 7.97871 110.764 8.08496 110.767L8.21523 110.78C8.41344 110.803 8.63809 110.829 8.85021 110.795C9.30598 110.737 9.7058 110.585 10.1292 110.424C10.3244 110.35 10.526 110.274 10.7356 110.207C10.8048 110.182 10.8746 110.155 10.9446 110.128C11.4131 109.946 11.8176 109.789 12.1113 110.237C12.2488 110.446 12.4054 110.654 12.5565 110.854C12.7458 111.105 12.9413 111.365 13.0997 111.628C13.4665 112.238 13.8824 112.93 14.5523 113.327C14.7234 113.429 14.872 113.445 14.9934 113.374C15.2909 113.201 15.2788 112.548 15.2728 112.235L15.2709 112.183C15.2471 112.035 15.2285 111.818 15.2305 111.752L15.2356 111.713C15.2345 111.64 15.2316 111.556 15.2287 111.473C15.2261 111.394 15.2233 111.315 15.221 111.232C15.184 111 15.1478 110.522 15.1476 110.523C15.1454 110.384 15.1531 110.239 15.1604 110.1C15.1681 109.956 15.1759 109.808 15.1734 109.662C15.1722 109.588 15.1726 109.523 15.1728 109.458L15.1728 109.422C15.3174 109.392 15.462 109.361 15.607 109.333C15.8266 109.337 16.0747 109.255 16.2135 109.208L16.3357 109.184C16.4273 109.166 16.5194 109.148 16.6177 109.125C16.7411 109.087 16.912 109.023 17.0351 108.932C17.118 108.899 17.2008 108.864 17.2858 108.828L17.5055 108.736C17.5965 108.695 17.7878 108.628 17.9902 108.557C18.2468 108.468 18.5125 108.376 18.6657 108.304C18.7125 108.279 18.7756 108.254 18.8458 108.226C19.0588 108.142 19.329 108.034 19.467 107.844C19.5173 107.774 19.55 107.694 19.5556 107.599C19.5679 107.284 19.275 107.085 19.0613 106.94C19.0269 106.916 18.9939 106.894 18.9685 106.876C18.4761 106.475 18.0566 106.194 17.6418 105.988C17.5312 105.943 17.416 105.905 17.3012 105.866C17.1933 105.83 17.0855 105.793 16.9813 105.752C16.8625 105.67 16.3793 105.39 16.0957 105.345C15.9642 105.347 15.8481 105.328 15.7257 105.308C15.9056 104.963 16.0069 104.604 16.1054 104.257C16.1419 104.128 16.1782 104 16.2199 103.867C16.3601 103.331 16.4419 102.835 16.5382 102.25L16.5487 102.143C16.5855 101.782 16.6486 101.178 16.1693 101.016L16.1695 101.016Z" fill="white"/>
<g filter="url(#filter6_f_1653_5511)">
<ellipse cx="7.53364" cy="7.5356" rx="7.53364" ry="7.5356" transform="matrix(0.999976 0.00687744 -0.00687385 0.999976 388.969 62.5908)" fill="white" fill-opacity="0.5"/>
</g>
<g filter="url(#filter7_f_1653_5511)">
<ellipse cx="4.51842" cy="4.5196" rx="4.51842" ry="4.5196" transform="matrix(0.999976 0.00687744 -0.00687385 0.999976 548.928 61.4683)" fill="white" fill-opacity="0.5"/>
</g>
<path d="M555.923 71.9976L555.929 71.9935C556.141 71.826 556.103 71.525 556.076 71.3052C556.069 71.2516 556.063 71.2017 556.061 71.1631C556.064 70.8739 556.023 70.6147 555.979 70.3403C555.968 70.2699 555.956 70.1982 555.946 70.1275C555.928 69.9544 555.924 69.7842 555.92 69.6042C555.915 69.3578 555.909 69.1032 555.863 68.8375C555.789 68.5007 555.793 68.2659 555.829 67.9307C555.837 67.8865 555.843 67.8322 555.847 67.7691C555.877 67.7606 555.905 67.7464 555.924 67.7215C555.963 67.6868 556.018 67.6484 556.027 67.6411C556.243 67.4447 556.488 67.2519 556.811 67.0236C556.959 66.9495 557.153 66.8503 557.345 66.7399C557.496 66.6507 557.64 66.5549 557.779 66.4621C558.073 66.2661 558.35 66.0813 558.677 65.9657C558.921 65.866 559.262 65.6543 559.429 65.4292C559.474 65.3748 559.512 65.3103 559.536 65.2473L559.543 65.2476C559.544 65.2402 559.544 65.2334 559.545 65.2222C559.557 65.1856 559.563 65.1543 559.564 65.1249L559.524 64.9725L559.51 64.9749C559.412 64.7494 559.148 64.6831 558.907 64.626C558.793 64.556 558.641 64.5308 558.504 64.5133C558.4 64.4862 558.295 64.4625 558.189 64.4384C558.08 64.4137 557.968 64.3884 557.861 64.3602C557.741 64.32 557.63 64.2892 557.527 64.2674C557.451 64.2442 557.375 64.2197 557.3 64.1954C557.02 64.1044 556.73 64.0104 556.398 63.9938C556.09 63.9927 555.772 63.9794 555.512 63.9565C555.411 63.9607 555.316 63.9651 555.196 63.9218C555.17 63.9173 555.118 63.901 555.075 63.8859C555.062 63.8256 555.049 63.7661 555.035 63.7115C555.021 63.6338 555.01 63.5553 554.998 63.4769C554.987 63.3977 554.975 63.3187 554.96 63.2359C554.912 63.0271 554.851 62.8436 554.791 62.6658C554.732 62.4899 554.676 62.3235 554.633 62.1321C554.601 62.0262 554.586 61.9089 554.569 61.7849C554.553 61.6596 554.54 61.533 554.502 61.4192L554.495 61.3808C554.442 61.1028 554.334 60.5229 553.891 60.4991C553.866 60.4998 553.844 60.5034 553.824 60.5078C553.766 60.487 553.701 60.4818 553.621 60.4944C553.506 60.5288 553.421 60.6317 553.36 60.7067L553.278 60.7942C553.151 60.9249 553.007 61.0732 552.913 61.2459C552.702 61.609 552.589 61.9833 552.47 62.3797C552.415 62.5623 552.358 62.7512 552.29 62.9404C552.269 63.0043 552.25 63.07 552.23 63.1359C552.101 63.5767 551.99 63.9575 551.502 63.9212C551.274 63.9042 551.036 63.9022 550.807 63.9C550.519 63.8976 550.222 63.8948 549.943 63.8629C549.297 63.7889 548.564 63.7054 547.903 63.9697C547.734 64.0373 547.64 64.1363 547.624 64.2637C547.583 64.5756 548.063 64.9304 548.294 65.1007L548.332 65.1278C548.453 65.1934 548.621 65.3007 548.667 65.3386L548.693 65.3644C548.746 65.4043 548.808 65.4486 548.87 65.4929C548.929 65.5351 548.988 65.577 549.049 65.6215C549.238 65.7239 549.604 65.9635 549.604 65.9631C549.706 66.0389 549.806 66.1249 549.903 66.208C550.003 66.2935 550.106 66.3819 550.213 66.4613C550.268 66.5016 550.315 66.5381 550.361 66.5744L550.387 66.5942C550.329 66.7161 550.27 66.8377 550.21 66.9586C550.085 67.1158 550.006 67.3412 549.963 67.4678L549.912 67.57C549.874 67.6465 549.836 67.7234 549.798 67.8074C549.757 67.9181 549.708 68.0777 549.705 68.2172C549.684 68.296 549.663 68.3756 549.641 68.4571L549.586 68.6677C549.565 68.7565 549.507 68.9323 549.445 69.1183C549.367 69.3542 549.286 69.5983 549.253 69.7494C549.244 69.7968 549.227 69.8565 549.208 69.923C549.151 70.1247 549.079 70.3805 549.14 70.5866C549.162 70.6617 549.202 70.7302 549.268 70.7868C549.489 70.9714 549.797 70.8698 550.021 70.7957C550.057 70.7838 550.091 70.7723 550.119 70.7641C550.683 70.6302 551.121 70.4826 551.501 70.2967C551.595 70.2413 551.687 70.1793 551.779 70.1176C551.865 70.0595 551.952 70.0016 552.04 69.9491C552.165 69.9085 552.637 69.7143 552.828 69.5339C552.9 69.4373 552.978 69.3636 553.061 69.2861C553.211 69.6088 553.414 69.8818 553.611 70.1467C553.684 70.2448 553.757 70.3426 553.829 70.4467C554.14 70.8467 554.454 71.1825 554.824 71.5779L554.896 71.6451C555.137 71.8731 555.54 72.2552 555.923 71.9975L555.923 71.9976Z" fill="white"/>
<path d="M396.004 55.7326L395.991 55.7374C395.478 55.9346 395.369 56.5418 395.289 56.9853C395.27 57.0935 395.252 57.1943 395.232 57.2704C395.053 57.8304 394.976 58.3588 394.894 58.9181C394.874 59.0615 394.853 59.2078 394.83 59.3514C394.76 59.6985 394.665 60.0314 394.564 60.3834C394.426 60.8654 394.283 61.3633 394.212 61.9072C394.153 62.6063 394.002 63.0596 393.731 63.6892C393.689 63.7703 393.644 63.8722 393.598 63.9924C393.535 63.9908 393.472 64.0013 393.419 64.0378C393.323 64.082 393.192 64.1231 393.17 64.1317C392.633 64.3831 392.04 64.6093 391.274 64.8575C390.942 64.9121 390.506 64.9875 390.067 65.0861C389.72 65.1681 389.383 65.2673 389.056 65.3634C388.367 65.5664 387.715 65.7576 387.011 65.7846C386.476 65.8307 385.688 66.0364 385.227 66.3727C385.107 66.451 384.994 66.5533 384.909 66.6611L384.895 66.6563C384.889 66.67 384.884 66.683 384.876 66.7043C384.831 66.7683 384.8 66.8253 384.78 66.8817L384.767 67.2024L384.795 67.2059C384.85 67.7034 385.322 67.9914 385.756 68.2483C385.934 68.4529 386.215 68.5938 386.47 68.7104C386.655 68.8259 386.845 68.9353 387.036 69.0462C387.234 69.1606 387.435 69.277 387.627 69.3968C387.835 69.547 388.033 69.6743 388.219 69.7784C388.354 69.8699 388.485 69.963 388.617 70.0556C389.106 70.4017 389.612 70.7593 390.247 70.9925C390.845 71.1808 391.455 71.3989 391.945 71.6001C392.144 71.6529 392.332 71.7022 392.539 71.8588C392.587 71.8834 392.677 71.9461 392.752 72.0015C392.74 72.1263 392.73 72.2499 392.724 72.3644C392.704 72.5238 392.679 72.6832 392.654 72.8423C392.628 73.0031 392.603 73.1637 392.582 73.3334C392.549 73.7682 392.558 74.1618 392.566 74.5431C392.575 74.9205 392.583 75.2774 392.552 75.6755C392.549 75.9002 392.508 76.1374 392.465 76.3882C392.422 76.6417 392.369 76.895 392.375 77.1391L392.366 77.2181C392.299 77.7899 392.16 78.9817 393.006 79.2957C393.055 79.3096 393.1 79.3159 393.142 79.3194C393.241 79.3946 393.365 79.4442 393.527 79.4677C393.772 79.4709 393.998 79.322 394.163 79.2135L394.375 79.093C394.701 78.9161 395.07 78.7151 395.356 78.4362C395.986 77.8585 396.431 77.1994 396.902 76.5018C397.12 76.1803 397.344 75.8478 397.591 75.5215C397.67 75.4099 397.747 75.2939 397.824 75.1776C398.341 74.3994 398.788 73.727 399.713 74.0923C400.147 74.2634 400.607 74.4108 401.051 74.5538C401.608 74.7322 402.183 74.917 402.706 75.1477C403.917 75.682 405.29 76.2871 406.733 76.1731C407.102 76.1439 407.344 76.0085 407.453 75.7709C407.72 75.1896 407.003 74.2104 406.658 73.7403L406.6 73.6644C406.404 73.464 406.144 73.1541 406.076 73.0525L406.042 72.987C405.962 72.8771 405.868 72.7534 405.775 72.63C405.686 72.5125 405.597 72.3956 405.505 72.2721C405.2 71.9592 404.634 71.2726 404.634 71.2733C404.482 71.0646 404.339 70.8368 404.2 70.6167C404.058 70.3902 403.911 70.1562 403.751 69.9372C403.67 69.8261 403.6 69.7268 403.532 69.6281L403.493 69.5739C403.68 69.3725 403.867 69.1717 404.058 68.9733C404.395 68.7435 404.685 68.3532 404.846 68.1338L405.005 67.9656C405.125 67.8399 405.245 67.7136 405.37 67.5735C405.517 67.3832 405.708 67.1028 405.798 66.8337C405.888 66.6936 405.976 66.5516 406.067 66.4061L406.303 66.0309C406.397 65.871 406.616 65.5648 406.848 65.2405C407.142 64.8296 407.447 64.4043 407.603 64.131C407.648 64.0439 407.717 63.9383 407.794 63.8205C408.026 63.4633 408.322 63.0102 408.327 62.5729C408.33 62.4135 408.293 62.2563 408.201 62.107C407.881 61.6143 407.223 61.626 406.743 61.6344C406.666 61.6356 406.592 61.6371 406.534 61.6366C405.356 61.5554 404.417 61.5779 403.566 61.7091C403.351 61.76 403.134 61.8248 402.918 61.889C402.716 61.9497 402.513 62.0099 402.31 62.0588C402.042 62.0618 401.007 62.1537 400.528 62.3888C400.331 62.5331 400.134 62.6289 399.926 62.7295C399.83 62.0121 399.6 61.3589 399.378 60.7255C399.295 60.4908 399.213 60.2567 399.134 60.0105C398.773 59.046 398.366 58.204 397.886 57.2122L397.787 57.0384C397.456 56.4497 396.905 55.4641 396.004 55.7329L396.004 55.7326Z" fill="#FFDFA0"/>
<g filter="url(#filter8_f_1653_5511)">
<ellipse cx="3.28613" cy="3.28698" rx="3.28613" ry="3.28698" transform="matrix(0.999976 0.00687744 -0.00687385 0.999976 478.407 123.485)" fill="white" fill-opacity="0.5"/>
</g>
<path d="M484.615 121.351L484.61 121.35C484.393 121.289 484.209 121.461 484.074 121.586C484.042 121.617 484.011 121.646 483.986 121.666C483.79 121.805 483.635 121.959 483.472 122.122C483.43 122.164 483.387 122.207 483.345 122.249C483.237 122.345 483.124 122.431 483.005 122.521C482.842 122.645 482.673 122.773 482.517 122.934C482.326 123.148 482.166 123.26 481.923 123.4C481.889 123.416 481.85 123.438 481.805 123.466C481.785 123.45 481.762 123.438 481.735 123.437C481.693 123.428 481.64 123.41 481.631 123.407C481.393 123.358 481.144 123.287 480.833 123.18C480.711 123.117 480.549 123.035 480.381 122.959C480.248 122.901 480.113 122.851 479.982 122.803C479.707 122.7 479.447 122.603 479.21 122.439C479.023 122.324 478.715 122.198 478.482 122.195C478.423 122.191 478.361 122.197 478.307 122.212L478.304 122.207C478.298 122.21 478.293 122.213 478.286 122.218C478.255 122.228 478.231 122.239 478.211 122.252L478.128 122.354L478.136 122.362C478.032 122.538 478.116 122.748 478.196 122.939C478.204 123.049 478.261 123.164 478.316 123.265C478.349 123.348 478.384 123.43 478.419 123.514C478.456 123.6 478.494 123.687 478.527 123.773C478.559 123.873 478.592 123.963 478.627 124.043C478.649 124.106 478.67 124.169 478.69 124.231C478.765 124.464 478.843 124.705 478.994 124.937C479.144 125.145 479.29 125.366 479.401 125.552C479.454 125.618 479.503 125.68 479.533 125.782C479.542 125.802 479.556 125.845 479.567 125.881C479.533 125.919 479.499 125.957 479.469 125.993C479.424 126.041 479.376 126.086 479.329 126.132C479.282 126.179 479.234 126.225 479.186 126.276C479.068 126.41 478.975 126.541 478.884 126.668C478.795 126.793 478.71 126.912 478.602 127.035C478.546 127.108 478.475 127.176 478.399 127.247C478.323 127.32 478.244 127.39 478.186 127.471L478.164 127.494C478.002 127.665 477.665 128.022 477.865 128.332C477.877 128.348 477.891 128.361 477.903 128.373C477.917 128.422 477.946 128.468 477.993 128.516C478.073 128.577 478.183 128.583 478.264 128.588L478.362 128.601C478.513 128.623 478.683 128.647 478.845 128.626C479.192 128.591 479.499 128.484 479.824 128.371C479.974 128.319 480.129 128.265 480.29 128.219C480.343 128.202 480.397 128.183 480.45 128.164C480.81 128.035 481.121 127.925 481.335 128.271C481.435 128.433 481.549 128.594 481.66 128.75C481.798 128.945 481.941 129.146 482.056 129.35C482.322 129.821 482.623 130.355 483.123 130.672C483.251 130.753 483.364 130.768 483.458 130.716C483.688 130.592 483.692 130.095 483.694 129.857L483.694 129.818C483.679 129.704 483.67 129.539 483.672 129.489L483.677 129.459C483.678 129.404 483.678 129.34 483.677 129.277C483.677 129.217 483.676 129.157 483.676 129.094C483.653 128.917 483.636 128.553 483.636 128.553C483.637 128.448 483.646 128.338 483.654 128.232C483.663 128.123 483.673 128.01 483.674 127.9C483.674 127.843 483.676 127.794 483.678 127.745L483.678 127.718C483.789 127.697 483.899 127.678 484.01 127.659C484.177 127.667 484.367 127.61 484.474 127.577L484.567 127.561C484.637 127.55 484.707 127.538 484.783 127.522C484.877 127.496 485.008 127.451 485.104 127.385C485.168 127.361 485.231 127.336 485.297 127.311L485.466 127.246C485.536 127.216 485.682 127.17 485.838 127.121C486.035 127.058 486.238 126.993 486.356 126.942C486.393 126.925 486.441 126.907 486.495 126.887C486.659 126.827 486.866 126.751 486.975 126.61C487.015 126.558 487.041 126.498 487.048 126.426C487.064 126.186 486.845 126.029 486.686 125.914C486.661 125.896 486.636 125.878 486.617 125.864C486.251 125.549 485.939 125.326 485.628 125.16C485.545 125.124 485.458 125.093 485.372 125.061C485.29 125.031 485.209 125.001 485.131 124.967C485.042 124.903 484.681 124.679 484.467 124.639C484.367 124.638 484.279 124.621 484.186 124.603C484.33 124.344 484.415 124.074 484.497 123.812C484.528 123.715 484.558 123.619 484.593 123.519C484.711 123.115 484.783 122.739 484.869 122.297L484.879 122.216C484.915 121.942 484.976 121.484 484.615 121.351L484.615 121.351Z" fill="white"/>
</g>
<defs>
<filter id="filter0_f_1653_5511" x="-631.118" y="-78.7874" width="1836.61" height="312.89" filterUnits="userSpaceOnUse" color-interpolation-filters="sRGB">
<feFlood flood-opacity="0" result="BackgroundImageFix"/>
<feBlend mode="normal" in="SourceGraphic" in2="BackgroundImageFix" result="shape"/>
<feGaussianBlur stdDeviation="32.1" result="effect1_foregroundBlur_1653_5511"/>
</filter>
<filter id="filter1_f_1653_5511" x="-4.22842" y="89.8414" width="34.3943" height="34.3963" filterUnits="userSpaceOnUse" color-interpolation-filters="sRGB">
<feFlood flood-opacity="0" result="BackgroundImageFix"/>
<feBlend mode="normal" in="SourceGraphic" in2="BackgroundImageFix" result="shape"/>
<feGaussianBlur stdDeviation="6.55" result="effect1_foregroundBlur_1653_5511"/>
</filter>
<filter id="filter2_f_1653_5511" x="90.8048" y="110.204" width="32.1595" height="32.1609" filterUnits="userSpaceOnUse" color-interpolation-filters="sRGB">
<feFlood flood-opacity="0" result="BackgroundImageFix"/>
<feBlend mode="normal" in="SourceGraphic" in2="BackgroundImageFix" result="shape"/>
<feGaussianBlur stdDeviation="6.55" result="effect1_foregroundBlur_1653_5511"/>
</filter>
<filter id="filter3_f_1653_5511" x="89.0826" y="29.003" width="32.1595" height="32.1609" filterUnits="userSpaceOnUse" color-interpolation-filters="sRGB">
<feFlood flood-opacity="0" result="BackgroundImageFix"/>
<feBlend mode="normal" in="SourceGraphic" in2="BackgroundImageFix" result="shape"/>
<feGaussianBlur stdDeviation="6.55" result="effect1_foregroundBlur_1653_5511"/>
</filter>
<filter id="filter4_f_1653_5511" x="203.046" y="62.3595" width="32.1595" height="32.1609" filterUnits="userSpaceOnUse" color-interpolation-filters="sRGB">
<feFlood flood-opacity="0" result="BackgroundImageFix"/>
<feBlend mode="normal" in="SourceGraphic" in2="BackgroundImageFix" result="shape"/>
<feGaussianBlur stdDeviation="6.55" result="effect1_foregroundBlur_1653_5511"/>
</filter>
<filter id="filter5_f_1653_5511" x="275.947" y="95.8901" width="55.0122" height="55.0142" filterUnits="userSpaceOnUse" color-interpolation-filters="sRGB">
<feFlood flood-opacity="0" result="BackgroundImageFix"/>
<feBlend mode="normal" in="SourceGraphic" in2="BackgroundImageFix" result="shape"/>
<feGaussianBlur stdDeviation="12.25" result="effect1_foregroundBlur_1653_5511"/>
</filter>
<filter id="filter6_f_1653_5511" x="364.417" y="38.1426" width="64.0669" height="64.0713" filterUnits="userSpaceOnUse" color-interpolation-filters="sRGB">
<feFlood flood-opacity="0" result="BackgroundImageFix"/>
<feBlend mode="normal" in="SourceGraphic" in2="BackgroundImageFix" result="shape"/>
<feGaussianBlur stdDeviation="12.25" result="effect1_foregroundBlur_1653_5511"/>
</filter>
<filter id="filter7_f_1653_5511" x="535.796" y="48.399" width="35.2371" height="35.2396" filterUnits="userSpaceOnUse" color-interpolation-filters="sRGB">
<feFlood flood-opacity="0" result="BackgroundImageFix"/>
<feBlend mode="normal" in="SourceGraphic" in2="BackgroundImageFix" result="shape"/>
<feGaussianBlur stdDeviation="6.55" result="effect1_foregroundBlur_1653_5511"/>
</filter>
<filter id="filter8_f_1653_5511" x="465.284" y="110.407" width="32.7723" height="32.7742" filterUnits="userSpaceOnUse" color-interpolation-filters="sRGB">
<feFlood flood-opacity="0" result="BackgroundImageFix"/>
<feBlend mode="normal" in="SourceGraphic" in2="BackgroundImageFix" result="shape"/>
<feGaussianBlur stdDeviation="6.55" result="effect1_foregroundBlur_1653_5511"/>
</filter>
<linearGradient id="paint0_linear_1653_5511" x1="315.863" y1="-113.904" x2="298.376" y2="295.042" gradientUnits="userSpaceOnUse">
<stop stop-color="#46409C"/>
<stop offset="1" stop-color="#635ACE"/>
</linearGradient>
<linearGradient id="paint1_linear_1653_5511" x1="1214.12" y1="-31.4601" x2="119.283" y2="958.297" gradientUnits="userSpaceOnUse">
<stop stop-color="#4D46A7"/>
<stop offset="0.49" stop-color="#5574E0"/>
<stop offset="1" stop-color="#5D57C4"/>
</linearGradient>
<clipPath id="clip0_1653_5511">
<rect width="597" height="303" fill="white" transform="translate(-3 -65)"/>
</clipPath>
</defs>
</svg>
