<svg width="1920" height="402" viewBox="0 0 1920 402" fill="none" xmlns="http://www.w3.org/2000/svg">
<g clip-path="url(#clip0_1790_2583)">
<path d="M1921 -89V384C1286 384 931.5 421 0 384V-89H1921Z" fill="url(#paint0_linear_1790_2583)"/>
<g clip-path="url(#clip1_1790_2583)">
<mask id="mask0_1790_2583" style="mask-type:alpha" maskUnits="userSpaceOnUse" x="0" y="-89" width="1921" height="490">
<path d="M1921 -89V384C1286 384 931.5 421 0 384V-89H1921Z" fill="url(#paint1_linear_1790_2583)"/>
</mask>
<g mask="url(#mask0_1790_2583)">
<g filter="url(#filter0_f_1790_2583)">
<path d="M-141 237C56.2648 133.314 1260.86 447.258 2041.5 76.7062" stroke="url(#paint2_linear_1790_2583)" stroke-width="233"/>
</g>
</g>
</g>
<g filter="url(#filter1_f_1790_2583)">
<circle cx="257.127" cy="98.5086" r="5.29297" transform="rotate(-1.21526 257.127 98.5086)" fill="white" fill-opacity="0.5"/>
</g>
<g filter="url(#filter2_f_1790_2583)">
<circle cx="595.509" cy="168.337" r="5.29297" transform="rotate(-1.21526 595.509 168.337)" fill="white" fill-opacity="0.5"/>
</g>
<g filter="url(#filter3_f_1790_2583)">
<circle cx="338.942" cy="211.801" r="3.84943" transform="rotate(-1.21526 338.942 211.801)" fill="white" fill-opacity="0.5"/>
</g>
<g filter="url(#filter4_f_1790_2583)">
<circle cx="716.833" cy="193.192" r="3.84943" transform="rotate(-1.21526 716.833 193.192)" fill="white" fill-opacity="0.5"/>
</g>
<g filter="url(#filter5_f_1790_2583)">
<circle cx="714.609" cy="88.3182" r="3.84943" transform="rotate(-1.21526 714.609 88.3182)" fill="white" fill-opacity="0.5"/>
</g>
<g filter="url(#filter6_f_1790_2583)">
<circle cx="861.833" cy="131.399" r="3.84943" transform="rotate(-1.21526 861.833 131.399)" fill="white" fill-opacity="0.5"/>
</g>
<path d="M264.248 101.731L264.249 101.723C264.299 101.411 264.029 101.181 263.831 101.013C263.783 100.972 263.738 100.934 263.705 100.902C263.479 100.651 263.238 100.46 262.983 100.257C262.917 100.206 262.851 100.153 262.786 100.1C262.633 99.9652 262.495 99.8214 262.349 99.6694C262.149 99.4612 261.942 99.2461 261.692 99.0536C261.361 98.822 261.179 98.6158 260.944 98.2986C260.916 98.2542 260.878 98.2027 260.831 98.1449C260.85 98.1141 260.864 98.0795 260.861 98.0426C260.866 97.9821 260.884 97.9051 260.886 97.8915C260.916 97.5512 260.975 97.1908 261.073 96.7376C261.142 96.5565 261.23 96.3172 261.308 96.0701C261.368 95.8738 261.416 95.677 261.463 95.4866C261.561 95.0846 261.654 94.7051 261.844 94.3463C261.976 94.067 262.101 93.6148 262.067 93.2883C262.063 93.2056 262.045 93.1198 262.016 93.0465L262.022 93.0409C262.017 93.034 262.012 93.0277 262.004 93.0175C261.985 92.9764 261.965 92.9447 261.943 92.9185L261.787 92.8192L261.777 92.8323C261.514 92.7156 261.234 92.8673 260.98 93.0094C260.827 93.039 260.676 93.1378 260.544 93.2313C260.433 93.2902 260.324 93.3529 260.213 93.4161C260.099 93.4818 259.983 93.5482 259.868 93.6091C259.733 93.6692 259.612 93.731 259.507 93.7933C259.422 93.834 259.338 93.8727 259.254 93.9113C258.94 94.0548 258.615 94.2035 258.315 94.4525C258.049 94.6957 257.764 94.9364 257.522 95.1223C257.438 95.2059 257.359 95.2852 257.222 95.3432C257.195 95.36 257.138 95.3867 257.089 95.408C257.03 95.366 256.972 95.3251 256.916 95.289C256.843 95.2333 256.771 95.1745 256.699 95.116C256.626 95.0568 256.553 94.9978 256.475 94.9383C256.268 94.7964 256.069 94.6869 255.877 94.5808C255.687 94.4758 255.507 94.3767 255.318 94.2461C255.207 94.1797 255.1 94.0909 254.988 93.997C254.874 93.9021 254.763 93.8025 254.64 93.7348L254.604 93.7074C254.338 93.5091 253.785 93.0951 253.384 93.4257C253.363 93.4462 253.347 93.4668 253.333 93.4865C253.267 93.5141 253.206 93.5615 253.148 93.6354C253.075 93.7565 253.084 93.9122 253.09 94.0258L253.089 94.1659C253.083 94.3795 253.076 94.6216 253.132 94.8446C253.238 95.3252 253.437 95.7373 253.648 96.1738C253.745 96.375 253.846 96.5828 253.937 96.8001C253.97 96.8716 254.005 96.9436 254.041 97.0156C254.279 97.4981 254.484 97.9148 254.035 98.2701C253.824 98.4365 253.618 98.623 253.418 98.803C253.168 99.0285 252.91 99.2615 252.644 99.4552C252.028 99.9038 251.33 100.412 250.969 101.164C250.877 101.356 250.874 101.516 250.961 101.639C251.173 101.94 251.868 101.866 252.202 101.83L252.256 101.823C252.413 101.784 252.642 101.744 252.712 101.739L252.755 101.741C252.833 101.733 252.922 101.722 253.01 101.711C253.094 101.701 253.178 101.691 253.266 101.68C253.51 101.619 254.016 101.536 254.015 101.535C254.163 101.52 254.318 101.515 254.468 101.509C254.622 101.504 254.781 101.498 254.936 101.482C255.015 101.474 255.084 101.468 255.153 101.462L255.191 101.459C255.237 101.61 255.283 101.761 255.327 101.913C255.344 102.148 255.454 102.405 255.517 102.549L255.555 102.677C255.583 102.773 255.611 102.869 255.644 102.972C255.697 103.1 255.781 103.276 255.889 103.399C255.933 103.484 255.978 103.569 256.024 103.656L256.143 103.882C256.195 103.975 256.284 104.173 256.378 104.382C256.498 104.648 256.622 104.922 256.712 105.079C256.743 105.126 256.775 105.191 256.812 105.264C256.922 105.483 257.063 105.761 257.279 105.89C257.357 105.937 257.446 105.965 257.547 105.962C257.885 105.945 258.069 105.614 258.204 105.372C258.226 105.334 258.247 105.296 258.264 105.268C258.645 104.705 258.905 104.231 259.086 103.769C259.123 103.647 259.153 103.52 259.183 103.394C259.212 103.276 259.24 103.157 259.275 103.042C259.351 102.908 259.604 102.366 259.626 102.059C259.611 101.919 259.62 101.794 259.63 101.661C260.015 101.821 260.407 101.895 260.787 101.968C260.927 101.994 261.068 102.021 261.213 102.053C261.797 102.152 262.334 102.193 262.967 102.24L263.082 102.241C263.471 102.247 264.121 102.257 264.248 101.731L264.248 101.731Z" fill="white"/>
<path d="M723.06 195.986L723.062 195.977C723.116 195.642 722.825 195.395 722.613 195.214C722.561 195.17 722.512 195.13 722.478 195.095C722.234 194.825 721.976 194.62 721.702 194.403C721.632 194.347 721.56 194.291 721.49 194.234C721.326 194.089 721.178 193.935 721.021 193.771C720.806 193.548 720.584 193.317 720.315 193.11C719.96 192.861 719.764 192.64 719.512 192.299C719.482 192.251 719.441 192.196 719.391 192.134C719.411 192.101 719.425 192.064 719.422 192.024C719.429 191.959 719.447 191.876 719.449 191.862C719.482 191.496 719.545 191.109 719.65 190.622C719.724 190.428 719.819 190.171 719.903 189.906C719.967 189.695 720.019 189.483 720.069 189.279C720.174 188.847 720.274 188.439 720.479 188.054C720.62 187.754 720.755 187.268 720.718 186.918C720.714 186.829 720.694 186.737 720.663 186.658L720.67 186.652C720.664 186.644 720.659 186.638 720.65 186.627C720.63 186.583 720.609 186.549 720.585 186.52L720.418 186.414L720.407 186.428C720.124 186.302 719.823 186.465 719.551 186.618C719.386 186.65 719.224 186.756 719.082 186.856C718.963 186.92 718.845 186.987 718.727 187.055C718.604 187.125 718.479 187.197 718.356 187.262C718.211 187.327 718.081 187.393 717.968 187.46C717.877 187.504 717.786 187.545 717.696 187.587C717.359 187.741 717.011 187.901 716.689 188.168C716.402 188.429 716.096 188.688 715.836 188.887C715.746 188.977 715.662 189.062 715.514 189.125C715.486 189.143 715.424 189.171 715.371 189.194C715.308 189.149 715.245 189.105 715.186 189.067C715.107 189.007 715.029 188.944 714.952 188.881C714.874 188.817 714.796 188.754 714.712 188.69C714.489 188.537 714.276 188.42 714.07 188.306C713.865 188.193 713.672 188.087 713.469 187.946C713.35 187.875 713.235 187.78 713.115 187.679C712.992 187.577 712.873 187.47 712.741 187.397L712.702 187.368C712.417 187.155 711.823 186.71 711.392 187.065C711.369 187.087 711.352 187.109 711.337 187.131C711.266 187.16 711.201 187.211 711.138 187.29C711.06 187.421 711.07 187.588 711.076 187.71L711.075 187.86C711.068 188.09 711.061 188.35 711.121 188.589C711.235 189.105 711.449 189.548 711.676 190.017C711.78 190.233 711.888 190.456 711.986 190.69C712.021 190.766 712.059 190.844 712.097 190.921C712.353 191.439 712.574 191.887 712.091 192.268C711.865 192.447 711.643 192.648 711.429 192.841C711.16 193.083 710.883 193.333 710.597 193.541C709.935 194.023 709.185 194.57 708.798 195.377C708.699 195.583 708.696 195.755 708.789 195.887C709.017 196.211 709.764 196.131 710.122 196.092L710.181 196.085C710.349 196.042 710.595 195.999 710.67 195.995L710.716 195.997C710.8 195.988 710.895 195.976 710.99 195.965C711.081 195.954 711.171 195.942 711.265 195.931C711.527 195.866 712.07 195.776 712.07 195.776C712.229 195.759 712.395 195.753 712.556 195.748C712.721 195.742 712.892 195.736 713.059 195.718C713.143 195.709 713.218 195.703 713.292 195.697L713.333 195.693C713.383 195.856 713.432 196.018 713.479 196.182C713.497 196.434 713.616 196.71 713.683 196.864L713.723 197.001C713.753 197.105 713.783 197.208 713.82 197.319C713.876 197.456 713.966 197.645 714.082 197.777C714.129 197.869 714.178 197.96 714.227 198.054L714.355 198.296C714.411 198.396 714.507 198.609 714.608 198.833C714.736 199.118 714.869 199.413 714.967 199.582C715 199.633 715.034 199.702 715.074 199.78C715.192 200.015 715.343 200.314 715.575 200.453C715.66 200.504 715.755 200.533 715.863 200.53C716.226 200.512 716.424 200.156 716.569 199.897C716.592 199.855 716.615 199.815 716.633 199.784C717.042 199.18 717.322 198.671 717.516 198.175C717.556 198.043 717.588 197.908 717.621 197.772C717.651 197.645 717.682 197.518 717.719 197.394C717.801 197.25 718.073 196.668 718.096 196.339C718.08 196.188 718.09 196.053 718.101 195.911C718.514 196.082 718.935 196.162 719.343 196.24C719.494 196.269 719.645 196.297 719.801 196.332C720.428 196.438 721.005 196.482 721.685 196.533L721.808 196.534C722.226 196.54 722.924 196.551 723.06 195.986L723.06 195.986Z" fill="white"/>
<g filter="url(#filter7_f_1790_2583)">
<circle cx="485.154" cy="93.6722" r="5.7445" transform="rotate(-1.21526 485.154 93.6722)" fill="white" fill-opacity="0.5"/>
</g>
<path d="M484.503 86.2074L484.495 86.2107C484.17 86.346 484.111 86.7364 484.068 87.0215C484.058 87.0911 484.048 87.1559 484.037 87.2049C483.932 87.5663 483.892 87.9057 483.85 88.2649C483.839 88.357 483.828 88.451 483.817 88.5432C483.778 88.7665 483.723 88.9811 483.665 89.2082C483.585 89.5189 483.503 89.84 483.467 90.1892C483.442 90.6374 483.354 90.9301 483.191 91.3377C483.166 91.3903 483.139 91.4563 483.112 91.534C483.072 91.5341 483.031 91.542 482.998 91.5663C482.938 91.5962 482.855 91.6249 482.841 91.6308C482.501 91.8012 482.126 91.9566 481.641 92.1291C481.429 92.17 481.151 92.2261 480.872 92.2971C480.652 92.3558 480.438 92.4253 480.23 92.4926C479.793 92.6349 479.38 92.7689 478.929 92.7988C478.588 92.8379 478.088 92.9836 477.799 93.207C477.723 93.2593 477.653 93.3267 477.601 93.3972L477.592 93.3944C477.588 93.4033 477.585 93.4117 477.58 93.4254C477.552 93.4672 477.534 93.5042 477.522 93.5407L477.519 93.746L477.537 93.7478C477.581 94.065 477.888 94.2407 478.171 94.3973C478.289 94.5249 478.471 94.61 478.636 94.68C478.757 94.7505 478.88 94.8171 479.004 94.8846C479.133 94.9542 479.264 95.0251 479.389 95.0982C479.525 95.1906 479.653 95.2684 479.774 95.3317C479.862 95.3878 479.948 95.445 480.034 95.5019C480.353 95.7145 480.683 95.9341 481.094 96.0719C481.48 96.1816 481.874 96.3101 482.191 96.43C482.319 96.4602 482.44 96.4883 482.576 96.5848C482.607 96.5996 482.665 96.6382 482.714 96.6723C482.709 96.7523 482.705 96.8315 482.703 96.9049C482.693 97.0072 482.68 97.1096 482.667 97.2118C482.653 97.3151 482.64 97.4183 482.63 97.5273C482.617 97.8059 482.629 98.0576 482.641 98.3013C482.653 98.5426 482.665 98.7707 482.652 99.0259C482.654 99.1697 482.633 99.3222 482.61 99.4833C482.587 99.6463 482.557 99.8093 482.565 99.9653L482.561 100.016C482.529 100.383 482.461 101.148 483.008 101.333C483.04 101.341 483.069 101.345 483.095 101.346C483.16 101.392 483.24 101.422 483.344 101.434C483.501 101.432 483.643 101.332 483.747 101.26L483.88 101.179C484.086 101.06 484.318 100.925 484.496 100.741C484.889 100.361 485.162 99.931 485.451 99.4762C485.584 99.2667 485.722 99.05 485.874 98.8368C485.922 98.764 485.969 98.6884 486.017 98.6126C486.334 98.1056 486.607 97.6675 487.206 97.8845C487.486 97.9862 487.783 98.0722 488.07 98.1556C488.43 98.2597 488.801 98.3676 489.14 98.5058C489.924 98.8258 490.813 99.1882 491.735 99.0893C491.97 99.064 492.123 98.973 492.188 98.8191C492.349 98.4425 491.872 97.829 491.643 97.5345L491.604 97.487C491.476 97.3624 491.303 97.1688 491.259 97.105L491.235 97.0637C491.182 96.9948 491.12 96.9174 491.058 96.8402C490.999 96.7666 490.94 96.6934 490.879 96.6161C490.678 96.4214 490.304 95.9924 490.304 95.9929C490.202 95.8621 490.107 95.719 490.014 95.5807C489.919 95.4383 489.821 95.2913 489.715 95.1541C489.661 95.0845 489.615 95.0223 489.569 94.9604L489.543 94.9264C489.659 94.7942 489.776 94.6623 489.894 94.532C490.105 94.379 490.284 94.1241 490.383 93.9809L490.482 93.8704C490.556 93.7879 490.631 93.7049 490.708 93.6131C490.799 93.4887 490.916 93.3059 490.969 93.1321C491.024 93.0409 491.078 92.9485 491.133 92.8538L491.277 92.6096C491.334 92.5056 491.469 92.3058 491.612 92.0942C491.793 91.8261 491.98 91.5485 492.075 91.3709C492.102 91.3144 492.144 91.2456 492.191 91.1689C492.334 90.9362 492.515 90.6411 492.511 90.3613C492.509 90.2593 492.483 90.1594 492.421 90.0655C492.208 89.7561 491.787 89.7754 491.48 89.7894C491.43 89.7916 491.383 89.7939 491.346 89.7946C490.591 89.7638 489.991 89.795 489.449 89.8943C489.312 89.9308 489.174 89.976 489.037 90.021C488.909 90.0635 488.78 90.1057 488.651 90.1406C488.48 90.1473 487.819 90.2247 487.517 90.3837C487.393 90.4795 487.269 90.5443 487.138 90.6124C487.064 90.1553 486.905 89.7416 486.751 89.3404C486.694 89.1918 486.637 89.0435 486.582 88.8874C486.334 88.277 486.058 87.7457 485.733 87.1199L485.667 87.0106C485.445 86.6399 485.074 86.0194 484.503 86.2075L484.503 86.2074Z" fill="white"/>
<g filter="url(#filter8_f_1790_2583)">
<circle cx="970.774" cy="189.463" r="3.88348" transform="rotate(1.93411 970.774 189.463)" fill="white" fill-opacity="0.5"/>
</g>
<path d="M970.611 184.4L970.605 184.401C970.381 184.481 970.327 184.742 970.287 184.933C970.278 184.979 970.269 185.023 970.259 185.056C970.175 185.296 970.136 185.523 970.094 185.764C970.083 185.826 970.073 185.889 970.061 185.951C970.027 186.1 969.982 186.243 969.934 186.394C969.869 186.601 969.801 186.814 969.764 187.049C969.73 187.35 969.66 187.545 969.535 187.814C969.516 187.848 969.496 187.892 969.474 187.943C969.447 187.942 969.42 187.946 969.396 187.961C969.354 187.979 969.297 187.995 969.288 187.999C969.052 188.101 968.793 188.192 968.459 188.29C968.315 188.31 968.125 188.338 967.934 188.375C967.783 188.407 967.636 188.446 967.494 188.483C967.193 188.563 966.909 188.638 966.604 188.642C966.372 188.656 966.029 188.735 965.826 188.875C965.773 188.908 965.723 188.951 965.685 188.996L965.679 188.994C965.676 189 965.674 189.006 965.67 189.015C965.65 189.042 965.636 189.066 965.627 189.09L965.617 189.229L965.629 189.231C965.647 189.446 965.848 189.576 966.033 189.693C966.107 189.783 966.227 189.847 966.336 189.901C966.415 189.953 966.496 190.002 966.577 190.053C966.662 190.104 966.747 190.157 966.829 190.211C966.917 190.278 967.001 190.336 967.08 190.383C967.137 190.424 967.193 190.466 967.249 190.507C967.457 190.663 967.671 190.823 967.944 190.932C968.2 191.02 968.461 191.121 968.671 191.214C968.756 191.239 968.837 191.263 968.925 191.333C968.945 191.344 968.983 191.372 969.015 191.397C969.009 191.451 969.003 191.504 968.999 191.554C968.988 191.622 968.976 191.691 968.963 191.759C968.95 191.829 968.937 191.898 968.926 191.971C968.907 192.159 968.906 192.329 968.905 192.494C968.905 192.657 968.904 192.812 968.886 192.983C968.882 193.081 968.862 193.183 968.84 193.291C968.818 193.4 968.793 193.509 968.792 193.614L968.787 193.648C968.752 193.895 968.678 194.409 969.04 194.554C969.061 194.561 969.081 194.564 969.099 194.566C969.141 194.6 969.194 194.623 969.264 194.635C969.37 194.639 969.469 194.577 969.542 194.532L969.635 194.483C969.778 194.41 969.94 194.327 970.067 194.21C970.346 193.967 970.546 193.688 970.758 193.391C970.856 193.255 970.957 193.114 971.067 192.975C971.103 192.928 971.137 192.879 971.172 192.829C971.405 192.499 971.606 192.213 972.002 192.382C972.188 192.461 972.385 192.53 972.575 192.597C972.814 192.681 973.061 192.767 973.284 192.873C973.802 193.118 974.389 193.396 975.014 193.364C975.174 193.355 975.281 193.3 975.33 193.198C975.453 192.95 975.154 192.518 975.01 192.311L974.986 192.277C974.904 192.188 974.794 192.051 974.766 192.006L974.752 191.978C974.719 191.929 974.68 191.875 974.641 191.82C974.604 191.768 974.567 191.717 974.528 191.662C974.4 191.524 974.163 191.22 974.163 191.22C974.1 191.128 974.041 191.028 973.983 190.931C973.924 190.832 973.863 190.729 973.797 190.632C973.763 190.583 973.734 190.54 973.705 190.496L973.69 190.472C973.773 190.387 973.856 190.303 973.941 190.219C974.089 190.124 974.219 189.958 974.291 189.865L974.362 189.794C974.416 189.741 974.469 189.688 974.525 189.629C974.59 189.548 974.676 189.429 974.719 189.314C974.759 189.254 974.799 189.194 974.84 189.132L974.946 188.973C974.989 188.905 975.087 188.775 975.191 188.637C975.323 188.463 975.46 188.283 975.53 188.166C975.551 188.129 975.582 188.084 975.617 188.034C975.721 187.882 975.855 187.69 975.862 187.501C975.865 187.432 975.851 187.364 975.813 187.298C975.68 187.081 975.395 187.079 975.188 187.077C975.154 187.076 975.122 187.076 975.097 187.075C974.589 187.026 974.182 187.025 973.813 187.072C973.719 187.091 973.624 187.117 973.53 187.142C973.442 187.166 973.353 187.19 973.265 187.209C973.149 187.207 972.701 187.234 972.49 187.331C972.403 187.391 972.317 187.43 972.226 187.471C972.193 187.16 972.101 186.874 972.012 186.598C971.979 186.495 971.946 186.393 971.915 186.286C971.77 185.865 971.604 185.496 971.408 185.061L971.367 184.985C971.231 184.726 971.004 184.294 970.611 184.4L970.611 184.4Z" fill="white"/>
<path d="M712.642 92.0594L712.647 92.0599C712.88 92.0784 713.033 91.8654 713.145 91.7099C713.173 91.672 713.198 91.6366 713.219 91.611C713.391 91.4291 713.517 91.2406 713.651 91.0409C713.685 90.9898 713.72 90.9375 713.755 90.8865C713.846 90.7662 713.943 90.656 714.046 90.5394C714.188 90.3799 714.334 90.2151 714.461 90.0195C714.611 89.7622 714.752 89.6159 714.972 89.4242C715.003 89.4008 715.039 89.3699 715.078 89.3322C715.102 89.3443 715.128 89.3519 715.155 89.3476C715.2 89.3483 715.258 89.3564 715.268 89.3572C715.52 89.3594 715.789 89.3812 716.129 89.4264C716.266 89.4663 716.447 89.5175 716.634 89.5601C716.782 89.5922 716.929 89.616 717.072 89.6391C717.374 89.6875 717.659 89.7335 717.934 89.8524C718.148 89.9327 718.488 89.9983 718.726 89.9537C718.787 89.9458 718.849 89.9273 718.901 89.9014L718.906 89.9059C718.911 89.9017 718.915 89.8977 718.922 89.8909C718.951 89.8747 718.973 89.8584 718.991 89.8405L719.055 89.7199L719.045 89.7133C719.115 89.5125 718.987 89.3155 718.867 89.1374C718.836 89.0262 718.755 88.9208 718.678 88.8292C718.628 88.751 718.575 88.6743 718.522 88.5967C718.467 88.5165 718.411 88.4349 718.36 88.3538C718.307 88.2581 718.255 88.173 718.203 88.099C718.168 88.0392 718.134 87.9793 718.101 87.9198C717.977 87.6973 717.848 87.4674 717.647 87.2614C717.452 87.0796 717.258 86.8842 717.107 86.7172C717.04 86.6605 716.977 86.6072 716.927 86.5091C716.913 86.4909 716.89 86.4503 716.871 86.4153C716.898 86.3696 716.925 86.3241 716.948 86.2813C716.985 86.2237 717.024 86.1672 717.063 86.1108C717.102 86.0538 717.141 85.9968 717.18 85.9355C717.272 85.7748 717.341 85.6222 717.408 85.4744C717.474 85.3281 717.536 85.1897 717.621 85.0428C717.663 84.9571 717.722 84.8735 717.785 84.7853C717.848 84.696 717.915 84.6085 717.957 84.5138L717.975 84.4852C718.105 84.278 718.377 83.8464 718.11 83.5709C718.094 83.5565 718.078 83.5458 718.063 83.5369C718.038 83.4899 718 83.4481 717.942 83.4094C717.849 83.3632 717.734 83.3789 717.651 83.3902L717.548 83.3977C717.39 83.4057 717.212 83.4151 717.051 83.4697C716.704 83.5758 716.412 83.747 716.103 83.9282C715.961 84.0117 715.814 84.0981 715.659 84.178C715.609 84.2064 715.558 84.2367 715.507 84.2672C715.166 84.4709 714.871 84.6469 714.583 84.3372C714.448 84.192 714.299 84.0512 714.154 83.9149C713.974 83.7444 713.787 83.5681 713.629 83.3837C713.262 82.9568 712.846 82.473 712.271 82.2521C712.125 82.1957 712.007 82.2032 711.921 82.2744C711.712 82.4484 711.808 82.9556 711.854 83.1991L711.863 83.2388C711.901 83.3515 711.944 83.5182 711.951 83.5695L711.953 83.6009C711.963 83.6578 711.976 83.7224 711.99 83.7869C712.002 83.8482 712.015 83.9093 712.028 83.9736C712.087 84.1495 712.179 84.5167 712.179 84.5164C712.199 84.6243 712.212 84.7379 712.225 84.8478C712.238 84.9607 712.251 85.0774 712.273 85.1908C712.283 85.2483 712.292 85.299 712.3 85.3495L712.305 85.3773C712.196 85.4203 712.088 85.463 711.978 85.5043C711.807 85.5305 711.624 85.6271 711.522 85.6818L711.43 85.7171C711.361 85.7433 711.292 85.7697 711.218 85.8005C711.127 85.8466 711.002 85.9192 710.918 86.0058C710.858 86.0431 710.798 86.0814 710.737 86.1205L710.578 86.2213C710.512 86.2654 710.372 86.3426 710.224 86.4245C710.035 86.5281 709.841 86.6355 709.731 86.7117C709.697 86.7368 709.652 86.7647 709.601 86.7958C709.446 86.8902 709.249 87.0098 709.167 87.1765C709.137 87.2372 709.122 87.3042 709.13 87.3784C709.163 87.626 709.417 87.7421 709.603 87.827C709.633 87.8407 709.662 87.8536 709.684 87.8645C710.121 88.1115 710.485 88.275 710.835 88.3806C710.928 88.4007 711.022 88.4155 711.117 88.4304C711.206 88.4443 711.295 88.4584 711.382 88.4768C711.485 88.5248 711.899 88.6792 712.126 88.6769C712.228 88.6578 712.321 88.6571 712.419 88.6565C712.325 88.9494 712.293 89.242 712.262 89.5258C712.251 89.6309 712.24 89.7358 712.225 89.8447C712.186 90.2808 712.188 90.6784 712.191 91.1469L712.197 91.2316C712.216 91.5181 712.247 91.9972 712.642 92.0593L712.642 92.0594Z" fill="white"/>
<g filter="url(#filter9_f_1790_2583)">
<circle cx="164.402" cy="219.831" r="4.05816" transform="rotate(-1.21526 164.402 219.831)" fill="white" fill-opacity="0.5"/>
</g>
<path d="M165.623 227.12L165.615 227.119C165.276 227.066 165.131 226.709 165.024 226.449C164.999 226.386 164.975 226.327 164.953 226.283C164.77 225.965 164.655 225.652 164.533 225.322C164.501 225.237 164.469 225.151 164.437 225.066C164.35 224.863 164.248 224.673 164.141 224.471C163.994 224.195 163.842 223.91 163.728 223.587C163.601 223.169 163.45 222.912 163.203 222.563C163.167 222.519 163.127 222.463 163.083 222.395C163.045 222.405 163.005 222.406 162.968 222.391C162.903 222.377 162.818 222.368 162.804 222.366C162.443 222.283 162.052 222.222 161.553 222.17C161.343 222.18 161.067 222.19 160.787 222.187C160.564 222.182 160.346 222.166 160.134 222.149C159.687 222.115 159.265 222.083 158.831 222.158C158.5 222.199 157.992 222.176 157.667 222.031C157.584 221.999 157.501 221.951 157.436 221.897L157.428 221.901C157.422 221.894 157.418 221.886 157.41 221.875C157.374 221.841 157.348 221.811 157.328 221.779L157.279 221.585L157.296 221.579C157.264 221.269 157.515 221.032 157.746 220.819C157.828 220.671 157.981 220.548 158.122 220.444C158.22 220.349 158.321 220.258 158.423 220.166C158.53 220.07 158.637 219.973 158.739 219.875C158.846 219.756 158.95 219.653 159.05 219.565C159.12 219.492 159.189 219.418 159.257 219.345C159.51 219.07 159.772 218.786 160.13 218.562C160.47 218.369 160.814 218.157 161.086 217.97C161.201 217.912 161.309 217.858 161.415 217.736C161.441 217.714 161.488 217.664 161.526 217.621C161.503 217.546 161.481 217.472 161.462 217.403C161.43 217.308 161.393 217.215 161.357 217.121C161.321 217.026 161.285 216.931 161.25 216.831C161.174 216.57 161.128 216.328 161.083 216.095C161.039 215.864 160.998 215.645 160.927 215.406C160.896 215.27 160.841 215.13 160.782 214.983C160.722 214.834 160.657 214.686 160.629 214.537L160.613 214.49C160.499 214.149 160.259 213.441 160.734 213.139C160.762 213.124 160.789 213.115 160.814 213.107C160.865 213.048 160.934 213.002 161.03 212.967C161.179 212.933 161.336 212.994 161.451 213.039L161.596 213.085C161.818 213.151 162.069 213.225 162.28 213.358C162.739 213.629 163.096 213.973 163.474 214.337C163.648 214.505 163.828 214.679 164.021 214.845C164.084 214.903 164.146 214.964 164.208 215.025C164.625 215.432 164.984 215.784 165.502 215.441C165.744 215.281 166.005 215.131 166.258 214.986C166.574 214.805 166.901 214.618 167.19 214.409C167.86 213.926 168.618 213.379 169.514 213.26C169.743 213.23 169.908 213.281 170.005 213.412C170.244 213.732 169.933 214.422 169.784 214.754L169.758 214.808C169.665 214.955 169.546 215.178 169.518 215.249L169.506 215.293C169.471 215.371 169.43 215.458 169.389 215.546C169.35 215.629 169.311 215.712 169.271 215.799C169.126 216.03 168.869 216.522 168.869 216.521C168.804 216.669 168.746 216.826 168.69 216.978C168.633 217.135 168.573 217.297 168.504 217.451C168.469 217.529 168.44 217.599 168.411 217.668L168.394 217.706C168.535 217.805 168.675 217.903 168.817 217.999C169.052 218.095 169.28 218.296 169.406 218.409L169.526 218.491C169.615 218.552 169.705 218.613 169.799 218.682C169.913 218.779 170.066 218.925 170.156 219.078C170.229 219.152 170.302 219.227 170.376 219.304L170.568 219.502C170.647 219.587 170.82 219.745 171.004 219.913C171.237 220.125 171.478 220.345 171.608 220.492C171.647 220.539 171.703 220.594 171.765 220.656C171.953 220.844 172.192 221.082 172.253 221.348C172.275 221.445 172.273 221.545 172.236 221.648C172.105 221.99 171.702 222.069 171.408 222.126C171.361 222.135 171.315 222.144 171.28 222.152C170.572 222.354 169.997 222.463 169.46 222.493C169.322 222.49 169.182 222.479 169.042 222.468C168.91 222.457 168.779 222.446 168.649 222.443C168.485 222.476 167.842 222.554 167.519 222.473C167.379 222.411 167.247 222.378 167.107 222.344C167.142 222.794 167.086 223.222 167.033 223.637C167.013 223.791 166.993 223.944 166.977 224.105C166.882 224.74 166.743 225.306 166.579 225.974L166.541 226.092C166.416 226.494 166.208 227.167 165.623 227.12L165.623 227.12Z" fill="white"/>
<path d="M342.21 205.332L342.204 205.33C341.949 205.266 341.738 205.473 341.585 205.625C341.547 205.662 341.513 205.696 341.484 205.721C341.259 205.89 341.083 206.076 340.897 206.272C340.849 206.322 340.801 206.374 340.752 206.424C340.629 206.54 340.5 206.644 340.363 206.754C340.176 206.905 339.983 207.06 339.805 207.253C339.589 207.511 339.405 207.646 339.125 207.818C339.086 207.838 339.041 207.866 338.99 207.9C338.965 207.882 338.938 207.869 338.907 207.868C338.857 207.859 338.795 207.839 338.784 207.836C338.504 207.786 338.209 207.711 337.841 207.597C337.696 207.527 337.504 207.436 337.305 207.353C337.147 207.29 336.988 207.235 336.833 207.183C336.507 207.072 336.2 206.967 335.916 206.783C335.695 206.654 335.329 206.517 335.056 206.521C334.987 206.519 334.915 206.527 334.852 206.546L334.848 206.541C334.842 206.544 334.836 206.548 334.827 206.554C334.792 206.567 334.764 206.58 334.741 206.597L334.647 206.719L334.657 206.728C334.541 206.938 334.647 207.181 334.746 207.401C334.759 207.53 334.83 207.663 334.898 207.779C334.938 207.875 334.982 207.97 335.027 208.067C335.073 208.166 335.119 208.267 335.161 208.367C335.201 208.483 335.244 208.588 335.287 208.68C335.315 208.753 335.341 208.825 335.367 208.898C335.463 209.168 335.562 209.448 335.747 209.715C335.928 209.953 336.107 210.207 336.243 210.421C336.307 210.496 336.366 210.567 336.404 210.686C336.416 210.709 336.434 210.758 336.448 210.801C336.409 210.846 336.371 210.892 336.337 210.935C336.286 210.992 336.232 211.047 336.178 211.103C336.124 211.158 336.069 211.214 336.014 211.275C335.882 211.436 335.777 211.593 335.675 211.744C335.574 211.894 335.478 212.036 335.356 212.183C335.293 212.27 335.212 212.352 335.126 212.438C335.039 212.525 334.948 212.61 334.883 212.707L334.858 212.735C334.674 212.941 334.291 213.369 334.535 213.725C334.551 213.744 334.567 213.759 334.582 213.772C334.6 213.829 334.635 213.882 334.692 213.936C334.787 214.005 334.916 214.009 335.011 214.012L335.127 214.024C335.304 214.044 335.504 214.068 335.692 214.037C336.098 213.985 336.454 213.85 336.831 213.707C337.005 213.641 337.185 213.573 337.371 213.514C337.433 213.492 337.495 213.468 337.558 213.443C337.975 213.282 338.335 213.142 338.596 213.54C338.719 213.727 338.858 213.911 338.993 214.09C339.161 214.313 339.336 214.544 339.477 214.779C339.803 215.322 340.174 215.938 340.77 216.292C340.923 216.382 341.055 216.396 341.163 216.333C341.428 216.179 341.417 215.598 341.412 215.319L341.41 215.273C341.389 215.141 341.372 214.948 341.374 214.889L341.379 214.854C341.378 214.789 341.375 214.715 341.373 214.641C341.37 214.57 341.368 214.5 341.366 214.426C341.333 214.22 341.3 213.795 341.3 213.795C341.298 213.671 341.305 213.543 341.312 213.418C341.318 213.29 341.326 213.158 341.323 213.028C341.322 212.962 341.323 212.905 341.323 212.847L341.323 212.815C341.451 212.788 341.58 212.761 341.709 212.736C341.905 212.739 342.126 212.666 342.249 212.625L342.358 212.603C342.44 212.587 342.522 212.571 342.609 212.55C342.719 212.516 342.871 212.459 342.981 212.379C343.055 212.349 343.129 212.318 343.204 212.286L343.4 212.204C343.481 212.167 343.651 212.108 343.832 212.045C344.06 211.966 344.297 211.883 344.433 211.819C344.475 211.798 344.531 211.775 344.593 211.75C344.783 211.675 345.024 211.579 345.147 211.41C345.191 211.348 345.221 211.276 345.226 211.192C345.237 210.911 344.976 210.734 344.785 210.605C344.755 210.584 344.725 210.564 344.703 210.548C344.264 210.191 343.891 209.941 343.521 209.758C343.423 209.718 343.32 209.684 343.218 209.649C343.122 209.617 343.026 209.584 342.933 209.548C342.827 209.475 342.397 209.225 342.145 209.185C342.027 209.187 341.924 209.17 341.815 209.152C341.975 208.845 342.066 208.526 342.153 208.217C342.186 208.102 342.218 207.988 342.255 207.87C342.38 207.393 342.453 206.951 342.539 206.43L342.548 206.335C342.581 206.013 342.637 205.475 342.21 205.332L342.21 205.332Z" fill="white"/>
<path d="M862.2 126.551L862.195 126.55C862.02 126.506 861.876 126.648 861.77 126.752C861.745 126.778 861.721 126.801 861.701 126.818C861.546 126.935 861.426 127.062 861.298 127.197C861.265 127.232 861.232 127.267 861.199 127.301C861.114 127.381 861.025 127.453 860.932 127.528C860.803 127.631 860.67 127.738 860.548 127.871C860.4 128.047 860.273 128.141 860.081 128.258C860.055 128.272 860.023 128.291 859.988 128.315C859.972 128.302 859.952 128.293 859.931 128.293C859.897 128.287 859.854 128.273 859.847 128.271C859.655 128.237 859.452 128.185 859.2 128.107C859.1 128.059 858.968 127.996 858.832 127.939C858.723 127.896 858.613 127.858 858.507 127.822C858.284 127.746 858.072 127.674 857.878 127.548C857.726 127.459 857.475 127.365 857.287 127.368C857.24 127.366 857.19 127.372 857.147 127.385L857.144 127.381C857.14 127.384 857.136 127.386 857.13 127.391C857.106 127.399 857.087 127.409 857.071 127.42L857.006 127.504L857.013 127.51C856.934 127.654 857.006 127.821 857.074 127.972C857.083 128.061 857.132 128.152 857.178 128.232C857.206 128.298 857.236 128.363 857.267 128.429C857.298 128.498 857.33 128.567 857.359 128.635C857.387 128.715 857.416 128.787 857.446 128.85C857.465 128.9 857.483 128.95 857.5 129C857.566 129.186 857.635 129.378 857.761 129.561C857.886 129.725 858.009 129.899 858.102 130.046C858.146 130.098 858.187 130.147 858.213 130.228C858.221 130.244 858.234 130.278 858.243 130.307C858.216 130.338 858.19 130.369 858.167 130.399C858.131 130.438 858.094 130.476 858.057 130.514C858.02 130.552 857.983 130.591 857.945 130.632C857.854 130.743 857.782 130.85 857.712 130.954C857.642 131.057 857.577 131.155 857.493 131.256C857.45 131.316 857.394 131.372 857.335 131.431C857.275 131.491 857.213 131.549 857.168 131.616L857.151 131.635C857.025 131.776 856.762 132.07 856.929 132.315C856.94 132.328 856.951 132.338 856.962 132.347C856.974 132.386 856.998 132.423 857.037 132.46C857.102 132.507 857.191 132.51 857.256 132.512L857.336 132.52C857.457 132.534 857.594 132.55 857.724 132.529C858.003 132.493 858.247 132.401 858.506 132.302C858.625 132.257 858.749 132.21 858.877 132.17C858.919 132.155 858.962 132.138 859.005 132.121C859.291 132.01 859.539 131.914 859.718 132.188C859.802 132.316 859.898 132.443 859.99 132.565C860.106 132.719 860.226 132.877 860.323 133.038C860.547 133.412 860.801 133.834 861.211 134.077C861.315 134.139 861.406 134.149 861.481 134.106C861.662 134 861.655 133.601 861.651 133.409L861.65 133.378C861.636 133.287 861.624 133.154 861.626 133.114L861.629 133.09C861.628 133.045 861.626 132.994 861.624 132.943C861.623 132.895 861.621 132.847 861.62 132.796C861.597 132.654 861.575 132.363 861.575 132.363C861.573 132.278 861.578 132.189 861.583 132.104C861.587 132.016 861.592 131.926 861.591 131.836C861.59 131.791 861.59 131.751 861.59 131.712L861.59 131.69C861.679 131.671 861.767 131.653 861.856 131.635C861.99 131.638 862.142 131.588 862.227 131.559L862.301 131.544C862.357 131.533 862.414 131.522 862.474 131.508C862.549 131.485 862.654 131.446 862.729 131.39C862.78 131.37 862.83 131.348 862.882 131.326L863.017 131.27C863.072 131.245 863.189 131.204 863.313 131.161C863.47 131.107 863.632 131.05 863.726 131.006C863.755 130.991 863.793 130.976 863.836 130.959C863.966 130.907 864.132 130.841 864.216 130.725C864.247 130.682 864.267 130.633 864.27 130.576C864.278 130.383 864.099 130.261 863.968 130.172C863.947 130.158 863.927 130.144 863.911 130.133C863.61 129.888 863.354 129.716 863.1 129.59C863.032 129.563 862.962 129.54 862.892 129.516C862.826 129.494 862.76 129.472 862.696 129.446C862.623 129.396 862.328 129.225 862.155 129.197C862.074 129.199 862.003 129.187 861.928 129.175C862.038 128.964 862.1 128.745 862.161 128.532C862.183 128.454 862.205 128.375 862.231 128.294C862.316 127.966 862.366 127.663 862.425 127.305L862.432 127.24C862.454 127.019 862.493 126.65 862.2 126.551L862.2 126.551Z" fill="white"/>
<path d="M599.643 160.557L599.634 160.555C599.264 160.461 598.959 160.763 598.736 160.982C598.682 161.036 598.631 161.086 598.589 161.121C598.263 161.367 598.008 161.636 597.738 161.921C597.669 161.995 597.598 162.069 597.528 162.142C597.35 162.311 597.162 162.462 596.964 162.621C596.692 162.839 596.412 163.065 596.154 163.345C595.841 163.718 595.573 163.915 595.167 164.164C595.111 164.193 595.045 164.233 594.971 164.283C594.936 164.257 594.895 164.238 594.851 164.237C594.779 164.224 594.688 164.195 594.672 164.191C594.266 164.118 593.839 164.01 593.305 163.844C593.094 163.742 592.816 163.61 592.528 163.49C592.298 163.398 592.067 163.319 591.843 163.243C591.37 163.082 590.924 162.93 590.513 162.663C590.191 162.475 589.661 162.276 589.265 162.283C589.165 162.279 589.06 162.292 588.968 162.319L588.963 162.311C588.954 162.316 588.945 162.322 588.932 162.331C588.881 162.349 588.841 162.369 588.807 162.393L588.671 162.57L588.686 162.583C588.518 162.887 588.67 163.24 588.814 163.56C588.833 163.747 588.936 163.939 589.035 164.108C589.094 164.248 589.157 164.385 589.222 164.525C589.288 164.669 589.356 164.816 589.417 164.961C589.475 165.129 589.536 165.281 589.6 165.414C589.64 165.52 589.678 165.626 589.715 165.731C589.854 166.123 589.998 166.529 590.266 166.916C590.53 167.262 590.789 167.63 590.987 167.94C591.079 168.05 591.165 168.153 591.221 168.325C591.238 168.358 591.264 168.43 591.284 168.491C591.228 168.557 591.172 168.623 591.123 168.686C591.048 168.769 590.97 168.849 590.892 168.929C590.813 169.01 590.735 169.091 590.655 169.179C590.462 169.413 590.31 169.64 590.162 169.86C590.015 170.077 589.877 170.283 589.7 170.497C589.608 170.623 589.491 170.742 589.366 170.867C589.24 170.993 589.108 171.116 589.014 171.257L588.977 171.298C588.71 171.596 588.154 172.217 588.509 172.734C588.531 172.762 588.554 172.783 588.577 172.802C588.603 172.884 588.653 172.962 588.736 173.04C588.874 173.14 589.062 173.146 589.199 173.151L589.367 173.167C589.623 173.197 589.914 173.231 590.188 173.187C590.776 173.111 591.293 172.915 591.84 172.708C592.092 172.612 592.353 172.513 592.623 172.427C592.713 172.395 592.803 172.36 592.893 172.325C593.499 172.09 594.021 171.887 594.401 172.465C594.578 172.736 594.78 173.004 594.976 173.263C595.22 173.587 595.473 173.922 595.677 174.263C596.151 175.051 596.689 175.944 597.554 176.457C597.775 176.588 597.967 176.609 598.124 176.517C598.508 176.294 598.493 175.451 598.485 175.046L598.482 174.98C598.452 174.788 598.428 174.507 598.43 174.423L598.437 174.372C598.435 174.277 598.432 174.17 598.428 174.062C598.424 173.96 598.421 173.858 598.418 173.751C598.37 173.451 598.323 172.835 598.323 172.835C598.32 172.656 598.33 172.469 598.34 172.289C598.349 172.103 598.36 171.911 598.356 171.723C598.355 171.627 598.355 171.543 598.356 171.46L598.356 171.414C598.542 171.374 598.729 171.335 598.916 171.299C599.2 171.303 599.521 171.198 599.7 171.138L599.858 171.106C599.976 171.083 600.095 171.059 600.222 171.03C600.382 170.98 600.602 170.898 600.761 170.781C600.868 170.737 600.975 170.692 601.085 170.646L601.369 170.527C601.487 170.474 601.734 170.388 601.995 170.297C602.327 170.181 602.67 170.062 602.868 169.969C602.928 169.938 603.01 169.905 603.101 169.869C603.376 169.76 603.725 169.621 603.903 169.375C603.968 169.285 604.01 169.181 604.018 169.059C604.033 168.652 603.655 168.395 603.379 168.207C603.335 168.177 603.292 168.148 603.259 168.125C602.623 167.607 602.081 167.244 601.545 166.978C601.402 166.921 601.254 166.871 601.105 166.821C600.966 166.774 600.827 166.727 600.692 166.674C600.538 166.568 599.914 166.206 599.548 166.147C599.378 166.15 599.228 166.126 599.07 166.1C599.302 165.654 599.433 165.191 599.56 164.743C599.608 164.576 599.654 164.41 599.708 164.239C599.889 163.547 599.995 162.906 600.119 162.151L600.133 162.013C600.181 161.546 600.262 160.766 599.643 160.557L599.643 160.557Z" fill="white"/>
<g filter="url(#filter10_f_1790_2583)">
<circle cx="1090.91" cy="120.727" r="9.73242" transform="rotate(0.393949 1090.91 120.727)" fill="white" fill-opacity="0.5"/>
</g>
<g filter="url(#filter11_f_1790_2583)">
<circle cx="1293.69" cy="115.356" r="5.83718" transform="rotate(0.393949 1293.69 115.356)" fill="white" fill-opacity="0.5"/>
</g>
<g filter="url(#filter12_f_1790_2583)">
<circle cx="1512.07" cy="184.929" r="5.83718" transform="rotate(0.393949 1512.07 184.929)" fill="white" fill-opacity="0.5"/>
</g>
<g filter="url(#filter13_f_1790_2583)">
<circle cx="1645.06" cy="216.092" r="4.24522" transform="rotate(0.393949 1645.06 216.092)" fill="white" fill-opacity="0.5"/>
</g>
<g filter="url(#filter14_f_1790_2583)">
<circle cx="1645.86" cy="100.408" r="4.24522" transform="rotate(0.393949 1645.86 100.408)" fill="white" fill-opacity="0.5"/>
</g>
<g filter="url(#filter15_f_1790_2583)">
<circle cx="1806.83" cy="152.462" r="4.24522" transform="rotate(0.393949 1806.83 152.462)" fill="white" fill-opacity="0.5"/>
</g>
<path d="M1296.93 123.077L1296.94 123.072C1297.21 122.856 1297.16 122.467 1297.13 122.183C1297.12 122.114 1297.11 122.049 1297.11 121.999C1297.11 121.626 1297.06 121.291 1297 120.937C1296.99 120.846 1296.97 120.753 1296.96 120.662C1296.94 120.438 1296.93 120.219 1296.93 119.986C1296.92 119.668 1296.91 119.339 1296.85 118.996C1296.76 118.561 1296.76 118.258 1296.81 117.825C1296.82 117.768 1296.83 117.698 1296.83 117.616C1296.87 117.605 1296.91 117.587 1296.93 117.555C1296.98 117.51 1297.05 117.46 1297.06 117.451C1297.34 117.197 1297.66 116.948 1298.08 116.653C1298.27 116.557 1298.52 116.429 1298.77 116.287C1298.96 116.172 1299.15 116.048 1299.33 115.928C1299.71 115.675 1300.07 115.436 1300.49 115.287C1300.8 115.158 1301.24 114.885 1301.46 114.594C1301.52 114.524 1301.57 114.44 1301.6 114.359L1301.61 114.359C1301.61 114.35 1301.61 114.341 1301.61 114.327C1301.62 114.279 1301.63 114.239 1301.63 114.201L1301.58 114.004L1301.56 114.007C1301.44 113.716 1301.1 113.63 1300.78 113.557C1300.64 113.466 1300.44 113.434 1300.26 113.411C1300.13 113.376 1299.99 113.346 1299.86 113.314C1299.72 113.282 1299.57 113.25 1299.43 113.213C1299.28 113.161 1299.13 113.122 1299 113.094C1298.9 113.064 1298.81 113.032 1298.71 113.001C1298.35 112.883 1297.97 112.762 1297.54 112.74C1297.15 112.739 1296.73 112.722 1296.4 112.692C1296.27 112.697 1296.15 112.703 1295.99 112.647C1295.96 112.641 1295.89 112.62 1295.83 112.601C1295.82 112.523 1295.8 112.446 1295.78 112.376C1295.76 112.275 1295.75 112.174 1295.74 112.073C1295.72 111.97 1295.71 111.868 1295.69 111.761C1295.62 111.492 1295.54 111.255 1295.47 111.025C1295.39 110.798 1295.32 110.583 1295.26 110.336C1295.22 110.199 1295.2 110.048 1295.18 109.887C1295.16 109.726 1295.14 109.562 1295.09 109.415L1295.08 109.365C1295.02 109.006 1294.88 108.257 1294.3 108.227C1294.27 108.228 1294.24 108.232 1294.22 108.238C1294.14 108.211 1294.06 108.204 1293.96 108.221C1293.81 108.265 1293.7 108.398 1293.62 108.495L1293.51 108.608C1293.35 108.777 1293.16 108.968 1293.04 109.191C1292.77 109.66 1292.62 110.144 1292.47 110.655C1292.4 110.891 1292.32 111.135 1292.24 111.38C1292.21 111.462 1292.18 111.547 1292.16 111.632C1291.99 112.201 1291.85 112.693 1291.22 112.646C1290.92 112.624 1290.62 112.622 1290.32 112.619C1289.95 112.616 1289.57 112.612 1289.2 112.571C1288.37 112.476 1287.42 112.368 1286.57 112.709C1286.35 112.796 1286.23 112.924 1286.21 113.089C1286.16 113.492 1286.78 113.95 1287.07 114.17L1287.12 114.205C1287.28 114.289 1287.5 114.428 1287.56 114.477L1287.59 114.51C1287.66 114.562 1287.74 114.619 1287.82 114.676C1287.89 114.731 1287.97 114.785 1288.05 114.842C1288.29 114.975 1288.77 115.284 1288.77 115.284C1288.9 115.381 1289.03 115.493 1289.15 115.6C1289.28 115.71 1289.42 115.824 1289.55 115.927C1289.62 115.979 1289.68 116.026 1289.75 116.073L1289.78 116.099C1289.7 116.256 1289.63 116.413 1289.55 116.569C1289.39 116.772 1289.29 117.063 1289.23 117.227L1289.16 117.359C1289.12 117.458 1289.07 117.557 1289.02 117.666C1288.96 117.809 1288.9 118.015 1288.9 118.195C1288.87 118.297 1288.84 118.399 1288.81 118.505L1288.74 118.777C1288.72 118.891 1288.64 119.118 1288.56 119.359C1288.46 119.663 1288.36 119.979 1288.31 120.174C1288.3 120.235 1288.28 120.312 1288.26 120.398C1288.18 120.658 1288.09 120.989 1288.17 121.255C1288.2 121.352 1288.25 121.44 1288.33 121.513C1288.62 121.752 1289.02 121.621 1289.31 121.525C1289.35 121.51 1289.4 121.495 1289.43 121.484C1290.16 121.311 1290.73 121.121 1291.22 120.881C1291.34 120.809 1291.46 120.729 1291.58 120.649C1291.69 120.574 1291.8 120.499 1291.91 120.432C1292.08 120.379 1292.69 120.128 1292.93 119.895C1293.02 119.771 1293.13 119.675 1293.23 119.575C1293.43 119.992 1293.69 120.345 1293.94 120.687C1294.04 120.813 1294.13 120.94 1294.23 121.074C1294.63 121.591 1295.03 122.025 1295.51 122.535L1295.6 122.622C1295.91 122.916 1296.43 123.41 1296.93 123.077L1296.93 123.077Z" fill="white"/>
<path d="M1651.84 219.365L1651.85 219.356C1651.92 218.987 1651.6 218.706 1651.37 218.501C1651.32 218.451 1651.27 218.404 1651.23 218.365C1650.97 218.06 1650.69 217.826 1650.4 217.578C1650.32 217.515 1650.24 217.45 1650.17 217.385C1649.99 217.22 1649.83 217.045 1649.66 216.861C1649.43 216.607 1649.2 216.346 1648.91 216.11C1648.52 215.824 1648.31 215.574 1648.05 215.191C1648.01 215.137 1647.97 215.075 1647.92 215.005C1647.94 214.969 1647.96 214.929 1647.96 214.885C1647.97 214.813 1647.99 214.723 1647.99 214.707C1648.04 214.305 1648.12 213.88 1648.25 213.347C1648.34 213.135 1648.45 212.854 1648.55 212.564C1648.63 212.334 1648.69 212.102 1648.75 211.878C1648.88 211.406 1649.01 210.96 1649.24 210.541C1649.41 210.215 1649.57 209.684 1649.54 209.296C1649.54 209.198 1649.52 209.096 1649.49 209.008L1649.5 209.001C1649.49 208.993 1649.49 208.985 1649.48 208.973C1649.46 208.924 1649.43 208.886 1649.41 208.854L1649.23 208.731L1649.22 208.746C1648.91 208.599 1648.57 208.77 1648.27 208.929C1648.08 208.959 1647.9 209.071 1647.74 209.178C1647.61 209.244 1647.48 209.314 1647.34 209.385C1647.21 209.459 1647.07 209.534 1646.93 209.602C1646.77 209.669 1646.62 209.738 1646.49 209.809C1646.39 209.854 1646.29 209.897 1646.19 209.94C1645.81 210.099 1645.43 210.265 1645.06 210.549C1644.74 210.829 1644.39 211.104 1644.1 211.316C1644 211.412 1643.9 211.504 1643.74 211.568C1643.71 211.587 1643.64 211.616 1643.58 211.64C1643.51 211.588 1643.44 211.538 1643.38 211.493C1643.29 211.425 1643.21 211.353 1643.13 211.281C1643.04 211.209 1642.96 211.137 1642.87 211.063C1642.63 210.888 1642.4 210.752 1642.17 210.62C1641.95 210.49 1641.74 210.366 1641.52 210.205C1641.39 210.123 1641.27 210.014 1641.14 209.899C1641.01 209.783 1640.88 209.662 1640.73 209.577L1640.69 209.544C1640.38 209.3 1639.74 208.792 1639.26 209.17C1639.23 209.193 1639.21 209.217 1639.19 209.24C1639.12 209.27 1639.04 209.325 1638.97 209.41C1638.88 209.551 1638.89 209.736 1638.89 209.87L1638.88 210.036C1638.87 210.289 1638.85 210.575 1638.91 210.841C1639.02 211.414 1639.24 211.908 1639.48 212.432C1639.59 212.674 1639.7 212.923 1639.8 213.183C1639.84 213.269 1639.88 213.356 1639.92 213.442C1640.18 214.021 1640.41 214.522 1639.87 214.927C1639.61 215.117 1639.36 215.331 1639.12 215.538C1638.82 215.796 1638.5 216.064 1638.18 216.284C1637.44 216.795 1636.59 217.374 1636.14 218.252C1636.02 218.476 1636.02 218.666 1636.12 218.814C1636.36 219.178 1637.18 219.113 1637.58 219.081L1637.64 219.075C1637.83 219.034 1638.1 218.994 1638.19 218.991L1638.24 218.995C1638.33 218.988 1638.43 218.978 1638.54 218.968C1638.64 218.958 1638.74 218.949 1638.84 218.94C1639.13 218.875 1639.74 218.793 1639.74 218.793C1639.91 218.78 1640.09 218.778 1640.27 218.777C1640.45 218.776 1640.64 218.774 1640.83 218.76C1640.92 218.753 1641 218.749 1641.08 218.744L1641.13 218.741C1641.18 218.922 1641.23 219.103 1641.28 219.284C1641.29 219.562 1641.41 219.87 1641.48 220.042L1641.52 220.195C1641.55 220.31 1641.58 220.425 1641.62 220.548C1641.67 220.701 1641.77 220.913 1641.89 221.062C1641.94 221.164 1641.99 221.266 1642.04 221.371L1642.18 221.642C1642.23 221.754 1642.33 221.991 1642.44 222.242C1642.57 222.56 1642.71 222.89 1642.81 223.078C1642.85 223.136 1642.88 223.214 1642.92 223.3C1643.05 223.563 1643.2 223.897 1643.45 224.058C1643.55 224.116 1643.65 224.151 1643.77 224.151C1644.17 224.143 1644.4 223.757 1644.57 223.475C1644.59 223.43 1644.62 223.387 1644.64 223.353C1645.11 222.699 1645.43 222.147 1645.66 221.606C1645.71 221.463 1645.75 221.314 1645.79 221.166C1645.83 221.026 1645.87 220.887 1645.91 220.752C1646.01 220.596 1646.33 219.962 1646.36 219.6C1646.35 219.434 1646.36 219.285 1646.38 219.129C1646.83 219.33 1647.29 219.431 1647.74 219.53C1647.9 219.566 1648.07 219.602 1648.24 219.645C1648.93 219.782 1649.56 219.848 1650.31 219.925L1650.45 219.93C1650.91 219.95 1651.68 219.984 1651.84 219.365L1651.84 219.365Z" fill="white"/>
<path d="M1090.34 102.074L1090.32 102.08C1089.66 102.335 1089.52 103.119 1089.41 103.692C1089.39 103.831 1089.37 103.962 1089.34 104.06C1089.11 104.783 1089.01 105.465 1088.9 106.188C1088.88 106.373 1088.85 106.562 1088.82 106.748C1088.73 107.196 1088.61 107.626 1088.48 108.08C1088.3 108.703 1088.11 109.346 1088.02 110.048C1087.95 110.951 1087.75 111.537 1087.4 112.35C1087.35 112.455 1087.29 112.586 1087.23 112.741C1087.15 112.739 1087.07 112.753 1087 112.8C1086.87 112.857 1086.7 112.91 1086.68 112.921C1085.98 113.246 1085.22 113.538 1084.23 113.859C1083.8 113.929 1083.23 114.027 1082.67 114.154C1082.22 114.26 1081.78 114.388 1081.36 114.512C1080.47 114.774 1079.63 115.021 1078.72 115.056C1078.03 115.116 1077.01 115.381 1076.41 115.816C1076.26 115.917 1076.11 116.049 1076 116.188L1075.99 116.182C1075.98 116.2 1075.97 116.216 1075.96 116.244C1075.9 116.327 1075.86 116.4 1075.84 116.473L1075.82 116.887L1075.86 116.892C1075.93 117.534 1076.54 117.906 1077.1 118.238C1077.33 118.502 1077.69 118.684 1078.02 118.835C1078.26 118.984 1078.5 119.125 1078.75 119.268C1079.01 119.416 1079.27 119.567 1079.52 119.721C1079.78 119.915 1080.04 120.08 1080.28 120.214C1080.45 120.332 1080.62 120.453 1080.79 120.572C1081.43 121.019 1082.08 121.481 1082.9 121.782C1083.67 122.025 1084.46 122.307 1085.09 122.567C1085.35 122.635 1085.59 122.699 1085.86 122.901C1085.92 122.933 1086.04 123.014 1086.14 123.085C1086.12 123.247 1086.11 123.406 1086.1 123.554C1086.07 123.76 1086.04 123.966 1086.01 124.171C1085.98 124.379 1085.94 124.586 1085.92 124.806C1085.87 125.367 1085.88 125.876 1085.9 126.368C1085.91 126.855 1085.92 127.316 1085.88 127.83C1085.87 128.121 1085.82 128.427 1085.76 128.751C1085.71 129.078 1085.64 129.406 1085.65 129.721L1085.64 129.823C1085.55 130.561 1085.37 132.101 1086.46 132.506C1086.53 132.524 1086.59 132.532 1086.64 132.537C1086.77 132.634 1086.93 132.698 1087.14 132.728C1087.45 132.732 1087.75 132.54 1087.96 132.4L1088.23 132.244C1088.65 132.016 1089.13 131.756 1089.5 131.396C1090.31 130.65 1090.89 129.799 1091.5 128.898C1091.78 128.482 1092.07 128.053 1092.39 127.632C1092.49 127.487 1092.59 127.338 1092.69 127.187C1093.36 126.182 1093.93 125.314 1095.13 125.786C1095.69 126.007 1096.28 126.197 1096.86 126.382C1097.58 126.612 1098.32 126.851 1098.99 127.149C1100.56 127.839 1102.33 128.62 1104.2 128.473C1104.67 128.435 1104.99 128.261 1105.13 127.954C1105.47 127.203 1104.55 125.938 1104.1 125.331L1104.02 125.233C1103.77 124.974 1103.44 124.574 1103.35 124.443L1103.3 124.358C1103.2 124.216 1103.08 124.056 1102.96 123.897C1102.84 123.745 1102.73 123.594 1102.61 123.435C1102.22 123.031 1101.48 122.144 1101.48 122.145C1101.29 121.875 1101.1 121.581 1100.92 121.297C1100.74 121.004 1100.55 120.702 1100.34 120.419C1100.24 120.276 1100.15 120.148 1100.06 120.02L1100.01 119.95C1100.25 119.69 1100.5 119.431 1100.74 119.174C1101.18 118.878 1101.55 118.374 1101.76 118.09L1101.96 117.873C1102.12 117.711 1102.28 117.547 1102.44 117.367C1102.63 117.121 1102.87 116.759 1102.99 116.411C1103.11 116.23 1103.22 116.047 1103.34 115.859L1103.64 115.374C1103.76 115.168 1104.05 114.772 1104.35 114.353C1104.73 113.823 1105.12 113.273 1105.32 112.92C1105.38 112.808 1105.47 112.672 1105.57 112.519C1105.87 112.058 1106.25 111.473 1106.26 110.908C1106.26 110.702 1106.21 110.499 1106.09 110.306C1105.68 109.67 1104.83 109.685 1104.21 109.696C1104.11 109.698 1104.01 109.7 1103.94 109.699C1102.42 109.594 1101.21 109.623 1100.11 109.792C1099.83 109.858 1099.55 109.942 1099.27 110.025C1099.01 110.103 1098.74 110.181 1098.48 110.244C1098.14 110.248 1096.8 110.367 1096.18 110.67C1095.93 110.857 1095.67 110.98 1095.4 111.11C1095.28 110.184 1094.98 109.34 1094.69 108.522C1094.59 108.219 1094.48 107.917 1094.38 107.599C1093.91 106.353 1093.39 105.266 1092.77 103.985L1092.64 103.76C1092.21 103 1091.5 101.727 1090.34 102.074L1090.34 102.074Z" fill="#FFDFA0"/>
<path d="M1643.58 104.471L1643.58 104.472C1643.84 104.499 1644.02 104.269 1644.14 104.101C1644.18 104.06 1644.2 104.022 1644.23 103.995C1644.42 103.799 1644.57 103.596 1644.72 103.38C1644.76 103.324 1644.8 103.268 1644.84 103.213C1644.95 103.083 1645.06 102.964 1645.17 102.839C1645.33 102.667 1645.5 102.49 1645.65 102.279C1645.82 102 1645.98 101.843 1646.23 101.638C1646.26 101.613 1646.3 101.58 1646.35 101.54C1646.37 101.554 1646.4 101.563 1646.43 101.559C1646.48 101.562 1646.55 101.572 1646.56 101.574C1646.84 101.584 1647.13 101.616 1647.5 101.676C1647.65 101.725 1647.85 101.787 1648.06 101.839C1648.22 101.879 1648.38 101.91 1648.54 101.94C1648.87 102.003 1649.18 102.062 1649.48 102.202C1649.71 102.297 1650.09 102.38 1650.35 102.338C1650.42 102.331 1650.49 102.313 1650.55 102.286L1650.55 102.291C1650.56 102.287 1650.56 102.282 1650.57 102.275C1650.6 102.258 1650.63 102.241 1650.65 102.222L1650.72 102.091L1650.71 102.083C1650.79 101.864 1650.66 101.643 1650.53 101.443C1650.5 101.319 1650.41 101.2 1650.33 101.097C1650.28 101.009 1650.22 100.923 1650.17 100.836C1650.11 100.746 1650.05 100.654 1650 100.563C1649.94 100.456 1649.89 100.361 1649.83 100.277C1649.79 100.21 1649.76 100.143 1649.72 100.077C1649.59 99.8276 1649.46 99.5701 1649.24 99.3368C1649.04 99.1304 1648.83 98.9089 1648.67 98.7201C1648.59 98.6556 1648.53 98.5948 1648.47 98.4851C1648.46 98.4646 1648.43 98.4192 1648.42 98.38C1648.45 98.3305 1648.48 98.2811 1648.5 98.2347C1648.55 98.1723 1648.59 98.1113 1648.64 98.0503C1648.68 97.9887 1648.73 97.9271 1648.77 97.8607C1648.88 97.6864 1648.96 97.5203 1649.04 97.3594C1649.11 97.2002 1649.19 97.0496 1649.28 96.8902C1649.33 96.7971 1649.4 96.7068 1649.47 96.6114C1649.55 96.5149 1649.62 96.4205 1649.67 96.3175L1649.69 96.2865C1649.84 96.0621 1650.16 95.5948 1649.87 95.2828C1649.85 95.2664 1649.83 95.2542 1649.82 95.2438C1649.79 95.1912 1649.75 95.144 1649.69 95.0995C1649.59 95.0458 1649.46 95.0595 1649.37 95.0694L1649.25 95.0744C1649.08 95.0784 1648.88 95.0832 1648.7 95.1384C1648.32 95.2446 1647.99 95.4244 1647.65 95.6146C1647.49 95.7021 1647.32 95.7929 1647.15 95.8762C1647.09 95.9058 1647.04 95.9378 1646.98 95.9698C1646.6 96.1837 1646.27 96.3687 1645.96 96.0183C1645.81 95.8541 1645.65 95.6942 1645.5 95.5395C1645.3 95.346 1645.1 95.1458 1644.93 94.9377C1644.54 94.4557 1644.1 93.9095 1643.47 93.6481C1643.31 93.5815 1643.18 93.586 1643.09 93.6619C1642.85 93.8472 1642.94 94.4093 1642.98 94.6792L1642.99 94.7233C1643.03 94.8486 1643.07 95.0337 1643.08 95.0905L1643.08 95.1252C1643.09 95.1882 1643.1 95.2598 1643.12 95.3313C1643.13 95.3994 1643.14 95.4671 1643.15 95.5383C1643.21 95.7341 1643.3 96.1417 1643.3 96.1414C1643.32 96.261 1643.33 96.3867 1643.34 96.5081C1643.35 96.6331 1643.36 96.7621 1643.38 96.8877C1643.39 96.9514 1643.4 97.0076 1643.41 97.0636L1643.41 97.0944C1643.29 97.1384 1643.17 97.1821 1643.05 97.2242C1642.86 97.2478 1642.66 97.3487 1642.54 97.4058L1642.44 97.4418C1642.36 97.4686 1642.28 97.4955 1642.2 97.5272C1642.1 97.5753 1641.96 97.6514 1641.87 97.7443C1641.8 97.7835 1641.73 97.8239 1641.66 97.8651L1641.48 97.9713C1641.41 98.0178 1641.25 98.0986 1641.09 98.1843C1640.88 98.2927 1640.66 98.405 1640.53 98.4856C1640.5 98.5123 1640.45 98.5416 1640.39 98.5743C1640.21 98.6736 1639.99 98.7993 1639.9 98.9806C1639.86 99.0466 1639.85 99.12 1639.85 99.202C1639.88 99.4759 1640.16 99.6119 1640.36 99.7111C1640.39 99.7272 1640.42 99.7424 1640.45 99.755C1640.92 100.041 1641.32 100.232 1641.7 100.36C1641.8 100.385 1641.91 100.404 1642.01 100.423C1642.11 100.441 1642.2 100.46 1642.3 100.483C1642.41 100.539 1642.86 100.722 1643.11 100.726C1643.23 100.708 1643.33 100.71 1643.44 100.713C1643.32 101.033 1643.28 101.354 1643.24 101.666C1643.22 101.782 1643.21 101.897 1643.19 102.017C1643.13 102.496 1643.12 102.935 1643.11 103.451L1643.11 103.545C1643.13 103.861 1643.14 104.39 1643.58 104.471L1643.58 104.471Z" fill="white"/>
<g filter="url(#filter16_f_1790_2583)">
<circle cx="1201.01" cy="193.85" r="4.24522" transform="rotate(0.393949 1201.01 193.85)" fill="white" fill-opacity="0.5"/>
</g>
<path d="M1204.81 186.821L1204.8 186.819C1204.52 186.74 1204.29 186.962 1204.11 187.124C1204.07 187.164 1204.03 187.201 1204 187.227C1203.74 187.407 1203.54 187.606 1203.33 187.817C1203.28 187.871 1203.22 187.926 1203.17 187.979C1203.03 188.104 1202.88 188.215 1202.73 188.332C1202.52 188.492 1202.3 188.657 1202.1 188.865C1201.85 189.142 1201.65 189.286 1201.33 189.466C1201.29 189.487 1201.24 189.516 1201.18 189.552C1201.15 189.532 1201.12 189.516 1201.09 189.515C1201.03 189.503 1200.97 189.479 1200.95 189.476C1200.65 189.412 1200.33 189.32 1199.92 189.183C1199.77 189.101 1199.56 188.995 1199.34 188.897C1199.17 188.822 1198.99 188.758 1198.82 188.695C1198.47 188.563 1198.13 188.438 1197.83 188.226C1197.59 188.076 1197.19 187.914 1196.89 187.91C1196.81 187.905 1196.73 187.913 1196.66 187.932L1196.66 187.925C1196.65 187.929 1196.64 187.933 1196.63 187.94C1196.59 187.952 1196.56 187.967 1196.54 187.984L1196.43 188.116L1196.44 188.126C1196.31 188.354 1196.41 188.625 1196.52 188.871C1196.53 189.014 1196.6 189.162 1196.67 189.292C1196.71 189.4 1196.76 189.506 1196.81 189.613C1196.85 189.724 1196.9 189.837 1196.94 189.948C1196.99 190.078 1197.03 190.194 1197.07 190.297C1197.1 190.378 1197.13 190.459 1197.15 190.54C1197.25 190.841 1197.35 191.152 1197.55 191.452C1197.74 191.721 1197.93 192.006 1198.07 192.246C1198.14 192.331 1198.21 192.411 1198.24 192.543C1198.26 192.569 1198.27 192.624 1198.29 192.671C1198.24 192.72 1198.2 192.769 1198.16 192.816C1198.1 192.877 1198.04 192.936 1197.98 192.995C1197.92 193.055 1197.86 193.115 1197.8 193.181C1197.64 193.354 1197.52 193.523 1197.41 193.687C1197.29 193.849 1197.18 194.003 1197.04 194.161C1196.97 194.255 1196.88 194.343 1196.78 194.435C1196.68 194.529 1196.58 194.619 1196.5 194.724L1196.48 194.755C1196.27 194.975 1195.83 195.435 1196.09 195.836C1196.11 195.857 1196.12 195.874 1196.14 195.889C1196.16 195.952 1196.19 196.012 1196.25 196.073C1196.36 196.152 1196.5 196.161 1196.6 196.167L1196.73 196.183C1196.93 196.212 1197.15 196.243 1197.35 196.216C1197.8 196.171 1198.2 196.033 1198.62 195.887C1198.81 195.82 1199.01 195.75 1199.22 195.69C1199.29 195.668 1199.36 195.643 1199.43 195.619C1199.89 195.453 1200.3 195.31 1200.57 195.757C1200.7 195.967 1200.85 196.175 1200.99 196.376C1201.17 196.627 1201.36 196.887 1201.5 197.15C1201.85 197.76 1202.24 198.45 1202.88 198.858C1203.05 198.962 1203.19 198.982 1203.31 198.916C1203.61 198.755 1203.62 198.114 1203.62 197.806L1203.62 197.755C1203.6 197.609 1203.59 197.395 1203.59 197.331L1203.6 197.292C1203.6 197.22 1203.6 197.139 1203.6 197.057C1203.6 196.979 1203.6 196.901 1203.6 196.82C1203.57 196.591 1203.54 196.122 1203.54 196.122C1203.55 195.986 1203.56 195.844 1203.57 195.707C1203.58 195.566 1203.59 195.421 1203.59 195.278C1203.59 195.205 1203.6 195.141 1203.6 195.078L1203.6 195.043C1203.74 195.017 1203.88 194.991 1204.03 194.967C1204.24 194.977 1204.49 194.903 1204.63 194.862L1204.75 194.841C1204.84 194.826 1204.93 194.81 1205.03 194.791C1205.15 194.757 1205.32 194.698 1205.44 194.613C1205.52 194.582 1205.61 194.55 1205.69 194.518L1205.91 194.433C1206 194.396 1206.19 194.336 1206.39 194.272C1206.64 194.191 1206.91 194.108 1207.06 194.041C1207.11 194.019 1207.17 193.996 1207.24 193.97C1207.45 193.893 1207.72 193.795 1207.86 193.612C1207.91 193.545 1207.94 193.467 1207.95 193.375C1207.97 193.065 1207.69 192.862 1207.49 192.714C1207.45 192.69 1207.42 192.667 1207.4 192.648C1206.92 192.241 1206.52 191.954 1206.12 191.74C1206.01 191.694 1205.9 191.652 1205.79 191.611C1205.68 191.573 1205.58 191.534 1205.48 191.491C1205.36 191.407 1204.89 191.119 1204.62 191.066C1204.49 191.065 1204.38 191.043 1204.26 191.02C1204.44 190.686 1204.55 190.337 1204.66 189.999C1204.7 189.874 1204.74 189.749 1204.78 189.62C1204.93 189.098 1205.03 188.613 1205.14 188.042L1205.15 187.937C1205.2 187.583 1205.28 186.992 1204.81 186.821L1204.81 186.821Z" fill="white"/>
<path d="M1807.38 147.129L1807.37 147.128C1807.18 147.074 1807.02 147.226 1806.9 147.338C1806.87 147.365 1806.84 147.39 1806.82 147.408C1806.65 147.532 1806.51 147.668 1806.36 147.813C1806.33 147.85 1806.29 147.888 1806.25 147.925C1806.16 148.011 1806.06 148.087 1805.95 148.167C1805.8 148.277 1805.66 148.39 1805.52 148.533C1805.35 148.723 1805.21 148.822 1804.99 148.946C1804.96 148.96 1804.92 148.98 1804.89 149.005C1804.87 148.991 1804.85 148.98 1804.82 148.979C1804.79 148.971 1804.74 148.955 1804.73 148.952C1804.52 148.909 1804.3 148.846 1804.02 148.751C1803.91 148.695 1803.77 148.622 1803.62 148.555C1803.5 148.504 1803.38 148.459 1803.27 148.416C1803.02 148.325 1802.79 148.24 1802.58 148.094C1802.42 147.992 1802.14 147.88 1801.94 147.878C1801.89 147.874 1801.83 147.879 1801.78 147.892L1801.78 147.888C1801.77 147.89 1801.77 147.893 1801.76 147.898C1801.74 147.906 1801.71 147.916 1801.7 147.928L1801.62 148.019L1801.63 148.026C1801.54 148.182 1801.61 148.368 1801.68 148.537C1801.69 148.635 1801.74 148.737 1801.79 148.826C1801.82 148.9 1801.85 148.973 1801.88 149.047C1801.91 149.123 1801.95 149.201 1801.98 149.277C1802.01 149.366 1802.04 149.446 1802.07 149.516C1802.09 149.572 1802.1 149.628 1802.12 149.683C1802.19 149.89 1802.26 150.104 1802.39 150.31C1802.52 150.494 1802.65 150.69 1802.75 150.855C1802.8 150.913 1802.84 150.968 1802.87 151.059C1802.88 151.077 1802.89 151.114 1802.9 151.147C1802.87 151.18 1802.84 151.214 1802.81 151.246C1802.77 151.288 1802.73 151.329 1802.69 151.369C1802.65 151.411 1802.6 151.452 1802.56 151.497C1802.46 151.616 1802.37 151.732 1802.29 151.844C1802.21 151.956 1802.14 152.061 1802.04 152.17C1801.99 152.235 1801.93 152.295 1801.86 152.358C1801.8 152.422 1801.73 152.484 1801.67 152.556L1801.65 152.577C1801.51 152.729 1801.21 153.045 1801.39 153.32C1801.4 153.335 1801.41 153.346 1801.42 153.356C1801.44 153.4 1801.46 153.441 1801.5 153.483C1801.57 153.537 1801.67 153.543 1801.74 153.547L1801.83 153.558C1801.96 153.578 1802.12 153.6 1802.26 153.581C1802.57 153.55 1802.84 153.455 1803.13 153.355C1803.26 153.309 1803.4 153.261 1803.54 153.22C1803.59 153.205 1803.64 153.188 1803.68 153.171C1804 153.057 1804.28 152.959 1804.47 153.266C1804.56 153.41 1804.66 153.553 1804.76 153.691C1804.88 153.863 1805.01 154.042 1805.11 154.223C1805.34 154.641 1805.61 155.115 1806.05 155.395C1806.17 155.467 1806.27 155.48 1806.35 155.435C1806.56 155.324 1806.56 154.884 1806.56 154.672L1806.56 154.638C1806.55 154.537 1806.54 154.391 1806.54 154.346L1806.55 154.32C1806.55 154.271 1806.55 154.214 1806.55 154.158C1806.55 154.105 1806.55 154.052 1806.55 153.996C1806.52 153.839 1806.51 153.516 1806.51 153.516C1806.51 153.423 1806.52 153.326 1806.53 153.232C1806.53 153.135 1806.54 153.035 1806.54 152.937C1806.54 152.887 1806.54 152.843 1806.55 152.799L1806.55 152.775C1806.65 152.757 1806.74 152.74 1806.84 152.723C1806.99 152.73 1807.16 152.68 1807.25 152.651L1807.34 152.637C1807.4 152.626 1807.46 152.616 1807.53 152.602C1807.61 152.579 1807.73 152.539 1807.81 152.48C1807.87 152.459 1807.92 152.437 1807.98 152.415L1808.13 152.357C1808.19 152.331 1808.32 152.29 1808.46 152.246C1808.64 152.19 1808.82 152.133 1808.92 152.088C1808.95 152.072 1809 152.056 1809.05 152.039C1809.19 151.986 1809.37 151.918 1809.47 151.793C1809.51 151.747 1809.53 151.693 1809.54 151.63C1809.55 151.417 1809.36 151.278 1809.22 151.176C1809.19 151.159 1809.17 151.144 1809.15 151.131C1808.83 150.852 1808.55 150.654 1808.28 150.507C1808.2 150.475 1808.13 150.447 1808.05 150.419C1807.98 150.393 1807.91 150.366 1807.84 150.336C1807.76 150.279 1807.44 150.081 1807.25 150.045C1807.16 150.044 1807.08 150.029 1807 150.013C1807.13 149.784 1807.2 149.544 1807.27 149.312C1807.3 149.226 1807.33 149.14 1807.36 149.051C1807.46 148.693 1807.53 148.36 1807.6 147.968L1807.61 147.896C1807.64 147.653 1807.7 147.247 1807.38 147.129L1807.38 147.129Z" fill="white"/>
<path d="M1516.87 176.483L1516.86 176.479C1516.45 176.365 1516.11 176.688 1515.86 176.923C1515.79 176.98 1515.74 177.034 1515.69 177.072C1515.32 177.333 1515.03 177.621 1514.73 177.927C1514.65 178.006 1514.57 178.086 1514.49 178.164C1514.29 178.345 1514.08 178.505 1513.85 178.675C1513.55 178.907 1513.23 179.147 1512.94 179.448C1512.58 179.85 1512.28 180.058 1511.82 180.32C1511.76 180.35 1511.69 180.393 1511.6 180.445C1511.57 180.415 1511.52 180.393 1511.47 180.391C1511.39 180.374 1511.29 180.339 1511.28 180.334C1510.83 180.242 1510.36 180.109 1509.78 179.909C1509.55 179.79 1509.25 179.636 1508.93 179.495C1508.68 179.387 1508.43 179.292 1508.19 179.201C1507.67 179.01 1507.18 178.828 1506.74 178.521C1506.39 178.304 1505.81 178.069 1505.37 178.063C1505.27 178.056 1505.15 178.067 1505.05 178.094L1505.04 178.085C1505.03 178.091 1505.02 178.096 1505.01 178.106C1504.95 178.124 1504.91 178.145 1504.87 178.171L1504.71 178.361L1504.73 178.376C1504.53 178.707 1504.69 179.1 1504.84 179.457C1504.85 179.664 1504.96 179.879 1505.06 180.068C1505.13 180.224 1505.19 180.378 1505.26 180.534C1505.33 180.695 1505.4 180.859 1505.46 181.02C1505.52 181.208 1505.58 181.377 1505.65 181.526C1505.69 181.644 1505.73 181.761 1505.76 181.878C1505.91 182.315 1506.05 182.767 1506.34 183.201C1506.62 183.591 1506.89 184.005 1507.1 184.353C1507.2 184.477 1507.29 184.593 1507.34 184.785C1507.36 184.822 1507.39 184.901 1507.41 184.97C1507.34 185.041 1507.28 185.112 1507.23 185.179C1507.14 185.268 1507.05 185.354 1506.96 185.441C1506.87 185.527 1506.78 185.614 1506.69 185.709C1506.47 185.961 1506.3 186.206 1506.13 186.444C1505.96 186.679 1505.8 186.902 1505.6 187.132C1505.5 187.268 1505.36 187.395 1505.22 187.529C1505.08 187.665 1504.93 187.796 1504.82 187.948L1504.78 187.993C1504.48 188.313 1503.84 188.98 1504.22 189.561C1504.24 189.592 1504.27 189.617 1504.29 189.638C1504.32 189.729 1504.37 189.817 1504.46 189.906C1504.61 190.02 1504.82 190.033 1504.97 190.042L1505.15 190.065C1505.43 190.106 1505.75 190.152 1506.05 190.112C1506.71 190.047 1507.28 189.847 1507.89 189.635C1508.17 189.538 1508.46 189.437 1508.76 189.35C1508.86 189.318 1508.96 189.282 1509.06 189.246C1509.74 189.006 1510.32 188.799 1510.72 189.447C1510.91 189.751 1511.12 190.053 1511.33 190.345C1511.59 190.709 1511.86 191.087 1512.07 191.468C1512.57 192.352 1513.14 193.353 1514.07 193.946C1514.31 194.097 1514.52 194.125 1514.7 194.029C1515.13 193.795 1515.14 192.865 1515.14 192.419L1515.14 192.346C1515.12 192.133 1515.1 191.823 1515.1 191.73L1515.11 191.674C1515.11 191.57 1515.11 191.451 1515.11 191.332C1515.11 191.219 1515.11 191.107 1515.11 190.989C1515.07 190.657 1515.03 189.976 1515.03 189.976C1515.04 189.779 1515.05 189.573 1515.07 189.375C1515.09 189.17 1515.1 188.959 1515.11 188.752C1515.11 188.646 1515.11 188.554 1515.11 188.461L1515.11 188.411C1515.32 188.373 1515.53 188.336 1515.74 188.301C1516.05 188.315 1516.41 188.208 1516.6 188.148L1516.78 188.118C1516.91 188.096 1517.04 188.073 1517.18 188.045C1517.36 187.995 1517.61 187.911 1517.79 187.787C1517.91 187.743 1518.02 187.696 1518.15 187.649L1518.46 187.527C1518.59 187.472 1518.87 187.385 1519.16 187.292C1519.53 187.175 1519.91 187.054 1520.13 186.958C1520.2 186.925 1520.29 186.892 1520.39 186.855C1520.7 186.743 1521.09 186.6 1521.29 186.335C1521.37 186.238 1521.42 186.125 1521.43 185.991C1521.46 185.542 1521.05 185.247 1520.75 185.032C1520.7 184.997 1520.66 184.964 1520.62 184.937C1519.94 184.347 1519.35 183.93 1518.77 183.619C1518.61 183.552 1518.45 183.492 1518.29 183.432C1518.14 183.377 1517.98 183.32 1517.84 183.257C1517.67 183.136 1516.99 182.718 1516.59 182.642C1516.4 182.64 1516.24 182.608 1516.07 182.575C1516.34 182.091 1516.49 181.584 1516.65 181.094C1516.71 180.912 1516.76 180.73 1516.83 180.543C1517.05 179.786 1517.18 179.083 1517.35 178.254L1517.36 178.102C1517.43 177.589 1517.55 176.731 1516.87 176.483L1516.87 176.483Z" fill="white"/>
</g>
<defs>
<filter id="filter0_f_1790_2583" x="-286.904" y="-120.239" width="2470.06" height="591.818" filterUnits="userSpaceOnUse" color-interpolation-filters="sRGB">
<feFlood flood-opacity="0" result="BackgroundImageFix"/>
<feBlend mode="normal" in="SourceGraphic" in2="BackgroundImageFix" result="shape"/>
<feGaussianBlur stdDeviation="45.85" result="effect1_foregroundBlur_1790_2583"/>
</filter>
<filter id="filter1_f_1790_2583" x="238.733" y="80.1158" width="36.7864" height="36.7859" filterUnits="userSpaceOnUse" color-interpolation-filters="sRGB">
<feFlood flood-opacity="0" result="BackgroundImageFix"/>
<feBlend mode="normal" in="SourceGraphic" in2="BackgroundImageFix" result="shape"/>
<feGaussianBlur stdDeviation="6.55" result="effect1_foregroundBlur_1790_2583"/>
</filter>
<filter id="filter2_f_1790_2583" x="577.115" y="149.944" width="36.7864" height="36.7859" filterUnits="userSpaceOnUse" color-interpolation-filters="sRGB">
<feFlood flood-opacity="0" result="BackgroundImageFix"/>
<feBlend mode="normal" in="SourceGraphic" in2="BackgroundImageFix" result="shape"/>
<feGaussianBlur stdDeviation="6.55" result="effect1_foregroundBlur_1790_2583"/>
</filter>
<filter id="filter3_f_1790_2583" x="321.992" y="194.852" width="33.8992" height="33.8987" filterUnits="userSpaceOnUse" color-interpolation-filters="sRGB">
<feFlood flood-opacity="0" result="BackgroundImageFix"/>
<feBlend mode="normal" in="SourceGraphic" in2="BackgroundImageFix" result="shape"/>
<feGaussianBlur stdDeviation="6.55" result="effect1_foregroundBlur_1790_2583"/>
</filter>
<filter id="filter4_f_1790_2583" x="699.884" y="176.242" width="33.8992" height="33.8987" filterUnits="userSpaceOnUse" color-interpolation-filters="sRGB">
<feFlood flood-opacity="0" result="BackgroundImageFix"/>
<feBlend mode="normal" in="SourceGraphic" in2="BackgroundImageFix" result="shape"/>
<feGaussianBlur stdDeviation="6.55" result="effect1_foregroundBlur_1790_2583"/>
</filter>
<filter id="filter5_f_1790_2583" x="697.659" y="71.3687" width="33.8992" height="33.8987" filterUnits="userSpaceOnUse" color-interpolation-filters="sRGB">
<feFlood flood-opacity="0" result="BackgroundImageFix"/>
<feBlend mode="normal" in="SourceGraphic" in2="BackgroundImageFix" result="shape"/>
<feGaussianBlur stdDeviation="6.55" result="effect1_foregroundBlur_1790_2583"/>
</filter>
<filter id="filter6_f_1790_2583" x="844.884" y="114.449" width="33.8992" height="33.8987" filterUnits="userSpaceOnUse" color-interpolation-filters="sRGB">
<feFlood flood-opacity="0" result="BackgroundImageFix"/>
<feBlend mode="normal" in="SourceGraphic" in2="BackgroundImageFix" result="shape"/>
<feGaussianBlur stdDeviation="6.55" result="effect1_foregroundBlur_1790_2583"/>
</filter>
<filter id="filter7_f_1790_2583" x="454.91" y="63.4277" width="60.4888" height="60.4888" filterUnits="userSpaceOnUse" color-interpolation-filters="sRGB">
<feFlood flood-opacity="0" result="BackgroundImageFix"/>
<feBlend mode="normal" in="SourceGraphic" in2="BackgroundImageFix" result="shape"/>
<feGaussianBlur stdDeviation="12.25" result="effect1_foregroundBlur_1790_2583"/>
</filter>
<filter id="filter8_f_1790_2583" x="942.39" y="161.079" width="56.7671" height="56.7671" filterUnits="userSpaceOnUse" color-interpolation-filters="sRGB">
<feFlood flood-opacity="0" result="BackgroundImageFix"/>
<feBlend mode="normal" in="SourceGraphic" in2="BackgroundImageFix" result="shape"/>
<feGaussianBlur stdDeviation="12.25" result="effect1_foregroundBlur_1790_2583"/>
</filter>
<filter id="filter9_f_1790_2583" x="147.244" y="202.673" width="34.3167" height="34.3162" filterUnits="userSpaceOnUse" color-interpolation-filters="sRGB">
<feFlood flood-opacity="0" result="BackgroundImageFix"/>
<feBlend mode="normal" in="SourceGraphic" in2="BackgroundImageFix" result="shape"/>
<feGaussianBlur stdDeviation="6.55" result="effect1_foregroundBlur_1790_2583"/>
</filter>
<filter id="filter10_f_1790_2583" x="1056.68" y="86.4951" width="68.4653" height="68.4648" filterUnits="userSpaceOnUse" color-interpolation-filters="sRGB">
<feFlood flood-opacity="0" result="BackgroundImageFix"/>
<feBlend mode="normal" in="SourceGraphic" in2="BackgroundImageFix" result="shape"/>
<feGaussianBlur stdDeviation="12.25" result="effect1_foregroundBlur_1790_2583"/>
</filter>
<filter id="filter11_f_1790_2583" x="1274.75" y="96.4186" width="37.8743" height="37.8743" filterUnits="userSpaceOnUse" color-interpolation-filters="sRGB">
<feFlood flood-opacity="0" result="BackgroundImageFix"/>
<feBlend mode="normal" in="SourceGraphic" in2="BackgroundImageFix" result="shape"/>
<feGaussianBlur stdDeviation="6.55" result="effect1_foregroundBlur_1790_2583"/>
</filter>
<filter id="filter12_f_1790_2583" x="1493.13" y="165.992" width="37.8743" height="37.8743" filterUnits="userSpaceOnUse" color-interpolation-filters="sRGB">
<feFlood flood-opacity="0" result="BackgroundImageFix"/>
<feBlend mode="normal" in="SourceGraphic" in2="BackgroundImageFix" result="shape"/>
<feGaussianBlur stdDeviation="6.55" result="effect1_foregroundBlur_1790_2583"/>
</filter>
<filter id="filter13_f_1790_2583" x="1627.72" y="198.747" width="34.6905" height="34.6902" filterUnits="userSpaceOnUse" color-interpolation-filters="sRGB">
<feFlood flood-opacity="0" result="BackgroundImageFix"/>
<feBlend mode="normal" in="SourceGraphic" in2="BackgroundImageFix" result="shape"/>
<feGaussianBlur stdDeviation="6.55" result="effect1_foregroundBlur_1790_2583"/>
</filter>
<filter id="filter14_f_1790_2583" x="1628.52" y="83.0631" width="34.6905" height="34.6902" filterUnits="userSpaceOnUse" color-interpolation-filters="sRGB">
<feFlood flood-opacity="0" result="BackgroundImageFix"/>
<feBlend mode="normal" in="SourceGraphic" in2="BackgroundImageFix" result="shape"/>
<feGaussianBlur stdDeviation="6.55" result="effect1_foregroundBlur_1790_2583"/>
</filter>
<filter id="filter15_f_1790_2583" x="1789.48" y="135.117" width="34.6905" height="34.6902" filterUnits="userSpaceOnUse" color-interpolation-filters="sRGB">
<feFlood flood-opacity="0" result="BackgroundImageFix"/>
<feBlend mode="normal" in="SourceGraphic" in2="BackgroundImageFix" result="shape"/>
<feGaussianBlur stdDeviation="6.55" result="effect1_foregroundBlur_1790_2583"/>
</filter>
<filter id="filter16_f_1790_2583" x="1183.66" y="176.505" width="34.6902" height="34.6902" filterUnits="userSpaceOnUse" color-interpolation-filters="sRGB">
<feFlood flood-opacity="0" result="BackgroundImageFix"/>
<feBlend mode="normal" in="SourceGraphic" in2="BackgroundImageFix" result="shape"/>
<feGaussianBlur stdDeviation="6.55" result="effect1_foregroundBlur_1790_2583"/>
</filter>
<linearGradient id="paint0_linear_1790_2583" x1="988.5" y1="-176.27" x2="946.353" y2="567.715" gradientUnits="userSpaceOnUse">
<stop stop-color="#46409C"/>
<stop offset="1" stop-color="#635ACE"/>
</linearGradient>
<linearGradient id="paint1_linear_1790_2583" x1="988.5" y1="-176.27" x2="946.353" y2="567.715" gradientUnits="userSpaceOnUse">
<stop stop-color="#46409C"/>
<stop offset="1" stop-color="#635ACE"/>
</linearGradient>
<linearGradient id="paint2_linear_1790_2583" x1="2147.24" y1="30.4128" x2="733.184" y2="1309.08" gradientUnits="userSpaceOnUse">
<stop stop-color="#4D46A7"/>
<stop offset="0.49" stop-color="#5574E0"/>
<stop offset="1" stop-color="#5D57C4"/>
</linearGradient>
<clipPath id="clip0_1790_2583">
<rect width="1920" height="402" fill="white"/>
</clipPath>
<clipPath id="clip1_1790_2583">
<rect width="1921" height="592" fill="white"/>
</clipPath>
</defs>
</svg>
