<svg width="464" height="312" viewBox="0 0 464 312" fill="none" xmlns="http://www.w3.org/2000/svg">
<g clip-path="url(#clip0_1790_2518)">
<path d="M1193 -89V297.561C558 297.561 203.5 327.799 -728 297.561V-89H1193Z" fill="url(#paint0_linear_1790_2518)"/>
<g clip-path="url(#clip1_1790_2518)">
<mask id="mask0_1790_2518" style="mask-type:alpha" maskUnits="userSpaceOnUse" x="-728" y="-89" width="1921" height="400">
<path d="M1193 -89V297.561C558 297.561 203.5 327.799 -728 297.561V-89H1193Z" fill="url(#paint1_linear_1790_2518)"/>
</mask>
<g mask="url(#mask0_1790_2518)">
<g filter="url(#filter0_f_1790_2518)">
<path d="M-711 155.293C-542.911 66.9419 483.528 334.454 1148.71 18.7066" stroke="url(#paint2_linear_1790_2518)" stroke-width="137"/>
</g>
</g>
</g>
<g filter="url(#filter1_f_1790_2518)">
<circle cx="-11.0202" cy="115.328" r="3.3848" transform="rotate(-1.21526 -11.0202 115.328)" fill="white" fill-opacity="0.5"/>
</g>
<g filter="url(#filter2_f_1790_2518)">
<circle cx="66.5648" cy="131.221" r="2.46167" transform="rotate(-1.21526 66.5648 131.221)" fill="white" fill-opacity="0.5"/>
</g>
<g filter="url(#filter3_f_1790_2518)">
<circle cx="65.1422" cy="64.155" r="2.46167" transform="rotate(-1.21526 65.1422 64.155)" fill="white" fill-opacity="0.5"/>
</g>
<g filter="url(#filter4_f_1790_2518)">
<circle cx="159.291" cy="91.7058" r="2.46167" transform="rotate(-1.21526 159.291 91.7058)" fill="white" fill-opacity="0.5"/>
</g>
<path d="M70.5469 133.007L70.5479 133.002C70.5824 132.787 70.3963 132.63 70.2605 132.514C70.2274 132.486 70.1965 132.46 70.1744 132.438C70.0186 132.265 69.8532 132.134 69.6781 131.995C69.6332 131.96 69.5873 131.923 69.5426 131.887C69.4378 131.794 69.3429 131.696 69.2426 131.591C69.1052 131.448 68.9634 131.301 68.7914 131.168C68.5641 131.009 68.4391 130.868 68.2777 130.65C68.2583 130.619 68.2323 130.584 68.2004 130.544C68.2134 130.523 68.2224 130.499 68.2204 130.474C68.2244 130.432 68.2362 130.38 68.2377 130.37C68.2586 130.136 68.2989 129.889 68.3661 129.578C68.4134 129.453 68.4744 129.289 68.5278 129.119C68.5686 128.984 68.6018 128.849 68.6338 128.718C68.7013 128.442 68.7652 128.182 68.896 127.935C68.9864 127.743 69.0726 127.433 69.0491 127.208C69.0463 127.152 69.0337 127.093 69.0137 127.042L69.0181 127.039C69.0146 127.034 69.0112 127.029 69.0055 127.022C68.9926 126.994 68.9792 126.972 68.9638 126.954L68.8568 126.886L68.85 126.895C68.6691 126.815 68.4768 126.919 68.3027 127.017C68.1973 127.037 68.0935 127.105 68.0029 127.169C67.9266 127.21 67.8515 127.253 67.7756 127.296C67.6971 127.341 67.6174 127.387 67.5383 127.429C67.4456 127.47 67.3628 127.512 67.2903 127.555C67.2323 127.583 67.1743 127.61 67.1165 127.636C66.901 127.735 66.6782 127.837 66.4722 128.008C66.2891 128.175 66.0934 128.34 65.9272 128.468C65.8697 128.526 65.8156 128.58 65.7208 128.62C65.7029 128.631 65.6635 128.65 65.6297 128.664C65.5894 128.635 65.5492 128.607 65.5113 128.583C65.4606 128.544 65.4111 128.504 65.3617 128.464C65.3118 128.423 65.2619 128.383 65.208 128.342C65.0658 128.244 64.9295 128.169 64.7974 128.096C64.6668 128.024 64.5431 127.956 64.4132 127.866C64.3369 127.821 64.2638 127.76 64.1866 127.695C64.1086 127.63 64.0324 127.562 63.9478 127.515L63.9227 127.496C63.7403 127.36 63.3604 127.076 63.085 127.303C63.0704 127.317 63.0594 127.331 63.0499 127.345C63.0045 127.364 62.9629 127.396 62.9227 127.447C62.8729 127.53 62.8789 127.637 62.8832 127.715L62.8824 127.811C62.8781 127.958 62.8735 128.124 62.9121 128.277C62.9845 128.607 63.1215 128.891 63.2664 129.19C63.3332 129.329 63.4023 129.471 63.4649 129.621C63.4874 129.67 63.5117 129.719 63.5362 129.769C63.6995 130.1 63.8408 130.386 63.5321 130.63C63.3874 130.745 63.2457 130.873 63.1085 130.996C62.9369 131.151 62.7595 131.311 62.5767 131.444C62.1535 131.752 61.6739 132.102 61.4261 132.618C61.3629 132.75 61.361 132.86 61.4206 132.944C61.5664 133.151 62.0438 133.1 62.273 133.075L62.3105 133.071C62.4178 133.044 62.5756 133.016 62.6237 133.013L62.6529 133.014C62.7064 133.009 62.7673 133.001 62.8281 132.994C62.8859 132.987 62.9435 132.98 63.0041 132.973C63.1716 132.931 63.5189 132.873 63.5186 132.873C63.6202 132.862 63.7265 132.859 63.8293 132.855C63.935 132.851 64.0443 132.848 64.1509 132.836C64.205 132.831 64.2527 132.827 64.3001 132.823L64.3263 132.82C64.358 132.924 64.3895 133.028 64.4196 133.133C64.4311 133.294 64.5071 133.47 64.5501 133.569L64.576 133.657C64.5951 133.723 64.6144 133.789 64.6375 133.86C64.6735 133.948 64.7314 134.069 64.8055 134.153C64.8355 134.212 64.8666 134.27 64.8983 134.33L64.9798 134.485C65.0158 134.549 65.0769 134.685 65.1417 134.828C65.2238 135.011 65.3088 135.199 65.3712 135.307C65.3921 135.34 65.4144 135.384 65.4395 135.434C65.5154 135.584 65.6117 135.775 65.7601 135.864C65.8142 135.897 65.8752 135.915 65.9446 135.913C66.1765 135.902 66.3032 135.674 66.3957 135.509C66.4107 135.482 66.4249 135.456 66.4366 135.437C66.6982 135.05 66.877 134.724 67.0012 134.407C67.0266 134.323 67.0475 134.236 67.0684 134.15C67.0879 134.068 67.1076 133.987 67.1311 133.908C67.1833 133.816 67.3574 133.444 67.3723 133.233C67.3621 133.137 67.3684 133.051 67.3752 132.96C67.6397 133.069 67.9087 133.12 68.1695 133.17C68.2661 133.188 68.3626 133.207 68.4624 133.229C68.8638 133.297 69.2327 133.324 69.6672 133.357L69.7462 133.358C70.0133 133.362 70.4598 133.369 70.5469 133.007L70.5469 133.007Z" fill="white"/>
<g filter="url(#filter5_f_1790_2518)">
<circle cx="217.566" cy="73.5658" r="2.48345" transform="rotate(1.93411 217.566 73.5658)" fill="white" fill-opacity="0.5"/>
</g>
<path d="M218.327 71.1357L218.323 71.1369C218.18 71.1876 218.146 71.3548 218.12 71.4768C218.114 71.5066 218.108 71.5343 218.102 71.5552C218.048 71.7088 218.023 71.8543 217.997 72.0084C217.99 72.0479 217.983 72.0882 217.976 72.1277C217.954 72.2232 217.925 72.3145 217.894 72.4111C217.852 72.5434 217.809 72.68 217.786 72.8299C217.764 73.0228 217.719 73.147 217.639 73.3191C217.627 73.3412 217.614 73.3691 217.6 73.402C217.583 73.4011 217.565 73.4035 217.55 73.4132C217.523 73.4247 217.487 73.4351 217.481 73.4373C217.33 73.5028 217.165 73.561 216.951 73.6239C216.859 73.6366 216.737 73.6542 216.615 73.6782C216.519 73.6983 216.425 73.7232 216.334 73.7473C216.141 73.7984 215.96 73.8464 215.765 73.8486C215.617 73.8574 215.397 73.9084 215.267 73.998C215.233 74.0187 215.201 74.0462 215.177 74.0754L215.173 74.0739C215.171 74.0777 215.17 74.0812 215.167 74.0871C215.154 74.1044 215.146 74.12 215.14 74.1354L215.134 74.224L215.141 74.2252C215.153 74.3632 215.281 74.4463 215.399 74.5206C215.447 74.5785 215.524 74.6195 215.593 74.6537C215.644 74.687 215.695 74.7187 215.748 74.7508C215.802 74.7839 215.856 74.8176 215.908 74.8521C215.965 74.8952 216.019 74.9319 216.069 74.9621C216.106 74.9884 216.142 75.0151 216.177 75.0417C216.31 75.141 216.447 75.2437 216.621 75.3129C216.785 75.3694 216.952 75.4343 217.086 75.4935C217.141 75.5096 217.193 75.5246 217.249 75.5695C217.262 75.5766 217.286 75.5947 217.307 75.6106C217.302 75.645 217.299 75.6791 217.296 75.7107C217.29 75.7546 217.281 75.7985 217.273 75.8423C217.265 75.8866 217.257 75.9308 217.25 75.9776C217.237 76.0976 217.237 76.2065 217.236 76.312C217.236 76.4165 217.235 76.5152 217.224 76.6251C217.221 76.6872 217.208 76.7525 217.195 76.8215C217.181 76.8913 217.164 76.961 217.164 77.0285L217.161 77.0503C217.138 77.2079 217.091 77.5365 217.323 77.6296C217.336 77.6338 217.349 77.6359 217.36 77.6372C217.387 77.6587 217.421 77.6733 217.465 77.681C217.533 77.6837 217.597 77.6442 217.643 77.6155L217.703 77.5837C217.794 77.5372 217.898 77.4844 217.979 77.4094C218.158 77.2543 218.286 77.0754 218.421 76.8859C218.484 76.7986 218.548 76.7084 218.619 76.62C218.642 76.5897 218.664 76.5582 218.686 76.5266C218.835 76.3152 218.963 76.1326 219.217 76.2405C219.335 76.2911 219.461 76.3352 219.583 76.3781C219.736 76.4316 219.894 76.4869 220.037 76.5546C220.368 76.7114 220.743 76.8889 221.143 76.8682C221.245 76.8628 221.313 76.8272 221.345 76.7623C221.423 76.6035 221.232 76.3274 221.14 76.1948L221.125 76.1734C221.072 76.1165 221.002 76.0289 220.985 76.0003L220.975 75.9819C220.954 75.9509 220.929 75.916 220.904 75.8812C220.88 75.8481 220.857 75.8151 220.832 75.7802C220.75 75.6914 220.599 75.4973 220.599 75.4975C220.558 75.4387 220.52 75.3746 220.484 75.3127C220.446 75.249 220.407 75.1832 220.364 75.1215C220.343 75.0901 220.324 75.0622 220.306 75.0344L220.296 75.0191C220.349 74.9648 220.402 74.9107 220.456 74.8572C220.552 74.7962 220.634 74.6904 220.681 74.6309L220.726 74.5856C220.76 74.5517 220.794 74.5177 220.83 74.4799C220.872 74.4283 220.927 74.3522 220.954 74.2785C220.98 74.2404 221.005 74.2018 221.031 74.1622L221.099 74.0602C221.127 74.0167 221.19 73.9336 221.256 73.8457C221.341 73.7342 221.428 73.6189 221.473 73.5445C221.486 73.5207 221.506 73.492 221.528 73.46C221.595 73.363 221.68 73.2399 221.685 73.119C221.687 73.0749 221.678 73.0312 221.654 72.9892C221.569 72.8506 221.387 72.8489 221.254 72.8477C221.232 72.8474 221.212 72.8473 221.196 72.8467C220.871 72.8155 220.611 72.8147 220.375 72.8447C220.314 72.8572 220.254 72.8735 220.194 72.8896C220.137 72.9049 220.081 72.9201 220.024 72.9321C219.95 72.9309 219.663 72.9486 219.529 73.0101C219.473 73.0485 219.418 73.0735 219.36 73.0998C219.339 72.9007 219.28 72.7184 219.223 72.5415C219.202 72.476 219.181 72.4107 219.161 72.342C219.069 72.0726 218.962 71.8367 218.837 71.5589L218.811 71.5101C218.723 71.3448 218.578 71.0681 218.327 71.1358L218.327 71.1357Z" fill="white"/>
<path d="M63.884 66.548L63.8878 66.5484C64.0368 66.5602 64.1346 66.424 64.2062 66.3246C64.2237 66.3003 64.2398 66.2776 64.2536 66.2613C64.3634 66.145 64.4442 66.0244 64.5296 65.8968C64.5515 65.864 64.5739 65.8306 64.5962 65.798C64.654 65.721 64.7164 65.6506 64.7824 65.576C64.8728 65.474 64.9662 65.3686 65.0473 65.2435C65.1438 65.079 65.234 64.9855 65.3743 64.8629C65.3941 64.8479 65.417 64.8281 65.4424 64.8041C65.4576 64.8118 65.4744 64.8167 65.4917 64.8139C65.5204 64.8143 65.5572 64.8195 65.5637 64.82C65.7251 64.8214 65.8969 64.8354 66.1139 64.8643C66.2018 64.8898 66.3178 64.9225 66.437 64.9498C66.5317 64.9703 66.6261 64.9855 66.7176 65.0003C66.9105 65.0313 67.0926 65.0607 67.2687 65.1367C67.4052 65.188 67.6228 65.23 67.7752 65.2015C67.8139 65.1964 67.8536 65.1846 67.887 65.1681L67.8899 65.1709C67.893 65.1682 67.8957 65.1656 67.9002 65.1613C67.9188 65.151 67.933 65.1406 67.9445 65.1291L67.9853 65.052L67.9788 65.0478C68.0238 64.9194 67.9417 64.7934 67.8652 64.6794C67.8455 64.6084 67.7932 64.541 67.7442 64.4824C67.7123 64.4324 67.6786 64.3833 67.6447 64.3337C67.6095 64.2824 67.5738 64.2303 67.5408 64.1784C67.5074 64.1171 67.4737 64.0627 67.4404 64.0154C67.418 63.9772 67.3966 63.9389 67.3753 63.9008C67.2958 63.7586 67.2135 63.6115 67.0849 63.4798C66.9604 63.3635 66.8363 63.2386 66.7396 63.1317C66.6971 63.0955 66.6568 63.0614 66.6242 62.9987C66.6153 62.987 66.6006 62.9611 66.5887 62.9387C66.6063 62.9095 66.6233 62.8804 66.6382 62.853C66.6616 62.8162 66.6865 62.7801 66.7114 62.744C66.7365 62.7075 66.7615 62.6711 66.7865 62.6319C66.8455 62.5291 66.8895 62.4315 66.9321 62.337C66.9743 62.2435 67.0141 62.155 67.0684 62.061C67.0955 62.0062 67.1332 61.9528 67.1732 61.8963C67.2135 61.8392 67.2562 61.7833 67.2834 61.7227L67.2949 61.7044C67.3782 61.5719 67.5521 61.2959 67.3813 61.1197C67.3708 61.1105 67.3605 61.1037 67.3507 61.098C67.3352 61.0679 67.3106 61.0412 67.2736 61.0164C67.2138 60.9869 67.1409 60.997 67.0877 61.0042L67.0217 61.009C66.9209 61.0141 66.8067 61.0201 66.7039 61.055C66.4817 61.1229 66.2952 61.2324 66.0978 61.3483C66.0068 61.4016 65.9128 61.4569 65.814 61.508C65.7815 61.5261 65.749 61.5455 65.7165 61.565C65.4984 61.6953 65.31 61.8079 65.1258 61.6098C65.0394 61.517 64.9439 61.4269 64.8515 61.3397C64.7359 61.2307 64.6165 61.118 64.5152 61.0001C64.2807 60.727 64.0148 60.4177 63.6473 60.2764C63.5534 60.2403 63.478 60.2451 63.4235 60.2906C63.2898 60.4019 63.3511 60.7262 63.3807 60.882L63.386 60.9074C63.4104 60.9794 63.4381 61.086 63.4427 61.1188L63.4434 61.1389C63.4502 61.1753 63.4587 61.2166 63.4672 61.2579C63.4752 61.2971 63.4833 61.3362 63.4915 61.3773C63.5295 61.4897 63.588 61.7246 63.5881 61.7244C63.601 61.7934 63.6094 61.8661 63.6176 61.9363C63.6259 62.0085 63.6346 62.0832 63.6482 62.1556C63.655 62.1924 63.6604 62.2248 63.6657 62.2571L63.6687 62.2749C63.5993 62.3024 63.5298 62.3297 63.4599 62.3561C63.3501 62.3729 63.2334 62.4347 63.1682 62.4697L63.1093 62.4922C63.0652 62.509 63.0208 62.5258 62.9738 62.5456C62.9155 62.5751 62.8357 62.6214 62.782 62.6769C62.7436 62.7007 62.7053 62.7252 62.666 62.7502L62.5642 62.8146C62.5224 62.8428 62.4326 62.8922 62.3377 62.9446C62.2174 63.0109 62.0928 63.0795 62.0225 63.1282C62.0013 63.1443 61.972 63.1621 61.9393 63.182C61.8404 63.2424 61.7148 63.3189 61.6621 63.4255C61.6429 63.4643 61.6335 63.5072 61.6386 63.5546C61.6592 63.7129 61.8221 63.7872 61.9409 63.8414C61.96 63.8502 61.9783 63.8585 61.9925 63.8654C62.2719 64.0234 62.5048 64.1279 62.7291 64.1955C62.788 64.2083 62.8486 64.2178 62.9091 64.2274C62.966 64.2362 63.0228 64.2452 63.0783 64.257C63.1444 64.2877 63.409 64.3865 63.5542 64.385C63.6195 64.3727 63.679 64.3723 63.7417 64.3719C63.6813 64.5592 63.6611 64.7464 63.6415 64.9278C63.6342 64.9951 63.627 65.0622 63.6174 65.1318C63.5929 65.4106 63.5942 65.6649 63.5958 65.9645L63.5996 66.0187C63.6118 66.2019 63.6315 66.5083 63.8841 66.548L63.884 66.548Z" fill="white"/>
<path d="M159.525 88.606L159.522 88.6052C159.41 88.5769 159.318 88.6681 159.25 88.7346C159.234 88.7509 159.219 88.766 159.206 88.7767C159.107 88.8511 159.03 88.9326 158.948 89.0189C158.927 89.041 158.906 89.0636 158.885 89.0856C158.831 89.1368 158.774 89.1824 158.714 89.2307C158.632 89.2967 158.547 89.365 158.469 89.4499C158.374 89.5628 158.293 89.6224 158.17 89.6977C158.153 89.7066 158.133 89.7187 158.111 89.7338C158.1 89.7259 158.088 89.72 158.074 89.7199C158.053 89.7158 158.025 89.7071 158.02 89.7058C157.897 89.6839 157.768 89.651 157.606 89.6008C157.543 89.5699 157.459 89.53 157.371 89.4937C157.302 89.4658 157.232 89.4419 157.164 89.4189C157.021 89.3702 156.886 89.3242 156.761 89.2434C156.664 89.1866 156.503 89.1263 156.384 89.1283C156.353 89.1272 156.322 89.1311 156.294 89.1393L156.292 89.1368C156.289 89.1384 156.287 89.1401 156.283 89.1428C156.267 89.1482 156.255 89.1543 156.245 89.1616L156.204 89.2151L156.208 89.2192C156.157 89.3112 156.204 89.4179 156.247 89.5147C156.253 89.5715 156.284 89.6297 156.314 89.6807C156.332 89.723 156.351 89.7647 156.37 89.807C156.391 89.8506 156.411 89.895 156.43 89.9388C156.447 89.9899 156.466 90.0357 156.485 90.0761C156.497 90.1082 156.509 90.1401 156.52 90.1719C156.562 90.2907 156.606 90.4135 156.687 90.5306C156.767 90.6354 156.845 90.7468 156.905 90.8408C156.933 90.8739 156.959 90.9051 156.976 90.9572C156.981 90.9672 156.989 90.9889 156.995 91.0075C156.978 91.0275 156.961 91.0475 156.946 91.0664C156.923 91.0915 156.9 91.1158 156.876 91.1401C156.852 91.1646 156.828 91.1892 156.804 91.2158C156.746 91.2865 156.7 91.3553 156.655 91.4218C156.611 91.4876 156.569 91.55 156.515 91.6146C156.488 91.6528 156.452 91.6887 156.414 91.7266C156.376 91.7649 156.336 91.802 156.308 91.8446L156.296 91.8571C156.216 91.9473 156.047 92.1352 156.155 92.2917C156.162 92.3001 156.169 92.3066 156.175 92.3123C156.183 92.3372 156.198 92.3608 156.223 92.3845C156.265 92.4147 156.322 92.4165 156.364 92.4179L156.415 92.4228C156.492 92.4319 156.58 92.4422 156.663 92.4289C156.841 92.4059 156.997 92.3466 157.163 92.2839C157.239 92.255 157.318 92.225 157.4 92.1989C157.427 92.1892 157.455 92.1786 157.482 92.168C157.665 92.097 157.823 92.0355 157.938 92.2104C157.992 92.2924 158.053 92.3735 158.112 92.4519C158.186 92.55 158.263 92.6515 158.325 92.7545C158.468 92.9931 158.631 93.2634 158.893 93.4188C158.96 93.4584 159.018 93.4646 159.065 93.4369C159.182 93.3694 159.177 93.1142 159.174 92.9916L159.174 92.9715C159.164 92.9134 159.157 92.8285 159.158 92.8029L159.16 92.7875C159.159 92.7589 159.158 92.7263 159.157 92.6938C159.156 92.6628 159.155 92.632 159.154 92.5996C159.14 92.5089 159.126 92.3222 159.125 92.3224C159.125 92.2681 159.128 92.2116 159.13 92.157C159.133 92.1008 159.137 92.0428 159.136 91.9858C159.135 91.9568 159.135 91.9314 159.135 91.9061L159.135 91.8921C159.192 91.8802 159.248 91.8683 159.305 91.8573C159.391 91.8587 159.488 91.8267 159.542 91.8085L159.59 91.799C159.626 91.7919 159.662 91.7848 159.7 91.7759C159.749 91.7609 159.815 91.7359 159.864 91.7006C159.896 91.6874 159.928 91.6737 159.962 91.6597L160.047 91.6238C160.083 91.6077 160.158 91.5817 160.237 91.554C160.337 91.5191 160.441 91.4829 160.501 91.4549C160.519 91.4453 160.544 91.4356 160.572 91.4246C160.655 91.3914 160.761 91.3494 160.815 91.2749C160.834 91.2478 160.847 91.2164 160.849 91.1795C160.854 91.0561 160.739 90.9784 160.656 90.9216C160.642 90.9124 160.63 90.9037 160.62 90.8966C160.427 90.74 160.263 90.6301 160.101 90.5495C160.058 90.5321 160.012 90.517 159.968 90.5019C159.925 90.4877 159.883 90.4735 159.842 90.4573C159.796 90.4253 159.607 90.3158 159.496 90.298C159.445 90.2989 159.399 90.2916 159.352 90.2837C159.422 90.1487 159.461 90.0086 159.5 89.8728C159.514 89.8225 159.528 89.7723 159.545 89.7204C159.6 89.511 159.632 89.3169 159.669 89.0883L159.673 89.0465C159.688 88.9052 159.712 88.669 159.525 88.606L159.525 88.606Z" fill="white"/>
<g filter="url(#filter6_f_1790_2518)">
<circle cx="272.553" cy="81.5907" r="5.23063" transform="rotate(0.393949 272.553 81.5907)" fill="white" fill-opacity="0.5"/>
</g>
<g filter="url(#filter7_f_1790_2518)">
<circle cx="381.534" cy="78.7026" r="3.13716" transform="rotate(0.393949 381.534 78.7026)" fill="white" fill-opacity="0.5"/>
</g>
<path d="M383.276 82.8531L383.279 82.8502C383.427 82.7339 383.4 82.525 383.381 82.3724C383.377 82.3352 383.372 82.3006 383.371 82.2738C383.373 82.0731 383.345 81.8931 383.314 81.7027C383.307 81.6538 383.299 81.604 383.291 81.555C383.279 81.4348 383.276 81.3167 383.273 81.1917C383.27 81.0207 383.266 80.844 383.234 80.6596C383.182 80.4258 383.185 80.2628 383.21 80.0301C383.215 79.9995 383.22 79.9618 383.222 79.9179C383.243 79.9121 383.263 79.9022 383.276 79.885C383.303 79.8609 383.341 79.8342 383.348 79.8291C383.498 79.6928 383.668 79.559 383.892 79.4005C383.995 79.349 384.13 79.2802 384.263 79.2036C384.367 79.1417 384.467 79.0752 384.564 79.0107C384.768 78.8747 384.961 78.7464 385.188 78.6662C385.357 78.597 385.593 78.45 385.709 78.2938C385.741 78.256 385.767 78.2113 385.784 78.1675L385.789 78.1677C385.789 78.1626 385.79 78.1579 385.79 78.1501C385.799 78.1247 385.803 78.103 385.803 78.0826L385.775 77.9768L385.766 77.9785C385.698 77.8219 385.515 77.7759 385.347 77.7363C385.268 77.6877 385.162 77.6702 385.067 77.6581C384.995 77.6392 384.922 77.6228 384.849 77.6061C384.773 77.5889 384.695 77.5713 384.621 77.5517C384.538 77.5239 384.46 77.5025 384.389 77.4874C384.336 77.4712 384.284 77.4543 384.232 77.4374C384.037 77.3742 383.836 77.309 383.605 77.2974C383.391 77.2967 383.17 77.2874 382.99 77.2716C382.92 77.2745 382.854 77.2775 382.77 77.2475C382.752 77.2443 382.717 77.233 382.687 77.2226C382.678 77.1807 382.669 77.1394 382.659 77.1015C382.649 77.0476 382.641 76.9931 382.633 76.9387C382.625 76.8837 382.617 76.8288 382.607 76.7714C382.574 76.6264 382.531 76.499 382.489 76.3756C382.448 76.2535 382.41 76.1381 382.379 76.0052C382.358 75.9317 382.347 75.8503 382.335 75.7642C382.324 75.6772 382.315 75.5893 382.289 75.5104L382.284 75.4837C382.247 75.2907 382.172 74.8882 381.865 74.8717C381.847 74.8722 381.832 74.8747 381.818 74.8778C381.778 74.8633 381.732 74.8597 381.677 74.8685C381.597 74.8923 381.538 74.9637 381.496 75.0158L381.439 75.0765C381.351 75.1672 381.251 75.2702 381.186 75.39C381.039 75.6421 380.961 75.9019 380.878 76.177C380.839 76.3038 380.8 76.4349 380.753 76.5662C380.738 76.6106 380.725 76.6562 380.712 76.7019C380.622 77.0079 380.545 77.2722 380.206 77.2471C380.047 77.2353 379.882 77.2339 379.723 77.2324C379.524 77.2306 379.317 77.2287 379.124 77.2066C378.675 77.1552 378.166 77.0973 377.707 77.2807C377.59 77.3276 377.525 77.3964 377.513 77.4848C377.485 77.7013 377.818 77.9475 377.978 78.0657L378.005 78.0846C378.089 78.1301 378.205 78.2046 378.237 78.2309L378.255 78.2488C378.293 78.2765 378.336 78.3073 378.379 78.338C378.42 78.3673 378.46 78.3964 378.503 78.4272C378.634 78.4983 378.888 78.6646 378.888 78.6644C378.959 78.717 379.028 78.7767 379.096 78.8343C379.165 78.8937 379.237 78.9551 379.311 79.0102C379.349 79.0382 379.381 79.0635 379.414 79.0887L379.432 79.1025C379.391 79.187 379.351 79.2715 379.309 79.3554C379.222 79.4645 379.167 79.621 379.137 79.7088L379.102 79.7798C379.076 79.8329 379.049 79.8862 379.023 79.9445C378.994 80.0214 378.961 80.1321 378.958 80.229C378.943 80.2837 378.929 80.339 378.914 80.3955L378.875 80.5417C378.861 80.6033 378.82 80.7253 378.778 80.8545C378.723 81.0182 378.667 81.1877 378.644 81.2925C378.638 81.3255 378.627 81.3669 378.613 81.413C378.574 81.553 378.523 81.7306 378.566 81.8736C378.581 81.9258 378.609 81.9733 378.654 82.0126C378.808 82.1408 379.022 82.0702 379.177 82.0188C379.203 82.0106 379.226 82.0026 379.245 81.9968C379.637 81.9039 379.941 81.8015 380.205 81.6724C380.27 81.634 380.334 81.5909 380.398 81.5481C380.458 81.5078 380.518 81.4676 380.579 81.4311C380.666 81.403 380.994 81.2681 381.127 81.143C381.176 81.0759 381.231 81.0248 381.288 80.971C381.392 81.1949 381.533 81.3844 381.67 81.5683C381.721 81.6364 381.771 81.7043 381.822 81.7766C382.037 82.0542 382.255 82.2873 382.512 82.5617L382.562 82.6084C382.73 82.7666 383.009 83.0319 383.276 82.853L383.276 82.8531Z" fill="white"/>
<path d="M272.243 71.5645L272.234 71.5678C271.878 71.7047 271.802 72.1262 271.747 72.4341C271.733 72.5091 271.721 72.5791 271.707 72.632C271.582 73.0207 271.529 73.3874 271.473 73.7756C271.458 73.8751 271.444 73.9767 271.428 74.0764C271.38 74.3173 271.313 74.5484 271.243 74.7927C271.147 75.1273 271.048 75.4729 270.999 75.8504C270.958 76.3357 270.853 76.6504 270.665 77.0874C270.636 77.1436 270.605 77.2144 270.573 77.2978C270.529 77.2967 270.485 77.304 270.448 77.3294C270.382 77.36 270.291 77.3886 270.276 77.3945C269.902 77.569 269.491 77.726 268.959 77.8983C268.729 77.9362 268.425 77.9885 268.121 78.057C267.88 78.1139 267.646 78.1827 267.419 78.2494C266.94 78.3904 266.488 78.5231 265.999 78.5418C265.628 78.5738 265.081 78.7166 264.761 78.95C264.677 79.0044 264.599 79.0754 264.54 79.1502L264.53 79.1469C264.526 79.1564 264.523 79.1654 264.517 79.1802C264.485 79.2246 264.464 79.2642 264.45 79.3034L264.441 79.5259L264.461 79.5284C264.499 79.8737 264.826 80.0736 265.128 80.2519C265.252 80.3939 265.446 80.4917 265.624 80.5727C265.752 80.6528 265.884 80.7288 266.017 80.8057C266.154 80.8852 266.294 80.966 266.427 81.0491C266.571 81.1534 266.709 81.2417 266.838 81.314C266.931 81.3775 267.023 81.4421 267.114 81.5064C267.454 81.7466 267.805 81.9949 268.246 82.1567C268.661 82.2875 269.085 82.4388 269.425 82.5785C269.563 82.6151 269.693 82.6493 269.837 82.7581C269.871 82.7751 269.933 82.8187 269.985 82.8571C269.977 82.9437 269.97 83.0295 269.965 83.109C269.952 83.2196 269.934 83.3303 269.917 83.4407C269.899 83.5523 269.882 83.6638 269.867 83.7816C269.844 84.0834 269.851 84.3566 269.856 84.6213C269.862 84.8833 269.868 85.131 269.846 85.4073C269.844 85.5632 269.816 85.7279 269.786 85.902C269.756 86.0779 269.719 86.2538 269.723 86.4232L269.717 86.478C269.671 86.8749 269.574 87.7022 270.161 87.9202C270.196 87.9298 270.227 87.9342 270.256 87.9366C270.325 87.9888 270.411 88.0233 270.523 88.0396C270.693 88.0418 270.85 87.9384 270.965 87.8631L271.112 87.7795C271.338 87.6567 271.595 87.5172 271.793 87.3235C272.231 86.9226 272.54 86.4651 272.867 85.9808C273.018 85.7577 273.174 85.5269 273.345 85.3004C273.4 85.223 273.453 85.1424 273.507 85.0617C273.866 84.5215 274.176 84.0548 274.818 84.3083C275.119 84.4272 275.439 84.5294 275.747 84.6287C276.134 84.7525 276.533 84.8808 276.896 85.041C277.737 85.4118 278.69 85.8318 279.692 85.7527C279.948 85.7324 280.117 85.6385 280.192 85.4735C280.378 85.07 279.879 84.3904 279.64 84.0641L279.6 84.0114C279.464 83.8723 279.283 83.6572 279.236 83.5866L279.212 83.5412C279.157 83.4648 279.092 83.379 279.027 83.2933C278.965 83.2118 278.904 83.1306 278.839 83.045C278.628 82.8278 278.235 82.3511 278.235 82.3517C278.129 82.2068 278.03 82.0487 277.934 81.8959C277.835 81.7387 277.733 81.5762 277.622 81.4243C277.565 81.3471 277.517 81.2782 277.469 81.2097L277.443 81.1721C277.573 81.0323 277.703 80.8928 277.835 80.7551C278.069 80.5957 278.27 80.3248 278.382 80.1724L278.493 80.0557C278.576 79.9685 278.659 79.8808 278.746 79.7835C278.848 79.6514 278.981 79.4568 279.043 79.27C279.106 79.1728 279.167 79.0742 279.23 78.9732L279.393 78.7128C279.459 78.6018 279.611 78.3892 279.772 78.1642C279.976 77.8789 280.188 77.5837 280.296 77.394C280.327 77.3336 280.375 77.2603 280.429 77.1785C280.59 76.9305 280.795 76.6161 280.799 76.3125C280.801 76.2019 280.775 76.0928 280.711 75.9891C280.49 75.6471 280.033 75.6553 279.699 75.6611C279.645 75.6619 279.594 75.663 279.554 75.6626C278.736 75.6063 278.085 75.6218 277.494 75.7129C277.344 75.7483 277.194 75.7932 277.044 75.8378C276.903 75.8799 276.762 75.9217 276.621 75.9557C276.435 75.9577 275.717 76.0215 275.384 76.1847C275.247 76.2849 275.111 76.3514 274.966 76.4212C274.899 75.9233 274.74 75.4698 274.585 75.0302C274.528 74.8673 274.471 74.7047 274.416 74.5339C274.166 73.8644 273.883 73.28 273.55 72.5915L273.481 72.4709C273.251 72.0622 272.869 71.3781 272.243 71.5647L272.243 71.5645Z" fill="#FFDFA0"/>
<g filter="url(#filter8_f_1790_2518)">
<circle cx="331.722" cy="120.889" r="2.28157" transform="rotate(0.393949 331.722 120.889)" fill="white" fill-opacity="0.5"/>
</g>
<path d="M333.766 117.111L333.762 117.11C333.612 117.068 333.484 117.187 333.39 117.274C333.368 117.296 333.346 117.316 333.329 117.33C333.193 117.426 333.086 117.533 332.972 117.646C332.943 117.676 332.913 117.705 332.884 117.734C332.809 117.801 332.731 117.86 332.648 117.923C332.535 118.009 332.417 118.098 332.309 118.21C332.177 118.359 332.065 118.436 331.896 118.533C331.873 118.544 331.846 118.56 331.815 118.579C331.801 118.568 331.785 118.56 331.766 118.559C331.737 118.553 331.7 118.54 331.694 118.538C331.529 118.504 331.356 118.455 331.14 118.381C331.055 118.337 330.943 118.28 330.826 118.227C330.733 118.187 330.64 118.152 330.549 118.119C330.358 118.047 330.178 117.98 330.013 117.866C329.883 117.786 329.669 117.699 329.507 117.697C329.467 117.694 329.424 117.698 329.386 117.708L329.384 117.705C329.38 117.707 329.377 117.709 329.371 117.713C329.35 117.719 329.333 117.727 329.319 117.737L329.262 117.807L329.268 117.813C329.195 117.935 329.254 118.081 329.309 118.213C329.314 118.29 329.354 118.37 329.392 118.44C329.415 118.497 329.439 118.554 329.464 118.612C329.49 118.672 329.516 118.732 329.539 118.792C329.561 118.862 329.584 118.924 329.608 118.98C329.624 119.023 329.638 119.067 329.652 119.11C329.704 119.272 329.758 119.439 329.863 119.6C329.967 119.745 330.069 119.898 330.146 120.027C330.182 120.073 330.216 120.116 330.237 120.187C330.244 120.201 330.253 120.23 330.261 120.256C330.237 120.282 330.214 120.308 330.193 120.333C330.161 120.366 330.129 120.398 330.096 120.43C330.063 120.462 330.03 120.494 329.996 120.529C329.915 120.623 329.85 120.714 329.787 120.802C329.725 120.889 329.666 120.971 329.591 121.056C329.552 121.107 329.503 121.154 329.45 121.204C329.397 121.254 329.342 121.302 329.302 121.359L329.286 121.375C329.174 121.494 328.94 121.741 329.079 121.956C329.088 121.968 329.097 121.977 329.106 121.985C329.115 122.019 329.135 122.051 329.168 122.084C329.223 122.126 329.3 122.131 329.356 122.134L329.424 122.143C329.529 122.158 329.647 122.175 329.759 122.161C330.001 122.136 330.214 122.062 330.44 121.984C330.544 121.948 330.651 121.91 330.763 121.878C330.8 121.866 330.837 121.853 330.874 121.84C331.124 121.751 331.34 121.674 331.488 121.914C331.557 122.027 331.637 122.139 331.714 122.247C331.81 122.382 331.909 122.522 331.989 122.663C332.173 122.99 332.383 123.361 332.73 123.581C332.819 123.637 332.897 123.647 332.962 123.612C333.122 123.525 333.125 123.181 333.126 123.015L333.126 122.988C333.116 122.909 333.109 122.794 333.111 122.76L333.115 122.739C333.115 122.701 333.115 122.657 333.114 122.613C333.114 122.571 333.114 122.529 333.114 122.485C333.098 122.362 333.086 122.11 333.086 122.11C333.087 122.037 333.093 121.961 333.099 121.887C333.105 121.812 333.111 121.733 333.112 121.657C333.113 121.617 333.114 121.583 333.115 121.549L333.115 121.53C333.192 121.516 333.269 121.502 333.346 121.49C333.462 121.495 333.594 121.455 333.668 121.433L333.732 121.422C333.781 121.414 333.83 121.405 333.882 121.395C333.948 121.376 334.039 121.345 334.105 121.299C334.149 121.283 334.194 121.266 334.239 121.248L334.356 121.203C334.405 121.182 334.507 121.15 334.615 121.116C334.751 121.072 334.893 121.028 334.975 120.992C335 120.98 335.033 120.968 335.071 120.954C335.185 120.912 335.329 120.86 335.404 120.761C335.432 120.725 335.45 120.683 335.455 120.634C335.466 120.467 335.314 120.358 335.204 120.278C335.186 120.265 335.169 120.253 335.156 120.243C334.902 120.025 334.685 119.87 334.469 119.755C334.411 119.73 334.351 119.708 334.291 119.686C334.235 119.665 334.178 119.644 334.124 119.621C334.062 119.576 333.812 119.421 333.663 119.393C333.593 119.392 333.532 119.381 333.468 119.368C333.568 119.189 333.627 119.001 333.684 118.82C333.705 118.752 333.726 118.685 333.75 118.616C333.832 118.335 333.883 118.074 333.942 117.767L333.949 117.711C333.974 117.521 334.016 117.203 333.766 117.111L333.766 117.111Z" fill="white"/>
</g>
<defs>
<filter id="filter0_f_1790_2518" x="-834.571" y="-134.876" width="2104.36" height="472.838" filterUnits="userSpaceOnUse" color-interpolation-filters="sRGB">
<feFlood flood-opacity="0" result="BackgroundImageFix"/>
<feBlend mode="normal" in="SourceGraphic" in2="BackgroundImageFix" result="shape"/>
<feGaussianBlur stdDeviation="45.85" result="effect1_foregroundBlur_1790_2518"/>
</filter>
<filter id="filter1_f_1790_2518" x="-27.505" y="98.8429" width="32.9697" height="32.97" filterUnits="userSpaceOnUse" color-interpolation-filters="sRGB">
<feFlood flood-opacity="0" result="BackgroundImageFix"/>
<feBlend mode="normal" in="SourceGraphic" in2="BackgroundImageFix" result="shape"/>
<feGaussianBlur stdDeviation="6.55" result="effect1_foregroundBlur_1790_2518"/>
</filter>
<filter id="filter2_f_1790_2518" x="51.0031" y="115.66" width="31.1233" height="31.1233" filterUnits="userSpaceOnUse" color-interpolation-filters="sRGB">
<feFlood flood-opacity="0" result="BackgroundImageFix"/>
<feBlend mode="normal" in="SourceGraphic" in2="BackgroundImageFix" result="shape"/>
<feGaussianBlur stdDeviation="6.55" result="effect1_foregroundBlur_1790_2518"/>
</filter>
<filter id="filter3_f_1790_2518" x="49.5805" y="48.5934" width="31.1233" height="31.1233" filterUnits="userSpaceOnUse" color-interpolation-filters="sRGB">
<feFlood flood-opacity="0" result="BackgroundImageFix"/>
<feBlend mode="normal" in="SourceGraphic" in2="BackgroundImageFix" result="shape"/>
<feGaussianBlur stdDeviation="6.55" result="effect1_foregroundBlur_1790_2518"/>
</filter>
<filter id="filter4_f_1790_2518" x="143.729" y="76.1441" width="31.1233" height="31.1233" filterUnits="userSpaceOnUse" color-interpolation-filters="sRGB">
<feFlood flood-opacity="0" result="BackgroundImageFix"/>
<feBlend mode="normal" in="SourceGraphic" in2="BackgroundImageFix" result="shape"/>
<feGaussianBlur stdDeviation="6.55" result="effect1_foregroundBlur_1790_2518"/>
</filter>
<filter id="filter5_f_1790_2518" x="190.583" y="46.5825" width="53.9669" height="53.9668" filterUnits="userSpaceOnUse" color-interpolation-filters="sRGB">
<feFlood flood-opacity="0" result="BackgroundImageFix"/>
<feBlend mode="normal" in="SourceGraphic" in2="BackgroundImageFix" result="shape"/>
<feGaussianBlur stdDeviation="12.25" result="effect1_foregroundBlur_1790_2518"/>
</filter>
<filter id="filter6_f_1790_2518" x="242.823" y="51.8599" width="59.4613" height="59.4614" filterUnits="userSpaceOnUse" color-interpolation-filters="sRGB">
<feFlood flood-opacity="0" result="BackgroundImageFix"/>
<feBlend mode="normal" in="SourceGraphic" in2="BackgroundImageFix" result="shape"/>
<feGaussianBlur stdDeviation="12.25" result="effect1_foregroundBlur_1790_2518"/>
</filter>
<filter id="filter7_f_1790_2518" x="365.297" y="62.4654" width="32.4743" height="32.4744" filterUnits="userSpaceOnUse" color-interpolation-filters="sRGB">
<feFlood flood-opacity="0" result="BackgroundImageFix"/>
<feBlend mode="normal" in="SourceGraphic" in2="BackgroundImageFix" result="shape"/>
<feGaussianBlur stdDeviation="6.55" result="effect1_foregroundBlur_1790_2518"/>
</filter>
<filter id="filter8_f_1790_2518" x="316.34" y="105.507" width="30.7631" height="30.763" filterUnits="userSpaceOnUse" color-interpolation-filters="sRGB">
<feFlood flood-opacity="0" result="BackgroundImageFix"/>
<feBlend mode="normal" in="SourceGraphic" in2="BackgroundImageFix" result="shape"/>
<feGaussianBlur stdDeviation="6.55" result="effect1_foregroundBlur_1790_2518"/>
</filter>
<linearGradient id="paint0_linear_1790_2518" x1="260.5" y1="-160.322" x2="232.32" y2="448.349" gradientUnits="userSpaceOnUse">
<stop stop-color="#46409C"/>
<stop offset="1" stop-color="#635ACE"/>
</linearGradient>
<linearGradient id="paint1_linear_1790_2518" x1="260.5" y1="-160.322" x2="232.32" y2="448.349" gradientUnits="userSpaceOnUse">
<stop stop-color="#46409C"/>
<stop offset="1" stop-color="#635ACE"/>
</linearGradient>
<linearGradient id="paint2_linear_1790_2518" x1="1238.81" y1="-20.7401" x2="33.8934" y2="1068.81" gradientUnits="userSpaceOnUse">
<stop stop-color="#4D46A7"/>
<stop offset="0.49" stop-color="#5574E0"/>
<stop offset="1" stop-color="#5D57C4"/>
</linearGradient>
<clipPath id="clip0_1790_2518">
<rect width="980" height="312" fill="white" transform="translate(-258)"/>
</clipPath>
<clipPath id="clip1_1790_2518">
<rect width="1921" height="592" fill="white" transform="translate(-728)"/>
</clipPath>
</defs>
</svg>
