<svg width="980" height="402" viewBox="0 0 980 402" fill="none" xmlns="http://www.w3.org/2000/svg">
<g clip-path="url(#clip0_1747_1758)">
<path d="M1451 -89V384C816 384 461.5 421 -470 384V-89H1451Z" fill="url(#paint0_linear_1747_1758)"/>
<g clip-path="url(#clip1_1747_1758)">
<mask id="mask0_1747_1758" style="mask-type:alpha" maskUnits="userSpaceOnUse" x="-470" y="-89" width="1921" height="490">
<path d="M1451 -89V384C816 384 461.5 421 -470 384V-89H1451Z" fill="url(#paint1_linear_1747_1758)"/>
</mask>
<g mask="url(#mask0_1747_1758)">
<g filter="url(#filter0_f_1747_1758)">
<path d="M-611 237C-413.735 133.314 790.862 447.258 1571.5 76.7062" stroke="url(#paint2_linear_1747_1758)" stroke-width="233"/>
</g>
</g>
</g>
<g filter="url(#filter1_f_1747_1758)">
<circle cx="125.509" cy="168.337" r="5.29297" transform="rotate(-1.21526 125.509 168.337)" fill="white" fill-opacity="0.5"/>
</g>
<g filter="url(#filter2_f_1747_1758)">
<circle cx="246.834" cy="193.192" r="3.84943" transform="rotate(-1.21526 246.834 193.192)" fill="white" fill-opacity="0.5"/>
</g>
<g filter="url(#filter3_f_1747_1758)">
<circle cx="244.61" cy="88.3187" r="3.84943" transform="rotate(-1.21526 244.61 88.3187)" fill="white" fill-opacity="0.5"/>
</g>
<g filter="url(#filter4_f_1747_1758)">
<circle cx="391.834" cy="131.399" r="3.84943" transform="rotate(-1.21526 391.834 131.399)" fill="white" fill-opacity="0.5"/>
</g>
<path d="M253.061 195.986L253.063 195.978C253.117 195.642 252.826 195.395 252.613 195.215C252.561 195.171 252.513 195.13 252.479 195.096C252.235 194.826 251.976 194.621 251.702 194.404C251.632 194.348 251.561 194.291 251.491 194.235C251.327 194.09 251.178 193.935 251.021 193.772C250.807 193.548 250.585 193.317 250.316 193.11C249.961 192.862 249.765 192.64 249.513 192.3C249.482 192.252 249.442 192.197 249.392 192.135C249.412 192.101 249.426 192.064 249.423 192.025C249.429 191.96 249.448 191.877 249.45 191.862C249.483 191.497 249.546 191.11 249.651 190.623C249.725 190.428 249.82 190.171 249.904 189.906C249.968 189.695 250.019 189.484 250.069 189.279C250.175 188.848 250.275 188.44 250.48 188.055C250.621 187.754 250.756 187.269 250.719 186.918C250.714 186.829 250.695 186.737 250.663 186.658L250.67 186.652C250.665 186.645 250.66 186.638 250.651 186.627C250.631 186.583 250.61 186.549 250.586 186.521L250.418 186.414L250.408 186.428C250.125 186.303 249.824 186.466 249.552 186.619C249.387 186.65 249.225 186.757 249.083 186.857C248.964 186.92 248.846 186.988 248.728 187.055C248.605 187.126 248.48 187.197 248.356 187.263C248.211 187.327 248.082 187.394 247.969 187.461C247.878 187.504 247.787 187.546 247.697 187.587C247.36 187.741 247.011 187.901 246.689 188.169C246.403 188.43 246.097 188.688 245.837 188.888C245.747 188.978 245.663 189.063 245.514 189.125C245.486 189.143 245.425 189.172 245.372 189.195C245.309 189.15 245.246 189.106 245.187 189.067C245.107 189.007 245.03 188.944 244.953 188.881C244.875 188.818 244.797 188.754 244.712 188.69C244.49 188.538 244.277 188.42 244.07 188.306C243.866 188.194 243.673 188.087 243.47 187.947C243.35 187.876 243.236 187.78 243.115 187.679C242.993 187.577 242.874 187.47 242.742 187.398L242.702 187.368C242.417 187.155 241.823 186.711 241.393 187.066C241.37 187.088 241.352 187.11 241.338 187.131C241.267 187.161 241.202 187.212 241.139 187.291C241.061 187.421 241.07 187.588 241.077 187.71L241.076 187.861C241.069 188.09 241.062 188.35 241.122 188.59C241.235 189.106 241.45 189.549 241.676 190.017C241.781 190.234 241.889 190.457 241.987 190.69C242.022 190.767 242.06 190.844 242.098 190.922C242.354 191.44 242.574 191.887 242.092 192.269C241.865 192.448 241.644 192.648 241.429 192.841C241.161 193.084 240.884 193.334 240.598 193.542C239.936 194.024 239.186 194.57 238.799 195.378C238.7 195.584 238.697 195.756 238.79 195.888C239.018 196.211 239.764 196.131 240.123 196.093L240.181 196.085C240.349 196.043 240.596 196 240.671 195.995L240.717 195.997C240.801 195.989 240.896 195.977 240.991 195.965C241.081 195.954 241.171 195.943 241.266 195.932C241.528 195.866 242.071 195.776 242.071 195.776C242.229 195.76 242.396 195.754 242.556 195.748C242.722 195.742 242.893 195.736 243.059 195.719C243.144 195.71 243.219 195.704 243.293 195.697L243.334 195.694C243.383 195.856 243.432 196.019 243.48 196.182C243.497 196.434 243.616 196.71 243.684 196.864L243.724 197.002C243.754 197.105 243.784 197.209 243.82 197.319C243.877 197.457 243.967 197.646 244.083 197.778C244.13 197.869 244.178 197.961 244.228 198.054L244.356 198.297C244.412 198.397 244.507 198.609 244.609 198.834C244.737 199.119 244.87 199.414 244.968 199.582C245 199.633 245.035 199.703 245.074 199.781C245.193 200.016 245.344 200.315 245.576 200.454C245.66 200.504 245.756 200.533 245.864 200.53C246.227 200.513 246.425 200.157 246.57 199.897C246.593 199.856 246.615 199.816 246.634 199.785C247.043 199.18 247.322 198.671 247.516 198.175C247.556 198.044 247.589 197.908 247.622 197.773C247.652 197.645 247.683 197.518 247.72 197.395C247.801 197.25 248.074 196.668 248.097 196.339C248.081 196.189 248.091 196.054 248.101 195.911C248.515 196.083 248.936 196.163 249.343 196.24C249.495 196.269 249.645 196.298 249.801 196.332C250.429 196.439 251.006 196.482 251.686 196.533L251.809 196.534C252.227 196.54 252.925 196.551 253.061 195.986L253.061 195.986Z" fill="white"/>
<g filter="url(#filter5_f_1747_1758)">
<circle cx="15.1541" cy="93.6722" r="5.7445" transform="rotate(-1.21526 15.1541 93.6722)" fill="white" fill-opacity="0.5"/>
</g>
<path d="M14.5028 86.2074L14.4945 86.2107C14.1698 86.346 14.1111 86.7364 14.068 87.0215C14.0576 87.0911 14.048 87.1559 14.0368 87.2049C13.9317 87.5663 13.8919 87.9057 13.8501 88.2649C13.8394 88.357 13.8285 88.451 13.8168 88.5432C13.7784 88.7665 13.7233 88.9811 13.6652 89.2082C13.5854 89.5189 13.5029 89.84 13.4674 90.1892C13.442 90.6374 13.3536 90.9301 13.1912 91.3377C13.1659 91.3903 13.1393 91.4563 13.1119 91.534C13.0717 91.5341 13.0313 91.542 12.9981 91.5663C12.9375 91.5962 12.8547 91.6249 12.8406 91.6308C12.5012 91.8012 12.1262 91.9566 11.6406 92.1291C11.4292 92.17 11.1511 92.2261 10.8721 92.2971C10.6517 92.3558 10.4376 92.4253 10.2303 92.4926C9.79295 92.6349 9.3798 92.7689 8.92927 92.7988C8.58832 92.8379 8.08751 92.9836 7.79889 93.207C7.72321 93.2593 7.65281 93.3267 7.60058 93.3972L7.59155 93.3944C7.5879 93.4033 7.58487 93.4117 7.5802 93.4254C7.55229 93.4672 7.53377 93.5042 7.52203 93.5407L7.51932 93.746L7.53748 93.7478C7.58126 94.065 7.88843 94.2407 8.17101 94.3973C8.2887 94.5249 8.47054 94.61 8.63607 94.68C8.75667 94.7505 8.87989 94.8171 9.00423 94.8846C9.13318 94.9542 9.26387 95.0251 9.38877 95.0982C9.52452 95.1906 9.65344 95.2684 9.77408 95.3317C9.86198 95.3878 9.948 95.445 10.0335 95.5019C10.3528 95.7145 10.683 95.9341 11.0938 96.0719C11.4796 96.1816 11.8737 96.3101 12.191 96.43C12.319 96.4602 12.44 96.4883 12.5755 96.5848C12.6067 96.5996 12.6655 96.6382 12.7144 96.6723C12.709 96.7523 12.7047 96.8315 12.7028 96.9049C12.6933 97.0072 12.6799 97.1096 12.6666 97.2118C12.6532 97.3151 12.64 97.4183 12.6296 97.5273C12.6165 97.8059 12.6292 98.0576 12.6414 98.3013C12.6534 98.5426 12.6651 98.7707 12.6523 99.0259C12.6545 99.1697 12.6328 99.3222 12.6097 99.4833C12.5865 99.6463 12.5573 99.8093 12.5654 99.9653L12.5609 100.016C12.5288 100.383 12.461 101.148 13.008 101.333C13.0398 101.341 13.0687 101.345 13.0954 101.346C13.1601 101.392 13.2404 101.422 13.3445 101.434C13.5013 101.432 13.6433 101.332 13.7471 101.26L13.8802 101.179C14.0857 101.06 14.3184 100.925 14.4964 100.741C14.8889 100.361 15.1618 99.931 15.4508 99.4762C15.5842 99.2667 15.7217 99.05 15.8738 98.8368C15.9222 98.764 15.9695 98.6884 16.0167 98.6126C16.3337 98.1056 16.6072 97.6675 17.2059 97.8845C17.4864 97.9862 17.7834 98.0722 18.0704 98.1556C18.4296 98.2597 18.8009 98.3676 19.1396 98.5058C19.924 98.8258 20.8132 99.1882 21.7348 99.0893C21.9702 99.064 22.123 98.973 22.1883 98.8191C22.3488 98.4425 21.8719 97.829 21.6427 97.5345L21.6043 97.487C21.4758 97.3624 21.3033 97.1688 21.2585 97.105L21.2354 97.0637C21.1821 96.9948 21.1199 96.9174 21.0579 96.8402C20.9989 96.7666 20.94 96.6934 20.8788 96.6161C20.6782 96.4214 20.3035 95.9924 20.3035 95.9929C20.2025 95.8621 20.1068 95.719 20.0142 95.5807C19.9191 95.4383 19.8209 95.2913 19.7146 95.1541C19.6607 95.0845 19.6146 95.0223 19.5687 94.9604L19.5433 94.9264C19.6592 94.7942 19.7755 94.6623 19.8935 94.532C20.1055 94.379 20.2836 94.1241 20.3826 93.9809L20.4817 93.8704C20.5561 93.7879 20.6309 93.7049 20.7083 93.6131C20.7987 93.4887 20.9159 93.3059 20.9689 93.1321C21.0238 93.0409 21.0777 92.9485 21.1332 92.8538L21.2771 92.6096C21.3345 92.5056 21.4694 92.3058 21.6119 92.0942C21.7928 91.8261 21.98 91.5485 22.0749 91.3709C22.1021 91.3144 22.1444 91.2456 22.1913 91.1689C22.3338 90.9362 22.5148 90.6411 22.5105 90.3613C22.509 90.2593 22.4828 90.1594 22.421 90.0655C22.2078 89.7561 21.7869 89.7754 21.4798 89.7894C21.4303 89.7916 21.3831 89.7939 21.3459 89.7946C20.591 89.7638 19.9909 89.795 19.4487 89.8943C19.3116 89.9308 19.1743 89.976 19.0373 90.021C18.9087 90.0635 18.78 90.1057 18.6513 90.1406C18.4798 90.1473 17.8195 90.2247 17.5169 90.3837C17.3932 90.4795 17.2691 90.5443 17.1382 90.6124C17.0636 90.1553 16.9048 89.7416 16.7511 89.3404C16.6941 89.1918 16.6372 89.0435 16.5824 88.8874C16.3342 88.277 16.0584 87.7457 15.7333 87.1199L15.6672 87.0106C15.4447 86.6399 15.0744 86.0194 14.5027 86.2075L14.5028 86.2074Z" fill="white"/>
<g filter="url(#filter6_f_1747_1758)">
<circle cx="500.774" cy="189.463" r="3.88348" transform="rotate(1.93411 500.774 189.463)" fill="white" fill-opacity="0.5"/>
</g>
<path d="M500.612 184.4L500.606 184.402C500.382 184.481 500.328 184.743 500.288 184.933C500.278 184.98 500.27 185.023 500.26 185.056C500.176 185.296 500.136 185.524 500.095 185.765C500.084 185.826 500.073 185.889 500.062 185.951C500.028 186.101 499.983 186.243 499.935 186.394C499.869 186.601 499.802 186.815 499.765 187.049C499.731 187.351 499.661 187.545 499.536 187.814C499.517 187.849 499.496 187.892 499.475 187.944C499.448 187.942 499.42 187.946 499.397 187.961C499.355 187.979 499.298 187.996 499.288 187.999C499.053 188.102 498.794 188.193 498.46 188.291C498.316 188.311 498.126 188.338 497.935 188.376C497.784 188.407 497.637 188.446 497.494 188.484C497.194 188.564 496.91 188.639 496.605 188.642C496.373 188.656 496.03 188.736 495.827 188.876C495.774 188.908 495.723 188.951 495.686 188.997L495.68 188.995C495.677 189 495.674 189.006 495.671 189.015C495.65 189.042 495.637 189.067 495.627 189.091L495.618 189.229L495.63 189.231C495.648 189.447 495.849 189.577 496.034 189.693C496.108 189.784 496.228 189.848 496.337 189.901C496.416 189.953 496.496 190.003 496.578 190.053C496.662 190.105 496.748 190.157 496.829 190.212C496.918 190.279 497.002 190.336 497.081 190.383C497.138 190.425 497.194 190.466 497.25 190.508C497.457 190.663 497.672 190.824 497.944 190.932C498.201 191.02 498.462 191.122 498.672 191.215C498.757 191.24 498.838 191.263 498.925 191.333C498.946 191.344 498.984 191.373 499.016 191.398C499.009 191.451 499.003 191.505 498.999 191.554C498.989 191.623 498.976 191.691 498.964 191.76C498.951 191.829 498.938 191.898 498.927 191.972C498.908 192.159 498.907 192.329 498.906 192.494C498.905 192.658 498.905 192.812 498.887 192.984C498.883 193.081 498.862 193.183 498.841 193.291C498.819 193.4 498.793 193.509 498.793 193.615L498.788 193.649C498.753 193.895 498.679 194.409 499.041 194.555C499.062 194.561 499.082 194.565 499.099 194.567C499.141 194.6 499.194 194.623 499.264 194.635C499.37 194.639 499.47 194.578 499.543 194.533L499.635 194.483C499.779 194.41 499.941 194.328 500.068 194.21C500.347 193.968 500.547 193.688 500.759 193.392C500.857 193.255 500.958 193.114 501.068 192.976C501.103 192.929 501.138 192.879 501.173 192.83C501.406 192.499 501.607 192.214 502.003 192.383C502.188 192.462 502.386 192.531 502.576 192.598C502.815 192.681 503.061 192.768 503.285 192.874C503.802 193.119 504.389 193.397 505.015 193.364C505.175 193.356 505.281 193.3 505.331 193.199C505.453 192.95 505.154 192.518 505.011 192.311L504.986 192.278C504.904 192.189 504.795 192.052 504.767 192.007L504.753 191.978C504.72 191.93 504.681 191.875 504.642 191.821C504.605 191.769 504.568 191.717 504.529 191.663C504.401 191.524 504.164 191.22 504.164 191.221C504.101 191.129 504.041 191.029 503.984 190.932C503.925 190.832 503.864 190.729 503.797 190.633C503.764 190.584 503.735 190.54 503.706 190.497L503.69 190.473C503.773 190.388 503.857 190.303 503.941 190.219C504.09 190.124 504.22 189.959 504.292 189.866L504.363 189.795C504.416 189.742 504.47 189.689 504.525 189.629C504.591 189.549 504.677 189.43 504.719 189.314C504.76 189.255 504.8 189.195 504.841 189.133L504.947 188.973C504.989 188.905 505.088 188.775 505.192 188.638C505.324 188.463 505.461 188.283 505.531 188.167C505.552 188.13 505.583 188.085 505.617 188.035C505.722 187.883 505.855 187.69 505.863 187.501C505.866 187.432 505.852 187.364 505.813 187.298C505.681 187.082 505.396 187.079 505.188 187.077C505.155 187.077 505.123 187.076 505.098 187.076C504.589 187.027 504.183 187.026 503.813 187.072C503.719 187.092 503.625 187.117 503.531 187.143C503.443 187.167 503.354 187.19 503.266 187.209C503.15 187.207 502.701 187.235 502.491 187.331C502.404 187.391 502.318 187.43 502.227 187.471C502.194 187.16 502.102 186.875 502.013 186.598C501.98 186.496 501.947 186.394 501.916 186.286C501.771 185.865 501.605 185.496 501.408 185.062L501.368 184.985C501.231 184.727 501.005 184.294 500.612 184.4L500.612 184.4Z" fill="white"/>
<path d="M242.642 92.0599L242.648 92.0604C242.881 92.0788 243.034 91.8659 243.146 91.7104C243.173 91.6724 243.199 91.637 243.22 91.6115C243.392 91.4296 243.518 91.2411 243.652 91.0414C243.686 90.9902 243.721 90.938 243.756 90.887C243.846 90.7666 243.944 90.6565 244.047 90.5399C244.188 90.3804 244.335 90.2156 244.461 90.0199C244.612 89.7627 244.753 89.6164 244.973 89.4247C245.004 89.4013 245.039 89.3703 245.079 89.3327C245.103 89.3448 245.129 89.3524 245.156 89.3481C245.201 89.3488 245.259 89.3569 245.269 89.3577C245.521 89.3599 245.79 89.3817 246.129 89.4269C246.267 89.4668 246.448 89.5179 246.635 89.5606C246.783 89.5927 246.93 89.6165 247.073 89.6395C247.375 89.688 247.66 89.734 247.935 89.8529C248.148 89.9332 248.489 89.9988 248.727 89.9542C248.788 89.9463 248.85 89.9278 248.902 89.9019L248.906 89.9063C248.911 89.9022 248.916 89.8981 248.923 89.8914C248.952 89.8752 248.974 89.8589 248.992 89.8409L249.056 89.7204L249.045 89.7138C249.116 89.513 248.987 89.316 248.868 89.1378C248.837 89.0267 248.755 88.9213 248.679 88.8297C248.629 88.7515 248.576 88.6748 248.523 88.5972C248.468 88.5169 248.412 88.4354 248.36 88.3543C248.308 88.2586 248.256 88.1735 248.203 88.0995C248.169 88.0397 248.135 87.9798 248.102 87.9203C247.977 87.6978 247.849 87.4679 247.648 87.2619C247.453 87.0801 247.259 86.8847 247.108 86.7177C247.041 86.661 246.978 86.6077 246.927 86.5095C246.913 86.4913 246.89 86.4508 246.872 86.4158C246.899 86.3701 246.926 86.3246 246.949 86.2818C246.986 86.2242 247.025 86.1677 247.063 86.1113C247.103 86.0543 247.142 85.9973 247.181 85.936C247.273 85.7753 247.342 85.6227 247.409 85.4749C247.475 85.3286 247.537 85.1902 247.622 85.0433C247.664 84.9576 247.723 84.874 247.786 84.7857C247.849 84.6965 247.915 84.609 247.958 84.5143L247.976 84.4857C248.106 84.2785 248.378 83.8469 248.111 83.5714C248.095 83.557 248.079 83.5463 248.063 83.5374C248.039 83.4904 248.001 83.4486 247.943 83.4099C247.849 83.3637 247.735 83.3794 247.652 83.3907L247.549 83.3982C247.391 83.4062 247.213 83.4156 247.052 83.4702C246.704 83.5763 246.413 83.7475 246.104 83.9287C245.962 84.0122 245.815 84.0986 245.66 84.1785C245.61 84.2069 245.559 84.2372 245.508 84.2677C245.167 84.4714 244.872 84.6474 244.584 84.3377C244.449 84.1925 244.3 84.0517 244.155 83.9153C243.974 83.7449 243.788 83.5686 243.629 83.3842C243.263 82.9573 242.847 82.4735 242.272 82.2526C242.125 82.1962 242.007 82.2037 241.922 82.2749C241.713 82.4489 241.809 82.956 241.855 83.1996L241.863 83.2393C241.902 83.352 241.945 83.5187 241.952 83.57L241.953 83.6014C241.964 83.6583 241.977 83.7229 241.99 83.7874C242.003 83.8487 242.016 83.9098 242.028 83.9741C242.088 84.15 242.179 84.5172 242.18 84.5169C242.2 84.6248 242.213 84.7384 242.226 84.8483C242.239 84.9612 242.252 85.0779 242.273 85.1912C242.284 85.2488 242.293 85.2995 242.301 85.35L242.306 85.3778C242.197 85.4208 242.088 85.4635 241.979 85.5048C241.807 85.531 241.625 85.6276 241.523 85.6823L241.431 85.7176C241.362 85.7438 241.292 85.7702 241.219 85.801C241.128 85.8471 241.003 85.9197 240.919 86.0063C240.859 86.0436 240.799 86.0819 240.738 86.121L240.578 86.2218C240.513 86.2659 240.373 86.3431 240.224 86.425C240.036 86.5286 239.841 86.6359 239.731 86.7122C239.698 86.7373 239.652 86.7652 239.601 86.7963C239.447 86.8907 239.25 87.0103 239.168 87.177C239.138 87.2377 239.123 87.3047 239.131 87.3789C239.163 87.6265 239.418 87.7426 239.604 87.8274C239.634 87.8412 239.662 87.8541 239.684 87.865C240.121 88.112 240.486 88.2754 240.836 88.3811C240.928 88.4011 241.023 88.416 241.118 88.4309C241.207 88.4448 241.296 88.4589 241.382 88.4773C241.486 88.5253 241.899 88.6797 242.126 88.6774C242.229 88.6583 242.322 88.6575 242.42 88.657C242.325 88.9498 242.294 89.2425 242.263 89.5263C242.252 89.6314 242.24 89.7363 242.225 89.8452C242.187 90.2812 242.189 90.6789 242.191 91.1474L242.197 91.2321C242.217 91.5186 242.247 91.9977 242.642 92.0598L242.642 92.0599Z" fill="white"/>
<path d="M392.2 126.552L392.196 126.55C392.021 126.506 391.876 126.649 391.771 126.753C391.745 126.778 391.721 126.802 391.702 126.819C391.547 126.935 391.426 127.062 391.299 127.197C391.266 127.232 391.232 127.267 391.199 127.302C391.115 127.382 391.026 127.453 390.932 127.529C390.804 127.632 390.671 127.739 390.549 127.871C390.401 128.048 390.274 128.141 390.082 128.259C390.055 128.273 390.024 128.292 389.989 128.315C389.972 128.303 389.953 128.294 389.932 128.294C389.898 128.287 389.855 128.274 389.847 128.272C389.655 128.237 389.453 128.186 389.2 128.107C389.101 128.059 388.969 127.997 388.832 127.94C388.724 127.896 388.614 127.859 388.508 127.823C388.284 127.747 388.073 127.675 387.879 127.548C387.726 127.46 387.475 127.365 387.288 127.369C387.241 127.367 387.191 127.373 387.148 127.386L387.145 127.382C387.141 127.384 387.137 127.387 387.131 127.391C387.106 127.4 387.087 127.409 387.071 127.421L387.007 127.504L387.014 127.511C386.934 127.655 387.007 127.821 387.075 127.973C387.084 128.062 387.132 128.153 387.179 128.232C387.207 128.298 387.237 128.364 387.268 128.43C387.299 128.498 387.331 128.567 387.36 128.636C387.387 128.716 387.416 128.787 387.447 128.851C387.466 128.901 387.483 128.951 387.501 129C387.567 129.186 387.635 129.378 387.762 129.561C387.887 129.725 388.009 129.899 388.103 130.046C388.146 130.098 388.188 130.147 388.214 130.228C388.222 130.244 388.234 130.278 388.244 130.307C388.217 130.338 388.191 130.37 388.168 130.399C388.132 130.438 388.095 130.476 388.058 130.514C388.021 130.553 387.984 130.591 387.946 130.633C387.855 130.743 387.783 130.851 387.713 130.955C387.643 131.058 387.578 131.155 387.494 131.256C387.451 131.316 387.395 131.372 387.336 131.432C387.276 131.491 387.214 131.55 387.169 131.616L387.152 131.636C387.026 131.777 386.762 132.071 386.93 132.315C386.941 132.328 386.952 132.339 386.962 132.347C386.975 132.386 386.999 132.423 387.038 132.46C387.103 132.508 387.192 132.51 387.257 132.513L387.337 132.52C387.458 132.535 387.595 132.551 387.725 132.53C388.004 132.494 388.248 132.401 388.507 132.303C388.626 132.258 388.75 132.211 388.878 132.17C388.92 132.155 388.963 132.138 389.005 132.122C389.292 132.011 389.539 131.915 389.719 132.188C389.803 132.316 389.899 132.443 389.991 132.566C390.107 132.719 390.226 132.878 390.323 133.039C390.548 133.412 390.802 133.835 391.212 134.078C391.316 134.14 391.407 134.149 391.481 134.106C391.663 134.001 391.656 133.601 391.652 133.41L391.651 133.378C391.636 133.287 391.625 133.155 391.626 133.115L391.629 133.091C391.629 133.046 391.627 132.995 391.625 132.944C391.624 132.896 391.622 132.847 391.62 132.797C391.598 132.655 391.576 132.363 391.576 132.363C391.574 132.278 391.579 132.19 391.583 132.105C391.588 132.017 391.593 131.926 391.591 131.837C391.591 131.792 391.591 131.752 391.591 131.712L391.591 131.69C391.679 131.672 391.768 131.653 391.856 131.636C391.991 131.638 392.142 131.588 392.227 131.56L392.302 131.545C392.358 131.534 392.414 131.523 392.475 131.509C392.55 131.485 392.654 131.446 392.73 131.391C392.78 131.37 392.831 131.349 392.883 131.327L393.017 131.271C393.073 131.246 393.19 131.205 393.314 131.162C393.471 131.107 393.633 131.05 393.727 131.007C393.755 130.992 393.794 130.976 393.837 130.959C393.967 130.907 394.132 130.842 394.217 130.725C394.248 130.683 394.268 130.634 394.271 130.576C394.279 130.383 394.099 130.262 393.969 130.173C393.948 130.158 393.928 130.145 393.912 130.134C393.611 129.889 393.354 129.717 393.101 129.591C393.033 129.564 392.963 129.54 392.892 129.516C392.826 129.494 392.761 129.472 392.697 129.447C392.624 129.397 392.329 129.225 392.155 129.198C392.075 129.199 392.004 129.188 391.929 129.175C392.039 128.964 392.101 128.745 392.161 128.533C392.184 128.454 392.206 128.375 392.231 128.294C392.317 127.967 392.367 127.663 392.426 127.306L392.432 127.241C392.455 127.02 392.493 126.65 392.2 126.552L392.2 126.552Z" fill="white"/>
<path d="M129.643 160.557L129.634 160.555C129.264 160.461 128.959 160.763 128.736 160.982C128.682 161.036 128.631 161.086 128.589 161.121C128.263 161.367 128.008 161.636 127.738 161.921C127.669 161.995 127.598 162.069 127.528 162.142C127.35 162.311 127.162 162.462 126.964 162.621C126.692 162.839 126.412 163.065 126.154 163.345C125.841 163.718 125.573 163.915 125.167 164.164C125.111 164.193 125.045 164.233 124.971 164.283C124.936 164.257 124.895 164.238 124.851 164.237C124.779 164.224 124.688 164.195 124.672 164.191C124.266 164.118 123.839 164.01 123.305 163.844C123.094 163.742 122.816 163.61 122.528 163.49C122.298 163.398 122.067 163.319 121.843 163.243C121.37 163.082 120.924 162.93 120.513 162.663C120.191 162.475 119.661 162.276 119.265 162.283C119.165 162.279 119.06 162.292 118.968 162.319L118.963 162.311C118.954 162.316 118.945 162.322 118.932 162.331C118.881 162.349 118.841 162.369 118.807 162.393L118.671 162.57L118.686 162.583C118.518 162.887 118.67 163.24 118.814 163.56C118.833 163.747 118.936 163.939 119.035 164.108C119.094 164.248 119.157 164.385 119.222 164.525C119.288 164.669 119.356 164.816 119.417 164.961C119.475 165.129 119.536 165.281 119.6 165.414C119.64 165.52 119.678 165.626 119.715 165.731C119.854 166.123 119.998 166.529 120.266 166.916C120.53 167.262 120.789 167.63 120.987 167.94C121.079 168.05 121.165 168.153 121.221 168.325C121.238 168.358 121.264 168.43 121.284 168.491C121.228 168.557 121.172 168.623 121.123 168.686C121.048 168.769 120.97 168.849 120.892 168.929C120.813 169.01 120.735 169.091 120.655 169.179C120.462 169.413 120.31 169.64 120.162 169.86C120.015 170.077 119.877 170.283 119.7 170.497C119.608 170.623 119.491 170.742 119.366 170.867C119.24 170.993 119.108 171.116 119.014 171.257L118.977 171.298C118.71 171.596 118.154 172.217 118.509 172.734C118.531 172.762 118.554 172.783 118.577 172.802C118.603 172.884 118.653 172.962 118.736 173.04C118.874 173.14 119.062 173.146 119.199 173.151L119.367 173.167C119.623 173.197 119.914 173.231 120.188 173.187C120.776 173.111 121.293 172.915 121.84 172.708C122.092 172.612 122.353 172.513 122.623 172.427C122.713 172.395 122.803 172.36 122.893 172.325C123.499 172.09 124.021 171.887 124.401 172.465C124.578 172.736 124.78 173.004 124.976 173.263C125.22 173.587 125.473 173.922 125.677 174.263C126.151 175.051 126.689 175.944 127.554 176.457C127.775 176.588 127.967 176.609 128.124 176.517C128.508 176.294 128.493 175.451 128.485 175.046L128.482 174.98C128.452 174.788 128.428 174.507 128.43 174.423L128.437 174.372C128.435 174.277 128.432 174.17 128.428 174.062C128.424 173.96 128.421 173.858 128.418 173.751C128.37 173.451 128.323 172.835 128.323 172.835C128.32 172.656 128.33 172.469 128.34 172.289C128.349 172.103 128.36 171.911 128.356 171.723C128.355 171.627 128.355 171.543 128.356 171.46L128.356 171.414C128.542 171.374 128.729 171.335 128.916 171.299C129.2 171.303 129.521 171.198 129.7 171.138L129.858 171.106C129.976 171.083 130.095 171.059 130.222 171.03C130.382 170.98 130.602 170.898 130.761 170.781C130.868 170.737 130.975 170.692 131.085 170.646L131.369 170.527C131.487 170.474 131.734 170.388 131.995 170.297C132.327 170.181 132.67 170.062 132.868 169.969C132.928 169.938 133.01 169.905 133.101 169.869C133.376 169.76 133.725 169.621 133.903 169.375C133.968 169.285 134.01 169.181 134.018 169.059C134.033 168.652 133.655 168.395 133.379 168.207C133.335 168.177 133.292 168.148 133.259 168.125C132.623 167.607 132.081 167.244 131.545 166.978C131.402 166.921 131.254 166.871 131.105 166.821C130.966 166.774 130.827 166.727 130.692 166.674C130.538 166.568 129.914 166.206 129.548 166.147C129.378 166.15 129.228 166.126 129.07 166.1C129.302 165.654 129.433 165.191 129.56 164.743C129.608 164.576 129.654 164.41 129.708 164.239C129.889 163.547 129.995 162.906 130.119 162.151L130.133 162.013C130.181 161.546 130.262 160.766 129.643 160.557L129.643 160.557Z" fill="white"/>
<g filter="url(#filter7_f_1747_1758)">
<circle cx="620.913" cy="120.727" r="9.73242" transform="rotate(0.393949 620.913 120.727)" fill="white" fill-opacity="0.5"/>
</g>
<g filter="url(#filter8_f_1747_1758)">
<circle cx="823.69" cy="115.356" r="5.83718" transform="rotate(0.393949 823.69 115.356)" fill="white" fill-opacity="0.5"/>
</g>
<path d="M826.93 123.077L826.937 123.072C827.211 122.856 827.163 122.467 827.127 122.183C827.119 122.114 827.11 122.049 827.108 121.999C827.112 121.626 827.059 121.291 827.002 120.937C826.988 120.846 826.973 120.753 826.96 120.662C826.936 120.438 826.931 120.219 826.926 119.986C826.919 119.668 826.912 119.339 826.852 118.996C826.756 118.561 826.762 118.258 826.808 117.825C826.818 117.768 826.826 117.698 826.831 117.616C826.87 117.605 826.906 117.587 826.932 117.555C826.981 117.51 827.053 117.46 827.065 117.451C827.343 117.197 827.66 116.948 828.078 116.653C828.269 116.557 828.519 116.429 828.767 116.287C828.962 116.172 829.147 116.048 829.327 115.928C829.707 115.675 830.066 115.436 830.488 115.287C830.804 115.158 831.243 114.885 831.459 114.594C831.517 114.524 831.566 114.44 831.597 114.359L831.607 114.359C831.608 114.35 831.608 114.341 831.609 114.327C831.625 114.279 831.632 114.239 831.634 114.201L831.581 114.004L831.564 114.007C831.437 113.716 831.096 113.63 830.784 113.557C830.638 113.466 830.441 113.434 830.264 113.411C830.13 113.376 829.995 113.346 829.858 113.314C829.716 113.282 829.572 113.25 829.433 113.213C829.279 113.161 829.135 113.122 829.002 113.094C828.903 113.064 828.806 113.032 828.709 113.001C828.347 112.883 827.973 112.762 827.543 112.74C827.145 112.739 826.734 112.722 826.399 112.692C826.269 112.697 826.146 112.703 825.99 112.647C825.957 112.641 825.89 112.62 825.834 112.601C825.818 112.523 825.801 112.446 825.783 112.376C825.765 112.275 825.75 112.174 825.735 112.073C825.72 111.97 825.705 111.868 825.686 111.761C825.624 111.492 825.544 111.255 825.467 111.025C825.391 110.798 825.319 110.583 825.263 110.336C825.222 110.199 825.202 110.048 825.181 109.887C825.16 109.726 825.144 109.562 825.094 109.415L825.085 109.365C825.017 109.006 824.877 108.257 824.305 108.227C824.272 108.228 824.244 108.232 824.218 108.238C824.144 108.211 824.059 108.204 823.956 108.221C823.807 108.265 823.698 108.398 823.618 108.495L823.513 108.608C823.348 108.777 823.162 108.968 823.042 109.191C822.769 109.66 822.623 110.144 822.469 110.655C822.398 110.891 822.324 111.135 822.236 111.38C822.209 111.462 822.184 111.547 822.16 111.632C821.993 112.201 821.849 112.693 821.219 112.646C820.923 112.624 820.617 112.622 820.32 112.619C819.949 112.616 819.566 112.612 819.205 112.571C818.37 112.476 817.423 112.368 816.569 112.709C816.351 112.796 816.23 112.924 816.209 113.089C816.156 113.492 816.776 113.95 817.074 114.17L817.123 114.205C817.28 114.289 817.496 114.428 817.556 114.477L817.589 114.51C817.659 114.562 817.739 114.619 817.819 114.676C817.895 114.731 817.971 114.785 818.05 114.842C818.294 114.975 818.767 115.284 818.766 115.284C818.898 115.381 819.028 115.493 819.153 115.6C819.282 115.71 819.416 115.824 819.554 115.927C819.624 115.979 819.685 116.026 819.745 116.073L819.778 116.099C819.703 116.256 819.627 116.413 819.55 116.569C819.388 116.772 819.286 117.063 819.23 117.227L819.165 117.359C819.116 117.458 819.067 117.557 819.017 117.666C818.964 117.809 818.901 118.015 818.897 118.195C818.869 118.297 818.843 118.399 818.815 118.505L818.743 118.777C818.716 118.891 818.641 119.118 818.561 119.359C818.46 119.663 818.356 119.979 818.313 120.174C818.302 120.235 818.28 120.312 818.256 120.398C818.182 120.658 818.088 120.989 818.167 121.255C818.196 121.352 818.248 121.44 818.332 121.513C818.619 121.752 819.015 121.621 819.305 121.525C819.352 121.51 819.396 121.495 819.432 121.484C820.161 121.311 820.726 121.121 821.217 120.881C821.339 120.809 821.458 120.729 821.576 120.649C821.688 120.574 821.799 120.499 821.913 120.432C822.075 120.379 822.685 120.128 822.932 119.895C823.024 119.771 823.125 119.675 823.232 119.575C823.426 119.992 823.688 120.345 823.943 120.687C824.037 120.813 824.131 120.94 824.225 121.074C824.626 121.591 825.032 122.025 825.51 122.535L825.603 122.622C825.914 122.916 826.435 123.41 826.93 123.077L826.93 123.077Z" fill="white"/>
<path d="M620.337 102.074L620.32 102.08C619.657 102.335 619.516 103.119 619.413 103.692C619.388 103.831 619.365 103.962 619.34 104.06C619.107 104.783 619.008 105.465 618.903 106.188C618.876 106.373 618.849 106.562 618.82 106.748C618.73 107.196 618.607 107.626 618.477 108.08C618.298 108.703 618.113 109.346 618.022 110.048C617.945 110.951 617.75 111.537 617.4 112.35C617.346 112.455 617.288 112.586 617.229 112.741C617.147 112.739 617.065 112.753 616.997 112.8C616.873 112.857 616.704 112.91 616.676 112.921C615.981 113.246 615.216 113.538 614.226 113.859C613.798 113.929 613.233 114.027 612.666 114.154C612.219 114.26 611.782 114.388 611.36 114.512C610.47 114.774 609.629 115.021 608.718 115.056C608.028 115.116 607.01 115.381 606.415 115.816C606.259 115.917 606.113 116.049 606.004 116.188L605.986 116.182C605.978 116.2 605.971 116.216 605.961 116.244C605.902 116.327 605.863 116.4 605.837 116.473L605.82 116.887L605.857 116.892C605.927 117.534 606.537 117.906 607.098 118.238C607.328 118.502 607.69 118.684 608.02 118.835C608.259 118.984 608.504 119.125 608.751 119.268C609.008 119.416 609.267 119.567 609.515 119.721C609.784 119.915 610.039 120.08 610.279 120.214C610.453 120.332 610.624 120.453 610.793 120.572C611.425 121.019 612.079 121.481 612.9 121.782C613.672 122.025 614.46 122.307 615.093 122.567C615.35 122.635 615.592 122.699 615.86 122.901C615.922 122.933 616.038 123.014 616.135 123.085C616.12 123.247 616.107 123.406 616.099 123.554C616.074 123.76 616.041 123.966 616.008 124.171C615.975 124.379 615.943 124.586 615.916 124.806C615.874 125.367 615.885 125.876 615.896 126.368C615.906 126.855 615.917 127.316 615.877 127.83C615.873 128.121 615.821 128.427 615.765 128.751C615.709 129.078 615.641 129.406 615.648 129.721L615.636 129.823C615.551 130.561 615.37 132.101 616.463 132.506C616.527 132.524 616.585 132.532 616.639 132.537C616.767 132.634 616.927 132.698 617.137 132.728C617.453 132.732 617.745 132.54 617.959 132.4L618.232 132.244C618.653 132.016 619.13 131.756 619.5 131.396C620.313 130.65 620.888 129.799 621.497 128.898C621.778 128.482 622.068 128.053 622.387 127.632C622.489 127.487 622.588 127.338 622.688 127.187C623.356 126.182 623.933 125.314 625.128 125.786C625.688 126.007 626.283 126.197 626.857 126.382C627.576 126.612 628.319 126.851 628.994 127.149C630.559 127.839 632.332 128.62 634.197 128.473C634.673 128.435 634.987 128.261 635.127 127.954C635.472 127.203 634.545 125.938 634.099 125.331L634.025 125.233C633.772 124.974 633.435 124.574 633.349 124.443L633.304 124.358C633.201 124.216 633.08 124.056 632.959 123.897C632.844 123.745 632.729 123.594 632.61 123.435C632.217 123.031 631.485 122.144 631.485 122.145C631.289 121.875 631.104 121.581 630.925 121.297C630.741 121.004 630.551 120.702 630.344 120.419C630.239 120.276 630.15 120.148 630.061 120.02L630.012 119.95C630.253 119.69 630.495 119.431 630.741 119.174C631.177 118.878 631.551 118.374 631.759 118.09L631.965 117.873C632.12 117.711 632.275 117.547 632.437 117.367C632.626 117.121 632.873 116.759 632.99 116.411C633.105 116.23 633.22 116.047 633.337 115.859L633.641 115.374C633.763 115.168 634.046 114.772 634.346 114.353C634.726 113.823 635.119 113.273 635.321 112.92C635.379 112.808 635.468 112.672 635.567 112.519C635.868 112.058 636.25 111.473 636.257 110.908C636.259 110.702 636.212 110.499 636.093 110.306C635.68 109.67 634.83 109.685 634.21 109.696C634.11 109.698 634.014 109.7 633.939 109.699C632.418 109.594 631.206 109.623 630.106 109.792C629.827 109.858 629.548 109.942 629.269 110.025C629.007 110.103 628.745 110.181 628.483 110.244C628.137 110.248 626.8 110.367 626.181 110.67C625.926 110.857 625.672 110.98 625.404 111.11C625.279 110.184 624.982 109.34 624.695 108.522C624.588 108.219 624.482 107.917 624.38 107.599C623.914 106.353 623.388 105.266 622.767 103.985L622.64 103.76C622.212 103 621.5 101.727 620.336 102.074L620.337 102.074Z" fill="#FFDFA0"/>
<g filter="url(#filter9_f_1747_1758)">
<circle cx="731.006" cy="193.85" r="4.24522" transform="rotate(0.393949 731.006 193.85)" fill="white" fill-opacity="0.5"/>
</g>
<path d="M734.81 186.821L734.803 186.819C734.523 186.74 734.285 186.962 734.111 187.124C734.069 187.164 734.029 187.201 733.997 187.227C733.744 187.407 733.544 187.606 733.333 187.817C733.279 187.871 733.223 187.926 733.169 187.979C733.029 188.104 732.884 188.215 732.73 188.332C732.519 188.492 732.301 188.657 732.099 188.865C731.853 189.142 731.645 189.286 731.332 189.466C731.288 189.487 731.237 189.516 731.18 189.552C731.154 189.532 731.123 189.516 731.089 189.515C731.035 189.503 730.967 189.479 730.955 189.476C730.648 189.412 730.326 189.32 729.923 189.183C729.765 189.101 729.557 188.995 729.34 188.897C729.167 188.822 728.993 188.758 728.825 188.695C728.469 188.563 728.133 188.438 727.826 188.226C727.586 188.076 727.187 187.914 726.886 187.91C726.811 187.905 726.73 187.913 726.66 187.932L726.656 187.925C726.649 187.929 726.643 187.933 726.633 187.94C726.593 187.952 726.562 187.967 726.536 187.984L726.429 188.116L726.44 188.126C726.306 188.354 726.414 188.625 726.517 188.871C726.527 189.014 726.601 189.162 726.673 189.292C726.714 189.4 726.76 189.506 726.806 189.613C726.853 189.724 726.902 189.837 726.945 189.948C726.985 190.078 727.029 190.194 727.074 190.297C727.102 190.378 727.129 190.459 727.155 190.54C727.252 190.841 727.353 191.152 727.548 191.452C727.742 191.721 727.931 192.006 728.074 192.246C728.142 192.331 728.205 192.411 728.244 192.543C728.256 192.569 728.274 192.624 728.288 192.671C728.244 192.72 728.201 192.769 728.162 192.816C728.103 192.877 728.042 192.936 727.981 192.995C727.919 193.055 727.858 193.115 727.795 193.181C727.644 193.354 727.523 193.523 727.406 193.687C727.29 193.849 727.181 194.003 727.042 194.161C726.97 194.255 726.877 194.343 726.78 194.435C726.681 194.529 726.579 194.619 726.504 194.724L726.475 194.755C726.266 194.975 725.83 195.435 726.089 195.836C726.105 195.857 726.122 195.874 726.139 195.889C726.157 195.952 726.194 196.012 726.255 196.073C726.358 196.152 726.5 196.161 726.604 196.167L726.732 196.183C726.926 196.212 727.146 196.243 727.355 196.216C727.804 196.171 728.201 196.033 728.621 195.887C728.814 195.82 729.014 195.75 729.222 195.69C729.291 195.668 729.36 195.643 729.429 195.619C729.894 195.453 730.296 195.31 730.572 195.757C730.701 195.967 730.849 196.175 730.992 196.376C731.171 196.627 731.355 196.887 731.504 197.15C731.847 197.76 732.236 198.45 732.883 198.858C733.048 198.962 733.193 198.982 733.314 198.916C733.611 198.755 733.617 198.114 733.62 197.806L733.62 197.755C733.6 197.609 733.588 197.395 733.592 197.331L733.598 197.292C733.599 197.22 733.598 197.139 733.598 197.057C733.597 196.979 733.597 196.901 733.597 196.82C733.567 196.591 733.545 196.122 733.544 196.122C733.546 195.986 733.558 195.844 733.569 195.707C733.58 195.566 733.592 195.421 733.593 195.278C733.594 195.205 733.596 195.141 733.599 195.078L733.599 195.043C733.742 195.017 733.885 194.991 734.028 194.967C734.244 194.977 734.489 194.903 734.627 194.862L734.748 194.841C734.838 194.826 734.929 194.81 735.026 194.791C735.148 194.757 735.318 194.698 735.441 194.613C735.523 194.582 735.606 194.55 735.69 194.518L735.908 194.433C735.999 194.396 736.188 194.336 736.389 194.272C736.643 194.191 736.907 194.108 737.059 194.041C737.106 194.019 737.168 193.996 737.238 193.97C737.449 193.893 737.718 193.795 737.858 193.612C737.91 193.545 737.944 193.467 737.952 193.375C737.973 193.065 737.691 192.862 737.485 192.714C737.452 192.69 737.42 192.667 737.396 192.648C736.923 192.241 736.519 191.954 736.118 191.74C736.011 191.694 735.899 191.652 735.787 191.611C735.682 191.573 735.577 191.534 735.476 191.491C735.362 191.407 734.895 191.119 734.618 191.066C734.489 191.065 734.375 191.043 734.256 191.02C734.442 190.686 734.551 190.337 734.657 189.999C734.697 189.874 734.736 189.749 734.781 189.62C734.933 189.098 735.027 188.613 735.138 188.042L735.151 187.937C735.197 187.583 735.276 186.992 734.809 186.821L734.81 186.821Z" fill="white"/>
</g>
<defs>
<filter id="filter0_f_1747_1758" x="-756.903" y="-120.239" width="2470.06" height="591.818" filterUnits="userSpaceOnUse" color-interpolation-filters="sRGB">
<feFlood flood-opacity="0" result="BackgroundImageFix"/>
<feBlend mode="normal" in="SourceGraphic" in2="BackgroundImageFix" result="shape"/>
<feGaussianBlur stdDeviation="45.85" result="effect1_foregroundBlur_1747_1758"/>
</filter>
<filter id="filter1_f_1747_1758" x="107.116" y="149.944" width="36.7859" height="36.7859" filterUnits="userSpaceOnUse" color-interpolation-filters="sRGB">
<feFlood flood-opacity="0" result="BackgroundImageFix"/>
<feBlend mode="normal" in="SourceGraphic" in2="BackgroundImageFix" result="shape"/>
<feGaussianBlur stdDeviation="6.55" result="effect1_foregroundBlur_1747_1758"/>
</filter>
<filter id="filter2_f_1747_1758" x="229.885" y="176.243" width="33.8987" height="33.8987" filterUnits="userSpaceOnUse" color-interpolation-filters="sRGB">
<feFlood flood-opacity="0" result="BackgroundImageFix"/>
<feBlend mode="normal" in="SourceGraphic" in2="BackgroundImageFix" result="shape"/>
<feGaussianBlur stdDeviation="6.55" result="effect1_foregroundBlur_1747_1758"/>
</filter>
<filter id="filter3_f_1747_1758" x="227.66" y="71.3692" width="33.8987" height="33.8987" filterUnits="userSpaceOnUse" color-interpolation-filters="sRGB">
<feFlood flood-opacity="0" result="BackgroundImageFix"/>
<feBlend mode="normal" in="SourceGraphic" in2="BackgroundImageFix" result="shape"/>
<feGaussianBlur stdDeviation="6.55" result="effect1_foregroundBlur_1747_1758"/>
</filter>
<filter id="filter4_f_1747_1758" x="374.885" y="114.45" width="33.8987" height="33.8987" filterUnits="userSpaceOnUse" color-interpolation-filters="sRGB">
<feFlood flood-opacity="0" result="BackgroundImageFix"/>
<feBlend mode="normal" in="SourceGraphic" in2="BackgroundImageFix" result="shape"/>
<feGaussianBlur stdDeviation="6.55" result="effect1_foregroundBlur_1747_1758"/>
</filter>
<filter id="filter5_f_1747_1758" x="-15.0903" y="63.4277" width="60.489" height="60.4888" filterUnits="userSpaceOnUse" color-interpolation-filters="sRGB">
<feFlood flood-opacity="0" result="BackgroundImageFix"/>
<feBlend mode="normal" in="SourceGraphic" in2="BackgroundImageFix" result="shape"/>
<feGaussianBlur stdDeviation="12.25" result="effect1_foregroundBlur_1747_1758"/>
</filter>
<filter id="filter6_f_1747_1758" x="472.391" y="161.08" width="56.7671" height="56.7671" filterUnits="userSpaceOnUse" color-interpolation-filters="sRGB">
<feFlood flood-opacity="0" result="BackgroundImageFix"/>
<feBlend mode="normal" in="SourceGraphic" in2="BackgroundImageFix" result="shape"/>
<feGaussianBlur stdDeviation="12.25" result="effect1_foregroundBlur_1747_1758"/>
</filter>
<filter id="filter7_f_1747_1758" x="586.681" y="86.4951" width="68.4648" height="68.4648" filterUnits="userSpaceOnUse" color-interpolation-filters="sRGB">
<feFlood flood-opacity="0" result="BackgroundImageFix"/>
<feBlend mode="normal" in="SourceGraphic" in2="BackgroundImageFix" result="shape"/>
<feGaussianBlur stdDeviation="12.25" result="effect1_foregroundBlur_1747_1758"/>
</filter>
<filter id="filter8_f_1747_1758" x="804.753" y="96.4186" width="37.8743" height="37.8743" filterUnits="userSpaceOnUse" color-interpolation-filters="sRGB">
<feFlood flood-opacity="0" result="BackgroundImageFix"/>
<feBlend mode="normal" in="SourceGraphic" in2="BackgroundImageFix" result="shape"/>
<feGaussianBlur stdDeviation="6.55" result="effect1_foregroundBlur_1747_1758"/>
</filter>
<filter id="filter9_f_1747_1758" x="713.661" y="176.505" width="34.6905" height="34.6902" filterUnits="userSpaceOnUse" color-interpolation-filters="sRGB">
<feFlood flood-opacity="0" result="BackgroundImageFix"/>
<feBlend mode="normal" in="SourceGraphic" in2="BackgroundImageFix" result="shape"/>
<feGaussianBlur stdDeviation="6.55" result="effect1_foregroundBlur_1747_1758"/>
</filter>
<linearGradient id="paint0_linear_1747_1758" x1="518.5" y1="-176.27" x2="476.353" y2="567.715" gradientUnits="userSpaceOnUse">
<stop stop-color="#46409C"/>
<stop offset="1" stop-color="#635ACE"/>
</linearGradient>
<linearGradient id="paint1_linear_1747_1758" x1="518.5" y1="-176.27" x2="476.353" y2="567.715" gradientUnits="userSpaceOnUse">
<stop stop-color="#46409C"/>
<stop offset="1" stop-color="#635ACE"/>
</linearGradient>
<linearGradient id="paint2_linear_1747_1758" x1="1677.24" y1="30.4128" x2="263.184" y2="1309.08" gradientUnits="userSpaceOnUse">
<stop stop-color="#4D46A7"/>
<stop offset="0.49" stop-color="#5574E0"/>
<stop offset="1" stop-color="#5D57C4"/>
</linearGradient>
<clipPath id="clip0_1747_1758">
<rect width="1920" height="402" fill="white" transform="translate(-470)"/>
</clipPath>
<clipPath id="clip1_1747_1758">
<rect width="1921" height="592" fill="white" transform="translate(-470)"/>
</clipPath>
</defs>
</svg>
