<svg width="1920" height="592" viewBox="0 0 1920 592" fill="none" xmlns="http://www.w3.org/2000/svg">
<path d="M1921 -90V432.149C1620.5 407.478 1278.25 496.868 960.5 446.142C635.196 394.21 333 465.658 0 422.207V-90H1921Z" fill="url(#paint0_linear_1650_822)"/>
<g clip-path="url(#clip0_1650_822)">
<g filter="url(#filter0_f_1650_822)">
<path d="M-141 237C56.2648 133.314 1260.86 447.258 2041.5 76.7062" stroke="url(#paint1_linear_1650_822)" stroke-width="233"/>
</g>
</g>
<g filter="url(#filter1_f_1650_822)">
<circle cx="257.127" cy="98.5086" r="5.29297" transform="rotate(-1.21526 257.127 98.5086)" fill="white" fill-opacity="0.5"/>
</g>
<g filter="url(#filter2_f_1650_822)">
<circle cx="595.509" cy="168.337" r="5.29297" transform="rotate(-1.21526 595.509 168.337)" fill="white" fill-opacity="0.5"/>
</g>
<g filter="url(#filter3_f_1650_822)">
<circle cx="338.942" cy="211.801" r="3.84943" transform="rotate(-1.21526 338.942 211.801)" fill="white" fill-opacity="0.5"/>
</g>
<g filter="url(#filter4_f_1650_822)">
<circle cx="716.835" cy="193.193" r="3.84943" transform="rotate(-1.21526 716.835 193.193)" fill="white" fill-opacity="0.5"/>
</g>
<g filter="url(#filter5_f_1650_822)">
<circle cx="714.611" cy="88.3197" r="3.84943" transform="rotate(-1.21526 714.611 88.3197)" fill="white" fill-opacity="0.5"/>
</g>
<g filter="url(#filter6_f_1650_822)">
<circle cx="861.835" cy="131.4" r="3.84943" transform="rotate(-1.21526 861.835 131.4)" fill="white" fill-opacity="0.5"/>
</g>
<path d="M264.248 101.731L264.249 101.723C264.299 101.411 264.029 101.181 263.831 101.013C263.783 100.972 263.738 100.934 263.705 100.902C263.479 100.651 263.238 100.46 262.983 100.257C262.917 100.206 262.851 100.153 262.786 100.1C262.633 99.9652 262.495 99.8214 262.349 99.6694C262.149 99.4612 261.942 99.2461 261.692 99.0536C261.361 98.822 261.179 98.6158 260.944 98.2986C260.916 98.2542 260.878 98.2027 260.831 98.1449C260.85 98.1141 260.864 98.0795 260.861 98.0426C260.866 97.9821 260.884 97.9051 260.886 97.8915C260.916 97.5512 260.975 97.1908 261.073 96.7376C261.142 96.5565 261.23 96.3172 261.308 96.0701C261.368 95.8738 261.416 95.677 261.463 95.4866C261.561 95.0846 261.654 94.7051 261.844 94.3463C261.976 94.067 262.101 93.6148 262.067 93.2883C262.063 93.2056 262.045 93.1198 262.016 93.0465L262.022 93.0409C262.017 93.034 262.012 93.0277 262.004 93.0175C261.985 92.9764 261.965 92.9447 261.943 92.9185L261.787 92.8192L261.777 92.8323C261.514 92.7156 261.234 92.8673 260.98 93.0094C260.827 93.039 260.676 93.1378 260.544 93.2313C260.433 93.2902 260.324 93.3529 260.213 93.4161C260.099 93.4818 259.983 93.5482 259.868 93.6091C259.733 93.6692 259.612 93.731 259.507 93.7933C259.422 93.834 259.338 93.8727 259.254 93.9113C258.94 94.0548 258.615 94.2035 258.315 94.4525C258.049 94.6957 257.764 94.9364 257.522 95.1223C257.438 95.2059 257.359 95.2852 257.222 95.3432C257.195 95.36 257.138 95.3867 257.089 95.408C257.03 95.366 256.972 95.3251 256.916 95.289C256.843 95.2333 256.771 95.1745 256.699 95.116C256.626 95.0568 256.553 94.9978 256.475 94.9383C256.268 94.7964 256.069 94.6869 255.877 94.5808C255.687 94.4758 255.507 94.3767 255.318 94.2461C255.207 94.1797 255.1 94.0909 254.988 93.997C254.874 93.9021 254.763 93.8025 254.64 93.7348L254.604 93.7074C254.338 93.5091 253.785 93.0951 253.384 93.4257C253.363 93.4462 253.347 93.4668 253.333 93.4865C253.267 93.5141 253.206 93.5615 253.148 93.6354C253.075 93.7565 253.084 93.9122 253.09 94.0258L253.089 94.1659C253.083 94.3795 253.076 94.6216 253.132 94.8446C253.238 95.3252 253.437 95.7373 253.648 96.1738C253.745 96.375 253.846 96.5828 253.937 96.8001C253.97 96.8716 254.005 96.9436 254.041 97.0156C254.279 97.4981 254.484 97.9148 254.035 98.2701C253.824 98.4365 253.618 98.623 253.418 98.803C253.168 99.0285 252.91 99.2615 252.644 99.4552C252.028 99.9038 251.33 100.412 250.969 101.164C250.877 101.356 250.874 101.516 250.961 101.639C251.173 101.94 251.868 101.866 252.202 101.83L252.256 101.823C252.413 101.784 252.642 101.744 252.712 101.739L252.755 101.741C252.833 101.733 252.922 101.722 253.01 101.711C253.094 101.701 253.178 101.691 253.266 101.68C253.51 101.619 254.016 101.536 254.015 101.535C254.163 101.52 254.318 101.515 254.468 101.509C254.622 101.504 254.781 101.498 254.936 101.482C255.015 101.474 255.084 101.468 255.153 101.462L255.191 101.459C255.237 101.61 255.283 101.761 255.327 101.913C255.344 102.148 255.454 102.405 255.517 102.549L255.555 102.677C255.583 102.773 255.611 102.869 255.644 102.972C255.697 103.1 255.781 103.276 255.889 103.399C255.933 103.484 255.978 103.569 256.024 103.656L256.143 103.882C256.195 103.975 256.284 104.173 256.378 104.382C256.498 104.648 256.622 104.922 256.712 105.079C256.743 105.126 256.775 105.191 256.812 105.264C256.922 105.483 257.063 105.761 257.279 105.89C257.357 105.937 257.446 105.965 257.547 105.962C257.885 105.945 258.069 105.614 258.204 105.372C258.226 105.334 258.247 105.296 258.264 105.268C258.645 104.705 258.905 104.231 259.086 103.769C259.123 103.647 259.153 103.52 259.183 103.394C259.212 103.276 259.24 103.157 259.275 103.042C259.351 102.908 259.604 102.366 259.626 102.059C259.611 101.919 259.62 101.794 259.63 101.661C260.015 101.821 260.407 101.895 260.787 101.968C260.927 101.994 261.068 102.021 261.213 102.053C261.797 102.152 262.334 102.193 262.967 102.24L263.082 102.241C263.471 102.247 264.121 102.257 264.248 101.731L264.248 101.731Z" fill="white"/>
<path d="M723.062 195.987L723.064 195.979C723.118 195.643 722.827 195.396 722.615 195.216C722.563 195.172 722.514 195.131 722.48 195.097C722.236 194.827 721.978 194.622 721.704 194.405C721.633 194.349 721.562 194.292 721.492 194.236C721.328 194.091 721.18 193.936 721.023 193.773C720.808 193.549 720.586 193.318 720.317 193.111C719.962 192.863 719.766 192.641 719.514 192.301C719.484 192.253 719.443 192.197 719.393 192.136C719.413 192.102 719.427 192.065 719.424 192.026C719.43 191.961 719.449 191.878 719.451 191.863C719.484 191.498 719.547 191.111 719.652 190.624C719.726 190.429 719.821 190.172 719.905 189.907C719.969 189.696 720.021 189.485 720.071 189.28C720.176 188.849 720.276 188.441 720.481 188.056C720.622 187.755 720.757 187.27 720.72 186.919C720.716 186.83 720.696 186.738 720.665 186.659L720.672 186.653C720.666 186.646 720.661 186.639 720.652 186.628C720.632 186.584 720.611 186.55 720.587 186.522L720.419 186.415L720.409 186.429C720.126 186.304 719.825 186.467 719.553 186.62C719.388 186.651 719.226 186.757 719.084 186.858C718.965 186.921 718.847 186.989 718.729 187.056C718.606 187.127 718.481 187.198 718.358 187.264C718.213 187.328 718.083 187.395 717.97 187.462C717.879 187.505 717.788 187.547 717.698 187.588C717.361 187.742 717.013 187.902 716.691 188.17C716.404 188.431 716.098 188.689 715.838 188.889C715.748 188.979 715.664 189.064 715.516 189.126C715.488 189.144 715.426 189.173 715.373 189.196C715.31 189.151 715.247 189.107 715.188 189.068C715.109 189.008 715.031 188.945 714.954 188.882C714.876 188.819 714.798 188.755 714.714 188.691C714.491 188.539 714.278 188.421 714.072 188.307C713.867 188.195 713.674 188.088 713.471 187.948C713.351 187.877 713.237 187.781 713.116 187.68C712.994 187.578 712.875 187.471 712.743 187.399L712.704 187.369C712.418 187.156 711.824 186.712 711.394 187.067C711.371 187.089 711.354 187.111 711.339 187.132C711.268 187.162 711.203 187.213 711.14 187.292C711.062 187.422 711.072 187.589 711.078 187.711L711.077 187.862C711.07 188.091 711.063 188.351 711.123 188.591C711.237 189.107 711.451 189.55 711.678 190.018C711.782 190.234 711.89 190.458 711.988 190.691C712.023 190.768 712.061 190.845 712.099 190.922C712.355 191.441 712.576 191.888 712.093 192.27C711.867 192.449 711.645 192.649 711.43 192.842C711.162 193.085 710.885 193.335 710.599 193.543C709.937 194.025 709.187 194.571 708.8 195.379C708.701 195.585 708.698 195.757 708.791 195.889C709.019 196.212 709.766 196.132 710.124 196.094L710.183 196.086C710.35 196.044 710.597 196.001 710.672 195.996L710.718 195.998C710.802 195.99 710.897 195.978 710.992 195.966C711.083 195.955 711.173 195.944 711.267 195.933C711.529 195.867 712.072 195.777 712.072 195.777C712.231 195.761 712.397 195.755 712.558 195.749C712.723 195.743 712.894 195.737 713.061 195.72C713.145 195.711 713.22 195.705 713.294 195.698L713.335 195.695C713.384 195.857 713.434 196.02 713.481 196.183C713.499 196.435 713.618 196.711 713.685 196.865L713.725 197.003C713.755 197.106 713.785 197.21 713.821 197.32C713.878 197.457 713.968 197.647 714.084 197.779C714.131 197.87 714.18 197.962 714.229 198.055L714.357 198.298C714.413 198.398 714.509 198.61 714.61 198.835C714.738 199.12 714.871 199.415 714.969 199.583C715.001 199.634 715.036 199.704 715.076 199.782C715.194 200.017 715.345 200.316 715.577 200.455C715.662 200.505 715.757 200.534 715.865 200.531C716.228 200.514 716.426 200.158 716.571 199.898C716.594 199.857 716.616 199.817 716.635 199.786C717.044 199.181 717.324 198.672 717.518 198.176C717.557 198.045 717.59 197.909 717.623 197.774C717.653 197.646 717.684 197.519 717.721 197.396C717.803 197.251 718.075 196.669 718.098 196.34C718.082 196.19 718.092 196.055 718.103 195.912C718.516 196.084 718.937 196.164 719.345 196.241C719.496 196.27 719.647 196.299 719.803 196.333C720.43 196.44 721.007 196.483 721.687 196.534L721.81 196.535C722.228 196.541 722.926 196.552 723.062 195.987L723.062 195.987Z" fill="white"/>
<g filter="url(#filter7_f_1650_822)">
<circle cx="485.154" cy="93.6722" r="5.7445" transform="rotate(-1.21526 485.154 93.6722)" fill="white" fill-opacity="0.5"/>
</g>
<path d="M484.503 86.2074L484.495 86.2107C484.17 86.346 484.111 86.7364 484.068 87.0215C484.058 87.0911 484.048 87.1559 484.037 87.2049C483.932 87.5663 483.892 87.9057 483.85 88.2649C483.839 88.357 483.828 88.451 483.817 88.5432C483.778 88.7665 483.723 88.9811 483.665 89.2082C483.585 89.5189 483.503 89.84 483.467 90.1892C483.442 90.6374 483.354 90.9301 483.191 91.3377C483.166 91.3903 483.139 91.4563 483.112 91.534C483.072 91.5341 483.031 91.542 482.998 91.5663C482.938 91.5962 482.855 91.6249 482.841 91.6308C482.501 91.8012 482.126 91.9566 481.641 92.1291C481.429 92.17 481.151 92.2261 480.872 92.2971C480.652 92.3558 480.438 92.4253 480.23 92.4926C479.793 92.6349 479.38 92.7689 478.929 92.7988C478.588 92.8379 478.088 92.9836 477.799 93.207C477.723 93.2593 477.653 93.3267 477.601 93.3972L477.592 93.3944C477.588 93.4033 477.585 93.4117 477.58 93.4254C477.552 93.4672 477.534 93.5042 477.522 93.5407L477.519 93.746L477.537 93.7478C477.581 94.065 477.888 94.2407 478.171 94.3973C478.289 94.5249 478.471 94.61 478.636 94.68C478.757 94.7505 478.88 94.8171 479.004 94.8846C479.133 94.9542 479.264 95.0251 479.389 95.0982C479.525 95.1906 479.653 95.2684 479.774 95.3317C479.862 95.3878 479.948 95.445 480.034 95.5019C480.353 95.7145 480.683 95.9341 481.094 96.0719C481.48 96.1816 481.874 96.3101 482.191 96.43C482.319 96.4602 482.44 96.4883 482.576 96.5848C482.607 96.5996 482.665 96.6382 482.714 96.6723C482.709 96.7523 482.705 96.8315 482.703 96.9049C482.693 97.0072 482.68 97.1096 482.667 97.2118C482.653 97.3151 482.64 97.4183 482.63 97.5273C482.617 97.8059 482.629 98.0576 482.641 98.3013C482.653 98.5426 482.665 98.7707 482.652 99.0259C482.654 99.1697 482.633 99.3222 482.61 99.4833C482.587 99.6463 482.557 99.8093 482.565 99.9653L482.561 100.016C482.529 100.383 482.461 101.148 483.008 101.333C483.04 101.341 483.069 101.345 483.095 101.346C483.16 101.392 483.24 101.422 483.344 101.434C483.501 101.432 483.643 101.332 483.747 101.26L483.88 101.179C484.086 101.06 484.318 100.925 484.496 100.741C484.889 100.361 485.162 99.931 485.451 99.4762C485.584 99.2667 485.722 99.05 485.874 98.8368C485.922 98.764 485.969 98.6884 486.017 98.6126C486.334 98.1056 486.607 97.6675 487.206 97.8845C487.486 97.9862 487.783 98.0722 488.07 98.1556C488.43 98.2597 488.801 98.3676 489.14 98.5058C489.924 98.8258 490.813 99.1882 491.735 99.0893C491.97 99.064 492.123 98.973 492.188 98.8191C492.349 98.4425 491.872 97.829 491.643 97.5345L491.604 97.487C491.476 97.3624 491.303 97.1688 491.259 97.105L491.235 97.0637C491.182 96.9948 491.12 96.9174 491.058 96.8402C490.999 96.7666 490.94 96.6934 490.879 96.6161C490.678 96.4214 490.304 95.9924 490.304 95.9929C490.202 95.8621 490.107 95.719 490.014 95.5807C489.919 95.4383 489.821 95.2913 489.715 95.1541C489.661 95.0845 489.615 95.0223 489.569 94.9604L489.543 94.9264C489.659 94.7942 489.776 94.6623 489.894 94.532C490.105 94.379 490.284 94.1241 490.383 93.9809L490.482 93.8704C490.556 93.7879 490.631 93.7049 490.708 93.6131C490.799 93.4887 490.916 93.3059 490.969 93.1321C491.024 93.0409 491.078 92.9485 491.133 92.8538L491.277 92.6096C491.334 92.5056 491.469 92.3058 491.612 92.0942C491.793 91.8261 491.98 91.5485 492.075 91.3709C492.102 91.3144 492.144 91.2456 492.191 91.1689C492.334 90.9362 492.515 90.6411 492.511 90.3613C492.509 90.2593 492.483 90.1594 492.421 90.0655C492.208 89.7561 491.787 89.7754 491.48 89.7894C491.43 89.7916 491.383 89.7939 491.346 89.7946C490.591 89.7638 489.991 89.795 489.449 89.8943C489.312 89.9308 489.174 89.976 489.037 90.021C488.909 90.0635 488.78 90.1057 488.651 90.1406C488.48 90.1473 487.819 90.2247 487.517 90.3837C487.393 90.4795 487.269 90.5443 487.138 90.6124C487.064 90.1553 486.905 89.7416 486.751 89.3404C486.694 89.1918 486.637 89.0435 486.582 88.8874C486.334 88.277 486.058 87.7457 485.733 87.1199L485.667 87.0106C485.445 86.6399 485.074 86.0194 484.503 86.2075L484.503 86.2074Z" fill="white"/>
<g filter="url(#filter8_f_1650_822)">
<circle cx="970.776" cy="189.464" r="3.88348" transform="rotate(1.93411 970.776 189.464)" fill="white" fill-opacity="0.5"/>
</g>
<path d="M970.613 184.401L970.607 184.403C970.383 184.482 970.329 184.744 970.289 184.934C970.28 184.981 970.271 185.024 970.261 185.057C970.177 185.297 970.138 185.525 970.096 185.766C970.085 185.827 970.074 185.89 970.063 185.952C970.029 186.102 969.984 186.244 969.936 186.395C969.871 186.602 969.803 186.816 969.766 187.05C969.732 187.352 969.662 187.546 969.537 187.815C969.518 187.85 969.498 187.893 969.476 187.945C969.449 187.943 969.422 187.947 969.398 187.962C969.356 187.98 969.299 187.997 969.29 188C969.054 188.103 968.795 188.194 968.461 188.292C968.317 188.312 968.127 188.339 967.936 188.377C967.785 188.408 967.638 188.447 967.495 188.485C967.195 188.565 966.911 188.64 966.606 188.643C966.374 188.657 966.031 188.737 965.828 188.877C965.775 188.909 965.725 188.952 965.687 188.998L965.681 188.996C965.678 189.001 965.676 189.007 965.672 189.016C965.652 189.043 965.638 189.068 965.628 189.092L965.619 189.23L965.631 189.232C965.649 189.448 965.85 189.578 966.035 189.694C966.109 189.785 966.229 189.849 966.338 189.902C966.417 189.954 966.498 190.004 966.579 190.054C966.664 190.106 966.749 190.158 966.831 190.212C966.919 190.28 967.003 190.337 967.082 190.384C967.139 190.426 967.195 190.467 967.251 190.509C967.459 190.664 967.673 190.825 967.945 190.933C968.202 191.021 968.463 191.123 968.673 191.216C968.758 191.241 968.839 191.264 968.927 191.334C968.947 191.345 968.985 191.374 969.017 191.399C969.01 191.452 969.005 191.506 969.001 191.555C968.99 191.624 968.978 191.692 968.965 191.761C968.952 191.83 968.939 191.899 968.928 191.972C968.909 192.16 968.908 192.33 968.907 192.495C968.906 192.659 968.906 192.813 968.888 192.985C968.884 193.082 968.864 193.184 968.842 193.292C968.82 193.401 968.795 193.51 968.794 193.616L968.789 193.65C968.754 193.896 968.68 194.41 969.042 194.556C969.063 194.562 969.083 194.566 969.101 194.568C969.143 194.601 969.196 194.624 969.266 194.636C969.371 194.64 969.471 194.579 969.544 194.534L969.637 194.484C969.78 194.411 969.942 194.329 970.069 194.211C970.348 193.969 970.548 193.689 970.76 193.393C970.858 193.256 970.959 193.115 971.069 192.977C971.105 192.93 971.139 192.88 971.174 192.831C971.407 192.5 971.608 192.215 972.004 192.384C972.189 192.463 972.387 192.532 972.577 192.599C972.816 192.682 973.063 192.769 973.286 192.875C973.804 193.12 974.39 193.398 975.016 193.365C975.176 193.357 975.283 193.301 975.332 193.2C975.455 192.951 975.156 192.519 975.012 192.312L974.988 192.279C974.906 192.19 974.796 192.053 974.768 192.008L974.754 191.979C974.721 191.931 974.682 191.876 974.643 191.822C974.606 191.77 974.569 191.718 974.53 191.664C974.402 191.525 974.165 191.221 974.165 191.222C974.102 191.13 974.042 191.03 973.985 190.933C973.926 190.833 973.865 190.73 973.799 190.634C973.765 190.585 973.736 190.541 973.707 190.498L973.692 190.474C973.775 190.389 973.858 190.304 973.943 190.22C974.091 190.125 974.221 189.96 974.293 189.867L974.364 189.796C974.417 189.743 974.471 189.69 974.527 189.63C974.592 189.55 974.678 189.431 974.72 189.315C974.761 189.256 974.801 189.196 974.842 189.134L974.948 188.974C974.991 188.906 975.089 188.776 975.193 188.639C975.325 188.464 975.462 188.284 975.532 188.168C975.553 188.131 975.584 188.086 975.619 188.036C975.723 187.884 975.856 187.691 975.864 187.502C975.867 187.433 975.853 187.365 975.815 187.299C975.682 187.083 975.397 187.08 975.19 187.078C975.156 187.078 975.124 187.077 975.099 187.077C974.59 187.028 974.184 187.027 973.815 187.073C973.721 187.093 973.626 187.118 973.532 187.144C973.444 187.168 973.355 187.191 973.267 187.21C973.151 187.208 972.703 187.236 972.492 187.332C972.405 187.392 972.319 187.431 972.228 187.472C972.195 187.161 972.103 186.876 972.014 186.599C971.981 186.497 971.948 186.395 971.917 186.287C971.772 185.866 971.606 185.497 971.41 185.063L971.369 184.986C971.233 184.728 971.006 184.295 970.613 184.401L970.613 184.401Z" fill="white"/>
<path d="M712.644 92.0608L712.649 92.0614C712.882 92.0798 713.035 91.8668 713.147 91.7114C713.175 91.6734 713.2 91.638 713.221 91.6124C713.393 91.4306 713.519 91.2421 713.653 91.0424C713.687 90.9912 713.722 90.939 713.757 90.888C713.847 90.7676 713.945 90.6574 714.048 90.5409C714.19 90.3814 714.336 90.2166 714.463 90.0209C714.613 89.7636 714.754 89.6174 714.974 89.4257C715.005 89.4023 715.041 89.3713 715.08 89.3337C715.104 89.3458 715.13 89.3534 715.157 89.3491C715.202 89.3498 715.26 89.3579 715.27 89.3587C715.522 89.3608 715.791 89.3827 716.131 89.4279C716.268 89.4678 716.449 89.5189 716.636 89.5616C716.784 89.5936 716.931 89.6175 717.074 89.6405C717.376 89.689 717.661 89.735 717.936 89.8539C718.15 89.9341 718.49 89.9998 718.728 89.9552C718.789 89.9473 718.851 89.9287 718.903 89.9029L718.908 89.9073C718.912 89.9032 718.917 89.8991 718.924 89.8924C718.953 89.8762 718.975 89.8599 718.993 89.8419L719.057 89.7213L719.047 89.7148C719.117 89.514 718.989 89.317 718.869 89.1388C718.838 89.0277 718.756 88.9223 718.68 88.8307C718.63 88.7524 718.577 88.6757 718.524 88.5982C718.469 88.5179 718.413 88.4364 718.362 88.3553C718.309 88.2595 718.257 88.1745 718.205 88.1005C718.17 88.0407 718.136 87.9808 718.103 87.9212C717.979 87.6988 717.85 87.4688 717.649 87.2629C717.454 87.0811 717.26 86.8857 717.109 86.7186C717.042 86.662 716.979 86.6086 716.928 86.5105C716.915 86.4923 716.892 86.4517 716.873 86.4167C716.9 86.3711 716.927 86.3255 716.95 86.2828C716.987 86.2251 717.026 86.1687 717.065 86.1123C717.104 86.0553 717.143 85.9983 717.182 85.937C717.274 85.7762 717.343 85.6236 717.41 85.4758C717.476 85.3296 717.538 85.1912 717.623 85.0442C717.665 84.9586 717.724 84.875 717.787 84.7867C717.85 84.6974 717.917 84.6099 717.959 84.5153L717.977 84.4867C718.107 84.2795 718.379 83.8479 718.112 83.5723C718.096 83.558 718.08 83.5473 718.064 83.5383C718.04 83.4913 718.002 83.4496 717.944 83.4108C717.85 83.3647 717.736 83.3804 717.653 83.3917L717.55 83.3991C717.392 83.4072 717.214 83.4166 717.053 83.4712C716.706 83.5773 716.414 83.7485 716.105 83.9297C715.963 84.0131 715.816 84.0996 715.661 84.1795C715.611 84.2078 715.56 84.2382 715.509 84.2687C715.168 84.4723 714.873 84.6484 714.585 84.3386C714.45 84.1935 714.301 84.0527 714.156 83.9163C713.976 83.7459 713.789 83.5696 713.631 83.3852C713.264 82.9583 712.848 82.4745 712.273 82.2536C712.126 82.1972 712.009 82.2046 711.923 82.2759C711.714 82.4499 711.81 82.957 711.856 83.2006L711.865 83.2403C711.903 83.353 711.946 83.5196 711.953 83.571L711.955 83.6024C711.965 83.6592 711.978 83.7239 711.992 83.7883C712.004 83.8497 712.017 83.9108 712.03 83.9751C712.089 84.1509 712.181 84.5182 712.181 84.5179C712.201 84.6258 712.214 84.7394 712.227 84.8492C712.24 84.9622 712.253 85.0789 712.275 85.1922C712.285 85.2497 712.294 85.3005 712.302 85.351L712.307 85.3788C712.198 85.4218 712.09 85.4645 711.98 85.5057C711.809 85.5319 711.626 85.6286 711.524 85.6833L711.432 85.7185C711.363 85.7448 711.294 85.7711 711.22 85.802C711.129 85.8481 711.004 85.9206 710.92 86.0073C710.86 86.0446 710.8 86.0828 710.739 86.122L710.58 86.2228C710.514 86.2668 710.374 86.344 710.226 86.4259C710.037 86.5296 709.842 86.6369 709.733 86.7131C709.699 86.7383 709.653 86.7661 709.602 86.7973C709.448 86.8916 709.251 87.0112 709.169 87.1779C709.139 87.2387 709.124 87.3057 709.132 87.3799C709.164 87.6274 709.419 87.7436 709.605 87.8284C709.635 87.8421 709.663 87.8551 709.686 87.866C710.123 88.113 710.487 88.2764 710.837 88.3821C710.93 88.4021 711.024 88.417 711.119 88.4319C711.208 88.4458 711.297 88.4598 711.383 88.4782C711.487 88.5262 711.901 88.6807 712.128 88.6784C712.23 88.6592 712.323 88.6585 712.421 88.658C712.326 88.9508 712.295 89.2435 712.264 89.5272C712.253 89.6324 712.242 89.7373 712.227 89.8462C712.188 90.2822 712.19 90.6799 712.193 91.1484L712.199 91.2331C712.218 91.5196 712.249 91.9987 712.644 92.0608L712.644 92.0608Z" fill="white"/>
<g filter="url(#filter9_f_1650_822)">
<circle cx="164.402" cy="219.831" r="4.05816" transform="rotate(-1.21526 164.402 219.831)" fill="white" fill-opacity="0.5"/>
</g>
<path d="M165.623 227.12L165.615 227.119C165.276 227.066 165.131 226.709 165.024 226.449C164.999 226.386 164.975 226.327 164.953 226.283C164.77 225.965 164.655 225.652 164.533 225.322C164.501 225.237 164.469 225.151 164.437 225.066C164.35 224.863 164.248 224.673 164.141 224.471C163.994 224.195 163.842 223.91 163.728 223.587C163.601 223.169 163.45 222.912 163.203 222.563C163.167 222.519 163.127 222.463 163.083 222.395C163.045 222.405 163.005 222.406 162.968 222.391C162.903 222.377 162.818 222.368 162.804 222.366C162.443 222.283 162.052 222.222 161.553 222.17C161.343 222.18 161.067 222.19 160.787 222.187C160.564 222.182 160.346 222.166 160.134 222.149C159.687 222.115 159.265 222.083 158.831 222.158C158.5 222.199 157.992 222.176 157.667 222.031C157.584 221.999 157.501 221.951 157.436 221.897L157.428 221.901C157.422 221.894 157.418 221.886 157.41 221.875C157.374 221.841 157.348 221.811 157.328 221.779L157.279 221.585L157.296 221.579C157.264 221.269 157.515 221.032 157.746 220.819C157.828 220.671 157.981 220.548 158.122 220.444C158.22 220.349 158.321 220.258 158.423 220.166C158.53 220.07 158.637 219.973 158.739 219.875C158.846 219.756 158.95 219.653 159.05 219.565C159.12 219.492 159.189 219.418 159.257 219.345C159.51 219.07 159.772 218.786 160.13 218.562C160.47 218.369 160.814 218.157 161.086 217.97C161.201 217.912 161.309 217.858 161.415 217.736C161.441 217.714 161.488 217.664 161.526 217.621C161.503 217.546 161.481 217.472 161.462 217.403C161.43 217.308 161.393 217.215 161.357 217.121C161.321 217.026 161.285 216.931 161.25 216.831C161.174 216.57 161.128 216.328 161.083 216.095C161.039 215.864 160.998 215.645 160.927 215.406C160.896 215.27 160.841 215.13 160.782 214.983C160.722 214.834 160.657 214.686 160.629 214.537L160.613 214.49C160.499 214.149 160.259 213.441 160.734 213.139C160.762 213.124 160.789 213.115 160.814 213.107C160.865 213.048 160.934 213.002 161.03 212.967C161.179 212.933 161.336 212.994 161.451 213.039L161.596 213.085C161.818 213.151 162.069 213.225 162.28 213.358C162.739 213.629 163.096 213.973 163.474 214.337C163.648 214.505 163.828 214.679 164.021 214.845C164.084 214.903 164.146 214.964 164.208 215.025C164.625 215.432 164.984 215.784 165.502 215.441C165.744 215.281 166.005 215.131 166.258 214.986C166.574 214.805 166.901 214.618 167.19 214.409C167.86 213.926 168.618 213.379 169.514 213.26C169.743 213.23 169.908 213.281 170.005 213.412C170.244 213.732 169.933 214.422 169.784 214.754L169.758 214.808C169.665 214.955 169.546 215.178 169.518 215.249L169.506 215.293C169.471 215.371 169.43 215.458 169.389 215.546C169.35 215.629 169.311 215.712 169.271 215.799C169.126 216.03 168.869 216.522 168.869 216.521C168.804 216.669 168.746 216.826 168.69 216.978C168.633 217.135 168.573 217.297 168.504 217.451C168.469 217.529 168.44 217.599 168.411 217.668L168.394 217.706C168.535 217.805 168.675 217.903 168.817 217.999C169.052 218.095 169.28 218.296 169.406 218.409L169.526 218.491C169.615 218.552 169.705 218.613 169.799 218.682C169.913 218.779 170.066 218.925 170.156 219.078C170.229 219.152 170.302 219.227 170.376 219.304L170.568 219.502C170.647 219.587 170.82 219.745 171.004 219.913C171.237 220.125 171.478 220.345 171.608 220.492C171.647 220.539 171.703 220.594 171.765 220.656C171.953 220.844 172.192 221.082 172.253 221.348C172.275 221.445 172.273 221.545 172.236 221.648C172.105 221.99 171.702 222.069 171.408 222.126C171.361 222.135 171.315 222.144 171.28 222.152C170.572 222.354 169.997 222.463 169.46 222.493C169.322 222.49 169.182 222.479 169.042 222.468C168.91 222.457 168.779 222.446 168.649 222.443C168.485 222.476 167.842 222.554 167.519 222.473C167.379 222.411 167.247 222.378 167.107 222.344C167.142 222.794 167.086 223.222 167.033 223.637C167.013 223.791 166.993 223.944 166.977 224.105C166.882 224.74 166.743 225.306 166.579 225.974L166.541 226.092C166.416 226.494 166.208 227.167 165.623 227.12L165.623 227.12Z" fill="white"/>
<path d="M342.21 205.332L342.204 205.33C341.949 205.266 341.738 205.473 341.585 205.625C341.547 205.662 341.513 205.696 341.484 205.721C341.259 205.89 341.083 206.076 340.897 206.272C340.849 206.322 340.801 206.374 340.752 206.424C340.629 206.54 340.5 206.644 340.363 206.754C340.176 206.905 339.983 207.06 339.805 207.253C339.589 207.511 339.405 207.646 339.125 207.818C339.086 207.838 339.041 207.866 338.99 207.9C338.965 207.882 338.938 207.869 338.907 207.868C338.857 207.859 338.795 207.839 338.784 207.836C338.504 207.786 338.209 207.711 337.841 207.597C337.696 207.527 337.504 207.436 337.305 207.353C337.147 207.29 336.988 207.235 336.833 207.183C336.507 207.072 336.2 206.967 335.916 206.783C335.695 206.654 335.329 206.517 335.056 206.521C334.987 206.519 334.915 206.527 334.852 206.546L334.848 206.541C334.842 206.544 334.836 206.548 334.827 206.554C334.792 206.567 334.764 206.58 334.741 206.597L334.647 206.719L334.657 206.728C334.541 206.938 334.647 207.181 334.746 207.401C334.759 207.53 334.83 207.663 334.898 207.779C334.938 207.875 334.982 207.97 335.027 208.067C335.073 208.166 335.119 208.267 335.161 208.367C335.201 208.483 335.244 208.588 335.287 208.68C335.315 208.753 335.341 208.825 335.367 208.898C335.463 209.168 335.562 209.448 335.747 209.715C335.928 209.953 336.107 210.207 336.243 210.421C336.307 210.496 336.366 210.567 336.404 210.686C336.416 210.709 336.434 210.758 336.448 210.801C336.409 210.846 336.371 210.892 336.337 210.935C336.286 210.992 336.232 211.047 336.178 211.103C336.124 211.158 336.069 211.214 336.014 211.275C335.882 211.436 335.777 211.593 335.675 211.744C335.574 211.894 335.478 212.036 335.356 212.183C335.293 212.27 335.212 212.352 335.126 212.438C335.039 212.525 334.948 212.61 334.883 212.707L334.858 212.735C334.674 212.941 334.291 213.369 334.535 213.725C334.551 213.744 334.567 213.759 334.582 213.772C334.6 213.829 334.635 213.882 334.692 213.936C334.787 214.005 334.916 214.009 335.011 214.012L335.127 214.024C335.304 214.044 335.504 214.068 335.692 214.037C336.098 213.985 336.454 213.85 336.831 213.707C337.005 213.641 337.185 213.573 337.371 213.514C337.433 213.492 337.495 213.468 337.558 213.443C337.975 213.282 338.335 213.142 338.596 213.54C338.719 213.727 338.858 213.911 338.993 214.09C339.161 214.313 339.336 214.544 339.477 214.779C339.803 215.322 340.174 215.938 340.77 216.292C340.923 216.382 341.055 216.396 341.163 216.333C341.428 216.179 341.417 215.598 341.412 215.319L341.41 215.273C341.389 215.141 341.372 214.948 341.374 214.889L341.379 214.854C341.378 214.789 341.375 214.715 341.373 214.641C341.37 214.57 341.368 214.5 341.366 214.426C341.333 214.22 341.3 213.795 341.3 213.795C341.298 213.671 341.305 213.543 341.312 213.418C341.318 213.29 341.326 213.158 341.323 213.028C341.322 212.962 341.323 212.905 341.323 212.847L341.323 212.815C341.451 212.788 341.58 212.761 341.709 212.736C341.905 212.739 342.126 212.666 342.249 212.625L342.358 212.603C342.44 212.587 342.522 212.571 342.609 212.55C342.719 212.516 342.871 212.459 342.981 212.379C343.055 212.349 343.129 212.318 343.204 212.286L343.4 212.204C343.481 212.167 343.651 212.108 343.832 212.045C344.06 211.966 344.297 211.883 344.433 211.819C344.475 211.798 344.531 211.775 344.593 211.75C344.783 211.675 345.024 211.579 345.147 211.41C345.191 211.348 345.221 211.276 345.226 211.192C345.237 210.911 344.976 210.734 344.785 210.605C344.755 210.584 344.725 210.564 344.703 210.548C344.264 210.191 343.891 209.941 343.521 209.758C343.423 209.718 343.32 209.684 343.218 209.649C343.122 209.617 343.026 209.584 342.933 209.548C342.827 209.475 342.397 209.225 342.145 209.185C342.027 209.187 341.924 209.17 341.815 209.152C341.975 208.845 342.066 208.526 342.153 208.217C342.186 208.102 342.218 207.988 342.255 207.87C342.38 207.393 342.453 206.951 342.539 206.43L342.548 206.335C342.581 206.013 342.637 205.475 342.21 205.332L342.21 205.332Z" fill="white"/>
<path d="M862.202 126.553L862.197 126.551C862.022 126.507 861.878 126.65 861.772 126.754C861.746 126.779 861.723 126.803 861.703 126.82C861.548 126.936 861.428 127.063 861.3 127.198C861.267 127.233 861.234 127.268 861.2 127.303C861.116 127.383 861.027 127.454 860.933 127.53C860.805 127.633 860.672 127.74 860.55 127.872C860.402 128.049 860.275 128.142 860.083 128.26C860.056 128.274 860.025 128.293 859.99 128.316C859.973 128.304 859.954 128.295 859.933 128.295C859.899 128.288 859.856 128.275 859.849 128.273C859.656 128.238 859.454 128.187 859.202 128.108C859.102 128.06 858.97 127.998 858.834 127.941C858.725 127.897 858.615 127.86 858.509 127.824C858.286 127.748 858.074 127.676 857.88 127.549C857.728 127.461 857.477 127.366 857.289 127.37C857.242 127.368 857.192 127.374 857.149 127.387L857.146 127.383C857.142 127.385 857.138 127.388 857.132 127.392C857.108 127.401 857.089 127.41 857.072 127.422L857.008 127.505L857.015 127.512C856.935 127.656 857.008 127.822 857.076 127.974C857.085 128.063 857.134 128.153 857.18 128.233C857.208 128.299 857.238 128.365 857.269 128.431C857.3 128.499 857.332 128.568 857.361 128.637C857.389 128.717 857.418 128.788 857.448 128.852C857.467 128.902 857.485 128.952 857.502 129.001C857.568 129.187 857.636 129.379 857.763 129.562C857.888 129.726 858.011 129.9 858.104 130.047C858.148 130.099 858.189 130.148 858.215 130.229C858.223 130.245 858.235 130.279 858.245 130.308C858.218 130.339 858.192 130.371 858.169 130.4C858.133 130.439 858.096 130.477 858.059 130.515C858.022 130.554 857.985 130.592 857.947 130.634C857.856 130.744 857.784 130.852 857.714 130.956C857.644 131.059 857.579 131.156 857.495 131.257C857.452 131.317 857.396 131.373 857.337 131.433C857.277 131.492 857.215 131.55 857.17 131.617L857.153 131.637C857.027 131.778 856.763 132.072 856.931 132.316C856.942 132.329 856.953 132.34 856.963 132.348C856.976 132.387 857 132.424 857.039 132.461C857.104 132.509 857.193 132.511 857.258 132.514L857.338 132.521C857.459 132.536 857.596 132.552 857.726 132.531C858.005 132.495 858.249 132.402 858.508 132.304C858.627 132.259 858.751 132.212 858.879 132.171C858.921 132.156 858.964 132.139 859.007 132.123C859.293 132.012 859.541 131.916 859.72 132.189C859.804 132.317 859.9 132.444 859.992 132.567C860.108 132.72 860.228 132.879 860.325 133.04C860.549 133.413 860.803 133.836 861.213 134.079C861.317 134.141 861.408 134.15 861.483 134.107C861.664 134.002 861.657 133.602 861.653 133.411L861.652 133.379C861.638 133.288 861.626 133.156 861.627 133.116L861.631 133.092C861.63 133.047 861.628 132.996 861.626 132.945C861.625 132.897 861.623 132.848 861.622 132.798C861.599 132.656 861.577 132.364 861.577 132.364C861.575 132.279 861.58 132.191 861.585 132.106C861.589 132.018 861.594 131.927 861.593 131.838C861.592 131.793 861.592 131.753 861.592 131.713L861.592 131.691C861.681 131.673 861.769 131.654 861.858 131.637C861.992 131.639 862.144 131.589 862.229 131.561L862.303 131.546C862.359 131.535 862.416 131.524 862.476 131.51C862.551 131.486 862.656 131.447 862.731 131.392C862.782 131.371 862.832 131.35 862.884 131.328L863.019 131.272C863.074 131.247 863.191 131.206 863.315 131.163C863.472 131.108 863.634 131.051 863.728 131.008C863.757 130.993 863.795 130.977 863.838 130.96C863.968 130.908 864.134 130.843 864.218 130.726C864.249 130.684 864.269 130.635 864.272 130.577C864.28 130.384 864.101 130.263 863.97 130.174C863.949 130.159 863.929 130.146 863.913 130.135C863.612 129.89 863.356 129.718 863.102 129.592C863.034 129.565 862.964 129.541 862.894 129.517C862.828 129.495 862.762 129.473 862.698 129.448C862.625 129.398 862.33 129.226 862.157 129.199C862.076 129.2 862.005 129.189 861.93 129.176C862.04 128.965 862.102 128.746 862.162 128.534C862.185 128.455 862.207 128.376 862.232 128.295C862.318 127.968 862.368 127.664 862.427 127.307L862.434 127.242C862.456 127.021 862.495 126.651 862.202 126.553L862.202 126.553Z" fill="white"/>
<path d="M599.643 160.557L599.634 160.555C599.264 160.461 598.959 160.763 598.736 160.982C598.682 161.036 598.631 161.086 598.589 161.121C598.263 161.367 598.008 161.636 597.738 161.921C597.669 161.995 597.598 162.069 597.528 162.142C597.35 162.311 597.162 162.462 596.964 162.621C596.692 162.839 596.412 163.065 596.154 163.345C595.841 163.718 595.573 163.915 595.167 164.164C595.111 164.193 595.045 164.233 594.971 164.283C594.936 164.257 594.895 164.238 594.851 164.237C594.779 164.224 594.688 164.195 594.672 164.191C594.266 164.118 593.839 164.01 593.305 163.844C593.094 163.742 592.816 163.61 592.528 163.49C592.298 163.398 592.067 163.319 591.843 163.243C591.37 163.082 590.924 162.93 590.513 162.663C590.191 162.475 589.661 162.276 589.265 162.283C589.165 162.279 589.06 162.292 588.968 162.319L588.963 162.311C588.954 162.316 588.945 162.322 588.932 162.331C588.881 162.349 588.841 162.369 588.807 162.393L588.671 162.57L588.686 162.583C588.518 162.887 588.67 163.24 588.814 163.56C588.833 163.747 588.936 163.939 589.035 164.108C589.094 164.248 589.157 164.385 589.222 164.525C589.288 164.669 589.356 164.816 589.417 164.961C589.475 165.129 589.536 165.281 589.6 165.414C589.64 165.52 589.678 165.626 589.715 165.731C589.854 166.123 589.998 166.529 590.266 166.916C590.53 167.262 590.789 167.63 590.987 167.94C591.079 168.05 591.165 168.153 591.221 168.325C591.238 168.358 591.264 168.43 591.284 168.491C591.228 168.557 591.172 168.623 591.123 168.686C591.048 168.769 590.97 168.849 590.892 168.929C590.813 169.01 590.735 169.091 590.655 169.179C590.462 169.413 590.31 169.64 590.162 169.86C590.015 170.077 589.877 170.283 589.7 170.497C589.608 170.623 589.491 170.742 589.366 170.867C589.24 170.993 589.108 171.116 589.014 171.257L588.977 171.298C588.71 171.596 588.154 172.217 588.509 172.734C588.531 172.762 588.554 172.783 588.577 172.802C588.603 172.884 588.653 172.962 588.736 173.04C588.874 173.14 589.062 173.146 589.199 173.151L589.367 173.167C589.623 173.197 589.914 173.231 590.188 173.187C590.776 173.111 591.293 172.915 591.84 172.708C592.092 172.612 592.353 172.513 592.623 172.427C592.713 172.395 592.803 172.36 592.893 172.325C593.499 172.09 594.021 171.887 594.401 172.465C594.578 172.736 594.78 173.004 594.976 173.263C595.22 173.587 595.473 173.922 595.677 174.263C596.151 175.051 596.689 175.944 597.554 176.457C597.775 176.588 597.967 176.609 598.124 176.517C598.508 176.294 598.493 175.451 598.485 175.046L598.482 174.98C598.452 174.788 598.428 174.507 598.43 174.423L598.437 174.372C598.435 174.277 598.432 174.17 598.428 174.062C598.424 173.96 598.421 173.858 598.418 173.751C598.37 173.451 598.323 172.835 598.323 172.835C598.32 172.656 598.33 172.469 598.34 172.289C598.349 172.103 598.36 171.911 598.356 171.723C598.355 171.627 598.355 171.543 598.356 171.46L598.356 171.414C598.542 171.374 598.729 171.335 598.916 171.299C599.2 171.303 599.521 171.198 599.7 171.138L599.858 171.106C599.976 171.083 600.095 171.059 600.222 171.03C600.382 170.98 600.602 170.898 600.761 170.781C600.868 170.737 600.975 170.692 601.085 170.646L601.369 170.527C601.487 170.474 601.734 170.388 601.995 170.297C602.327 170.181 602.67 170.062 602.868 169.969C602.928 169.938 603.01 169.905 603.101 169.869C603.376 169.76 603.725 169.621 603.903 169.375C603.968 169.285 604.01 169.181 604.018 169.059C604.033 168.652 603.655 168.395 603.379 168.207C603.335 168.177 603.292 168.148 603.259 168.125C602.623 167.607 602.081 167.244 601.545 166.978C601.402 166.921 601.254 166.871 601.105 166.821C600.966 166.774 600.827 166.727 600.692 166.674C600.538 166.568 599.914 166.206 599.548 166.147C599.378 166.15 599.228 166.126 599.07 166.1C599.302 165.654 599.433 165.191 599.56 164.743C599.608 164.576 599.654 164.41 599.708 164.239C599.889 163.547 599.995 162.906 600.119 162.151L600.133 162.013C600.181 161.546 600.262 160.766 599.643 160.557L599.643 160.557Z" fill="white"/>
<g filter="url(#filter10_f_1650_822)">
<circle cx="1090.91" cy="120.729" r="9.73242" transform="rotate(0.393949 1090.91 120.729)" fill="white" fill-opacity="0.5"/>
</g>
<g filter="url(#filter11_f_1650_822)">
<circle cx="1293.69" cy="115.358" r="5.83718" transform="rotate(0.393949 1293.69 115.358)" fill="white" fill-opacity="0.5"/>
</g>
<g filter="url(#filter12_f_1650_822)">
<circle cx="1512.07" cy="184.927" r="5.83718" transform="rotate(0.393949 1512.07 184.927)" fill="white" fill-opacity="0.5"/>
</g>
<g filter="url(#filter13_f_1650_822)">
<circle cx="1645.06" cy="216.09" r="4.24522" transform="rotate(0.393949 1645.06 216.09)" fill="white" fill-opacity="0.5"/>
</g>
<g filter="url(#filter14_f_1650_822)">
<circle cx="1645.86" cy="100.41" r="4.24522" transform="rotate(0.393949 1645.86 100.41)" fill="white" fill-opacity="0.5"/>
</g>
<g filter="url(#filter15_f_1650_822)">
<circle cx="1806.83" cy="152.461" r="4.24522" transform="rotate(0.393949 1806.83 152.461)" fill="white" fill-opacity="0.5"/>
</g>
<path d="M1296.93 123.079L1296.94 123.073C1297.21 122.857 1297.16 122.468 1297.13 122.184C1297.12 122.115 1297.11 122.051 1297.11 122.001C1297.11 121.627 1297.06 121.293 1297 120.938C1296.99 120.847 1296.97 120.755 1296.96 120.663C1296.94 120.44 1296.93 120.22 1296.93 119.988C1296.92 119.669 1296.91 119.341 1296.85 118.997C1296.76 118.562 1296.76 118.259 1296.81 117.826C1296.82 117.769 1296.83 117.699 1296.83 117.618C1296.87 117.607 1296.91 117.588 1296.93 117.556C1296.98 117.511 1297.05 117.462 1297.07 117.452C1297.34 117.199 1297.66 116.95 1298.08 116.655C1298.27 116.559 1298.52 116.431 1298.77 116.288C1298.96 116.173 1299.15 116.049 1299.33 115.93C1299.71 115.676 1300.07 115.438 1300.49 115.288C1300.8 115.16 1301.24 114.886 1301.46 114.595C1301.52 114.525 1301.57 114.442 1301.6 114.361L1301.61 114.361C1301.61 114.351 1301.61 114.343 1301.61 114.328C1301.63 114.281 1301.63 114.241 1301.63 114.203L1301.58 114.006L1301.56 114.009C1301.44 113.717 1301.1 113.632 1300.79 113.558C1300.64 113.468 1300.44 113.435 1300.27 113.413C1300.13 113.378 1300 113.347 1299.86 113.316C1299.72 113.284 1299.57 113.251 1299.43 113.215C1299.28 113.163 1299.14 113.123 1299 113.095C1298.9 113.065 1298.81 113.033 1298.71 113.002C1298.35 112.884 1297.97 112.763 1297.54 112.742C1297.15 112.74 1296.74 112.723 1296.4 112.694C1296.27 112.699 1296.15 112.705 1295.99 112.649C1295.96 112.643 1295.89 112.622 1295.84 112.602C1295.82 112.524 1295.8 112.448 1295.78 112.377C1295.77 112.277 1295.75 112.175 1295.74 112.074C1295.72 111.972 1295.71 111.87 1295.69 111.763C1295.62 111.493 1295.55 111.256 1295.47 111.027C1295.39 110.799 1295.32 110.584 1295.26 110.337C1295.22 110.2 1295.2 110.049 1295.18 109.889C1295.16 109.727 1295.14 109.563 1295.1 109.417L1295.09 109.367C1295.02 109.008 1294.88 108.259 1294.31 108.228C1294.27 108.229 1294.24 108.234 1294.22 108.239C1294.14 108.213 1294.06 108.206 1293.96 108.222C1293.81 108.266 1293.7 108.399 1293.62 108.496L1293.51 108.609C1293.35 108.778 1293.16 108.97 1293.04 109.193C1292.77 109.662 1292.62 110.145 1292.47 110.657C1292.4 110.893 1292.33 111.137 1292.24 111.381C1292.21 111.464 1292.19 111.549 1292.16 111.634C1291.99 112.203 1291.85 112.695 1291.22 112.648C1290.92 112.626 1290.62 112.623 1290.32 112.621C1289.95 112.617 1289.57 112.614 1289.21 112.573C1288.37 112.477 1287.42 112.369 1286.57 112.711C1286.35 112.798 1286.23 112.926 1286.21 113.09C1286.16 113.493 1286.78 113.951 1287.07 114.171L1287.12 114.206C1287.28 114.291 1287.5 114.43 1287.56 114.479L1287.59 114.512C1287.66 114.563 1287.74 114.621 1287.82 114.678C1287.9 114.732 1287.97 114.786 1288.05 114.844C1288.29 114.976 1288.77 115.286 1288.77 115.285C1288.9 115.383 1289.03 115.494 1289.15 115.601C1289.28 115.712 1289.42 115.826 1289.55 115.928C1289.62 115.981 1289.69 116.028 1289.75 116.075L1289.78 116.1C1289.7 116.258 1289.63 116.415 1289.55 116.571C1289.39 116.774 1289.29 117.065 1289.23 117.228L1289.17 117.36C1289.12 117.459 1289.07 117.558 1289.02 117.667C1288.97 117.81 1288.9 118.016 1288.9 118.196C1288.87 118.298 1288.84 118.401 1288.82 118.506L1288.74 118.778C1288.72 118.893 1288.64 119.12 1288.56 119.36C1288.46 119.665 1288.36 119.98 1288.31 120.175C1288.3 120.236 1288.28 120.313 1288.26 120.399C1288.18 120.66 1288.09 120.99 1288.17 121.256C1288.2 121.353 1288.25 121.442 1288.33 121.515C1288.62 121.753 1289.02 121.622 1289.31 121.526C1289.35 121.511 1289.4 121.496 1289.43 121.486C1290.16 121.313 1290.73 121.122 1291.22 120.882C1291.34 120.81 1291.46 120.73 1291.58 120.651C1291.69 120.576 1291.8 120.501 1291.91 120.433C1292.08 120.381 1292.69 120.13 1292.93 119.897C1293.03 119.772 1293.13 119.677 1293.23 119.577C1293.43 119.994 1293.69 120.346 1293.94 120.688C1294.04 120.815 1294.13 120.941 1294.23 121.076C1294.63 121.592 1295.03 122.026 1295.51 122.537L1295.6 122.623C1295.92 122.918 1296.44 123.411 1296.93 123.079L1296.93 123.079Z" fill="white"/>
<path d="M1651.84 219.363L1651.85 219.354C1651.92 218.986 1651.6 218.705 1651.37 218.499C1651.32 218.449 1651.27 218.403 1651.23 218.364C1650.97 218.059 1650.69 217.824 1650.4 217.577C1650.32 217.513 1650.24 217.448 1650.17 217.384C1649.99 217.219 1649.83 217.044 1649.66 216.859C1649.43 216.606 1649.2 216.344 1648.91 216.108C1648.52 215.823 1648.31 215.573 1648.05 215.189C1648.01 215.136 1647.97 215.074 1647.92 215.004C1647.94 214.968 1647.96 214.927 1647.96 214.883C1647.96 214.812 1647.99 214.721 1647.99 214.705C1648.04 214.303 1648.12 213.879 1648.25 213.345C1648.34 213.133 1648.45 212.853 1648.55 212.563C1648.63 212.332 1648.69 212.101 1648.75 211.877C1648.88 211.404 1649.01 210.958 1649.24 210.54C1649.41 210.213 1649.57 209.682 1649.54 209.294C1649.54 209.196 1649.52 209.094 1649.49 209.006L1649.5 209C1649.49 208.991 1649.49 208.984 1649.48 208.972C1649.46 208.922 1649.43 208.884 1649.41 208.852L1649.23 208.73L1649.21 208.745C1648.91 208.598 1648.57 208.768 1648.27 208.928C1648.08 208.958 1647.9 209.07 1647.74 209.176C1647.61 209.242 1647.48 209.313 1647.34 209.384C1647.21 209.458 1647.07 209.533 1646.93 209.601C1646.77 209.668 1646.62 209.737 1646.49 209.807C1646.39 209.852 1646.29 209.896 1646.19 209.938C1645.81 210.098 1645.43 210.263 1645.06 210.548C1644.74 210.827 1644.39 211.103 1644.1 211.315C1644 211.411 1643.9 211.502 1643.74 211.566C1643.71 211.585 1643.64 211.615 1643.58 211.639C1643.51 211.587 1643.44 211.537 1643.38 211.492C1643.29 211.423 1643.21 211.352 1643.13 211.28C1643.04 211.207 1642.96 211.135 1642.87 211.062C1642.63 210.887 1642.39 210.751 1642.17 210.619C1641.95 210.488 1641.74 210.365 1641.52 210.204C1641.39 210.122 1641.27 210.013 1641.14 209.898C1641.01 209.782 1640.88 209.66 1640.73 209.576L1640.69 209.542C1640.38 209.299 1639.74 208.79 1639.26 209.168C1639.23 209.192 1639.21 209.216 1639.19 209.238C1639.12 209.269 1639.04 209.323 1638.97 209.409C1638.88 209.55 1638.89 209.734 1638.89 209.869L1638.88 210.035C1638.87 210.288 1638.85 210.574 1638.91 210.84C1639.02 211.412 1639.24 211.907 1639.48 212.431C1639.59 212.672 1639.7 212.922 1639.8 213.182C1639.84 213.268 1639.88 213.354 1639.92 213.441C1640.18 214.02 1640.41 214.52 1639.87 214.926C1639.61 215.116 1639.36 215.33 1639.12 215.536C1638.82 215.795 1638.5 216.062 1638.18 216.283C1637.44 216.793 1636.59 217.372 1636.14 218.251C1636.02 218.475 1636.02 218.664 1636.11 218.813C1636.36 219.176 1637.18 219.111 1637.58 219.08L1637.64 219.074C1637.83 219.032 1638.1 218.992 1638.19 218.99L1638.24 218.993C1638.33 218.986 1638.43 218.976 1638.54 218.966C1638.64 218.957 1638.74 218.947 1638.84 218.938C1639.13 218.874 1639.74 218.792 1639.73 218.791C1639.91 218.778 1640.09 218.777 1640.27 218.775C1640.45 218.774 1640.64 218.773 1640.83 218.759C1640.92 218.752 1641 218.747 1641.08 218.743L1641.13 218.74C1641.18 218.92 1641.23 219.101 1641.28 219.283C1641.29 219.561 1641.41 219.869 1641.48 220.041L1641.52 220.194C1641.55 220.309 1641.58 220.424 1641.62 220.546C1641.67 220.7 1641.77 220.911 1641.89 221.06C1641.94 221.163 1641.99 221.265 1642.04 221.37L1642.18 221.641C1642.23 221.753 1642.33 221.99 1642.44 222.241C1642.57 222.559 1642.71 222.888 1642.81 223.077C1642.84 223.134 1642.88 223.212 1642.92 223.299C1643.05 223.562 1643.2 223.896 1643.45 224.056C1643.55 224.115 1643.65 224.15 1643.77 224.15C1644.17 224.142 1644.4 223.756 1644.57 223.474C1644.59 223.429 1644.62 223.385 1644.64 223.352C1645.11 222.698 1645.43 222.145 1645.66 221.605C1645.71 221.461 1645.75 221.313 1645.79 221.164C1645.83 221.025 1645.87 220.886 1645.91 220.751C1646.01 220.594 1646.32 219.961 1646.36 219.599C1646.35 219.432 1646.36 219.284 1646.38 219.127C1646.83 219.329 1647.29 219.43 1647.74 219.528C1647.9 219.565 1648.07 219.601 1648.24 219.644C1648.93 219.78 1649.56 219.846 1650.31 219.924L1650.45 219.929C1650.91 219.948 1651.68 219.982 1651.84 219.363L1651.84 219.363Z" fill="white"/>
<path d="M1090.34 102.072L1090.32 102.078C1089.66 102.333 1089.52 103.117 1089.41 103.69C1089.39 103.83 1089.37 103.96 1089.34 104.058C1089.11 104.782 1089.01 105.464 1088.9 106.186C1088.88 106.372 1088.85 106.561 1088.82 106.746C1088.73 107.194 1088.61 107.624 1088.48 108.079C1088.3 108.701 1088.11 109.344 1088.02 110.047C1087.95 110.95 1087.75 111.535 1087.4 112.348C1087.35 112.453 1087.29 112.585 1087.23 112.74C1087.15 112.738 1087.07 112.751 1087 112.799C1086.87 112.856 1086.71 112.909 1086.68 112.92C1085.98 113.245 1085.22 113.537 1084.23 113.857C1083.8 113.928 1083.23 114.025 1082.67 114.153C1082.22 114.258 1081.78 114.387 1081.36 114.511C1080.47 114.773 1079.63 115.02 1078.72 115.055C1078.03 115.114 1077.01 115.38 1076.42 115.814C1076.26 115.915 1076.11 116.047 1076 116.187L1075.99 116.18C1075.98 116.198 1075.97 116.215 1075.96 116.242C1075.9 116.325 1075.86 116.399 1075.84 116.472L1075.82 116.886L1075.86 116.89C1075.93 117.533 1076.54 117.905 1077.1 118.237C1077.33 118.501 1077.69 118.683 1078.02 118.833C1078.26 118.983 1078.51 119.124 1078.75 119.267C1079.01 119.415 1079.27 119.565 1079.52 119.72C1079.78 119.914 1080.04 120.078 1080.28 120.213C1080.45 120.331 1080.62 120.451 1080.79 120.571C1081.43 121.018 1082.08 121.48 1082.9 121.781C1083.67 122.024 1084.46 122.306 1085.09 122.566C1085.35 122.634 1085.59 122.697 1085.86 122.9C1085.92 122.931 1086.04 123.012 1086.14 123.084C1086.12 123.245 1086.11 123.405 1086.1 123.553C1086.07 123.759 1086.04 123.964 1086.01 124.17C1085.98 124.378 1085.94 124.585 1085.92 124.804C1085.87 125.366 1085.89 125.874 1085.9 126.367C1085.91 126.854 1085.92 127.315 1085.88 127.829C1085.87 128.119 1085.82 128.426 1085.77 128.749C1085.71 129.077 1085.64 129.404 1085.65 129.719L1085.64 129.821C1085.55 130.56 1085.37 132.099 1086.46 132.505C1086.53 132.523 1086.59 132.531 1086.64 132.535C1086.77 132.632 1086.93 132.696 1087.14 132.727C1087.45 132.731 1087.75 132.539 1087.96 132.398L1088.23 132.243C1088.65 132.014 1089.13 131.755 1089.5 131.394C1090.31 130.648 1090.89 129.797 1091.5 128.896C1091.78 128.481 1092.07 128.052 1092.39 127.63C1092.49 127.486 1092.59 127.336 1092.69 127.186C1093.36 126.181 1093.93 125.312 1095.13 125.784C1095.69 126.005 1096.28 126.196 1096.86 126.38C1097.58 126.611 1098.32 126.849 1099 127.147C1100.56 127.837 1102.33 128.619 1104.2 128.472C1104.67 128.434 1104.99 128.259 1105.13 127.952C1105.47 127.201 1104.55 125.937 1104.1 125.33L1104.03 125.232C1103.77 124.973 1103.44 124.573 1103.35 124.441L1103.31 124.357C1103.2 124.215 1103.08 124.055 1102.96 123.896C1102.84 123.744 1102.73 123.593 1102.61 123.433C1102.22 123.029 1101.49 122.142 1101.49 122.143C1101.29 121.874 1101.1 121.58 1100.93 121.295C1100.74 121.003 1100.55 120.701 1100.35 120.418C1100.24 120.274 1100.15 120.146 1100.06 120.019L1100.01 119.949C1100.25 119.689 1100.5 119.429 1100.74 119.173C1101.18 118.876 1101.55 118.372 1101.76 118.089L1101.97 117.871C1102.12 117.709 1102.28 117.546 1102.44 117.365C1102.63 117.119 1102.87 116.757 1102.99 116.41C1103.11 116.229 1103.22 116.045 1103.34 115.857L1103.64 115.373C1103.76 115.166 1104.05 114.771 1104.35 114.352C1104.73 113.821 1105.12 113.272 1105.32 112.919C1105.38 112.806 1105.47 112.67 1105.57 112.518C1105.87 112.057 1106.25 111.471 1106.26 110.907C1106.26 110.701 1106.21 110.498 1106.09 110.305C1105.68 109.669 1104.83 109.684 1104.21 109.695C1104.11 109.696 1104.02 109.698 1103.94 109.697C1102.42 109.593 1101.21 109.622 1100.11 109.791C1099.83 109.857 1099.55 109.94 1099.27 110.023C1099.01 110.102 1098.75 110.18 1098.48 110.243C1098.14 110.247 1096.8 110.365 1096.18 110.669C1095.93 110.855 1095.67 110.979 1095.4 111.109C1095.28 110.182 1094.98 109.339 1094.7 108.521C1094.59 108.218 1094.48 107.915 1094.38 107.597C1093.92 106.352 1093.39 105.264 1092.77 103.983L1092.64 103.759C1092.21 102.998 1091.5 101.725 1090.34 102.073L1090.34 102.072Z" fill="#FFDFA0"/>
<path d="M1643.58 104.473L1643.58 104.474C1643.84 104.501 1644.02 104.271 1644.14 104.103C1644.18 104.062 1644.2 104.024 1644.23 103.997C1644.42 103.801 1644.57 103.597 1644.72 103.381C1644.76 103.326 1644.8 103.27 1644.84 103.214C1644.95 103.085 1645.06 102.966 1645.17 102.841C1645.33 102.669 1645.5 102.492 1645.65 102.28C1645.82 102.002 1645.98 101.845 1646.23 101.64C1646.26 101.615 1646.3 101.582 1646.35 101.542C1646.37 101.556 1646.4 101.565 1646.43 101.561C1646.48 101.564 1646.55 101.574 1646.56 101.575C1646.84 101.586 1647.13 101.618 1647.5 101.678C1647.65 101.727 1647.85 101.789 1648.06 101.841C1648.22 101.881 1648.38 101.912 1648.54 101.942C1648.87 102.005 1649.18 102.064 1649.48 102.204C1649.71 102.299 1650.09 102.382 1650.35 102.34C1650.42 102.333 1650.49 102.315 1650.55 102.288L1650.55 102.293C1650.56 102.289 1650.56 102.284 1650.57 102.277C1650.6 102.26 1650.63 102.243 1650.65 102.223L1650.72 102.093L1650.71 102.085C1650.79 101.866 1650.66 101.645 1650.53 101.445C1650.5 101.321 1650.41 101.202 1650.33 101.099C1650.28 101.011 1650.22 100.925 1650.17 100.838C1650.11 100.748 1650.05 100.656 1650 100.565C1649.94 100.458 1649.89 100.362 1649.83 100.279C1649.79 100.212 1649.76 100.145 1649.72 100.079C1649.59 99.8295 1649.46 99.572 1649.24 99.3388C1649.04 99.1323 1648.83 98.9109 1648.67 98.7221C1648.59 98.6575 1648.53 98.5968 1648.47 98.4871C1648.46 98.4666 1648.43 98.4211 1648.42 98.382C1648.45 98.3325 1648.48 98.2831 1648.5 98.2367C1648.55 98.1743 1648.59 98.1132 1648.64 98.0523C1648.68 97.9906 1648.73 97.929 1648.77 97.8627C1648.88 97.6883 1648.96 97.5222 1649.04 97.3614C1649.11 97.2022 1649.19 97.0515 1649.28 96.8922C1649.33 96.7991 1649.4 96.7087 1649.47 96.6134C1649.55 96.5169 1649.62 96.4225 1649.67 96.3195L1649.69 96.2885C1649.84 96.0641 1650.16 95.5968 1649.87 95.2847C1649.85 95.2683 1649.83 95.2561 1649.82 95.2458C1649.79 95.1932 1649.75 95.1459 1649.69 95.1015C1649.59 95.0477 1649.46 95.0614 1649.37 95.0714L1649.25 95.0764C1649.08 95.0804 1648.88 95.0852 1648.7 95.1404C1648.32 95.2466 1647.99 95.4263 1647.65 95.6165C1647.49 95.7041 1647.32 95.7948 1647.15 95.8781C1647.09 95.9078 1647.04 95.9397 1646.98 95.9717C1646.6 96.1857 1646.27 96.3707 1645.96 96.0203C1645.81 95.8561 1645.65 95.6962 1645.5 95.5414C1645.3 95.3479 1645.1 95.1478 1644.93 94.9396C1644.54 94.4576 1644.1 93.9114 1643.47 93.6501C1643.31 93.5834 1643.18 93.588 1643.09 93.6638C1642.85 93.8492 1642.94 94.4112 1642.98 94.6812L1642.99 94.7252C1643.03 94.8506 1643.07 95.0357 1643.08 95.0924L1643.08 95.1271C1643.09 95.1901 1643.1 95.2618 1643.12 95.3333C1643.13 95.4013 1643.14 95.4691 1643.15 95.5403C1643.21 95.736 1643.3 96.1437 1643.3 96.1434C1643.32 96.2629 1643.33 96.3886 1643.34 96.5101C1643.35 96.635 1643.36 96.7641 1643.38 96.8897C1643.39 96.9534 1643.4 97.0096 1643.41 97.0655L1643.41 97.0963C1643.29 97.1403 1643.17 97.184 1643.05 97.2261C1642.86 97.2497 1642.66 97.3506 1642.54 97.4077L1642.44 97.4438C1642.36 97.4705 1642.28 97.4975 1642.2 97.5292C1642.1 97.5772 1641.96 97.6533 1641.87 97.7462C1641.8 97.7854 1641.73 97.8258 1641.66 97.867L1641.48 97.9732C1641.41 98.0198 1641.25 98.1005 1641.09 98.1862C1640.88 98.2947 1640.66 98.407 1640.53 98.4876C1640.5 98.5143 1640.45 98.5435 1640.39 98.5763C1640.21 98.6755 1639.99 98.8013 1639.9 98.9825C1639.86 99.0486 1639.85 99.1219 1639.85 99.204C1639.88 99.4779 1640.16 99.6138 1640.36 99.7131C1640.39 99.7291 1640.42 99.7443 1640.45 99.757C1640.92 100.043 1641.32 100.234 1641.7 100.362C1641.8 100.387 1641.91 100.406 1642.01 100.425C1642.11 100.443 1642.2 100.462 1642.3 100.485C1642.41 100.541 1642.86 100.724 1643.11 100.728C1643.23 100.71 1643.33 100.712 1643.44 100.715C1643.32 101.035 1643.28 101.356 1643.24 101.668C1643.22 101.784 1643.21 101.899 1643.19 102.019C1643.13 102.498 1643.12 102.937 1643.11 103.453L1643.11 103.547C1643.13 103.863 1643.14 104.392 1643.58 104.473L1643.58 104.473Z" fill="white"/>
<g filter="url(#filter16_f_1650_822)">
<circle cx="1201.01" cy="193.851" r="4.24522" transform="rotate(0.393949 1201.01 193.851)" fill="white" fill-opacity="0.5"/>
</g>
<path d="M1204.81 186.821L1204.8 186.819C1204.52 186.74 1204.29 186.962 1204.11 187.125C1204.07 187.164 1204.03 187.201 1204 187.227C1203.74 187.407 1203.54 187.606 1203.33 187.817C1203.28 187.871 1203.22 187.926 1203.17 187.98C1203.03 188.105 1202.88 188.215 1202.73 188.332C1202.52 188.492 1202.3 188.658 1202.1 188.865C1201.85 189.142 1201.65 189.286 1201.33 189.466C1201.29 189.487 1201.24 189.516 1201.18 189.553C1201.15 189.532 1201.12 189.516 1201.09 189.515C1201.04 189.503 1200.97 189.48 1200.95 189.476C1200.65 189.412 1200.33 189.321 1199.92 189.183C1199.77 189.101 1199.56 188.995 1199.34 188.898C1199.17 188.823 1198.99 188.758 1198.83 188.695C1198.47 188.563 1198.13 188.438 1197.83 188.226C1197.59 188.077 1197.19 187.914 1196.89 187.911C1196.81 187.906 1196.73 187.913 1196.66 187.932L1196.66 187.926C1196.65 187.93 1196.64 187.934 1196.63 187.94C1196.59 187.953 1196.56 187.967 1196.54 187.985L1196.43 188.116L1196.44 188.127C1196.31 188.354 1196.41 188.625 1196.52 188.871C1196.53 189.014 1196.6 189.162 1196.67 189.293C1196.71 189.4 1196.76 189.506 1196.81 189.614C1196.85 189.725 1196.9 189.838 1196.95 189.949C1196.99 190.078 1197.03 190.195 1197.07 190.297C1197.1 190.379 1197.13 190.46 1197.16 190.54C1197.25 190.842 1197.35 191.153 1197.55 191.453C1197.74 191.721 1197.93 192.006 1198.07 192.247C1198.14 192.332 1198.21 192.412 1198.24 192.544C1198.26 192.569 1198.27 192.624 1198.29 192.672C1198.24 192.721 1198.2 192.77 1198.16 192.816C1198.1 192.877 1198.04 192.937 1197.98 192.996C1197.92 193.056 1197.86 193.116 1197.8 193.181C1197.64 193.354 1197.52 193.524 1197.41 193.688C1197.29 193.85 1197.18 194.003 1197.04 194.162C1196.97 194.256 1196.88 194.343 1196.78 194.436C1196.68 194.529 1196.58 194.62 1196.5 194.725L1196.48 194.755C1196.27 194.976 1195.83 195.436 1196.09 195.836C1196.11 195.858 1196.12 195.875 1196.14 195.889C1196.16 195.952 1196.19 196.013 1196.26 196.074C1196.36 196.153 1196.5 196.161 1196.6 196.168L1196.73 196.184C1196.93 196.212 1197.15 196.244 1197.36 196.216C1197.8 196.171 1198.2 196.033 1198.62 195.888C1198.81 195.82 1199.01 195.751 1199.22 195.691C1199.29 195.669 1199.36 195.644 1199.43 195.619C1199.89 195.454 1200.3 195.311 1200.57 195.758C1200.7 195.967 1200.85 196.175 1200.99 196.376C1201.17 196.628 1201.36 196.888 1201.5 197.151C1201.85 197.76 1202.24 198.45 1202.88 198.859C1203.05 198.963 1203.19 198.982 1203.31 198.916C1203.61 198.755 1203.62 198.114 1203.62 197.806L1203.62 197.756C1203.6 197.609 1203.59 197.396 1203.59 197.331L1203.6 197.293C1203.6 197.221 1203.6 197.139 1203.6 197.057C1203.6 196.979 1203.6 196.902 1203.6 196.821C1203.57 196.592 1203.55 196.122 1203.54 196.123C1203.55 195.986 1203.56 195.845 1203.57 195.708C1203.58 195.567 1203.59 195.422 1203.59 195.278C1203.59 195.206 1203.6 195.142 1203.6 195.078L1203.6 195.043C1203.74 195.017 1203.89 194.992 1204.03 194.968C1204.24 194.977 1204.49 194.904 1204.63 194.862L1204.75 194.841C1204.84 194.826 1204.93 194.811 1205.03 194.791C1205.15 194.757 1205.32 194.699 1205.44 194.614C1205.52 194.583 1205.61 194.551 1205.69 194.518L1205.91 194.434C1206 194.396 1206.19 194.336 1206.39 194.272C1206.64 194.192 1206.91 194.108 1207.06 194.042C1207.11 194.019 1207.17 193.996 1207.24 193.971C1207.45 193.893 1207.72 193.795 1207.86 193.612C1207.91 193.545 1207.94 193.467 1207.95 193.375C1207.97 193.066 1207.69 192.862 1207.49 192.714C1207.45 192.69 1207.42 192.667 1207.4 192.649C1206.92 192.242 1206.52 191.954 1206.12 191.741C1206.01 191.694 1205.9 191.653 1205.79 191.612C1205.68 191.573 1205.58 191.535 1205.48 191.491C1205.36 191.408 1204.9 191.119 1204.62 191.067C1204.49 191.065 1204.38 191.044 1204.26 191.021C1204.44 190.687 1204.55 190.338 1204.66 190C1204.7 189.874 1204.74 189.749 1204.78 189.62C1204.93 189.098 1205.03 188.613 1205.14 188.042L1205.15 187.937C1205.2 187.584 1205.28 186.993 1204.81 186.821L1204.81 186.821Z" fill="white"/>
<path d="M1807.38 147.129L1807.37 147.127C1807.18 147.073 1807.02 147.226 1806.9 147.337C1806.87 147.364 1806.84 147.39 1806.82 147.408C1806.65 147.531 1806.51 147.668 1806.36 147.813C1806.33 147.85 1806.29 147.888 1806.25 147.925C1806.15 148.01 1806.05 148.086 1805.95 148.166C1805.8 148.276 1805.65 148.39 1805.52 148.532C1805.35 148.723 1805.2 148.821 1804.99 148.945C1804.96 148.96 1804.92 148.98 1804.88 149.004C1804.87 148.99 1804.85 148.98 1804.82 148.979C1804.79 148.971 1804.74 148.954 1804.73 148.952C1804.52 148.908 1804.3 148.845 1804.02 148.751C1803.91 148.695 1803.77 148.622 1803.62 148.555C1803.5 148.503 1803.38 148.459 1803.27 148.416C1803.02 148.325 1802.79 148.239 1802.58 148.094C1802.42 147.991 1802.14 147.88 1801.94 147.877C1801.88 147.874 1801.83 147.879 1801.78 147.892L1801.78 147.887C1801.77 147.89 1801.77 147.893 1801.76 147.897C1801.74 147.906 1801.71 147.916 1801.7 147.928L1801.62 148.018L1801.63 148.025C1801.54 148.182 1801.61 148.368 1801.68 148.537C1801.69 148.635 1801.74 148.737 1801.79 148.826C1801.82 148.9 1801.85 148.973 1801.88 149.046C1801.91 149.123 1801.95 149.2 1801.98 149.277C1802 149.365 1802.03 149.445 1802.07 149.516C1802.09 149.572 1802.1 149.627 1802.12 149.683C1802.19 149.89 1802.26 150.103 1802.39 150.309C1802.52 150.494 1802.65 150.689 1802.75 150.854C1802.8 150.913 1802.84 150.968 1802.87 151.058C1802.88 151.076 1802.89 151.114 1802.9 151.146C1802.87 151.18 1802.84 151.213 1802.81 151.245C1802.77 151.287 1802.73 151.328 1802.69 151.369C1802.65 151.41 1802.6 151.451 1802.56 151.496C1802.46 151.615 1802.37 151.731 1802.29 151.844C1802.21 151.955 1802.14 152.061 1802.04 152.169C1801.99 152.234 1801.93 152.294 1801.86 152.358C1801.8 152.422 1801.73 152.484 1801.67 152.556L1801.65 152.577C1801.51 152.729 1801.21 153.044 1801.39 153.319C1801.4 153.334 1801.41 153.346 1801.42 153.356C1801.44 153.399 1801.46 153.44 1801.5 153.482C1801.57 153.537 1801.67 153.543 1801.74 153.547L1801.83 153.558C1801.96 153.577 1802.11 153.599 1802.26 153.58C1802.57 153.549 1802.84 153.455 1803.13 153.355C1803.26 153.308 1803.4 153.261 1803.54 153.22C1803.59 153.204 1803.64 153.187 1803.68 153.17C1804 153.057 1804.28 152.958 1804.47 153.266C1804.56 153.409 1804.66 153.552 1804.76 153.69C1804.88 153.863 1805.01 154.042 1805.11 154.222C1805.34 154.64 1805.61 155.114 1806.05 155.395C1806.17 155.466 1806.27 155.48 1806.35 155.434C1806.55 155.324 1806.56 154.883 1806.56 154.672L1806.56 154.637C1806.55 154.537 1806.54 154.39 1806.54 154.346L1806.55 154.319C1806.55 154.27 1806.55 154.214 1806.55 154.158C1806.55 154.104 1806.54 154.051 1806.54 153.995C1806.52 153.838 1806.51 153.516 1806.51 153.516C1806.51 153.422 1806.52 153.325 1806.53 153.231C1806.53 153.134 1806.54 153.035 1806.54 152.936C1806.54 152.886 1806.54 152.842 1806.55 152.799L1806.55 152.775C1806.64 152.757 1806.74 152.739 1806.84 152.723C1806.99 152.73 1807.16 152.679 1807.25 152.65L1807.33 152.636C1807.4 152.626 1807.46 152.615 1807.53 152.602C1807.61 152.578 1807.73 152.538 1807.81 152.48C1807.87 152.459 1807.92 152.437 1807.98 152.414L1808.13 152.356C1808.19 152.33 1808.32 152.289 1808.46 152.245C1808.64 152.19 1808.82 152.133 1808.92 152.087C1808.95 152.072 1809 152.056 1809.05 152.038C1809.19 151.985 1809.37 151.918 1809.47 151.792C1809.51 151.746 1809.53 151.693 1809.54 151.629C1809.55 151.417 1809.36 151.277 1809.21 151.175C1809.19 151.159 1809.17 151.143 1809.15 151.131C1808.83 150.851 1808.55 150.654 1808.28 150.507C1808.2 150.475 1808.13 150.447 1808.05 150.418C1807.98 150.392 1807.9 150.365 1807.84 150.336C1807.76 150.278 1807.44 150.08 1807.25 150.044C1807.16 150.043 1807.08 150.028 1807 150.013C1807.12 149.783 1807.2 149.544 1807.27 149.311C1807.3 149.225 1807.33 149.139 1807.36 149.051C1807.46 148.693 1807.53 148.36 1807.6 147.967L1807.61 147.895C1807.64 147.652 1807.7 147.247 1807.38 147.129L1807.38 147.129Z" fill="white"/>
<path d="M1516.87 176.48L1516.86 176.477C1516.45 176.362 1516.11 176.685 1515.86 176.92C1515.79 176.978 1515.74 177.032 1515.69 177.069C1515.32 177.33 1515.03 177.619 1514.73 177.925C1514.65 178.003 1514.57 178.083 1514.49 178.161C1514.29 178.342 1514.08 178.503 1513.85 178.672C1513.55 178.904 1513.23 179.144 1512.94 179.445C1512.58 179.847 1512.28 180.056 1511.82 180.318C1511.76 180.348 1511.69 180.39 1511.6 180.443C1511.57 180.413 1511.52 180.39 1511.47 180.388C1511.39 180.371 1511.29 180.337 1511.28 180.332C1510.83 180.239 1510.36 180.106 1509.78 179.907C1509.55 179.788 1509.25 179.634 1508.93 179.493C1508.68 179.384 1508.43 179.29 1508.19 179.199C1507.67 179.007 1507.18 178.826 1506.74 178.519C1506.39 178.302 1505.81 178.066 1505.38 178.061C1505.27 178.054 1505.15 178.065 1505.05 178.092L1505.04 178.083C1505.03 178.088 1505.02 178.094 1505.01 178.103C1504.95 178.122 1504.91 178.143 1504.87 178.168L1504.71 178.359L1504.73 178.374C1504.53 178.704 1504.69 179.097 1504.84 179.454C1504.85 179.662 1504.96 179.877 1505.07 180.065C1505.13 180.221 1505.19 180.375 1505.26 180.531C1505.33 180.692 1505.4 180.856 1505.46 181.018C1505.52 181.205 1505.58 181.374 1505.65 181.523C1505.69 181.641 1505.73 181.759 1505.76 181.876C1505.91 182.313 1506.05 182.764 1506.34 183.199C1506.62 183.589 1506.89 184.002 1507.1 184.351C1507.2 184.474 1507.29 184.591 1507.34 184.782C1507.36 184.819 1507.39 184.899 1507.41 184.967C1507.34 185.038 1507.28 185.11 1507.23 185.177C1507.14 185.266 1507.05 185.352 1506.96 185.438C1506.87 185.525 1506.78 185.612 1506.69 185.707C1506.47 185.958 1506.3 186.204 1506.13 186.441C1505.96 186.677 1505.8 186.899 1505.6 187.129C1505.5 187.266 1505.36 187.393 1505.22 187.527C1505.08 187.662 1504.93 187.794 1504.82 187.946L1504.78 187.99C1504.48 188.311 1503.84 188.978 1504.22 189.559C1504.24 189.59 1504.27 189.614 1504.29 189.635C1504.32 189.727 1504.37 189.814 1504.46 189.903C1504.61 190.018 1504.82 190.03 1504.97 190.039L1505.15 190.062C1505.43 190.104 1505.75 190.15 1506.06 190.11C1506.71 190.045 1507.28 189.845 1507.89 189.633C1508.17 189.536 1508.46 189.435 1508.76 189.348C1508.86 189.315 1508.96 189.28 1509.06 189.244C1509.74 189.004 1510.32 188.796 1510.72 189.445C1510.91 189.749 1511.12 190.05 1511.33 190.342C1511.59 190.707 1511.86 191.084 1512.07 191.466C1512.57 192.349 1513.14 193.351 1514.07 193.943C1514.31 194.095 1514.52 194.123 1514.7 194.027C1515.13 193.793 1515.14 192.863 1515.14 192.416L1515.14 192.343C1515.12 192.131 1515.1 191.821 1515.1 191.728L1515.11 191.672C1515.11 191.567 1515.11 191.448 1515.11 191.33C1515.11 191.217 1515.11 191.105 1515.11 190.986C1515.07 190.655 1515.03 189.974 1515.03 189.974C1515.04 189.776 1515.05 189.571 1515.07 189.372C1515.09 189.168 1515.1 188.957 1515.11 188.749C1515.11 188.644 1515.11 188.551 1515.11 188.459L1515.11 188.408C1515.32 188.37 1515.53 188.333 1515.74 188.299C1516.05 188.313 1516.41 188.206 1516.6 188.145L1516.78 188.115C1516.91 188.093 1517.04 188.071 1517.18 188.042C1517.36 187.993 1517.61 187.909 1517.79 187.785C1517.91 187.74 1518.02 187.694 1518.15 187.646L1518.46 187.524C1518.59 187.469 1518.87 187.382 1519.16 187.29C1519.53 187.173 1519.91 187.051 1520.13 186.955C1520.2 186.923 1520.29 186.89 1520.39 186.852C1520.7 186.74 1521.09 186.598 1521.29 186.332C1521.37 186.235 1521.42 186.122 1521.43 185.988C1521.46 185.539 1521.05 185.244 1520.75 185.029C1520.7 184.994 1520.66 184.961 1520.62 184.934C1519.94 184.344 1519.35 183.927 1518.77 183.617C1518.61 183.549 1518.45 183.49 1518.29 183.43C1518.14 183.374 1517.98 183.318 1517.84 183.255C1517.67 183.134 1516.99 182.715 1516.59 182.64C1516.4 182.637 1516.24 182.606 1516.07 182.572C1516.34 182.088 1516.49 181.582 1516.65 181.091C1516.71 180.909 1516.76 180.728 1516.83 180.541C1517.05 179.784 1517.19 179.08 1517.35 178.251L1517.36 178.099C1517.43 177.586 1517.55 176.729 1516.87 176.48L1516.87 176.48Z" fill="white"/>
<defs>
<filter id="filter0_f_1650_822" x="-286.903" y="-120.239" width="2470.06" height="591.818" filterUnits="userSpaceOnUse" color-interpolation-filters="sRGB">
<feFlood flood-opacity="0" result="BackgroundImageFix"/>
<feBlend mode="normal" in="SourceGraphic" in2="BackgroundImageFix" result="shape"/>
<feGaussianBlur stdDeviation="45.85" result="effect1_foregroundBlur_1650_822"/>
</filter>
<filter id="filter1_f_1650_822" x="238.734" y="80.1158" width="36.7859" height="36.7859" filterUnits="userSpaceOnUse" color-interpolation-filters="sRGB">
<feFlood flood-opacity="0" result="BackgroundImageFix"/>
<feBlend mode="normal" in="SourceGraphic" in2="BackgroundImageFix" result="shape"/>
<feGaussianBlur stdDeviation="6.55" result="effect1_foregroundBlur_1650_822"/>
</filter>
<filter id="filter2_f_1650_822" x="577.116" y="149.944" width="36.7859" height="36.7859" filterUnits="userSpaceOnUse" color-interpolation-filters="sRGB">
<feFlood flood-opacity="0" result="BackgroundImageFix"/>
<feBlend mode="normal" in="SourceGraphic" in2="BackgroundImageFix" result="shape"/>
<feGaussianBlur stdDeviation="6.55" result="effect1_foregroundBlur_1650_822"/>
</filter>
<filter id="filter3_f_1650_822" x="321.993" y="194.852" width="33.8982" height="33.8987" filterUnits="userSpaceOnUse" color-interpolation-filters="sRGB">
<feFlood flood-opacity="0" result="BackgroundImageFix"/>
<feBlend mode="normal" in="SourceGraphic" in2="BackgroundImageFix" result="shape"/>
<feGaussianBlur stdDeviation="6.55" result="effect1_foregroundBlur_1650_822"/>
</filter>
<filter id="filter4_f_1650_822" x="699.886" y="176.244" width="33.8982" height="33.8987" filterUnits="userSpaceOnUse" color-interpolation-filters="sRGB">
<feFlood flood-opacity="0" result="BackgroundImageFix"/>
<feBlend mode="normal" in="SourceGraphic" in2="BackgroundImageFix" result="shape"/>
<feGaussianBlur stdDeviation="6.55" result="effect1_foregroundBlur_1650_822"/>
</filter>
<filter id="filter5_f_1650_822" x="697.662" y="71.3702" width="33.8982" height="33.8987" filterUnits="userSpaceOnUse" color-interpolation-filters="sRGB">
<feFlood flood-opacity="0" result="BackgroundImageFix"/>
<feBlend mode="normal" in="SourceGraphic" in2="BackgroundImageFix" result="shape"/>
<feGaussianBlur stdDeviation="6.55" result="effect1_foregroundBlur_1650_822"/>
</filter>
<filter id="filter6_f_1650_822" x="844.886" y="114.451" width="33.8982" height="33.8987" filterUnits="userSpaceOnUse" color-interpolation-filters="sRGB">
<feFlood flood-opacity="0" result="BackgroundImageFix"/>
<feBlend mode="normal" in="SourceGraphic" in2="BackgroundImageFix" result="shape"/>
<feGaussianBlur stdDeviation="6.55" result="effect1_foregroundBlur_1650_822"/>
</filter>
<filter id="filter7_f_1650_822" x="454.909" y="63.4277" width="60.4893" height="60.4888" filterUnits="userSpaceOnUse" color-interpolation-filters="sRGB">
<feFlood flood-opacity="0" result="BackgroundImageFix"/>
<feBlend mode="normal" in="SourceGraphic" in2="BackgroundImageFix" result="shape"/>
<feGaussianBlur stdDeviation="12.25" result="effect1_foregroundBlur_1650_822"/>
</filter>
<filter id="filter8_f_1650_822" x="942.392" y="161.081" width="56.7676" height="56.7671" filterUnits="userSpaceOnUse" color-interpolation-filters="sRGB">
<feFlood flood-opacity="0" result="BackgroundImageFix"/>
<feBlend mode="normal" in="SourceGraphic" in2="BackgroundImageFix" result="shape"/>
<feGaussianBlur stdDeviation="12.25" result="effect1_foregroundBlur_1650_822"/>
</filter>
<filter id="filter9_f_1650_822" x="147.244" y="202.673" width="34.3162" height="34.3162" filterUnits="userSpaceOnUse" color-interpolation-filters="sRGB">
<feFlood flood-opacity="0" result="BackgroundImageFix"/>
<feBlend mode="normal" in="SourceGraphic" in2="BackgroundImageFix" result="shape"/>
<feGaussianBlur stdDeviation="6.55" result="effect1_foregroundBlur_1650_822"/>
</filter>
<filter id="filter10_f_1650_822" x="1056.68" y="86.4971" width="68.4648" height="68.4648" filterUnits="userSpaceOnUse" color-interpolation-filters="sRGB">
<feFlood flood-opacity="0" result="BackgroundImageFix"/>
<feBlend mode="normal" in="SourceGraphic" in2="BackgroundImageFix" result="shape"/>
<feGaussianBlur stdDeviation="12.25" result="effect1_foregroundBlur_1650_822"/>
</filter>
<filter id="filter11_f_1650_822" x="1274.75" y="96.4205" width="37.8738" height="37.8743" filterUnits="userSpaceOnUse" color-interpolation-filters="sRGB">
<feFlood flood-opacity="0" result="BackgroundImageFix"/>
<feBlend mode="normal" in="SourceGraphic" in2="BackgroundImageFix" result="shape"/>
<feGaussianBlur stdDeviation="6.55" result="effect1_foregroundBlur_1650_822"/>
</filter>
<filter id="filter12_f_1650_822" x="1493.13" y="165.99" width="37.8738" height="37.8743" filterUnits="userSpaceOnUse" color-interpolation-filters="sRGB">
<feFlood flood-opacity="0" result="BackgroundImageFix"/>
<feBlend mode="normal" in="SourceGraphic" in2="BackgroundImageFix" result="shape"/>
<feGaussianBlur stdDeviation="6.55" result="effect1_foregroundBlur_1650_822"/>
</filter>
<filter id="filter13_f_1650_822" x="1627.72" y="198.745" width="34.6902" height="34.6902" filterUnits="userSpaceOnUse" color-interpolation-filters="sRGB">
<feFlood flood-opacity="0" result="BackgroundImageFix"/>
<feBlend mode="normal" in="SourceGraphic" in2="BackgroundImageFix" result="shape"/>
<feGaussianBlur stdDeviation="6.55" result="effect1_foregroundBlur_1650_822"/>
</filter>
<filter id="filter14_f_1650_822" x="1628.52" y="83.065" width="34.6902" height="34.6902" filterUnits="userSpaceOnUse" color-interpolation-filters="sRGB">
<feFlood flood-opacity="0" result="BackgroundImageFix"/>
<feBlend mode="normal" in="SourceGraphic" in2="BackgroundImageFix" result="shape"/>
<feGaussianBlur stdDeviation="6.55" result="effect1_foregroundBlur_1650_822"/>
</filter>
<filter id="filter15_f_1650_822" x="1789.48" y="135.116" width="34.6902" height="34.6902" filterUnits="userSpaceOnUse" color-interpolation-filters="sRGB">
<feFlood flood-opacity="0" result="BackgroundImageFix"/>
<feBlend mode="normal" in="SourceGraphic" in2="BackgroundImageFix" result="shape"/>
<feGaussianBlur stdDeviation="6.55" result="effect1_foregroundBlur_1650_822"/>
</filter>
<filter id="filter16_f_1650_822" x="1183.66" y="176.506" width="34.6902" height="34.6902" filterUnits="userSpaceOnUse" color-interpolation-filters="sRGB">
<feFlood flood-opacity="0" result="BackgroundImageFix"/>
<feBlend mode="normal" in="SourceGraphic" in2="BackgroundImageFix" result="shape"/>
<feGaussianBlur stdDeviation="6.55" result="effect1_foregroundBlur_1650_822"/>
</filter>
<linearGradient id="paint0_linear_1650_822" x1="988.5" y1="-177.27" x2="946.353" y2="566.715" gradientUnits="userSpaceOnUse">
<stop stop-color="#46409C"/>
<stop offset="1" stop-color="#635ACE"/>
</linearGradient>
<linearGradient id="paint1_linear_1650_822" x1="2147.24" y1="30.4128" x2="733.184" y2="1309.08" gradientUnits="userSpaceOnUse">
<stop stop-color="#4D46A7"/>
<stop offset="0.49" stop-color="#5574E0"/>
<stop offset="1" stop-color="#5D57C4"/>
</linearGradient>
<clipPath id="clip0_1650_822">
<rect width="1921" height="592" fill="white"/>
</clipPath>
</defs>
</svg>
