<svg width="1392" height="441" viewBox="0 0 1392 441" fill="none" xmlns="http://www.w3.org/2000/svg">
<g clip-path="url(#clip0_1653_3247)">
<path d="M1657 -90V432.149C1356.5 407.478 1014.25 496.868 696.5 446.142C371.196 394.21 69 465.658 -264 422.207V-90H1657Z" fill="url(#paint0_linear_1653_3247)"/>
<g clip-path="url(#clip1_1653_3247)">
<g filter="url(#filter0_f_1653_3247)">
<path d="M-405 211.031C-207.735 107.344 996.862 421.288 1777.5 50.7365" stroke="url(#paint1_linear_1653_3247)" stroke-width="161"/>
</g>
</g>
<g filter="url(#filter1_f_1653_3247)">
<circle cx="-6.87331" cy="98.5086" r="5.29297" transform="rotate(-1.21526 -6.87331 98.5086)" fill="white" fill-opacity="0.5"/>
</g>
<g filter="url(#filter2_f_1653_3247)">
<circle cx="331.509" cy="168.337" r="5.29297" transform="rotate(-1.21526 331.509 168.337)" fill="white" fill-opacity="0.5"/>
</g>
<g filter="url(#filter3_f_1653_3247)">
<circle cx="74.9419" cy="211.801" r="3.84943" transform="rotate(-1.21526 74.9419 211.801)" fill="white" fill-opacity="0.5"/>
</g>
<g filter="url(#filter4_f_1653_3247)">
<circle cx="452.835" cy="193.193" r="3.84943" transform="rotate(-1.21526 452.835 193.193)" fill="white" fill-opacity="0.5"/>
</g>
<g filter="url(#filter5_f_1653_3247)">
<circle cx="450.611" cy="88.3197" r="3.84943" transform="rotate(-1.21526 450.611 88.3197)" fill="white" fill-opacity="0.5"/>
</g>
<g filter="url(#filter6_f_1653_3247)">
<circle cx="597.835" cy="131.4" r="3.84943" transform="rotate(-1.21526 597.835 131.4)" fill="white" fill-opacity="0.5"/>
</g>
<path d="M0.247847 101.731L0.249271 101.723C0.299447 101.411 0.0285968 101.181 -0.169113 101.013C-0.217366 100.972 -0.2624 100.934 -0.294605 100.902C-0.52138 100.651 -0.762137 100.46 -1.01714 100.257C-1.08251 100.206 -1.14927 100.153 -1.21432 100.1C-1.36692 99.9652 -1.50505 99.8214 -1.65117 99.6694C-1.85112 99.4612 -2.05768 99.2461 -2.308 99.0536C-2.6389 98.822 -2.82097 98.6158 -3.05591 98.2986C-3.08413 98.2542 -3.12203 98.2027 -3.1685 98.1449C-3.14957 98.1141 -3.13646 98.0795 -3.13933 98.0426C-3.13356 97.9821 -3.1163 97.9051 -3.11413 97.8915C-3.0838 97.5512 -3.02511 97.1908 -2.92717 96.7376C-2.85834 96.5565 -2.7696 96.3172 -2.69178 96.0701C-2.63236 95.8738 -2.58412 95.677 -2.53748 95.4866C-2.43926 95.0846 -2.34617 94.7051 -2.15571 94.3463C-2.02419 94.067 -1.89858 93.6148 -1.93284 93.2883C-1.93698 93.2056 -1.95525 93.1198 -1.98445 93.0465L-1.97799 93.0409C-1.98306 93.034 -1.98805 93.0277 -1.99639 93.0175C-2.0151 92.9764 -2.03466 92.9447 -2.05698 92.9185L-2.21279 92.8192L-2.22275 92.8323C-2.48616 92.7156 -2.76603 92.8673 -3.01956 93.0094C-3.17295 93.039 -3.32412 93.1378 -3.45606 93.2313C-3.56713 93.2902 -3.67639 93.3529 -3.78689 93.4161C-3.9012 93.4818 -4.01729 93.5482 -4.1324 93.6091C-4.26735 93.6692 -4.38792 93.731 -4.49346 93.7933C-4.57797 93.834 -4.66245 93.8727 -4.74647 93.9113C-5.06025 94.0548 -5.38466 94.2035 -5.68454 94.4525C-5.95113 94.6957 -6.23604 94.9364 -6.47796 95.1223C-6.5617 95.2059 -6.64052 95.2852 -6.7785 95.3432C-6.80458 95.36 -6.86188 95.3867 -6.91114 95.408C-6.9698 95.366 -7.02837 95.3251 -7.08359 95.289C-7.15738 95.2333 -7.22935 95.1745 -7.30127 95.116C-7.37398 95.0568 -7.44663 94.9978 -7.5251 94.9383C-7.73208 94.7964 -7.93059 94.6869 -8.12285 94.5808C-8.3131 94.4758 -8.49317 94.3767 -8.68229 94.2461C-8.79332 94.1797 -8.89973 94.0909 -9.0121 93.997C-9.12574 93.9021 -9.23663 93.8025 -9.35977 93.7348L-9.39645 93.7074C-9.66197 93.5091 -10.215 93.0951 -10.616 93.4257C-10.6372 93.4462 -10.6533 93.4668 -10.6671 93.4865C-10.7332 93.5141 -10.7938 93.5615 -10.8523 93.6354C-10.9248 93.7565 -10.916 93.9122 -10.9098 94.0258L-10.9109 94.1659C-10.9172 94.3795 -10.924 94.6216 -10.8678 94.8446C-10.7623 95.3252 -10.5629 95.7373 -10.3518 96.1738C-10.2547 96.375 -10.154 96.5828 -10.063 96.8001C-10.0302 96.8716 -9.99471 96.9436 -9.95911 97.0156C-9.72129 97.4981 -9.51563 97.9148 -9.96511 98.2701C-10.1757 98.4365 -10.3821 98.623 -10.5818 98.803C-10.8316 99.0285 -11.0899 99.2615 -11.356 99.4552C-11.9722 99.9038 -12.6704 100.412 -13.0311 101.164C-13.1232 101.356 -13.126 101.516 -13.0391 101.639C-12.827 101.94 -12.1319 101.866 -11.7981 101.83L-11.7436 101.823C-11.5874 101.784 -11.3576 101.744 -11.2876 101.739L-11.2451 101.741C-11.1672 101.733 -11.0785 101.722 -10.99 101.711C-10.9058 101.701 -10.8219 101.691 -10.7338 101.68C-10.4899 101.619 -9.98428 101.536 -9.98465 101.535C-9.83679 101.52 -9.68198 101.515 -9.53234 101.509C-9.37843 101.504 -9.21941 101.498 -9.06414 101.482C-8.98533 101.474 -8.91594 101.468 -8.84685 101.462L-8.80881 101.459C-8.76259 101.61 -8.71676 101.761 -8.67295 101.913C-8.65624 102.148 -8.5456 102.405 -8.48288 102.549L-8.44528 102.677C-8.41741 102.773 -8.38932 102.869 -8.35572 102.972C-8.30336 103.1 -8.21901 103.276 -8.11117 103.399C-8.0674 103.484 -8.02223 103.569 -7.97608 103.656L-7.85735 103.882C-7.80496 103.975 -7.71601 104.173 -7.6216 104.382C-7.50211 104.648 -7.37842 104.922 -7.28751 105.079C-7.25713 105.126 -7.22456 105.191 -7.18809 105.264C-7.07753 105.483 -6.93744 105.761 -6.72134 105.89C-6.64257 105.937 -6.55379 105.965 -6.45274 105.962C-6.11507 105.945 -5.93058 105.614 -5.79587 105.372C-5.77411 105.334 -5.75348 105.296 -5.73642 105.268C-5.35548 104.705 -5.09522 104.231 -4.91442 103.769C-4.8774 103.647 -4.84705 103.52 -4.81661 103.394C-4.7882 103.276 -4.75954 103.157 -4.72528 103.042C-4.64923 102.908 -4.39579 102.366 -4.37418 102.059C-4.38892 101.919 -4.37976 101.794 -4.36983 101.661C-3.98481 101.821 -3.59315 101.895 -3.21347 101.968C-3.0728 101.994 -2.93237 102.021 -2.78707 102.053C-2.20258 102.152 -1.66554 102.193 -1.0329 102.24L-0.917907 102.241C-0.52903 102.247 0.121037 102.257 0.24775 101.731L0.247847 101.731Z" fill="white"/>
<path d="M459.062 195.987L459.064 195.979C459.118 195.643 458.827 195.396 458.615 195.216C458.563 195.172 458.514 195.131 458.48 195.097C458.236 194.827 457.978 194.622 457.704 194.405C457.633 194.349 457.562 194.292 457.492 194.236C457.328 194.091 457.18 193.936 457.023 193.773C456.808 193.549 456.586 193.318 456.317 193.111C455.962 192.863 455.766 192.641 455.514 192.301C455.484 192.253 455.443 192.197 455.393 192.136C455.413 192.102 455.427 192.065 455.424 192.026C455.43 191.961 455.449 191.878 455.451 191.863C455.484 191.498 455.547 191.111 455.652 190.624C455.726 190.429 455.821 190.172 455.905 189.907C455.969 189.696 456.021 189.485 456.071 189.28C456.176 188.849 456.276 188.441 456.481 188.056C456.622 187.755 456.757 187.27 456.72 186.919C456.716 186.83 456.696 186.738 456.665 186.659L456.672 186.653C456.666 186.646 456.661 186.639 456.652 186.628C456.632 186.584 456.611 186.55 456.587 186.522L456.419 186.415L456.409 186.429C456.126 186.304 455.825 186.467 455.553 186.62C455.388 186.651 455.226 186.757 455.084 186.858C454.965 186.921 454.847 186.989 454.729 187.056C454.606 187.127 454.481 187.198 454.358 187.264C454.213 187.328 454.083 187.395 453.97 187.462C453.879 187.505 453.788 187.547 453.698 187.588C453.361 187.742 453.013 187.902 452.691 188.17C452.404 188.431 452.098 188.689 451.838 188.889C451.748 188.979 451.664 189.064 451.516 189.126C451.488 189.144 451.426 189.173 451.373 189.196C451.31 189.151 451.247 189.107 451.188 189.068C451.109 189.008 451.031 188.945 450.954 188.882C450.876 188.819 450.798 188.755 450.714 188.691C450.491 188.539 450.278 188.421 450.072 188.307C449.867 188.195 449.674 188.088 449.471 187.948C449.351 187.877 449.237 187.781 449.116 187.68C448.994 187.578 448.875 187.471 448.743 187.399L448.704 187.369C448.418 187.156 447.824 186.712 447.394 187.067C447.371 187.089 447.354 187.111 447.339 187.132C447.268 187.162 447.203 187.213 447.14 187.292C447.062 187.422 447.072 187.589 447.078 187.711L447.077 187.862C447.07 188.091 447.063 188.351 447.123 188.591C447.237 189.107 447.451 189.55 447.678 190.018C447.782 190.234 447.89 190.458 447.988 190.691C448.023 190.768 448.061 190.845 448.099 190.922C448.355 191.441 448.576 191.888 448.093 192.27C447.867 192.449 447.645 192.649 447.43 192.842C447.162 193.085 446.885 193.335 446.599 193.543C445.937 194.025 445.187 194.571 444.8 195.379C444.701 195.585 444.698 195.757 444.791 195.889C445.019 196.212 445.766 196.132 446.124 196.094L446.183 196.086C446.35 196.044 446.597 196.001 446.672 195.996L446.718 195.998C446.802 195.99 446.897 195.978 446.992 195.966C447.083 195.955 447.173 195.944 447.267 195.933C447.529 195.867 448.072 195.777 448.072 195.777C448.231 195.761 448.397 195.755 448.558 195.749C448.723 195.743 448.894 195.737 449.061 195.72C449.145 195.711 449.22 195.705 449.294 195.698L449.335 195.695C449.384 195.857 449.434 196.02 449.481 196.183C449.499 196.435 449.618 196.711 449.685 196.865L449.725 197.003C449.755 197.106 449.785 197.21 449.821 197.32C449.878 197.457 449.968 197.647 450.084 197.779C450.131 197.87 450.18 197.962 450.229 198.055L450.357 198.298C450.413 198.398 450.509 198.61 450.61 198.835C450.738 199.12 450.871 199.415 450.969 199.583C451.001 199.634 451.036 199.704 451.076 199.782C451.194 200.017 451.345 200.316 451.577 200.455C451.662 200.505 451.757 200.534 451.865 200.531C452.228 200.514 452.426 200.158 452.571 199.898C452.594 199.857 452.616 199.817 452.635 199.786C453.044 199.181 453.324 198.672 453.518 198.176C453.557 198.045 453.59 197.909 453.623 197.774C453.653 197.646 453.684 197.519 453.721 197.396C453.803 197.251 454.075 196.669 454.098 196.34C454.082 196.19 454.092 196.055 454.103 195.912C454.516 196.084 454.937 196.164 455.345 196.241C455.496 196.27 455.647 196.299 455.803 196.333C456.43 196.44 457.007 196.483 457.687 196.534L457.81 196.535C458.228 196.541 458.926 196.552 459.062 195.987L459.062 195.987Z" fill="white"/>
<g filter="url(#filter7_f_1653_3247)">
<circle cx="221.154" cy="93.6722" r="5.7445" transform="rotate(-1.21526 221.154 93.6722)" fill="white" fill-opacity="0.5"/>
</g>
<path d="M220.503 86.2074L220.495 86.2107C220.17 86.346 220.111 86.7364 220.068 87.0215C220.058 87.0911 220.048 87.1559 220.037 87.2049C219.932 87.5663 219.892 87.9057 219.85 88.2649C219.839 88.357 219.828 88.451 219.817 88.5432C219.778 88.7665 219.723 88.9811 219.665 89.2082C219.585 89.5189 219.503 89.84 219.467 90.1892C219.442 90.6374 219.354 90.9301 219.191 91.3377C219.166 91.3903 219.139 91.4563 219.112 91.534C219.072 91.5341 219.031 91.542 218.998 91.5663C218.938 91.5962 218.855 91.6249 218.841 91.6308C218.501 91.8012 218.126 91.9566 217.641 92.1291C217.429 92.17 217.151 92.2261 216.872 92.2971C216.652 92.3558 216.438 92.4253 216.23 92.4926C215.793 92.6349 215.38 92.7689 214.929 92.7988C214.588 92.8379 214.088 92.9836 213.799 93.207C213.723 93.2593 213.653 93.3267 213.601 93.3972L213.592 93.3944C213.588 93.4033 213.585 93.4117 213.58 93.4254C213.552 93.4672 213.534 93.5042 213.522 93.5407L213.519 93.746L213.537 93.7478C213.581 94.065 213.888 94.2407 214.171 94.3973C214.289 94.5249 214.471 94.61 214.636 94.68C214.757 94.7505 214.88 94.8171 215.004 94.8846C215.133 94.9542 215.264 95.0251 215.389 95.0982C215.525 95.1906 215.653 95.2684 215.774 95.3317C215.862 95.3878 215.948 95.445 216.034 95.5019C216.353 95.7145 216.683 95.9341 217.094 96.0719C217.48 96.1816 217.874 96.3101 218.191 96.43C218.319 96.4602 218.44 96.4883 218.576 96.5848C218.607 96.5996 218.665 96.6382 218.714 96.6723C218.709 96.7523 218.705 96.8315 218.703 96.9049C218.693 97.0072 218.68 97.1096 218.667 97.2118C218.653 97.3151 218.64 97.4183 218.63 97.5273C218.617 97.8059 218.629 98.0576 218.641 98.3013C218.653 98.5426 218.665 98.7707 218.652 99.0259C218.654 99.1697 218.633 99.3222 218.61 99.4833C218.587 99.6463 218.557 99.8093 218.565 99.9653L218.561 100.016C218.529 100.383 218.461 101.148 219.008 101.333C219.04 101.341 219.069 101.345 219.095 101.346C219.16 101.392 219.24 101.422 219.344 101.434C219.501 101.432 219.643 101.332 219.747 101.26L219.88 101.179C220.086 101.06 220.318 100.925 220.496 100.741C220.889 100.361 221.162 99.931 221.451 99.4762C221.584 99.2667 221.722 99.05 221.874 98.8368C221.922 98.764 221.969 98.6884 222.017 98.6126C222.334 98.1056 222.607 97.6675 223.206 97.8845C223.486 97.9862 223.783 98.0722 224.07 98.1556C224.43 98.2597 224.801 98.3676 225.14 98.5058C225.924 98.8258 226.813 99.1882 227.735 99.0893C227.97 99.064 228.123 98.973 228.188 98.8191C228.349 98.4425 227.872 97.829 227.643 97.5345L227.604 97.487C227.476 97.3624 227.303 97.1688 227.259 97.105L227.235 97.0637C227.182 96.9948 227.12 96.9174 227.058 96.8402C226.999 96.7666 226.94 96.6934 226.879 96.6161C226.678 96.4214 226.304 95.9924 226.304 95.9929C226.202 95.8621 226.107 95.719 226.014 95.5807C225.919 95.4383 225.821 95.2913 225.715 95.1541C225.661 95.0845 225.615 95.0223 225.569 94.9604L225.543 94.9264C225.659 94.7942 225.776 94.6623 225.894 94.532C226.105 94.379 226.284 94.1241 226.383 93.9809L226.482 93.8704C226.556 93.7879 226.631 93.7049 226.708 93.6131C226.799 93.4887 226.916 93.3059 226.969 93.1321C227.024 93.0409 227.078 92.9485 227.133 92.8538L227.277 92.6096C227.334 92.5056 227.469 92.3058 227.612 92.0942C227.793 91.8261 227.98 91.5485 228.075 91.3709C228.102 91.3144 228.144 91.2456 228.191 91.1689C228.334 90.9362 228.515 90.6411 228.511 90.3613C228.509 90.2593 228.483 90.1594 228.421 90.0655C228.208 89.7561 227.787 89.7754 227.48 89.7894C227.43 89.7916 227.383 89.7939 227.346 89.7946C226.591 89.7638 225.991 89.795 225.449 89.8943C225.312 89.9308 225.174 89.976 225.037 90.021C224.909 90.0635 224.78 90.1057 224.651 90.1406C224.48 90.1473 223.819 90.2247 223.517 90.3837C223.393 90.4795 223.269 90.5443 223.138 90.6124C223.064 90.1553 222.905 89.7416 222.751 89.3404C222.694 89.1918 222.637 89.0435 222.582 88.8874C222.334 88.277 222.058 87.7457 221.733 87.1199L221.667 87.0106C221.445 86.6399 221.074 86.0194 220.503 86.2075L220.503 86.2074Z" fill="white"/>
<g filter="url(#filter8_f_1653_3247)">
<circle cx="706.776" cy="189.464" r="3.88348" transform="rotate(1.93411 706.776 189.464)" fill="white" fill-opacity="0.5"/>
</g>
<path d="M706.613 184.401L706.607 184.403C706.383 184.482 706.329 184.744 706.289 184.934C706.28 184.981 706.271 185.024 706.261 185.057C706.177 185.297 706.138 185.525 706.096 185.766C706.085 185.827 706.074 185.89 706.063 185.952C706.029 186.102 705.984 186.244 705.936 186.395C705.871 186.602 705.803 186.816 705.766 187.05C705.732 187.352 705.662 187.546 705.537 187.815C705.518 187.85 705.498 187.893 705.476 187.945C705.449 187.943 705.422 187.947 705.398 187.962C705.356 187.98 705.299 187.997 705.29 188C705.054 188.103 704.795 188.194 704.461 188.292C704.317 188.312 704.127 188.339 703.936 188.377C703.785 188.408 703.638 188.447 703.495 188.485C703.195 188.565 702.911 188.64 702.606 188.643C702.374 188.657 702.031 188.737 701.828 188.877C701.775 188.909 701.725 188.952 701.687 188.998L701.681 188.996C701.678 189.001 701.676 189.007 701.672 189.016C701.652 189.043 701.638 189.068 701.628 189.092L701.619 189.23L701.631 189.232C701.649 189.448 701.85 189.578 702.035 189.694C702.109 189.785 702.229 189.849 702.338 189.902C702.417 189.954 702.498 190.004 702.579 190.054C702.664 190.106 702.749 190.158 702.831 190.212C702.919 190.28 703.003 190.337 703.082 190.384C703.139 190.426 703.195 190.467 703.251 190.509C703.459 190.664 703.673 190.825 703.945 190.933C704.202 191.021 704.463 191.123 704.673 191.216C704.758 191.241 704.839 191.264 704.927 191.334C704.947 191.345 704.985 191.374 705.017 191.399C705.01 191.452 705.005 191.506 705.001 191.555C704.99 191.624 704.978 191.692 704.965 191.761C704.952 191.83 704.939 191.899 704.928 191.972C704.909 192.16 704.908 192.33 704.907 192.495C704.906 192.659 704.906 192.813 704.888 192.985C704.884 193.082 704.864 193.184 704.842 193.292C704.82 193.401 704.795 193.51 704.794 193.616L704.789 193.65C704.754 193.896 704.68 194.41 705.042 194.556C705.063 194.562 705.083 194.566 705.101 194.568C705.143 194.601 705.196 194.624 705.266 194.636C705.371 194.64 705.471 194.579 705.544 194.534L705.637 194.484C705.78 194.411 705.942 194.329 706.069 194.211C706.348 193.969 706.548 193.689 706.76 193.393C706.858 193.256 706.959 193.115 707.069 192.977C707.105 192.93 707.139 192.88 707.174 192.831C707.407 192.5 707.608 192.215 708.004 192.384C708.189 192.463 708.387 192.532 708.577 192.599C708.816 192.682 709.063 192.769 709.286 192.875C709.804 193.12 710.39 193.398 711.016 193.365C711.176 193.357 711.283 193.301 711.332 193.2C711.455 192.951 711.156 192.519 711.012 192.312L710.988 192.279C710.906 192.19 710.796 192.053 710.768 192.008L710.754 191.979C710.721 191.931 710.682 191.876 710.643 191.822C710.606 191.77 710.569 191.718 710.53 191.664C710.402 191.525 710.165 191.221 710.165 191.222C710.102 191.13 710.042 191.03 709.985 190.933C709.926 190.833 709.865 190.73 709.799 190.634C709.765 190.585 709.736 190.541 709.707 190.498L709.692 190.474C709.775 190.389 709.858 190.304 709.943 190.22C710.091 190.125 710.221 189.96 710.293 189.867L710.364 189.796C710.417 189.743 710.471 189.69 710.527 189.63C710.592 189.55 710.678 189.431 710.72 189.315C710.761 189.256 710.801 189.196 710.842 189.134L710.948 188.974C710.991 188.906 711.089 188.776 711.193 188.639C711.325 188.464 711.462 188.284 711.532 188.168C711.553 188.131 711.584 188.086 711.619 188.036C711.723 187.884 711.856 187.691 711.864 187.502C711.867 187.433 711.853 187.365 711.815 187.299C711.682 187.083 711.397 187.08 711.19 187.078C711.156 187.078 711.124 187.077 711.099 187.077C710.59 187.028 710.184 187.027 709.815 187.073C709.721 187.093 709.626 187.118 709.532 187.144C709.444 187.168 709.355 187.191 709.267 187.21C709.151 187.208 708.703 187.236 708.492 187.332C708.405 187.392 708.319 187.431 708.228 187.472C708.195 187.161 708.103 186.876 708.014 186.599C707.981 186.497 707.948 186.395 707.917 186.287C707.772 185.866 707.606 185.497 707.41 185.063L707.369 184.986C707.233 184.728 707.006 184.295 706.613 184.401L706.613 184.401Z" fill="white"/>
<path d="M448.644 92.0608L448.649 92.0614C448.882 92.0798 449.035 91.8668 449.147 91.7114C449.175 91.6734 449.2 91.638 449.221 91.6124C449.393 91.4306 449.519 91.2421 449.653 91.0424C449.687 90.9912 449.722 90.939 449.757 90.888C449.847 90.7676 449.945 90.6574 450.048 90.5409C450.19 90.3814 450.336 90.2166 450.463 90.0209C450.613 89.7636 450.754 89.6174 450.974 89.4257C451.005 89.4023 451.041 89.3713 451.08 89.3337C451.104 89.3458 451.13 89.3534 451.157 89.3491C451.202 89.3498 451.26 89.3579 451.27 89.3587C451.522 89.3608 451.791 89.3827 452.131 89.4279C452.268 89.4678 452.449 89.5189 452.636 89.5616C452.784 89.5936 452.931 89.6175 453.074 89.6405C453.376 89.689 453.661 89.735 453.936 89.8539C454.15 89.9341 454.49 89.9998 454.728 89.9552C454.789 89.9473 454.851 89.9287 454.903 89.9029L454.908 89.9073C454.912 89.9032 454.917 89.8991 454.924 89.8924C454.953 89.8762 454.975 89.8599 454.993 89.8419L455.057 89.7213L455.047 89.7148C455.117 89.514 454.989 89.317 454.869 89.1388C454.838 89.0277 454.756 88.9223 454.68 88.8307C454.63 88.7524 454.577 88.6757 454.524 88.5982C454.469 88.5179 454.413 88.4364 454.362 88.3553C454.309 88.2595 454.257 88.1745 454.205 88.1005C454.17 88.0407 454.136 87.9808 454.103 87.9212C453.979 87.6988 453.85 87.4688 453.649 87.2629C453.454 87.0811 453.26 86.8857 453.109 86.7186C453.042 86.662 452.979 86.6086 452.928 86.5105C452.915 86.4923 452.892 86.4517 452.873 86.4167C452.9 86.3711 452.927 86.3255 452.95 86.2828C452.987 86.2251 453.026 86.1687 453.065 86.1123C453.104 86.0553 453.143 85.9983 453.182 85.937C453.274 85.7762 453.343 85.6236 453.41 85.4758C453.476 85.3296 453.538 85.1912 453.623 85.0442C453.665 84.9586 453.724 84.875 453.787 84.7867C453.85 84.6974 453.917 84.6099 453.959 84.5153L453.977 84.4867C454.107 84.2795 454.379 83.8479 454.112 83.5723C454.096 83.558 454.08 83.5473 454.064 83.5383C454.04 83.4913 454.002 83.4496 453.944 83.4108C453.85 83.3647 453.736 83.3804 453.653 83.3917L453.55 83.3991C453.392 83.4072 453.214 83.4166 453.053 83.4712C452.706 83.5773 452.414 83.7485 452.105 83.9297C451.963 84.0131 451.816 84.0996 451.661 84.1795C451.611 84.2078 451.56 84.2382 451.509 84.2687C451.168 84.4723 450.873 84.6484 450.585 84.3386C450.45 84.1935 450.301 84.0527 450.156 83.9163C449.976 83.7459 449.789 83.5696 449.631 83.3852C449.264 82.9583 448.848 82.4745 448.273 82.2536C448.126 82.1972 448.009 82.2046 447.923 82.2759C447.714 82.4499 447.81 82.957 447.856 83.2006L447.865 83.2403C447.903 83.353 447.946 83.5196 447.953 83.571L447.955 83.6024C447.965 83.6592 447.978 83.7239 447.992 83.7883C448.004 83.8497 448.017 83.9108 448.03 83.9751C448.089 84.1509 448.181 84.5182 448.181 84.5179C448.201 84.6258 448.214 84.7394 448.227 84.8492C448.24 84.9622 448.253 85.0789 448.275 85.1922C448.285 85.2497 448.294 85.3005 448.302 85.351L448.307 85.3788C448.198 85.4218 448.09 85.4645 447.98 85.5057C447.809 85.5319 447.626 85.6286 447.524 85.6833L447.432 85.7185C447.363 85.7448 447.294 85.7711 447.22 85.802C447.129 85.8481 447.004 85.9206 446.92 86.0073C446.86 86.0446 446.8 86.0828 446.739 86.122L446.58 86.2228C446.514 86.2668 446.374 86.344 446.226 86.4259C446.037 86.5296 445.842 86.6369 445.733 86.7131C445.699 86.7383 445.653 86.7661 445.602 86.7973C445.448 86.8916 445.251 87.0112 445.169 87.1779C445.139 87.2387 445.124 87.3057 445.132 87.3799C445.164 87.6274 445.419 87.7436 445.605 87.8284C445.635 87.8421 445.663 87.8551 445.686 87.866C446.123 88.113 446.487 88.2764 446.837 88.3821C446.93 88.4021 447.024 88.417 447.119 88.4319C447.208 88.4458 447.297 88.4598 447.383 88.4782C447.487 88.5262 447.901 88.6807 448.128 88.6784C448.23 88.6592 448.323 88.6585 448.421 88.658C448.326 88.9508 448.295 89.2435 448.264 89.5272C448.253 89.6324 448.242 89.7373 448.227 89.8462C448.188 90.2822 448.19 90.6799 448.193 91.1484L448.199 91.2331C448.218 91.5196 448.249 91.9987 448.644 92.0608L448.644 92.0608Z" fill="white"/>
<path d="M78.2102 205.332L78.2038 205.33C77.9486 205.266 77.7385 205.473 77.5848 205.625C77.5474 205.662 77.5126 205.696 77.4839 205.721C77.259 205.89 77.0831 206.076 76.897 206.272C76.8493 206.322 76.8006 206.374 76.7523 206.424C76.6292 206.54 76.5 206.644 76.3634 206.754C76.1763 206.905 75.983 207.06 75.8052 207.253C75.5892 207.511 75.405 207.646 75.125 207.818C75.0863 207.838 75.0407 207.866 74.9895 207.9C74.9654 207.882 74.9376 207.869 74.9068 207.868C74.8571 207.859 74.7946 207.839 74.7836 207.836C74.5038 207.786 74.2095 207.711 73.8412 207.597C73.6962 207.527 73.5044 207.436 73.3054 207.353C73.1471 207.29 72.9876 207.235 72.8332 207.183C72.5074 207.072 72.1998 206.967 71.9165 206.783C71.6946 206.654 71.3292 206.517 71.0562 206.521C70.9874 206.519 70.915 206.527 70.8521 206.546L70.848 206.541C70.8418 206.544 70.8362 206.548 70.8272 206.554C70.7918 206.567 70.7641 206.58 70.7407 206.597L70.6471 206.719L70.6572 206.728C70.5412 206.938 70.6465 207.181 70.7457 207.401C70.759 207.53 70.8298 207.663 70.8976 207.779C70.9383 207.875 70.9823 207.97 71.0265 208.067C71.0726 208.166 71.1192 208.267 71.1612 208.367C71.2011 208.483 71.2435 208.588 71.2874 208.68C71.315 208.753 71.3409 208.825 71.3666 208.898C71.4627 209.168 71.5621 209.448 71.7465 209.715C71.9285 209.953 72.107 210.207 72.2434 210.421C72.3066 210.496 72.3665 210.567 72.4044 210.686C72.4164 210.709 72.4344 210.758 72.4484 210.801C72.4093 210.846 72.3712 210.892 72.3372 210.935C72.2857 210.992 72.2318 211.047 72.178 211.103C72.1237 211.158 72.0695 211.214 72.0145 211.275C71.8817 211.436 71.7765 211.593 71.6746 211.744C71.5737 211.894 71.4784 212.036 71.3564 212.183C71.2932 212.27 71.2119 212.352 71.1259 212.438C71.0389 212.525 70.9483 212.61 70.8833 212.707L70.8579 212.735C70.6742 212.941 70.2908 213.369 70.5353 213.725C70.5508 213.744 70.5667 213.759 70.582 213.772C70.6 213.829 70.6348 213.882 70.6918 213.936C70.7868 214.005 70.9164 214.009 71.011 214.012L71.127 214.024C71.3036 214.044 71.5036 214.068 71.6925 214.037C72.0983 213.985 72.4544 213.85 72.8314 213.707C73.0052 213.641 73.1847 213.573 73.3714 213.514C73.433 213.492 73.4952 213.468 73.5575 213.443C73.9747 213.282 74.3349 213.142 74.5964 213.54C74.7189 213.727 74.8583 213.911 74.9929 214.09C75.1615 214.313 75.3356 214.544 75.4766 214.779C75.8032 215.322 76.1736 215.938 76.7701 216.292C76.9225 216.382 77.0549 216.396 77.163 216.333C77.4279 216.179 77.4171 215.598 77.4118 215.319L77.4101 215.273C77.3889 215.141 77.3723 214.948 77.3741 214.889L77.3787 214.854C77.3777 214.789 77.3751 214.715 77.3725 214.641C77.3701 214.57 77.3677 214.5 77.3656 214.426C77.3327 214.22 77.3005 213.795 77.3003 213.795C77.2983 213.671 77.3052 213.543 77.3116 213.418C77.3185 213.29 77.3255 213.158 77.3233 213.028C77.3222 212.962 77.3225 212.905 77.3228 212.847L77.3228 212.815C77.4515 212.788 77.5802 212.761 77.7093 212.736C77.9049 212.739 78.1259 212.666 78.2494 212.625L78.3583 212.603C78.4399 212.587 78.5219 212.571 78.6094 212.55C78.7193 212.516 78.8715 212.459 78.9811 212.379C79.0549 212.349 79.1286 212.318 79.2043 212.286L79.4 212.204C79.481 212.167 79.6514 212.108 79.8316 212.045C80.0601 211.966 80.2967 211.883 80.4331 211.819C80.4748 211.798 80.531 211.775 80.5935 211.75C80.7831 211.675 81.0238 211.579 81.1467 211.41C81.1915 211.348 81.2206 211.276 81.2256 211.192C81.2366 210.911 80.9757 210.734 80.7854 210.605C80.7548 210.584 80.7254 210.564 80.7028 210.548C80.2643 210.191 79.8907 209.941 79.5214 209.758C79.4229 209.718 79.3203 209.684 79.2181 209.649C79.1219 209.617 79.026 209.584 78.9331 209.548C78.8274 209.475 78.3971 209.225 78.1445 209.185C78.0274 209.187 77.924 209.17 77.8151 209.152C77.9752 208.845 78.0655 208.526 78.1532 208.217C78.1857 208.102 78.218 207.988 78.2552 207.87C78.38 207.393 78.4529 206.951 78.5386 206.43L78.5479 206.335C78.5808 206.013 78.6369 205.475 78.2101 205.332L78.2102 205.332Z" fill="white"/>
<path d="M598.202 126.553L598.197 126.551C598.022 126.507 597.878 126.65 597.772 126.754C597.746 126.779 597.723 126.803 597.703 126.82C597.548 126.936 597.428 127.063 597.3 127.198C597.267 127.233 597.234 127.268 597.2 127.303C597.116 127.383 597.027 127.454 596.933 127.53C596.805 127.633 596.672 127.74 596.55 127.872C596.402 128.049 596.275 128.142 596.083 128.26C596.056 128.274 596.025 128.293 595.99 128.316C595.973 128.304 595.954 128.295 595.933 128.295C595.899 128.288 595.856 128.275 595.849 128.273C595.656 128.238 595.454 128.187 595.202 128.108C595.102 128.06 594.97 127.998 594.834 127.941C594.725 127.897 594.615 127.86 594.509 127.824C594.286 127.748 594.074 127.676 593.88 127.549C593.728 127.461 593.477 127.366 593.289 127.37C593.242 127.368 593.192 127.374 593.149 127.387L593.146 127.383C593.142 127.385 593.138 127.388 593.132 127.392C593.108 127.401 593.089 127.41 593.072 127.422L593.008 127.505L593.015 127.512C592.935 127.656 593.008 127.822 593.076 127.974C593.085 128.063 593.134 128.153 593.18 128.233C593.208 128.299 593.238 128.365 593.269 128.431C593.3 128.499 593.332 128.568 593.361 128.637C593.389 128.717 593.418 128.788 593.448 128.852C593.467 128.902 593.485 128.952 593.502 129.001C593.568 129.187 593.636 129.379 593.763 129.562C593.888 129.726 594.011 129.9 594.104 130.047C594.148 130.099 594.189 130.148 594.215 130.229C594.223 130.245 594.235 130.279 594.245 130.308C594.218 130.339 594.192 130.371 594.169 130.4C594.133 130.439 594.096 130.477 594.059 130.515C594.022 130.554 593.985 130.592 593.947 130.634C593.856 130.744 593.784 130.852 593.714 130.956C593.644 131.059 593.579 131.156 593.495 131.257C593.452 131.317 593.396 131.373 593.337 131.433C593.277 131.492 593.215 131.55 593.17 131.617L593.153 131.637C593.027 131.778 592.763 132.072 592.931 132.316C592.942 132.329 592.953 132.34 592.963 132.348C592.976 132.387 593 132.424 593.039 132.461C593.104 132.509 593.193 132.511 593.258 132.514L593.338 132.521C593.459 132.536 593.596 132.552 593.726 132.531C594.005 132.495 594.249 132.402 594.508 132.304C594.627 132.259 594.751 132.212 594.879 132.171C594.921 132.156 594.964 132.139 595.007 132.123C595.293 132.012 595.541 131.916 595.72 132.189C595.804 132.317 595.9 132.444 595.992 132.567C596.108 132.72 596.228 132.879 596.325 133.04C596.549 133.413 596.803 133.836 597.213 134.079C597.317 134.141 597.408 134.15 597.483 134.107C597.664 134.002 597.657 133.602 597.653 133.411L597.652 133.379C597.638 133.288 597.626 133.156 597.627 133.116L597.631 133.092C597.63 133.047 597.628 132.996 597.626 132.945C597.625 132.897 597.623 132.848 597.622 132.798C597.599 132.656 597.577 132.364 597.577 132.364C597.575 132.279 597.58 132.191 597.585 132.106C597.589 132.018 597.594 131.927 597.593 131.838C597.592 131.793 597.592 131.753 597.592 131.713L597.592 131.691C597.681 131.673 597.769 131.654 597.858 131.637C597.992 131.639 598.144 131.589 598.229 131.561L598.303 131.546C598.359 131.535 598.416 131.524 598.476 131.51C598.551 131.486 598.656 131.447 598.731 131.392C598.782 131.371 598.832 131.35 598.884 131.328L599.019 131.272C599.074 131.247 599.191 131.206 599.315 131.163C599.472 131.108 599.634 131.051 599.728 131.008C599.757 130.993 599.795 130.977 599.838 130.96C599.968 130.908 600.134 130.843 600.218 130.726C600.249 130.684 600.269 130.635 600.272 130.577C600.28 130.384 600.101 130.263 599.97 130.174C599.949 130.159 599.929 130.146 599.913 130.135C599.612 129.89 599.356 129.718 599.102 129.592C599.034 129.565 598.964 129.541 598.894 129.517C598.828 129.495 598.762 129.473 598.698 129.448C598.625 129.398 598.33 129.226 598.157 129.199C598.076 129.2 598.005 129.189 597.93 129.176C598.04 128.965 598.102 128.746 598.162 128.534C598.185 128.455 598.207 128.376 598.232 128.295C598.318 127.968 598.368 127.664 598.427 127.307L598.434 127.242C598.456 127.021 598.495 126.651 598.202 126.553L598.202 126.553Z" fill="white"/>
<path d="M335.643 160.557L335.634 160.555C335.264 160.461 334.959 160.763 334.736 160.982C334.682 161.036 334.631 161.086 334.589 161.121C334.263 161.367 334.008 161.636 333.738 161.921C333.669 161.995 333.598 162.069 333.528 162.142C333.35 162.311 333.162 162.462 332.964 162.621C332.692 162.839 332.412 163.065 332.154 163.345C331.841 163.718 331.573 163.915 331.167 164.164C331.111 164.193 331.045 164.233 330.971 164.283C330.936 164.257 330.895 164.238 330.851 164.237C330.779 164.224 330.688 164.195 330.672 164.191C330.266 164.118 329.839 164.01 329.305 163.844C329.094 163.742 328.816 163.61 328.528 163.49C328.298 163.398 328.067 163.319 327.843 163.243C327.37 163.082 326.924 162.93 326.513 162.663C326.191 162.475 325.661 162.276 325.265 162.283C325.165 162.279 325.06 162.292 324.968 162.319L324.963 162.311C324.954 162.316 324.945 162.322 324.932 162.331C324.881 162.349 324.841 162.369 324.807 162.393L324.671 162.57L324.686 162.583C324.518 162.887 324.67 163.24 324.814 163.56C324.833 163.747 324.936 163.939 325.035 164.108C325.094 164.248 325.157 164.385 325.222 164.525C325.288 164.669 325.356 164.816 325.417 164.961C325.475 165.129 325.536 165.281 325.6 165.414C325.64 165.52 325.678 165.626 325.715 165.731C325.854 166.123 325.998 166.529 326.266 166.916C326.53 167.262 326.789 167.63 326.987 167.94C327.079 168.05 327.165 168.153 327.221 168.325C327.238 168.358 327.264 168.43 327.284 168.491C327.228 168.557 327.172 168.623 327.123 168.686C327.048 168.769 326.97 168.849 326.892 168.929C326.813 169.01 326.735 169.091 326.655 169.179C326.462 169.413 326.31 169.64 326.162 169.86C326.015 170.077 325.877 170.283 325.7 170.497C325.608 170.623 325.491 170.742 325.366 170.867C325.24 170.993 325.108 171.116 325.014 171.257L324.977 171.298C324.71 171.596 324.154 172.217 324.509 172.734C324.531 172.762 324.554 172.783 324.577 172.802C324.603 172.884 324.653 172.962 324.736 173.04C324.874 173.14 325.062 173.146 325.199 173.151L325.367 173.167C325.623 173.197 325.914 173.231 326.188 173.187C326.776 173.111 327.293 172.915 327.84 172.708C328.092 172.612 328.353 172.513 328.623 172.427C328.713 172.395 328.803 172.36 328.893 172.325C329.499 172.09 330.021 171.887 330.401 172.465C330.578 172.736 330.78 173.004 330.976 173.263C331.22 173.587 331.473 173.922 331.677 174.263C332.151 175.051 332.689 175.944 333.554 176.457C333.775 176.588 333.967 176.609 334.124 176.517C334.508 176.294 334.493 175.451 334.485 175.046L334.482 174.98C334.452 174.788 334.428 174.507 334.43 174.423L334.437 174.372C334.435 174.277 334.432 174.17 334.428 174.062C334.424 173.96 334.421 173.858 334.418 173.751C334.37 173.451 334.323 172.835 334.323 172.835C334.32 172.656 334.33 172.469 334.34 172.289C334.349 172.103 334.36 171.911 334.356 171.723C334.355 171.627 334.355 171.543 334.356 171.46L334.356 171.414C334.542 171.374 334.729 171.335 334.916 171.299C335.2 171.303 335.521 171.198 335.7 171.138L335.858 171.106C335.976 171.083 336.095 171.059 336.222 171.03C336.382 170.98 336.602 170.898 336.761 170.781C336.868 170.737 336.975 170.692 337.085 170.646L337.369 170.527C337.487 170.474 337.734 170.388 337.995 170.297C338.327 170.181 338.67 170.062 338.868 169.969C338.928 169.938 339.01 169.905 339.101 169.869C339.376 169.76 339.725 169.621 339.903 169.375C339.968 169.285 340.01 169.181 340.018 169.059C340.033 168.652 339.655 168.395 339.379 168.207C339.335 168.177 339.292 168.148 339.259 168.125C338.623 167.607 338.081 167.244 337.545 166.978C337.402 166.921 337.254 166.871 337.105 166.821C336.966 166.774 336.827 166.727 336.692 166.674C336.538 166.568 335.914 166.206 335.548 166.147C335.378 166.15 335.228 166.126 335.07 166.1C335.302 165.654 335.433 165.191 335.56 164.743C335.608 164.576 335.654 164.41 335.708 164.239C335.889 163.547 335.995 162.906 336.119 162.151L336.133 162.013C336.181 161.546 336.262 160.766 335.643 160.557L335.643 160.557Z" fill="white"/>
<g filter="url(#filter9_f_1653_3247)">
<circle cx="826.913" cy="120.729" r="9.73242" transform="rotate(0.393949 826.913 120.729)" fill="white" fill-opacity="0.5"/>
</g>
<g filter="url(#filter10_f_1653_3247)">
<circle cx="1029.69" cy="115.358" r="5.83718" transform="rotate(0.393949 1029.69 115.358)" fill="white" fill-opacity="0.5"/>
</g>
<g filter="url(#filter11_f_1653_3247)">
<circle cx="1248.07" cy="184.927" r="5.83718" transform="rotate(0.393949 1248.07 184.927)" fill="white" fill-opacity="0.5"/>
</g>
<g filter="url(#filter12_f_1653_3247)">
<circle cx="1381.06" cy="216.093" r="4.24522" transform="rotate(0.393949 1381.06 216.093)" fill="white" fill-opacity="0.5"/>
</g>
<g filter="url(#filter13_f_1653_3247)">
<circle cx="1381.86" cy="100.41" r="4.24522" transform="rotate(0.393949 1381.86 100.41)" fill="white" fill-opacity="0.5"/>
</g>
<path d="M1032.93 123.079L1032.94 123.073C1033.21 122.857 1033.16 122.468 1033.13 122.184C1033.12 122.115 1033.11 122.051 1033.11 122.001C1033.11 121.627 1033.06 121.293 1033 120.938C1032.99 120.847 1032.97 120.755 1032.96 120.663C1032.94 120.44 1032.93 120.22 1032.93 119.988C1032.92 119.669 1032.91 119.341 1032.85 118.997C1032.76 118.562 1032.76 118.259 1032.81 117.826C1032.82 117.769 1032.83 117.699 1032.83 117.618C1032.87 117.607 1032.91 117.588 1032.93 117.556C1032.98 117.511 1033.05 117.462 1033.06 117.452C1033.34 117.199 1033.66 116.95 1034.08 116.655C1034.27 116.559 1034.52 116.431 1034.77 116.288C1034.96 116.173 1035.15 116.049 1035.33 115.93C1035.71 115.676 1036.07 115.438 1036.49 115.288C1036.8 115.16 1037.24 114.886 1037.46 114.595C1037.52 114.525 1037.57 114.442 1037.6 114.361L1037.61 114.361C1037.61 114.351 1037.61 114.343 1037.61 114.328C1037.62 114.281 1037.63 114.241 1037.63 114.203L1037.58 114.006L1037.56 114.009C1037.44 113.717 1037.1 113.632 1036.78 113.558C1036.64 113.468 1036.44 113.435 1036.26 113.413C1036.13 113.378 1035.99 113.347 1035.86 113.316C1035.72 113.284 1035.57 113.251 1035.43 113.215C1035.28 113.163 1035.13 113.123 1035 113.095C1034.9 113.065 1034.81 113.033 1034.71 113.002C1034.35 112.884 1033.97 112.763 1033.54 112.742C1033.15 112.74 1032.73 112.723 1032.4 112.694C1032.27 112.699 1032.15 112.705 1031.99 112.649C1031.96 112.643 1031.89 112.622 1031.83 112.602C1031.82 112.524 1031.8 112.448 1031.78 112.377C1031.76 112.277 1031.75 112.175 1031.74 112.074C1031.72 111.972 1031.71 111.87 1031.69 111.763C1031.62 111.493 1031.54 111.256 1031.47 111.027C1031.39 110.799 1031.32 110.584 1031.26 110.337C1031.22 110.2 1031.2 110.049 1031.18 109.889C1031.16 109.727 1031.14 109.563 1031.09 109.417L1031.08 109.367C1031.02 109.008 1030.88 108.259 1030.3 108.228C1030.27 108.229 1030.24 108.234 1030.22 108.239C1030.14 108.213 1030.06 108.206 1029.96 108.222C1029.81 108.266 1029.7 108.399 1029.62 108.496L1029.51 108.609C1029.35 108.778 1029.16 108.97 1029.04 109.193C1028.77 109.662 1028.62 110.145 1028.47 110.657C1028.4 110.893 1028.32 111.137 1028.24 111.381C1028.21 111.464 1028.18 111.549 1028.16 111.634C1027.99 112.203 1027.85 112.695 1027.22 112.648C1026.92 112.626 1026.62 112.623 1026.32 112.621C1025.95 112.617 1025.57 112.614 1025.2 112.573C1024.37 112.477 1023.42 112.369 1022.57 112.711C1022.35 112.798 1022.23 112.926 1022.21 113.09C1022.16 113.493 1022.78 113.951 1023.07 114.171L1023.12 114.206C1023.28 114.291 1023.5 114.43 1023.56 114.479L1023.59 114.512C1023.66 114.563 1023.74 114.621 1023.82 114.678C1023.89 114.732 1023.97 114.786 1024.05 114.844C1024.29 114.976 1024.77 115.286 1024.77 115.285C1024.9 115.383 1025.03 115.494 1025.15 115.601C1025.28 115.712 1025.42 115.826 1025.55 115.928C1025.62 115.981 1025.68 116.028 1025.75 116.075L1025.78 116.1C1025.7 116.258 1025.63 116.415 1025.55 116.571C1025.39 116.774 1025.29 117.065 1025.23 117.228L1025.16 117.36C1025.12 117.459 1025.07 117.558 1025.02 117.667C1024.96 117.81 1024.9 118.016 1024.9 118.196C1024.87 118.298 1024.84 118.401 1024.81 118.506L1024.74 118.778C1024.72 118.893 1024.64 119.12 1024.56 119.36C1024.46 119.665 1024.36 119.98 1024.31 120.175C1024.3 120.236 1024.28 120.313 1024.26 120.399C1024.18 120.66 1024.09 120.99 1024.17 121.256C1024.2 121.353 1024.25 121.442 1024.33 121.515C1024.62 121.753 1025.02 121.622 1025.31 121.526C1025.35 121.511 1025.4 121.496 1025.43 121.486C1026.16 121.313 1026.73 121.122 1027.22 120.882C1027.34 120.81 1027.46 120.73 1027.58 120.651C1027.69 120.576 1027.8 120.501 1027.91 120.433C1028.08 120.381 1028.69 120.13 1028.93 119.897C1029.02 119.772 1029.13 119.677 1029.23 119.577C1029.43 119.994 1029.69 120.346 1029.94 120.688C1030.04 120.815 1030.13 120.941 1030.23 121.076C1030.63 121.592 1031.03 122.026 1031.51 122.537L1031.6 122.623C1031.91 122.918 1032.43 123.411 1032.93 123.079L1032.93 123.079Z" fill="white"/>
<path d="M1387.84 219.366L1387.85 219.357C1387.92 218.989 1387.6 218.708 1387.37 218.502C1387.32 218.452 1387.27 218.406 1387.23 218.367C1386.97 218.062 1386.69 217.827 1386.4 217.58C1386.32 217.516 1386.24 217.451 1386.17 217.387C1385.99 217.222 1385.83 217.047 1385.66 216.862C1385.43 216.609 1385.2 216.347 1384.91 216.111C1384.52 215.826 1384.31 215.576 1384.05 215.192C1384.01 215.139 1383.97 215.076 1383.92 215.007C1383.94 214.971 1383.96 214.93 1383.96 214.886C1383.96 214.815 1383.99 214.724 1383.99 214.708C1384.04 214.306 1384.12 213.882 1384.25 213.348C1384.34 213.136 1384.45 212.856 1384.55 212.566C1384.63 212.335 1384.69 212.104 1384.75 211.88C1384.88 211.407 1385.01 210.961 1385.24 210.543C1385.41 210.216 1385.57 209.685 1385.54 209.297C1385.54 209.199 1385.52 209.097 1385.49 209.009L1385.5 209.003C1385.49 208.994 1385.49 208.987 1385.48 208.975C1385.46 208.925 1385.43 208.887 1385.41 208.855L1385.23 208.732L1385.21 208.748C1384.91 208.601 1384.57 208.771 1384.27 208.931C1384.08 208.961 1383.9 209.073 1383.74 209.179C1383.61 209.245 1383.48 209.316 1383.34 209.387C1383.21 209.461 1383.07 209.536 1382.93 209.604C1382.77 209.671 1382.62 209.74 1382.49 209.81C1382.39 209.855 1382.29 209.898 1382.19 209.941C1381.81 210.101 1381.43 210.266 1381.06 210.551C1380.74 210.83 1380.39 211.105 1380.1 211.318C1380 211.414 1379.9 211.505 1379.74 211.569C1379.71 211.588 1379.64 211.618 1379.58 211.641C1379.51 211.59 1379.44 211.539 1379.38 211.495C1379.29 211.426 1379.21 211.354 1379.13 211.283C1379.04 211.21 1378.96 211.138 1378.87 211.065C1378.63 210.89 1378.39 210.754 1378.17 210.622C1377.95 210.491 1377.74 210.368 1377.52 210.207C1377.39 210.124 1377.27 210.016 1377.14 209.901C1377.01 209.785 1376.88 209.663 1376.73 209.579L1376.69 209.545C1376.38 209.302 1375.74 208.793 1375.26 209.171C1375.23 209.195 1375.21 209.219 1375.19 209.241C1375.12 209.272 1375.04 209.326 1374.97 209.412C1374.88 209.553 1374.89 209.737 1374.89 209.872L1374.88 210.038C1374.87 210.29 1374.85 210.577 1374.91 210.843C1375.02 211.415 1375.24 211.91 1375.48 212.434C1375.59 212.675 1375.7 212.925 1375.8 213.185C1375.84 213.271 1375.88 213.357 1375.92 213.444C1376.18 214.023 1376.41 214.523 1375.87 214.929C1375.61 215.119 1375.36 215.333 1375.12 215.539C1374.82 215.798 1374.5 216.065 1374.18 216.286C1373.44 216.796 1372.59 217.375 1372.14 218.254C1372.02 218.478 1372.02 218.667 1372.11 218.816C1372.36 219.179 1373.18 219.114 1373.58 219.083L1373.64 219.076C1373.83 219.035 1374.1 218.995 1374.19 218.993L1374.24 218.996C1374.33 218.989 1374.43 218.979 1374.54 218.969C1374.64 218.96 1374.74 218.95 1374.84 218.941C1375.13 218.877 1375.74 218.795 1375.73 218.794C1375.91 218.781 1376.09 218.78 1376.27 218.778C1376.45 218.777 1376.64 218.776 1376.83 218.762C1376.92 218.755 1377 218.75 1377.08 218.745L1377.13 218.743C1377.18 218.923 1377.23 219.104 1377.28 219.286C1377.29 219.564 1377.41 219.872 1377.48 220.044L1377.52 220.197C1377.55 220.311 1377.58 220.427 1377.62 220.549C1377.67 220.703 1377.77 220.914 1377.89 221.063C1377.94 221.165 1377.99 221.268 1378.04 221.373L1378.18 221.644C1378.23 221.756 1378.33 221.993 1378.44 222.244C1378.57 222.562 1378.71 222.891 1378.81 223.08C1378.84 223.137 1378.88 223.215 1378.92 223.302C1379.05 223.565 1379.2 223.899 1379.45 224.059C1379.55 224.118 1379.65 224.153 1379.77 224.153C1380.17 224.144 1380.4 223.758 1380.57 223.477C1380.59 223.432 1380.62 223.388 1380.64 223.355C1381.11 222.701 1381.43 222.148 1381.66 221.608C1381.71 221.464 1381.75 221.316 1381.79 221.167C1381.83 221.028 1381.87 220.889 1381.91 220.754C1382.01 220.597 1382.32 219.964 1382.36 219.601C1382.35 219.435 1382.36 219.287 1382.38 219.13C1382.83 219.332 1383.29 219.433 1383.74 219.531C1383.9 219.568 1384.07 219.604 1384.24 219.647C1384.93 219.783 1385.56 219.849 1386.31 219.927L1386.45 219.932C1386.91 219.951 1387.68 219.985 1387.84 219.366L1387.84 219.366Z" fill="white"/>
<path d="M826.337 102.075L826.32 102.081C825.657 102.336 825.516 103.12 825.413 103.693C825.388 103.833 825.365 103.963 825.34 104.061C825.107 104.785 825.008 105.467 824.903 106.189C824.876 106.374 824.849 106.563 824.82 106.749C824.73 107.197 824.607 107.627 824.477 108.082C824.298 108.704 824.113 109.347 824.022 110.05C823.945 110.953 823.75 111.538 823.4 112.351C823.346 112.456 823.288 112.588 823.229 112.743C823.147 112.741 823.065 112.754 822.997 112.802C822.873 112.859 822.704 112.912 822.676 112.923C821.981 113.247 821.216 113.54 820.226 113.86C819.798 113.931 819.233 114.028 818.666 114.155C818.219 114.261 817.782 114.389 817.36 114.514C816.47 114.776 815.629 115.023 814.718 115.058C814.028 115.117 813.01 115.383 812.415 115.817C812.259 115.918 812.113 116.05 812.004 116.19L811.986 116.183C811.978 116.201 811.971 116.218 811.961 116.245C811.902 116.328 811.863 116.402 811.837 116.475L811.82 116.889L811.857 116.893C811.927 117.536 812.537 117.908 813.098 118.24C813.328 118.504 813.69 118.686 814.02 118.836C814.259 118.985 814.504 119.127 814.751 119.27C815.008 119.418 815.267 119.568 815.515 119.723C815.784 119.917 816.039 120.081 816.279 120.216C816.453 120.334 816.624 120.454 816.793 120.574C817.425 121.021 818.079 121.483 818.9 121.784C819.672 122.027 820.46 122.309 821.093 122.568C821.35 122.637 821.592 122.7 821.86 122.903C821.922 122.934 822.038 123.015 822.135 123.087C822.12 123.248 822.107 123.408 822.099 123.556C822.074 123.761 822.041 123.967 822.008 124.173C821.975 124.38 821.943 124.588 821.916 124.807C821.874 125.369 821.885 125.877 821.896 126.369C821.906 126.857 821.917 127.318 821.877 127.832C821.873 128.122 821.821 128.429 821.765 128.752C821.709 129.08 821.641 129.407 821.648 129.722L821.636 129.824C821.551 130.563 821.37 132.102 822.463 132.508C822.527 132.526 822.585 132.534 822.639 132.538C822.767 132.635 822.927 132.699 823.137 132.73C823.453 132.734 823.745 132.541 823.959 132.401L824.232 132.246C824.653 132.017 825.13 131.758 825.5 131.397C826.313 130.651 826.888 129.8 827.497 128.899C827.778 128.484 828.068 128.054 828.387 127.633C828.489 127.489 828.588 127.339 828.688 127.189C829.356 126.184 829.933 125.315 831.128 125.787C831.688 126.008 832.283 126.199 832.857 126.383C833.576 126.614 834.319 126.852 834.994 127.15C836.559 127.84 838.332 128.622 840.197 128.475C840.673 128.437 840.987 128.262 841.127 127.955C841.472 127.204 840.545 125.94 840.099 125.333L840.025 125.235C839.772 124.976 839.435 124.576 839.349 124.444L839.304 124.36C839.201 124.218 839.08 124.058 838.959 123.899C838.844 123.747 838.729 123.596 838.61 123.436C838.217 123.032 837.485 122.145 837.485 122.146C837.289 121.877 837.104 121.583 836.925 121.298C836.741 121.006 836.551 120.704 836.344 120.421C836.239 120.277 836.15 120.149 836.061 120.022L836.012 119.952C836.253 119.691 836.495 119.432 836.741 119.176C837.177 118.879 837.551 118.375 837.759 118.092L837.965 117.874C838.12 117.712 838.275 117.549 838.437 117.368C838.626 117.122 838.873 116.76 838.99 116.412C839.105 116.232 839.22 116.048 839.337 115.86L839.641 115.376C839.763 115.169 840.046 114.774 840.346 114.355C840.726 113.824 841.119 113.275 841.321 112.922C841.379 112.809 841.468 112.673 841.567 112.521C841.868 112.06 842.25 111.474 842.257 110.91C842.259 110.704 842.212 110.501 842.093 110.308C841.68 109.672 840.83 109.687 840.21 109.697C840.11 109.699 840.014 109.701 839.939 109.7C838.418 109.595 837.206 109.624 836.106 109.794C835.827 109.86 835.548 109.943 835.269 110.026C835.007 110.105 834.745 110.183 834.483 110.246C834.137 110.249 832.8 110.368 832.181 110.672C831.926 110.858 831.672 110.982 831.404 111.112C831.279 110.185 830.982 109.342 830.695 108.524C830.588 108.221 830.482 107.918 830.38 107.6C829.914 106.355 829.388 105.267 828.767 103.986L828.64 103.762C828.212 103.001 827.5 101.728 826.336 102.076L826.337 102.075Z" fill="#FFDFA0"/>
<path d="M1379.58 104.473L1379.58 104.474C1379.84 104.501 1380.02 104.271 1380.14 104.103C1380.18 104.062 1380.2 104.024 1380.23 103.997C1380.42 103.801 1380.57 103.597 1380.72 103.381C1380.76 103.326 1380.8 103.27 1380.84 103.214C1380.95 103.085 1381.06 102.966 1381.17 102.841C1381.33 102.669 1381.5 102.492 1381.65 102.28C1381.82 102.002 1381.98 101.845 1382.23 101.64C1382.26 101.615 1382.3 101.582 1382.35 101.542C1382.37 101.556 1382.4 101.565 1382.43 101.561C1382.48 101.564 1382.55 101.574 1382.56 101.575C1382.84 101.586 1383.13 101.618 1383.5 101.678C1383.65 101.727 1383.85 101.789 1384.06 101.841C1384.22 101.881 1384.38 101.912 1384.54 101.942C1384.87 102.005 1385.18 102.064 1385.48 102.204C1385.71 102.299 1386.09 102.382 1386.35 102.34C1386.42 102.333 1386.49 102.315 1386.55 102.288L1386.55 102.293C1386.56 102.289 1386.56 102.284 1386.57 102.277C1386.6 102.26 1386.63 102.243 1386.65 102.223L1386.72 102.093L1386.71 102.085C1386.79 101.866 1386.66 101.645 1386.53 101.445C1386.5 101.321 1386.41 101.202 1386.33 101.099C1386.28 101.011 1386.22 100.925 1386.17 100.838C1386.11 100.748 1386.05 100.656 1386 100.565C1385.94 100.458 1385.89 100.362 1385.83 100.279C1385.79 100.212 1385.76 100.145 1385.72 100.079C1385.59 99.8295 1385.46 99.572 1385.24 99.3388C1385.04 99.1323 1384.83 98.9109 1384.67 98.7221C1384.59 98.6575 1384.53 98.5968 1384.47 98.4871C1384.46 98.4666 1384.43 98.4211 1384.42 98.382C1384.45 98.3325 1384.48 98.2831 1384.5 98.2367C1384.55 98.1743 1384.59 98.1132 1384.64 98.0523C1384.68 97.9906 1384.73 97.929 1384.77 97.8627C1384.88 97.6883 1384.96 97.5222 1385.04 97.3614C1385.11 97.2022 1385.19 97.0515 1385.28 96.8922C1385.33 96.7991 1385.4 96.7087 1385.47 96.6134C1385.55 96.5169 1385.62 96.4225 1385.67 96.3195L1385.69 96.2885C1385.84 96.0641 1386.16 95.5968 1385.87 95.2847C1385.85 95.2683 1385.83 95.2561 1385.82 95.2458C1385.79 95.1932 1385.75 95.1459 1385.69 95.1015C1385.59 95.0477 1385.46 95.0614 1385.37 95.0714L1385.25 95.0764C1385.08 95.0804 1384.88 95.0852 1384.7 95.1404C1384.32 95.2466 1383.99 95.4263 1383.65 95.6165C1383.49 95.7041 1383.32 95.7948 1383.15 95.8781C1383.09 95.9078 1383.04 95.9397 1382.98 95.9717C1382.6 96.1857 1382.27 96.3707 1381.96 96.0203C1381.81 95.8561 1381.65 95.6962 1381.5 95.5414C1381.3 95.3479 1381.1 95.1478 1380.93 94.9396C1380.54 94.4576 1380.1 93.9114 1379.47 93.6501C1379.31 93.5834 1379.18 93.588 1379.09 93.6638C1378.85 93.8492 1378.94 94.4112 1378.98 94.6812L1378.99 94.7252C1379.03 94.8506 1379.07 95.0357 1379.08 95.0924L1379.08 95.1271C1379.09 95.1901 1379.1 95.2618 1379.12 95.3333C1379.13 95.4013 1379.14 95.4691 1379.15 95.5403C1379.21 95.736 1379.3 96.1437 1379.3 96.1434C1379.32 96.2629 1379.33 96.3886 1379.34 96.5101C1379.35 96.635 1379.36 96.7641 1379.38 96.8897C1379.39 96.9534 1379.4 97.0096 1379.41 97.0655L1379.41 97.0963C1379.29 97.1403 1379.17 97.184 1379.05 97.2261C1378.86 97.2497 1378.66 97.3506 1378.54 97.4077L1378.44 97.4438C1378.36 97.4705 1378.28 97.4975 1378.2 97.5292C1378.1 97.5772 1377.96 97.6533 1377.87 97.7462C1377.8 97.7854 1377.73 97.8258 1377.66 97.867L1377.48 97.9732C1377.41 98.0198 1377.25 98.1005 1377.09 98.1862C1376.88 98.2947 1376.66 98.407 1376.53 98.4876C1376.5 98.5143 1376.45 98.5435 1376.39 98.5763C1376.21 98.6755 1375.99 98.8013 1375.9 98.9825C1375.86 99.0486 1375.85 99.1219 1375.85 99.204C1375.88 99.4779 1376.16 99.6138 1376.36 99.7131C1376.39 99.7291 1376.42 99.7443 1376.45 99.757C1376.92 100.043 1377.32 100.234 1377.7 100.362C1377.8 100.387 1377.91 100.406 1378.01 100.425C1378.11 100.443 1378.2 100.462 1378.3 100.485C1378.41 100.541 1378.86 100.724 1379.11 100.728C1379.23 100.71 1379.33 100.712 1379.44 100.715C1379.32 101.035 1379.28 101.356 1379.24 101.668C1379.22 101.784 1379.21 101.899 1379.19 102.019C1379.13 102.498 1379.12 102.937 1379.11 103.453L1379.11 103.547C1379.13 103.863 1379.14 104.392 1379.58 104.473L1379.58 104.473Z" fill="white"/>
<g filter="url(#filter14_f_1653_3247)">
<circle cx="937.006" cy="193.854" r="4.24522" transform="rotate(0.393949 937.006 193.854)" fill="white" fill-opacity="0.5"/>
</g>
<path d="M940.81 186.824L940.803 186.822C940.524 186.743 940.286 186.965 940.112 187.128C940.069 187.167 940.03 187.204 939.997 187.23C939.744 187.41 939.544 187.609 939.333 187.82C939.279 187.874 939.224 187.929 939.169 187.983C939.03 188.108 938.884 188.218 938.73 188.335C938.519 188.495 938.301 188.661 938.099 188.868C937.853 189.145 937.646 189.289 937.332 189.469C937.289 189.49 937.238 189.519 937.18 189.556C937.154 189.535 937.124 189.519 937.09 189.518C937.035 189.506 936.967 189.482 936.955 189.479C936.648 189.415 936.326 189.324 935.924 189.186C935.766 189.104 935.557 188.998 935.34 188.901C935.168 188.826 934.994 188.761 934.825 188.698C934.469 188.566 934.134 188.441 933.827 188.229C933.586 188.08 933.188 187.917 932.887 187.914C932.811 187.909 932.731 187.916 932.661 187.935L932.657 187.929C932.65 187.933 932.643 187.936 932.633 187.943C932.594 187.956 932.563 187.97 932.537 187.988L932.43 188.119L932.44 188.13C932.306 188.357 932.415 188.628 932.517 188.874C932.528 189.017 932.602 189.165 932.673 189.296C932.715 189.403 932.76 189.509 932.806 189.617C932.854 189.728 932.902 189.84 932.945 189.952C932.986 190.081 933.029 190.198 933.075 190.3C933.103 190.382 933.129 190.463 933.155 190.543C933.253 190.844 933.354 191.156 933.549 191.455C933.742 191.724 933.931 192.009 934.075 192.249C934.142 192.335 934.206 192.415 934.244 192.547C934.257 192.572 934.275 192.627 934.289 192.674C934.244 192.723 934.201 192.772 934.162 192.819C934.104 192.88 934.042 192.94 933.982 192.999C933.92 193.059 933.858 193.119 933.796 193.184C933.645 193.357 933.524 193.527 933.407 193.691C933.291 193.853 933.181 194.006 933.042 194.165C932.97 194.259 932.878 194.346 932.78 194.439C932.682 194.532 932.579 194.623 932.505 194.728L932.476 194.758C932.267 194.979 931.831 195.439 932.089 195.839C932.106 195.861 932.123 195.878 932.139 195.892C932.158 195.955 932.194 196.016 932.255 196.077C932.358 196.156 932.501 196.164 932.605 196.171L932.732 196.187C932.926 196.215 933.146 196.247 933.355 196.219C933.804 196.174 934.201 196.036 934.621 195.89C934.815 195.823 935.015 195.754 935.222 195.694C935.291 195.672 935.36 195.647 935.43 195.622C935.895 195.457 936.296 195.314 936.572 195.761C936.701 195.97 936.849 196.178 936.992 196.379C937.171 196.631 937.356 196.891 937.504 197.154C937.847 197.763 938.236 198.453 938.883 198.862C939.048 198.966 939.194 198.985 939.315 198.919C939.612 198.758 939.618 198.117 939.621 197.809L939.62 197.759C939.601 197.612 939.589 197.399 939.592 197.334L939.598 197.296C939.599 197.224 939.599 197.142 939.598 197.06C939.598 196.982 939.597 196.905 939.597 196.823C939.567 196.595 939.545 196.125 939.545 196.126C939.547 195.989 939.558 195.848 939.569 195.711C939.581 195.57 939.592 195.424 939.594 195.281C939.595 195.209 939.597 195.145 939.599 195.081L939.6 195.046C939.743 195.02 939.885 194.994 940.029 194.971C940.244 194.98 940.49 194.907 940.627 194.865L940.748 194.844C940.839 194.829 940.929 194.814 941.027 194.794C941.149 194.76 941.318 194.702 941.442 194.617C941.524 194.586 941.606 194.554 941.691 194.521L941.909 194.437C941.999 194.399 942.189 194.339 942.39 194.275C942.644 194.194 942.907 194.111 943.06 194.045C943.106 194.022 943.169 193.999 943.239 193.974C943.45 193.896 943.718 193.798 943.859 193.615C943.91 193.548 943.945 193.47 943.953 193.378C943.973 193.069 943.691 192.865 943.486 192.717C943.452 192.693 943.421 192.67 943.396 192.652C942.924 192.245 942.52 191.957 942.118 191.744C942.011 191.697 941.899 191.656 941.787 191.615C941.682 191.576 941.578 191.538 941.476 191.494C941.362 191.411 940.895 191.122 940.618 191.07C940.489 191.068 940.376 191.047 940.256 191.024C940.442 190.69 940.552 190.341 940.658 190.003C940.697 189.877 940.736 189.752 940.781 189.623C940.933 189.101 941.027 188.616 941.138 188.045L941.151 187.94C941.197 187.587 941.276 186.995 940.81 186.824L940.81 186.824Z" fill="white"/>
<path d="M1252.87 176.483L1252.86 176.48C1252.45 176.365 1252.11 176.688 1251.86 176.923C1251.79 176.981 1251.74 177.035 1251.69 177.072C1251.32 177.333 1251.03 177.622 1250.73 177.928C1250.65 178.006 1250.57 178.086 1250.49 178.164C1250.29 178.345 1250.07 178.505 1249.85 178.675C1249.54 178.907 1249.23 179.147 1248.94 179.448C1248.58 179.85 1248.28 180.059 1247.82 180.32C1247.76 180.351 1247.69 180.393 1247.6 180.446C1247.56 180.416 1247.52 180.393 1247.47 180.391C1247.39 180.374 1247.29 180.34 1247.28 180.335C1246.83 180.242 1246.36 180.109 1245.78 179.91C1245.55 179.791 1245.25 179.637 1244.93 179.496C1244.68 179.387 1244.43 179.293 1244.19 179.202C1243.67 179.01 1243.18 178.829 1242.74 178.522C1242.39 178.305 1241.81 178.069 1241.37 178.064C1241.26 178.057 1241.15 178.068 1241.05 178.095L1241.04 178.086C1241.03 178.091 1241.02 178.097 1241.01 178.106C1240.95 178.125 1240.9 178.146 1240.87 178.171L1240.71 178.362L1240.73 178.377C1240.53 178.707 1240.69 179.1 1240.84 179.457C1240.85 179.665 1240.96 179.88 1241.06 180.068C1241.12 180.224 1241.19 180.378 1241.26 180.534C1241.33 180.695 1241.4 180.859 1241.46 181.021C1241.52 181.208 1241.58 181.377 1241.65 181.526C1241.69 181.644 1241.73 181.762 1241.76 181.879C1241.9 182.316 1242.05 182.767 1242.33 183.202C1242.61 183.592 1242.89 184.005 1243.1 184.354C1243.19 184.477 1243.29 184.594 1243.34 184.785C1243.36 184.822 1243.39 184.902 1243.41 184.97C1243.34 185.041 1243.28 185.113 1243.22 185.18C1243.14 185.269 1243.05 185.355 1242.96 185.441C1242.87 185.528 1242.78 185.615 1242.69 185.709C1242.47 185.961 1242.3 186.207 1242.13 186.444C1241.96 186.68 1241.8 186.902 1241.6 187.132C1241.49 187.269 1241.36 187.396 1241.22 187.53C1241.08 187.665 1240.93 187.796 1240.82 187.949L1240.78 187.993C1240.47 188.313 1239.84 188.981 1240.22 189.561C1240.24 189.593 1240.27 189.617 1240.29 189.638C1240.32 189.73 1240.37 189.817 1240.46 189.906C1240.61 190.021 1240.81 190.033 1240.96 190.042L1241.15 190.065C1241.43 190.107 1241.75 190.153 1242.05 190.113C1242.71 190.048 1243.28 189.848 1243.89 189.636C1244.17 189.539 1244.46 189.437 1244.76 189.351C1244.86 189.318 1244.96 189.283 1245.06 189.247C1245.74 189.007 1246.32 188.799 1246.72 189.448C1246.91 189.752 1247.12 190.053 1247.33 190.345C1247.59 190.71 1247.86 191.087 1248.07 191.469C1248.57 192.352 1249.13 193.354 1250.07 193.946C1250.31 194.097 1250.52 194.126 1250.7 194.03C1251.13 193.796 1251.14 192.866 1251.14 192.419L1251.14 192.346C1251.11 192.133 1251.1 191.824 1251.1 191.73L1251.11 191.675C1251.11 191.57 1251.11 191.451 1251.11 191.333C1251.11 191.22 1251.11 191.107 1251.11 190.989C1251.07 190.658 1251.03 189.976 1251.03 189.977C1251.04 189.779 1251.05 189.574 1251.07 189.375C1251.08 189.171 1251.1 188.96 1251.1 188.752C1251.11 188.647 1251.11 188.554 1251.11 188.462L1251.11 188.411C1251.32 188.373 1251.53 188.336 1251.73 188.302C1252.05 188.316 1252.4 188.209 1252.6 188.148L1252.78 188.118C1252.91 188.096 1253.04 188.074 1253.18 188.045C1253.36 187.996 1253.61 187.912 1253.78 187.788C1253.9 187.743 1254.02 187.697 1254.15 187.649L1254.46 187.527C1254.59 187.472 1254.87 187.385 1255.16 187.292C1255.53 187.175 1255.91 187.054 1256.13 186.958C1256.2 186.925 1256.29 186.892 1256.39 186.855C1256.7 186.743 1257.09 186.601 1257.29 186.335C1257.37 186.238 1257.42 186.125 1257.43 185.991C1257.46 185.542 1257.05 185.247 1256.75 185.032C1256.7 184.997 1256.66 184.964 1256.62 184.937C1255.93 184.347 1255.35 183.93 1254.77 183.62C1254.61 183.552 1254.45 183.493 1254.29 183.433C1254.13 183.377 1253.98 183.321 1253.84 183.258C1253.67 183.137 1252.99 182.718 1252.59 182.642C1252.4 182.64 1252.24 182.609 1252.06 182.575C1252.33 182.091 1252.49 181.585 1252.65 181.094C1252.7 180.912 1252.76 180.731 1252.83 180.544C1253.05 179.787 1253.18 179.083 1253.34 178.254L1253.36 178.102C1253.43 177.589 1253.54 176.732 1252.87 176.483L1252.87 176.483Z" fill="white"/>
</g>
<defs>
<filter id="filter0_f_1653_3247" x="-534.154" y="-113.686" width="2437.88" height="523.286" filterUnits="userSpaceOnUse" color-interpolation-filters="sRGB">
<feFlood flood-opacity="0" result="BackgroundImageFix"/>
<feBlend mode="normal" in="SourceGraphic" in2="BackgroundImageFix" result="shape"/>
<feGaussianBlur stdDeviation="45.85" result="effect1_foregroundBlur_1653_3247"/>
</filter>
<filter id="filter1_f_1653_3247" x="-25.266" y="80.1158" width="36.7859" height="36.7859" filterUnits="userSpaceOnUse" color-interpolation-filters="sRGB">
<feFlood flood-opacity="0" result="BackgroundImageFix"/>
<feBlend mode="normal" in="SourceGraphic" in2="BackgroundImageFix" result="shape"/>
<feGaussianBlur stdDeviation="6.55" result="effect1_foregroundBlur_1653_3247"/>
</filter>
<filter id="filter2_f_1653_3247" x="313.116" y="149.944" width="36.7859" height="36.7859" filterUnits="userSpaceOnUse" color-interpolation-filters="sRGB">
<feFlood flood-opacity="0" result="BackgroundImageFix"/>
<feBlend mode="normal" in="SourceGraphic" in2="BackgroundImageFix" result="shape"/>
<feGaussianBlur stdDeviation="6.55" result="effect1_foregroundBlur_1653_3247"/>
</filter>
<filter id="filter3_f_1653_3247" x="57.9928" y="194.852" width="33.8982" height="33.8987" filterUnits="userSpaceOnUse" color-interpolation-filters="sRGB">
<feFlood flood-opacity="0" result="BackgroundImageFix"/>
<feBlend mode="normal" in="SourceGraphic" in2="BackgroundImageFix" result="shape"/>
<feGaussianBlur stdDeviation="6.55" result="effect1_foregroundBlur_1653_3247"/>
</filter>
<filter id="filter4_f_1653_3247" x="435.886" y="176.244" width="33.8982" height="33.8987" filterUnits="userSpaceOnUse" color-interpolation-filters="sRGB">
<feFlood flood-opacity="0" result="BackgroundImageFix"/>
<feBlend mode="normal" in="SourceGraphic" in2="BackgroundImageFix" result="shape"/>
<feGaussianBlur stdDeviation="6.55" result="effect1_foregroundBlur_1653_3247"/>
</filter>
<filter id="filter5_f_1653_3247" x="433.662" y="71.3702" width="33.8982" height="33.8987" filterUnits="userSpaceOnUse" color-interpolation-filters="sRGB">
<feFlood flood-opacity="0" result="BackgroundImageFix"/>
<feBlend mode="normal" in="SourceGraphic" in2="BackgroundImageFix" result="shape"/>
<feGaussianBlur stdDeviation="6.55" result="effect1_foregroundBlur_1653_3247"/>
</filter>
<filter id="filter6_f_1653_3247" x="580.886" y="114.451" width="33.8982" height="33.8987" filterUnits="userSpaceOnUse" color-interpolation-filters="sRGB">
<feFlood flood-opacity="0" result="BackgroundImageFix"/>
<feBlend mode="normal" in="SourceGraphic" in2="BackgroundImageFix" result="shape"/>
<feGaussianBlur stdDeviation="6.55" result="effect1_foregroundBlur_1653_3247"/>
</filter>
<filter id="filter7_f_1653_3247" x="190.909" y="63.4277" width="60.4893" height="60.4888" filterUnits="userSpaceOnUse" color-interpolation-filters="sRGB">
<feFlood flood-opacity="0" result="BackgroundImageFix"/>
<feBlend mode="normal" in="SourceGraphic" in2="BackgroundImageFix" result="shape"/>
<feGaussianBlur stdDeviation="12.25" result="effect1_foregroundBlur_1653_3247"/>
</filter>
<filter id="filter8_f_1653_3247" x="678.392" y="161.081" width="56.7676" height="56.7671" filterUnits="userSpaceOnUse" color-interpolation-filters="sRGB">
<feFlood flood-opacity="0" result="BackgroundImageFix"/>
<feBlend mode="normal" in="SourceGraphic" in2="BackgroundImageFix" result="shape"/>
<feGaussianBlur stdDeviation="12.25" result="effect1_foregroundBlur_1653_3247"/>
</filter>
<filter id="filter9_f_1653_3247" x="792.681" y="86.4971" width="68.4653" height="68.4648" filterUnits="userSpaceOnUse" color-interpolation-filters="sRGB">
<feFlood flood-opacity="0" result="BackgroundImageFix"/>
<feBlend mode="normal" in="SourceGraphic" in2="BackgroundImageFix" result="shape"/>
<feGaussianBlur stdDeviation="12.25" result="effect1_foregroundBlur_1653_3247"/>
</filter>
<filter id="filter10_f_1653_3247" x="1010.75" y="96.4205" width="37.8743" height="37.8743" filterUnits="userSpaceOnUse" color-interpolation-filters="sRGB">
<feFlood flood-opacity="0" result="BackgroundImageFix"/>
<feBlend mode="normal" in="SourceGraphic" in2="BackgroundImageFix" result="shape"/>
<feGaussianBlur stdDeviation="6.55" result="effect1_foregroundBlur_1653_3247"/>
</filter>
<filter id="filter11_f_1653_3247" x="1229.13" y="165.99" width="37.8743" height="37.8743" filterUnits="userSpaceOnUse" color-interpolation-filters="sRGB">
<feFlood flood-opacity="0" result="BackgroundImageFix"/>
<feBlend mode="normal" in="SourceGraphic" in2="BackgroundImageFix" result="shape"/>
<feGaussianBlur stdDeviation="6.55" result="effect1_foregroundBlur_1653_3247"/>
</filter>
<filter id="filter12_f_1653_3247" x="1363.72" y="198.748" width="34.6902" height="34.6902" filterUnits="userSpaceOnUse" color-interpolation-filters="sRGB">
<feFlood flood-opacity="0" result="BackgroundImageFix"/>
<feBlend mode="normal" in="SourceGraphic" in2="BackgroundImageFix" result="shape"/>
<feGaussianBlur stdDeviation="6.55" result="effect1_foregroundBlur_1653_3247"/>
</filter>
<filter id="filter13_f_1653_3247" x="1364.52" y="83.065" width="34.6902" height="34.6902" filterUnits="userSpaceOnUse" color-interpolation-filters="sRGB">
<feFlood flood-opacity="0" result="BackgroundImageFix"/>
<feBlend mode="normal" in="SourceGraphic" in2="BackgroundImageFix" result="shape"/>
<feGaussianBlur stdDeviation="6.55" result="effect1_foregroundBlur_1653_3247"/>
</filter>
<filter id="filter14_f_1653_3247" x="919.661" y="176.509" width="34.6902" height="34.6902" filterUnits="userSpaceOnUse" color-interpolation-filters="sRGB">
<feFlood flood-opacity="0" result="BackgroundImageFix"/>
<feBlend mode="normal" in="SourceGraphic" in2="BackgroundImageFix" result="shape"/>
<feGaussianBlur stdDeviation="6.55" result="effect1_foregroundBlur_1653_3247"/>
</filter>
<linearGradient id="paint0_linear_1653_3247" x1="724.5" y1="-177.27" x2="682.353" y2="566.715" gradientUnits="userSpaceOnUse">
<stop stop-color="#46409C"/>
<stop offset="1" stop-color="#635ACE"/>
</linearGradient>
<linearGradient id="paint1_linear_1653_3247" x1="1883.24" y1="4.4431" x2="469.184" y2="1283.11" gradientUnits="userSpaceOnUse">
<stop stop-color="#4D46A7"/>
<stop offset="0.49" stop-color="#5574E0"/>
<stop offset="1" stop-color="#5D57C4"/>
</linearGradient>
<clipPath id="clip0_1653_3247">
<rect width="1397" height="441" fill="white" transform="translate(-2)"/>
</clipPath>
<clipPath id="clip1_1653_3247">
<rect width="1921" height="592" fill="white" transform="translate(-264)"/>
</clipPath>
</defs>
</svg>
