<svg width="461" height="246" viewBox="0 0 461 246" fill="none" xmlns="http://www.w3.org/2000/svg">
<path d="M45.757 240.417C51.7667 241.683 61.8811 242.385 69.1424 240.538C75.346 238.959 80.3231 235.811 75.0683 229.337C62.2971 213.604 27.7187 212.389 28.2437 227.855C28.4637 234.336 39.7473 239.152 45.757 240.417Z" fill="white"/>
<path d="M403.239 211.714C408.279 210.34 416.809 209.138 423.012 210.103C428.31 210.926 432.624 213.049 428.396 218.42C418.119 231.472 388.917 234.659 388.847 222.609C388.817 217.56 398.199 213.087 403.239 211.714Z" fill="white"/>
<path d="M369.881 15.4898C370.317 13.6845 372.446 11.1852 376.268 10.2789C379.533 9.50472 383.989 9.59417 388.843 13.1993C400.639 21.9612 392.206 30.0574 377.264 24.1016C371.003 21.6059 369.444 17.2951 369.881 15.4898Z" fill="white"/>
<path d="M40.1273 28.6755C42.6463 27.9575 46.9845 27.6023 50.2613 28.7526C53.0608 29.7354 55.4368 31.6484 53.6048 35.4832C49.1522 44.8034 34.2392 45.3085 33.3991 36.0704C33.047 32.1991 37.6082 29.3934 40.1273 28.6755Z" fill="white"/>
<path d="M48.6387 138.816C46.5004 110.745 64.3585 64.7088 112.525 33.6468C153.675 7.10953 214.973 -12.59 297.505 16.4918C498.091 87.1732 419.201 243.555 188.24 228.121C91.4558 221.653 50.777 166.886 48.6387 138.816Z" fill="white"/>
<g clip-path="url(#clip0_2314_17452)">
<path d="M343.18 109.402C345.336 105.154 349.277 104.194 353.862 104.523C359.932 106.469 352.67 115.418 354.11 119.906C361.549 109.784 381.765 96.7386 372.77 119.159C392.986 99.4401 397.607 105.003 388.745 129.29C385.909 144.921 393.366 136.399 400.408 126.81C418.079 102.364 440.636 126.073 420.464 143.846C424.423 140.487 432.905 137.172 439.549 137.936C443.799 138.434 438.798 147.569 432.481 153.257C422.47 162.365 400.099 166.649 396.538 149.8C377.223 164.454 373.689 150.173 375.677 133.804C362.168 155.363 349.056 162.427 356.858 131.902C350.293 136.95 337.278 163.414 333.002 143.668C332.162 136.097 340.742 128.321 336.969 121.336C325.695 105.483 333.293 151.55 302.086 148.218C293.94 147.329 292.526 137.616 287.066 139.723C277.117 147.356 259.8 152.67 249.957 142.655C248.773 141.678 247.951 142.38 247.041 143.011C239.178 149.666 222.116 151.897 216.842 141.784C171.507 163.858 162.945 140.193 156.274 137.243C152.89 135.759 151.132 139.02 149.444 142.157C135.025 169.235 100.646 174.86 89.1685 143.464C88.285 166.711 62.0259 199.449 38.5058 172.94C23.0702 148.227 18.4581 116.564 20.2163 87.6833C18.2548 55.532 47.9421 58.1446 42.9235 89.8871C40.5998 109.997 42.3227 131.654 48.7373 151.204C58.6949 169.03 74.3603 151.799 75.5531 136.443C77.6912 109.349 67.6011 40.3805 90.918 61.1127C102.245 70.8878 96.6699 111.188 111.142 139.491C127.25 170.514 133.85 121.496 130.466 104.736C126.048 82.5202 112.512 61.3348 127.921 47.6674C158.041 37.1903 142.058 116.982 156.751 123.203C163.21 125.868 154.198 113.525 166.771 101.351C185.59 83.3022 210.188 96.8541 200.664 118.635C197.492 125.931 189.425 127.779 184.76 133.013C193.224 135.03 203.579 129.53 210.056 124.651C207.237 99.289 211.037 31.343 248.296 39.1275C268.414 45.3432 226.843 87.0381 230.386 125.726C230.448 132.631 237.819 130.594 240.432 129.254C245.389 126.713 245.449 117.788 246.387 112.583C251.751 82.8401 303.633 94.8102 286.854 114.858C281.712 120.99 277.957 114.174 271.834 110.913C259.976 104.576 258.041 130.374 268.414 132.338C276.755 132.764 286.598 125.824 290.547 119.719C291.378 115.276 296.502 107.349 299.48 104.505C309.411 95.1568 332.41 97.6895 343.18 109.402ZM303.65 126.419C303.942 146.112 326.278 113.667 312.654 113.925C307.644 114.049 303.889 120.306 303.694 126.419H303.65ZM187.322 105.35C180.254 105.35 174.069 118.999 179.556 119.266C188.161 119.657 195.937 107.029 187.322 105.35ZM407.026 137.767C407.105 144.637 419.572 138.816 419.121 129.663C418.803 123.256 406.946 130.134 407.026 137.767Z" fill="#C4CCF6"/>
<path d="M54.9571 193.664C88.4083 190.935 150.725 171.545 216.258 170.337C281.844 166.622 350.646 181.089 398.013 188.243C411.629 189.665 410.612 196.889 397.554 197.503C360.674 197.343 317.106 188.785 273.521 185.737C229.873 182.005 186.208 183.791 147.633 188.447C132.612 190.829 103.552 198.062 81.4636 198.782C59.2953 200.337 44.0894 195.45 54.9571 193.664Z" fill="#C4CCF6"/>
<path d="M280.434 175.074C315.447 177.686 343.645 182.203 342.6 184.809C341.821 186.751 325.833 181.848 277.543 178.246C225.976 174.399 203.129 178.789 203.046 175.896C202.964 173.003 232.145 171.472 280.434 175.074Z" fill="white"/>
<path d="M140.268 55.8589C143.03 59.6819 142.414 61.4099 141.75 61.2669C140.316 60.9585 140.977 60.5896 138.215 56.7667C135.453 52.9437 130.845 54.5007 130.037 51.8924C129.23 49.284 137.506 52.036 140.268 55.8589Z" fill="white"/>
<path d="M423.992 122.876C426.133 125.84 425.474 127.311 424.903 127.24C423.673 127.087 424.276 126.735 422.136 123.772C419.995 120.809 415.861 122.422 415.341 120.324C414.82 118.226 421.852 119.913 423.992 122.876Z" fill="white"/>
<path d="M194.487 100.118C197.052 103.668 196.067 105.572 195.325 105.529C193.724 105.437 194.544 104.946 191.979 101.395C189.414 97.8446 183.861 100.21 183.35 97.6149C182.839 95.0197 191.921 96.5672 194.487 100.118Z" fill="white"/>
<path d="M91.3952 66.7956C93.8508 70.8397 93.0666 72.5372 92.4039 72.3467C90.9746 71.9358 91.6809 71.6105 89.2253 67.5665C86.7697 63.5225 80.527 65.8613 81.3618 62.0848C82.1965 58.3083 88.9397 62.7516 91.3952 66.7956Z" fill="white"/>
<path d="M38.2584 74.4785C40.7222 78.3003 39.818 80.0769 39.1177 79.9487C37.6074 79.6724 38.3745 79.2792 35.9106 75.4575C33.4468 71.6357 27.0374 73.4733 27.7275 70.7076C28.4177 67.9419 35.7945 70.6568 38.2584 74.4785Z" fill="white"/>
<path d="M227.761 53.046C235.73 43.9877 239.61 43.8359 239.396 45.3628C238.934 48.656 238.027 47.5669 230.058 56.6251C222.089 65.6834 223.183 78.1776 220.595 78.0249C218.006 77.8722 219.792 62.1043 227.761 53.046Z" fill="white"/>
<path d="M325.394 102.777C333.095 105.219 334.325 107.24 333.359 107.425C331.276 107.824 331.653 107.132 323.953 104.689C316.252 102.247 309.183 105.264 308.513 103.867C307.842 102.469 317.694 100.334 325.394 102.777Z" fill="white"/>
</g>
<defs>
<clipPath id="clip0_2314_17452">
<rect width="421.277" height="160.525" fill="white" transform="translate(19.8633 38.5679)"/>
</clipPath>
</defs>
</svg>
