<svg width="1750" height="370" viewBox="0 0 1750 370" fill="none" xmlns="http://www.w3.org/2000/svg">
<path d="M1394.61 197.372C1324.18 197.045 1254.55 196.722 1184.12 196.395C1138.78 196.184 1093.44 195.974 1047.3 193.945C989.025 191.342 930.724 193.145 872.419 195.726C844.886 196.894 817.357 197.544 789.83 197.416C657.056 196.8 524.28 196.702 391.51 195.049C295.982 193.827 200.459 191.31 104.925 191.126C81.4466 191.017 58.7716 192.208 36.0905 194.695C18.2694 196.686 7.72386 201.043 4.45075 208.286C-1.27594 220.701 -0.52471 232.887 6.70341 245.103C11.5226 253.161 21.2254 255.798 40.6632 254.333C111.939 248.184 184.785 252.151 256.027 253C282.743 253.383 308.646 254.281 335.363 254.405C455.989 255.743 577.419 258.38 698.052 258.421C775.774 258.523 852.696 256.806 929.624 253.794C975.781 251.934 1022.74 252.671 1069.68 254.962C1085.87 255.815 1101.25 256.146 1117.44 256.221C1307.7 257.104 1497.95 257.987 1687.4 258.867C1691.45 258.885 1695.5 258.904 1700.35 258.927C1727.88 258.795 1730.31 258.029 1735.22 247.424C1740.95 235.528 1741 223.604 1735.39 211.655C1730.59 200.487 1727.36 199.176 1698.21 198.781C1656.92 198.33 1615.63 198.398 1574.34 198.206C1516.05 197.936 1455.33 197.654 1394.61 197.372Z" fill="#E9E8FF"/>
<path d="M224.816 345.045C352.724 347.453 481.441 349.864 609.349 352.272C615.016 352.299 619.873 352.58 625.54 352.607C731.596 353.358 837.64 356.701 943.699 356.675C1027.9 356.548 1111.27 360.045 1194.65 362.506C1200.32 362.532 1205.18 362.814 1210.84 362.84C1350.9 364.786 1490.95 368.028 1631.01 368.16C1652.87 368.261 1675.53 369.662 1697.39 369.764C1724.11 369.888 1731.4 367.589 1737.93 357.771C1746.08 345.627 1745.33 333.183 1738.1 320.969C1732.48 312.131 1724.39 309.501 1700.11 308.611C1680.68 308.002 1662.06 307.916 1642.63 308.085C1500.14 308.201 1358.47 304.952 1215.99 302.476C1120.46 300.996 1025.75 297.705 930.23 295.189C919.706 294.881 909.182 294.832 898.657 294.783C748.876 295.124 599.926 291.063 450.158 288.813C392.679 288.028 335.195 288.28 278.54 284.647C251.021 282.964 223.481 285.688 195.954 285.56C154.665 285.368 113.377 284.917 72.0846 285.244C25.1267 285.285 8.90281 291.948 8.00768 309.827C7.97669 316.306 7.13457 323.041 11.1516 329.539C15.9745 336.818 26.4784 341.273 44.2809 343.17C58.0367 344.789 70.9877 345.367 84.7509 345.431C131.708 345.649 177.855 345.863 224.811 346.081C224.812 345.822 224.814 345.563 224.816 345.045Z" fill="#E9E8FF"/>
<path d="M881.694 111.45C625.86 110.262 370.027 109.075 115.004 107.89C95.5735 107.8 76.9555 107.195 57.5263 106.846C36.478 106.489 25.1297 109.288 20.2349 117.042C11.2649 130.48 12.8199 143.967 20.8515 157.484C23.2592 161.902 31.3424 164.531 42.6718 165.621C57.2371 167.244 71.8076 167.83 86.3804 167.898C625.573 170.401 1163.96 172.901 1703.15 175.404C1738.77 175.57 1742.82 174.552 1746.94 160.572C1750.23 149.96 1750.28 139.072 1746.28 128.426C1742.29 117.779 1736.63 115.938 1709.1 115.292C1698.58 114.984 1688.05 115.194 1677.53 115.145C1411.98 113.912 1147.24 112.683 881.694 111.45Z" fill="#E9E8FF"/>
<path d="M1412.52 6.5832C1302.38 11.7735 1192.3 6.59764 1082.18 9.45555C1009.3 11.4497 935.631 11.1078 862.762 11.8062C802.037 12.5609 742.918 16.1739 682.994 18.7465C630.358 21.0938 577.724 22.9228 524.291 22.6747C429.568 22.235 335.654 21.7991 240.929 21.8777C199.638 21.9452 158.347 22.0128 117.847 26.2305C71.6747 31.1994 65.1832 34.2791 64.2856 52.6753C64.2546 59.1542 63.4126 65.8884 65.0008 72.3748C67.3874 81.1973 74.6626 83.5635 95.7171 82.6246C222.85 77.7724 349.939 82.2497 477.048 82.3214C571.772 82.5019 665.701 79.5688 758.827 75.3362C797.698 73.4434 836.564 72.5871 876.238 71.9938C962.871 71.1001 1050.32 69.6919 1136.95 68.7983C1140.19 68.8133 1143.43 68.5692 1146.67 68.5842C1234.91 68.9939 1322.35 69.1406 1410.61 67.2178C1467.29 65.9259 1522.32 70.5871 1577.35 74.9891C1617.01 78.0239 1656.67 80.5405 1696.32 83.3161C1707.65 84.1462 1714.95 82.6251 1716.59 77.9678C1724.76 62.7153 1724.02 47.6806 1716.81 32.3567C1714.4 27.4215 1706.32 24.2741 1694.18 22.9219C1685.28 21.844 1675.57 20.7623 1666.67 20.2026C1617.29 18.1593 1568.74 13.5282 1519.37 10.1891C1484.57 7.95427 1448.95 6.49316 1412.52 6.5832Z" fill="#E9E8FF"/>
</svg>
