<svg width="1226" height="373" viewBox="0 0 1226 373" fill="none" xmlns="http://www.w3.org/2000/svg">
<path d="M977.025 199.016C927.68 198.684 878.903 198.356 829.558 198.024C797.795 197.811 766.034 197.597 733.71 195.552C692.881 192.928 652.037 194.741 611.19 197.339C591.902 198.514 572.615 199.168 553.331 199.038C460.313 198.412 367.293 198.309 274.279 196.638C207.354 195.405 140.433 192.866 73.5052 192.677C57.0569 192.566 41.1715 193.765 25.2818 196.269C12.7969 198.273 5.40909 202.662 3.11623 209.957C-0.895397 222.462 -0.368778 234.736 4.69536 247.041C8.07175 255.157 14.8694 257.813 28.4869 256.339C78.4205 250.148 129.455 254.146 179.365 255.004C198.081 255.391 216.228 256.296 234.945 256.422C319.453 257.774 404.523 260.435 489.035 260.481C543.485 260.586 597.375 258.86 651.268 255.829C683.604 253.958 716.499 254.701 749.389 257.011C760.73 257.871 771.506 258.204 782.849 258.281C916.137 259.177 1049.42 260.074 1182.14 260.967C1184.98 260.986 1187.82 261.005 1191.22 261.028C1210.51 260.897 1212.21 260.125 1215.65 249.444C1219.66 237.461 1219.7 225.452 1215.77 213.415C1212.4 202.166 1210.14 200.846 1189.72 200.447C1160.79 199.992 1131.87 200.058 1102.94 199.864C1062.1 199.589 1019.56 199.303 977.025 199.016Z" fill="#E9E8FF"/>
<path d="M157.499 347.804C247.108 350.234 337.284 352.669 426.892 355.099C430.863 355.126 434.265 355.41 438.235 355.437C512.535 356.198 586.826 359.57 661.129 359.547C720.118 359.422 778.527 362.948 836.94 365.43C840.91 365.457 844.312 365.741 848.283 365.767C946.401 367.733 1044.51 371.004 1142.64 371.142C1157.95 371.245 1173.83 372.657 1189.14 372.76C1207.86 372.886 1212.97 370.571 1217.54 360.681C1223.26 348.448 1222.73 335.913 1217.67 323.608C1213.72 314.705 1208.06 312.056 1191.05 311.158C1177.44 310.544 1164.39 310.457 1150.78 310.626C1050.95 310.738 951.704 307.459 851.886 304.96C784.962 303.465 718.612 300.147 651.691 297.608C644.318 297.297 636.945 297.248 629.572 297.198C524.64 297.536 420.29 293.44 315.366 291.168C275.098 290.374 234.826 290.626 195.135 286.964C175.856 285.268 156.562 288.01 137.278 287.881C108.351 287.686 79.426 287.23 50.498 287.558C17.6006 287.597 6.23478 294.309 5.60816 312.319C5.58662 318.846 4.99684 325.63 7.81121 332.176C11.1902 339.509 18.5491 343.997 31.0211 345.909C40.658 347.54 49.7312 348.123 59.3733 348.188C92.2698 348.409 124.599 348.627 157.496 348.848C157.497 348.587 157.497 348.326 157.499 347.804Z" fill="#E9E8FF"/>
<path d="M617.689 112.382C438.459 111.176 259.23 109.97 80.5675 108.768C66.9551 108.677 53.9118 108.067 40.3003 107.714C25.5544 107.354 17.6042 110.172 14.1753 117.981C7.89147 131.515 8.98125 145.099 14.6083 158.713C16.2952 163.162 21.9581 165.811 29.8952 166.909C40.0993 168.544 50.307 169.135 60.5163 169.204C438.259 171.745 815.436 174.283 1193.18 176.825C1218.13 176.993 1220.97 175.968 1223.86 161.889C1226.16 151.2 1226.2 140.235 1223.4 129.512C1220.6 118.789 1216.63 116.935 1197.35 116.283C1189.98 115.972 1182.6 116.184 1175.23 116.134C989.193 114.882 803.725 113.634 617.689 112.382Z" fill="#E9E8FF"/>
<path d="M989.569 6.68351C912.413 11.9081 835.292 6.68971 758.144 9.56463C707.09 11.5708 655.476 11.2235 604.426 11.9243C561.884 12.6824 520.467 16.3199 478.486 18.9093C441.61 21.272 404.737 23.1125 367.303 22.8606C300.942 22.4141 235.149 21.9714 168.787 22.047C139.86 22.1134 110.933 22.1799 82.5592 26.4273C50.2126 31.4313 45.665 34.5336 45.0366 53.0661C45.0151 59.5929 44.4254 66.3771 45.5382 72.9116C47.2104 81.7995 52.3073 84.1836 67.0574 83.2385C156.123 78.3551 245.158 82.8705 334.207 82.9475C400.568 83.133 466.373 80.1817 531.614 75.9212C558.846 74.0158 586.074 73.1547 613.868 72.5585C674.561 71.6615 735.823 70.2462 796.516 69.3492C798.784 69.3644 801.054 69.1186 803.323 69.1339C865.146 69.5499 926.402 69.701 988.233 67.7674C1027.94 66.4681 1066.49 71.1658 1105.05 75.6026C1132.83 78.6614 1160.62 81.1981 1188.4 83.9958C1196.34 84.8325 1201.45 83.3004 1202.6 78.6087C1208.32 63.2434 1207.8 48.0973 1202.75 32.6596C1201.06 27.6877 1195.4 24.5166 1186.9 23.154C1180.66 22.0677 1173.86 20.9776 1167.62 20.4135C1133.03 18.3532 1099.01 13.6859 1064.43 10.3202C1040.04 8.06747 1015.09 6.59418 989.569 6.68351Z" fill="#E9E8FF"/>
</svg>
