<svg width="1751" height="350" viewBox="0 0 1751 350" fill="none" xmlns="http://www.w3.org/2000/svg">
<path d="M1395.88 101.29C1325.41 100.958 1255.74 100.63 1185.27 100.298C1139.9 100.084 1094.54 99.8704 1048.37 97.8394C990.059 95.233 931.723 97.0309 873.385 99.6062C845.837 100.772 818.291 101.419 790.749 101.29C657.897 100.664 525.043 100.557 392.197 98.8946C296.612 97.6672 201.033 95.1444 105.444 94.9533C81.9519 94.8427 59.2638 96.0313 36.5696 98.5153C18.7383 100.504 8.18697 104.859 4.91249 112.098C-0.816628 124.507 -0.0640631 136.688 7.16916 148.899C11.9917 156.954 21.7004 159.59 41.1494 158.127C112.466 151.986 185.355 155.957 256.639 156.81C283.37 157.195 309.288 158.095 336.021 158.221C456.717 159.566 578.218 162.211 698.921 162.261C776.689 162.369 853.655 160.658 930.628 157.653C976.812 155.797 1023.79 156.537 1070.77 158.831C1086.97 159.684 1102.36 160.016 1118.56 160.092C1308.92 160.989 1499.29 161.885 1688.85 162.778C1692.9 162.797 1696.95 162.816 1701.81 162.839C1729.35 162.71 1731.78 161.944 1736.69 151.344C1742.42 139.453 1742.48 127.535 1736.86 115.591C1732.06 104.427 1728.82 103.117 1699.66 102.72C1658.35 102.267 1617.03 102.331 1575.72 102.136C1517.39 101.862 1456.64 101.576 1395.88 101.29Z" fill="#E9E8FF"/>
<path d="M225.413 233.929C353.396 236.345 482.188 238.765 610.171 241.181C615.841 241.207 620.7 241.489 626.371 241.516C732.489 242.275 838.594 245.624 944.716 245.606C1028.97 245.484 1112.39 248.986 1195.82 251.451C1201.49 251.478 1206.35 251.76 1212.02 251.787C1352.15 253.742 1492.28 256.992 1632.43 257.134C1654.3 257.237 1676.97 258.639 1698.85 258.742C1725.58 258.868 1732.88 256.57 1739.41 246.756C1747.56 234.617 1746.81 222.177 1739.58 209.966C1733.95 201.13 1725.86 198.501 1701.56 197.61C1682.13 197 1663.49 196.912 1644.05 197.08C1501.47 197.186 1359.72 193.928 1217.16 191.443C1121.58 189.957 1026.81 186.661 931.234 184.138C920.705 183.829 910.174 183.78 899.643 183.73C749.775 184.061 600.738 179.991 450.883 177.731C393.37 176.942 335.853 177.19 279.164 173.555C251.628 171.871 224.073 174.591 196.53 174.461C155.217 174.267 113.904 173.813 72.5884 174.137C25.6031 174.175 9.37025 180.835 8.47586 198.708C8.44531 205.185 7.60318 211.917 11.623 218.413C16.4492 225.691 26.9596 230.145 44.7726 232.042C58.5364 233.661 71.4951 234.241 85.2663 234.305C132.25 234.527 178.424 234.744 225.408 234.965C225.409 234.706 225.411 234.447 225.413 233.929Z" fill="#E9E8FF"/>
<path d="M882.664 4.87862C626.682 3.67362 370.7 2.46863 115.528 1.26745C96.0865 1.17593 77.4576 0.570089 58.0171 0.219487C36.9565 -0.138742 25.6018 2.65779 20.7047 10.4074C11.7304 23.8378 13.2873 37.3178 21.3245 50.8282C23.7339 55.2441 31.822 57.8731 43.1581 58.9628C57.732 60.5859 72.311 61.1727 86.8923 61.2414C626.399 63.781 1165.1 66.3168 1704.6 68.8565C1740.24 69.0242 1744.3 68.007 1748.42 54.0356C1751.71 43.4284 1751.76 32.5469 1747.76 21.9054C1743.76 11.2639 1738.1 9.4236 1710.56 8.77578C1700.03 8.46713 1689.49 8.67664 1678.96 8.62707C1413.26 7.37631 1148.37 6.12937 882.664 4.87862Z" fill="#E9E8FF"/>
<path d="M1031.89 287.199C882.021 287.219 732.156 287.239 583.102 287.259C529.637 287.266 476.981 287.791 424.326 288.835C345.749 290.659 267.171 287.301 189.403 283.166C157.809 281.357 127.026 279.029 94.6232 281.883C67.8909 284.219 58.9804 286.552 54.1213 296.657C50.0722 305.725 50.0738 314.793 54.9355 323.861C61.4178 335.26 69.519 338.367 99.4921 339.918C133.516 341.727 166.729 343.018 200.753 344.568C275.28 348.185 350.618 350.766 425.955 349.72C760.517 345.27 1095.08 348.335 1428.83 348.031C1495.26 348.022 1562.5 349.568 1629.73 349.559C1671.05 349.553 1679.96 346.961 1684.82 330.897C1687.24 321.829 1688.05 312.761 1683.19 303.693C1677.52 292.812 1668.61 290.223 1640.25 289.19C1555.2 286.352 1470.14 287.658 1385.89 287.41C1267.62 286.908 1150.16 287.183 1031.89 287.199Z" fill="#E9E8FF"/>
</svg>
