<svg width="1226" height="350" viewBox="0 0 1226 350" fill="none" xmlns="http://www.w3.org/2000/svg">
<path d="M977.237 101.281C927.864 100.95 879.058 100.622 829.684 100.291C797.903 100.077 766.123 99.8638 733.781 97.833C692.928 95.2268 652.06 97.0251 611.19 99.6007C591.89 100.767 572.592 101.414 553.297 101.285C460.225 100.66 367.151 100.553 274.083 98.8916C207.119 97.6647 140.159 95.1424 73.1919 94.9518C56.734 94.8413 40.8394 96.03 24.9405 98.5141C12.4484 100.503 5.05639 104.858 2.76236 112.097C-1.25134 124.506 -0.724162 136.687 4.34318 148.898C7.7217 156.953 14.5233 159.589 28.1488 158.126C78.1112 151.984 129.175 155.955 179.114 156.808C197.842 157.193 215.999 158.092 234.727 158.218C319.284 159.563 404.404 162.207 488.965 162.257C543.447 162.364 597.367 160.653 651.292 157.647C683.647 155.791 716.561 156.531 749.47 158.824C760.818 159.678 771.6 160.009 782.95 160.085C916.315 160.981 1049.68 161.876 1182.48 162.768C1185.32 162.787 1188.15 162.806 1191.56 162.829C1210.85 162.7 1212.56 161.934 1216 151.334C1220.01 139.443 1220.05 127.525 1216.12 115.581C1212.75 104.417 1210.48 103.107 1190.05 102.71C1161.11 102.257 1132.17 102.322 1103.22 102.127C1062.36 101.853 1019.8 101.567 977.237 101.281Z" fill="#E9E8FF"/>
<path d="M157.239 233.929C246.899 236.345 337.128 238.765 426.789 241.181C430.761 241.207 434.165 241.489 438.138 241.516C512.481 242.275 586.816 245.624 661.162 245.606C720.184 245.484 778.628 248.986 837.075 251.451C841.047 251.478 844.452 251.76 848.424 251.787C946.599 253.742 1044.77 256.992 1142.95 257.134C1158.27 257.237 1174.16 258.639 1189.48 258.742C1208.21 258.868 1213.33 256.57 1217.9 246.756C1223.61 234.617 1223.09 222.177 1218.02 209.966C1214.08 201.13 1208.41 198.501 1191.39 197.61C1177.77 197 1164.72 196.912 1151.1 197.08C1051.21 197.186 951.905 193.928 852.029 191.443C785.066 189.957 718.676 186.661 651.717 184.138C644.34 183.829 636.962 183.78 629.585 183.73C524.592 184.061 420.181 179.991 315.196 177.731C274.904 176.942 234.609 177.19 194.895 173.555C175.604 171.871 156.299 174.591 137.004 174.461C108.061 174.267 79.1187 173.813 50.1739 174.137C17.2573 174.175 5.88506 180.835 5.25848 198.708C5.23708 205.185 4.6471 211.917 7.46325 218.413C10.8444 225.691 18.2077 230.145 30.6869 232.042C40.3295 233.661 49.408 234.241 59.0557 234.305C91.9713 234.527 124.319 234.744 157.235 234.965C157.236 234.706 157.237 234.447 157.239 233.929Z" fill="#E9E8FF"/>
<path d="M617.69 4.87862C438.357 3.67363 259.023 2.46863 80.2567 1.26745C66.6364 1.17593 53.5855 0.570093 39.9661 0.219493C25.2116 -0.138737 17.2568 2.65779 13.8261 10.4074C7.53894 23.8378 8.62966 37.3178 14.2603 50.8282C15.9482 55.2441 21.6145 57.8731 29.5563 58.9628C39.7663 60.5859 49.98 61.1727 60.1952 61.2414C438.158 63.781 815.553 66.3168 1193.52 68.8565C1218.49 69.0242 1221.33 68.007 1224.21 54.0356C1226.52 43.4284 1226.55 32.5469 1223.75 21.9054C1220.95 11.2639 1216.98 9.42361 1197.69 8.77579C1190.31 8.46714 1182.93 8.67664 1175.55 8.62707C989.411 7.37632 803.834 6.12938 617.69 4.87862Z" fill="#E9E8FF"/>
<path d="M722.23 287.199C617.239 287.219 512.248 287.239 407.825 287.259C370.369 287.266 333.48 287.791 296.591 288.835C241.542 290.659 186.493 287.301 132.011 283.166C109.877 281.357 88.3113 279.029 65.6109 281.883C46.883 284.219 40.6405 286.552 37.2364 296.657C34.3997 305.725 34.4008 314.793 37.8068 323.861C42.3481 335.26 48.0236 338.367 69.0219 339.918C92.8578 341.727 116.126 343.018 139.962 344.568C192.174 348.185 244.953 350.766 297.733 349.72C532.117 345.27 766.502 348.335 1000.32 348.031C1046.86 348.022 1093.96 349.568 1141.06 349.559C1170.01 349.553 1176.25 346.961 1179.65 330.897C1181.36 321.829 1181.92 312.761 1178.52 303.693C1174.54 292.812 1168.3 290.223 1148.44 289.19C1088.85 286.352 1029.26 287.658 970.235 287.41C887.378 286.908 805.087 287.183 722.23 287.199Z" fill="#E9E8FF"/>
</svg>
