<svg  viewBox="0 0 351 354" fill="none" xmlns="http://www.w3.org/2000/svg">
<g opacity="0.5">
<ellipse cx="19.5554" cy="62.8064" rx="19.5554" ry="62.8064" transform="matrix(0.0493077 0.998784 -0.99882 0.0485628 221.131 214.69)" fill="#EBECF7"/>
<ellipse cx="19.5758" cy="38.3313" rx="19.5758" ry="38.3313" transform="matrix(0.374433 0.927254 -0.929214 0.369542 127.821 218.802)" fill="#EBECF7"/>
<ellipse cx="19.5789" cy="38.3254" rx="19.5789" ry="38.3254" transform="matrix(-0.400841 0.916148 -0.918368 -0.395727 236.333 251.384)" fill="#EBECF7"/>
</g>
<path d="M282.616 117.546C271.577 98.1244 253.394 85.3844 234.054 77.6434C214.515 69.9328 193.589 66.7664 172.713 68.3616C151.715 69.8376 131.216 75.9427 112.552 86.2793C94.2649 96.6504 78.1338 110.782 65.1265 127.827C51.9575 144.911 42.0336 164.484 35.8998 185.47C35.1051 188.176 34.391 190.894 33.7575 193.624C32.7549 197.804 26.7205 196.633 27.7342 192.424C33.1041 170.097 42.5726 149.059 55.6058 130.496C68.3628 112.166 84.4647 96.679 102.962 84.9489C121.847 73.1584 142.883 65.7295 164.66 63.1604C186.372 60.5842 208.322 63.0847 228.938 70.4826C248.882 77.7182 268.115 90.0197 280.785 108.556C282.34 110.844 283.783 113.214 285.107 115.658C286.075 117.434 283.633 119.276 282.62 117.478L282.616 117.546Z" fill="white"/>
<path d="M263.8 132.919C238.453 112.756 207.307 102.232 175.413 103.052C144.559 103.884 113.633 115.79 90.5202 139.126C83.7588 145.965 77.7497 153.58 72.6073 161.826C68.9887 167.354 65.7369 173.136 62.875 179.13C60.0102 185.484 57.5824 192.052 55.0903 198.596C53.8963 201.788 49.538 199.468 50.7321 196.276C55.1211 184.601 59.497 172.836 66.2354 162.449C71.3125 154.624 76.4633 146.971 82.6447 140.091C94.0238 127.429 107.65 117.23 122.744 110.077C137.487 103.145 153.277 99.0424 169.36 97.9642C202.37 95.7069 235.055 105.25 262.097 125.041C263.778 126.269 265.431 127.535 267.057 128.839C269.568 130.848 266.294 134.888 263.792 132.889L263.8 132.919Z" fill="white"/>
<path d="M284.714 118.956C283.529 118.705 281.76 121.191 280.942 121.959C279.527 123.286 278.101 124.585 276.664 125.858C273.903 128.302 271.117 130.843 268.159 132.999C265.2 135.155 262.733 130.643 265.314 128.375C268.998 125.236 272.855 122.328 276.864 119.666C278.952 118.226 283.513 114.157 285.54 117.596C285.627 117.738 285.673 117.903 285.672 118.072C285.672 118.241 285.626 118.407 285.539 118.55C285.452 118.693 285.328 118.807 285.182 118.879C285.036 118.951 284.873 118.978 284.714 118.956Z" fill="white"/>
<path d="M29.5153 196.795C23.4351 197.555 17.1268 196.713 11.0921 195.996L14.7279 191.416C17.6906 200.901 19.9956 210.7 22.4782 220.362C24.9607 230.024 27.3261 239.758 29.6349 249.498L23.991 248.381C26.984 244.028 29.9876 239.655 33.3541 235.631C36.8717 231.556 40.6779 227.768 44.7395 224.297C48.7089 220.833 52.5855 217.353 56.3885 213.7C58.2684 211.843 60.1347 210.054 61.986 208.205C63.8372 206.356 66.1678 204.645 67.5229 202.48L66.7399 204.197C66.751 204.02 66.7621 203.844 66.8479 203.671L66.9548 205.562L66.823 205.12L67.7601 206.637C68.3066 206.75 68.2792 206.739 67.676 206.632L66.9513 206.519L64.7948 206.198L60.4634 205.547L51.8003 204.254C47.7382 203.649 49.0338 196.883 53.0809 197.428L63.9404 198.856C66.9556 199.249 71.8168 198.927 73.1409 202.658C74.5774 206.692 70.438 209.574 68.0762 211.934C65.247 214.719 62.4084 217.504 59.5324 220.286C54.1651 225.401 48.3979 230.007 43.1185 235.216C37.8391 240.425 33.3103 246.834 28.9558 253.155C28.5775 253.63 28.0859 253.99 27.532 254.199C26.9782 254.407 26.3824 254.457 25.8065 254.342C25.2305 254.227 24.6955 253.951 24.2569 253.545C23.8184 253.138 23.4924 252.614 23.3126 252.028C21.0134 242.285 18.6408 232.568 16.1946 222.875C13.7613 213.176 10.9748 203.575 8.73328 193.809C8.17229 191.377 9.85962 188.699 12.3597 189.228C18.1369 190.462 24.0555 190.935 29.7949 192.324C30.2793 192.463 30.7023 192.773 30.9931 193.202C31.2838 193.631 31.4245 194.154 31.3915 194.681C31.3585 195.209 31.1538 195.71 30.8118 196.1C30.4699 196.491 30.0114 196.746 29.5134 196.825L29.5153 196.795Z" fill="white"/>
<path d="M226.898 248.428C226.493 251.804 225.088 254.985 222.861 257.569C220.634 260.152 217.686 262.022 214.388 262.943C211.09 263.863 207.592 263.792 204.335 262.739C201.077 261.686 198.208 259.698 196.089 257.026C193.971 254.355 192.698 251.12 192.432 247.73C192.165 244.34 192.918 240.949 194.594 237.983C196.27 235.018 198.794 232.612 201.847 231.071C204.901 229.53 208.346 228.921 211.747 229.323C214.006 229.59 216.19 230.296 218.174 231.4C220.158 232.505 221.903 233.987 223.31 235.761C224.717 237.535 225.758 239.567 226.374 241.74C226.989 243.913 227.168 246.186 226.898 248.428Z" fill="#E06A27"/>
<path d="M266.862 264.48C265.851 271.905 261.476 278.52 256.561 284.216C249.088 292.873 238.865 300.783 227.486 299.675C221.186 298.823 215.349 295.921 210.89 291.423C206.448 286.997 202.51 282.099 199.147 276.819C195.764 271.883 192.374 266.951 188.979 262.024C188.304 261.164 187.799 260.185 187.49 259.139C187.006 255.858 187.227 252.512 188.137 249.322C189.014 245.947 190.602 242.796 192.796 240.075C193.426 239.213 194.299 238.555 195.305 238.185C196.311 237.815 197.406 237.749 198.449 237.996C198.449 237.996 198.436 238.124 199.517 238.109C203.461 241.923 208.24 244.783 213.48 246.465C218.721 248.146 224.282 248.604 229.73 247.803C239.233 246.277 249.241 240.974 257.935 245.142C260.916 246.641 263.324 249.062 264.799 252.038C266.764 255.874 267.485 260.221 266.862 264.48Z" fill="#FCB670"/>
<path d="M239.543 290.222C236.521 292.012 232.445 292.96 229.364 291.189C228.313 290.533 227.436 289.635 226.81 288.571C226.184 287.507 225.827 286.308 225.769 285.077C225.703 282.675 226.189 280.289 227.19 278.101C228.706 274.232 230.749 270.587 233.262 267.268C235.398 264.189 238.288 261.702 241.661 260.041C243.416 259.223 245.342 258.838 247.278 258.916C249.214 258.993 251.103 259.533 252.784 260.488C256.911 263.182 257.96 268.78 256.237 273.094C252.245 283.288 242.566 288.431 239.543 290.222Z" fill="#AF5637"/>
<path d="M147.393 252.229C146.833 253.162 146.107 253.987 145.25 254.664L131.78 266.613C131.037 267.281 130.298 267.917 129.554 268.602C125.676 272.141 121.447 275.283 116.933 277.978C111.49 281.285 105.096 282.709 98.7516 282.026C87.4782 280.394 79.3307 270.229 74.2544 260.097C70.8901 253.361 68.2538 245.939 69.0602 238.443C69.2906 236.3 69.8636 234.207 70.7575 232.243C71.7285 229.75 73.2822 227.522 75.2908 225.743C77.2993 223.963 79.7051 222.682 82.3101 222.006C91.7323 220.017 100.163 227.55 109.111 231.339C114.208 233.417 119.721 234.294 125.218 233.902C130.714 233.509 136.044 231.858 140.79 229.078C141.809 229.186 141.809 229.186 141.825 229.188C142.898 229.198 143.945 229.523 144.832 230.122C145.72 230.722 146.408 231.569 146.811 232.557C148.233 235.629 149.018 238.954 149.118 242.334C149.218 245.714 148.632 249.079 147.393 252.229Z" fill="#FCB670"/>
<path d="M89.3838 269.979C91.8854 272.419 95.6059 274.323 99.05 273.324C100.225 272.933 101.289 272.268 102.153 271.385C103.016 270.502 103.654 269.427 104.012 268.249C104.646 265.931 104.751 263.502 104.319 261.139C103.75 257.016 102.615 252.991 100.944 249.174C99.6029 245.699 97.3968 242.617 94.5317 240.216C93.0311 238.999 91.2559 238.161 89.358 237.774C87.46 237.386 85.4957 237.46 83.6329 237.99C78.9596 239.621 76.6023 244.81 77.2364 249.406C78.7236 260.213 86.8839 267.522 89.3838 269.979Z" fill="#AF5637"/>
<path d="M225.447 215.093C221.047 251.737 195.673 263.805 166.457 260.352C137.241 256.9 115.406 239.262 119.806 202.618C124.206 165.975 152.279 131.856 181.448 135.287C210.618 138.718 229.845 178.465 225.447 215.093Z" fill="#F4A95D"/>
<path d="M204.738 216.467C207.135 196.47 194.371 178.522 176.23 176.381C158.088 174.239 141.439 188.714 139.042 208.712C136.645 228.71 149.408 246.657 167.55 248.799C185.691 250.94 202.341 236.465 204.738 216.467Z" fill="#FFC78F"/>
<path fill-rule="evenodd" clip-rule="evenodd" d="M208.555 216.31C211.167 194.517 196.661 175.258 176.647 172.896C156.633 170.533 137.98 185.878 135.368 207.67C132.756 229.462 147.261 248.721 167.275 251.084C187.29 253.446 205.943 238.102 208.555 216.31ZM177.04 169.62C199.066 172.22 214.647 193.297 211.843 216.698C209.038 240.098 188.909 256.96 166.883 254.36C144.857 251.76 129.275 230.682 132.08 207.282C134.885 183.881 155.014 167.019 177.04 169.62Z" fill="#FFC78F"/>
<path d="M151.195 27.2945C161.939 40.8352 154.446 74.9109 154.446 74.9109C154.446 74.9109 119.315 74.1435 108.563 60.6669C97.8118 47.1904 103.769 35.1432 115.569 25.9552C127.368 16.7671 140.469 13.7234 151.195 27.2945Z" fill="#FCB670"/>
<path d="M147.56 39.7988C156.197 50.7299 154.447 74.9109 154.447 74.9109C154.447 74.9109 130.338 70.9607 121.695 60.0777C113.053 49.1947 115.917 40.9594 123.077 35.3706C130.237 29.7819 138.89 28.8642 147.56 39.7988Z" fill="#E36B28"/>
<path d="M236.388 37.3591C222.747 48.0079 221.969 82.9086 221.969 82.9086C221.969 82.9086 256.301 90.3446 269.943 79.6958C283.584 69.0471 280.67 55.9951 271.377 44.3127C262.085 32.6304 250.031 26.6943 236.388 37.3591Z" fill="#FCB670"/>
<path d="M236.969 50.3589C225.955 58.9321 222.023 82.8658 222.023 82.8658C222.023 82.8658 246.365 84.6492 257.398 76.0455C268.432 67.4419 267.545 58.8091 261.914 51.703C256.283 44.5968 247.986 41.7535 236.969 50.3589Z" fill="#E36B28"/>
<ellipse cx="33.8225" cy="12.9314" rx="33.8225" ry="12.9314" transform="matrix(0.990938 0.133972 -0.136007 0.990755 147.956 134.204)" fill="#E89746"/>
<path fill-rule="evenodd" clip-rule="evenodd" d="M122.954 187.573C125.325 179.646 128.733 172.093 132.922 165.312C136.297 164.878 138.855 165.442 139.942 167.134C142.425 170.999 136.292 179.287 126.243 185.645C125.145 186.34 124.045 186.984 122.954 187.573Z" fill="#E89746"/>
<path d="M259.029 112.711C254.781 147.975 219.132 165.74 178.352 160.981C137.573 156.222 107.102 130.706 111.351 95.4421C115.599 60.1786 152.944 28.3727 193.72 33.1634C234.497 37.9542 263.28 77.4315 259.029 112.711Z" fill="#FCB670"/>
<path d="M219.793 127.93C221.47 113.943 206.293 100.652 185.895 98.2443C165.497 95.8363 147.602 105.223 145.926 119.21C144.249 133.197 159.426 146.487 179.824 148.895C200.222 151.303 218.117 141.917 219.793 127.93Z" fill="#FFC78F"/>
<path d="M184.456 105.445L183.448 113.844L184.579 113.978L185.587 105.579L184.456 105.445Z" fill="#AF5637"/>
<path d="M192.84 113.392C193.937 113.115 194.609 114.228 193.574 114.684C193.01 114.932 192.43 115.145 191.836 115.321C189.239 116.106 186.507 116.348 183.811 116.031C181.115 115.714 178.515 114.845 176.176 113.478C175.61 113.16 175.069 112.806 174.554 112.419C173.651 111.74 174.557 110.816 175.56 111.338C178.19 112.71 181.07 113.59 184.058 113.915C187.011 114.294 189.989 114.11 192.84 113.392Z" fill="#AF5637"/>
<path d="M223.42 96.9413C223.241 98.4344 222.711 99.8456 221.898 100.997C221.084 102.148 220.023 102.988 218.848 103.41C217.674 103.833 216.438 103.819 215.298 103.37C214.157 102.922 213.163 102.059 212.44 100.89C211.717 99.7213 211.298 98.2994 211.235 96.8036C211.173 95.3078 211.47 93.8052 212.09 92.4854C212.709 91.1656 213.623 90.0877 214.716 89.3877C215.809 88.6877 217.032 88.397 218.23 88.5522C219.03 88.6558 219.799 88.9553 220.493 89.4335C221.187 89.9117 221.793 90.5593 222.275 91.3389C222.757 92.1185 223.107 93.0147 223.303 93.9762C223.5 94.9377 223.539 95.9453 223.42 96.9413Z" fill="#884027"/>
<path d="M163.522 88.3925C163.349 89.8284 162.826 91.1842 162.018 92.289C161.21 93.3939 160.153 94.1982 158.981 94.6008C157.81 95.0033 156.575 94.986 155.434 94.551C154.292 94.1161 153.294 93.2829 152.566 92.1565C151.838 91.0302 151.413 89.6611 151.343 88.2218C151.273 86.7824 151.562 85.3373 152.174 84.0686C152.786 82.7999 153.693 81.7643 154.781 81.0923C155.868 80.4204 157.089 80.1423 158.287 80.2929C159.088 80.3936 159.86 80.6835 160.557 81.1459C161.255 81.6083 161.865 82.234 162.351 82.987C162.838 83.7399 163.192 84.6052 163.393 85.533C163.594 86.4607 163.638 87.4326 163.522 88.3925Z" fill="#884027"/>
<g style="mix-blend-mode:multiply" opacity="0.3">
<path d="M248.88 117.983C248.569 120.596 247.485 123.059 245.764 125.061C244.043 127.062 241.762 128.512 239.211 129.227C236.659 129.941 233.952 129.889 231.43 129.076C228.909 128.263 226.687 126.726 225.046 124.66C223.405 122.593 222.418 120.09 222.211 117.467C222.004 114.844 222.585 112.218 223.881 109.923C225.177 107.628 227.13 105.766 229.493 104.572C231.856 103.379 234.522 102.907 237.155 103.218C240.68 103.639 243.893 105.429 246.091 108.196C248.288 110.964 249.291 114.483 248.88 117.983Z" fill="#F4A85D"/>
</g>
<g style="mix-blend-mode:multiply" opacity="0.3">
<path d="M146.646 105.918C146.332 108.531 145.246 110.992 143.523 112.991C141.8 114.99 139.519 116.437 136.967 117.149C134.416 117.862 131.709 117.807 129.189 116.992C126.669 116.178 124.449 114.64 122.809 112.573C121.17 110.506 120.185 108.003 119.979 105.38C119.773 102.758 120.354 100.133 121.651 97.8391C122.948 95.5447 124.9 93.6835 127.263 92.4906C129.625 91.2978 132.291 90.827 134.922 91.1377C136.671 91.342 138.362 91.8867 139.898 92.7406C141.434 93.5945 142.785 94.7407 143.874 96.1138C144.963 97.4868 145.769 99.0596 146.244 100.742C146.72 102.424 146.856 104.184 146.646 105.918Z" fill="#F4A85D"/>
</g>
<path d="M264.152 227.034C264.947 232.265 265.178 237.873 262.727 242.565C260.064 247.705 254.62 250.878 249.07 252.595C245.211 253.809 240.946 254.38 237.237 252.819C233.027 251.058 230.367 246.896 228.507 242.754C224.978 234.962 223.305 226.489 221.218 218.216C217.841 204.774 213.352 191.631 207.798 178.922C206.5 175.781 204.946 172.435 205.361 169.037C207.714 149.595 238.428 177.897 243.095 183.164C254.239 195.46 261.553 210.698 264.152 227.034Z" fill="#FCB670"/>
<path d="M245.681 235.905C252.835 235.234 259.375 237.534 263.216 241.513C263.076 241.874 262.913 242.225 262.727 242.565C260.064 247.705 254.62 250.878 249.07 252.595C245.21 253.809 240.946 254.38 237.237 252.819C233.772 251.102 231.02 248.238 229.456 244.722C232.475 240.074 238.478 236.57 245.681 235.905Z" fill="#AF5637"/>
<path d="M193.829 106.55C193.657 108.155 189.511 109.145 184.65 108.565C179.789 107.985 176.011 106.156 176.214 104.424C176.417 102.693 180.535 101.814 185.395 102.394C190.256 102.974 194.029 104.851 193.829 106.55Z" fill="#884027"/>
<path d="M62.9498 193.745C57.7225 192.719 52.3124 191.056 48.6771 187.195C44.7036 182.962 43.5134 176.807 43.7449 171.049C43.9661 167.081 44.7935 162.859 47.5214 159.912C50.6169 156.571 55.4505 155.493 60.0223 155.134C68.5183 154.431 77.1684 155.801 85.7158 156.52C99.6191 157.906 113.614 158.15 127.557 157.25C131.015 157.031 134.662 156.764 137.76 158.303C155.401 167.038 118.229 186.219 111.634 188.869C96.2217 195.126 79.3124 196.82 62.9498 193.745Z" fill="#FCB670"/>
<path d="M60.7419 173.49C58.9856 180.431 54.583 185.737 49.5774 188.033C49.289 187.778 49.008 187.508 48.7488 187.231C44.7753 182.998 43.5851 176.844 43.8167 171.086C44.0378 167.118 44.8652 162.896 47.5931 159.949C50.3966 157.292 54.0433 155.685 57.9094 155.402C61.2124 159.765 62.5424 166.499 60.7419 173.49Z" fill="#AF5637"/>
<path d="M104.664 141.491C102.871 152.276 93.4694 159.737 85.5193 165.186C74.1951 172.949 61.9631 178.936 46.4868 176.4C34.9215 174.506 25.6261 162.357 18.4988 154.208C9.3927 143.796 4.22344 135.912 6.66174 121.245C8.73256 108.789 19.0692 101.818 28.3979 94.663C38.6506 86.7997 48.4356 79.4566 62.2278 81.7159C75.6793 83.9194 83.0528 92.6637 90.8955 104.901C98.4109 116.627 106.791 128.697 104.664 141.491Z" fill="#2DBA65"/>
<path opacity="0.2" d="M15.8788 109.718C10.4034 115.597 9.72089 119.476 10.8755 128.063C10.8755 128.063 10.6497 123.692 14.9705 115.812C19.2913 107.932 43.5787 90.1846 49.7467 87.4605C55.9147 84.7363 57.6903 84.9765 63.9866 84.3463C60.5229 82.3947 54.7499 82.785 49.7467 84.3463C41.9828 86.7691 21.3541 103.838 15.8788 109.718Z" fill="#C5FFDC"/>
<g filter="url(#filter0_d_1653_5652)">
<path d="M66.938 126.448C67.5644 125.929 68.2027 125.424 68.8525 124.935C69.7971 124.224 69.1609 122.893 68.11 123.435C58.4171 128.434 50.7674 137.633 47.4457 147.854C45.5 145.364 43.2372 143.05 40.6885 141.135C39.7485 140.428 38.9562 141.632 39.7632 142.487C42.7557 145.658 45.2574 149.301 47.3773 153.115C47.8727 154.006 49.3764 153.731 49.5717 152.731C51.6184 142.254 58.8967 133.306 66.938 126.448Z" fill="#BDFFD7"/>
<path d="M39.1455 148.119C38.1137 148.074 37.0962 147.863 36.1324 147.494C34.2567 146.838 32.9332 145.387 31.7645 143.682C30.5958 141.977 29.5457 140.035 27.9723 138.225C27.1556 137.278 26.1939 136.464 25.1225 135.812C24.8441 135.654 24.7984 135.256 25.0534 135.062C25.1488 134.99 25.2446 134.917 25.3408 134.844C26.3698 134.107 27.4757 133.483 28.6396 132.982C29.2044 132.733 29.7879 132.529 30.3848 132.37C30.9679 132.2 31.5651 132.082 32.1693 132.017C33.3733 131.878 34.5928 131.958 35.768 132.252C38.1389 132.832 40.3515 134.277 42.1015 136.25C42.4402 136.632 42.7627 137.03 43.0699 137.443C43.7546 138.363 44.9935 137.933 44.4953 136.9C44.2103 136.31 43.8915 135.734 43.5399 135.176C42.7371 133.918 41.742 132.792 40.5903 131.839C39.4014 130.85 38.0432 130.083 36.5806 129.571C36.2142 129.429 35.829 129.348 35.4519 129.242C35.2592 129.199 35.0636 129.162 34.8712 129.124C34.6787 129.087 34.4831 129.05 34.2883 129.028C33.5053 128.917 32.7131 128.885 31.9237 128.933C30.3631 129.023 28.8281 129.368 27.381 129.955C25.9681 130.516 24.6294 131.246 23.3945 132.128C22.7821 132.558 22.1936 133.02 21.6315 133.513C21.3349 133.762 21.0721 134.011 20.8008 134.274C20.6651 134.405 20.5324 134.536 20.397 134.673C20.2616 134.811 20.1411 134.938 19.977 135.123L19.1383 136.067C18.5991 136.673 18.9705 137.636 19.7779 137.724L21.0319 137.862C21.9042 137.953 22.751 138.208 23.5275 138.613C24.3425 139.058 25.0839 139.624 25.7259 140.291C27.1227 141.663 28.3298 143.47 29.8158 145.182C30.5766 146.081 31.4467 146.883 32.406 147.57C33.4041 148.273 34.5483 148.744 35.7544 148.95C36.8977 149.169 38.0725 149.171 39.2167 148.956C39.279 148.944 39.3411 148.932 39.403 148.918C39.9306 148.805 39.6851 148.134 39.1455 148.119Z" fill="#BDFFD7"/>
<path d="M90.4878 116.925C90.3461 116.785 90.2431 116.682 90.1212 116.572L89.7743 116.248C89.5402 116.035 89.3065 115.832 89.0696 115.628C88.5922 115.228 88.1071 114.842 87.6146 114.47C86.6194 113.728 85.5829 113.041 84.5099 112.414C82.3396 111.126 79.9905 110.161 77.5378 109.55C75.025 108.921 72.4086 108.811 69.8515 109.229C69.5308 109.283 69.2131 109.336 68.8967 109.417C68.5803 109.499 68.2661 109.561 67.9564 109.654L67.0461 109.945C66.743 110.047 66.4406 110.167 66.1568 110.29C64.9861 110.753 63.8533 111.305 62.7686 111.942C62.2324 112.271 61.7086 112.599 61.1861 112.958C60.6636 113.317 60.1856 113.708 59.6984 114.099C59.2112 114.49 58.7595 114.919 58.3047 115.345L57.0203 116.697C55.3979 118.557 54.0806 120.66 53.1166 122.926L52.7572 123.767C52.6311 124.044 52.5582 124.341 52.4572 124.629C52.2737 125.205 52.0747 125.779 51.9193 126.364L51.5026 128.126L51.4053 128.564C51.3719 128.712 51.3605 128.872 51.339 129.01L51.2158 129.901L51.1016 130.789L51.0475 131.231L51.0275 131.678L50.9503 133.462C50.9275 134.054 50.9386 134.646 50.9834 135.236C50.9922 135.432 51.2655 135.445 51.2918 135.25C51.3703 134.666 51.4152 134.086 51.5405 133.516L51.8637 131.797L51.9462 131.372L52.0598 130.951L52.2868 130.111L52.5048 129.273C52.5449 129.137 52.5724 128.995 52.6186 128.859L52.7634 128.449L53.3373 126.83C53.5474 126.298 53.8076 125.786 54.0308 125.272C54.1548 125.016 54.2473 124.746 54.3903 124.501L54.8032 123.756C55.8736 121.784 57.2252 119.976 58.8161 118.387C61.1817 116.044 64.0462 114.257 67.199 113.158C68.207 112.783 69.2546 112.522 70.3217 112.382C71.3802 112.236 72.4509 112.198 73.5171 112.269C74.6016 112.345 75.6771 112.517 76.7313 112.781C78.8651 113.344 80.9116 114.193 82.8142 115.305C83.7811 115.863 84.7165 116.474 85.6164 117.133C85.7903 117.258 85.7621 117.535 85.5698 117.629C85.0475 117.883 84.5416 118.169 84.055 118.485C82.6078 119.471 81.328 120.679 80.2637 122.064C78.1609 124.729 76.7827 127.63 75.1326 130.232C74.3518 131.521 73.4267 132.719 72.3749 133.802C72.2499 133.938 72.1169 134.066 71.9766 134.186C71.8373 134.305 71.7014 134.433 71.5621 134.553C71.2643 134.773 70.9856 135.012 70.668 135.203C70.364 135.41 70.0477 135.6 69.7209 135.77C69.5621 135.865 69.3894 135.928 69.2207 136.009C69.052 136.09 68.8862 136.167 68.7044 136.23C67.9874 136.516 67.2515 136.752 66.5018 136.938C65.7505 137.128 64.9862 137.264 64.215 137.344C63.6903 137.404 63.5614 138.087 64.0892 138.105C64.1456 138.106 64.202 138.108 64.2585 138.109C65.0791 138.137 65.9006 138.1 66.7155 138.001C67.539 137.898 68.3545 137.74 69.1563 137.527C70.8177 137.094 72.3596 136.295 73.6679 135.19C74.9421 134.104 76.0803 132.871 77.058 131.516C78.9994 128.892 80.5715 126.128 82.5274 123.895C83.4557 122.803 84.5428 121.854 85.7528 121.08C86.9437 120.37 88.2562 119.883 89.6246 119.645L90.7853 119.437C91.5821 119.294 91.8875 118.314 91.3129 117.744L90.4878 116.925Z" fill="#BDFFD7"/>
</g>
<path d="M166.368 224.963C167.744 227.055 169.336 229.047 170.878 231.033" stroke="#F4A85D" stroke-width="3" stroke-linecap="round"/>
<path d="M165.396 229.46C168.248 228.147 169.125 227.385 172.16 226.511" stroke="#F4A85D" stroke-width="3" stroke-linecap="round"/>
<path d="M329.016 203.126C335.618 224.523 333.495 247.431 324.671 268.09C315.88 288.511 301.428 306.366 282.806 319.811C263.993 333.374 242.07 342.366 219.342 347.214C196.488 352.074 172.854 352.811 149.705 349.387C125.641 345.813 101.721 337.216 83.5708 321.128C81.2863 319.098 79.0914 316.934 77.004 314.736C74.9166 312.538 78.7151 309.796 80.7218 311.934C80.8121 312.03 80.9026 312.126 80.9932 312.222C97.1003 329.199 119.536 339.045 142.609 343.549C164.749 347.801 187.548 348.086 209.801 344.387C231.947 340.764 253.699 333.198 272.593 321.22C291.454 309.424 306.668 293.19 316.706 274.147C326.561 255.232 330.888 233.624 326.722 212.78C326.194 210.121 325.522 207.504 324.724 204.912C324.285 203.477 325.221 202.3 326.348 201.883C327.402 201.493 328.623 201.768 329.043 203.117L329.016 203.126Z" fill="white"/>
<path d="M304.389 210.498C310.284 243.891 292.993 280.043 265.078 299.964C248.88 311.523 229.001 317.688 209.533 321.287C190.56 324.901 171.042 325.245 151.937 322.301C131.051 318.953 110.808 310.951 94.5108 297.688C94.4779 297.661 94.4449 297.634 94.412 297.607C91.8857 295.544 94.9854 291.576 97.6014 293.598C126.529 316.01 165.035 321.404 201.094 316.245C210.336 314.93 219.45 312.919 228.347 310.231C237.807 307.354 247.16 303.722 255.635 298.572C269.839 289.755 281.408 277.694 289.249 263.527C298.255 247.293 302.578 229.138 301.791 210.859C301.765 210.696 301.773 210.531 301.814 210.371C301.856 210.211 301.932 210.061 302.036 209.929C302.14 209.796 302.27 209.684 302.421 209.599C302.571 209.514 302.737 209.458 302.911 209.433C303.084 209.408 303.261 209.416 303.432 209.455C303.602 209.494 303.763 209.564 303.904 209.662C304.035 209.752 304.147 209.863 304.234 209.99C304.242 210.001 304.249 210.011 304.256 210.022C304.347 210.163 304.407 210.319 304.434 210.481L304.389 210.498Z" fill="white"/>
<path d="M95.2459 296.693C95.0033 297.026 94.7583 297.358 94.5108 297.688C92.0976 300.905 89.4518 303.963 86.5917 306.843C85.0687 308.369 83.5367 309.879 81.9331 311.33C81.6171 311.616 81.3065 311.92 80.9932 312.222C79.7165 313.454 78.3978 314.667 76.513 314.593C75.9971 314.515 75.5343 314.251 75.2231 313.857C74.9119 313.464 74.7768 312.973 74.8466 312.488C75.1333 310.408 77.3282 309.258 78.8602 307.967C80.3921 306.675 82.2018 305.157 83.8323 303.706C87.0635 300.82 90.2737 297.904 93.4631 294.957C94.556 293.95 96.0522 295.586 95.2548 296.693H95.2459Z" fill="white"/>
<path d="M326.876 200.357C329.214 198.134 332.843 196.91 335.727 195.492L340.293 193.25L345.053 190.912L344.382 195.802C343.02 194.947 341.658 194.096 340.293 193.25C334.884 189.898 329.433 186.63 323.839 183.522C320.381 181.627 316.887 179.781 313.357 177.986C311.649 177.114 309.932 176.258 308.206 175.42L305.456 174.094C305.216 173.98 304.671 173.628 304.137 173.33C303.652 173.06 303.177 172.834 302.947 172.87L304.273 172.316C304.475 172.178 304.296 172.81 304.137 173.33C304.063 173.57 303.994 173.787 303.968 173.893C303.735 174.782 303.52 175.68 303.296 176.569C302.857 178.364 302.401 180.15 301.997 181.945C301.173 185.418 300.379 188.896 299.614 192.38C298.365 198.055 297.186 203.745 296.078 209.449C295.804 210.86 295.535 212.272 295.269 213.685L291.919 210.465C293.312 210.439 294.681 210.118 295.922 209.525C295.975 209.5 296.027 209.474 296.078 209.449C297.255 208.86 298.281 208.039 299.086 207.042C301.338 204.285 305.611 207.187 304.234 209.99C304.133 210.197 304 210.403 303.834 210.607C302.531 212.238 300.863 213.582 298.947 214.547C297.032 215.512 294.914 216.074 292.743 216.194C290.951 216.261 288.998 214.994 289.392 212.973C291.949 199.977 294.869 187.059 298.154 174.22C298.835 171.536 299.157 167.711 302.714 167.35C304.264 167.191 305.742 168.08 307.077 168.701C308.618 169.422 310.141 170.152 311.664 170.89C317.457 173.686 323.164 176.655 328.784 179.798C335.306 183.422 341.775 187.18 348.001 191.264C349.793 192.456 349.309 195.391 347.329 196.155L337.645 199.887C334.634 201.045 331.302 202.848 328.059 203.066C327.713 203.089 327.369 203.008 327.075 202.836C326.781 202.664 326.554 202.409 326.424 202.108C326.393 202.035 326.367 201.959 326.348 201.883C326.289 201.646 326.291 201.399 326.355 201.161C326.439 200.846 326.628 200.565 326.894 200.357H326.876Z" fill="white"/>
<path d="M142.609 343.549C164.749 347.801 187.548 348.086 209.801 344.387C231.947 340.764 253.699 333.198 272.593 321.22C291.454 309.424 306.668 293.19 316.706 274.147C326.561 255.232 330.888 233.624 326.722 212.78C326.194 210.121 325.522 207.504 324.724 204.912C324.285 203.477 325.221 202.3 326.348 201.883C326.289 201.646 326.291 201.399 326.355 201.161C326.439 200.846 326.628 200.565 326.894 200.357H326.876C329.214 198.134 332.843 196.91 335.727 195.492L340.293 193.25C334.884 189.898 329.433 186.63 323.839 183.522C320.381 181.627 316.887 179.781 313.357 177.986C311.649 177.114 309.932 176.258 308.206 175.42L305.456 174.094C305.216 173.98 304.671 173.628 304.137 173.33C304.063 173.57 303.994 173.787 303.968 173.893C303.735 174.782 303.52 175.68 303.296 176.569C302.857 178.364 302.401 180.15 301.997 181.945C301.173 185.418 300.379 188.896 299.614 192.38C298.365 198.055 297.186 203.745 296.078 209.449C297.255 208.86 298.281 208.039 299.086 207.042C301.338 204.285 305.611 207.187 304.234 209.99C304.242 210.001 304.249 210.011 304.256 210.022C304.347 210.163 304.407 210.319 304.434 210.481L304.389 210.498C310.284 243.891 292.993 280.043 265.078 299.964C248.88 311.523 229.001 317.688 209.533 321.287C190.56 324.901 171.042 325.245 151.937 322.301C131.051 318.953 110.808 310.951 94.5108 297.688C92.0976 300.905 89.4518 303.963 86.5917 306.843C85.0687 308.369 83.5367 309.879 81.9331 311.33C81.6171 311.616 81.3065 311.92 80.9932 312.222C97.1003 329.199 119.536 339.045 142.609 343.549Z" fill="white"/>
<defs>
<filter id="filter0_d_1653_5652" x="11.6848" y="101.78" width="87.1246" height="59.0729" filterUnits="userSpaceOnUse" color-interpolation-filters="sRGB">
<feFlood flood-opacity="0" result="BackgroundImageFix"/>
<feColorMatrix in="SourceAlpha" type="matrix" values="0 0 0 0 0 0 0 0 0 0 0 0 0 0 0 0 0 0 127 0" result="hardAlpha"/>
<feOffset/>
<feGaussianBlur stdDeviation="3.6"/>
<feComposite in2="hardAlpha" operator="out"/>
<feColorMatrix type="matrix" values="0 0 0 0 1 0 0 0 0 1 0 0 0 0 1 0 0 0 0.14 0"/>
<feBlend mode="normal" in2="BackgroundImageFix" result="effect1_dropShadow_1653_5652"/>
<feBlend mode="normal" in="SourceGraphic" in2="effect1_dropShadow_1653_5652" result="shape"/>
</filter>
</defs>
</svg>
