<svg width="550" height="544" viewBox="0 0 550 544" fill="none" xmlns="http://www.w3.org/2000/svg">
<g clip-path="url(#clip0_1653_5205)">
<g opacity="0.5">
<ellipse cx="245.374" cy="356.301" rx="31.3227" ry="99.8386" transform="rotate(87.1952 245.374 356.301)" fill="#EBECF7"/>
<ellipse cx="150.27" cy="378.481" rx="31.3227" ry="60.9952" transform="rotate(68.1621 150.27 378.481)" fill="#EBECF7"/>
<ellipse cx="299.301" cy="383.344" rx="31.3227" ry="60.9952" transform="rotate(113.471 299.301 383.344)" fill="#EBECF7"/>
</g>
<path d="M441.297 164.528C423.75 133.418 394.847 113.012 364.104 100.613C333.044 88.2619 299.781 83.1902 266.596 85.7453C233.218 88.1095 200.633 97.8885 170.964 114.445C141.896 131.057 116.254 153.694 95.5773 180.995C74.644 208.36 58.869 239.711 49.1188 273.326C47.8555 277.661 46.7204 282.015 45.7133 286.387C44.1197 293.082 34.5273 291.207 36.1387 284.465C44.6747 248.702 59.7258 215.004 80.4433 185.27C100.722 155.909 126.317 131.103 155.721 112.314C185.739 93.4286 219.179 81.5292 253.796 77.4142C288.308 73.2877 323.201 77.2929 355.972 89.1426C387.675 100.732 418.248 120.437 438.388 150.127C440.86 153.792 443.153 157.589 445.258 161.503C446.797 164.348 442.915 167.299 441.304 164.418L441.297 164.528Z" fill="white"/>
<path d="M411.387 189.152C371.096 156.856 321.586 139.998 270.887 141.312C221.843 142.645 172.683 161.715 135.943 199.094C125.195 210.048 115.643 222.245 107.468 235.454C101.716 244.308 96.5472 253.57 91.9979 263.171C87.4441 273.349 83.5848 283.869 79.6235 294.352C77.7254 299.464 70.7976 295.748 72.6956 290.635C79.6724 271.934 86.6283 253.089 97.3397 236.452C105.41 223.918 113.598 211.659 123.424 200.64C141.512 180.358 163.172 164.022 187.165 152.565C210.602 141.461 235.7 134.889 261.267 133.162C313.738 129.547 365.694 144.833 408.681 176.534C411.352 178.501 413.98 180.528 416.565 182.616C420.556 185.834 415.352 192.306 411.375 189.104L411.387 189.152Z" fill="white"/>
<path d="M444.633 166.785C442.749 166.384 439.936 170.365 438.637 171.596C436.388 173.721 434.121 175.803 431.837 177.841C427.448 181.756 423.019 185.826 418.316 189.279C413.613 192.732 409.692 185.505 413.795 181.873C419.651 176.844 425.782 172.186 432.154 167.923C435.474 165.616 442.723 159.098 445.946 164.607C446.083 164.835 446.156 165.099 446.156 165.37C446.155 165.641 446.082 165.907 445.944 166.136C445.806 166.365 445.609 166.548 445.376 166.663C445.144 166.778 444.886 166.82 444.633 166.785Z" fill="white"/>
<path d="M38.9702 291.467C29.3052 292.684 19.2775 291.335 9.68473 290.186L15.4641 282.85C20.1737 298.042 23.8378 313.738 27.784 329.215C31.7301 344.691 35.4902 360.283 39.1602 375.884L30.1888 374.095C34.9465 367.122 39.7209 360.118 45.0723 353.672C50.6638 347.146 56.7141 341.077 63.1704 335.519C69.4802 329.969 75.6425 324.395 81.6876 318.545C84.676 315.57 87.6426 312.705 90.5854 309.743C93.5282 306.781 97.2328 304.041 99.3868 300.572L98.1423 303.323C98.1598 303.04 98.1775 302.756 98.3139 302.481L98.4839 305.509L98.2743 304.801L99.7639 307.232C100.633 307.412 100.589 307.393 99.6303 307.223L98.4783 307.041L95.0502 306.528L88.1652 305.485L74.3942 303.414C67.9372 302.444 69.9967 291.606 76.4299 292.48L93.6921 294.767C98.4851 295.397 106.212 294.881 108.317 300.858C110.601 307.319 104.021 311.936 100.266 315.716C95.7691 320.177 91.2569 324.637 86.6852 329.094C78.1533 337.286 68.9859 344.665 60.5938 353.008C52.2017 361.351 45.0027 371.617 38.0809 381.742C37.4794 382.502 36.6979 383.079 35.8176 383.414C34.9372 383.748 33.9901 383.827 33.0746 383.643C32.1591 383.458 31.3086 383.018 30.6115 382.366C29.9144 381.715 29.3961 380.876 29.1104 379.937C25.4557 364.332 21.6841 348.766 17.7956 333.24C13.9276 317.705 9.49821 302.325 5.93516 286.683C5.04341 282.788 7.72558 278.499 11.6997 279.346C20.8831 281.322 30.2913 282.08 39.4146 284.305C40.1846 284.527 40.8571 285.024 41.3192 285.711C41.7813 286.399 42.005 287.235 41.9525 288.081C41.9001 288.926 41.5747 289.729 41.0311 290.354C40.4876 290.979 39.7588 291.388 38.9672 291.514L38.9702 291.467Z" fill="white"/>
<path d="M352.728 374.171C352.084 379.579 349.851 384.674 346.311 388.812C342.771 392.95 338.084 395.946 332.842 397.42C327.6 398.894 322.038 398.781 316.861 397.094C311.684 395.407 307.123 392.223 303.755 387.944C300.387 383.665 298.363 378.483 297.94 373.053C297.517 367.624 298.713 362.191 301.377 357.441C304.041 352.691 308.054 348.838 312.907 346.369C317.761 343.9 323.237 342.926 328.644 343.569C332.235 343.997 335.706 345.128 338.86 346.897C342.014 348.666 344.788 351.039 347.024 353.881C349.261 356.723 350.916 359.977 351.894 363.458C352.873 366.94 353.156 370.58 352.728 374.171Z" fill="#E06A27"/>
<path d="M416.256 399.882C414.648 411.776 407.694 422.37 399.882 431.495C388.002 445.36 371.752 458.031 353.664 456.256C343.65 454.892 334.371 450.244 327.282 443.039C320.222 435.949 313.962 428.104 308.616 419.646C303.238 411.739 297.85 403.84 292.453 395.949C291.38 394.571 290.577 393.003 290.086 391.328C289.317 386.072 289.667 380.713 291.115 375.602C292.509 370.197 295.033 365.149 298.52 360.791C299.521 359.41 300.91 358.357 302.509 357.764C304.109 357.171 305.848 357.065 307.507 357.46C307.507 357.46 307.485 357.666 309.204 357.641C315.474 363.752 323.07 368.332 331.4 371.025C339.73 373.719 348.57 374.452 357.23 373.169C372.336 370.726 388.245 362.231 402.066 368.907C406.803 371.309 410.632 375.185 412.976 379.953C416.099 386.098 417.245 393.06 416.256 399.882Z" fill="#FCB670"/>
<path d="M372.829 441.115C368.025 443.982 361.545 445.5 356.648 442.663C354.977 441.614 353.584 440.176 352.589 438.471C351.593 436.767 351.026 434.846 350.934 432.875C350.828 429.027 351.601 425.205 353.193 421.701C355.602 415.503 358.85 409.664 362.845 404.348C366.239 399.417 370.834 395.433 376.196 392.772C378.984 391.463 382.047 390.845 385.124 390.97C388.202 391.094 391.204 391.959 393.877 393.489C400.436 397.804 402.105 406.771 399.365 413.681C393.02 430.009 377.633 438.247 372.829 441.115Z" fill="#AF5637"/>
<path d="M226.347 380.259C225.456 381.754 224.302 383.075 222.941 384.159L201.528 403.299C200.348 404.37 199.174 405.388 197.991 406.484C191.826 412.153 185.104 417.186 177.928 421.504C169.276 426.801 159.112 429.081 149.027 427.987C131.107 425.372 118.155 409.09 110.086 392.861C104.738 382.072 100.548 370.183 101.83 358.177C102.196 354.744 103.107 351.392 104.528 348.246C106.071 344.254 108.541 340.685 111.734 337.834C114.926 334.983 118.751 332.932 122.891 331.849C137.869 328.663 151.27 340.729 165.494 346.798C173.597 350.126 182.36 351.531 191.097 350.903C199.834 350.275 208.307 347.63 215.851 343.177C217.47 343.35 217.47 343.35 217.496 343.353C219.202 343.368 220.866 343.889 222.276 344.849C223.687 345.81 224.781 347.167 225.421 348.749C227.683 353.67 228.931 358.996 229.09 364.41C229.249 369.823 228.316 375.213 226.347 380.259Z" fill="#FCB670"/>
<path d="M134.136 408.69C138.113 412.599 144.027 415.649 149.502 414.049C151.37 413.423 153.061 412.358 154.434 410.944C155.806 409.529 156.819 407.807 157.389 405.92C158.397 402.207 158.564 398.317 157.877 394.531C156.974 387.928 155.169 381.48 152.513 375.367C150.381 369.8 146.874 364.864 142.32 361.018C139.934 359.069 137.112 357.726 134.095 357.106C131.078 356.485 127.956 356.603 124.995 357.452C117.566 360.065 113.819 368.376 114.827 375.738C117.191 393.048 130.163 404.756 134.136 408.69Z" fill="#AF5637"/>
<path d="M350.422 320.776C343.428 379.47 303.094 398.801 256.652 393.271C210.21 387.741 175.502 359.489 182.496 300.795C189.489 242.1 234.114 187.449 280.482 192.945C326.849 198.441 357.413 262.107 350.422 320.776Z" fill="#F4A95D"/>
<path d="M317.502 322.978C321.312 290.946 301.023 262.198 272.186 258.768C243.348 255.338 216.882 278.524 213.072 310.555C209.262 342.587 229.55 371.335 258.388 374.765C287.226 378.195 313.692 355.009 317.502 322.978Z" fill="#FFC78F"/>
<path d="M273.238 249.925C307.028 253.944 331.154 286.596 326.811 323.111C322.467 359.625 291.355 385.706 257.565 381.687C223.775 377.667 199.649 345.016 203.992 308.501C208.336 271.986 239.448 245.905 273.238 249.925Z" stroke="#FFC78F" stroke-width="4"/>
<path d="M232.39 19.9662C249.47 41.6553 237.559 96.2368 237.559 96.2368C237.559 96.2368 181.715 95.0075 164.624 73.4212C147.533 51.8349 157.003 32.5381 175.759 17.8209C194.516 3.1038 215.342 -1.77158 232.39 19.9662Z" fill="#FCB670"/>
<path d="M226.612 39.9949C240.342 57.5041 237.559 96.2364 237.559 96.2364C237.559 96.2364 199.236 89.9091 185.498 72.477C171.759 55.0449 176.313 41.8539 187.695 32.902C199.076 23.9501 212.83 22.4802 226.612 39.9949Z" fill="#E36B28"/>
<path d="M367.814 36.0871C346.13 53.144 344.894 109.047 344.894 109.047C344.894 109.047 399.468 120.958 421.152 103.901C442.837 86.844 438.205 65.9377 423.433 47.2252C408.661 28.5127 389.501 19.0046 367.814 36.0871Z" fill="#FCB670"/>
<path d="M368.736 56.9099C351.229 70.6423 344.979 108.978 344.979 108.978C344.979 108.978 383.672 111.835 401.211 98.054C418.749 84.273 417.34 70.4453 408.389 59.0629C399.439 47.6804 386.249 43.1261 368.736 56.9099Z" fill="#E36B28"/>
<ellipse cx="277.723" cy="218.99" rx="53.7691" ry="20.7111" transform="rotate(7.75777 277.723 218.99)" fill="#E89746"/>
<path fill-rule="evenodd" clip-rule="evenodd" d="M187.499 276.696C191.267 263.999 196.685 251.901 203.344 241.038C208.71 240.343 212.775 241.246 214.503 243.956C218.45 250.147 208.701 263.423 192.728 273.608C190.981 274.721 189.233 275.752 187.499 276.696Z" fill="#E89746"/>
<path d="M403.803 156.784C397.05 213.268 340.382 241.724 275.559 234.101C210.736 226.479 162.301 185.607 169.054 129.123C175.808 72.6391 235.171 21.6933 299.989 29.367C364.806 37.0407 410.56 100.274 403.803 156.784Z" fill="#FCB670"/>
<path d="M341.434 181.161C344.099 158.757 319.974 137.468 287.55 133.611C255.125 129.754 226.68 144.79 224.015 167.193C221.35 189.597 245.475 210.886 277.899 214.743C310.324 218.6 338.77 203.564 341.434 181.161Z" fill="#FFC78F"/>
<path d="M285.264 145.146L283.661 158.599L285.458 158.813L287.061 145.36L285.264 145.146Z" fill="#AF5637"/>
<path d="M302.012 156.829C303.076 156.447 303.866 157.623 302.916 158.236C301.089 159.415 299.096 160.336 296.993 160.964C292.866 162.223 288.522 162.61 284.237 162.102C279.952 161.594 275.819 160.201 272.1 158.013C270.147 156.907 268.375 155.529 266.832 153.927C266.047 153.113 267.083 152.152 268.03 152.77C272.997 156.012 278.679 158.06 284.63 158.712C290.519 159.474 296.476 158.815 302.012 156.829Z" fill="#AF5637"/>
<path d="M347.2 131.524C346.915 133.915 346.073 136.176 344.78 138.02C343.486 139.864 341.8 141.209 339.933 141.886C338.066 142.563 336.101 142.54 334.288 141.822C332.475 141.103 330.894 139.721 329.745 137.849C328.596 135.977 327.93 133.699 327.831 131.303C327.732 128.907 328.205 126.501 329.189 124.387C330.174 122.273 331.627 120.546 333.364 119.425C335.101 118.304 337.045 117.838 338.95 118.087C340.221 118.252 341.443 118.732 342.547 119.498C343.65 120.264 344.613 121.301 345.379 122.55C346.146 123.799 346.701 125.234 347.014 126.774C347.326 128.315 347.389 129.929 347.2 131.524Z" fill="#884027"/>
<path d="M251.986 117.831C251.711 120.131 250.878 122.303 249.594 124.073C248.309 125.842 246.63 127.131 244.768 127.776C242.905 128.42 240.943 128.393 239.128 127.696C237.314 126.999 235.728 125.665 234.57 123.861C233.413 122.056 232.736 119.863 232.625 117.558C232.514 115.252 232.974 112.938 233.946 110.906C234.919 108.873 236.361 107.215 238.09 106.138C239.819 105.062 241.759 104.616 243.664 104.858C244.937 105.019 246.164 105.483 247.273 106.224C248.382 106.965 249.351 107.967 250.124 109.173C250.898 110.379 251.461 111.765 251.78 113.251C252.1 114.737 252.169 116.294 251.986 117.831Z" fill="#884027"/>
<g style="mix-blend-mode:multiply" opacity="0.3">
<path d="M387.671 165.228C387.177 169.414 385.453 173.359 382.718 176.565C379.982 179.771 376.357 182.093 372.301 183.238C368.245 184.383 363.941 184.299 359.933 182.997C355.925 181.695 352.393 179.233 349.785 175.923C347.176 172.613 345.608 168.603 345.278 164.402C344.948 160.2 345.872 155.995 347.933 152.318C349.993 148.642 353.098 145.659 356.853 143.747C360.609 141.835 364.848 141.081 369.032 141.579C374.635 142.252 379.743 145.12 383.237 149.552C386.73 153.985 388.325 159.622 387.671 165.228Z" fill="#F4A85D"/>
</g>
<g style="mix-blend-mode:multiply" opacity="0.3">
<path d="M225.16 145.903C224.661 150.087 222.934 154.03 220.195 157.232C217.457 160.434 213.83 162.752 209.774 163.893C205.719 165.034 201.416 164.946 197.41 163.641C193.404 162.336 189.875 159.873 187.269 156.562C184.663 153.252 183.097 149.242 182.77 145.042C182.442 140.841 183.367 136.637 185.428 132.962C187.489 129.287 190.593 126.306 194.348 124.395C198.103 122.484 202.34 121.73 206.524 122.228C209.303 122.555 211.991 123.428 214.433 124.795C216.875 126.163 219.023 127.999 220.754 130.199C222.485 132.398 223.765 134.917 224.521 137.612C225.277 140.307 225.494 143.124 225.16 145.903Z" fill="#F4A85D"/>
</g>
<path d="M411.947 339.903C413.211 348.281 413.578 357.265 409.681 364.78C405.449 373.013 396.794 378.095 387.973 380.846C381.838 382.791 375.058 383.705 369.163 381.204C362.471 378.383 358.243 371.717 355.285 365.083C349.676 352.601 347.017 339.03 343.7 325.779C338.331 304.248 331.196 283.196 322.366 262.838C320.303 257.807 317.833 252.447 318.492 247.005C322.233 215.864 371.055 261.197 378.474 269.634C396.189 289.329 407.815 313.737 411.947 339.903Z" fill="#FCB670"/>
<path d="M382.586 354.112C393.958 353.038 404.354 356.722 410.46 363.095C410.238 363.673 409.978 364.236 409.682 364.78C405.449 373.013 396.795 378.095 387.974 380.846C381.838 382.791 375.059 383.705 369.164 381.204C363.656 378.454 359.281 373.867 356.795 368.235C361.594 360.79 371.136 355.178 382.586 354.112Z" fill="#AF5637"/>
<path d="M300.162 146.916C299.888 149.487 293.297 151.071 285.57 150.142C277.844 149.214 271.839 146.284 272.161 143.51C272.483 140.737 279.029 139.329 286.756 140.258C294.482 141.187 300.479 144.193 300.162 146.916Z" fill="#884027"/>
<path d="M92.116 286.581C83.8067 284.938 75.2068 282.274 69.4281 276.089C63.1119 269.308 61.2199 259.45 61.588 250.227C61.9395 243.871 63.2548 237.109 67.5911 232.388C72.5117 227.037 80.1951 225.31 87.4624 224.735C100.968 223.608 114.718 225.803 128.305 226.955C150.405 229.175 172.651 229.566 194.816 228.124C200.312 227.774 206.109 227.346 211.034 229.811C239.076 243.803 179.987 274.527 169.504 278.77C145.005 288.794 118.126 291.507 92.116 286.581Z" fill="#FCB670"/>
<path d="M88.6072 254.137C85.8153 265.256 78.817 273.754 70.8601 277.433C70.4016 277.023 69.9549 276.591 69.543 276.148C63.2267 269.367 61.3347 259.509 61.7029 250.286C62.0544 243.93 63.3696 237.168 67.7059 232.447C72.1623 228.192 77.9591 225.617 84.1046 225.164C89.355 232.153 91.4692 242.939 88.6072 254.137Z" fill="#AF5637"/>
<path d="M158.426 202.882C155.576 220.157 140.631 232.107 127.994 240.836C109.993 253.271 90.5492 262.86 65.9481 258.799C47.564 255.764 32.7882 236.305 21.4586 223.251C6.98355 206.574 -1.23348 193.945 2.64243 170.453C5.9342 150.5 22.3652 139.334 37.1942 127.874C53.4918 115.279 69.0459 103.517 90.9699 107.136C112.352 110.665 124.073 124.672 136.54 144.273C148.486 163.055 161.807 182.388 158.426 202.882Z" fill="#2DBA65"/>
<path opacity="0.2" d="M17.2939 151.987C8.59032 161.405 7.5054 167.618 9.34074 181.373C9.34074 181.373 8.98191 174.372 15.8502 161.75C22.7185 149.128 61.3256 120.7 71.1303 116.337C80.935 111.973 83.7574 112.358 93.766 111.349C88.26 108.222 79.0834 108.848 71.1303 111.349C58.7887 115.229 25.9975 142.57 17.2939 151.987Z" fill="#C5FFDC"/>
<g filter="url(#filter0_d_1653_5205)">
<path d="M98.4562 178.786C100.726 176.89 103.094 175.119 105.55 173.479C106.533 172.823 105.9 171.403 104.81 171.858C87.2919 179.173 73.2548 195.14 67.4715 213.074C63.4193 207.848 58.502 203.105 52.831 199.652C51.8275 199.041 51.0319 200.343 51.8965 201.139C58.7128 207.412 64.0767 215.217 68.3971 223.418C68.873 224.322 70.3309 224.051 70.4814 223.041C73.1223 205.329 85.1302 190.238 98.4562 178.786Z" fill="#BDFFD7"/>
<path d="M54.2776 213.498C52.6375 213.425 51.0201 213.087 49.4881 212.497C46.5064 211.445 44.4026 209.122 42.5448 206.391C40.6871 203.66 39.0179 200.549 36.5168 197.651C35.2186 196.133 33.6899 194.829 31.9868 193.786C31.5428 193.531 31.47 192.896 31.8763 192.584C32.0283 192.468 32.1807 192.351 32.3337 192.234C33.9694 191.054 35.7275 190.054 37.5775 189.252C38.4753 188.853 39.4029 188.526 40.3517 188.272C41.2786 188 42.2279 187.81 43.1883 187.706C45.1022 187.484 47.0407 187.612 48.9089 188.083C52.6776 189.012 56.1948 191.327 58.9765 194.487C60.36 196.058 61.5733 197.803 62.6426 199.672C63.2123 200.668 64.5699 200.261 64.2227 199.167C63.5111 196.926 62.5187 194.774 61.2629 192.766C59.9869 190.751 58.405 188.948 56.5743 187.42C54.6844 185.838 52.5255 184.608 50.2006 183.789C49.6181 183.56 49.0058 183.431 48.4063 183.262C48.1 183.192 47.7891 183.133 47.4832 183.073C47.1772 183.013 46.8664 182.953 46.5567 182.918C45.3121 182.741 44.0528 182.69 42.798 182.767C40.3172 182.911 37.8772 183.464 35.5769 184.404C33.331 185.302 31.203 186.471 29.2399 187.885C28.2664 188.573 27.3309 189.313 26.4375 190.103C25.966 190.501 25.5484 190.901 25.117 191.321C24.9013 191.531 24.6904 191.741 24.4752 191.961C24.2599 192.181 24.0684 192.385 23.8076 192.681L21.7041 195.066C21.1685 195.674 21.5393 196.632 22.3443 196.721L25.4845 197.069C26.871 197.215 28.2171 197.624 29.4513 198.272C30.7469 198.984 31.9255 199.89 32.9459 200.96C35.1664 203.156 37.0852 206.051 39.4473 208.794C40.6566 210.233 42.0396 211.518 43.5647 212.618C45.1512 213.744 46.97 214.499 48.8872 214.828C50.7046 215.179 52.5721 215.183 54.3909 214.839C54.4915 214.82 54.5917 214.799 54.6916 214.777C55.5332 214.594 55.1386 213.523 54.2776 213.498Z" fill="#BDFFD7"/>
<path d="M135.891 163.533C135.666 163.308 135.502 163.144 135.308 162.966L134.757 162.448C134.385 162.107 134.013 161.781 133.637 161.455C132.878 160.814 132.107 160.196 131.324 159.601C129.742 158.411 128.094 157.311 126.389 156.307C122.939 154.243 119.205 152.698 115.306 151.72C111.311 150.711 107.152 150.536 103.088 151.205C102.578 151.291 102.073 151.377 101.57 151.507C101.067 151.637 100.567 151.738 100.075 151.887L98.6283 152.352C98.1463 152.515 97.6657 152.708 97.2146 152.904C95.3536 153.646 93.5529 154.53 91.8287 155.55C90.9764 156.077 90.1437 156.604 89.3132 157.179C88.4826 157.754 87.7228 158.379 86.9483 159.006C86.1739 159.632 85.4559 160.32 84.7329 161.002L82.6912 163.168C80.1124 166.147 78.0183 169.514 76.4859 173.145L75.9146 174.492C75.7142 174.936 75.5983 175.411 75.4378 175.873C75.1461 176.796 74.8298 177.715 74.5827 178.651L73.9204 181.474L73.7656 182.176C73.7126 182.413 73.6945 182.668 73.6603 182.89L73.4644 184.317L73.2829 185.739L73.1969 186.448L73.1651 187.164L73.0424 190.022C73.0061 190.969 73.0237 191.917 73.095 192.862C73.1089 193.175 73.5437 193.195 73.5852 192.884C73.71 191.949 73.7814 191.021 73.9805 190.107L74.4943 187.354L74.6256 186.673L74.806 186L75.167 184.653L75.5135 183.312C75.5772 183.093 75.6209 182.866 75.6944 182.648L75.9245 181.992L76.8367 179.397C77.1707 178.546 77.5843 177.725 77.9392 176.902C78.1362 176.492 78.2834 176.06 78.5106 175.668L79.1669 174.475C80.8685 171.316 83.0169 168.419 85.5458 165.874C89.3061 162.121 93.8595 159.259 98.8712 157.498C100.474 156.898 102.139 156.481 103.835 156.255C105.518 156.022 107.22 155.961 108.915 156.074C110.638 156.197 112.348 156.471 114.024 156.894C117.416 157.796 120.669 159.157 123.693 160.938C125.23 161.832 126.717 162.81 128.147 163.866C128.425 164.066 128.379 164.51 128.072 164.661C127.242 165.067 126.439 165.525 125.666 166.031C123.365 167.61 121.331 169.545 119.639 171.764C116.296 176.032 114.105 180.68 111.482 184.847C110.241 186.912 108.771 188.831 107.099 190.566C106.9 190.783 106.689 190.988 106.466 191.181C106.244 191.372 106.028 191.577 105.807 191.768C105.333 192.121 104.89 192.503 104.386 192.809C103.902 193.142 103.4 193.445 102.88 193.718C102.628 193.871 102.353 193.971 102.085 194.1C101.817 194.23 101.553 194.354 101.264 194.455C100.125 194.913 98.9547 195.291 97.7631 195.589C96.5687 195.893 95.3538 196.111 94.128 196.239C93.29 196.335 93.0815 197.429 93.9244 197.457C94.0152 197.46 94.1061 197.463 94.197 197.464C95.5014 197.509 96.8073 197.451 98.1027 197.291C99.4117 197.126 100.708 196.873 101.982 196.532C104.623 195.838 107.075 194.559 109.154 192.789C111.18 191.05 112.989 189.074 114.543 186.903C117.629 182.7 120.128 178.274 123.237 174.697C124.713 172.947 126.441 171.428 128.364 170.188C130.257 169.05 132.344 168.271 134.519 167.889L137.491 167.353C138.285 167.21 138.591 166.233 138.02 165.662L135.891 163.533Z" fill="#BDFFD7"/>
</g>
<path d="M256.51 336.584C258.697 339.935 261.228 343.126 263.679 346.307" stroke="#F4A85D" stroke-width="3" stroke-linecap="round"/>
<path d="M254.964 343.788C259.498 341.684 260.893 340.464 265.717 339.065" stroke="#F4A85D" stroke-width="3" stroke-linecap="round"/>
<path d="M515.055 301.607C525.55 335.881 522.175 372.574 508.148 405.666C494.174 438.375 471.201 466.974 441.6 488.51C411.694 510.235 376.847 524.638 340.718 532.404C304.389 540.188 266.82 541.369 230.023 535.883C191.772 530.16 153.749 516.388 124.897 490.619C121.265 487.367 117.776 483.901 114.458 480.381C111.14 476.861 117.178 472.467 120.368 475.894C120.511 476.047 120.655 476.201 120.799 476.354C146.403 503.547 182.067 519.318 218.744 526.532C253.936 533.344 290.179 533.8 325.551 527.876C360.754 522.072 395.331 509.953 425.365 490.767C455.347 471.873 479.53 445.869 495.488 415.366C511.153 385.069 518.031 350.459 511.409 317.071C510.569 312.812 509.501 308.62 508.233 304.469C507.534 302.17 509.022 300.284 510.815 299.616C512.49 298.992 514.43 299.432 515.097 301.593L515.055 301.607Z" fill="white"/>
<path d="M475.908 313.416C485.279 366.903 457.794 424.811 413.419 456.72C387.672 475.234 356.071 485.11 325.125 490.873C294.966 496.663 263.94 497.214 233.571 492.499C200.371 487.136 168.193 474.319 142.287 453.074C142.234 453.031 142.182 452.988 142.13 452.945C138.114 449.64 143.041 443.285 147.199 446.522C193.183 482.422 254.391 491.062 311.711 482.799C326.402 480.692 340.889 477.471 355.031 473.165C370.07 468.557 384.937 462.739 398.409 454.49C420.988 440.368 439.378 421.048 451.841 398.356C466.158 372.352 473.03 343.272 471.778 313.994C471.736 313.733 471.749 313.468 471.816 313.212C471.882 312.957 472.002 312.716 472.167 312.504C472.332 312.292 472.54 312.112 472.779 311.976C473.018 311.84 473.283 311.749 473.559 311.71C473.834 311.67 474.116 311.682 474.387 311.745C474.658 311.808 474.913 311.92 475.138 312.076C475.345 312.22 475.523 312.398 475.663 312.602C475.674 312.619 475.686 312.636 475.697 312.654C475.841 312.879 475.937 313.129 475.979 313.389L475.908 313.416Z" fill="white"/>
<path d="M143.455 451.481C143.07 452.014 142.68 452.545 142.287 453.074C138.451 458.226 134.245 463.126 129.698 467.738C127.278 470.183 124.842 472.601 122.293 474.926C121.791 475.384 121.297 475.87 120.799 476.354C118.77 478.328 116.674 480.271 113.677 480.152C112.857 480.026 112.122 479.603 111.627 478.974C111.132 478.344 110.918 477.557 111.029 476.78C111.484 473.448 114.973 471.607 117.409 469.538C119.844 467.469 122.72 465.037 125.312 462.713C130.448 458.091 135.551 453.42 140.621 448.699C142.359 447.087 144.737 449.707 143.469 451.481H143.455Z" fill="white"/>
<path d="M511.654 297.172C515.37 293.612 521.138 291.65 525.723 289.379L532.981 285.788L540.548 282.044L539.48 289.877C537.316 288.507 535.151 287.143 532.981 285.788C524.383 280.42 515.718 275.185 506.826 270.207C501.329 267.17 495.775 264.215 490.164 261.339C487.449 259.942 484.719 258.572 481.975 257.228L477.603 255.105C477.223 254.922 476.356 254.358 475.507 253.881C474.737 253.448 473.982 253.086 473.616 253.144L475.724 252.257C476.045 252.036 475.76 253.048 475.507 253.881C475.39 254.266 475.28 254.613 475.239 254.783C474.869 256.207 474.527 257.645 474.171 259.069C473.474 261.944 472.747 264.806 472.106 267.681C470.796 273.243 469.534 278.815 468.318 284.395C466.332 293.485 464.458 302.598 462.698 311.735C462.262 313.996 461.833 316.258 461.412 318.521L456.085 313.362C458.3 313.321 460.476 312.806 462.45 311.857C462.533 311.817 462.616 311.776 462.698 311.735C464.567 310.792 466.199 309.478 467.478 307.88C471.059 303.464 477.85 308.112 475.663 312.602C475.501 312.933 475.29 313.264 475.026 313.59C472.954 316.202 470.303 318.356 467.258 319.901C464.213 321.447 460.847 322.347 457.396 322.539C454.547 322.646 451.443 320.617 452.07 317.379C456.133 296.563 460.775 275.872 465.997 255.307C467.079 251.007 467.592 244.881 473.246 244.303C475.709 244.048 478.059 245.472 480.181 246.466C482.63 247.622 485.051 248.791 487.472 249.973C496.682 254.451 505.753 259.208 514.687 264.241C525.054 270.046 535.336 276.065 545.234 282.608C548.082 284.516 547.313 289.218 544.165 290.441L528.771 296.42C523.986 298.274 518.688 301.163 513.533 301.512C512.984 301.548 512.437 301.419 511.97 301.143C511.503 300.867 511.141 300.459 510.935 299.977C510.885 299.859 510.845 299.739 510.815 299.616C510.721 299.237 510.724 298.841 510.825 298.46C510.959 297.956 511.259 297.505 511.682 297.172H511.654Z" fill="white"/>
<path d="M218.744 526.532C253.936 533.344 290.179 533.8 325.551 527.876C360.754 522.072 395.331 509.953 425.365 490.767C455.347 471.873 479.53 445.869 495.488 415.366C511.153 385.069 518.031 350.459 511.409 317.071C510.569 312.812 509.501 308.62 508.233 304.469C507.534 302.17 509.022 300.284 510.815 299.616C510.721 299.237 510.724 298.841 510.825 298.46C510.959 297.956 511.259 297.505 511.682 297.172H511.654C515.37 293.612 521.138 291.65 525.723 289.379L532.981 285.788C524.383 280.42 515.718 275.185 506.826 270.207C501.329 267.17 495.775 264.215 490.164 261.339C487.449 259.942 484.719 258.572 481.975 257.228L477.603 255.105C477.223 254.922 476.356 254.358 475.507 253.881C475.39 254.266 475.28 254.613 475.239 254.783C474.869 256.207 474.527 257.645 474.171 259.069C473.474 261.944 472.747 264.806 472.106 267.681C470.796 273.243 469.534 278.815 468.318 284.395C466.332 293.485 464.458 302.598 462.698 311.735C464.567 310.792 466.199 309.478 467.478 307.88C471.059 303.464 477.85 308.112 475.663 312.602C475.674 312.619 475.686 312.636 475.697 312.654C475.841 312.879 475.937 313.129 475.979 313.389L475.908 313.416C485.279 366.903 457.794 424.811 413.419 456.72C387.672 475.234 356.071 485.11 325.125 490.873C294.966 496.663 263.94 497.214 233.571 492.499C200.371 487.136 168.193 474.319 142.287 453.074C138.451 458.226 134.245 463.126 129.698 467.738C127.278 470.183 124.842 472.601 122.293 474.926C121.791 475.384 121.297 475.87 120.799 476.354C146.403 503.547 182.067 519.318 218.744 526.532Z" fill="white"/>
</g>
<defs>
<filter id="filter0_d_1653_5205" x="14.2531" y="143.607" width="131.261" height="87.5606" filterUnits="userSpaceOnUse" color-interpolation-filters="sRGB">
<feFlood flood-opacity="0" result="BackgroundImageFix"/>
<feColorMatrix in="SourceAlpha" type="matrix" values="0 0 0 0 0 0 0 0 0 0 0 0 0 0 0 0 0 0 127 0" result="hardAlpha"/>
<feOffset/>
<feGaussianBlur stdDeviation="3.6"/>
<feComposite in2="hardAlpha" operator="out"/>
<feColorMatrix type="matrix" values="0 0 0 0 1 0 0 0 0 1 0 0 0 0 1 0 0 0 0.14 0"/>
<feBlend mode="normal" in2="BackgroundImageFix" result="effect1_dropShadow_1653_5205"/>
<feBlend mode="normal" in="SourceGraphic" in2="effect1_dropShadow_1653_5205" result="shape"/>
</filter>
<clipPath id="clip0_1653_5205">
<rect width="550" height="543" fill="white" transform="translate(0 0.272949)"/>
</clipPath>
</defs>
</svg>
