<svg width="726" height="286" viewBox="0 0 726 286" fill="none" xmlns="http://www.w3.org/2000/svg">
<ellipse opacity="0.2" cx="363" cy="270.5" rx="363" ry="15.5" fill="#C9C9E6"/>
<g clip-path="url(#clip0_1653_5209)">
<path d="M366.324 191.731H23C18.0294 191.731 14 195.761 14 200.731V214.473C14 219.443 18.0294 223.473 23 223.473H366.324C371.295 223.473 375.324 219.443 375.324 214.473V200.731C375.324 195.761 371.295 191.731 366.324 191.731Z" fill="#FCB670"/>
<path d="M348.265 158.729H41.0459C37.1799 158.729 34.0459 161.863 34.0459 165.729V184.731C34.0459 188.597 37.1799 191.731 41.0459 191.731H348.265C352.131 191.731 355.265 188.597 355.265 184.731V165.729C355.265 161.863 352.131 158.729 348.265 158.729Z" fill="#FFBF0D"/>
<path d="M289.599 104H204.401C198.657 104 194 106.821 194 110.3V185.7C194 189.179 198.657 192 204.401 192H289.599C295.343 192 300 189.179 300 185.7V110.3C300 106.821 295.343 104 289.599 104Z" fill="#FA774E"/>
<path opacity="0.6" d="M264.212 125C264.446 124.999 264.679 125.045 264.895 125.135C265.111 125.226 265.306 125.359 265.469 125.527C265.639 125.689 265.773 125.884 265.864 126.1C265.955 126.316 266 126.549 265.997 126.783V153.923C266.038 156.447 265.633 158.958 264.803 161.342C264.051 163.486 262.826 165.434 261.22 167.042C259.529 168.692 257.494 169.948 255.26 170.72C249.851 172.427 244.047 172.427 238.639 170.72C236.416 169.939 234.391 168.683 232.704 167.042C231.108 165.432 229.896 163.484 229.159 161.342C228.36 158.951 227.969 156.443 228.002 153.923V126.783C227.999 126.549 228.044 126.316 228.135 126.1C228.226 125.884 228.36 125.689 228.53 125.527C228.693 125.359 228.889 125.226 229.105 125.135C229.321 125.045 229.553 124.999 229.787 125H235.169C235.403 124.999 235.635 125.046 235.851 125.136C236.067 125.227 236.262 125.36 236.426 125.527C236.595 125.689 236.73 125.884 236.821 126.1C236.911 126.316 236.957 126.549 236.954 126.783V153.597C236.914 155.172 237.161 156.742 237.683 158.229C238.114 159.423 238.815 160.502 239.732 161.38C240.647 162.209 241.74 162.819 242.926 163.163C244.236 163.55 245.596 163.741 246.962 163.727C248.344 163.739 249.721 163.548 251.048 163.163C252.243 162.821 253.344 162.212 254.267 161.38C255.188 160.497 255.901 159.421 256.354 158.229C256.891 156.745 257.147 155.174 257.108 153.597V126.783C257.105 126.547 257.151 126.314 257.244 126.097C257.337 125.881 257.475 125.687 257.649 125.527C257.811 125.358 258.006 125.224 258.223 125.133C258.439 125.042 258.672 124.997 258.906 125H264.212Z" fill="#E8E9F6"/>
<path d="M375.324 202.594H14V212.623H375.324V202.594Z" fill="#DD924E"/>
<path d="M437.908 202.594H76.584V212.623H437.908V202.594Z" fill="#DD924E"/>
<path d="M286.007 109.434C283.833 108.969 282 110.813 282 113.037V182.963C282 185.187 283.833 187.031 286.007 186.566C287.702 186.204 289.254 185.623 290.538 184.855C292.786 183.511 294.03 181.703 293.999 179.826V116.174C294.03 114.297 292.786 112.489 290.538 111.145C289.254 110.377 287.702 109.796 286.007 109.434Z" fill="#FF9A7A"/>
<path d="M183.652 104H98.4068C92.6593 104 88 108.659 88 114.407V181.31C88 187.058 92.6593 191.717 98.4068 191.717H183.652C189.399 191.717 194.058 187.058 194.058 181.31V114.407C194.058 108.659 189.399 104 183.652 104Z" fill="#008CE2"/>
<path d="M181.05 109.473C178.95 108.718 177.074 110.577 177.074 112.809V182.543C177.074 184.776 178.952 186.636 181.054 185.878C182.789 185.252 184.379 184.238 185.691 182.892C187.96 180.564 189.216 177.434 189.185 174.183V121.16C189.216 117.91 187.96 114.781 185.691 112.455C184.377 111.11 182.787 110.097 181.05 109.473Z" fill="#38A9EF"/>
<path d="M189.652 16H104.407C98.6593 16 94 20.6593 94 26.4069V93.3104C94 99.058 98.6593 103.717 104.407 103.717H189.652C195.399 103.717 200.058 99.058 200.058 93.3104V26.4069C200.058 20.6593 195.399 16 189.652 16Z" fill="#88D1C0"/>
<path d="M186.976 21.4584C184.875 20.7034 183 22.5626 183 24.7949V94.5284C183 96.7623 184.878 98.622 186.979 97.8642C188.715 97.2383 190.305 96.224 191.617 94.8779C193.886 92.5502 195.142 89.4194 195.111 86.1689V33.1456C195.142 29.8963 193.886 26.7668 191.616 24.4413C190.303 23.0957 188.713 22.0826 186.976 21.4584Z" fill="#B7E5D9"/>
<path d="M256.487 36.6293C253.3 31.8812 247.954 31.7771 244.584 36.4082L201.656 95.5846C198.287 100.216 200.225 104.014 205.949 104.014H291.194C296.918 104.014 298.999 100.112 295.799 95.3634L256.487 36.6293Z" fill="#AC5DC9"/>
<path d="M247.963 43.0966C245.77 43.5231 245.248 46.132 246.501 47.9813L279.132 96.1165C280.38 97.9583 282.984 98.4458 284.197 96.5804C284.207 96.5645 284.217 96.5487 284.227 96.5327C284.968 95.3798 285.474 94.0919 285.716 92.743C285.957 91.3941 285.93 90.0108 285.636 88.6724C285.342 87.3339 284.786 86.0668 284.001 84.9437L258.686 47.5699C257.152 45.2697 254.771 43.6688 252.061 43.1157C250.697 42.8371 249.304 42.8358 247.963 43.0966Z" fill="#C58ADD"/>
<path d="M355.408 221.808C355.408 232.328 352.288 242.612 346.444 251.36C340.599 260.107 332.291 266.925 322.572 270.951C312.852 274.977 302.157 276.03 291.839 273.978C281.521 271.925 272.043 266.859 264.604 259.42C257.165 251.981 252.099 242.503 250.047 232.185C247.994 221.867 249.047 211.171 253.073 201.452C257.099 191.732 263.917 183.425 272.664 177.58C281.412 171.735 291.696 168.615 302.216 168.615C316.324 168.615 329.853 174.219 339.828 184.195C349.804 194.17 355.408 207.7 355.408 221.808Z" fill="#E02730"/>
<path d="M341.905 221.808C341.908 229.658 339.582 237.333 335.223 243.862C330.863 250.39 324.666 255.479 317.414 258.485C310.162 261.491 302.181 262.279 294.481 260.749C286.782 259.219 279.708 255.44 274.157 249.89C268.605 244.34 264.823 237.268 263.291 229.569C261.758 221.869 262.544 213.888 265.547 206.635C268.551 199.382 273.638 193.183 280.165 188.821C286.692 184.459 294.366 182.131 302.216 182.131C307.428 182.13 312.588 183.155 317.404 185.148C322.219 187.141 326.594 190.063 330.28 193.748C333.965 197.432 336.889 201.807 338.884 206.621C340.879 211.436 341.905 216.596 341.905 221.808Z" fill="#D30510"/>
<path d="M333.879 221.808C333.879 228.07 332.022 234.192 328.543 239.399C325.064 244.606 320.119 248.664 314.333 251.06C308.548 253.457 302.181 254.084 296.039 252.862C289.897 251.641 284.256 248.625 279.828 244.197C275.399 239.769 272.384 234.127 271.162 227.985C269.94 221.843 270.567 215.476 272.964 209.691C275.36 203.905 279.419 198.96 284.626 195.481C289.832 192.002 295.954 190.145 302.216 190.145C310.614 190.145 318.667 193.48 324.605 199.418C330.543 205.356 333.879 213.41 333.879 221.808Z" fill="#FFBF0D"/>
<path d="M681 191.731H411.2C406.23 191.731 402.2 195.761 402.2 200.731V214.473C402.2 219.443 406.23 223.473 411.2 223.473H681C685.971 223.473 690 219.443 690 214.473V200.731C690 195.761 685.971 191.731 681 191.731Z" fill="#FCB670"/>
<path d="M690 202.594H402.2V212.623H690V202.594Z" fill="#DD924E"/>
<path d="M489.084 52.2139H402.2V191.732H489.084V52.2139Z" fill="#008CE2"/>
<path d="M489.084 52.2139H462.768V191.732H489.084V52.2139Z" fill="#035C93"/>
<path d="M507.178 53.0464C507.168 49.5041 505.755 46.1099 503.249 43.6063C500.743 41.1027 497.348 39.6934 493.806 39.6865H397.465C393.922 39.6934 390.527 41.1027 388.021 43.6063C385.515 46.1099 384.102 49.5041 384.092 53.0464C384.102 56.59 385.514 59.9854 388.02 62.4911C390.526 64.9968 393.921 66.409 397.465 66.4193H493.806C497.349 66.409 500.744 64.9968 503.25 62.4911C505.756 59.9854 507.168 56.59 507.178 53.0464Z" fill="#FFBF0D"/>
<path d="M466.543 78.1143H424.727C419.204 78.1143 414.727 82.5914 414.727 88.1143V119.915C414.727 125.438 419.204 129.915 424.727 129.915H466.543C472.066 129.915 476.543 125.438 476.543 119.915V88.1143C476.543 82.5914 472.066 78.1143 466.543 78.1143Z" fill="#FFBF0D"/>
<path d="M463.183 78.1143H424.727C419.204 78.1143 414.727 82.5914 414.727 88.1143V119.052H453.183C458.706 119.052 463.183 114.573 463.183 109.05V78.1143Z" fill="#CC9305"/>
<path d="M680 191.706C685.523 191.706 690 187.228 690 181.706V139.099C689.987 134.671 688.221 130.428 685.088 127.298C681.956 124.168 677.712 122.406 673.284 122.396H505.787C501.361 122.409 497.121 124.173 493.991 127.303C490.862 130.432 489.098 134.673 489.084 139.099V191.706H680Z" fill="#88D1C0"/>
<path d="M677.889 147.541C677.889 143.746 676.382 140.107 673.698 137.423C671.014 134.74 667.375 133.232 663.58 133.232H511.64C507.845 133.232 504.206 134.74 501.522 137.423C498.839 140.107 497.331 143.746 497.331 147.541H677.889Z" fill="#B7E5D9"/>
<path d="M497.995 221.808C497.995 232.328 494.875 242.612 489.03 251.36C483.186 260.107 474.878 266.925 465.159 270.951C455.439 274.977 444.744 276.03 434.426 273.978C424.108 271.925 414.63 266.859 407.191 259.42C399.752 251.981 394.686 242.503 392.633 232.185C390.581 221.867 391.634 211.171 395.66 201.452C399.686 191.732 406.504 183.425 415.251 177.58C423.999 171.735 434.283 168.615 444.803 168.615C458.91 168.615 472.44 174.219 482.415 184.195C492.391 194.17 497.995 207.7 497.995 221.808Z" fill="#E02730"/>
<path d="M484.479 221.808C484.479 229.655 482.152 237.326 477.792 243.851C473.433 250.376 467.236 255.461 459.986 258.464C452.736 261.467 444.759 262.253 437.063 260.722C429.366 259.191 422.297 255.412 416.748 249.863C411.199 244.314 407.42 237.245 405.889 229.548C404.358 221.852 405.144 213.874 408.147 206.624C411.15 199.374 416.235 193.178 422.76 188.818C429.285 184.458 436.956 182.131 444.803 182.131C455.326 182.131 465.417 186.312 472.858 193.752C480.299 201.193 484.479 211.285 484.479 221.808Z" fill="#D30510"/>
<path d="M476.465 221.808C476.465 228.07 474.608 234.192 471.129 239.399C467.65 244.606 462.705 248.664 456.919 251.06C451.134 253.457 444.767 254.084 438.625 252.862C432.483 251.641 426.842 248.625 422.413 244.197C417.985 239.769 414.97 234.127 413.748 227.985C412.526 221.843 413.153 215.476 415.55 209.691C417.946 203.905 422.005 198.96 427.212 195.481C432.418 192.002 438.54 190.145 444.802 190.145C453.2 190.145 461.253 193.48 467.191 199.418C473.129 205.356 476.465 213.41 476.465 221.808Z" fill="#FFBF0D"/>
<path d="M676.77 221.808C676.77 232.328 673.651 242.612 667.806 251.36C661.961 260.107 653.654 266.925 643.934 270.951C634.215 274.977 623.519 276.03 613.201 273.978C602.883 271.925 593.405 266.859 585.966 259.42C578.527 251.981 573.461 242.503 571.409 232.185C569.356 221.867 570.41 211.171 574.436 201.452C578.462 191.732 585.279 183.425 594.027 177.58C602.774 171.735 613.058 168.615 623.579 168.615C637.686 168.615 651.215 174.219 661.191 184.195C671.166 194.17 676.77 207.7 676.77 221.808Z" fill="#E02730"/>
<path d="M663.268 221.808C663.27 229.658 660.945 237.333 656.585 243.862C652.226 250.39 646.028 255.479 638.776 258.485C631.524 261.491 623.543 262.279 615.844 260.749C608.144 259.219 601.071 255.44 595.519 249.89C589.967 244.34 586.186 237.268 584.653 229.569C583.121 221.869 583.906 213.888 586.91 206.635C589.913 199.382 595 193.183 601.527 188.821C608.054 184.459 615.728 182.131 623.579 182.131C628.79 182.13 633.951 183.155 638.766 185.148C643.581 187.141 647.957 190.063 651.642 193.748C655.328 197.432 658.251 201.807 660.246 206.621C662.241 211.436 663.268 216.596 663.268 221.808Z" fill="#D30510"/>
<path d="M655.241 221.808C655.241 228.07 653.384 234.192 649.905 239.399C646.426 244.606 641.481 248.664 635.696 251.06C629.91 253.457 623.544 254.084 617.402 252.862C611.26 251.641 605.618 248.625 601.19 244.197C596.762 239.769 593.746 234.127 592.524 227.985C591.303 221.843 591.93 215.476 594.326 209.691C596.723 203.905 600.781 198.96 605.988 195.481C611.195 192.002 617.316 190.145 623.579 190.145C631.976 190.145 640.03 193.48 645.968 199.418C651.906 205.356 655.241 213.41 655.241 221.808Z" fill="#FFBF0D"/>
<path d="M629.848 68.0845H618.57H609.356C603.834 68.0845 599.356 72.5616 599.356 78.0845V91.487L613.394 126.003C614.251 128.108 616.297 129.485 618.57 129.485H629.848C632.121 129.485 634.168 128.108 635.024 126.003L649.062 91.487V78.0845C649.062 72.5616 644.585 68.0845 639.062 68.0845H629.848Z" fill="#008CE2"/>
<path d="M623.995 68.0845V129.485H629.849C632.122 129.485 634.168 128.108 635.025 126.003L649.062 91.487V78.0845C649.062 72.5616 644.585 68.0845 639.062 68.0845H629.849H623.995Z" fill="#035C93"/>
<path d="M146.556 221.808C146.556 232.328 143.437 242.611 137.593 251.358C131.749 260.106 123.442 266.923 113.723 270.95C104.005 274.976 93.3101 276.03 82.9922 273.979C72.6744 271.927 63.1965 266.863 55.757 259.425C48.3175 251.987 43.2504 242.51 41.1965 232.193C39.1426 221.875 40.1942 211.181 44.2181 201.461C48.2421 191.741 55.0578 183.433 63.8034 177.586C72.5491 171.74 82.8319 168.618 93.3516 168.615C100.338 168.614 107.256 169.988 113.711 172.661C120.166 175.333 126.032 179.251 130.972 184.19C135.913 189.13 139.832 194.994 142.506 201.449C145.18 207.903 146.556 214.821 146.556 221.808Z" fill="#E02730"/>
<path d="M133.04 221.808C133.04 229.654 130.714 237.325 126.355 243.849C121.996 250.374 115.8 255.459 108.551 258.463C101.302 261.466 93.3249 262.253 85.6288 260.723C77.9328 259.193 70.8632 255.415 65.3139 249.868C59.7646 244.32 55.9848 237.252 54.4524 229.556C52.9201 221.861 53.7039 213.883 56.7049 206.633C59.7059 199.383 64.7892 193.186 71.3122 188.824C77.8352 184.463 85.5048 182.134 93.3514 182.131C98.5633 182.128 103.725 183.152 108.541 185.144C113.357 187.137 117.733 190.059 121.419 193.744C125.105 197.429 128.028 201.804 130.022 206.619C132.017 211.435 133.042 216.596 133.04 221.808Z" fill="#D30510"/>
<path d="M125.028 221.808C125.028 228.069 123.171 234.191 119.692 239.397C116.214 244.604 111.27 248.662 105.485 251.059C99.6998 253.456 93.3342 254.084 87.1926 252.863C81.051 251.643 75.4092 248.628 70.9806 244.201C66.5519 239.774 63.5353 234.134 62.3121 227.993C61.089 221.852 61.7141 215.486 64.1086 209.7C66.5031 203.914 70.5594 198.968 75.7645 195.487C80.9697 192.006 87.0901 190.147 93.3519 190.145C97.511 190.143 101.63 190.961 105.473 192.551C109.316 194.141 112.808 196.473 115.749 199.414C118.691 202.354 121.024 205.845 122.616 209.688C124.208 213.53 125.028 217.648 125.028 221.808Z" fill="#FFBF0D"/>
<path opacity="0.6" d="M125.136 54.558C125.191 52.1106 125.68 49.6922 126.58 47.4136C127.42 45.3027 128.721 43.4038 130.389 41.8541C132.165 40.2498 134.254 39.0274 136.527 38.2633C142.384 36.5138 148.638 36.5829 154.454 38.4614C156.63 39.2584 158.636 40.4555 160.367 41.9903C161.689 43.1706 162.742 44.6187 163.455 46.2373C163.967 47.4214 164.307 48.6722 164.463 49.9519C164.489 50.1819 164.458 50.4146 164.373 50.6302C164.289 50.8458 164.153 51.0379 163.978 51.1901C163.636 51.4963 163.193 51.6679 162.733 51.673H157.417C157 51.6996 156.587 51.5717 156.259 51.3139C156.005 51.1094 155.793 50.8569 155.637 50.571C155.549 50.3976 155.325 50.0138 154.952 49.4195C154.463 48.7197 153.861 48.1048 153.172 47.5993C152.204 46.8799 151.134 46.3082 149.997 45.903C148.398 45.3488 146.71 45.0928 145.017 45.1477C142.149 45.0029 139.333 45.9454 137.137 47.785C136.149 48.6884 135.36 49.7848 134.818 51.0056C134.276 52.2264 133.993 53.5454 133.987 54.8799C133.9 56.5267 133.85 58.3097 133.85 60.2041C133.85 62.0986 133.85 63.9187 133.987 65.516C134.112 69.1315 135.17 71.707 137.137 73.3909C139.382 75.1261 142.177 76.0045 145.017 75.8673C146.523 75.8809 148.025 75.7062 149.487 75.3472C150.768 75.0377 151.966 74.4546 152.997 73.6385C154.016 72.817 154.808 71.7519 155.3 70.5431C155.878 69.034 156.153 67.4272 156.11 65.8132V65.2807H148.105C147.637 65.2775 147.189 65.0912 146.858 64.7622C146.527 64.4331 146.34 63.9878 146.337 63.5225V58.8793C146.335 58.6485 146.381 58.4197 146.471 58.2069C146.561 57.9941 146.693 57.8016 146.86 57.6411C147.02 57.4741 147.214 57.3417 147.428 57.2523C147.642 57.1628 147.872 57.1181 148.105 57.121H163.218C163.451 57.1181 163.681 57.1628 163.895 57.2523C164.109 57.3417 164.303 57.4741 164.463 57.6411C164.632 57.801 164.766 57.9931 164.858 58.2059C164.95 58.4186 164.998 58.6477 164.999 58.8793V66.0732C165.028 68.5306 164.606 70.9726 163.754 73.2795C162.955 75.4295 161.678 77.3723 160.019 78.9628C158.232 80.6254 156.11 81.8915 153.794 82.6774C148.12 84.4409 142.039 84.4409 136.365 82.6774C134.081 81.8937 131.996 80.6263 130.252 78.9628C128.607 77.375 127.332 75.4477 126.517 73.3166C125.647 71.0052 125.172 68.5653 125.111 66.0979C125.111 65.2683 125.036 64.3645 125.011 63.3615C124.986 62.3586 125.011 61.3309 125.011 60.2908C125.011 59.2507 125.011 58.223 125.011 57.2201C125.011 56.2171 125.086 55.3876 125.136 54.558Z" fill="white"/>
<path opacity="0.6" d="M140.97 148.534L135.579 166.9C135.403 167.443 135.137 167.954 134.793 168.414C134.62 168.612 134.402 168.769 134.156 168.87C133.91 168.971 133.643 169.014 133.377 168.996H128.295C128.021 169.009 127.746 168.964 127.492 168.864C127.237 168.763 127.007 168.61 126.819 168.414C126.445 167.98 126.194 167.458 126.093 166.9L118.06 128.143C118.027 127.982 118.007 127.818 118 127.654C117.997 127.436 118.04 127.221 118.126 127.021C118.212 126.82 118.34 126.639 118.5 126.489C118.654 126.333 118.839 126.209 119.044 126.125C119.248 126.041 119.468 125.999 119.69 126H124.344C124.768 126.001 125.183 126.127 125.534 126.361C125.742 126.515 125.916 126.709 126.045 126.932C126.174 127.154 126.255 127.4 126.284 127.654L131.556 153.693L136.21 137.296C136.341 136.879 136.542 136.485 136.805 136.132C136.989 135.895 137.232 135.708 137.512 135.59C137.791 135.472 138.097 135.426 138.4 135.456H143.6C143.903 135.426 144.209 135.472 144.488 135.59C144.768 135.708 145.011 135.895 145.195 136.132C145.458 136.485 145.659 136.879 145.79 137.296L150.444 153.693L155.716 127.654C155.745 127.4 155.826 127.154 155.955 126.932C156.084 126.709 156.258 126.515 156.466 126.361C156.817 126.127 157.232 126.001 157.656 126H162.31C162.532 125.999 162.752 126.041 162.956 126.125C163.161 126.209 163.346 126.333 163.5 126.489C163.66 126.639 163.788 126.82 163.874 127.021C163.96 127.221 164.003 127.436 164 127.654C163.993 127.818 163.973 127.982 163.94 128.143L155.859 166.9C155.758 167.458 155.507 167.98 155.133 168.414C154.945 168.61 154.716 168.763 154.461 168.864C154.206 168.964 153.932 169.009 153.657 168.996H148.575C148.309 169.014 148.042 168.971 147.796 168.87C147.55 168.769 147.332 168.612 147.159 168.414C146.815 167.954 146.55 167.443 146.374 166.9L140.97 148.534Z" fill="#F6F5E3"/>
</g>
<defs>
<clipPath id="clip0_1653_5209">
<rect width="676" height="275" fill="white" transform="translate(14)"/>
</clipPath>
</defs>
</svg>
