<svg width="282" height="21" viewBox="0 0 282 21" fill="none" xmlns="http://www.w3.org/2000/svg">
<path fill-rule="evenodd" clip-rule="evenodd" d="M0.87868 8.02386C11.5772 -2.67462 28.9228 -2.67462 39.6213 8.02386C47.9767 16.3792 61.5233 16.3792 69.8787 8.02386C80.5772 -2.67462 97.9228 -2.67462 108.621 8.02386C116.977 16.3792 130.523 16.3792 138.879 8.02386C149.577 -2.67462 166.923 -2.67462 177.621 8.02386C185.977 16.3792 199.523 16.3792 207.879 8.02386C218.577 -2.67462 235.923 -2.67462 246.621 8.02386C254.977 16.3792 268.523 16.3792 276.879 8.02386C278.05 6.85229 279.95 6.85229 281.121 8.02386C282.293 9.19544 282.293 11.0949 281.121 12.2665C270.423 22.965 253.077 22.965 242.379 12.2665C234.023 3.91117 220.477 3.91117 212.121 12.2665C201.423 22.965 184.077 22.965 173.379 12.2665C165.023 3.91117 151.477 3.91117 143.121 12.2665C132.423 22.965 115.077 22.965 104.379 12.2665C96.0233 3.91117 82.4767 3.91116 74.1213 12.2665C63.4228 22.965 46.0772 22.965 35.3787 12.2665C27.0233 3.91117 13.4767 3.91117 5.12132 12.2665C3.94975 13.4381 2.05025 13.4381 0.87868 12.2665C-0.292893 11.0949 -0.292893 9.19544 0.87868 8.02386Z" fill="white"/>
</svg>
