<svg width="370" height="154" viewBox="0 0 370 154" fill="none" xmlns="http://www.w3.org/2000/svg">
<g clip-path="url(#clip0_2130_5136)">
<path d="M96.7693 94.5215C116.208 97.6231 150.985 97.2813 179.347 87.8737C203.578 79.8366 225.736 66.057 216.489 42.4366C194.014 -14.9712 58.8267 -9.52273 42.8613 60.6977C37.0992 86.0411 77.3308 91.4199 96.7693 94.5215Z" fill="#F9F9FF"/>
<path d="M193.268 33.2862C188.89 43.6948 189.005 62.5027 201.416 78.1303C212.019 91.4815 230.391 103.893 262.353 99.642C340.035 89.3091 333.418 23.9376 252.544 10.9722C218.654 5.53899 197.646 22.8776 193.268 33.2862Z" fill="white"/>
<path d="M28.4063 46.1886C27.5062 46.4514 26.0729 43.8311 25.3059 43.2077C24.6334 43.6191 21.0016 44.6084 20.6968 44.0163C20.4815 43.5248 21.1666 42.7503 21.3754 42.3573C21.7721 41.4712 22.5583 40.8297 22.9425 39.9451C22.8126 39.7621 22.6716 39.5893 22.5368 39.4099C22.0857 38.7457 20.6 37.1571 21.4158 36.5124C21.6612 36.3662 22.2112 36.4373 22.4643 36.5021C23.1174 36.648 23.7472 36.9999 24.3444 37.2982C25.3525 37.8004 25.893 36.8707 26.4634 36.0896C26.7279 35.7275 27.7495 34.1945 28.3615 34.6313C28.622 34.8167 28.5557 35.421 28.5237 35.7113C28.4117 36.5797 28.2739 37.4345 28.1941 38.3104C28.6327 38.4463 29.0677 38.5636 29.5048 38.7085C30.1829 38.9891 30.8328 39.3952 31.4889 39.7301C31.7479 39.8621 32.1026 40.0425 32.0923 40.3715C32.0771 40.6652 31.7895 40.8248 31.5797 40.9413C30.5065 41.5397 29.7958 41.8538 28.3984 42.1496C28.5294 43.1458 29.2378 45.9458 28.4063 46.1886Z" fill="white"/>
<path d="M13.0122 127.554C12.5278 128.359 9.70366 127.407 8.71841 127.47C8.50187 128.229 6.49942 131.426 5.87527 131.197C5.38488 130.982 5.36549 129.947 5.2536 129.516C4.94669 128.595 5.09148 127.589 4.77643 126.677C4.55726 126.631 4.33689 126.599 4.11655 126.559C3.33616 126.377 1.17035 126.219 1.33481 125.19C1.41652 124.916 1.86901 124.594 2.09896 124.47C2.67776 124.133 3.37857 123.964 4.01929 123.777C5.09993 123.461 4.86929 122.41 4.76114 121.448C4.71101 121.002 4.42666 119.18 5.17186 119.086C5.48863 119.045 5.84813 119.534 6.02069 119.769C6.52492 120.484 7.00108 121.207 7.53406 121.905C7.94842 121.707 8.34759 121.497 8.76689 121.307C9.45514 121.052 10.2074 120.909 10.9161 120.709C11.1957 120.63 11.5785 120.522 11.7932 120.771C11.9803 120.997 11.8766 121.31 11.8011 121.538C11.4161 122.708 11.1057 123.422 10.2778 124.589C11.0472 125.233 13.4596 126.81 13.0122 127.554Z" fill="white"/>
<path d="M348.884 140.619C348.223 141.411 345.32 139.9 344.241 139.802C343.878 140.589 341.169 143.717 340.53 143.364C340.034 143.048 340.187 141.922 340.138 141.435C339.96 140.384 340.286 139.317 340.098 138.275C339.868 138.188 339.634 138.117 339.402 138.036C338.586 137.706 336.263 137.168 336.615 136.08C336.749 135.797 337.294 135.524 337.565 135.428C338.249 135.161 339.038 135.096 339.764 135.002C340.989 134.842 340.916 133.663 340.96 132.601C340.981 132.108 340.979 130.084 341.803 130.107C342.153 130.117 342.461 130.708 342.609 130.993C343.035 131.853 343.431 132.717 343.891 133.565C344.374 133.42 344.842 133.26 345.329 133.125C346.118 132.965 346.959 132.937 347.761 132.84C348.077 132.802 348.511 132.749 348.702 133.055C348.867 133.332 348.702 133.654 348.581 133.889C347.967 135.093 347.51 135.815 346.416 136.941C347.143 137.769 349.494 139.888 348.884 140.619Z" fill="white"/>
<path d="M352.76 45.2449C352.081 46.1698 348.753 44.6944 347.547 44.6605C347.199 45.5601 344.408 49.223 343.674 48.8754C343.102 48.5588 343.193 47.2975 343.105 46.7609C342.835 45.6059 343.123 44.3985 342.841 43.2543C342.58 43.1734 342.316 43.1107 342.052 43.0369C341.123 42.7284 338.507 42.2929 338.821 41.0603C338.951 40.7357 339.537 40.3955 339.831 40.2699C340.573 39.9253 341.444 39.798 342.244 39.6429C343.593 39.3798 343.43 38.0756 343.406 36.8933C343.394 36.3452 343.252 34.0975 344.169 34.0658C344.558 34.0517 344.941 34.6874 345.125 34.9928C345.658 35.9187 346.157 36.8505 346.727 37.7597C347.253 37.5651 347.762 37.3551 348.293 37.1703C349.159 36.9379 350.09 36.8482 350.974 36.6848C351.323 36.6201 351.8 36.5311 352.034 36.858C352.236 37.1542 352.075 37.5231 351.958 37.7923C351.359 39.1716 350.902 40.0053 349.765 41.3323C350.629 42.2013 353.387 44.3905 352.76 45.2449Z" fill="white"/>
<path d="M123.192 136.269C161.044 139.584 228.796 139.302 284.102 129.444C331.351 121.022 374.593 106.538 356.707 81.604C313.236 21.0032 49.8427 26.4439 18.3568 100.472C6.99322 127.189 85.3405 132.953 123.192 136.269Z" fill="white"/>
<path d="M288.556 31.4511C288.458 31.5778 288.37 31.7571 288.325 31.9466C288.303 32.0414 288.291 32.1886 288.29 32.2885L287.999 45.7369L287.708 59.1853C287.705 59.485 287.8 59.6579 287.962 59.6464C288.113 59.5824 288.276 59.3711 288.377 59.0446L288.422 58.855C289.501 54.3066 289.719 33.431 288.954 31.4959C288.87 31.2757 288.709 31.2872 288.556 31.4511Z" fill="white"/>
<path d="M269.852 116.644C269.001 116.644 268.235 116.345 267.554 115.747C266.958 115.149 266.66 114.381 266.66 113.442V98.9688H226.952C226.101 98.9688 225.334 98.67 224.654 98.0723C224.058 97.4745 223.76 96.7061 223.76 95.7668V83.5993C223.76 82.8308 223.887 82.1477 224.143 81.55C224.483 80.8669 224.824 80.2265 225.164 79.6288L262.319 29.1656C263.426 27.7141 265 26.9883 267.043 26.9883H285.557C286.493 26.9883 287.259 27.2871 287.855 27.8848C288.536 28.4825 288.877 29.251 288.877 30.1903V79.885H297.832C298.854 79.885 299.662 80.2265 300.258 80.9096C300.854 81.5073 301.152 82.2331 301.152 83.087V95.7668C301.152 96.7061 300.812 97.4745 300.131 98.0723C299.535 98.67 298.811 98.9688 297.96 98.9688H288.877V113.442C288.877 114.381 288.536 115.149 287.855 115.747C287.259 116.345 286.493 116.644 285.557 116.644H269.852ZM245.721 80.7816H267.171V50.5549L245.721 80.7816Z" fill="#C4CCF6"/>
<path d="M181.793 117.925C175.665 117.925 170.345 117.071 165.833 115.363C161.322 113.57 157.577 111.136 154.597 108.062C151.703 104.989 149.49 101.402 147.958 97.3038C146.426 93.2053 145.532 88.8079 145.277 84.1116C145.192 81.8062 145.107 79.2019 145.021 76.2988C145.021 73.3103 145.021 70.3218 145.021 67.3333C145.107 64.2594 145.192 61.527 145.277 59.1362C145.532 54.44 146.426 50.0853 147.958 46.0721C149.575 41.9736 151.874 38.4301 154.853 35.4415C157.917 32.3676 161.662 29.9768 166.089 28.2691C170.6 26.5614 175.835 25.7075 181.793 25.7075C187.837 25.7075 193.072 26.5614 197.498 28.2691C201.924 29.9768 205.627 32.3676 208.606 35.4415C211.67 38.4301 214.011 41.9736 215.629 46.0721C217.246 50.0853 218.14 54.44 218.31 59.1362C218.48 61.527 218.565 64.2594 218.565 67.3333C218.65 70.3218 218.65 73.3103 218.565 76.2988C218.565 79.2019 218.48 81.8062 218.31 84.1116C218.14 88.8079 217.246 93.2053 215.629 97.3038C214.096 101.402 211.841 104.989 208.861 108.062C205.967 111.136 202.265 113.57 197.753 115.363C193.327 117.071 188.007 117.925 181.793 117.925ZM181.793 99.3531C186.22 99.3531 189.412 97.9442 191.369 95.1265C193.412 92.2233 194.476 88.3383 194.561 83.4712C194.732 80.995 194.817 78.3908 194.817 75.6584C194.902 72.9261 194.902 70.1937 194.817 67.4613C194.817 64.729 194.732 62.2101 194.561 59.9047C194.476 55.2084 193.412 51.4088 191.369 48.5056C189.412 45.6025 186.22 44.1082 181.793 44.0228C177.367 44.1082 174.175 45.6025 172.217 48.5056C170.26 51.4088 169.196 55.2084 169.025 59.9047C168.94 62.2101 168.855 64.729 168.77 67.4613C168.77 70.1937 168.77 72.9261 168.77 75.6584C168.855 78.3908 168.94 80.995 169.025 83.4712C169.196 88.3383 170.302 92.2233 172.345 95.1265C174.388 97.9442 177.537 99.3531 181.793 99.3531Z" fill="#C4CCF6"/>
<path d="M106.253 116.644C105.401 116.644 104.635 116.345 103.954 115.747C103.359 115.149 103.061 114.381 103.061 113.442V98.9688H63.3522C62.501 98.9688 61.7349 98.67 61.0539 98.0723C60.4581 97.4745 60.1602 96.7061 60.1602 95.7668V83.5993C60.1602 82.8308 60.2878 82.1477 60.5432 81.55C60.8837 80.8669 61.2242 80.2265 61.5646 79.6288L98.7195 29.1656C99.8261 27.7141 101.401 26.9883 103.444 26.9883H121.957C122.894 26.9883 123.66 27.2871 124.256 27.8848C124.936 28.4825 125.277 29.251 125.277 30.1903V79.885H134.233C135.254 79.885 136.063 80.2265 136.659 80.9096C137.255 81.5073 137.552 82.2331 137.552 83.087V95.7668C137.552 96.7061 137.212 97.4745 136.531 98.0723C135.935 98.67 135.212 98.9688 134.36 98.9688H125.277V113.442C125.277 114.381 124.936 115.149 124.256 115.747C123.66 116.345 122.894 116.644 121.957 116.644H106.253ZM82.1211 80.7816H103.571V50.5549L82.1211 80.7816Z" fill="#C4CCF6"/>
<path d="M206.917 38.4608C211.484 43.976 213.442 48.411 212.682 48.411C212.302 48.411 210.962 44.414 206.395 38.8988C201.828 33.3836 196.721 32.0201 196.721 32.0201C196.761 30.8087 202.35 32.9456 206.917 38.4608Z" fill="white"/>
<path d="M284.88 30.7441C282.979 29.7379 270.82 30.7439 270.82 29.6004C270.82 28.4568 281.747 29.2191 284.88 29.2192C287.16 29.2193 286.78 40.2739 286.02 40.2739C284.88 40.2739 286.02 31.3474 284.88 30.7441Z" fill="white"/>
<path d="M292.102 82.3366C292.102 83.4729 298.182 83.2256 298.182 82.3366C298.182 81.4472 292.102 81.2003 292.102 82.3366Z" fill="white"/>
<path d="M128.701 82.3366C128.701 83.4729 134.781 83.2256 134.781 82.3366C134.781 81.4472 128.701 81.2003 128.701 82.3366Z" fill="white"/>
<path d="M121.101 30.3894C119.2 29.3833 109.701 30.6383 109.701 29.4948C110.081 28.4835 117.968 29.2456 121.101 29.2457C123.381 29.2458 123.001 40.1685 122.241 40.1685C121.101 40.1685 122.241 30.9928 121.101 30.3894Z" fill="white"/>
<path d="M193.54 120.455C229.26 113.213 219.073 111.669 261.205 109.928C361.746 105.773 300.7 144.089 268.02 146.376C235.34 148.663 136.071 152.299 99.1589 150.922C11.0745 147.634 1.81967 118.514 85.0963 106.346C114.093 102.109 132.36 120.456 193.54 120.455Z" fill="#F9F9FF"/>
</g>
<defs>
<clipPath id="clip0_2130_5136">
<rect width="418" height="154" fill="white" transform="translate(-28)"/>
</clipPath>
</defs>
</svg>
