<svg width="736" height="271" viewBox="0 0 736 271" fill="none" xmlns="http://www.w3.org/2000/svg">
<g clip-path="url(#clip0_2130_4572)">
<path d="M219.689 166.333C253.915 171.791 315.149 171.19 365.089 154.635C407.755 140.492 446.769 116.243 430.487 74.6774C390.914 -26.3455 152.881 -16.7576 124.769 106.812C114.624 151.41 185.462 160.875 219.689 166.333Z" fill="#F9F9FF"/>
<path d="M389.602 58.5749C381.893 76.8913 382.097 109.988 403.95 137.489C422.62 160.984 454.968 182.825 511.246 175.344C648.025 157.161 636.375 42.1238 493.975 19.308C434.302 9.74704 397.311 40.2584 389.602 58.5749Z" fill="white"/>
<path d="M25.1358 145.833C22.8194 146.509 19.1307 139.769 17.1566 138.166C15.426 139.224 6.07947 141.769 5.29498 140.246C4.74082 138.982 6.50406 136.989 7.04139 135.979C8.06227 133.7 10.0855 132.05 11.0743 129.774C10.74 129.304 10.3772 128.859 10.0304 128.398C8.86933 126.69 5.04574 122.603 7.1453 120.945C7.77701 120.569 9.19224 120.752 9.8438 120.919C11.5245 121.294 13.1452 122.199 14.6822 122.966C17.2767 124.258 18.6676 121.867 20.1356 119.858C20.8162 118.927 23.4453 114.984 25.0205 116.107C25.6909 116.584 25.5203 118.138 25.4379 118.885C25.1496 121.118 24.795 123.317 24.5895 125.57C25.7183 125.919 26.8379 126.221 27.9628 126.594C29.7079 127.316 31.3805 128.36 33.069 129.221C33.7354 129.561 34.6484 130.025 34.6219 130.871C34.5827 131.627 33.8425 132.037 33.3025 132.337C30.5406 133.876 28.7117 134.684 25.1154 135.444C25.4526 138.007 27.2756 145.209 25.1358 145.833Z" fill="white"/>
<path d="M99.3191 81.2794C97.7343 81.7419 95.2105 77.1307 93.8599 76.0337C92.6759 76.7577 86.2812 78.4986 85.7444 77.4567C85.3653 76.5918 86.5717 75.2288 86.9393 74.5373C87.6378 72.9779 89.022 71.8491 89.6985 70.2924C89.4698 69.9703 89.2216 69.6663 88.9843 69.3505C88.1899 68.1819 85.5739 65.3862 87.0104 64.2518C87.4426 63.9944 88.4109 64.1197 88.8567 64.2337C90.0066 64.4904 91.1154 65.1096 92.167 65.6346C93.9421 66.5183 94.8937 64.8822 95.8981 63.5078C96.3637 62.8706 98.1625 60.1728 99.2402 60.9416C99.6989 61.2677 99.5822 62.3312 99.5258 62.842C99.3285 64.3701 99.0859 65.8744 98.9454 67.4158C99.7177 67.6549 100.484 67.8613 101.253 68.1163C102.447 68.6102 103.592 69.3248 104.747 69.9141C105.203 70.1464 105.827 70.4638 105.809 71.0428C105.782 71.5596 105.276 71.8405 104.907 72.0455C103.017 73.0985 101.766 73.6512 99.3052 74.1717C99.5358 75.9249 100.783 80.8521 99.3191 81.2794Z" fill="white"/>
<path d="M72.212 224.462C71.3592 225.879 66.3864 224.203 64.6516 224.314C64.2704 225.65 60.7445 231.275 59.6455 230.873C58.7821 230.495 58.7479 228.673 58.5509 227.915C58.0105 226.294 58.2655 224.523 57.7107 222.919C57.3248 222.837 56.9368 222.782 56.5489 222.711C55.1748 222.391 51.3613 222.113 51.6509 220.303C51.7947 219.82 52.5915 219.254 52.9964 219.035C54.0155 218.443 55.2494 218.145 56.3776 217.816C58.2804 217.26 57.8743 215.411 57.6838 213.717C57.5956 212.933 57.0949 209.727 58.407 209.56C58.9648 209.488 59.5978 210.349 59.9016 210.763C60.7894 212.021 61.6278 213.292 62.5663 214.521C63.2959 214.172 63.9987 213.804 64.737 213.468C65.9489 213.02 67.2734 212.768 68.5213 212.417C69.0136 212.278 69.6876 212.087 70.0656 212.525C70.3951 212.923 70.2126 213.474 70.0795 213.876C69.4017 215.934 68.855 217.191 67.3975 219.245C68.7521 220.377 72.9998 223.154 72.212 224.462Z" fill="white"/>
<path d="M725.095 146.335C723.106 146.916 719.937 141.127 718.242 139.75C716.755 140.659 708.727 142.844 708.053 141.536C707.577 140.45 709.092 138.739 709.553 137.871C710.43 135.913 712.168 134.496 713.017 132.542C712.73 132.138 712.419 131.756 712.121 131.359C711.124 129.892 707.839 126.382 709.643 124.958C710.185 124.635 711.401 124.792 711.961 124.936C713.404 125.258 714.796 126.035 716.116 126.694C718.345 127.804 719.54 125.75 720.801 124.024C721.385 123.224 723.643 119.837 724.996 120.803C725.572 121.212 725.426 122.547 725.355 123.188C725.107 125.107 724.803 126.995 724.626 128.93C725.596 129.231 726.557 129.49 727.524 129.81C729.023 130.43 730.459 131.327 731.91 132.067C732.482 132.359 733.266 132.757 733.243 133.484C733.21 134.133 732.574 134.485 732.11 134.743C729.738 136.065 728.167 136.759 725.078 137.412C725.367 139.613 726.933 145.799 725.095 146.335Z" fill="white"/>
<path d="M663.605 247.454C662.442 248.846 657.329 246.187 655.429 246.014C654.791 247.4 650.02 252.905 648.896 252.284C648.023 251.727 648.292 249.745 648.206 248.89C647.892 247.04 648.467 245.162 648.135 243.328C647.73 243.174 647.318 243.049 646.909 242.907C645.473 242.328 641.383 241.381 642.001 239.466C642.239 238.967 643.198 238.488 643.674 238.319C644.879 237.848 646.268 237.734 647.547 237.568C649.704 237.287 649.575 235.212 649.653 233.343C649.689 232.477 649.685 228.914 651.137 228.955C651.754 228.972 652.296 230.013 652.555 230.513C653.307 232.028 654.003 233.548 654.814 235.04C655.664 234.785 656.488 234.504 657.346 234.265C658.735 233.984 660.215 233.934 661.627 233.764C662.185 233.697 662.948 233.603 663.284 234.143C663.575 234.63 663.284 235.197 663.072 235.61C661.991 237.728 661.187 238.998 659.26 240.98C660.539 242.438 664.68 246.167 663.605 247.454Z" fill="white"/>
<path d="M670.429 79.6196C669.234 81.2472 663.373 78.6509 661.251 78.5912C660.638 80.1744 655.722 86.62 654.43 86.0084C653.422 85.4513 653.584 83.2316 653.429 82.2874C652.953 80.255 653.46 78.1301 652.964 76.1167C652.504 75.9743 652.038 75.864 651.574 75.7341C649.939 75.1912 645.332 74.4249 645.886 72.2558C646.115 71.6846 647.147 71.0859 647.664 70.8649C648.969 70.2586 650.503 70.0345 651.912 69.7616C654.288 69.2986 654.001 67.0035 653.958 64.9229C653.938 63.9584 653.687 60.0031 655.301 59.9473C655.987 59.9225 656.661 61.0411 656.985 61.5786C657.924 63.2079 658.802 64.8477 659.806 66.4477C660.733 66.1052 661.629 65.7357 662.564 65.4105C664.088 65.0016 665.727 64.8436 667.284 64.556C667.898 64.4423 668.739 64.2856 669.15 64.8608C669.506 65.3821 669.223 66.0313 669.016 66.5051C667.962 68.9322 667.157 70.3993 665.155 72.7344C666.677 74.2637 671.533 78.1162 670.429 79.6196Z" fill="white"/>
<path d="M266.216 239.797C332.864 245.631 452.159 245.135 549.54 227.787C632.735 212.966 708.873 187.479 677.38 143.602C600.838 36.9599 137.064 46.5342 81.6248 176.804C61.6162 223.819 199.567 233.963 266.216 239.797Z" fill="white"/>
<path d="M557.381 55.3459C557.208 55.569 557.054 55.8845 556.974 56.218C556.935 56.3847 556.913 56.6439 556.911 56.8196L556.4 80.4854L555.888 104.151C555.882 104.678 556.05 104.983 556.334 104.962C556.6 104.85 556.888 104.478 557.064 103.903L557.144 103.57C559.045 95.5658 559.428 58.83 558.081 55.4249C557.933 55.0373 557.649 55.0575 557.381 55.3459Z" fill="white"/>
<path d="M524.449 205.262C522.95 205.262 521.601 204.737 520.402 203.685C519.353 202.633 518.829 201.281 518.829 199.628V174.159H448.911C447.413 174.159 446.064 173.633 444.865 172.582C443.816 171.53 443.291 170.177 443.291 168.525V147.113C443.291 145.761 443.516 144.558 443.965 143.507C444.565 142.305 445.164 141.178 445.764 140.126L511.185 51.3238C513.133 48.7694 515.906 47.4922 519.503 47.4922H552.101C553.75 47.4922 555.099 48.0181 556.148 49.0699C557.347 50.1217 557.946 51.474 557.946 53.1268V140.577H573.716C575.514 140.577 576.938 141.178 577.987 142.38C579.036 143.432 579.561 144.709 579.561 146.211V168.525C579.561 170.177 578.961 171.53 577.762 172.582C576.713 173.633 575.439 174.159 573.94 174.159H557.946V199.628C557.946 201.281 557.347 202.633 556.148 203.685C555.099 204.737 553.75 205.262 552.101 205.262H524.449ZM481.959 142.154H519.728V88.9632L481.959 142.154Z" fill="#C4CCF6"/>
<path d="M369.397 207.516C358.606 207.516 349.239 206.014 341.295 203.009C333.352 199.853 326.757 195.571 321.511 190.162C316.416 184.752 312.519 178.442 309.821 171.229C307.123 164.017 305.55 156.279 305.1 148.014C304.95 143.957 304.8 139.375 304.65 134.266C304.65 129.007 304.65 123.748 304.65 118.489C304.8 113.08 304.95 108.271 305.1 104.064C305.55 95.7999 307.123 88.1368 309.821 81.0747C312.669 73.8623 316.715 67.6266 321.961 62.3676C327.357 56.9584 333.951 52.7512 341.745 49.746C349.688 46.7409 358.906 45.2383 369.397 45.2383C380.038 45.2383 389.256 46.7409 397.049 49.746C404.843 52.7512 411.362 56.9584 416.608 62.3676C422.004 67.6266 426.125 73.8623 428.973 81.0747C431.82 88.1368 433.394 95.7999 433.694 104.064C433.994 108.271 434.144 113.08 434.144 118.489C434.293 123.748 434.293 129.007 434.144 134.266C434.144 139.375 433.994 143.957 433.694 148.014C433.394 156.279 431.82 164.017 428.973 171.229C426.275 178.442 422.303 184.752 417.058 190.162C411.962 195.571 405.442 199.853 397.499 203.009C389.705 206.014 380.338 207.516 369.397 207.516ZM369.397 174.835C377.191 174.835 382.811 172.356 386.258 167.398C389.855 162.289 391.729 155.452 391.878 146.887C392.178 142.53 392.328 137.947 392.328 133.139C392.478 128.331 392.478 123.522 392.328 118.714C392.328 113.906 392.178 109.473 391.878 105.416C391.729 97.1522 389.855 90.4658 386.258 85.357C382.811 80.2483 377.191 77.6188 369.397 77.4685C361.603 77.6188 355.983 80.2483 352.536 85.357C349.089 90.4658 347.215 97.1522 346.916 105.416C346.766 109.473 346.616 113.906 346.466 118.714C346.466 123.522 346.466 128.331 346.466 133.139C346.616 137.947 346.766 142.53 346.916 146.887C347.215 155.452 349.164 162.289 352.761 167.398C356.358 172.356 361.903 174.835 369.397 174.835Z" fill="#C4CCF6"/>
<path d="M236.387 205.262C234.888 205.262 233.539 204.737 232.34 203.685C231.291 202.633 230.766 201.281 230.766 199.628V174.159H160.849C159.35 174.159 158.001 173.633 156.802 172.582C155.753 171.53 155.229 170.177 155.229 168.525V147.113C155.229 145.761 155.453 144.558 155.903 143.507C156.502 142.305 157.102 141.178 157.701 140.126L223.123 51.3238C225.071 48.7694 227.844 47.4922 231.441 47.4922H264.039C265.687 47.4922 267.036 48.0181 268.085 49.0699C269.284 50.1217 269.884 51.474 269.884 53.1268V140.577H285.653C287.452 140.577 288.875 141.178 289.925 142.38C290.974 143.432 291.498 144.709 291.498 146.211V168.525C291.498 170.177 290.899 171.53 289.7 172.582C288.651 173.633 287.377 174.159 285.878 174.159H269.884V199.628C269.884 201.281 269.284 202.633 268.085 203.685C267.036 204.737 265.687 205.262 264.039 205.262H236.387ZM193.897 142.154H231.665V88.9632L193.897 142.154Z" fill="#C4CCF6"/>
<path d="M413.633 67.6804C421.674 77.3857 425.121 85.1903 423.783 85.1903C423.114 85.1903 420.755 78.1565 412.713 68.4512C404.672 58.7459 395.681 56.3465 395.681 56.3465C395.75 54.2147 405.591 57.9752 413.633 67.6804Z" fill="white"/>
<path d="M550.909 54.1015C547.561 52.3309 526.152 54.1012 526.152 52.0889C526.152 50.0765 545.391 51.418 550.909 51.4182C554.923 51.4183 554.254 70.8715 552.916 70.8715C550.909 70.8715 552.916 55.1632 550.909 54.1015Z" fill="white"/>
<path d="M563.623 144.891C563.623 146.891 574.329 146.455 574.329 144.891C574.329 143.326 563.623 142.891 563.623 144.891Z" fill="white"/>
<path d="M275.914 144.891C275.914 146.891 286.62 146.455 286.62 144.891C286.62 143.326 275.914 142.891 275.914 144.891Z" fill="white"/>
<path d="M262.532 53.4775C259.184 51.7068 242.459 53.9154 242.459 51.903C243.128 50.1236 257.014 51.4646 262.532 51.4648C266.546 51.465 265.877 70.686 264.539 70.686C262.532 70.686 264.539 54.5391 262.532 53.4775Z" fill="white"/>
<path d="M390.081 211.97C452.975 199.225 435.039 196.509 509.223 193.444C686.252 186.132 578.765 253.559 521.223 257.584C463.681 261.609 288.892 268.007 223.898 265.583C68.8024 259.798 52.5068 208.555 199.138 187.141C250.194 179.685 282.358 211.97 390.081 211.97Z" fill="#F9F9FF"/>
</g>
<defs>
<clipPath id="clip0_2130_4572">
<rect width="736" height="271" fill="white"/>
</clipPath>
</defs>
</svg>
