<svg width="598" height="220" viewBox="0 0 598 220" fill="none" xmlns="http://www.w3.org/2000/svg">
<g clip-path="url(#clip0_2130_5074)">
<path d="M178.496 135.031C206.306 139.461 256.058 138.973 296.634 125.534C331.3 114.052 362.999 94.3671 349.77 60.6236C317.617 -21.3876 124.215 -13.604 101.374 86.7109C93.1311 122.916 150.687 130.6 178.496 135.031Z" fill="#F9F9FF"/>
<path d="M316.552 47.5514C310.289 62.4208 310.454 89.2893 328.21 111.614C343.379 130.688 369.662 148.419 415.388 142.345C526.521 127.584 517.055 34.1963 401.355 15.6743C352.871 7.91258 322.816 32.682 316.552 47.5514Z" fill="white"/>
<path d="M20.4231 118.389C18.541 118.937 15.5439 113.466 13.94 112.164C12.5339 113.023 4.93981 115.089 4.30242 113.853C3.85216 112.827 5.28479 111.209 5.72137 110.389C6.55084 108.539 8.19473 107.199 8.99809 105.352C8.7265 104.97 8.43175 104.609 8.14993 104.234C7.20658 102.848 4.09991 99.5306 5.8058 98.1846C6.31906 97.8792 7.46894 98.0278 7.99833 98.1631C9.36394 98.4677 10.6807 99.2024 11.9295 99.8253C14.0376 100.874 15.1676 98.9327 16.3604 97.3018C16.9134 96.5457 19.0496 93.3447 20.3294 94.2569C20.8741 94.6438 20.7355 95.9058 20.6686 96.5118C20.4343 98.325 20.1462 100.11 19.9792 101.939C20.8964 102.223 21.806 102.467 22.72 102.77C24.1379 103.356 25.4969 104.204 26.8688 104.903C27.4102 105.179 28.1521 105.555 28.1306 106.242C28.0987 106.856 27.4973 107.189 27.0585 107.432C24.8145 108.682 23.3285 109.337 20.4065 109.955C20.6805 112.035 22.1616 117.882 20.4231 118.389Z" fill="white"/>
<path d="M80.6967 65.9832C79.409 66.3586 77.3584 62.6153 76.2611 61.7247C75.2991 62.3125 70.1033 63.7257 69.6672 62.8799C69.3592 62.1777 70.3394 61.0712 70.6381 60.5099C71.2056 59.244 72.3303 58.3276 72.8799 57.0639C72.6941 56.8024 72.4924 56.5556 72.2996 56.2992C71.6542 55.3505 69.5287 53.0809 70.6958 52.16C71.047 51.9511 71.8337 52.0528 72.1959 52.1454C73.1302 52.3537 74.0311 52.8564 74.8855 53.2826C76.3278 54 77.101 52.6718 77.9171 51.556C78.2954 51.0388 79.7569 48.8487 80.6326 49.4728C81.0053 49.7375 80.9104 50.6009 80.8646 51.0156C80.7043 52.2561 80.5072 53.4773 80.393 54.7286C81.0205 54.9227 81.6429 55.0903 82.2682 55.2973C83.2383 55.6982 84.1681 56.2783 85.1067 56.7567C85.4771 56.9453 85.9847 57.203 85.97 57.6731C85.9481 58.0926 85.5367 58.3206 85.2365 58.4871C83.7012 59.3419 82.6845 59.7906 80.6853 60.2131C80.8728 61.6364 81.8862 65.6364 80.6967 65.9832Z" fill="white"/>
<path d="M58.6718 182.22C57.9788 183.37 53.9385 182.01 52.529 182.099C52.2192 183.185 49.3544 187.751 48.4615 187.425C47.76 187.118 47.7322 185.639 47.5721 185.023C47.1331 183.707 47.3402 182.27 46.8895 180.967C46.576 180.901 46.2607 180.856 45.9455 180.799C44.829 180.539 41.7306 180.313 41.9658 178.843C42.0827 178.451 42.7301 177.992 43.0591 177.814C43.8871 177.333 44.8897 177.092 45.8063 176.825C47.3523 176.374 47.0223 174.872 46.8676 173.498C46.7959 172.86 46.3891 170.258 47.4552 170.122C47.9084 170.064 48.4227 170.763 48.6696 171.099C49.3909 172.12 50.0721 173.152 50.8346 174.15C51.4274 173.867 51.9985 173.568 52.5983 173.295C53.583 172.932 54.6592 172.727 55.6731 172.442C56.073 172.329 56.6207 172.174 56.9278 172.53C57.1956 172.853 57.0472 173.3 56.9391 173.626C56.3884 175.297 55.9442 176.317 54.7599 177.985C55.8606 178.904 59.3119 181.158 58.6718 182.22Z" fill="white"/>
<path d="M589.14 118.796C587.523 119.267 584.949 114.568 583.571 113.45C582.363 114.188 575.841 115.962 575.293 114.9C574.906 114.019 576.137 112.63 576.512 111.925C577.224 110.336 578.636 109.185 579.326 107.599C579.093 107.27 578.84 106.96 578.598 106.639C577.788 105.448 575.119 102.598 576.584 101.442C577.025 101.18 578.013 101.308 578.468 101.424C579.641 101.685 580.772 102.316 581.844 102.851C583.655 103.752 584.626 102.085 585.65 100.684C586.125 100.035 587.96 97.2851 589.059 98.0685C589.527 98.4009 589.408 99.4848 589.351 100.005C589.149 101.563 588.902 103.096 588.759 104.667C589.546 104.911 590.328 105.121 591.113 105.381C592.331 105.884 593.498 106.612 594.676 107.213C595.141 107.45 595.779 107.773 595.76 108.363C595.733 108.89 595.216 109.176 594.839 109.385C592.912 110.458 591.635 111.022 589.126 111.552C589.361 113.339 590.633 118.361 589.14 118.796Z" fill="white"/>
<path d="M539.179 200.885C538.234 202.016 534.08 199.857 532.536 199.717C532.017 200.841 528.141 205.311 527.228 204.806C526.518 204.354 526.737 202.745 526.667 202.051C526.413 200.549 526.879 199.025 526.609 197.536C526.28 197.411 525.946 197.309 525.614 197.194C524.446 196.724 521.124 195.955 521.626 194.401C521.819 193.995 522.598 193.606 522.985 193.469C523.964 193.087 525.093 192.994 526.132 192.86C527.885 192.631 527.78 190.947 527.843 189.43C527.873 188.726 527.869 185.835 529.049 185.868C529.55 185.881 529.99 186.726 530.201 187.133C530.812 188.362 531.377 189.596 532.036 190.807C532.727 190.6 533.397 190.372 534.093 190.178C535.223 189.95 536.424 189.91 537.572 189.772C538.025 189.717 538.645 189.641 538.918 190.079C539.154 190.475 538.918 190.935 538.746 191.27C537.868 192.989 537.214 194.021 535.649 195.63C536.688 196.813 540.052 199.841 539.179 200.885Z" fill="white"/>
<path d="M544.723 64.6359C543.752 65.9572 538.989 63.8495 537.265 63.801C536.767 65.0863 532.773 70.3189 531.724 69.8224C530.905 69.3701 531.036 67.5682 530.91 66.8016C530.523 65.1517 530.935 63.4267 530.533 61.7922C530.159 61.6766 529.78 61.587 529.403 61.4816C528.074 61.0409 524.331 60.4188 524.781 58.6579C524.967 58.1942 525.806 57.7082 526.226 57.5288C527.287 57.0365 528.533 56.8546 529.678 56.6331C531.608 56.2572 531.374 54.3941 531.34 52.705C531.324 51.922 531.119 48.711 532.431 48.6657C532.989 48.6456 533.536 49.5537 533.799 49.99C534.562 51.3127 535.276 52.644 536.092 53.9428C536.844 53.6648 537.572 53.3648 538.332 53.1008C539.57 52.7688 540.902 52.6406 542.167 52.4071C542.666 52.3148 543.349 52.1876 543.683 52.6546C543.973 53.0778 543.743 53.6048 543.575 53.9894C542.718 55.9598 542.064 57.1507 540.438 59.0464C541.674 60.2879 545.62 63.4154 544.723 64.6359Z" fill="white"/>
<path d="M216.301 194.67C270.453 199.406 367.38 199.003 446.502 184.92C514.098 172.888 575.96 152.197 550.372 116.577C488.182 30.0046 111.365 37.7771 66.3208 143.531C50.0638 181.699 162.149 189.933 216.301 194.67Z" fill="white"/>
<path d="M452.871 44.9303C452.731 45.1114 452.605 45.3675 452.54 45.6382C452.508 45.7736 452.491 45.984 452.489 46.1267L452.073 65.3387L451.658 84.5507C451.653 84.9788 451.789 85.2258 452.02 85.2093C452.236 85.1179 452.47 84.8161 452.614 84.3496L452.678 84.0788C454.223 77.5811 454.534 47.7587 453.439 44.9944C453.32 44.6797 453.089 44.6962 452.871 44.9303Z" fill="white"/>
<path d="M426.115 166.634C424.897 166.634 423.801 166.207 422.827 165.354C421.974 164.5 421.548 163.402 421.548 162.06V141.384H364.74C363.523 141.384 362.427 140.958 361.452 140.104C360.6 139.25 360.174 138.152 360.174 136.81V119.428C360.174 118.33 360.357 117.354 360.722 116.501C361.209 115.525 361.696 114.61 362.183 113.756L415.338 41.6657C416.921 39.592 419.174 38.5552 422.096 38.5552H448.582C449.922 38.5552 451.018 38.9821 451.87 39.836C452.844 40.6898 453.331 41.7877 453.331 43.1294V114.122H466.144C467.605 114.122 468.762 114.61 469.614 115.586C470.467 116.44 470.893 117.476 470.893 118.696V136.81C470.893 138.152 470.406 139.25 469.432 140.104C468.579 140.958 467.544 141.384 466.326 141.384H453.331V162.06C453.331 163.402 452.844 164.5 451.87 165.354C451.018 166.207 449.922 166.634 448.582 166.634H426.115ZM391.592 115.403H422.279V72.2217L391.592 115.403Z" fill="#C4CCF6"/>
<path d="M300.134 168.464C291.366 168.464 283.755 167.244 277.301 164.804C270.847 162.243 265.489 158.766 261.227 154.375C257.087 149.984 253.921 144.861 251.729 139.006C249.537 133.15 248.258 126.868 247.893 120.16C247.771 116.866 247.649 113.146 247.527 108.998C247.527 104.729 247.527 100.46 247.527 96.1905C247.649 91.7992 247.771 87.8958 247.893 84.4803C248.258 77.7714 249.537 71.5504 251.729 65.8174C254.042 59.9623 257.33 54.9002 261.592 50.6308C265.976 46.2396 271.334 42.8241 277.667 40.3845C284.121 37.9449 291.61 36.7251 300.134 36.7251C308.78 36.7251 316.269 37.9449 322.601 40.3845C328.934 42.8241 334.231 46.2396 338.493 50.6308C342.877 54.9002 346.226 59.9623 348.539 65.8174C350.853 71.5504 352.132 77.7714 352.375 84.4803C352.619 87.8958 352.741 91.7992 352.741 96.1905C352.862 100.46 352.862 104.729 352.741 108.998C352.741 113.146 352.619 116.866 352.375 120.16C352.132 126.868 350.853 133.15 348.539 139.006C346.347 144.861 343.12 149.984 338.858 154.375C334.718 158.766 329.421 162.243 322.967 164.804C316.634 167.244 309.023 168.464 300.134 168.464ZM300.134 141.933C306.466 141.933 311.033 139.92 313.834 135.895C316.756 131.748 318.278 126.198 318.4 119.245C318.644 115.707 318.765 111.987 318.765 108.084C318.887 104.18 318.887 100.277 318.765 96.3734C318.765 92.4701 318.644 88.8716 318.4 85.5782C318.278 78.8693 316.756 73.4411 313.834 69.2938C311.033 65.1465 306.466 63.0118 300.134 62.8899C293.802 63.0118 289.235 65.1465 286.434 69.2938C283.634 73.4411 282.111 78.8693 281.868 85.5782C281.746 88.8716 281.624 92.4701 281.502 96.3734C281.502 100.277 281.502 104.18 281.502 108.084C281.624 111.987 281.746 115.707 281.868 119.245C282.111 126.198 283.694 131.748 286.617 135.895C289.54 139.92 294.045 141.933 300.134 141.933Z" fill="#C4CCF6"/>
<path d="M192.064 166.634C190.846 166.634 189.75 166.207 188.776 165.353C187.924 164.499 187.497 163.401 187.497 162.06V141.384H130.69C129.472 141.384 128.376 140.957 127.402 140.103C126.549 139.249 126.123 138.152 126.123 136.81V119.428C126.123 118.33 126.306 117.354 126.671 116.5C127.158 115.524 127.645 114.609 128.132 113.755L181.287 41.6652C182.87 39.5915 185.123 38.5547 188.045 38.5547H214.531C215.871 38.5547 216.967 38.9816 217.819 39.8355C218.793 40.6893 219.281 41.7872 219.281 43.129V114.121H232.093C233.554 114.121 234.711 114.609 235.564 115.585C236.416 116.439 236.842 117.476 236.842 118.696V136.81C236.842 138.152 236.355 139.249 235.381 140.103C234.528 140.957 233.493 141.384 232.276 141.384H219.281V162.06C219.281 163.401 218.793 164.499 217.819 165.353C216.967 166.207 215.871 166.634 214.531 166.634H192.064ZM157.541 115.402H188.228V72.2212L157.541 115.402Z" fill="#C4CCF6"/>
<path d="M336.075 54.9438C342.609 62.8226 345.41 69.1584 344.323 69.1584C343.779 69.1584 341.862 63.4483 335.328 55.5695C328.795 47.6907 321.49 45.7428 321.49 45.7428C321.546 44.0122 329.542 47.065 336.075 54.9438Z" fill="white"/>
<path d="M447.615 43.9203C444.895 42.4829 427.5 43.9201 427.5 42.2864C427.5 40.6528 443.132 41.7418 447.615 41.742C450.876 41.7421 450.333 57.5343 449.245 57.5343C447.615 57.5343 449.245 44.7822 447.615 43.9203Z" fill="white"/>
<path d="M457.943 117.624C457.943 119.247 466.642 118.894 466.642 117.624C466.642 116.353 457.943 116 457.943 117.624Z" fill="white"/>
<path d="M224.18 117.624C224.18 119.247 232.878 118.894 232.878 117.624C232.878 116.353 224.18 116 224.18 117.624Z" fill="white"/>
<path d="M213.307 43.4137C210.587 41.9763 196.998 43.7692 196.998 42.1356C197.542 40.691 208.824 41.7797 213.307 41.7798C216.569 41.78 216.025 57.3838 214.938 57.3838C213.307 57.3838 214.938 44.2756 213.307 43.4137Z" fill="white"/>
<path d="M316.94 172.079C368.041 161.733 353.468 159.528 413.743 157.04C557.579 151.104 470.245 205.842 423.492 209.109C376.74 212.376 234.723 217.571 181.916 215.603C55.9008 210.906 42.6606 169.306 161.798 151.923C203.282 145.87 229.415 172.08 316.94 172.079Z" fill="#F9F9FF"/>
</g>
<defs>
<clipPath id="clip0_2130_5074">
<rect width="598" height="220" fill="white"/>
</clipPath>
</defs>
</svg>
