<svg width="307" height="258" viewBox="0 0 307 258" fill="none" xmlns="http://www.w3.org/2000/svg">
<path d="M112.495 208.99C148.505 215.584 218.266 227.21 267.448 186.649C305.577 155.202 315.314 117.436 298.103 64.7003C280.891 11.9648 237.215 35.3976 210.979 19.7977C184.743 4.19771 101.961 -21.8023 81.0325 41.9705C60.1041 105.743 12.4902 86.6059 1.91192 143.473C-8.66633 200.339 76.485 202.396 112.495 208.99Z" fill="white"/>
<path d="M33.5495 25.1644L33.5425 25.1459C33.2548 24.4227 32.3957 24.2796 31.7682 24.1745C31.6151 24.149 31.4725 24.1256 31.3647 24.0991C30.5709 23.8544 29.8237 23.755 29.0327 23.6502C28.8299 23.6234 28.623 23.5961 28.4198 23.5672C27.9287 23.4747 27.4571 23.3455 26.9582 23.2091C26.2754 23.022 25.57 22.8286 24.8009 22.7382C23.813 22.667 23.1703 22.4614 22.2766 22.0883C22.1615 22.0303 22.0168 21.9693 21.8464 21.9061C21.8474 21.8171 21.8314 21.7274 21.7789 21.653C21.7149 21.5179 21.6544 21.3337 21.6418 21.3022C21.2773 20.5452 20.9472 19.7099 20.583 18.6293C20.4998 18.1598 20.3854 17.5424 20.2383 16.9224C20.1162 16.4327 19.9701 15.9563 19.8285 15.4951C19.5294 14.5223 19.2476 13.6033 19.1968 12.605C19.122 11.849 18.8173 10.7356 18.3342 10.0892C18.2215 9.91987 18.0751 9.76175 17.9213 9.64378L17.9279 9.62388C17.9084 9.6155 17.89 9.60852 17.8597 9.5977C17.7686 9.53452 17.6876 9.49229 17.6076 9.46506L17.1547 9.45215L17.1502 9.49229C16.4489 9.5785 16.051 10.2525 15.6962 10.8727C15.4106 11.1289 15.2169 11.5286 15.0569 11.8926C14.8972 12.1572 14.7463 12.4277 14.5932 12.7007C14.4353 12.9837 14.2746 13.2707 14.109 13.5447C13.9007 13.842 13.7247 14.1248 13.581 14.3897C13.4544 14.5824 13.3254 14.7708 13.197 14.9583C12.7173 15.6578 12.2217 16.3814 11.9041 17.2861C11.6491 18.1363 11.3524 19.0044 11.0772 19.7025C11.0063 19.9849 10.9402 20.2519 10.7228 20.5486C10.6891 20.617 10.6021 20.7458 10.5252 20.8529C10.3489 20.8383 10.1743 20.8261 10.0125 20.8194C9.78711 20.795 9.56171 20.7618 9.33667 20.729C9.10918 20.6959 8.88204 20.6631 8.64203 20.6365C8.02775 20.5981 7.47223 20.6177 6.93412 20.6365C6.40158 20.655 5.89789 20.6732 5.33547 20.6362C5.01825 20.6362 4.68259 20.5831 4.32783 20.5266C3.96921 20.4697 3.61058 20.3995 3.26622 20.4121L3.15456 20.4006C2.34619 20.3172 0.661264 20.1413 0.233396 21.3458C0.214613 21.4159 0.206613 21.4798 0.202439 21.5388C0.0980851 21.6805 0.0302579 21.8571 0 22.0872C0 22.4344 0.214263 22.7521 0.370451 22.9842L0.544367 23.2816C0.800027 23.7406 1.09047 24.2603 1.48942 24.6603C2.31623 25.542 3.25467 26.1605 4.24807 26.8157C4.70582 27.1179 5.17923 27.4296 5.64432 27.7735C5.80328 27.8831 5.9685 27.9902 6.13407 28.0974C7.2419 28.816 8.19915 29.4363 7.7004 30.7542C7.46665 31.3717 7.26699 32.0261 7.07324 32.6586C6.8315 33.4502 6.58106 34.2684 6.26487 35.0135C5.53267 36.7392 4.70344 38.6952 4.89053 40.7385C4.93853 41.2603 5.13402 41.6017 5.47142 41.7514C6.29683 42.1193 7.66596 41.0844 8.3233 40.5871L8.42939 40.5036C8.7087 40.2234 9.14142 39.8481 9.28368 39.7511L9.37551 39.7012C9.52926 39.5856 9.70213 39.4506 9.87466 39.3158C10.0388 39.1877 10.2023 39.06 10.3749 38.927C10.811 38.4897 11.77 37.6746 11.769 37.6746C12.0608 37.4554 12.3798 37.2484 12.6879 37.0481C13.0051 36.8425 13.3328 36.6299 13.6389 36.3992C13.7944 36.2823 13.9332 36.1824 14.0713 36.083L14.1471 36.0278C14.4348 36.2889 14.7217 36.5507 15.0052 36.8163C15.3357 37.2907 15.8919 37.6935 16.2046 37.9175L16.445 38.1406C16.6244 38.3081 16.805 38.4763 17.005 38.6509C17.2763 38.855 17.6756 39.1207 18.0571 39.2439C18.2565 39.3685 18.4585 39.491 18.6655 39.617L19.1994 39.9437C19.4269 40.0742 19.8631 40.3797 20.3251 40.7022C20.9105 41.1116 21.5164 41.5353 21.9049 41.7514C22.0288 41.8135 22.179 41.9095 22.3467 42.016C22.8552 42.3392 23.5001 42.7496 24.1176 42.7496C24.3426 42.7496 24.5638 42.6952 24.7729 42.5615C25.4626 42.1001 25.4341 41.1677 25.4136 40.4875C25.4105 40.3779 25.407 40.2732 25.4066 40.1908C25.4999 38.5209 25.4512 37.1915 25.2505 35.988C25.1746 35.6833 25.0793 35.3779 24.9847 35.0732C24.8953 34.787 24.8066 34.5007 24.7339 34.2145C24.7249 33.8348 24.5764 32.3705 24.2358 31.6955C24.0285 31.4184 23.8897 31.1416 23.744 30.8494C24.7548 30.6997 25.6727 30.3622 26.5628 30.0355C26.8926 29.9143 27.2216 29.7932 27.5677 29.6773C28.9226 29.1485 30.1038 28.5558 31.4951 27.8574L31.7386 27.7147C32.5637 27.2347 33.9449 26.4358 33.5491 25.1642L33.5495 25.1644Z" fill="white"/>
<path d="M92.6797 244.045L92.6852 244.03C92.9135 243.456 93.5952 243.343 94.0932 243.26C94.2147 243.239 94.3278 243.221 94.4134 243.2C95.0433 243.006 95.6362 242.927 96.2639 242.844C96.4248 242.822 96.5891 242.801 96.7503 242.778C97.14 242.704 97.5143 242.602 97.9101 242.493C98.4519 242.345 99.0117 242.192 99.622 242.12C100.406 242.063 100.916 241.9 101.625 241.604C101.717 241.558 101.831 241.51 101.967 241.459C101.966 241.389 101.978 241.318 102.02 241.259C102.071 241.151 102.119 241.005 102.129 240.98C102.418 240.379 102.68 239.717 102.969 238.859C103.035 238.487 103.126 237.997 103.243 237.505C103.34 237.116 103.456 236.738 103.568 236.372C103.805 235.6 104.029 234.871 104.069 234.079C104.128 233.479 104.37 232.595 104.754 232.082C104.843 231.948 104.959 231.822 105.081 231.729L105.076 231.713C105.092 231.706 105.106 231.701 105.13 231.692C105.203 231.642 105.267 231.609 105.33 231.587L105.69 231.577L105.693 231.609C106.25 231.677 106.566 232.212 106.847 232.704C107.074 232.907 107.227 233.224 107.354 233.513C107.481 233.723 107.601 233.938 107.722 234.155C107.848 234.379 107.975 234.607 108.107 234.824C108.272 235.06 108.412 235.285 108.526 235.495C108.626 235.648 108.728 235.797 108.83 235.946C109.211 236.501 109.604 237.075 109.856 237.793C110.059 238.468 110.294 239.157 110.512 239.711C110.569 239.935 110.621 240.147 110.794 240.382C110.82 240.436 110.889 240.539 110.95 240.624C111.09 240.612 111.229 240.602 111.357 240.597C111.536 240.578 111.715 240.551 111.894 240.525C112.074 240.499 112.254 240.473 112.445 240.452C112.932 240.422 113.373 240.437 113.8 240.452C114.223 240.467 114.622 240.481 115.069 240.452C115.321 240.452 115.587 240.41 115.868 240.365C116.153 240.32 116.438 240.264 116.711 240.274L116.799 240.265C117.441 240.199 118.778 240.059 119.118 241.015C119.132 241.07 119.139 241.121 119.142 241.168C119.225 241.28 119.279 241.421 119.303 241.603C119.303 241.879 119.133 242.131 119.009 242.315L118.871 242.551C118.668 242.915 118.437 243.328 118.121 243.645C117.465 244.345 116.72 244.836 115.932 245.355C115.568 245.595 115.193 245.843 114.824 246.115C114.698 246.202 114.566 246.287 114.435 246.373C113.556 246.943 112.796 247.435 113.192 248.481C113.378 248.971 113.536 249.49 113.69 249.992C113.882 250.62 114.08 251.27 114.331 251.861C114.912 253.23 115.57 254.782 115.422 256.404C115.384 256.818 115.229 257.089 114.961 257.208C114.306 257.5 113.219 256.678 112.698 256.284L112.614 256.217C112.392 255.995 112.049 255.697 111.936 255.62L111.863 255.581C111.741 255.489 111.604 255.382 111.467 255.275C111.336 255.173 111.207 255.072 111.07 254.966C110.724 254.619 109.963 253.973 109.964 253.973C109.732 253.799 109.479 253.634 109.234 253.475C108.983 253.312 108.723 253.143 108.48 252.96C108.356 252.868 108.246 252.788 108.137 252.709L108.076 252.666C107.848 252.873 107.62 253.081 107.395 253.291C107.133 253.668 106.692 253.987 106.444 254.165L106.253 254.342C106.11 254.475 105.967 254.609 105.808 254.747C105.593 254.909 105.276 255.12 104.974 255.218C104.815 255.317 104.655 255.414 104.491 255.514L104.067 255.773C103.887 255.877 103.54 256.119 103.174 256.375C102.709 256.7 102.228 257.036 101.92 257.208C101.822 257.257 101.703 257.333 101.57 257.418C101.166 257.674 100.654 258 100.164 258C99.9857 258 99.8102 257.957 99.6443 257.85C99.0969 257.484 99.1196 256.744 99.1359 256.205C99.1383 256.118 99.1411 256.035 99.1414 255.969C99.0674 254.644 99.106 253.589 99.2653 252.634C99.3255 252.392 99.4011 252.15 99.4762 251.908C99.5471 251.681 99.6175 251.454 99.6752 251.227C99.6824 250.925 99.8002 249.763 100.07 249.228C100.235 249.008 100.345 248.788 100.461 248.556C99.6586 248.438 98.9302 248.17 98.2239 247.91C97.9622 247.814 97.7011 247.718 97.4265 247.626C96.3513 247.207 95.414 246.736 94.3099 246.182L94.1167 246.069C93.4619 245.688 92.3659 245.054 92.68 244.045L92.6797 244.045Z" fill="white"/>
</svg>
