<svg width="67" height="258" viewBox="0 0 67 258" fill="none" xmlns="http://www.w3.org/2000/svg">
<path d="M112.495 208.99C148.505 215.584 218.266 227.21 267.448 186.649C305.577 155.202 315.314 117.436 298.103 64.7003C280.891 11.9648 237.215 35.3976 210.979 19.7977C184.743 4.19771 101.961 -21.8023 81.0325 41.9705C60.1041 105.743 12.4902 86.6059 1.91192 143.473C-8.66633 200.339 76.485 202.396 112.495 208.99Z" fill="white"/>
<path d="M33.5495 25.1644L33.5425 25.1459C33.2548 24.4227 32.3957 24.2796 31.7682 24.1745C31.6151 24.149 31.4725 24.1256 31.3647 24.0991C30.5709 23.8544 29.8237 23.755 29.0327 23.6502C28.8299 23.6234 28.623 23.5961 28.4198 23.5672C27.9287 23.4747 27.4571 23.3455 26.9582 23.2091C26.2754 23.022 25.57 22.8286 24.8009 22.7382C23.813 22.667 23.1703 22.4614 22.2766 22.0883C22.1615 22.0303 22.0168 21.9693 21.8464 21.9061C21.8474 21.8171 21.8314 21.7274 21.7789 21.653C21.7149 21.5179 21.6544 21.3337 21.6418 21.3022C21.2773 20.5452 20.9472 19.7099 20.583 18.6293C20.4998 18.1598 20.3854 17.5424 20.2383 16.9224C20.1162 16.4327 19.9701 15.9563 19.8285 15.4951C19.5294 14.5223 19.2476 13.6033 19.1968 12.605C19.122 11.849 18.8173 10.7356 18.3342 10.0892C18.2215 9.91987 18.0751 9.76175 17.9213 9.64378L17.9279 9.62388C17.9084 9.6155 17.89 9.60852 17.8597 9.5977C17.7686 9.53452 17.6876 9.49229 17.6076 9.46506L17.1547 9.45215L17.1502 9.49229C16.4489 9.5785 16.051 10.2525 15.6962 10.8727C15.4106 11.1289 15.2169 11.5286 15.0569 11.8926C14.8972 12.1572 14.7463 12.4277 14.5932 12.7007C14.4353 12.9837 14.2746 13.2707 14.109 13.5447C13.9007 13.842 13.7247 14.1248 13.581 14.3897C13.4544 14.5824 13.3254 14.7708 13.197 14.9583C12.7173 15.6578 12.2217 16.3814 11.9041 17.2861C11.6491 18.1363 11.3524 19.0044 11.0772 19.7025C11.0063 19.9849 10.9402 20.2519 10.7228 20.5486C10.6891 20.617 10.6021 20.7458 10.5252 20.8529C10.3489 20.8383 10.1743 20.8261 10.0125 20.8194C9.78711 20.795 9.56171 20.7618 9.33667 20.729C9.10918 20.6959 8.88204 20.6631 8.64203 20.6365C8.02775 20.5981 7.47223 20.6177 6.93412 20.6365C6.40158 20.655 5.89789 20.6732 5.33547 20.6362C5.01825 20.6362 4.68259 20.5831 4.32783 20.5266C3.96921 20.4697 3.61058 20.3995 3.26622 20.4121L3.15456 20.4006C2.34619 20.3172 0.661264 20.1413 0.233396 21.3458C0.214613 21.4159 0.206613 21.4798 0.202439 21.5388C0.0980851 21.6805 0.0302579 21.8571 0 22.0872C0 22.4344 0.214263 22.7521 0.370451 22.9842L0.544367 23.2816C0.800027 23.7406 1.09047 24.2603 1.48942 24.6603C2.31623 25.542 3.25467 26.1605 4.24807 26.8157C4.70582 27.1179 5.17923 27.4296 5.64432 27.7735C5.80328 27.8831 5.9685 27.9902 6.13407 28.0974C7.2419 28.816 8.19915 29.4363 7.7004 30.7542C7.46665 31.3717 7.26699 32.0261 7.07324 32.6586C6.8315 33.4502 6.58106 34.2684 6.26487 35.0135C5.53267 36.7392 4.70344 38.6952 4.89053 40.7385C4.93853 41.2603 5.13402 41.6017 5.47142 41.7514C6.29683 42.1193 7.66596 41.0844 8.3233 40.5871L8.42939 40.5036C8.7087 40.2234 9.14142 39.8481 9.28368 39.7511L9.37551 39.7012C9.52926 39.5856 9.70213 39.4506 9.87466 39.3158C10.0388 39.1877 10.2023 39.06 10.3749 38.927C10.811 38.4897 11.77 37.6746 11.769 37.6746C12.0608 37.4554 12.3798 37.2484 12.6879 37.0481C13.0051 36.8425 13.3328 36.6299 13.6389 36.3992C13.7944 36.2823 13.9332 36.1824 14.0713 36.083L14.1471 36.0278C14.4348 36.2889 14.7217 36.5507 15.0052 36.8163C15.3357 37.2907 15.8919 37.6935 16.2046 37.9175L16.445 38.1406C16.6244 38.3081 16.805 38.4763 17.005 38.6509C17.2763 38.855 17.6756 39.1207 18.0571 39.2439C18.2565 39.3685 18.4585 39.491 18.6655 39.617L19.1994 39.9437C19.4269 40.0742 19.8631 40.3797 20.3251 40.7022C20.9105 41.1116 21.5164 41.5353 21.9049 41.7514C22.0288 41.8135 22.179 41.9095 22.3467 42.016C22.8552 42.3392 23.5001 42.7496 24.1176 42.7496C24.3426 42.7496 24.5638 42.6952 24.7729 42.5615C25.4626 42.1001 25.4341 41.1677 25.4136 40.4875C25.4105 40.3779 25.407 40.2732 25.4066 40.1908C25.4999 38.5209 25.4512 37.1915 25.2505 35.988C25.1746 35.6833 25.0793 35.3779 24.9847 35.0732C24.8953 34.787 24.8066 34.5007 24.7339 34.2145C24.7249 33.8348 24.5764 32.3705 24.2358 31.6955C24.0285 31.4184 23.8897 31.1416 23.744 30.8494C24.7548 30.6997 25.6727 30.3622 26.5628 30.0355C26.8926 29.9143 27.2216 29.7932 27.5677 29.6773C28.9226 29.1485 30.1038 28.5558 31.4951 27.8574L31.7386 27.7147C32.5637 27.2347 33.9449 26.4358 33.5491 25.1642L33.5495 25.1644Z" fill="white"/>
</svg>
