<svg width="78" height="259" viewBox="0 0 78 259" fill="none" xmlns="http://www.w3.org/2000/svg">
<path d="M-17.6033 190.697C-48.5493 196.974 -149.58 208.081 -192.13 171.142C-225.118 142.504 -233.714 107.887 -219.208 59.3604C-204.702 10.8333 -125.914 32.079 -103.43 17.5934C-80.9461 3.10768 -9.86681 -21.2766 8.50739 37.149C26.8816 95.5745 67.7399 77.7089 77.1688 129.857C86.5976 182.006 13.3427 184.42 -17.6033 190.697Z" fill="white"/>
<path d="M70.1051 39.8746L70.1009 39.8634C69.9255 39.4238 69.4017 39.3368 69.0191 39.2729C68.9258 39.2574 68.8388 39.2432 68.7731 39.2271C68.2891 39.0784 67.8336 39.0179 67.3513 38.9543C67.2277 38.9379 67.1015 38.9214 66.9777 38.9038C66.6782 38.8475 66.3907 38.769 66.0865 38.6861C65.6702 38.5723 65.2402 38.4548 64.7712 38.3998C64.1689 38.3566 63.7771 38.2316 63.2322 38.0048C63.162 37.9696 63.0738 37.9324 62.9699 37.894C62.9705 37.8399 62.9608 37.7854 62.9287 37.7402C62.8897 37.6581 62.8528 37.5461 62.8452 37.527C62.6229 37.0668 62.4217 36.5591 62.1996 35.9022C62.1489 35.6168 62.0792 35.2415 61.9894 34.8646C61.915 34.567 61.8259 34.2774 61.7396 33.9971C61.5572 33.4057 61.3855 32.8471 61.3545 32.2403C61.3089 31.7807 61.1231 31.1039 60.8286 30.7109C60.7598 30.608 60.6706 30.5119 60.5768 30.4402L60.5809 30.4281C60.569 30.423 60.5577 30.4188 60.5393 30.4122C60.4837 30.3738 60.4343 30.3481 60.3855 30.3316L60.1094 30.3237L60.1067 30.3481C59.6791 30.4005 59.4365 30.8102 59.2202 31.1873C59.0461 31.343 58.928 31.5859 58.8304 31.8072C58.7331 31.968 58.641 32.1325 58.5477 32.2984C58.4514 32.4705 58.3535 32.6449 58.2525 32.8114C58.1255 32.9922 58.0182 33.1641 57.9306 33.3251C57.8534 33.4422 57.7747 33.5568 57.6965 33.6707C57.404 34.0959 57.1018 34.5357 56.9082 35.0857C56.7527 35.6025 56.5718 36.1302 56.4041 36.5546C56.3608 36.7262 56.3205 36.8885 56.188 37.0689C56.1674 37.1104 56.1144 37.1887 56.0675 37.2539C55.96 37.245 55.8535 37.2375 55.7549 37.2335C55.6175 37.2187 55.4801 37.1985 55.3429 37.1786C55.2042 37.1584 55.0657 37.1385 54.9193 37.1223C54.5448 37.099 54.2061 37.1109 53.8781 37.1223C53.5534 37.1336 53.2463 37.1446 52.9034 37.1221C52.71 37.1221 52.5053 37.0899 52.289 37.0555C52.0704 37.0209 51.8517 36.9783 51.6418 36.9859L51.5737 36.9789C51.0808 36.9282 50.0536 36.8213 49.7927 37.5534C49.7812 37.5961 49.7764 37.6349 49.7738 37.6708C49.7102 37.7569 49.6688 37.8643 49.6504 38.0041C49.6504 38.2152 49.781 38.4083 49.8763 38.5494L49.9823 38.7301C50.1382 39.0092 50.3152 39.3251 50.5585 39.5682C51.0626 40.1042 51.6347 40.4801 52.2404 40.8784C52.5195 41.0621 52.8081 41.2516 53.0917 41.4606C53.1886 41.5272 53.2893 41.5924 53.3903 41.6575C54.0657 42.0944 54.6493 42.4714 54.3452 43.2725C54.2027 43.6479 54.081 44.0457 53.9629 44.4301C53.8155 44.9113 53.6628 45.4087 53.47 45.8616C53.0236 46.9105 52.518 48.0996 52.6321 49.3416C52.6614 49.6588 52.7805 49.8663 52.9863 49.9573C53.4895 50.181 54.3242 49.5519 54.725 49.2495L54.7897 49.1988C54.96 49.0285 55.2238 48.8004 55.3106 48.7414L55.3665 48.711C55.4603 48.6408 55.5657 48.5587 55.6709 48.4768C55.771 48.3989 55.8706 48.3213 55.9758 48.2404C56.2418 47.9746 56.8265 47.4792 56.8258 47.4792C57.0037 47.3459 57.1982 47.2201 57.3861 47.0983C57.5795 46.9733 57.7793 46.8441 57.9659 46.7039C58.0607 46.6328 58.1453 46.5721 58.2295 46.5117L58.2757 46.4781C58.4511 46.6368 58.6261 46.796 58.7989 46.9574C59.0004 47.2458 59.3395 47.4906 59.5302 47.6268L59.6767 47.7624C59.7861 47.8642 59.8962 47.9665 60.0181 48.0726C60.1836 48.1967 60.427 48.3582 60.6596 48.4331C60.7812 48.5088 60.9044 48.5833 61.0306 48.6599L61.3561 48.8585C61.4948 48.9378 61.7607 49.1235 62.0424 49.3195C62.3993 49.5684 62.7687 49.826 63.0056 49.9573C63.0811 49.9951 63.1727 50.0534 63.2749 50.1181C63.585 50.3146 63.9782 50.5641 64.3546 50.5641C64.4918 50.5641 64.6267 50.531 64.7542 50.4497C65.1747 50.1692 65.1573 49.6025 65.1448 49.189C65.1429 49.1224 65.1408 49.0587 65.1405 49.0087C65.1974 47.9936 65.1677 47.1855 65.0453 46.4539C64.9991 46.2687 64.941 46.083 64.8833 45.8978C64.8288 45.7239 64.7747 45.5499 64.7304 45.3759C64.7249 45.1451 64.6343 44.255 64.4267 43.8447C64.3003 43.6762 64.2157 43.508 64.1268 43.3304C64.7431 43.2394 65.3028 43.0342 65.8455 42.8356C66.0465 42.762 66.2471 42.6883 66.4581 42.6179C67.2842 42.2965 68.0043 41.9362 68.8526 41.5117L69.0011 41.4249C69.5041 41.1331 70.3462 40.6475 70.1049 39.8745L70.1051 39.8746Z" fill="white"/>
</svg>
