<svg aria-hidden="true" style="position: absolute; width: 0; height: 0; overflow: hidden;" version="1.1" xmlns="http://www.w3.org/2000/svg" xmlns:xlink="http://www.w3.org/1999/xlink">
<defs>
<symbol id="basket" viewBox="0 0 32 32">
<path fill="none" stroke="#3a357a" style="stroke: var(--color1, #3a357a)" stroke-linejoin="round" stroke-linecap="butt" stroke-miterlimit="4" stroke-width="2.1333" d="M3.748 15.043c-0.047-0.186-0.050-0.381-0.010-0.569s0.122-0.364 0.24-0.516c0.118-0.151 0.269-0.274 0.442-0.358s0.362-0.128 0.554-0.128h22.048c0.192 0 0.382 0.044 0.554 0.128s0.324 0.207 0.442 0.358c0.118 0.151 0.2 0.328 0.24 0.515s0.036 0.382-0.010 0.569l-2.289 9.157c-0.137 0.547-0.452 1.033-0.897 1.38s-0.992 0.536-1.556 0.536h-15.016c-0.564 0-1.111-0.189-1.556-0.536s-0.76-0.833-0.897-1.38l-2.289-9.155z"></path>
<path fill="none" stroke="#3a357a" style="stroke: var(--color1, #3a357a)" stroke-linejoin="miter" stroke-linecap="round" stroke-miterlimit="4" stroke-width="2.1333" d="M12.207 18.528v2.528M19.792 18.528v2.528M8.415 13.472l5.057-7.585M23.585 13.472l-5.057-7.585"></path>
</symbol>
<symbol id="facebook" viewBox="0 0 32 32">
<path fill="#f3f3ff" style="fill: var(--color2, #f3f3ff)" d="M16 0c-8.836 0-16 7.164-16 16 0 7.503 5.166 13.8 12.135 15.529v-10.639h-3.299v-4.89h3.299v-2.107c0-5.446 2.465-7.97 7.811-7.97 1.014 0 2.763 0.199 3.478 0.397v4.432c-0.378-0.040-1.034-0.059-1.848-0.059-2.623 0-3.637 0.994-3.637 3.578v1.729h5.226l-0.898 4.89h-4.328v10.993c7.923-0.957 14.061-7.702 14.061-15.883-0.001-8.836-7.164-16-16.001-16z"></path>
</symbol>
<symbol id="gift" viewBox="0 0 32 32">
<path fill="#46409c" style="fill: var(--color3, #46409c)" d="M8.001 8c0-0.927 0.268-1.833 0.772-2.611s1.222-1.393 2.068-1.771c0.846-0.378 1.783-0.504 2.699-0.361s1.77 0.547 2.461 1.165c0.794-0.712 1.803-1.139 2.867-1.214s2.122 0.207 3.008 0.8 1.549 1.465 1.885 2.478c0.335 1.012 0.324 2.108-0.032 3.113h1.872c0.849 0 1.663 0.337 2.263 0.937s0.937 1.414 0.937 2.263c0 0.849-0.337 1.663-0.937 2.263s-1.414 0.937-2.263 0.937h-8v-1.6c0-0.424-0.169-0.831-0.469-1.131s-0.707-0.469-1.131-0.469-0.831 0.169-1.131 0.469c-0.3 0.3-0.469 0.707-0.469 1.131v1.6h-8c-0.849 0-1.663-0.337-2.263-0.937s-0.937-1.414-0.937-2.263c0-0.849 0.337-1.663 0.937-2.263s1.414-0.937 2.263-0.937h1.872c-0.176-0.501-0.272-1.040-0.272-1.6zM14.401 9.6v-1.6c0-0.316-0.094-0.626-0.27-0.889s-0.426-0.468-0.718-0.589c-0.292-0.121-0.614-0.153-0.924-0.091s-0.596 0.214-0.819 0.438-0.376 0.509-0.438 0.819c-0.062 0.31-0.030 0.632 0.091 0.924s0.326 0.542 0.589 0.718c0.263 0.176 0.572 0.27 0.889 0.27h1.6zM19.201 9.6c0.316 0 0.626-0.094 0.889-0.27s0.468-0.426 0.589-0.718c0.121-0.292 0.153-0.614 0.091-0.924s-0.214-0.595-0.438-0.819c-0.224-0.224-0.509-0.376-0.819-0.438s-0.632-0.030-0.924 0.091c-0.292 0.121-0.542 0.326-0.718 0.589s-0.27 0.572-0.27 0.889v1.6h1.6z"></path>
<path fill="#46409c" style="fill: var(--color3, #46409c)" d="M14.401 17.6h-9.6v8c0 0.849 0.337 1.663 0.937 2.263s1.414 0.937 2.263 0.937h6.4v-11.2zM17.601 28.8h6.4c0.849 0 1.663-0.337 2.263-0.937s0.937-1.414 0.937-2.263v-8h-9.6v11.2z"></path>
</symbol>
<symbol id="instagram" viewBox="0 0 32 32">
<path fill="#f3f3ff" style="fill: var(--color2, #f3f3ff)" d="M16 2.881c4.275 0 4.781 0.019 6.462 0.094 1.563 0.069 2.406 0.331 2.969 0.55 0.744 0.288 1.281 0.638 1.837 1.194 0.563 0.563 0.906 1.094 1.194 1.838 0.219 0.563 0.481 1.412 0.55 2.969 0.075 1.688 0.094 2.194 0.094 6.463 0 4.275-0.019 4.781-0.094 6.463-0.069 1.563-0.331 2.406-0.55 2.969-0.287 0.744-0.637 1.281-1.194 1.837-0.563 0.563-1.094 0.906-1.837 1.194-0.563 0.219-1.413 0.481-2.969 0.55-1.687 0.075-2.194 0.094-6.463 0.094-4.275 0-4.781-0.019-6.463-0.094-1.563-0.069-2.406-0.331-2.969-0.55-0.744-0.287-1.281-0.637-1.838-1.194-0.563-0.563-0.906-1.094-1.194-1.837-0.219-0.563-0.481-1.413-0.55-2.969-0.075-1.688-0.094-2.194-0.094-6.463 0-4.275 0.019-4.781 0.094-6.463 0.069-1.562 0.331-2.406 0.55-2.969 0.288-0.744 0.638-1.281 1.194-1.837 0.563-0.563 1.094-0.906 1.838-1.194 0.563-0.219 1.412-0.481 2.969-0.55 1.681-0.075 2.187-0.094 6.463-0.094zM16 0c-4.344 0-4.887 0.019-6.594 0.094-1.7 0.075-2.869 0.35-3.881 0.744-1.056 0.412-1.95 0.956-2.837 1.85-0.894 0.888-1.438 1.781-1.85 2.831-0.394 1.019-0.669 2.181-0.744 3.881-0.075 1.713-0.094 2.256-0.094 6.6s0.019 4.887 0.094 6.594c0.075 1.7 0.35 2.869 0.744 3.881 0.413 1.056 0.956 1.95 1.85 2.837 0.887 0.887 1.781 1.437 2.831 1.844 1.019 0.394 2.181 0.669 3.881 0.744 1.706 0.075 2.25 0.094 6.594 0.094s4.887-0.019 6.594-0.094c1.7-0.075 2.869-0.35 3.881-0.744 1.050-0.406 1.944-0.956 2.831-1.844s1.438-1.781 1.844-2.831c0.394-1.019 0.669-2.181 0.744-3.881 0.075-1.706 0.094-2.25 0.094-6.594s-0.019-4.887-0.094-6.594c-0.075-1.7-0.35-2.869-0.744-3.881-0.394-1.063-0.938-1.956-1.831-2.844-0.888-0.887-1.781-1.438-2.831-1.844-1.019-0.394-2.181-0.669-3.881-0.744-1.713-0.081-2.256-0.1-6.6-0.1z"></path>
<path fill="#f3f3ff" style="fill: var(--color2, #f3f3ff)" d="M16 7.781c-4.537 0-8.219 3.681-8.219 8.219s3.681 8.219 8.219 8.219c4.538 0 8.219-3.681 8.219-8.219s-3.681-8.219-8.219-8.219zM16 21.331c-2.944 0-5.331-2.388-5.331-5.331s2.388-5.331 5.331-5.331c2.944 0 5.331 2.388 5.331 5.331s-2.388 5.331-5.331 5.331z"></path>
<path fill="#f3f3ff" style="fill: var(--color2, #f3f3ff)" d="M26.462 7.456c0 1.063-0.863 1.919-1.919 1.919-1.063 0-1.919-0.862-1.919-1.919 0-1.063 0.863-1.919 1.919-1.919s1.919 0.862 1.919 1.919z"></path>
</symbol>
<symbol id="location" viewBox="0 0 33 32">
<path fill="#fff" style="fill: var(--color4, #fff)" d="M16.571 2.667c-5.881 0-10.667 4.785-10.667 10.66-0.039 8.593 10.261 15.719 10.667 16.007 0 0 10.705-7.413 10.667-16 0-5.881-4.785-10.667-10.667-10.667zM16.571 18.667c-2.947 0-5.333-2.387-5.333-5.333s2.387-5.333 5.333-5.333c2.947 0 5.333 2.387 5.333 5.333s-2.387 5.333-5.333 5.333z"></path>
</symbol>
<symbol id="svit-logo-1" viewBox="0 0 103 32">
<path fill="#57597c" style="fill: var(--color5, #57597c)" d="M11.2 26.307c1.715 1.715 3.993 2.75 6.412 2.915-2.423-0.162-4.704-1.197-6.421-2.915l-8.253-8.251c-3.917-3.912-3.917-10.327 0-14.245 1.893-1.882 4.454-2.939 7.124-2.939s5.231 1.057 7.124 2.939l1.134 1.134-7.119 7.117c-3.918 3.917-3.918 10.323 0 14.245z"></path>
<path fill="#4b4e6d" style="fill: var(--color6, #4b4e6d)" d="M25.436 26.307c-1.552 1.552-3.57 2.552-5.745 2.846l-0.2 0.024c-0.223 0.027-0.452 0.045-0.679 0.056-0.322 0.014-0.646 0.014-0.968 0-0.074 0-0.149-0.004-0.223-0.013-0.147-0.010-0.293-0.023-0.439-0.040-2.259-0.253-4.366-1.267-5.973-2.874-3.918-3.918-3.918-10.328 0-14.245l7.11-7.116 7.117 7.117c3.917 3.917 3.917 10.323 0 14.245z"></path>
<path fill="#3d3f5b" style="fill: var(--color7, #3d3f5b)" d="M36.635 10.934c0.004 1.322-0.254 2.632-0.758 3.854s-1.245 2.333-2.18 3.268l-8.251 8.251c-1.555 1.554-3.577 2.555-5.756 2.846 2.175-0.294 4.193-1.294 5.745-2.846 3.917-3.918 3.917-10.328 0-14.245l-7.117-7.117 1.134-1.134c3.916-3.922 10.327-3.922 14.245 0 0.935 0.935 1.676 2.046 2.18 3.268s0.762 2.532 0.758 3.855z"></path>
<path fill="#70728f" style="fill: var(--color8, #70728f)" d="M62.622 16.077h-1.998l-1.706 4.214c-0.271-0.334-1.603-3.637-1.74-4.214h-2.005c0.164 0.69 1.769 4.174 2.272 5.411 0.474 1.169 0.635 0.8-0.045 1.826-0.835 0-0.898 0.146-1.55-0.344-0.266 0.302-0.643 1.059-0.677 1.458 2.406 1.218 3.781 0.236 4.692-2.1 0.283-0.739 2.757-6.251 2.757-6.251z"></path>
<path fill="#70728f" style="fill: var(--color8, #70728f)" d="M62.791 17.636h1.997v4.9h1.893v-4.9h1.998v-1.559l-5.888-0.009v1.568z"></path>
<path fill="#70728f" style="fill: var(--color8, #70728f)" d="M53.274 20.085c-0.69 2.011-3.555 1.042-2.966-1.072 0.499-1.794 3.734-1.167 2.966 1.072zM50.044 17.301c0.1-1.131 0.832-1.568 1.825-1.85 0.567-0.16 2.516-0.588 3.074-0.6l-0.239-1.671c-0.596 0.014-2.941 0.518-3.615 0.708-1.12 0.316-1.913 1.002-2.42 2.034-0.574 1.167-0.587 2.499-0.383 3.801 0.541 3.462 5.117 3.873 6.659 1.361 1.179-1.921-0.159-5.155-3.414-4.527-0.576 0.116-1.007 0.431-1.486 0.745l-0.001-0.001z"></path>
<path fill="#70728f" style="fill: var(--color8, #70728f)" d="M30.445 22.535h1.703v-6.459l-1.782 0.009-2.107 3.619-2.086-3.59-1.96-0.040v6.419h1.631l0.052-3.765 1.873 3.134 0.83 0.024 1.88-3.074-0.033 3.723z"></path>
<path fill="#70728f" style="fill: var(--color8, #70728f)" d="M40.356 21.978l0.041 0.488 1.74 0.077c0.018-0.028 0.044-0.085 0.052-0.068l3.066-3.725v3.787h1.893v-6.459h-1.782l-2.998 3.682-0.009-3.682h-2.005v5.902l0.001-0.001z"></path>
<path fill="#70728f" style="fill: var(--color8, #70728f)" d="M27.661 1.060c-4.844 0.959-4.535 8.158 0.679 8.517 1.793 0.124 2.663-0.345 3.831-1.48l-1.189-1.114c-0.736 0.603-1.529 1.319-3.059 0.815-1.114-0.365-1.729-1.342-1.735-2.524-0.017-2.929 3.614-3.41 4.768-1.725 0.366-0.302 1.286-1.158 1.286-1.158-0.597-0.547-0.824-0.87-1.808-1.225-0.747-0.272-1.989-0.35-2.773-0.111v0.004z"></path>
<path fill="#70728f" style="fill: var(--color8, #70728f)" d="M36.346 8.169h-1.448l0.038-1.425 0.986 0.032c0.617 0.035 1.207-0.032 1.461 0.359 0.235 0.363-0.059 1.020-1.034 1.033l-0.003 0.001zM34.898 4.939v-0.668c2.264 0 2.404 0.197 2.404 0.805 0 0.585-1.114 0.531-2.069 0.531-0.111-0.009-0.223-0.009-0.334 0v-0.668zM33.189 3.604l-0.010 5.84 3.501 0.041c1.625 0.095 3.102-1.056 2.457-2.547-0.185-0.429-0.334-0.516-0.639-0.699-0.027-0.016-0.214-0.141-0.229-0.155 1.143-1.158 0.613-2.632-0.401-2.882-0.713-0.29-3.885-0.182-4.664-0.182l-0.013 0.584z"></path>
<path fill="#70728f" style="fill: var(--color8, #70728f)" d="M37.219 19.882c0.146 1.876-1.769 1.487-2.074 1.182-0.438-0.438-0.29-0.937 0.267-1.134 0.456-0.162 1.309-0.087 1.806-0.048zM33.895 18.081c0 0 3.297-1.618 3.341 0.557-0.849 0-2.242 0.021-2.963 0.267-2.737 0.933-0.584 5.465 3.074 3.073l0.079 0.564 1.814-0.007c0-2.835 0.52-5.242-1.448-6.236-0.792-0.401-1.426-0.369-2.339-0.314-0.99 0.223-1.208 0.323-2.116 0.713l0.557 1.387v-0.002z"></path>
<path fill="#70728f" style="fill: var(--color8, #70728f)" d="M88.464 19.417c-0.143 0.973-0.249 1.619-1.782 1.566-1.106-0.039-1.401-1.029-1.337-2.012 0.135-2.011 3.469-1.94 3.119 0.447zM86.125 16.076c-0.203 0.052-0.343 0-0.659 0.121-0.754 0.289-1.376 0.845-1.748 1.562s-0.467 1.546-0.269 2.328c0.493 1.893 2.351 2.842 4.245 2.457 4.789-0.973 2.879-7.614-1.57-6.468z"></path>
<path fill="#70728f" style="fill: var(--color8, #70728f)" d="M69.087 22.535h1.893v-2.45l2.714 0.042c0.141 0.858 0.077 1.487 0.070 2.408h1.893v-6.459h-1.893v2.45h-2.784v-2.45h-1.893v6.459z"></path>
<path fill="#70728f" style="fill: var(--color8, #70728f)" d="M101.383 19.862c-0.334 0.981-1.081 1.428-2.159 1.045-0.891-0.316-1.136-1.475-0.869-2.29 0.673-2.065 3.789-0.973 3.028 1.245zM99.044 16.076c-0.74 0.19-1.424 0.242-2.139 1.313-0.577 0.865-0.689 1.642-0.512 2.673 0.287 1.678 2.11 2.819 4.222 2.485 1.945-0.308 3.184-2.089 2.732-4.094-0.167-0.738-0.805-1.599-1.479-1.972-0.755-0.437-1.629-0.62-2.496-0.522-0.469 0.055-0.229 0.091-0.334 0.117l0.006 0.001z"></path>
<path fill="#70728f" style="fill: var(--color8, #70728f)" d="M78.887 21.199v-1.893c0.487 0 0.927 0.077 1.448 0.111 0.48 0.029 0.837 0.308 0.865 0.797 0.068 1.162-1.493 0.984-2.314 0.984zM76.994 22.535c2.904 0 6.125 0.592 6.125-2.45 0-2.266-2.929-2.005-4.232-2.005v-2.005h-1.893v6.459z"></path>
<path fill="#70728f" style="fill: var(--color8, #70728f)" d="M43.214 4.607h2.154v4.9h1.893v-4.9h2.154v-1.6l-6.201 0.041v1.559z"></path>
<path fill="#70728f" style="fill: var(--color8, #70728f)" d="M91.361 22.535h1.893v-4.899h2.783l0.487-0.042 0.085-0.513-0.016-1.003h-5.233v6.458z"></path>
<path fill="#70728f" style="fill: var(--color8, #70728f)" d="M40.468 3.102v6.406h1.893v-6.571h-1.893v0.165z"></path>
<path fill="#70728f" style="fill: var(--color8, #70728f)" d="M45.813 13.515h-1.336c0.010 0.949-1.577 1.381-1.696 0h-1.311c0 1.242 0.818 1.893 2.116 1.893 0.92 0.003 2.226-0.471 2.227-1.893z"></path>
<path fill="#70728f" style="fill: var(--color8, #70728f)" d="M39.242 28.77h1.225v2.339h-1.559c0.143-0.592 0.17-0.363 0.223-1.114 0.035-0.454 0.111-0.664 0.111-1.225zM38.908 29.105c0 0.169-0.156 1.468-0.199 1.584-0.322 0.856-0.469-0.192-0.469 1.312h0.334v-0.557h2.426v0.557h0.359v-0.891h-0.445l-0.039-2.599c-0.82-0.135-1.088-0.079-1.962-0.070v0.668l-0.003-0.003z"></path>
<path fill="#70728f" style="fill: var(--color8, #70728f)" d="M59.177 30.886v-1.893c1.54 0.033 1.557 1.861 0 1.893zM58.843 28.993v1.893c-1.642-0.038-1.648-1.858 0-1.893zM57.283 29.884c0 1.203 1.070 1.175 1.494 1.402 0.252 0.136-0.101 0.014 0.287 0.157 0.517-0.54 1.663-0.242 1.611-1.54-0.044-1.106-1.012-1.124-1.213-1.196-0.496-0.176-0.090-0.055-0.499-0.391-0.456 0.668-0.334 0.189-1.014 0.564-0.359 0.198-0.666 0.571-0.666 1.005z"></path>
<path fill="#70728f" style="fill: var(--color8, #70728f)" d="M68.641 28.771h1.336v2.339h-1.671c0.354-0.702 0.334-1.503 0.334-2.339zM68.307 29.55c0 0.195-0.155 1.194-0.237 1.322-0.395 0.607-0.43-0.303-0.43 1.128h0.334v-0.557h2.45v0.557h0.334v-0.891h-0.446v-2.673h-2.005v1.114h-0.001z"></path>
<path fill="#70728f" style="fill: var(--color8, #70728f)" d="M43.14 31.443h0.353l1.72-2.45v2.45h0.378v-3.007h-0.372l-1.737 2.426v-2.426h-0.341v3.007z"></path>
<path fill="#70728f" style="fill: var(--color8, #70728f)" d="M49.843 31.443h0.354l1.719-2.45v2.45h0.378v-3.007h-0.378l-1.732 2.426v-2.426h-0.341v3.007z"></path>
<path fill="#70728f" style="fill: var(--color8, #70728f)" d="M53.073 31.443h0.354l1.719-2.45v2.45h0.378v-3.007h-0.378l-1.732 2.426v-2.426h-0.341v3.007z"></path>
<path fill="#70728f" style="fill: var(--color8, #70728f)" d="M24.542 31.109v-1.114c0.479 0 1.027-0.082 1.448 0.111l0.080 0.067c0.082 0.069 0.138 0.164 0.16 0.269s0.008 0.214-0.039 0.31l-0.066 0.131c-0.604 0.334-0.861 0.223-1.584 0.223v0.002zM24.208 30.886l0.042 0.488c2.925 0.477 2.813-1.713 1.183-1.713h-0.891v-0.891h1.782v-0.334h-2.116v2.45z"></path>
<path fill="#70728f" style="fill: var(--color8, #70728f)" d="M61.403 30.218c-0.315-1.566 2.035-1.967 2.325-0.538 0.326 1.603-2.054 1.882-2.325 0.538zM62.183 28.548c-0.869 0.268-1.351 0.856-1.074 1.853 0.468 1.67 3.513 1.176 2.927-0.921-0.154-0.55-0.727-0.947-1.207-1.029-0.104-0.013-0.208-0.021-0.312-0.023-0.523 0.045-0.184 0.075-0.334 0.12z"></path>
<path fill="#70728f" style="fill: var(--color8, #70728f)" d="M35.344 30.107c-0.273-1.448 2.157-1.884 2.339-0.326s-2.065 1.789-2.339 0.326zM36.235 28.548c-0.469 0.12-0.567-0.013-0.941 0.507-0.93 1.293 0.358 2.608 1.547 2.332 1.988-0.462 1.225-3.035-0.275-2.957-0.501 0.026-0.214 0.089-0.331 0.118z"></path>
<path fill="#70728f" style="fill: var(--color8, #70728f)" d="M46.481 31.443h0.32c0 0 0.014-0.582 0.014-1.336h1.792v1.336h0.324v-3.007h-0.324v1.336h-1.792v-1.336h-0.334v3.007z"></path>
<path fill="#70728f" style="fill: var(--color8, #70728f)" d="M27.409 28.548c-0.187 0.405 0 1.587-0.267 2.377-0.569 0.456-0.41-0.134-0.483 0.519 1.305-0.028 1.002-1.658 1.002-2.673h1.337c0 0.483 0 0.965 0 1.448 0 0.587-0.196 1.081 0.334 1.225v-3.007c-0.578 0-1.453-0.14-1.922 0.111z"></path>
<path fill="#70728f" style="fill: var(--color8, #70728f)" d="M31.336 28.993l0.295 0.595c0.182 0.365 0.266 0.501 0.372 0.742h-1.337l0.669-1.336zM29.888 31.443c0.109-0.026 0.222-0.033 0.334-0.020l0.334-0.76h1.559l0.351 0.78 0.403-0.020-1.534-3.025-1.448 3.045z"></path>
<path fill="#70728f" style="fill: var(--color8, #70728f)" d="M64.744 30.886c0 0.48-0.078 0.445 0.334 0.557v-1.336h1.782v1.336c0.412-0.111 0.334-0.077 0.334-0.557v-2.45h-0.334v1.336h-1.782v-1.336h-0.334v2.45z"></path>
<path fill="#70728f" style="fill: var(--color8, #70728f)" d="M33.34 31.443c0.412-0.111 0.334-0.077 0.334-0.557v-2.116h1.559c-0.138-0.507-0.254-0.334-1.893-0.334v3.007z"></path>
<path fill="#70728f" style="fill: var(--color8, #70728f)" d="M55.056 27.769c-0.078 0.012-0.157 0.012-0.235 0-0.022 0.104-0.080 0.198-0.162 0.265s-0.186 0.105-0.292 0.106c-0.454-0.056-0.446-0.371-0.446-0.371h-0.202c0.066 0.741 1.133 0.852 1.337 0z"></path>
<path fill="#70728f" style="fill: var(--color8, #70728f)" d="M45.033 27.769c-0.078 0.012-0.157 0.012-0.235 0-0.022 0.104-0.080 0.198-0.162 0.265s-0.186 0.105-0.292 0.106c-0.454-0.056-0.445-0.371-0.445-0.371h-0.202c0.066 0.741 1.134 0.852 1.336 0z"></path>
<path fill="#70728f" style="fill: var(--color8, #70728f)" d="M42.31 28.436h-0.331v3.007h0.331v-3.007z"></path>
<path fill="#70728f" style="fill: var(--color8, #70728f)" d="M41.408 2.23c0.616 0 1.115-0.499 1.115-1.115s-0.499-1.115-1.115-1.115c-0.616 0-1.115 0.499-1.115 1.115s0.499 1.115 1.115 1.115z"></path>
</symbol>
<symbol id="UNICEF-logo" viewBox="0 0 127 32">
<path fill="#70728f" style="fill: var(--color8, #70728f)" d="M109.286 0.727c-6.594 0-12.024 5.333-12.024 12.024 0 6.594 5.333 12.024 12.024 12.024 6.594 0 12.024-5.333 12.024-12.024s-5.43-12.024-12.024-12.024zM118.595 6.061c-0.582 0.388-1.261 0.776-1.939 1.164-0.388-0.776-0.873-1.551-1.455-2.23 0.485-0.291 0.97-0.679 1.358-0.97 0.873 0.485 1.552 1.261 2.036 2.036zM113.552 2.085c0.97 0.388 1.842 0.873 2.715 1.551-0.388 0.388-0.873 0.679-1.358 0.97-0.582-0.679-1.261-1.261-1.939-1.842 0.194-0.291 0.388-0.485 0.582-0.679zM114.522 4.8c-0.679 0.388-1.358 0.582-2.036 0.873-0.291-0.679-0.582-1.358-0.97-1.939 0.388-0.194 0.776-0.388 1.067-0.679 0.679 0.485 1.358 1.067 1.939 1.745zM113.068 1.891c-0.194 0.194-0.388 0.388-0.485 0.582-0.679-0.388-1.261-0.776-2.036-1.067 0.873 0 1.745 0.194 2.521 0.485zM112.195 2.764c-0.291 0.194-0.582 0.388-0.873 0.485-0.388-0.582-0.776-1.067-1.164-1.649 0.679 0.291 1.358 0.679 2.036 1.164zM109.48 1.697c0.485 0.485 0.873 1.067 1.261 1.745-0.388 0.097-0.776 0.194-1.261 0.194v-1.939zM109.48 4.121c0.485 0 1.067-0.097 1.552-0.291 0.388 0.582 0.679 1.261 0.97 1.939-0.776 0.194-1.648 0.291-2.521 0.388v-2.036zM108.995 1.697v1.939c-0.388 0-0.776-0.097-1.261-0.194 0.485-0.582 0.873-1.164 1.261-1.745zM107.346 3.248c-0.291-0.097-0.679-0.291-0.873-0.485 0.679-0.388 1.358-0.776 2.036-1.067-0.485 0.485-0.873 0.97-1.164 1.552zM108.025 1.309c-0.679 0.291-1.358 0.679-2.036 1.067-0.194-0.194-0.388-0.388-0.485-0.582 0.776-0.194 1.648-0.388 2.521-0.485zM116.268 21.867c-1.552-0.873-1.648-2.133-1.552-2.521 0.097-0.485 0.388-0.291 0.582-0.291 1.067 0 2.133-0.291 3.491-1.745 1.552-1.552 2.036-5.042-0.388-7.273-2.521-2.424-5.236-2.036-6.982 0.194-0.388 0.485-1.261 0.776-1.939 0.776-1.164 0-0.388 0.873-0.388 1.067s-0.194 0.291-0.291 0.291c-0.388-0.097-0.194 0.485-0.194 0.582s-0.194 0.291-0.194 0.291c-0.485 0-0.388 0.388-0.291 0.582 0 0.097 0 0.291-0.194 0.388s-0.291 0.485-0.291 0.776c0 0.485 0.485 0.873 1.261 1.455s0.873 1.164 0.873 1.552c0 0.388 0.097 1.067 0.194 1.455 0.194 0.485 0.194 1.455-0.873 1.455-1.358 0.097-3.685 1.067-3.879 1.164-0.776 0.291-1.745 0.388-2.521 0.194-0.388-0.291-0.776-0.582-1.164-0.97-0.194-0.485 0.097-1.067 0.388-1.455 0.485 0.485 1.067 0.388 1.455 0.388s2.133-0.291 2.424-0.388c0.291-0.097 0.388-0.097 0.485 0 0.679 0.291 1.648 0.291 2.036-0.97 0.388-1.358-0.485-0.97-0.679-0.873-0.097 0.097-0.291 0-0.194-0.097 0.194-0.291-0.097-0.291-0.194-0.291-0.388 0-0.873 0.388-0.97 0.485-0.194 0.097-0.291 0.097-0.388 0.097-0.485-0.291-1.939 0.097-2.424-0.679 0-0.194-0.388-3.394-0.582-3.976 0-0.097-0.097-0.291 0.097-0.485 0.388-0.582 1.358 0 1.939 0 0.679 0 0.776-0.291 0.97-0.485s0.291-0.097 0.388-0.194c0.097-0.097 0-0.194 0-0.291s0.097 0 0.194-0.097c0.097-0.097 0-0.291 0-0.388 0.194-0.291 0.582-0.097 0.388-0.679-0.097-0.388 0.097-0.776 0.291-0.97 0.291-0.388 1.552-2.133-0.582-3.976-2.036-1.745-4.17-1.551-5.527-0.097s-0.679 3.588-0.582 4.17c0.097 0.582-0.291 1.067-0.776 1.261-0.388 0.194-1.261 0.776-1.842 1.261 0.097-4.655 2.909-8.727 7.176-10.376 0.194 0.194 0.388 0.485 0.582 0.679-0.485 0.388-1.552 1.261-1.552 1.261s0.097 0 0.291 0.097c0.097 0 0.291 0.097 0.291 0.097s0.873-0.776 1.358-1.067c0.291 0.291 0.679 0.485 1.067 0.679-0.194 0.388-0.776 1.358-0.776 1.358s0.097 0.097 0.194 0.097c0.097 0.097 0.194 0.097 0.194 0.097s0.582-1.067 0.776-1.455c0.485 0.194 0.97 0.291 1.455 0.291v1.939c-0.291 0-0.97 0-1.261-0.097h-0.194l0.097 0.194c0.097 0.097 0.097 0.194 0.194 0.291 0.194 0 0.873 0 1.164 0v3.588h0.485v-0.873c0.776 0 1.358-0.097 2.036-0.194l0.679-0.582h-0.388c-0.776 0.097-1.455 0.194-2.036 0.194 0 0-0.194 0-0.291 0v-2.23c0.873 0 1.842-0.097 2.715-0.388 0.194 0.582 0.679 2.036 0.679 2.036l0.485-0.194c0 0-0.485-1.455-0.679-2.036 0.776-0.194 1.455-0.582 2.133-0.873 0.582 0.679 1.067 1.455 1.455 2.23-0.388 0.194-0.97 0.388-0.97 0.388 0.485 0.097 0.873 0.194 0.873 0.194s0.194-0.097 0.291-0.097c0 0.097 0.097 0.291 0.097 0.291l0.679 0.291-0.097-0.194c0 0-0.194-0.485-0.291-0.582 0.679-0.291 1.358-0.679 2.036-1.164 1.261 1.842 1.842 4.073 1.842 6.303 0.194 3.685-1.648 6.982-4.364 9.115z"></path>
<path fill="#70728f" style="fill: var(--color8, #70728f)" d="M96.194 3.927l-0.194 0.194c-0.679 0.582-2.327 2.23-2.036 4.073v0.097l0.097 0.388 0.194-0.194c0.97-0.873 1.745-2.424 2.036-4.17l0.097-0.485-0.194 0.097z"></path>
<path fill="#70728f" style="fill: var(--color8, #70728f)" d="M92.897 7.030l-0.097 0.194c-0.097 0.291-0.291 0.97-0.388 1.745-0.194 1.164-0.097 2.909 0.873 4.17l0.194 0.388 0.194-0.776c0.194-1.358-0.097-4.17-0.582-5.43l-0.194-0.388v0.097z"></path>
<path fill="#70728f" style="fill: var(--color8, #70728f)" d="M91.734 11.879v0.194c-0.097 1.164 0 4.17 2.424 5.818l0.291 0.194v-0.388c0-1.164-1.358-4.558-2.327-5.721l-0.291-0.388-0.097 0.291z"></path>
<path fill="#70728f" style="fill: var(--color8, #70728f)" d="M92.121 17.212v0.194c0.388 1.745 1.939 4.461 4.461 5.333l0.388 0.097-0.097-0.388c-0.485-1.261-2.909-4.267-4.461-5.236l-0.291-0.194v0.194z"></path>
<path fill="#70728f" style="fill: var(--color8, #70728f)" d="M97.26 6.545l-0.291 0.097c-1.842 1.164-2.715 2.521-2.715 4.267v0.388l0.291-0.194c0.97-0.873 2.327-3.006 2.618-4.17l0.097-0.485v0.097z"></path>
<path fill="#70728f" style="fill: var(--color8, #70728f)" d="M96.098 10.23l-0.097 0.194c-0.485 0.485-2.036 2.133-1.939 4.17 0 0.291 0.097 0.679 0.194 0.97l0.097 0.291 0.194-0.291c0.776-1.067 1.745-3.782 1.648-5.042v-0.388l-0.097 0.097z"></path>
<path fill="#70728f" style="fill: var(--color8, #70728f)" d="M96.194 13.818l-0.097 0.194c-0.776 1.164-1.164 2.327-1.164 3.491 0 0.776 0.291 1.552 0.776 2.327l0.194 0.291 0.097-0.291c0.291-0.679 0.582-2.715 0.582-4.364 0-0.582-0.097-1.067-0.194-1.358l-0.097-0.388-0.097 0.097z"></path>
<path fill="#70728f" style="fill: var(--color8, #70728f)" d="M97.067 17.6l-0.097 0.194c-0.194 0.776-0.388 1.455-0.291 2.23 0 1.551 0.775 2.812 2.133 3.685l0.194 0.097 0.097-0.291v-0.291c0-1.261-0.97-4.558-1.745-5.527l-0.194-0.291-0.097 0.194z"></path>
<path fill="#70728f" style="fill: var(--color8, #70728f)" d="M94.449 22.642l0.097 0.194c0.97 1.648 2.715 3.879 5.915 3.297h0.291l-0.194-0.194c-0.582-0.873-4.461-3.103-5.818-3.297l-0.388-0.097 0.097 0.097z"></path>
<path fill="#70728f" style="fill: var(--color8, #70728f)" d="M99.201 26.909l-0.485 0.097 0.485 0.194c2.036 0.873 4.558 1.067 6.109 0.582 0.582-0.194 0.873-0.485 1.261-0.873 2.618 0.291 5.042 2.424 6.497 4.17l0.097 0.097h0.097c0.194-0.097 0.388-0.291 0.485-0.388l0.097-0.097-0.097-0.097c-1.455-1.939-3.782-3.103-3.879-3.2-2.133-0.97-5.818-1.745-10.667-0.485z"></path>
<path fill="#70728f" style="fill: var(--color8, #70728f)" d="M99.298 21.479v0.194c0.291 1.939 1.067 4.461 4.364 4.17h0.194l-0.097-0.194c-0.194-0.873-3.2-3.394-4.267-4.073l-0.291-0.194 0.097 0.097z"></path>
<path fill="#70728f" style="fill: var(--color8, #70728f)" d="M122.182 3.733l0.097 0.485c0.291 1.745 1.067 3.297 2.036 4.17l0.194 0.194 0.097-0.388v-0.097c0.291-1.842-1.358-3.491-2.036-4.073l-0.194-0.194-0.194-0.097z"></path>
<path fill="#70728f" style="fill: var(--color8, #70728f)" d="M125.577 6.836l-0.194 0.388c-0.485 1.261-0.679 4.073-0.582 5.43l0.194 0.776 0.097-0.097 0.097-0.194c1.067-1.261 1.067-2.909 0.873-4.17-0.097-0.873-0.291-1.455-0.388-1.745l-0.097-0.194v-0.194z"></path>
<path fill="#70728f" style="fill: var(--color8, #70728f)" d="M126.836 11.685l-0.291 0.388c-0.97 1.261-2.327 4.558-2.327 5.721v0.388l0.291-0.194c2.424-1.552 2.521-4.558 2.424-5.818v-0.194l-0.097-0.291z"></path>
<path fill="#70728f" style="fill: var(--color8, #70728f)" d="M126.449 17.018l-0.388 0.194c-1.552 0.97-3.976 3.976-4.461 5.236l-0.097 0.388 0.388-0.097c2.521-0.776 4.17-3.588 4.461-5.333v-0.194l0.097-0.194z"></path>
<path fill="#70728f" style="fill: var(--color8, #70728f)" d="M121.309 6.352l0.097 0.485c0.388 1.261 1.552 3.394 2.618 4.267l0.291 0.194v-0.388c0.097-1.745-0.776-3.103-2.618-4.267l-0.194-0.097-0.194-0.194z"></path>
<path fill="#70728f" style="fill: var(--color8, #70728f)" d="M122.376 10.133v0.388c-0.097 1.261 0.97 4.073 1.648 5.042l0.194 0.291 0.097-0.291c0.097-0.388 0.194-0.679 0.194-0.97 0.097-2.036-1.455-3.685-1.939-4.17l-0.097-0.097-0.097-0.194z"></path>
<path fill="#70728f" style="fill: var(--color8, #70728f)" d="M122.28 13.624l-0.097 0.388c-0.097 0.291-0.194 0.776-0.194 1.358 0 1.649 0.194 3.685 0.582 4.364l0.097 0.291 0.194-0.291c0.485-0.679 0.776-1.455 0.776-2.327 0-1.067-0.388-2.327-1.164-3.491l-0.097-0.194-0.097-0.097z"></path>
<path fill="#70728f" style="fill: var(--color8, #70728f)" d="M121.405 17.406l-0.194 0.291c-0.776 0.97-1.745 4.267-1.745 5.527 0 0 0 0.194 0 0.291l0.097 0.291 0.194-0.097c1.358-0.873 2.036-2.133 2.133-3.685 0-0.679-0.097-1.455-0.291-2.23l-0.194-0.388z"></path>
<path fill="#70728f" style="fill: var(--color8, #70728f)" d="M124.218 22.448l-0.388 0.097c-1.358 0.194-5.236 2.424-5.818 3.297l-0.194 0.194h0.291c3.2 0.582 4.945-1.648 5.915-3.297l0.097-0.194 0.097-0.097z"></path>
<path fill="#70728f" style="fill: var(--color8, #70728f)" d="M108.8 27.394c-0.097 0-2.424 1.261-3.879 3.2l-0.097 0.097 0.097 0.097c0.097 0.097 0.388 0.291 0.485 0.388h0.097l0.097-0.097c1.455-1.745 3.879-3.976 6.497-4.17 0.388 0.388 0.776 0.679 1.261 0.873 1.455 0.485 4.073 0.291 6.109-0.582l0.485-0.194-0.485-0.097c-4.945-1.261-8.63-0.485-10.667 0.485z"></path>
<path fill="#70728f" style="fill: var(--color8, #70728f)" d="M119.272 21.285l-0.291 0.194c-1.067 0.679-3.976 3.2-4.267 4.073l-0.097 0.194h0.194c3.2 0.291 3.976-2.23 4.364-4.17v-0.194l0.097-0.097z"></path>
<path fill="#70728f" style="fill: var(--color8, #70728f)" d="M37.43 1.891h4.073v3.685h-4.073v-3.685zM37.818 9.842h3.394v18.036h-3.394v-18.036z"></path>
<path fill="#70728f" style="fill: var(--color8, #70728f)" d="M12.121 9.842h3.394v18.036h-3.297v-2.618h-0.097c-1.358 2.23-3.685 3.2-6.206 3.2-3.782 0-5.915-2.909-5.915-6.497v-12.121h3.394v10.667c0 3.103 0.679 5.43 3.976 5.43 1.358 0 3.297-0.679 3.976-2.618 0.679-1.648 0.679-3.782 0.679-4.267v-9.212h0.097z"></path>
<path fill="#70728f" style="fill: var(--color8, #70728f)" d="M22.303 12.461c1.261-2.23 3.685-3.2 5.527-3.2 1.261 0 6.788 0.291 6.788 6.109v12.412h-3.394v-11.345c0-3.006-1.261-4.558-4.17-4.558 0 0-1.842-0.097-3.297 1.358-0.485 0.485-1.455 1.261-1.455 4.848v9.794h-3.394v-18.036h3.394v2.618z"></path>
<path fill="#70728f" style="fill: var(--color8, #70728f)" d="M55.467 15.564c-0.194-2.23-1.261-3.782-3.685-3.782-3.2 0-4.461 2.812-4.461 6.982s1.261 6.982 4.461 6.982c2.23 0 3.588-1.455 3.782-4.073h3.394c-0.291 4.073-3.297 6.497-7.273 6.497-5.721 0-8.049-4.073-8.049-9.309s2.618-9.6 8.339-9.6c3.782 0 6.594 2.424 6.788 6.303h-3.297z"></path>
<path fill="#70728f" style="fill: var(--color8, #70728f)" d="M64.001 19.442c-0.291 3.103 1.067 6.4 4.461 6.4 2.618 0 3.976-1.067 4.364-3.685h3.588c-0.582 4.073-3.685 6.109-7.951 6.109-5.721 0-8.049-4.073-8.049-9.309s2.618-9.6 8.339-9.6c5.333 0.097 7.855 3.491 7.855 8.436v1.648h-12.606zM73.116 17.115c0.097-3.006-1.261-5.333-4.558-5.333-2.812 0-4.461 2.424-4.461 5.333h9.018z"></path>
<path fill="#70728f" style="fill: var(--color8, #70728f)" d="M80.486 27.685v-15.515h-3.103v-2.327h3.103v-3.879c0.097-3.879 3.103-4.945 5.624-4.945 0.776 0 1.648 0.194 2.424 0.388v2.812c-0.582 0-1.164-0.097-1.745-0.097-1.939 0-3.006 0.485-2.909 2.424v3.297h4.17v2.327h-4.17v15.515h-3.394z"></path>
</symbol>
<symbol id="user" viewBox="0 0 32 32">
<path fill="#fff" style="fill: var(--color4, #fff)" d="M16 17.333c3.195 0 6.1 0.925 8.237 2.229 1.067 0.651 1.979 1.419 2.637 2.253 0.648 0.82 1.125 1.801 1.125 2.851 0 1.127-0.548 2.015-1.337 2.648-0.747 0.6-1.732 0.997-2.779 1.275-2.104 0.556-4.912 0.744-7.884 0.744s-5.78-0.187-7.884-0.744c-1.047-0.277-2.032-0.675-2.779-1.275-0.791-0.635-1.337-1.521-1.337-2.648 0-1.049 0.477-2.031 1.125-2.852 0.659-0.833 1.569-1.6 2.637-2.253 2.137-1.301 5.044-2.228 8.237-2.228zM16 2.667c1.768 0 3.464 0.702 4.714 1.953s1.953 2.946 1.953 4.714-0.702 3.464-1.953 4.714c-1.25 1.25-2.946 1.953-4.714 1.953s-3.464-0.702-4.714-1.953c-1.25-1.25-1.953-2.946-1.953-4.714s0.702-3.464 1.953-4.714c1.25-1.25 2.946-1.953 4.714-1.953z"></path>
</symbol>
</defs>
</svg>
