<svg aria-hidden="true" style="position: absolute; width: 0; height: 0; overflow: hidden;" version="1.1" xmlns="http://www.w3.org/2000/svg" xmlns:xlink="http://www.w3.org/1999/xlink">
<defs>
<symbol id="icon-basket-white" viewBox="0 0 32 32">
<path fill="none" stroke="#fff" style="stroke: var(--color1, #fff)" stroke-linejoin="round" stroke-linecap="butt" stroke-miterlimit="4" stroke-width="3.5556" d="M4.091 15.069c-0.045-0.181-0.049-0.37-0.010-0.553s0.119-0.354 0.233-0.502c0.115-0.147 0.262-0.266 0.43-0.348s0.352-0.125 0.539-0.125h21.435c0.187 0 0.371 0.043 0.539 0.124s0.315 0.201 0.43 0.348c0.115 0.147 0.195 0.319 0.234 0.501s0.035 0.372-0.010 0.553l-2.226 8.902c-0.133 0.532-0.44 1.004-0.872 1.341s-0.964 0.521-1.513 0.521h-14.599c-0.548-0-1.081-0.183-1.513-0.521s-0.739-0.809-0.872-1.341l-2.226-8.901z"></path>
<path fill="none" stroke="#fff" style="stroke: var(--color1, #fff)" stroke-linejoin="miter" stroke-linecap="round" stroke-miterlimit="4" stroke-width="3.5556" d="M12.314 18.457v2.458M19.689 18.457v2.458M8.627 13.541l4.916-7.375M23.376 13.541l-4.916-7.375"></path>
</symbol>
<symbol id="icon-minus" viewBox="0 0 33 32">
<path fill="none" stroke="#46409c" style="stroke: var(--color2, #46409c)" stroke-linejoin="round" stroke-linecap="round" stroke-miterlimit="4" stroke-width="2.6667" d="M27.333 16h-21.333"></path>
</symbol>
<symbol id="icon-plus" viewBox="0 0 33 32">
<path fill="none" stroke="#8f91bf" style="stroke: var(--color3, #8f91bf)" stroke-linejoin="round" stroke-linecap="round" stroke-miterlimit="4" stroke-width="2.6667" d="M27.333 16h-10.667M16.667 16h-10.667M16.667 16v-10.667M16.667 16v10.667"></path>
</symbol>
<symbol id="icon-trash" viewBox="0 0 32 32">
<path fill="none" stroke="#2f2960" style="stroke: var(--color4, #2f2960)" stroke-linejoin="round" stroke-linecap="round" stroke-miterlimit="4" stroke-width="2.2857" d="M5.334 9.333h21.333M13.334 14.667v8M18.667 14.667v8M6.667 9.333l1.333 16c0 0.707 0.281 1.386 0.781 1.886s1.178 0.781 1.886 0.781h10.667c0.707 0 1.386-0.281 1.886-0.781s0.781-1.178 0.781-1.886l1.333-16M12 9.333v-4c0-0.354 0.14-0.693 0.39-0.943s0.589-0.391 0.943-0.391h5.333c0.354 0 0.693 0.14 0.943 0.391s0.39 0.589 0.39 0.943v4"></path>
</symbol>
<symbol id="icon-close" viewBox="0 0 32 32">
<path fill="none" stroke="#46409c" style="stroke: var(--color2, #46409c)" stroke-linejoin="round" stroke-linecap="round" stroke-miterlimit="4" stroke-width="3.4286" d="M8 24.97l16.971-16.971"></path>
<path fill="none" stroke="#46409c" style="stroke: var(--color2, #46409c)" stroke-linejoin="round" stroke-linecap="round" stroke-miterlimit="4" stroke-width="3.4286" d="M24.97 24.97l-16.971-16.971"></path>
</symbol>
<symbol id="icon-user-mb" viewBox="0 0 32 32">
<path fill="none" stroke="#46409c" style="stroke: var(--color2, #46409c)" stroke-linejoin="miter" stroke-linecap="round" stroke-miterlimit="4" stroke-width="3.5556" d="M24.296 12.889c0 4.582-3.714 8.296-8.296 8.296s-8.296-3.714-8.296-8.296c0-4.582 3.714-8.296 8.296-8.296s8.296 3.714 8.296 8.296z"></path>
<path fill="none" stroke="#46409c" style="stroke: var(--color2, #46409c)" stroke-linejoin="miter" stroke-linecap="round" stroke-miterlimit="4" stroke-width="3.5556" d="M3.424 28.445c2.51-4.34 7.202-7.259 12.576-7.259s10.066 2.92 12.576 7.259"></path>
</symbol>
<symbol id="icon-menu" viewBox="0 0 32 32">
<path fill="none" stroke="#fff" style="stroke: var(--color1, #fff)" stroke-linejoin="round" stroke-linecap="round" stroke-miterlimit="4" stroke-width="2.6667" d="M4 6.667h24M4 16h24M4 25.333h24"></path>
</symbol>
<symbol id="icon-basket" viewBox="0 0 32 32">
<path fill="none" stroke="#3a357a" style="stroke: var(--color5, #3a357a)" stroke-linejoin="round" stroke-linecap="butt" stroke-miterlimit="4" stroke-width="2.1333" d="M3.748 15.043c-0.047-0.186-0.050-0.381-0.010-0.569s0.122-0.364 0.24-0.516c0.118-0.151 0.269-0.274 0.442-0.358s0.362-0.128 0.554-0.128h22.048c0.192 0 0.382 0.044 0.554 0.128s0.324 0.207 0.442 0.358c0.118 0.151 0.2 0.328 0.24 0.515s0.036 0.382-0.010 0.569l-2.289 9.157c-0.137 0.547-0.452 1.033-0.897 1.38s-0.992 0.536-1.556 0.536h-15.016c-0.564 0-1.111-0.189-1.556-0.536s-0.76-0.833-0.897-1.38l-2.289-9.155z"></path>
<path fill="none" stroke="#3a357a" style="stroke: var(--color5, #3a357a)" stroke-linejoin="miter" stroke-linecap="round" stroke-miterlimit="4" stroke-width="2.1333" d="M12.207 18.528v2.528M19.792 18.528v2.528M8.415 13.472l5.057-7.585M23.585 13.472l-5.057-7.585"></path>
</symbol>
<symbol id="icon-facebook" viewBox="0 0 32 32">
<path  d="M16 0c-8.836 0-16 7.164-16 16 0 7.503 5.166 13.8 12.135 15.529v-10.639h-3.299v-4.89h3.299v-2.107c0-5.446 2.465-7.97 7.811-7.97 1.014 0 2.763 0.199 3.478 0.397v4.432c-0.378-0.040-1.034-0.059-1.848-0.059-2.623 0-3.637 0.994-3.637 3.578v1.729h5.226l-0.898 4.89h-4.328v10.993c7.923-0.957 14.061-7.702 14.061-15.883-0.001-8.836-7.164-16-16.001-16z"></path>
</symbol>
<symbol id="icon-gift" viewBox="0 0 32 32">
<path fill="#46409c" style="fill: var(--color2, #46409c)" d="M8.001 8c0-0.927 0.268-1.833 0.772-2.611s1.222-1.393 2.068-1.771c0.846-0.378 1.783-0.504 2.699-0.361s1.77 0.547 2.461 1.165c0.794-0.712 1.803-1.139 2.867-1.214s2.122 0.207 3.008 0.8 1.549 1.465 1.885 2.478c0.335 1.012 0.324 2.108-0.032 3.113h1.872c0.849 0 1.663 0.337 2.263 0.937s0.937 1.414 0.937 2.263c0 0.849-0.337 1.663-0.937 2.263s-1.414 0.937-2.263 0.937h-8v-1.6c0-0.424-0.169-0.831-0.469-1.131s-0.707-0.469-1.131-0.469-0.831 0.169-1.131 0.469c-0.3 0.3-0.469 0.707-0.469 1.131v1.6h-8c-0.849 0-1.663-0.337-2.263-0.937s-0.937-1.414-0.937-2.263c0-0.849 0.337-1.663 0.937-2.263s1.414-0.937 2.263-0.937h1.872c-0.176-0.501-0.272-1.040-0.272-1.6zM14.401 9.6v-1.6c0-0.316-0.094-0.626-0.27-0.889s-0.426-0.468-0.718-0.589c-0.292-0.121-0.614-0.153-0.924-0.091s-0.596 0.214-0.819 0.438-0.376 0.509-0.438 0.819c-0.062 0.31-0.030 0.632 0.091 0.924s0.326 0.542 0.589 0.718c0.263 0.176 0.572 0.27 0.889 0.27h1.6zM19.201 9.6c0.316 0 0.626-0.094 0.889-0.27s0.468-0.426 0.589-0.718c0.121-0.292 0.153-0.614 0.091-0.924s-0.214-0.595-0.438-0.819c-0.224-0.224-0.509-0.376-0.819-0.438s-0.632-0.030-0.924 0.091c-0.292 0.121-0.542 0.326-0.718 0.589s-0.27 0.572-0.27 0.889v1.6h1.6z"></path>
<path fill="#46409c" style="fill: var(--color2, #46409c)" d="M14.401 17.6h-9.6v8c0 0.849 0.337 1.663 0.937 2.263s1.414 0.937 2.263 0.937h6.4v-11.2zM17.601 28.8h6.4c0.849 0 1.663-0.337 2.263-0.937s0.937-1.414 0.937-2.263v-8h-9.6v11.2z"></path>
</symbol>
<symbol id="icon-growwithyou-darklogo" viewBox="0 0 35 32">
<path fill="#70728f" style="fill: var(--color7, #70728f)" d="M7.486 3.992c0.053 0.143 0.053 0.39 0.027 0.715l-0.013 0.104c-0.013 0.091-0.013 0.156-0.013 0.195l-0.013 1.144v0.13c0 0.273-0.013 0.494-0.053 0.65-0.013 0.052-0.027 0.104-0.053 0.156-0.159 0.429-0.517 0.741-1.060 0.949-0.477 0.182-1.033 0.273-1.683 0.273-0.040 0-0.093 0-0.159 0h-0.027l-0.146-0.013c-0.146-0.013-0.305-0.013-0.45-0.039l-0.146-0.013h-0.026c-0.093-0.013-0.159-0.026-0.199-0.039l-0.093-0.013c-0.225-0.039-0.45-0.091-0.662-0.156-0.093-0.026-0.185-0.065-0.265-0.091l-0.079-0.026c-0.437-0.156-0.821-0.429-1.166-0.832s-0.623-0.832-0.808-1.261c-0.225-0.481-0.344-1.014-0.371-1.573-0.026-0.546 0.053-1.079 0.225-1.586 0.053-0.143 0.106-0.273 0.159-0.403 0.185-0.416 0.45-0.78 0.768-1.105 0.331-0.325 0.702-0.572 1.126-0.741l0.026-0.026 0.119-0.039 0.013-0.013c0.159-0.065 0.358-0.117 0.57-0.169l0.106-0.026 0.026-0.013h0.013c0.835-0.182 1.683-0.169 2.531 0.039 0.027 0.013 0.053 0.013 0.080 0.026 0.609 0.156 1.047 0.468 1.325 0.897 0.080 0.13 0.119 0.247 0.119 0.364 0 0.091-0.053 0.208-0.146 0.364-0.146 0.247-0.305 0.377-0.477 0.39-0.053 0.013-0.093 0-0.146-0.013h-0.040l-0.159-0.052 0.040-0.013c-0.013 0-0.013 0-0.027-0.013-0.027-0.013-0.053-0.026-0.066-0.039-0.093-0.052-0.225-0.091-0.384-0.143-0.027-0.013-0.080-0.013-0.133-0.039-0.371-0.104-0.742-0.143-1.1-0.143-0.623 0.026-1.139 0.208-1.563 0.546-0.45 0.351-0.729 0.871-0.808 1.56-0.053 0.429-0.026 0.819 0.093 1.196 0.053 0.117 0.093 0.234 0.159 0.351 0.225 0.416 0.53 0.728 0.941 0.923s0.835 0.247 1.298 0.169c0.278-0.052 0.477-0.156 0.583-0.312 0.080-0.117 0.106-0.26 0.106-0.429-0.013-0.169-0.066-0.312-0.159-0.442-0.133-0.156-0.371-0.247-0.702-0.247-0.027 0-0.093 0-0.172 0.013-0.053 0.013-0.119 0.013-0.172 0-0.066 0-0.119-0.013-0.172-0.026s-0.093-0.039-0.132-0.091c-0.040-0.052-0.066-0.117-0.093-0.195-0.066-0.312-0.093-0.546-0.079-0.702-0.013-0.013-0.013-0.039-0.013-0.078l0.013-0.013c0.053-0.247 0.185-0.416 0.371-0.507 0.106-0.052 0.252-0.065 0.45-0.065 0.106 0 0.252 0 0.45-0.013h0.013l0.119-0.013h0.040c0.225-0.013 0.411-0.013 0.57 0 0.080 0 0.199 0 0.358-0.013 0.305-0.013 0.517-0.013 0.676 0.026 0.106 0.026 0.199 0.052 0.292 0.104s0.186 0.117 0.265 0.208c0.066 0.078 0.119 0.182 0.159 0.286z"></path>
<path fill="#70728f" style="fill: var(--color7, #70728f)" d="M15.038 7.021c0.093 0.221 0.106 0.416 0.040 0.585-0.053 0.156-0.172 0.299-0.371 0.403-0.331 0.195-0.702 0.234-1.113 0.104-0.146-0.052-0.265-0.117-0.384-0.208s-0.212-0.182-0.265-0.26-0.146-0.195-0.252-0.351l-0.358-0.533-0.397-0.585-0.053-0.065c-0.172-0.273-0.331-0.442-0.49-0.52-0.106-0.052-0.199-0.052-0.265-0.039-0.066 0.026-0.146 0.091-0.212 0.182-0.119 0.169-0.186 0.377-0.212 0.611s-0.026 0.455 0 0.65c0.013 0.208 0.027 0.364 0.027 0.468 0 0.156-0.027 0.286-0.079 0.377-0.066 0.104-0.172 0.195-0.318 0.26-0.172 0.078-0.384 0.117-0.623 0.117-0.49 0-0.821-0.13-0.994-0.39-0.066-0.104-0.106-0.273-0.119-0.507-0.013-0.143-0.013-0.299-0.027-0.468v-0.221c-0.013-0.156-0.013-0.312-0.013-0.481v-0.221c0-0.234 0-0.598 0.013-1.066 0.013-0.481 0.013-0.845 0.013-1.092v-2.028c0-0.429 0.040-0.754 0.119-0.988h0.013v-0.026l0.013-0.026c0.040-0.091 0.079-0.156 0.132-0.208 0.066-0.091 0.199-0.156 0.398-0.195 0.053-0.013 0.093-0.026 0.119-0.039 0.132-0.026 0.265-0.065 0.397-0.091h0.013l0.080-0.013c0.013 0 0.026 0 0.040 0l0.066-0.013c0.292-0.052 0.636-0.078 1.034-0.078 0.808-0.026 1.457 0.039 1.948 0.169 0.504 0.143 0.927 0.39 1.285 0.754l0.013 0.013 0.119 0.13h-0.013c0.212 0.247 0.371 0.52 0.477 0.819l0.053 0.156v0.026c0.066 0.221 0.093 0.442 0.079 0.663 0 0.091 0 0.195-0.013 0.286-0.066 0.572-0.318 1.079-0.729 1.508-0.026 0.013-0.053 0.052-0.106 0.104-0.119 0.104-0.199 0.195-0.238 0.26-0.066 0.091-0.106 0.182-0.106 0.26 0 0.091 0.013 0.156 0.053 0.208 0.027 0.052 0.093 0.13 0.172 0.247 0.053 0.052 0.079 0.091 0.093 0.117l0.609 0.767c0.172 0.182 0.278 0.338 0.331 0.468zM11.461 3.849c0.106 0.013 0.225 0 0.358-0.026 0.424-0.065 0.715-0.247 0.861-0.533 0.106-0.195 0.132-0.403 0.106-0.65-0.027-0.195-0.106-0.351-0.212-0.481-0.119-0.143-0.305-0.234-0.517-0.299-0.146-0.039-0.358-0.065-0.623-0.078-0.040 0-0.066 0-0.093 0-0.093 0-0.159 0.013-0.212 0.026-0.159 0.065-0.265 0.182-0.331 0.377s-0.093 0.377-0.093 0.572c0.013 0.195 0.027 0.377 0.066 0.546 0.013 0.078 0.040 0.143 0.066 0.195 0.013 0.052 0.040 0.078 0.053 0.104 0.119 0.143 0.291 0.221 0.53 0.247h0.040z"></path>
<path fill="#70728f" style="fill: var(--color7, #70728f)" d="M23.929 3.719c0.013 0.195 0.013 0.364 0 0.507-0.013 0.091-0.027 0.182-0.053 0.286l-0.027 0.091c0 0.013 0 0.026 0 0.052-0.172 0.637-0.49 1.222-0.954 1.768s-0.994 0.988-1.603 1.3c-0.649 0.325-1.299 0.481-1.961 0.481-0.424 0-0.835-0.065-1.219-0.195-0.411-0.143-0.782-0.364-1.113-0.637-0.027-0.026-0.066-0.065-0.106-0.091-0.543-0.494-0.901-1.131-1.060-1.911s-0.093-1.547 0.212-2.328c0.292-0.754 0.742-1.391 1.365-1.898l0.027-0.013 0.093-0.078c0.159-0.117 0.318-0.221 0.49-0.325h-0.013l0.106-0.052 0.040-0.026c0.57-0.299 1.153-0.442 1.776-0.468 0.623-0.013 1.219 0.104 1.789 0.364l0.027 0.013 0.119 0.052c0.013 0.013 0.013 0.013 0.040 0.026 0.013 0.013 0.027 0.013 0.040 0.013 0.291 0.156 0.556 0.351 0.795 0.572 0.013 0.013 0.013 0.013 0.027 0.026s0.013 0.013 0.013 0.026v-0.013l0.093 0.104 0.027 0.013v0.013c0.185 0.195 0.358 0.416 0.503 0.663s0.265 0.494 0.358 0.754c0.093 0.26 0.146 0.52 0.186 0.78l0.013 0.065v0.065h-0.027zM18.682 5.084c0.093 0.182 0.225 0.338 0.384 0.468s0.345 0.208 0.53 0.234c0.331 0.065 0.623-0.013 0.874-0.234 0.053-0.052 0.106-0.104 0.159-0.156 0.093-0.104 0.159-0.234 0.238-0.364 0.119-0.234 0.212-0.468 0.265-0.715s0.053-0.507 0.013-0.78c-0.053-0.273-0.159-0.507-0.345-0.702-0.238-0.247-0.53-0.351-0.861-0.299-0.292 0.052-0.57 0.195-0.835 0.429s-0.437 0.507-0.517 0.793c-0.040 0.169-0.066 0.338-0.066 0.494-0.013 0.195 0.013 0.364 0.053 0.533 0.027 0.117 0.053 0.208 0.106 0.299z"></path>
<path fill="#70728f" style="fill: var(--color7, #70728f)" d="M34.661 0.702c0.093 0.182 0.119 0.442 0.053 0.806l-0.053 0.416c-0.159 1.144-0.305 2.002-0.411 2.575v0.039l-0.027 0.117c-0.040 0.195-0.080 0.364-0.119 0.533l-0.026 0.117-0.013 0.039c-0.146 0.598-0.305 1.157-0.477 1.651-0.186 0.533-0.424 0.884-0.716 1.053-0.199 0.104-0.451 0.156-0.768 0.156h-0.013c-0.609 0-1.060-0.091-1.325-0.286l-0.026-0.026-0.159-0.117h0.040c-0.013 0-0.013 0-0.013-0.013-0.066-0.078-0.119-0.208-0.186-0.403-0.026-0.078-0.053-0.156-0.066-0.221v-0.013c-0.027-0.065-0.053-0.156-0.093-0.273-0.186-0.598-0.318-1.053-0.384-1.365-0.027-0.117-0.053-0.195-0.079-0.234-0.053-0.078-0.106-0.104-0.159-0.078-0.053 0.013-0.093 0.052-0.119 0.13-0.079 0.234-0.159 0.507-0.252 0.806-0.066 0.234-0.132 0.52-0.212 0.832l-0.053 0.273c-0.066 0.338-0.186 0.572-0.344 0.676-0.119 0.104-0.318 0.169-0.596 0.208-0.398 0.052-0.716 0.065-0.954 0.052-0.199-0.013-0.384-0.065-0.543-0.143s-0.278-0.156-0.371-0.247c-0.093-0.091-0.172-0.208-0.265-0.364s-0.146-0.299-0.185-0.403-0.093-0.26-0.159-0.468l-0.040-0.13v-0.013l-0.013-0.026c-0.066-0.247-0.146-0.533-0.225-0.858l-0.040-0.143v-0.026c-0.026-0.13-0.079-0.325-0.132-0.572l-0.053-0.221c-0.106-0.442-0.199-0.897-0.278-1.352-0.027-0.104-0.053-0.247-0.106-0.455-0.053-0.221-0.080-0.377-0.106-0.507-0.027-0.117-0.053-0.273-0.079-0.468s-0.040-0.364-0.027-0.52 0.026-0.312 0.053-0.455c0.053-0.208 0.172-0.364 0.345-0.468l0.186-0.091v0.026c0.132-0.052 0.291-0.065 0.477-0.065 0.305 0 0.556 0.065 0.755 0.208 0 0.013 0.013 0.013 0.026 0.026v-0.026l0.133 0.156 0.013 0.013v0.013c0.106 0.13 0.186 0.299 0.212 0.507 0.172 0.975 0.451 2.38 0.821 4.239 0.013 0.013 0.013 0.026 0.013 0.039 0.013 0.013 0.026 0.026 0.053 0.026 0.066-0.013 0.132-0.065 0.212-0.195 0.080-0.117 0.133-0.208 0.159-0.286 0.053-0.156 0.106-0.403 0.159-0.728 0.027-0.13 0.040-0.234 0.053-0.312 0.093-0.507 0.252-0.988 0.477-1.443v-0.013l0.013-0.013c0.026-0.065 0.053-0.104 0.066-0.143 0.053-0.091 0.119-0.169 0.186-0.234 0.106-0.091 0.252-0.13 0.411-0.156l-0.013-0.013h0.186c0.238 0.013 0.464 0.078 0.689 0.195 0.424 0.208 0.715 0.533 0.874 0.975 0.066 0.182 0.119 0.455 0.185 0.819 0.106 0.559 0.238 0.949 0.384 1.196 0.053 0.091 0.106 0.143 0.159 0.156 0.066 0.039 0.119 0.039 0.159-0.013 0.026-0.013 0.040-0.052 0.053-0.117 0.053-0.273 0.106-0.598 0.159-0.975l0.013-0.078c0.026-0.234 0.066-0.468 0.093-0.715 0.053-0.312 0.106-0.663 0.172-1.053h-0.013l0.013-0.026 0.027-0.143c0.053-0.26 0.106-0.533 0.159-0.832l0.080-0.442c0.053-0.221 0.119-0.377 0.199-0.468 0.225-0.221 0.596-0.26 1.113-0.13 0.331 0.13 0.543 0.273 0.662 0.507z"></path>
<path fill="#70728f" style="fill: var(--color7, #70728f)" d="M10.176 12.508c0.093 0.182 0.119 0.442 0.053 0.806l-0.053 0.416c-0.159 1.144-0.305 2.003-0.411 2.575v0.039l-0.027 0.117c-0.040 0.195-0.079 0.364-0.119 0.533l-0.027 0.117-0.013 0.039c-0.146 0.598-0.305 1.157-0.477 1.651-0.186 0.533-0.424 0.884-0.716 1.053-0.199 0.104-0.45 0.156-0.768 0.156h-0.013c-0.609 0-1.060-0.091-1.325-0.286l-0.027-0.026-0.159-0.117h0.040c-0.013 0-0.013 0-0.013-0.013-0.066-0.078-0.119-0.208-0.186-0.403-0.027-0.078-0.053-0.156-0.066-0.221v-0.013c-0.027-0.065-0.053-0.156-0.093-0.273-0.186-0.598-0.318-1.053-0.384-1.365-0.027-0.117-0.053-0.195-0.080-0.234-0.053-0.078-0.106-0.104-0.159-0.078-0.053 0.013-0.093 0.052-0.119 0.13-0.080 0.234-0.159 0.507-0.252 0.806-0.066 0.234-0.133 0.52-0.212 0.832l-0.053 0.273c-0.066 0.338-0.186 0.572-0.345 0.676-0.119 0.104-0.318 0.169-0.596 0.208-0.397 0.052-0.716 0.065-0.954 0.052-0.199-0.013-0.384-0.065-0.543-0.143s-0.278-0.156-0.371-0.247c-0.093-0.091-0.172-0.208-0.265-0.364s-0.146-0.299-0.185-0.403c-0.040-0.104-0.093-0.26-0.159-0.468l-0.040-0.13-0.013-0.026c-0.066-0.247-0.146-0.533-0.225-0.858l-0.040-0.143v-0.039c-0.026-0.13-0.080-0.325-0.133-0.572l-0.053-0.221c-0.106-0.442-0.199-0.897-0.278-1.352-0.027-0.104-0.053-0.247-0.106-0.455-0.053-0.221-0.080-0.377-0.106-0.507-0.026-0.117-0.053-0.273-0.080-0.468s-0.040-0.364-0.026-0.52c0.013-0.156 0.026-0.312 0.053-0.455 0.053-0.208 0.172-0.364 0.345-0.468l0.027-0.013 0.159-0.078v0.065c0.132-0.052 0.291-0.065 0.477-0.065 0.305 0 0.556 0.065 0.755 0.208 0 0.013 0.013 0.013 0.026 0.026v-0.039l0.133 0.156 0.013 0.013v0.013c0.106 0.13 0.186 0.299 0.212 0.507 0.172 0.975 0.45 2.38 0.821 4.239 0.013 0.013 0.013 0.026 0.013 0.039 0.013 0.013 0.026 0.026 0.053 0.026 0.066-0.013 0.132-0.065 0.212-0.195 0.079-0.117 0.132-0.208 0.159-0.286 0.053-0.156 0.106-0.403 0.159-0.728 0.026-0.13 0.040-0.234 0.053-0.312 0.093-0.507 0.252-0.988 0.477-1.443v-0.013l0.013-0.013c0.027-0.065 0.053-0.104 0.066-0.143 0.053-0.091 0.119-0.169 0.186-0.234 0.106-0.091 0.252-0.13 0.411-0.156l-0.013-0.013h0.186c0.239 0.013 0.464 0.078 0.689 0.195 0.424 0.208 0.715 0.533 0.874 0.975 0.066 0.182 0.119 0.455 0.186 0.819 0.106 0.559 0.238 0.949 0.384 1.196 0.053 0.091 0.106 0.143 0.159 0.156 0.066 0.039 0.119 0.039 0.159-0.013 0.027-0.013 0.040-0.052 0.053-0.117 0.053-0.273 0.106-0.598 0.159-0.975l0.013-0.078c0.027-0.234 0.066-0.468 0.093-0.715 0.053-0.312 0.106-0.663 0.172-1.053h0.013l0.013-0.026 0.027-0.143c0.053-0.26 0.106-0.533 0.159-0.832l0.079-0.442c0.053-0.221 0.119-0.377 0.199-0.468 0.225-0.221 0.596-0.26 1.113-0.13 0.318 0.117 0.517 0.26 0.636 0.481z"></path>
<path fill="#70728f" style="fill: var(--color7, #70728f)" d="M13.395 19.075c0 0.052 0 0.104-0.013 0.156v0.039l-0.013 0.143v-0.013c-0.013 0.065-0.040 0.117-0.053 0.156-0.093 0.195-0.265 0.325-0.53 0.39l0.013 0.013-0.133 0.013h-0.040c-0.066 0.013-0.119 0.013-0.159 0.013-0.026 0-0.053 0-0.079 0-0.093-0.013-0.199-0.013-0.318-0.039-0.331-0.039-0.556-0.13-0.676-0.286-0.066-0.091-0.119-0.247-0.132-0.455-0.053-0.559-0.093-1.17-0.093-1.859v-0.156c0-0.182 0-0.364 0-0.559v-0.156c0.013-0.299 0.013-0.741 0.027-1.339 0.026-0.884 0.026-1.547 0.026-1.989v-0.143c0-0.39 0.106-0.676 0.305-0.858 0.119-0.104 0.305-0.182 0.517-0.234h-0.013l0.172-0.026h0.027c0.437-0.026 0.755 0.078 0.954 0.312 0.146 0.169 0.212 0.481 0.185 0.923l-0.013 0.091c-0.013 0.286-0.013 0.715-0.026 1.274v0.091c-0.013 0.533 0 1.352 0.026 2.445 0.027 0.936 0.040 1.612 0.040 2.054z"></path>
<path fill="#70728f" style="fill: var(--color7, #70728f)" d="M20.789 12.99c-0.013 0.273-0.093 0.481-0.265 0.624-0.106 0.091-0.238 0.143-0.397 0.169s-0.411 0.039-0.742 0.026h-0.040c-0.027 0-0.066 0-0.146-0.013-0.239-0.013-0.424-0.013-0.53 0.013-0.026 0.013-0.053 0.013-0.066 0.039-0.053 0.026-0.080 0.091-0.106 0.156-0.053 0.143-0.079 0.377-0.053 0.702v0.117l0.013 0.104c0 0.078 0 0.208 0 0.403v0.208l0.013 0.182c0 0.182 0 0.325 0 0.416 0 0.598 0 1.196 0 1.781 0 0.052 0 0.117 0 0.234 0 0.663-0.066 1.131-0.212 1.404-0.053 0.156-0.119 0.26-0.212 0.325s-0.212 0.104-0.371 0.117c-0.093 0.013-0.185 0.013-0.265 0.013-0.331 0-0.596-0.065-0.782-0.182-0.106-0.078-0.199-0.182-0.252-0.325s-0.093-0.26-0.093-0.351c-0.013-0.091-0.013-0.208-0.013-0.364v-0.234c0.013-0.221 0.013-0.455 0.013-0.702v-0.169l0.013-2.549c0-0.065 0-0.156 0.013-0.299 0.026-0.364 0.013-0.624-0.053-0.754-0.053-0.143-0.199-0.26-0.437-0.351-0.119-0.039-0.291-0.052-0.504-0.039h-0.026c-0.225 0.013-0.437 0.026-0.663 0.039-0.159 0-0.278-0.026-0.358-0.078-0.106-0.065-0.186-0.208-0.212-0.416-0.040-0.247-0.040-0.442 0-0.598 0.066-0.234 0.199-0.403 0.384-0.481 0.026-0.013 0.053-0.013 0.106-0.039h0.040l0.119-0.026c0.053-0.013 0.106-0.013 0.159-0.013h1.153l3.511-0.013c0.093 0 0.159 0 0.199 0 0.238-0.013 0.437 0.013 0.583 0.078v-0.013l0.093 0.065h0.013l0.013 0.013h0.013l0.013 0.013c0.225 0.182 0.331 0.429 0.331 0.767z"></path>
<path fill="#70728f" style="fill: var(--color7, #70728f)" d="M28.474 15.421c0.013 1.482 0.027 2.601 0.027 3.355 0 0.598-0.159 0.962-0.477 1.105-0.199 0.091-0.477 0.117-0.848 0.078-0.318-0.026-0.543-0.117-0.676-0.247s-0.199-0.325-0.212-0.572c-0.013-0.182-0.013-0.403 0-0.676l0.013-0.182c0-0.026 0-0.065 0-0.117s0-0.091 0-0.13c0.013-0.234 0.026-0.403 0.026-0.52v-0.026c0.013-0.143 0-0.234-0.040-0.286-0.119-0.221-0.45-0.351-0.994-0.377-0.119-0.013-0.305-0.013-0.543-0.013-0.027 0-0.040 0-0.053 0h-0.172c-0.026 0-0.053 0-0.053-0.013-0.265-0.013-0.464 0.039-0.596 0.143-0.146 0.104-0.238 0.273-0.265 0.494-0.026 0.143-0.013 0.351 0.013 0.624 0.013 0.182 0.026 0.325 0.026 0.429 0 0.442-0.053 0.819-0.146 1.131-0.026 0.091-0.053 0.156-0.093 0.208-0.053 0.065-0.132 0.104-0.238 0.117-0.026 0.013-0.066 0.013-0.106 0.026-0.132 0.013-0.265 0.026-0.397 0.026-0.079 0-0.159 0-0.238-0.013-0.238-0.013-0.437-0.065-0.583-0.143-0.318-0.182-0.464-0.559-0.451-1.157 0.013-0.429 0.027-0.897 0.040-1.404 0.013-0.221 0.013-0.455 0.013-0.728 0.013-0.624 0.013-1.56 0.013-2.796 0-0.377 0-0.702 0-0.975 0-0.195 0.013-0.338 0.053-0.429 0.106-0.247 0.331-0.377 0.689-0.403 0.649-0.052 1.060 0.052 1.259 0.312 0.053 0.078 0.093 0.195 0.119 0.364 0.026 0.195 0.040 0.442 0.040 0.728v0.182c0 0.104 0 0.169 0 0.195-0.013 0.273-0.013 0.468 0 0.611 0 0.039 0 0.091 0.013 0.143 0.040 0.299 0.159 0.494 0.345 0.585 0.106 0.052 0.305 0.078 0.57 0.052 0.093-0.013 0.159-0.013 0.199-0.013 0.093 0 0.265 0 0.517 0.013 0.146 0 0.252 0 0.318 0.013 0.212 0 0.371-0.039 0.477-0.13s0.186-0.221 0.212-0.39c0.053-0.273 0.053-0.728 0.026-1.339-0.013-0.299-0.026-0.507-0.026-0.637 0-0.156 0.026-0.273 0.066-0.351 0.066-0.117 0.199-0.195 0.424-0.26 0.437-0.117 0.795-0.117 1.073-0.026 0.278 0.104 0.464 0.286 0.556 0.572l0.013 0.039 0.040 0.117h-0.013c0.027 0.143 0.040 0.364 0.027 0.637v0.104c-0.013 0.117-0.013 0.221-0.013 0.273 0 0.403 0.013 0.962 0.026 1.677z"></path>
<path fill="#70728f" style="fill: var(--color7, #70728f)" d="M6.956 28.021c0.013 0.585-0.040 1.105-0.133 1.573s-0.278 0.871-0.57 1.196c-0.013 0.013-0.027 0.026-0.053 0.052l-0.133 0.156v-0.013c-0.093 0.091-0.186 0.182-0.278 0.26h0.013l-0.146 0.091-0.027 0.013c-0.623 0.429-1.351 0.65-2.173 0.676-0.013 0-0.040 0-0.053 0-0.132 0-0.278-0.013-0.45-0.039h-0.079l-0.053-0.013c-0.265-0.039-0.517-0.104-0.768-0.195h-0.013l-0.053-0.026-0.066-0.026c-0.185-0.091-0.344-0.169-0.49-0.26-0.61-0.403-1.020-0.975-1.232-1.703l-0.013-0.039-0.040-0.117c-0.053-0.169-0.080-0.351-0.106-0.546l-0.013-0.117v-0.039c-0.026-0.208-0.040-0.416-0.040-0.637l0.013-3.446c0-0.221 0.013-0.377 0.053-0.481 0.066-0.195 0.212-0.338 0.411-0.442s0.411-0.156 0.636-0.156h0.053l0.172 0.013-0.013 0.013c0.238 0.026 0.437 0.117 0.583 0.247 0.159 0.143 0.265 0.364 0.305 0.689l0.013 0.156v0.039c0.013 0.195 0.013 0.481-0.013 0.858-0.013 0.195-0.026 0.325-0.026 0.39 0 0.299 0 0.728-0.013 1.3-0.013 0.611-0.013 1.079-0.013 1.378 0 0.351 0.106 0.663 0.318 0.936s0.517 0.429 0.901 0.455c0.371 0.026 0.676-0.078 0.901-0.299 0.345-0.312 0.517-0.819 0.503-1.508v-0.156l-0.013-0.767-0.013-2.184c-0.013-0.403 0.027-0.702 0.106-0.884 0.053-0.117 0.119-0.234 0.212-0.325s0.199-0.182 0.318-0.247c0.119-0.065 0.252-0.104 0.371-0.104 0.106-0.013 0.225-0.013 0.345 0.026h0.027l0.199 0.052h-0.027c0.159 0.078 0.305 0.182 0.397 0.325v-0.039l0.080 0.169v0.013l0.013 0.039c0.066 0.156 0.093 0.377 0.106 0.676 0.013 0.481 0.027 1.196 0.027 2.145 0.040 0.377 0.040 0.663 0.040 0.871z"></path>
<path fill="#70728f" style="fill: var(--color7, #70728f)" d="M34.754 31.831h-23.611c-0.292 0-0.53-0.234-0.53-0.52s0.239-0.52 0.53-0.52h23.067v-18.347c0-0.286 0.238-0.52 0.53-0.52s0.53 0.234 0.53 0.52v18.88c0.013 0.273-0.225 0.507-0.517 0.507z"></path>
</symbol>
<symbol id="icon-instagram" viewBox="0 0 32 32">
<path  d="M16 2.881c4.275 0 4.781 0.019 6.462 0.094 1.563 0.069 2.406 0.331 2.969 0.55 0.744 0.288 1.281 0.638 1.837 1.194 0.563 0.563 0.906 1.094 1.194 1.838 0.219 0.563 0.481 1.412 0.55 2.969 0.075 1.688 0.094 2.194 0.094 6.463 0 4.275-0.019 4.781-0.094 6.463-0.069 1.563-0.331 2.406-0.55 2.969-0.287 0.744-0.637 1.281-1.194 1.837-0.563 0.563-1.094 0.906-1.837 1.194-0.563 0.219-1.413 0.481-2.969 0.55-1.687 0.075-2.194 0.094-6.463 0.094-4.275 0-4.781-0.019-6.463-0.094-1.563-0.069-2.406-0.331-2.969-0.55-0.744-0.287-1.281-0.637-1.838-1.194-0.563-0.563-0.906-1.094-1.194-1.837-0.219-0.563-0.481-1.413-0.55-2.969-0.075-1.688-0.094-2.194-0.094-6.463 0-4.275 0.019-4.781 0.094-6.463 0.069-1.562 0.331-2.406 0.55-2.969 0.288-0.744 0.638-1.281 1.194-1.837 0.563-0.563 1.094-0.906 1.838-1.194 0.563-0.219 1.412-0.481 2.969-0.55 1.681-0.075 2.187-0.094 6.463-0.094zM16 0c-4.344 0-4.887 0.019-6.594 0.094-1.7 0.075-2.869 0.35-3.881 0.744-1.056 0.412-1.95 0.956-2.837 1.85-0.894 0.888-1.438 1.781-1.85 2.831-0.394 1.019-0.669 2.181-0.744 3.881-0.075 1.713-0.094 2.256-0.094 6.6s0.019 4.887 0.094 6.594c0.075 1.7 0.35 2.869 0.744 3.881 0.413 1.056 0.956 1.95 1.85 2.837 0.887 0.887 1.781 1.437 2.831 1.844 1.019 0.394 2.181 0.669 3.881 0.744 1.706 0.075 2.25 0.094 6.594 0.094s4.887-0.019 6.594-0.094c1.7-0.075 2.869-0.35 3.881-0.744 1.050-0.406 1.944-0.956 2.831-1.844s1.438-1.781 1.844-2.831c0.394-1.019 0.669-2.181 0.744-3.881 0.075-1.706 0.094-2.25 0.094-6.594s-0.019-4.887-0.094-6.594c-0.075-1.7-0.35-2.869-0.744-3.881-0.394-1.063-0.938-1.956-1.831-2.844-0.888-0.887-1.781-1.438-2.831-1.844-1.019-0.394-2.181-0.669-3.881-0.744-1.713-0.081-2.256-0.1-6.6-0.1z"></path>
<path  d="M16 7.781c-4.537 0-8.219 3.681-8.219 8.219s3.681 8.219 8.219 8.219c4.538 0 8.219-3.681 8.219-8.219s-3.681-8.219-8.219-8.219zM16 21.331c-2.944 0-5.331-2.388-5.331-5.331s2.388-5.331 5.331-5.331c2.944 0 5.331 2.388 5.331 5.331s-2.388 5.331-5.331 5.331z"></path>
<path  d="M26.462 7.456c0 1.063-0.863 1.919-1.919 1.919-1.063 0-1.919-0.862-1.919-1.919 0-1.063 0.863-1.919 1.919-1.919s1.919 0.862 1.919 1.919z"></path>
</symbol>
<symbol id="icon-location" viewBox="0 0 33 32">
<path fill="#fff" style="fill: var(--color1, #fff)" d="M16.571 2.667c-5.881 0-10.667 4.785-10.667 10.66-0.039 8.593 10.261 15.719 10.667 16.007 0 0 10.705-7.413 10.667-16 0-5.881-4.785-10.667-10.667-10.667zM16.571 18.667c-2.947 0-5.333-2.387-5.333-5.333s2.387-5.333 5.333-5.333c2.947 0 5.333 2.387 5.333 5.333s-2.387 5.333-5.333 5.333z"></path>
</symbol>
<symbol id="icon-teplitsia-logo" viewBox="0 0 78 32">
<path fill="#70728f" style="fill: var(--color7, #70728f)" d="M7.447 0.421h-6.834c-0.408 0-0.613 0.159-0.613 0.478v0.956c0 0.328 0.205 0.478 0.613 0.478h3.065v19.906c0 0.317 0.205 0.478 0.613 0.478h1.227c0.408 0 0.613-0.161 0.613-0.478v-19.906h1.316c0.41 0 0.613-0.161 0.613-0.478v-0.956c0-0.319-0.203-0.478-0.613-0.478z"></path>
<path fill="#70728f" style="fill: var(--color7, #70728f)" d="M18.389 21.235c0.003 0.267-0.058 0.531-0.179 0.77s-0.298 0.445-0.516 0.603c-0.505 0.376-1.126 0.567-1.758 0.542h-3.268c-0.63 0.024-1.249-0.167-1.753-0.542-0.218-0.157-0.395-0.364-0.516-0.603s-0.182-0.503-0.179-0.77v-8.934c-0.003-0.267 0.059-0.53 0.18-0.768s0.298-0.445 0.515-0.602c0.505-0.376 1.126-0.568 1.757-0.544h3.263c0.632-0.024 1.252 0.169 1.758 0.544 0.218 0.157 0.394 0.364 0.515 0.602s0.183 0.502 0.18 0.768v4.626c0 0.319-0.205 0.478-0.613 0.478h-5.108v3.353c0 0.319 0.205 0.478 0.613 0.478h2.043c0.41 0 0.613-0.159 0.613-0.478v-1.595c0-0.319 0.205-0.48 0.615-0.48h1.225c0.408 0 0.613 0.161 0.613 0.48v2.073zM12.669 15.492h3.268v-2.712c0-0.319-0.203-0.48-0.613-0.48h-2.043c-0.408 0-0.613 0.161-0.613 0.48v2.712z"></path>
<path fill="#70728f" style="fill: var(--color7, #70728f)" d="M33.099 5.829c0-0.258 0.205-0.388 0.613-0.388h1.227c0.408 0 0.613 0.13 0.613 0.388v17.259c0 0.258-0.205 0.386-0.613 0.386h-1.227c-0.408 0-0.613-0.128-0.613-0.386v-17.259z"></path>
<path fill="#70728f" style="fill: var(--color7, #70728f)" d="M38.821 10.867c0-0.319 0.203-0.48 0.613-0.48h1.225c0.408 0 0.613 0.161 0.613 0.48v11.802c0 0.319-0.205 0.478-0.613 0.478h-1.232c-0.41 0-0.613-0.159-0.613-0.478l0.007-11.802z"></path>
<path fill="#70728f" style="fill: var(--color7, #70728f)" d="M50.467 21.235h-2.45c-0.408 0-0.613-0.159-0.613-0.478v-8.456h2.248c0.408 0 0.613-0.159 0.613-0.478v-0.956c0-0.319-0.205-0.48-0.613-0.48h-2.25v-4.445c0-0.319-0.205-0.478-0.613-0.478h-1.227c-0.408 0-0.613 0.159-0.613 0.478v4.445h-1.020c-0.41 0-0.615 0.161-0.615 0.48v0.956c0 0.319 0.205 0.478 0.615 0.478h1.020v8.934c-0.003 0.267 0.058 0.531 0.179 0.77s0.298 0.445 0.516 0.603c0.505 0.376 1.126 0.567 1.758 0.542h3.065c0.408 0 0.613-0.159 0.613-0.478v-0.956c0-0.319-0.205-0.48-0.613-0.48z"></path>
<path fill="#70728f" style="fill: var(--color7, #70728f)" d="M61.5 21.235c0.003 0.267-0.058 0.531-0.179 0.77s-0.298 0.445-0.516 0.603c-0.505 0.376-1.126 0.567-1.758 0.542h-3.27c-0.631 0.026-1.251-0.166-1.755-0.542-0.218-0.157-0.395-0.364-0.516-0.603s-0.182-0.503-0.179-0.77v-2.073c0-0.319 0.205-0.48 0.613-0.48h1.225c0.41 0 0.613 0.161 0.613 0.48v1.595c0 0.319 0.205 0.478 0.615 0.478h2.043c0.408 0 0.613-0.159 0.613-0.478v-1.436c0-0.489-0.082-0.828-0.245-1.020-0.153-0.184-0.349-0.327-0.572-0.416l-3.268-1.434c-0.428-0.184-0.812-0.457-1.125-0.8-0.342-0.361-0.512-0.949-0.51-1.762v-1.588c-0.003-0.267 0.059-0.53 0.18-0.768s0.297-0.445 0.515-0.602c0.504-0.376 1.124-0.568 1.755-0.544h3.27c0.634-0.025 1.257 0.167 1.764 0.544 0.218 0.157 0.394 0.364 0.515 0.602s0.183 0.502 0.18 0.768v1.916c0 0.317-0.205 0.478-0.613 0.478h-1.227c-0.408 0-0.613-0.161-0.613-0.478v-1.436c0-0.319-0.205-0.48-0.613-0.48h-2.043c-0.41 0-0.615 0.161-0.615 0.48v0.956c0 0.491 0.082 0.83 0.247 1.022 0.148 0.186 0.342 0.33 0.564 0.421l3.27 1.436c0.424 0.185 0.804 0.457 1.114 0.797 0.34 0.361 0.511 0.949 0.512 1.762l0.009 2.060z"></path>
<path fill="#70728f" style="fill: var(--color7, #70728f)" d="M64.563 10.867c0-0.319 0.205-0.48 0.615-0.48h1.225c0.408 0 0.613 0.161 0.613 0.48v11.802c0 0.319-0.205 0.478-0.613 0.478h-1.225c-0.41 0-0.615-0.159-0.615-0.478v-11.802z"></path>
<path fill="#70728f" style="fill: var(--color7, #70728f)" d="M72.533 23.149c-0.632 0.025-1.252-0.166-1.757-0.542-0.218-0.157-0.395-0.364-0.516-0.603s-0.182-0.503-0.179-0.77v-3.509c-0.003-0.267 0.059-0.531 0.179-0.769s0.298-0.445 0.516-0.603c0.506-0.375 1.126-0.566 1.757-0.542h3.268v-3.031c0-0.319-0.203-0.48-0.613-0.48h-2.043c-0.41 0-0.613 0.161-0.613 0.48v1.275c0 0.319-0.205 0.478-0.613 0.478h-1.227c-0.408 0-0.613-0.159-0.613-0.478v-1.762c-0.003-0.267 0.059-0.53 0.18-0.768s0.298-0.445 0.515-0.602c0.505-0.376 1.126-0.568 1.757-0.544h3.268c0.632-0.024 1.252 0.169 1.758 0.544 0.218 0.157 0.394 0.364 0.515 0.602s0.183 0.502 0.18 0.768v10.375c0 0.319-0.205 0.478-0.613 0.478l-5.108 0.002zM75.801 17.726h-2.655c-0.41 0-0.613 0.159-0.613 0.478v2.553c0 0.319 0.203 0.478 0.613 0.478h2.655v-3.509z"></path>
<path fill="#70728f" style="fill: var(--color7, #70728f)" d="M65.85 8.155c0.808 0 1.463-0.607 1.463-1.357s-0.655-1.357-1.463-1.357c-0.808 0-1.463 0.607-1.463 1.357s0.655 1.357 1.463 1.357z"></path>
<path fill="#70728f" style="fill: var(--color7, #70728f)" d="M40.047 8.155c0.808 0 1.464-0.607 1.464-1.357s-0.655-1.357-1.464-1.357c-0.808 0-1.464 0.607-1.464 1.357s0.655 1.357 1.464 1.357z"></path>
<path fill="#70728f" style="fill: var(--color7, #70728f)" d="M77.724 0.421h-67.755c0.376 0 0.577 0.134 0.608 0.403-0.001 0.015-0.001 0.031 0 0.046v1.007c0 0 0 0.015 0 0.024-0.045 0.203-0.388 0.344-0.63 0.405v0.026h67.777c0.141-0.001 0.276-0.056 0.375-0.155s0.155-0.232 0.155-0.371v-0.861c-0.001-0.139-0.057-0.272-0.156-0.37s-0.234-0.154-0.374-0.154z"></path>
<path fill="#70728f" style="fill: var(--color7, #70728f)" d="M31.728 26.486h-1.744c-0.105 0-0.154 0.048-0.154 0.141v3.489c0 0.097 0.049 0.143 0.154 0.143h0.31c0.102 0 0.154-0.046 0.154-0.143v-3.064h0.822v3.064c0 0.097 0.051 0.143 0.154 0.143h0.307c0.105 0 0.156-0.046 0.156-0.143v-3.483c-0.002-0.099-0.053-0.148-0.158-0.148z"></path>
<path fill="#70728f" style="fill: var(--color7, #70728f)" d="M33.321 29.693c-0.009 0.153-0.075 0.297-0.185 0.405-0.057 0.054-0.124 0.096-0.198 0.124s-0.153 0.040-0.232 0.037h-0.258c-0.102 0-0.154-0.046-0.154-0.143v-0.282c0-0.095 0.051-0.141 0.154-0.141h0.105c0.020 0.001 0.039-0.002 0.058-0.008s0.035-0.017 0.050-0.030c0.014-0.013 0.026-0.029 0.034-0.047s0.012-0.037 0.012-0.056l0.261-2.919c-0-0.019 0.004-0.039 0.012-0.057s0.019-0.034 0.034-0.047c0.014-0.013 0.032-0.023 0.050-0.030s0.038-0.009 0.058-0.007h1.488c0.105 0 0.156 0.049 0.156 0.141v3.489c0 0.097-0.051 0.143-0.156 0.143h-0.305c-0.1 0-0.154-0.046-0.154-0.143v-3.071h-0.617l-0.212 2.641z"></path>
<path fill="#70728f" style="fill: var(--color7, #70728f)" d="M36.149 30.26c-0.164 0.006-0.324-0.051-0.445-0.161-0.056-0.052-0.101-0.115-0.131-0.184s-0.045-0.145-0.043-0.221v-1.038c-0.001-0.076 0.013-0.151 0.043-0.221s0.074-0.133 0.131-0.184c0.121-0.11 0.281-0.168 0.445-0.163h0.829v-0.881c0-0.097-0.053-0.143-0.154-0.143h-0.515c-0.102 0-0.154 0.046-0.154 0.143v0.374c0 0.095-0.051 0.143-0.154 0.143h-0.316c-0.1 0-0.154-0.049-0.154-0.143v-0.529c-0.002-0.076 0.013-0.152 0.043-0.222s0.075-0.133 0.131-0.185c0.123-0.107 0.282-0.164 0.445-0.159h0.826c0.164-0.006 0.323 0.051 0.445 0.159 0.057 0.052 0.102 0.115 0.133 0.185s0.045 0.146 0.043 0.223v3.064c0 0.097-0.053 0.143-0.154 0.143h-1.296zM36.971 28.656h-0.668c-0.102 0-0.154 0.046-0.154 0.141v0.756c0 0.093 0.051 0.141 0.154 0.141h0.668v-1.038z"></path>
<path fill="#70728f" style="fill: var(--color7, #70728f)" d="M39.428 27.052v3.064c0 0.097-0.051 0.143-0.154 0.143h-0.292c-0.105 0-0.154-0.046-0.154-0.143v-3.064h-0.668c-0.102 0-0.154-0.048-0.154-0.143v-0.275c0-0.092 0.051-0.141 0.154-0.141h1.936c0.102 0 0.154 0.049 0.154 0.141v0.282c0 0.095-0.051 0.143-0.154 0.143l-0.668-0.007z"></path>
<path fill="#70728f" style="fill: var(--color7, #70728f)" d="M43.781 26.645c-0.122-0.108-0.282-0.164-0.445-0.159h-2.056c-0.163-0.005-0.323 0.052-0.445 0.159-0.057 0.052-0.102 0.115-0.132 0.185s-0.044 0.146-0.042 0.222v2.643c-0.002 0.076 0.013 0.151 0.043 0.221s0.075 0.133 0.131 0.184c0.121 0.109 0.281 0.167 0.445 0.161h0.72v1.179c0 0.095 0.053 0.141 0.156 0.141h0.307c0.102 0 0.154-0.046 0.154-0.141v-1.179h0.719c0.081 0.004 0.163-0.009 0.239-0.036s0.147-0.070 0.206-0.124c0.057-0.051 0.102-0.114 0.132-0.184s0.045-0.145 0.044-0.221v-2.643c0.002-0.076-0.013-0.152-0.043-0.223s-0.076-0.133-0.133-0.185zM41.998 29.693h-0.566c-0.102 0-0.156-0.049-0.156-0.141v-2.357c0-0.097 0.053-0.143 0.156-0.143h0.564l0.002 2.641zM43.335 29.552c0 0.093-0.051 0.141-0.154 0.141h-0.566v-2.643h0.566c0.102 0 0.154 0.046 0.154 0.143v2.359z"></path>
<path fill="#70728f" style="fill: var(--color7, #70728f)" d="M46.833 29.693c0.002 0.076-0.013 0.152-0.043 0.222s-0.076 0.133-0.133 0.184c-0.121 0.11-0.281 0.167-0.445 0.161h-0.822c-0.164 0.006-0.324-0.052-0.446-0.161-0.056-0.052-0.101-0.115-0.131-0.184s-0.045-0.145-0.043-0.221v-2.643c-0.002-0.076 0.013-0.152 0.043-0.222s0.075-0.133 0.131-0.185c0.123-0.107 0.282-0.164 0.446-0.159h0.822c0.163-0.005 0.323 0.052 0.445 0.159 0.057 0.051 0.103 0.114 0.133 0.185s0.045 0.146 0.043 0.223v2.643zM46.215 27.196c0-0.097-0.051-0.143-0.154-0.143h-0.515c-0.102 0-0.154 0.046-0.154 0.143v2.357c0 0.093 0.051 0.141 0.154 0.141h0.515c0.102 0 0.154-0.048 0.154-0.141v-2.357z"></path>
<path fill="#70728f" style="fill: var(--color7, #70728f)" d="M49.534 26.645c-0.123-0.107-0.282-0.164-0.445-0.159h-1.285c-0.102 0-0.154 0.048-0.154 0.141v4.811c0 0.095 0.051 0.141 0.154 0.141h0.312c0.105 0 0.154-0.046 0.154-0.141v-1.178h0.824c0.164 0.006 0.324-0.051 0.445-0.161 0.057-0.051 0.102-0.114 0.132-0.184s0.045-0.145 0.044-0.221v-2.643c0.001-0.076-0.015-0.152-0.046-0.222s-0.077-0.132-0.135-0.183zM49.089 29.552c0 0.093-0.053 0.141-0.154 0.141h-0.668v-2.643h0.668c0.1 0 0.154 0.046 0.154 0.143v2.359z"></path>
<path fill="#70728f" style="fill: var(--color7, #70728f)" d="M51.864 29.458c-0.045 0.005-0.091-0.007-0.128-0.032s-0.064-0.065-0.074-0.108l-0.517-1.557v2.357c0 0.097-0.049 0.143-0.154 0.143h-0.307c-0.102 0-0.154-0.046-0.154-0.143v-3.483c0-0.093 0.051-0.141 0.154-0.141h0.412c0.045-0.003 0.090 0.010 0.127 0.036s0.065 0.063 0.078 0.105l0.668 1.982 0.668-1.982c0.012-0.044 0.039-0.082 0.076-0.107s0.083-0.038 0.128-0.034h0.412c0.102 0 0.154 0.048 0.154 0.141v3.489c0 0.097-0.051 0.143-0.154 0.143h-0.307c-0.105 0-0.156-0.046-0.156-0.143v-2.357l-0.512 1.557c-0.013 0.044-0.040 0.081-0.078 0.107s-0.083 0.038-0.129 0.034l-0.207-0.007z"></path>
<path fill="#70728f" style="fill: var(--color7, #70728f)" d="M54.798 30.26c-0.164 0.006-0.324-0.051-0.446-0.161-0.056-0.051-0.101-0.114-0.131-0.184s-0.045-0.145-0.043-0.221v-1.038c-0.002-0.076 0.013-0.151 0.043-0.221s0.075-0.133 0.131-0.184c0.121-0.11 0.281-0.168 0.446-0.163h0.822v-0.881c0-0.097-0.053-0.143-0.154-0.143h-0.515c-0.102 0-0.154 0.046-0.154 0.143v0.374c0 0.095-0.051 0.143-0.154 0.143h-0.314c-0.102 0-0.154-0.049-0.154-0.143v-0.529c-0.002-0.076 0.012-0.152 0.042-0.222s0.075-0.133 0.132-0.185c0.123-0.107 0.282-0.164 0.445-0.159h0.822c0.164-0.006 0.323 0.051 0.445 0.159 0.057 0.052 0.102 0.115 0.133 0.185s0.045 0.146 0.043 0.223v3.064c0 0.097-0.053 0.143-0.154 0.143h-1.288zM55.62 28.656h-0.668c-0.102 0-0.154 0.046-0.154 0.141v0.756c0 0.093 0.051 0.141 0.154 0.141h0.668v-1.038z"></path>
<path fill="#70728f" style="fill: var(--color7, #70728f)" d="M58.286 26.634c0-0.092 0.051-0.141 0.154-0.141h0.307c0.105 0 0.154 0.049 0.154 0.141v3.489c0 0.097-0.049 0.143-0.154 0.143h-0.307c-0.102 0-0.154-0.046-0.154-0.143v-3.489z"></path>
<path fill="#70728f" style="fill: var(--color7, #70728f)" d="M61.162 28.561h-0.822v1.555c0 0.097-0.051 0.143-0.154 0.143h-0.307c-0.105 0-0.154-0.046-0.154-0.143v-3.483c0-0.092 0.049-0.141 0.154-0.141h0.307c0.102 0 0.154 0.049 0.154 0.141v1.368h0.822v-1.368c0-0.092 0.051-0.141 0.154-0.141h0.307c0.105 0 0.156 0.049 0.156 0.141v3.489c0 0.097-0.051 0.143-0.156 0.143h-0.307c-0.102 0-0.154-0.046-0.154-0.143v-1.562z"></path>
<path fill="#70728f" style="fill: var(--color7, #70728f)" d="M62.594 26.634c0-0.092 0.049-0.141 0.154-0.141h0.307c0.102 0 0.154 0.049 0.154 0.141v3.489c0 0.097-0.051 0.143-0.154 0.143h-0.307c-0.105 0-0.154-0.046-0.154-0.143v-3.489z"></path>
<path fill="#70728f" style="fill: var(--color7, #70728f)" d="M64.192 30.26c-0.102 0-0.154-0.046-0.154-0.143v-3.483c0-0.092 0.051-0.141 0.154-0.141h0.307c0.105 0 0.154 0.049 0.154 0.141v3.066h0.719v-3.066c0-0.092 0.051-0.141 0.156-0.141h0.307c0.102 0 0.154 0.049 0.154 0.141v3.066h0.258c0.102 0 0.154 0.046 0.154 0.141v1.037c0 0.093-0.051 0.141-0.154 0.141h-0.312c-0.102 0-0.154-0.048-0.154-0.141v-0.612l-1.59-0.007z"></path>
<path fill="#70728f" style="fill: var(--color7, #70728f)" d="M66.964 26.634c0-0.092 0.051-0.141 0.156-0.141h0.307c0.102 0 0.154 0.049 0.154 0.141v3.489c0 0.097-0.051 0.143-0.154 0.143h-0.307c-0.105 0-0.156-0.046-0.156-0.143v-3.489z"></path>
<path fill="#70728f" style="fill: var(--color7, #70728f)" d="M68.97 30.259c-0.081 0.003-0.163-0.009-0.239-0.037s-0.147-0.070-0.207-0.124c-0.056-0.051-0.101-0.114-0.131-0.184s-0.044-0.145-0.043-0.221v-1.037c-0.002-0.076 0.013-0.151 0.043-0.221s0.075-0.133 0.131-0.184c0.060-0.055 0.13-0.097 0.206-0.125s0.158-0.041 0.239-0.038h0.82v-0.881c0-0.097-0.051-0.143-0.154-0.143h-0.512c-0.105 0-0.154 0.046-0.154 0.143v0.374c0 0.095-0.053 0.143-0.154 0.143h-0.31c-0.102 0-0.154-0.048-0.154-0.143v-0.529c-0.002-0.076 0.012-0.152 0.042-0.222s0.075-0.133 0.132-0.185c0.122-0.107 0.282-0.164 0.445-0.159h0.82c0.164-0.007 0.324 0.050 0.445 0.159 0.057 0.051 0.103 0.114 0.133 0.185s0.045 0.146 0.043 0.223v3.064c0 0.097-0.051 0.143-0.154 0.143h-1.29zM69.789 28.656h-0.668c-0.105 0-0.154 0.046-0.154 0.141v0.756c0 0.093 0.049 0.141 0.154 0.141h0.668v-1.037z"></path>
<path fill="#70728f" style="fill: var(--color7, #70728f)" d="M72.254 27.052v3.064c0 0.097-0.051 0.143-0.154 0.143h-0.307c-0.102 0-0.154-0.046-0.154-0.143v-3.064h-0.668c-0.102 0-0.154-0.048-0.154-0.143v-0.275c0-0.092 0.051-0.141 0.154-0.141h1.954c0.1 0 0.154 0.049 0.154 0.141v0.282c0 0.095-0.053 0.143-0.154 0.143l-0.67-0.007z"></path>
<path fill="#70728f" style="fill: var(--color7, #70728f)" d="M74.103 30.116c-0.014 0.043-0.041 0.080-0.078 0.106s-0.082 0.039-0.127 0.037h-0.256c-0.105 0-0.154-0.046-0.154-0.143v-3.483c0-0.092 0.049-0.141 0.154-0.141h0.312c0.102 0 0.154 0.049 0.154 0.141v2.121l0.822-2.121c0.016-0.041 0.044-0.076 0.081-0.102s0.080-0.039 0.124-0.039h0.256c0.105 0 0.156 0.049 0.156 0.141v3.489c0 0.097-0.051 0.143-0.156 0.143h-0.307c-0.102 0-0.154-0.046-0.154-0.143v-2.121l-0.826 2.115z"></path>
<path fill="#70728f" style="fill: var(--color7, #70728f)" d="M78.213 27.806c0.003 0.077-0.015 0.152-0.051 0.22-0.029 0.048-0.063 0.092-0.102 0.132-0.047 0.030-0.099 0.053-0.154 0.068 0.072 0.018 0.141 0.045 0.205 0.081 0.059 0.042 0.108 0.095 0.145 0.156 0.044 0.086 0.065 0.181 0.060 0.277v0.945c0.002 0.076-0.013 0.151-0.043 0.221s-0.075 0.133-0.131 0.184c-0.060 0.054-0.13 0.097-0.207 0.124s-0.158 0.040-0.239 0.037h-1.181c-0.102 0-0.154-0.046-0.154-0.143v-3.524c0.004-0.004 0.007-0.008 0.009-0.013s0.003-0.010 0.002-0.015c0.020-0.046 0.069-0.066 0.143-0.066h1.080c0.164-0.006 0.323 0.051 0.446 0.159 0.057 0.052 0.102 0.115 0.132 0.185s0.044 0.146 0.042 0.222l-0.002 0.749zM77.598 27.195c0-0.097-0.053-0.143-0.156-0.143h-0.461v0.943h0.461c0.102 0 0.156-0.048 0.156-0.141v-0.659zM77.698 28.702c0-0.095-0.049-0.141-0.154-0.141h-0.564v1.132h0.564c0.105 0 0.154-0.049 0.154-0.141v-0.85z"></path>
<path fill="#70728f" style="fill: var(--color7, #70728f)" d="M29.136 10.93c-0.505-0.376-1.126-0.568-1.758-0.544h-5.103c-0.41 0-0.613 0.161-0.613 0.48v19.005c0 0.258 0.203 0.388 0.613 0.388h1.225c0.41 0 0.613-0.13 0.613-0.388v-6.723h3.27c0.631 0.025 1.252-0.166 1.758-0.542 0.218-0.157 0.395-0.364 0.516-0.603s0.182-0.503 0.179-0.77v-8.934c0.002-0.267-0.060-0.531-0.182-0.769s-0.299-0.444-0.518-0.601zM27.379 20.757c0 0.319-0.205 0.478-0.613 0.478h-2.658v-8.934h2.658c0.408 0 0.613 0.161 0.613 0.48v7.976z"></path>
</symbol>
<symbol id="icon-unicef-logo" viewBox="0 0 127 32">
<path fill="#70728f" style="fill: var(--color7, #70728f)" d="M109.286 0.727c-6.594 0-12.024 5.333-12.024 12.024 0 6.594 5.333 12.024 12.024 12.024 6.594 0 12.024-5.333 12.024-12.024s-5.43-12.024-12.024-12.024zM118.595 6.061c-0.582 0.388-1.261 0.776-1.939 1.164-0.388-0.776-0.873-1.551-1.455-2.23 0.485-0.291 0.97-0.679 1.358-0.97 0.873 0.485 1.552 1.261 2.036 2.036zM113.552 2.085c0.97 0.388 1.842 0.873 2.715 1.551-0.388 0.388-0.873 0.679-1.358 0.97-0.582-0.679-1.261-1.261-1.939-1.842 0.194-0.291 0.388-0.485 0.582-0.679zM114.522 4.8c-0.679 0.388-1.358 0.582-2.036 0.873-0.291-0.679-0.582-1.358-0.97-1.939 0.388-0.194 0.776-0.388 1.067-0.679 0.679 0.485 1.358 1.067 1.939 1.745zM113.068 1.891c-0.194 0.194-0.388 0.388-0.485 0.582-0.679-0.388-1.261-0.776-2.036-1.067 0.873 0 1.745 0.194 2.521 0.485zM112.195 2.764c-0.291 0.194-0.582 0.388-0.873 0.485-0.388-0.582-0.776-1.067-1.164-1.649 0.679 0.291 1.358 0.679 2.036 1.164zM109.48 1.697c0.485 0.485 0.873 1.067 1.261 1.745-0.388 0.097-0.776 0.194-1.261 0.194v-1.939zM109.48 4.121c0.485 0 1.067-0.097 1.552-0.291 0.388 0.582 0.679 1.261 0.97 1.939-0.776 0.194-1.648 0.291-2.521 0.388v-2.036zM108.995 1.697v1.939c-0.388 0-0.776-0.097-1.261-0.194 0.485-0.582 0.873-1.164 1.261-1.745zM107.346 3.248c-0.291-0.097-0.679-0.291-0.873-0.485 0.679-0.388 1.358-0.776 2.036-1.067-0.485 0.485-0.873 0.97-1.164 1.552zM108.025 1.309c-0.679 0.291-1.358 0.679-2.036 1.067-0.194-0.194-0.388-0.388-0.485-0.582 0.776-0.194 1.648-0.388 2.521-0.485zM116.268 21.867c-1.552-0.873-1.648-2.133-1.552-2.521 0.097-0.485 0.388-0.291 0.582-0.291 1.067 0 2.133-0.291 3.491-1.745 1.552-1.552 2.036-5.042-0.388-7.273-2.521-2.424-5.236-2.036-6.982 0.194-0.388 0.485-1.261 0.776-1.939 0.776-1.164 0-0.388 0.873-0.388 1.067s-0.194 0.291-0.291 0.291c-0.388-0.097-0.194 0.485-0.194 0.582s-0.194 0.291-0.194 0.291c-0.485 0-0.388 0.388-0.291 0.582 0 0.097 0 0.291-0.194 0.388s-0.291 0.485-0.291 0.776c0 0.485 0.485 0.873 1.261 1.455s0.873 1.164 0.873 1.552c0 0.388 0.097 1.067 0.194 1.455 0.194 0.485 0.194 1.455-0.873 1.455-1.358 0.097-3.685 1.067-3.879 1.164-0.776 0.291-1.745 0.388-2.521 0.194-0.388-0.291-0.776-0.582-1.164-0.97-0.194-0.485 0.097-1.067 0.388-1.455 0.485 0.485 1.067 0.388 1.455 0.388s2.133-0.291 2.424-0.388c0.291-0.097 0.388-0.097 0.485 0 0.679 0.291 1.648 0.291 2.036-0.97 0.388-1.358-0.485-0.97-0.679-0.873-0.097 0.097-0.291 0-0.194-0.097 0.194-0.291-0.097-0.291-0.194-0.291-0.388 0-0.873 0.388-0.97 0.485-0.194 0.097-0.291 0.097-0.388 0.097-0.485-0.291-1.939 0.097-2.424-0.679 0-0.194-0.388-3.394-0.582-3.976 0-0.097-0.097-0.291 0.097-0.485 0.388-0.582 1.358 0 1.939 0 0.679 0 0.776-0.291 0.97-0.485s0.291-0.097 0.388-0.194c0.097-0.097 0-0.194 0-0.291s0.097 0 0.194-0.097c0.097-0.097 0-0.291 0-0.388 0.194-0.291 0.582-0.097 0.388-0.679-0.097-0.388 0.097-0.776 0.291-0.97 0.291-0.388 1.552-2.133-0.582-3.976-2.036-1.745-4.17-1.551-5.527-0.097s-0.679 3.588-0.582 4.17c0.097 0.582-0.291 1.067-0.776 1.261-0.388 0.194-1.261 0.776-1.842 1.261 0.097-4.655 2.909-8.727 7.176-10.376 0.194 0.194 0.388 0.485 0.582 0.679-0.485 0.388-1.552 1.261-1.552 1.261s0.097 0 0.291 0.097c0.097 0 0.291 0.097 0.291 0.097s0.873-0.776 1.358-1.067c0.291 0.291 0.679 0.485 1.067 0.679-0.194 0.388-0.776 1.358-0.776 1.358s0.097 0.097 0.194 0.097c0.097 0.097 0.194 0.097 0.194 0.097s0.582-1.067 0.776-1.455c0.485 0.194 0.97 0.291 1.455 0.291v1.939c-0.291 0-0.97 0-1.261-0.097h-0.194l0.097 0.194c0.097 0.097 0.097 0.194 0.194 0.291 0.194 0 0.873 0 1.164 0v3.588h0.485v-0.873c0.776 0 1.358-0.097 2.036-0.194l0.679-0.582h-0.388c-0.776 0.097-1.455 0.194-2.036 0.194 0 0-0.194 0-0.291 0v-2.23c0.873 0 1.842-0.097 2.715-0.388 0.194 0.582 0.679 2.036 0.679 2.036l0.485-0.194c0 0-0.485-1.455-0.679-2.036 0.776-0.194 1.455-0.582 2.133-0.873 0.582 0.679 1.067 1.455 1.455 2.23-0.388 0.194-0.97 0.388-0.97 0.388 0.485 0.097 0.873 0.194 0.873 0.194s0.194-0.097 0.291-0.097c0 0.097 0.097 0.291 0.097 0.291l0.679 0.291-0.097-0.194c0 0-0.194-0.485-0.291-0.582 0.679-0.291 1.358-0.679 2.036-1.164 1.261 1.842 1.842 4.073 1.842 6.303 0.194 3.685-1.648 6.982-4.364 9.115z"></path>
<path fill="#70728f" style="fill: var(--color7, #70728f)" d="M96.194 3.927l-0.194 0.194c-0.679 0.582-2.327 2.23-2.036 4.073v0.097l0.097 0.388 0.194-0.194c0.97-0.873 1.745-2.424 2.036-4.17l0.097-0.485-0.194 0.097z"></path>
<path fill="#70728f" style="fill: var(--color7, #70728f)" d="M92.897 7.030l-0.097 0.194c-0.097 0.291-0.291 0.97-0.388 1.745-0.194 1.164-0.097 2.909 0.873 4.17l0.194 0.388 0.194-0.776c0.194-1.358-0.097-4.17-0.582-5.43l-0.194-0.388v0.097z"></path>
<path fill="#70728f" style="fill: var(--color7, #70728f)" d="M91.734 11.879v0.194c-0.097 1.164 0 4.17 2.424 5.818l0.291 0.194v-0.388c0-1.164-1.358-4.558-2.327-5.721l-0.291-0.388-0.097 0.291z"></path>
<path fill="#70728f" style="fill: var(--color7, #70728f)" d="M92.121 17.212v0.194c0.388 1.745 1.939 4.461 4.461 5.333l0.388 0.097-0.097-0.388c-0.485-1.261-2.909-4.267-4.461-5.236l-0.291-0.194v0.194z"></path>
<path fill="#70728f" style="fill: var(--color7, #70728f)" d="M97.26 6.545l-0.291 0.097c-1.842 1.164-2.715 2.521-2.715 4.267v0.388l0.291-0.194c0.97-0.873 2.327-3.006 2.618-4.17l0.097-0.485v0.097z"></path>
<path fill="#70728f" style="fill: var(--color7, #70728f)" d="M96.098 10.23l-0.097 0.194c-0.485 0.485-2.036 2.133-1.939 4.17 0 0.291 0.097 0.679 0.194 0.97l0.097 0.291 0.194-0.291c0.776-1.067 1.745-3.782 1.648-5.042v-0.388l-0.097 0.097z"></path>
<path fill="#70728f" style="fill: var(--color7, #70728f)" d="M96.194 13.818l-0.097 0.194c-0.776 1.164-1.164 2.327-1.164 3.491 0 0.776 0.291 1.552 0.776 2.327l0.194 0.291 0.097-0.291c0.291-0.679 0.582-2.715 0.582-4.364 0-0.582-0.097-1.067-0.194-1.358l-0.097-0.388-0.097 0.097z"></path>
<path fill="#70728f" style="fill: var(--color7, #70728f)" d="M97.067 17.6l-0.097 0.194c-0.194 0.776-0.388 1.455-0.291 2.23 0 1.551 0.775 2.812 2.133 3.685l0.194 0.097 0.097-0.291v-0.291c0-1.261-0.97-4.558-1.745-5.527l-0.194-0.291-0.097 0.194z"></path>
<path fill="#70728f" style="fill: var(--color7, #70728f)" d="M94.449 22.642l0.097 0.194c0.97 1.648 2.715 3.879 5.915 3.297h0.291l-0.194-0.194c-0.582-0.873-4.461-3.103-5.818-3.297l-0.388-0.097 0.097 0.097z"></path>
<path fill="#70728f" style="fill: var(--color7, #70728f)" d="M99.201 26.909l-0.485 0.097 0.485 0.194c2.036 0.873 4.558 1.067 6.109 0.582 0.582-0.194 0.873-0.485 1.261-0.873 2.618 0.291 5.042 2.424 6.497 4.17l0.097 0.097h0.097c0.194-0.097 0.388-0.291 0.485-0.388l0.097-0.097-0.097-0.097c-1.455-1.939-3.782-3.103-3.879-3.2-2.133-0.97-5.818-1.745-10.667-0.485z"></path>
<path fill="#70728f" style="fill: var(--color7, #70728f)" d="M99.298 21.479v0.194c0.291 1.939 1.067 4.461 4.364 4.17h0.194l-0.097-0.194c-0.194-0.873-3.2-3.394-4.267-4.073l-0.291-0.194 0.097 0.097z"></path>
<path fill="#70728f" style="fill: var(--color7, #70728f)" d="M122.182 3.733l0.097 0.485c0.291 1.745 1.067 3.297 2.036 4.17l0.194 0.194 0.097-0.388v-0.097c0.291-1.842-1.358-3.491-2.036-4.073l-0.194-0.194-0.194-0.097z"></path>
<path fill="#70728f" style="fill: var(--color7, #70728f)" d="M125.577 6.836l-0.194 0.388c-0.485 1.261-0.679 4.073-0.582 5.43l0.194 0.776 0.097-0.097 0.097-0.194c1.067-1.261 1.067-2.909 0.873-4.17-0.097-0.873-0.291-1.455-0.388-1.745l-0.097-0.194v-0.194z"></path>
<path fill="#70728f" style="fill: var(--color7, #70728f)" d="M126.836 11.685l-0.291 0.388c-0.97 1.261-2.327 4.558-2.327 5.721v0.388l0.291-0.194c2.424-1.552 2.521-4.558 2.424-5.818v-0.194l-0.097-0.291z"></path>
<path fill="#70728f" style="fill: var(--color7, #70728f)" d="M126.449 17.018l-0.388 0.194c-1.552 0.97-3.976 3.976-4.461 5.236l-0.097 0.388 0.388-0.097c2.521-0.776 4.17-3.588 4.461-5.333v-0.194l0.097-0.194z"></path>
<path fill="#70728f" style="fill: var(--color7, #70728f)" d="M121.309 6.352l0.097 0.485c0.388 1.261 1.552 3.394 2.618 4.267l0.291 0.194v-0.388c0.097-1.745-0.776-3.103-2.618-4.267l-0.194-0.097-0.194-0.194z"></path>
<path fill="#70728f" style="fill: var(--color7, #70728f)" d="M122.376 10.133v0.388c-0.097 1.261 0.97 4.073 1.648 5.042l0.194 0.291 0.097-0.291c0.097-0.388 0.194-0.679 0.194-0.97 0.097-2.036-1.455-3.685-1.939-4.17l-0.097-0.097-0.097-0.194z"></path>
<path fill="#70728f" style="fill: var(--color7, #70728f)" d="M122.28 13.624l-0.097 0.388c-0.097 0.291-0.194 0.776-0.194 1.358 0 1.649 0.194 3.685 0.582 4.364l0.097 0.291 0.194-0.291c0.485-0.679 0.776-1.455 0.776-2.327 0-1.067-0.388-2.327-1.164-3.491l-0.097-0.194-0.097-0.097z"></path>
<path fill="#70728f" style="fill: var(--color7, #70728f)" d="M121.405 17.406l-0.194 0.291c-0.776 0.97-1.745 4.267-1.745 5.527 0 0 0 0.194 0 0.291l0.097 0.291 0.194-0.097c1.358-0.873 2.036-2.133 2.133-3.685 0-0.679-0.097-1.455-0.291-2.23l-0.194-0.388z"></path>
<path fill="#70728f" style="fill: var(--color7, #70728f)" d="M124.218 22.448l-0.388 0.097c-1.358 0.194-5.236 2.424-5.818 3.297l-0.194 0.194h0.291c3.2 0.582 4.945-1.648 5.915-3.297l0.097-0.194 0.097-0.097z"></path>
<path fill="#70728f" style="fill: var(--color7, #70728f)" d="M108.8 27.394c-0.097 0-2.424 1.261-3.879 3.2l-0.097 0.097 0.097 0.097c0.097 0.097 0.388 0.291 0.485 0.388h0.097l0.097-0.097c1.455-1.745 3.879-3.976 6.497-4.17 0.388 0.388 0.776 0.679 1.261 0.873 1.455 0.485 4.073 0.291 6.109-0.582l0.485-0.194-0.485-0.097c-4.945-1.261-8.63-0.485-10.667 0.485z"></path>
<path fill="#70728f" style="fill: var(--color7, #70728f)" d="M119.272 21.285l-0.291 0.194c-1.067 0.679-3.976 3.2-4.267 4.073l-0.097 0.194h0.194c3.2 0.291 3.976-2.23 4.364-4.17v-0.194l0.097-0.097z"></path>
<path fill="#70728f" style="fill: var(--color7, #70728f)" d="M37.43 1.891h4.073v3.685h-4.073v-3.685zM37.818 9.842h3.394v18.036h-3.394v-18.036z"></path>
<path fill="#70728f" style="fill: var(--color7, #70728f)" d="M12.121 9.842h3.394v18.036h-3.297v-2.618h-0.097c-1.358 2.23-3.685 3.2-6.206 3.2-3.782 0-5.915-2.909-5.915-6.497v-12.121h3.394v10.667c0 3.103 0.679 5.43 3.976 5.43 1.358 0 3.297-0.679 3.976-2.618 0.679-1.648 0.679-3.782 0.679-4.267v-9.212h0.097z"></path>
<path fill="#70728f" style="fill: var(--color7, #70728f)" d="M22.303 12.461c1.261-2.23 3.685-3.2 5.527-3.2 1.261 0 6.788 0.291 6.788 6.109v12.412h-3.394v-11.345c0-3.006-1.261-4.558-4.17-4.558 0 0-1.842-0.097-3.297 1.358-0.485 0.485-1.455 1.261-1.455 4.848v9.794h-3.394v-18.036h3.394v2.618z"></path>
<path fill="#70728f" style="fill: var(--color7, #70728f)" d="M55.467 15.564c-0.194-2.23-1.261-3.782-3.685-3.782-3.2 0-4.461 2.812-4.461 6.982s1.261 6.982 4.461 6.982c2.23 0 3.588-1.455 3.782-4.073h3.394c-0.291 4.073-3.297 6.497-7.273 6.497-5.721 0-8.049-4.073-8.049-9.309s2.618-9.6 8.339-9.6c3.782 0 6.594 2.424 6.788 6.303h-3.297z"></path>
<path fill="#70728f" style="fill: var(--color7, #70728f)" d="M64.001 19.442c-0.291 3.103 1.067 6.4 4.461 6.4 2.618 0 3.976-1.067 4.364-3.685h3.588c-0.582 4.073-3.685 6.109-7.951 6.109-5.721 0-8.049-4.073-8.049-9.309s2.618-9.6 8.339-9.6c5.333 0.097 7.855 3.491 7.855 8.436v1.648h-12.606zM73.116 17.115c0.097-3.006-1.261-5.333-4.558-5.333-2.812 0-4.461 2.424-4.461 5.333h9.018z"></path>
<path fill="#70728f" style="fill: var(--color7, #70728f)" d="M80.486 27.685v-15.515h-3.103v-2.327h3.103v-3.879c0.097-3.879 3.103-4.945 5.624-4.945 0.776 0 1.648 0.194 2.424 0.388v2.812c-0.582 0-1.164-0.097-1.745-0.097-1.939 0-3.006 0.485-2.909 2.424v3.297h4.17v2.327h-4.17v15.515h-3.394z"></path>
</symbol>
<symbol id="icon-user" viewBox="0 0 32 32">
<path fill="#fff" style="fill: var(--color1, #fff)" d="M16 17.333c3.195 0 6.1 0.925 8.237 2.229 1.067 0.651 1.979 1.419 2.637 2.253 0.648 0.82 1.125 1.801 1.125 2.851 0 1.127-0.548 2.015-1.337 2.648-0.747 0.6-1.732 0.997-2.779 1.275-2.104 0.556-4.912 0.744-7.884 0.744s-5.78-0.187-7.884-0.744c-1.047-0.277-2.032-0.675-2.779-1.275-0.791-0.635-1.337-1.521-1.337-2.648 0-1.049 0.477-2.031 1.125-2.852 0.659-0.833 1.569-1.6 2.637-2.253 2.137-1.301 5.044-2.228 8.237-2.228zM16 2.667c1.768 0 3.464 0.702 4.714 1.953s1.953 2.946 1.953 4.714-0.702 3.464-1.953 4.714c-1.25 1.25-2.946 1.953-4.714 1.953s-3.464-0.702-4.714-1.953c-1.25-1.25-1.953-2.946-1.953-4.714s0.702-3.464 1.953-4.714c1.25-1.25 2.946-1.953 4.714-1.953z"></path>
</symbol>
</defs>
</svg>
