<svg width="56" height="52" viewBox="0 0 56 52" fill="none" xmlns="http://www.w3.org/2000/svg">
<g clip-path="url(#clip0_1214_976)">
<path d="M11.852 6.48697C11.9359 6.7194 11.9359 7.12085 11.8939 7.6491L11.873 7.81813C11.852 7.96604 11.852 8.07169 11.852 8.13507L11.831 9.99448V10.1213V10.2058C11.831 10.6495 11.81 11.0087 11.7471 11.2623C11.7261 11.3468 11.7051 11.4313 11.6632 11.5158C11.4114 12.2131 10.845 12.7202 9.9849 13.0583C9.22968 13.3541 8.34858 13.502 7.32064 13.502C7.2577 13.502 7.17379 13.502 7.0689 13.502H7.02694L6.79618 13.4809C6.56541 13.4597 6.31368 13.4597 6.0829 13.4175L5.85214 13.3963H5.81019C5.66334 13.3752 5.55844 13.3541 5.49552 13.333L5.34867 13.3118C4.99204 13.2484 4.6354 13.1639 4.29974 13.0583C4.15289 13.016 4.00604 12.9526 3.88018 12.9104L3.7543 12.8681C3.062 12.6146 2.45363 12.1708 1.9082 11.5158C1.36276 10.8608 0.922208 10.1635 0.628509 9.46624C0.271874 8.68445 0.0830684 7.81813 0.0411115 6.90955C-0.000845399 6.02211 0.125025 5.1558 0.397745 4.33175C0.48166 4.09932 0.565573 3.88803 0.649488 3.67673C0.943186 3.00058 1.36276 2.40895 1.86624 1.88071C2.3907 1.35246 2.97809 0.951003 3.6494 0.676316L3.69137 0.634058L3.88018 0.570669L3.90115 0.549539C4.15289 0.443891 4.46758 0.359372 4.80322 0.274854L4.97105 0.232594L5.01301 0.211464H5.03398C6.35563 -0.0843499 7.69825 -0.0632202 9.04088 0.274854C9.08283 0.295984 9.12479 0.295984 9.16674 0.317114C10.1317 0.570669 10.824 1.07778 11.2646 1.77506C11.3905 1.98636 11.4534 2.17653 11.4534 2.36668C11.4534 2.5146 11.3695 2.70476 11.2226 2.95831C10.9919 3.35978 10.7401 3.57108 10.4674 3.5922C10.3835 3.61333 10.3206 3.5922 10.2366 3.57108H10.2157H10.1737L9.92198 3.48656L9.9849 3.46543C9.96392 3.46543 9.96392 3.46543 9.94295 3.4443C9.90099 3.42317 9.85904 3.40203 9.83805 3.38091C9.6912 3.29638 9.48143 3.233 9.22968 3.14848C9.18773 3.12735 9.1038 3.12735 9.01989 3.0851C8.43249 2.91606 7.8451 2.85268 7.27869 2.85268C6.29269 2.89493 5.47453 3.19075 4.80322 3.74011C4.08995 4.31061 3.6494 5.1558 3.52354 6.27567C3.43963 6.97295 3.48158 7.60683 3.67039 8.2196C3.7543 8.40977 3.81724 8.59992 3.92213 8.7901C4.27876 9.46624 4.76127 9.97335 5.41159 10.2903C6.06193 10.6072 6.73324 10.6918 7.46749 10.565C7.90803 10.4805 8.22272 10.3114 8.39054 10.0579C8.51642 9.8677 8.55837 9.63527 8.55837 9.36059C8.53739 9.0859 8.45348 8.85348 8.30663 8.64219C8.09685 8.38863 7.71924 8.24072 7.19478 8.24072C7.15281 8.24072 7.04793 8.24072 6.92205 8.26185C6.83814 8.28298 6.73324 8.28298 6.64933 8.26185C6.54444 8.26185 6.46053 8.24072 6.3766 8.2196C6.29269 8.19847 6.22975 8.1562 6.16683 8.07169C6.10389 7.98717 6.06193 7.88152 6.01998 7.75475C5.91508 7.24763 5.87313 6.8673 5.89411 6.61375C5.87313 6.59261 5.87313 6.55035 5.87313 6.48697L5.89411 6.46583C5.97802 6.06437 6.1878 5.78968 6.4815 5.64178C6.64933 5.55726 6.88009 5.53613 7.19478 5.53613C7.3626 5.53613 7.59336 5.53613 7.90803 5.515H7.92902L8.11782 5.49387H8.13879H8.18076C8.53739 5.47275 8.83109 5.47275 9.08283 5.49387C9.2087 5.49387 9.3975 5.49387 9.64925 5.47275C10.1317 5.45161 10.4674 5.45161 10.7191 5.515C10.887 5.55726 11.0338 5.59952 11.1807 5.68403C11.3275 5.76855 11.4744 5.8742 11.6002 6.02211C11.7051 6.1489 11.7891 6.31793 11.852 6.48697Z" fill="white"/>
<path d="M23.8093 11.4102C23.9561 11.7694 23.977 12.0864 23.8722 12.361C23.7883 12.6146 23.5994 12.847 23.2847 13.0161C22.7603 13.333 22.173 13.3964 21.5226 13.1851C21.2918 13.1006 21.1031 12.9949 20.9142 12.847C20.7255 12.6991 20.5785 12.5512 20.4947 12.4244C20.4108 12.2977 20.264 12.1075 20.0961 11.8539L19.5296 10.9876L18.9003 10.0368L18.8163 9.93113C18.5437 9.48741 18.2919 9.21273 18.0401 9.08595C17.8723 9.00143 17.7254 9.00143 17.6206 9.02256C17.5157 9.06483 17.3899 9.17048 17.2849 9.31838C17.0962 9.59306 16.9913 9.93113 16.9492 10.3115C16.9073 10.6918 16.9073 11.051 16.9492 11.368C16.9703 11.706 16.9913 11.9596 16.9913 12.1286C16.9913 12.3822 16.9492 12.5935 16.8655 12.7414C16.7605 12.9104 16.5927 13.0583 16.3619 13.164C16.0892 13.2907 15.7535 13.3541 15.3759 13.3541C14.5997 13.3541 14.0752 13.1428 13.8025 12.7202C13.6976 12.5512 13.6347 12.2765 13.6137 11.8962C13.5927 11.6638 13.5927 11.4102 13.5718 11.1355V11.0933V10.7763C13.5508 10.5228 13.5508 10.2692 13.5508 9.99453V9.67758V9.63533C13.5508 9.25498 13.5508 8.66336 13.5718 7.90269C13.5927 7.1209 13.5927 6.52926 13.5927 6.12781V2.83159C13.5927 2.13431 13.6557 1.60606 13.7815 1.22573H13.8025V1.18347L13.8235 1.14121C13.8864 0.993306 13.9494 0.887658 14.0333 0.80314C14.1382 0.655233 14.348 0.549584 14.6626 0.486196C14.7466 0.465066 14.8095 0.443936 14.8515 0.422806C15.0613 0.380548 15.271 0.317159 15.4807 0.274899H15.5018L15.6277 0.253769C15.6486 0.253769 15.6696 0.253769 15.6906 0.253769L15.7954 0.232639C16.2569 0.148122 16.8024 0.105862 17.4318 0.105862C18.7115 0.0636031 19.7394 0.169251 20.5156 0.380548C21.3128 0.612973 21.9841 1.01444 22.5506 1.60606L22.5716 1.62719L22.7603 1.83849H22.7393C23.075 2.23996 23.3268 2.68368 23.4946 3.16966L23.5785 3.42321V3.46547C23.6833 3.82468 23.7254 4.18388 23.7044 4.54308C23.7044 4.69099 23.7044 4.86003 23.6833 5.00793C23.5785 5.93763 23.1799 6.76169 22.5295 7.45898C22.4876 7.4801 22.4456 7.54348 22.3617 7.62801C22.173 7.79704 22.047 7.94495 21.9841 8.0506C21.8793 8.19851 21.8162 8.34641 21.8162 8.47318C21.8162 8.6211 21.8373 8.72675 21.9002 8.81126C21.9422 8.89578 22.047 9.02256 22.173 9.21273C22.2569 9.29725 22.2988 9.36063 22.3198 9.4029L23.2847 10.6495C23.5575 10.9454 23.7254 11.1989 23.8093 11.4102ZM18.1451 6.25458C18.3129 6.27571 18.5017 6.25458 18.7115 6.21233C19.3828 6.10668 19.8443 5.81086 20.0751 5.34601C20.2429 5.02906 20.2848 4.69099 20.2429 4.28953C20.2009 3.97258 20.0751 3.71903 19.9072 3.50773C19.7185 3.27531 19.4247 3.12739 19.0891 3.02176C18.8584 2.95836 18.5227 2.91611 18.103 2.89497C18.0401 2.89497 17.9982 2.89497 17.9562 2.89497C17.8094 2.89497 17.7046 2.91611 17.6206 2.93724C17.3689 3.04288 17.201 3.23304 17.0962 3.54999C16.9913 3.86694 16.9492 4.16276 16.9492 4.47969C16.9703 4.79664 16.9913 5.09246 17.0542 5.36714C17.0752 5.49391 17.1171 5.59956 17.1591 5.68408C17.18 5.76861 17.222 5.81086 17.243 5.85311C17.4318 6.08554 17.7046 6.21233 18.0822 6.25458H18.1451Z" fill="white"/>
<path d="M37.8858 6.04327C37.9067 6.36021 37.9067 6.63491 37.8858 6.86733C37.8648 7.01524 37.8438 7.16314 37.8019 7.33218L37.7599 7.48009C37.7599 7.50121 37.7599 7.52234 37.7599 7.56461C37.4872 8.59996 36.9837 9.55079 36.2495 10.4382C35.5152 11.3257 34.676 12.0441 33.7111 12.5512C32.6831 13.0794 31.6551 13.333 30.6063 13.333C29.9349 13.333 29.2846 13.2273 28.6763 13.0161C28.0259 12.7836 27.4385 12.4244 26.9141 11.9807C26.8721 11.9384 26.8092 11.8751 26.7462 11.8328C25.8861 11.0299 25.3196 9.99451 25.0679 8.72674C24.8162 7.45896 24.921 6.21231 25.4036 4.94454C25.8651 3.71902 26.5784 2.68367 27.5643 1.85962L27.6064 1.83847L27.7532 1.7117C28.0048 1.52154 28.2566 1.3525 28.5294 1.18346H28.5084L28.6763 1.09894L28.7392 1.05668C29.6412 0.5707 30.5642 0.338275 31.5503 0.296016C32.5363 0.274886 33.4804 0.465053 34.3824 0.887645L34.4243 0.908775L34.6131 0.993294C34.6342 1.01442 34.6342 1.01442 34.676 1.03555C34.6971 1.05668 34.7181 1.05668 34.739 1.05668C35.2005 1.31024 35.6201 1.62718 35.9977 1.98639C36.0187 2.00752 36.0187 2.00752 36.0396 2.02865C36.0606 2.04977 36.0606 2.04977 36.0606 2.0709V2.04977L36.2074 2.21882L36.2495 2.23994V2.26107C36.5432 2.57802 36.8158 2.93722 37.0466 3.33869C37.2773 3.74014 37.4662 4.14161 37.613 4.56419C37.7599 4.98679 37.8438 5.40939 37.9067 5.83198L37.9277 5.93762V6.04327H37.8858ZM29.5783 8.26188C29.7251 8.5577 29.9349 8.81126 30.1866 9.02256C30.4384 9.23385 30.7321 9.36063 31.0258 9.40288C31.5503 9.50853 32.0119 9.38176 32.4103 9.02256C32.4943 8.93803 32.5782 8.85351 32.6621 8.76899C32.8089 8.59996 32.9139 8.38866 33.0397 8.17736C33.2286 7.79703 33.3754 7.41669 33.4593 7.01524C33.5433 6.61377 33.5433 6.19118 33.4804 5.74746C33.3964 5.30374 33.2286 4.9234 32.9349 4.60646C32.5573 4.20499 32.0956 4.03596 31.5712 4.12047C31.1097 4.20499 30.6692 4.43742 30.2495 4.81776C29.8301 5.19809 29.5573 5.64181 29.4315 6.10666C29.3685 6.38134 29.3265 6.65604 29.3265 6.90959C29.3056 7.22653 29.3475 7.50121 29.4104 7.77591C29.4525 7.96606 29.4944 8.11398 29.5783 8.26188Z" fill="white"/>
<path d="M54.8776 1.14156C55.0244 1.43737 55.0663 1.85997 54.9615 2.4516L54.8776 3.12775C54.6258 4.98715 54.3951 6.3817 54.2272 7.31141V7.37479L54.1853 7.56497C54.1223 7.88191 54.0593 8.15659 53.9964 8.43127L53.9545 8.62144L53.9335 8.68484C53.7028 9.65679 53.451 10.5654 53.1783 11.3683C52.8845 12.2346 52.5069 12.8051 52.0454 13.0798C51.7307 13.2488 51.3321 13.3334 50.8287 13.3334H50.8077C49.8427 13.3334 49.1294 13.1854 48.7098 12.8685L48.6679 12.8262L48.4161 12.6361H48.479C48.4582 12.6361 48.4582 12.6361 48.4582 12.6149C48.3532 12.4882 48.2693 12.2769 48.1644 11.9599C48.1225 11.8331 48.0806 11.7064 48.0596 11.6007V11.5796C48.0175 11.4739 47.9756 11.326 47.9127 11.1359C47.6189 10.1639 47.4092 9.42437 47.3044 8.91726C47.2623 8.72709 47.2204 8.60032 47.1784 8.53692C47.0945 8.41014 47.0105 8.36789 46.9266 8.41014C46.8428 8.43127 46.7798 8.49467 46.7379 8.62144C46.6121 9.00177 46.4861 9.44549 46.3393 9.93148C46.2343 10.3118 46.1295 10.7767 46.0036 11.2838L45.9197 11.7275C45.8149 12.2769 45.626 12.6572 45.3743 12.8262C45.1855 12.9953 44.8708 13.1009 44.4303 13.1643C43.8009 13.2488 43.2974 13.27 42.9198 13.2488C42.6051 13.2277 42.3114 13.1432 42.0596 13.0164C41.808 12.8896 41.6191 12.7629 41.4723 12.6149C41.3255 12.467 41.1996 12.2769 41.0527 12.0233C40.9058 11.7698 40.8219 11.5373 40.759 11.3683C40.6961 11.1993 40.6121 10.9457 40.5074 10.6076L40.4443 10.3963V10.3752L40.4234 10.3329C40.3185 9.93149 40.1927 9.46663 40.0667 8.93839L40.0038 8.70596V8.66371C39.9619 8.45241 39.878 8.13546 39.794 7.73399L39.7101 7.37479C39.5423 6.65639 39.3954 5.91685 39.2696 5.17732C39.2276 5.00827 39.1857 4.77585 39.1018 4.43778C39.0178 4.07857 38.9758 3.82502 38.9339 3.61372C38.8919 3.42355 38.85 3.17 38.8081 2.85305C38.7661 2.53611 38.745 2.26143 38.7661 2.00788C38.7871 1.75432 38.8079 1.50076 38.85 1.26834C38.9339 0.930261 39.1226 0.676707 39.3954 0.507669L39.4373 0.48654L39.6891 0.359762V0.402022C39.8988 0.317503 40.1506 0.296373 40.4443 0.296373C40.9268 0.296373 41.3255 0.402022 41.6401 0.634447C41.6401 0.655577 41.6612 0.655577 41.682 0.676707V0.634447L41.8919 0.888002L41.9128 0.909132V0.930261C42.0806 1.14156 42.2066 1.41624 42.2485 1.75432C42.5211 3.33905 42.9618 5.62104 43.5491 8.64257C43.5701 8.66371 43.5702 8.68484 43.5702 8.70596C43.5912 8.72709 43.612 8.74822 43.6541 8.74822C43.7589 8.72709 43.8638 8.64257 43.9896 8.43127C44.1156 8.24111 44.1995 8.0932 44.2414 7.96642C44.3253 7.71287 44.4093 7.31141 44.4932 6.78317C44.5351 6.57187 44.5561 6.40284 44.5771 6.27605C44.724 5.452 44.9757 4.6702 45.3323 3.93067V3.90954L45.3533 3.8884C45.3952 3.78275 45.4373 3.71937 45.4581 3.65598C45.5421 3.50807 45.647 3.3813 45.7519 3.27565C45.9198 3.12775 46.1506 3.06435 46.4022 3.0221L46.3813 3.00097H46.633H46.675C47.0526 3.0221 47.4092 3.12775 47.7659 3.3179C48.4372 3.65598 48.8987 4.18422 49.1505 4.90263C49.2553 5.19845 49.3392 5.64217 49.4441 6.2338C49.612 7.14237 49.8217 7.77626 50.0525 8.17772C50.1364 8.32564 50.2203 8.41014 50.3043 8.43127C50.4091 8.49467 50.493 8.49467 50.556 8.41014C50.5979 8.38902 50.6189 8.32564 50.6398 8.21999C50.7237 7.77626 50.8077 7.24802 50.8916 6.63527L50.9126 6.50847C50.9545 6.12815 51.0176 5.74782 51.0595 5.34635C51.1434 4.83924 51.2273 4.26875 51.3321 3.63485H51.3112L51.3321 3.5926L51.3741 3.36017C51.4581 2.93758 51.542 2.49385 51.6259 2.00788L51.7517 1.28947C51.8357 0.930262 51.9406 0.676707 52.0664 0.528799C52.423 0.169595 53.0105 0.106207 53.8286 0.317503C54.353 0.528799 54.6887 0.761224 54.8776 1.14156Z" fill="white"/>
<path d="M16.1118 20.3268C16.2588 20.6226 16.3007 21.0453 16.1957 21.6369L16.1118 22.313C15.8602 24.1724 15.6294 25.5671 15.4616 26.4967V26.5601L15.4195 26.7503C15.3566 27.0672 15.2937 27.3419 15.2308 27.6166L15.1888 27.8068L15.1679 27.8701C14.9371 28.842 14.6853 29.7507 14.4126 30.5536C14.1189 31.4199 13.7413 31.9904 13.2798 32.2651C12.9651 32.4342 12.5665 32.5186 12.063 32.5186H12.0421C11.077 32.5186 10.3638 32.3707 9.94421 32.0538L9.90225 32.0115L9.65052 31.8213H9.71345C9.69246 31.8213 9.69246 31.8213 9.69246 31.8002C9.58758 31.6735 9.50367 31.4622 9.39877 31.1452C9.35682 31.0184 9.31485 30.8917 9.29388 30.7861V30.7648C9.25192 30.6592 9.20997 30.5114 9.14703 30.3212C8.85333 29.3492 8.64355 28.6096 8.53866 28.1026C8.4967 27.9124 8.45473 27.7855 8.41278 27.7222C8.32887 27.5955 8.24496 27.5532 8.16103 27.5955C8.07712 27.6166 8.01418 27.6799 7.97224 27.8068C7.84636 28.1871 7.72049 28.6307 7.57364 29.1167C7.46875 29.4971 7.36386 29.9619 7.23799 30.469L7.15408 30.9128C7.04918 31.4622 6.86038 31.8424 6.60863 32.0115C6.41983 32.1806 6.10516 32.2862 5.66461 32.3496C5.03525 32.4342 4.53176 32.4553 4.15415 32.4342C3.83948 32.4129 3.54578 32.3284 3.29403 32.2017C3.0423 32.0749 2.85348 31.9482 2.70663 31.8002C2.55978 31.6522 2.43392 31.4622 2.28707 31.2086C2.14023 30.955 2.05631 30.7226 1.99338 30.5536C1.93044 30.3845 1.84653 30.131 1.74163 29.7929L1.67869 29.5816L1.65771 29.5394C1.55283 29.1378 1.42695 28.6731 1.30108 28.1448L1.23815 27.9124V27.849C1.19619 27.6377 1.11228 27.3208 1.02836 26.9194L0.944448 26.5601C0.776621 25.8416 0.629772 25.1022 0.503901 24.3626C0.461944 24.1935 0.419986 23.9611 0.336073 23.623C0.252158 23.2639 0.210202 23.0103 0.168245 22.799C0.126288 22.6088 0.0843314 22.3552 0.0423744 22.0383C0.000417472 21.7214 -0.020561 21.4467 0.000417473 21.1931C0.0213959 20.9397 0.0423744 20.686 0.0843314 20.4537C0.168245 20.1155 0.357052 19.8619 0.629772 19.693L0.671728 19.6719L0.92347 19.545V19.6506C1.13325 19.5661 1.385 19.545 1.67869 19.545C2.1612 19.545 2.55978 19.6506 2.87447 19.8832C2.87447 19.9043 2.89545 19.9043 2.91642 19.9254V19.8619L3.12621 20.1155L3.14718 20.1366V20.1579C3.31502 20.3691 3.44088 20.6438 3.48284 20.9818C3.75557 22.5665 4.19612 24.8486 4.78351 27.8701C4.80449 27.8913 4.80449 27.9124 4.80449 27.9335C4.82546 27.9546 4.84644 27.9757 4.8884 27.9757C4.99329 27.9546 5.09819 27.8701 5.22406 27.6588C5.34992 27.4686 5.43383 27.3208 5.4758 27.1939C5.55971 26.9404 5.64362 26.539 5.72753 26.0107C5.7695 25.7994 5.79047 25.6303 5.81146 25.5036C5.95831 24.6795 6.21004 23.8977 6.56668 23.1583V23.137L6.58765 23.1159C6.62962 23.0103 6.67157 22.9468 6.69255 22.8836C6.77647 22.7356 6.88135 22.6088 6.98625 22.5032C7.15408 22.3552 7.38484 22.2919 7.63657 22.2496L7.6156 22.2285H7.86734H7.9093C8.28691 22.2496 8.64355 22.3552 9.00018 22.5454C9.67149 22.8836 10.133 23.4117 10.3848 24.1302C10.4896 24.426 10.5736 24.8697 10.6785 25.4613C10.8463 26.3699 11.0561 27.0037 11.2868 27.4053C11.3707 27.5532 11.4547 27.6377 11.5386 27.6588C11.6435 27.7222 11.7274 27.7222 11.7903 27.6377C11.8323 27.6166 11.8533 27.5532 11.8742 27.4475C11.9581 27.0037 12.0421 26.4756 12.126 25.8629L12.147 25.736C12.1889 25.3556 12.2518 24.9753 12.2938 24.5739C12.3777 24.0668 12.4616 23.4963 12.5665 22.8625H12.5875L12.6085 22.8201L12.6504 22.5878C12.7344 22.1651 12.8183 21.7214 12.9022 21.2355L13.0281 20.517C13.112 20.1579 13.2168 19.9043 13.3427 19.7563C13.6994 19.3972 14.2868 19.3337 15.1048 19.545C15.6084 19.7352 15.9231 19.9677 16.1118 20.3268Z" fill="#F7E300"/>
<path d="M21.2099 30.9972C21.2099 31.0817 21.2099 31.1661 21.189 31.2507V31.2719V31.3141L21.168 31.5465V31.5254C21.147 31.631 21.1051 31.7156 21.0841 31.779C20.9372 32.0959 20.6646 32.3072 20.2449 32.4128L20.266 32.434L20.0561 32.4551H19.9932C19.8884 32.4762 19.8044 32.4762 19.7414 32.4762C19.6995 32.4762 19.6576 32.4762 19.6156 32.4762C19.4687 32.4551 19.3009 32.4551 19.1122 32.4128C18.5876 32.3495 18.231 32.2015 18.0421 31.9481C17.9373 31.8001 17.8534 31.5465 17.8324 31.2085C17.7485 30.2998 17.6855 29.3068 17.6855 28.187V28.1235V27.9334C17.6855 27.6376 17.6855 27.3418 17.6855 27.0249V26.8347V26.7712C17.7066 26.2853 17.7066 25.5669 17.7276 24.5948C17.7695 23.1581 17.7695 22.0804 17.7695 21.3621V21.1297C17.7695 20.4957 17.9373 20.0309 18.252 19.735C18.4407 19.566 18.7344 19.4392 19.0701 19.3547H19.0491L19.3219 19.3125H19.3638C20.0561 19.2702 20.5596 19.4392 20.8743 19.8196C21.1051 20.0943 21.2099 20.6014 21.168 21.3199L21.147 21.4677C21.1261 21.9326 21.1261 22.6298 21.1051 23.5385V23.6863C21.0841 24.5526 21.1051 25.8838 21.147 27.6587C21.189 29.18 21.2099 30.2787 21.2099 30.9972Z" fill="#F7E300"/>
<path d="M32.9132 21.1084C32.8922 21.5522 32.7664 21.8904 32.4936 22.1227C32.3259 22.2706 32.116 22.3551 31.8644 22.3974C31.6126 22.4396 31.214 22.4607 30.6895 22.4396H30.6266C30.5846 22.4396 30.5217 22.4396 30.3959 22.4185C30.0181 22.3974 29.7245 22.3974 29.5566 22.4396C29.5147 22.4607 29.4728 22.4607 29.4518 22.5031C29.3679 22.5453 29.3258 22.6509 29.2839 22.7565C29.2 22.989 29.1581 23.3694 29.2 23.8976V24.0877L29.221 24.2568C29.221 24.3835 29.221 24.5948 29.221 24.9119V25.2499L29.2419 25.5457C29.2419 25.8415 29.2419 26.074 29.2419 26.2218C29.2419 27.1938 29.2419 28.1657 29.2419 29.1166C29.2419 29.2011 29.2419 29.3067 29.2419 29.4969C29.2419 30.5745 29.1371 31.3352 28.9064 31.779C28.8224 32.0324 28.7175 32.2015 28.5706 32.3071C28.4238 32.4128 28.2351 32.4762 27.9833 32.4973C27.8365 32.5184 27.6896 32.5184 27.5637 32.5184C27.0392 32.5184 26.6196 32.4128 26.3259 32.2226C26.1581 32.0959 26.0113 31.9268 25.9273 31.6944C25.8434 31.4621 25.7805 31.2719 25.7805 31.1239C25.7596 30.9759 25.7596 30.7859 25.7596 30.5323V30.2365V30.152C25.7805 29.7927 25.7805 29.4124 25.7805 29.0109V28.9476V28.8631V28.7362L25.8015 24.5948C25.8015 24.4892 25.8015 24.3413 25.8225 24.1088C25.8644 23.5172 25.8434 23.0947 25.7386 22.8834C25.6547 22.6509 25.4239 22.4607 25.0463 22.3129C24.8574 22.2495 24.5848 22.2284 24.2491 22.2495H24.2072C23.8505 22.2706 23.5149 22.2918 23.1582 22.3129C22.9064 22.3129 22.7177 22.2706 22.5919 22.1862C22.424 22.0804 22.2981 21.848 22.2562 21.51C22.1933 21.1084 22.1933 20.7915 22.2562 20.5381C22.3611 20.1577 22.5709 19.883 22.8645 19.7561C22.9064 19.735 22.9485 19.735 23.0324 19.6928H23.0953L23.2842 19.6505C23.3681 19.6294 23.4519 19.6294 23.5358 19.6294H25.1302H25.34H25.361L30.9203 19.6083C31.0671 19.6083 31.1721 19.6083 31.235 19.6083C31.6126 19.5872 31.9273 19.6294 32.158 19.735V19.7139L32.3049 19.8196H32.3259L32.3468 19.8407H32.3678L32.3888 19.8619C32.7454 20.1577 32.9132 20.5592 32.9132 21.1084Z" fill="#F7E300"/>
<path d="M45.0827 25.0597C45.1037 27.4685 45.1247 29.2857 45.1247 30.5112C45.1247 31.4832 44.873 32.0748 44.3695 32.3072C44.0549 32.4552 43.6143 32.4973 43.0269 32.4341C42.5235 32.3917 42.1667 32.2439 41.957 32.0325C41.7472 31.8212 41.6423 31.5043 41.6213 31.1029C41.6004 30.807 41.6004 30.4478 41.6213 30.004L41.6423 29.7082C41.6423 29.666 41.6423 29.6026 41.6423 29.518C41.6423 29.4337 41.6423 29.3702 41.6423 29.3068C41.6633 28.9264 41.6842 28.6517 41.6842 28.4615V28.4194C41.7052 28.187 41.6842 28.039 41.6213 27.9545C41.4326 27.5954 40.9081 27.384 40.048 27.3418C39.8591 27.3207 39.5654 27.3207 39.1879 27.3207C39.1458 27.3207 39.1249 27.3207 39.1039 27.3207H38.8942H38.8311C38.7892 27.3207 38.7472 27.3207 38.7472 27.2994C38.3277 27.2783 38.013 27.3629 37.8033 27.5319C37.5725 27.701 37.4257 27.9756 37.3837 28.3348C37.3418 28.5673 37.3626 28.9053 37.4047 29.3491C37.4257 29.6449 37.4466 29.8773 37.4466 30.0464C37.4466 30.7647 37.3626 31.3776 37.2158 31.8846C37.1739 32.0325 37.1319 32.1382 37.069 32.2226C36.985 32.3283 36.8592 32.3917 36.6914 32.4128C36.6495 32.4341 36.5864 32.4341 36.5235 32.4552C36.3138 32.4762 36.104 32.4973 35.8941 32.4973C35.7683 32.4973 35.6425 32.4973 35.5166 32.4762C35.139 32.4552 34.8243 32.3706 34.5935 32.2439C34.0901 31.9481 33.8593 31.3352 33.8802 30.3633C33.9012 29.666 33.9222 28.9053 33.9433 28.0814C33.9641 27.7221 33.9641 27.3418 33.9641 26.898C33.9851 25.8838 33.9851 24.3625 33.9851 22.3551C33.9851 21.7424 33.9851 21.2141 33.9851 20.7704C33.9851 20.4535 34.0062 20.221 34.0691 20.0732C34.2369 19.6718 34.5935 19.4603 35.16 19.4182C36.188 19.3336 36.8382 19.5027 37.1529 19.9252C37.2368 20.052 37.2997 20.2421 37.3418 20.5168C37.3837 20.8339 37.4047 21.2353 37.4047 21.7002V21.7635V21.996C37.4047 22.1649 37.4047 22.2706 37.4047 22.3129C37.3837 22.7566 37.3837 23.0736 37.4047 23.306C37.4047 23.3694 37.4047 23.4539 37.4257 23.5385C37.4886 24.0245 37.6773 24.3414 37.9711 24.4892C38.1388 24.5737 38.4535 24.6161 38.8732 24.5737C39.02 24.5526 39.1249 24.5526 39.1879 24.5526C39.3347 24.5526 39.6073 24.5526 40.006 24.5737C40.2367 24.5737 40.4046 24.5737 40.5095 24.5948C40.8451 24.5948 41.0969 24.5315 41.2647 24.3836C41.4326 24.2357 41.5584 24.0245 41.6004 23.7498C41.6842 23.306 41.6842 22.5664 41.6423 21.5733C41.6213 21.0874 41.6004 20.7493 41.6004 20.5379C41.6004 20.2845 41.6423 20.0943 41.7052 19.9676C41.8101 19.7774 42.0199 19.6505 42.3766 19.5449C43.0689 19.3547 43.6352 19.3547 44.0759 19.5027C44.5164 19.6718 44.81 19.9676 44.9569 20.4323L44.9779 20.4957L45.0408 20.6859H45.0198C45.0618 20.9183 45.0828 21.2775 45.0618 21.7213V21.848V21.8902C45.0408 22.0804 45.0408 22.2495 45.0408 22.334C45.0408 22.9891 45.0618 23.8976 45.0827 25.0597Z" fill="#F7E300"/>
<path d="M11.0132 45.5346C11.0342 46.4854 10.9503 47.3307 10.8034 48.0914C10.6566 48.8519 10.3629 49.5069 9.90134 50.0353C9.88035 50.0564 9.85937 50.0775 9.81741 50.1198L9.60764 50.3733V50.3522C9.46079 50.5 9.31394 50.648 9.16709 50.7747H9.18806L8.9573 50.9227L8.91534 50.9438C7.92936 51.641 6.77554 52.0003 5.47487 52.0425C5.45389 52.0425 5.41194 52.0425 5.39095 52.0425C5.18117 52.0425 4.95041 52.0214 4.6777 51.9792H4.55182L4.46791 51.9581C4.04834 51.8946 3.64975 51.789 3.25115 51.641H3.23018L3.14627 51.5988L3.04137 51.5565C2.74767 51.4087 2.49593 51.2819 2.26517 51.1339C1.30016 50.4789 0.649827 49.5493 0.31417 48.3659L0.293193 48.3026L0.230257 48.1124C0.146343 47.8377 0.104386 47.5419 0.0624295 47.225L0.0414509 47.0349V46.9714C-0.000505948 46.6333 -0.0214844 46.2953 -0.0214844 45.936L-0.00050595 40.3367C-0.00050595 39.9776 0.0204726 39.724 0.0834079 39.5549C0.1883 39.238 0.419064 39.0056 0.73374 38.8365C1.04842 38.6675 1.38407 38.5829 1.74071 38.5829H1.82462L2.09735 38.604L2.07636 38.6253C2.45397 38.6675 2.76866 38.8154 2.99942 39.0267C3.25115 39.2591 3.41899 39.6183 3.48191 40.1465L3.5029 40.4001V40.4635C3.52388 40.7804 3.52388 41.2453 3.48191 41.858C3.46094 42.1749 3.43997 42.3862 3.43997 42.492C3.43997 42.978 3.43997 43.6752 3.41899 44.6048C3.398 45.598 3.398 46.3587 3.398 46.8447C3.398 47.4152 3.56584 47.9223 3.90149 48.3659C4.23715 48.8097 4.71965 49.0633 5.32802 49.1055C5.91541 49.1477 6.39793 48.9788 6.75456 48.6195C7.3 48.1124 7.57272 47.2883 7.55175 46.1685V45.9149L7.53076 44.6683L7.50978 41.1184C7.48881 40.4635 7.55175 39.9776 7.67761 39.6818C7.76152 39.4916 7.86642 39.3014 8.01327 39.1534C8.16012 39.0056 8.32794 38.8576 8.51675 38.752C8.70555 38.6464 8.91534 38.5829 9.10415 38.5829C9.27198 38.5618 9.46079 38.5618 9.64959 38.6253H9.69155L10.0062 38.7097H9.96426C10.216 38.8365 10.4468 39.0055 10.5936 39.238V39.1745L10.7195 39.4492V39.4703L10.7405 39.5338C10.8454 39.7874 10.8873 40.1465 10.9083 40.6325C10.9293 41.4142 10.9503 42.5764 10.9503 44.1188C11.0132 44.7317 11.0132 45.1966 11.0132 45.5346Z" fill="#EF7669"/>
<path d="M55.0256 51.7255H17.642C17.1805 51.7255 16.8027 51.3451 16.8027 50.8803C16.8027 50.4155 17.1805 50.0352 17.642 50.0352H54.1655V20.2212C54.1655 19.7563 54.5431 19.376 55.0046 19.376C55.4661 19.376 55.8437 19.7563 55.8437 20.2212V50.9015C55.8647 51.3451 55.4871 51.7255 55.0256 51.7255Z" fill="#F7E300"/>
</g>
<defs>
<clipPath id="clip0_1214_976">
<rect width="56" height="52" fill="white"/>
</clipPath>
</defs>
</svg>
