<svg width="39" height="36" viewBox="0 0 39 36" fill="none" xmlns="http://www.w3.org/2000/svg">
<g clip-path="url(#clip0_1722_2420)">
<path d="M8.25438 4.49087C8.31282 4.65178 8.31282 4.92971 8.28359 5.29542L8.26899 5.41244C8.25438 5.51484 8.25438 5.58798 8.25438 5.63186L8.23977 6.91914V7.00692V7.06542C8.23977 7.37262 8.22516 7.62129 8.18132 7.79684C8.16672 7.85534 8.15211 7.91386 8.12289 7.97238C7.94757 8.4551 7.5531 8.80618 6.95408 9.04023C6.42812 9.24503 5.8145 9.34742 5.09861 9.34742C5.05478 9.34742 4.99634 9.34742 4.9233 9.34742H4.89407L4.73337 9.3328C4.57266 9.31817 4.39734 9.31817 4.23662 9.28892L4.07591 9.27428H4.0467C3.94443 9.25965 3.87137 9.24503 3.82755 9.2304L3.72528 9.21577C3.47691 9.17189 3.22854 9.11337 2.99477 9.04023C2.8925 9.01098 2.79023 8.9671 2.70258 8.93783L2.61492 8.90858C2.13278 8.73305 1.70909 8.42585 1.32924 7.97238C0.949376 7.5189 0.642566 7.03617 0.438025 6.55344C0.189655 6.0122 0.0581651 5.41244 0.0289451 4.78342C-0.000274865 4.16904 0.0873851 3.56929 0.277315 2.99879C0.335755 2.83788 0.394195 2.6916 0.452636 2.54531C0.657176 2.07721 0.949376 1.66762 1.30001 1.30191C1.66526 0.936209 2.07434 0.658274 2.54186 0.468106L2.57109 0.438851L2.70258 0.394965L2.71719 0.380337C2.8925 0.307196 3.11166 0.248683 3.34542 0.190171L3.46229 0.160914L3.49152 0.146286H3.50612C4.42656 -0.0585087 5.36159 -0.0438805 6.29664 0.190171C6.32586 0.204799 6.35508 0.204799 6.38429 0.219427C7.05635 0.394965 7.53849 0.746043 7.8453 1.22877C7.93296 1.37506 7.97678 1.50671 7.97678 1.63836C7.97678 1.74076 7.91834 1.87241 7.81608 2.04795C7.65537 2.32589 7.48005 2.47217 7.29012 2.4868C7.23168 2.50142 7.18785 2.4868 7.12941 2.47217H7.1148H7.08558L6.91026 2.41366L6.95408 2.39903C6.93948 2.39903 6.93948 2.39903 6.92487 2.3844C6.89564 2.36978 6.86643 2.35514 6.85181 2.34051C6.74954 2.282 6.60345 2.23812 6.42813 2.17961C6.39891 2.16498 6.34046 2.16498 6.28202 2.13573C5.87294 2.0187 5.46386 1.97482 5.0694 1.97482C4.38272 2.00407 3.81293 2.20887 3.34542 2.58919C2.84867 2.98415 2.54186 3.56929 2.45421 4.34458C2.39577 4.82731 2.42498 5.26615 2.55648 5.69038C2.61492 5.82203 2.65875 5.95368 2.73179 6.08534C2.98017 6.55344 3.3162 6.90451 3.7691 7.12394C4.22201 7.34336 4.68953 7.40188 5.20088 7.3141C5.50769 7.25559 5.72685 7.13856 5.84373 6.96303C5.93139 6.83137 5.96061 6.67046 5.96061 6.4803C5.946 6.29013 5.88756 6.12922 5.78529 5.98294C5.63919 5.8074 5.37621 5.705 5.01096 5.705C4.98174 5.705 4.90869 5.705 4.82103 5.71963C4.76259 5.73426 4.68953 5.73426 4.63109 5.71963C4.55805 5.71963 4.49961 5.705 4.44116 5.69038C4.38272 5.67575 4.33889 5.64649 4.29507 5.58798C4.25124 5.52947 4.22201 5.45633 4.1928 5.36856C4.11974 5.01747 4.09053 4.75417 4.10514 4.57863C4.09053 4.564 4.09053 4.53475 4.09053 4.49087L4.10514 4.47623C4.16358 4.1983 4.30968 4.00813 4.51422 3.90573C4.63109 3.84722 4.7918 3.83259 5.01096 3.83259C5.12784 3.83259 5.28855 3.83259 5.50769 3.81797H5.52231L5.6538 3.80334H5.6684H5.69763C5.946 3.78871 6.15054 3.78871 6.32585 3.80334C6.41352 3.80334 6.545 3.80334 6.72033 3.78871C7.05635 3.77408 7.29012 3.77408 7.46543 3.81797C7.58232 3.84722 7.68459 3.87648 7.78686 3.93499C7.88913 3.9935 7.9914 4.06664 8.07905 4.16904C8.15211 4.25682 8.21055 4.37384 8.25438 4.49087Z" fill="#46409C"/>
<path d="M16.5799 7.89885C16.6821 8.14752 16.6967 8.36695 16.6237 8.55712C16.5652 8.73266 16.4337 8.89357 16.2145 9.01059C15.8493 9.23001 15.4403 9.2739 14.9873 9.12762C14.8266 9.0691 14.6952 8.99596 14.5636 8.89357C14.4322 8.79117 14.3299 8.68877 14.2715 8.601C14.2131 8.51323 14.1108 8.38157 13.9939 8.20604L13.5994 7.60629L13.1611 6.94801L13.1026 6.87487C12.9128 6.56768 12.7374 6.37752 12.5621 6.28975C12.4452 6.23123 12.3429 6.23123 12.2699 6.24586C12.1968 6.27512 12.1092 6.34826 12.0361 6.45066C11.9047 6.64082 11.8316 6.87487 11.8023 7.13819C11.7732 7.40149 11.7732 7.65017 11.8023 7.86959C11.817 8.10365 11.8316 8.27918 11.8316 8.39621C11.8316 8.57175 11.8023 8.71803 11.744 8.82043C11.6709 8.93746 11.554 9.03985 11.3933 9.11299C11.2034 9.20076 10.9696 9.24464 10.7066 9.24464C10.166 9.24464 9.8008 9.09837 9.61086 8.8058C9.53782 8.68877 9.49399 8.49861 9.47938 8.2353C9.46477 8.07439 9.46476 7.89885 9.45015 7.70868V7.67943V7.46001C9.43555 7.28447 9.43555 7.10892 9.43555 6.91876V6.69934V6.67008C9.43555 6.40677 9.43555 5.99718 9.45015 5.47056C9.46476 4.92933 9.46477 4.51973 9.46477 4.2418V1.9598C9.46477 1.47707 9.50859 1.11137 9.59626 0.848058H9.61086V0.818801L9.62548 0.789546C9.66931 0.687147 9.71313 0.614007 9.77158 0.555494C9.84463 0.453097 9.99073 0.379955 10.2099 0.336071C10.2683 0.321443 10.3121 0.306815 10.3414 0.292186C10.4875 0.262931 10.6336 0.219046 10.7796 0.189789H10.7943L10.882 0.175161C10.8965 0.175161 10.9112 0.175161 10.9258 0.175161L10.9988 0.160532C11.3202 0.10202 11.7001 0.0727635 12.1384 0.0727635C13.0296 0.0435071 13.7455 0.116648 14.286 0.262931C14.8413 0.42384 15.3087 0.701776 15.7032 1.11137L15.7179 1.12599L15.8493 1.27227H15.8347C16.0685 1.55022 16.2438 1.85741 16.3607 2.19385L16.4192 2.36939V2.39864C16.4922 2.64733 16.5214 2.89601 16.5068 3.14469C16.5068 3.24708 16.5068 3.36411 16.4922 3.46651C16.4192 4.11014 16.1416 4.68064 15.6886 5.16338C15.6594 5.17801 15.6302 5.22189 15.5717 5.2804C15.4403 5.39742 15.3526 5.49983 15.3087 5.57297C15.2358 5.67536 15.1918 5.77776 15.1918 5.86552C15.1918 5.96793 15.2065 6.04107 15.2503 6.09958C15.2796 6.15809 15.3526 6.24586 15.4403 6.37752C15.4987 6.43603 15.5279 6.47991 15.5425 6.50917L16.2145 7.37224C16.4045 7.57703 16.5214 7.75256 16.5799 7.89885ZM12.6351 4.32957C12.752 4.3442 12.8835 4.32957 13.0296 4.30032C13.4971 4.22718 13.8186 4.02238 13.9793 3.70056C14.0962 3.48113 14.1253 3.24708 14.0962 2.96915C14.0669 2.74972 13.9793 2.57419 13.8624 2.42791C13.7309 2.267 13.5263 2.16459 13.2926 2.09146C13.1319 2.04757 12.8981 2.01832 12.6059 2.00368C12.5621 2.00368 12.5329 2.00368 12.5036 2.00368C12.4013 2.00368 12.3284 2.01832 12.2699 2.03294C12.0946 2.10609 11.9777 2.23773 11.9047 2.45716C11.8316 2.67658 11.8023 2.88138 11.8023 3.1008C11.817 3.32022 11.8316 3.52502 11.8754 3.71518C11.8901 3.80295 11.9192 3.87609 11.9485 3.93461C11.963 3.99312 11.9923 4.02238 12.0069 4.05163C12.1384 4.21254 12.3284 4.30032 12.5913 4.32957H12.6351Z" fill="#46409C"/>
<path d="M26.3842 4.18406C26.3987 4.40349 26.3987 4.59366 26.3842 4.75457C26.3695 4.85696 26.3549 4.95936 26.3257 5.07639L26.2965 5.17878C26.2965 5.19341 26.2965 5.20804 26.2965 5.2373C26.1066 5.95408 25.7559 6.61234 25.2446 7.22673C24.7332 7.84112 24.1488 8.33847 23.4768 8.68956C22.7609 9.05525 22.0449 9.2308 21.3145 9.2308C20.8469 9.2308 20.3941 9.15766 19.9704 9.01137C19.5174 8.85046 19.1084 8.60179 18.7432 8.29459C18.7139 8.26533 18.6701 8.22145 18.6263 8.19219C18.0272 7.63632 17.6327 6.91954 17.4574 6.04185C17.2821 5.16416 17.3551 4.30109 17.6912 3.4234C18.0126 2.57497 18.5094 1.85819 19.196 1.28769L19.2253 1.27305L19.3275 1.18528C19.5028 1.05364 19.6781 0.936607 19.8681 0.819581H19.8535L19.9704 0.761069L20.0142 0.731812C20.6424 0.395363 21.2852 0.234454 21.972 0.205197C22.6586 0.190569 23.3161 0.322223 23.9443 0.614786L23.9735 0.629415L24.105 0.687928C24.1196 0.702555 24.1196 0.702556 24.1488 0.717184C24.1634 0.731812 24.1781 0.731812 24.1926 0.731812C24.514 0.907351 24.8063 1.12677 25.0692 1.37546C25.0839 1.39008 25.0839 1.39008 25.0984 1.40471C25.113 1.41934 25.1131 1.41934 25.1131 1.43396V1.41934L25.2153 1.53637L25.2446 1.55099V1.56562C25.4491 1.78504 25.639 2.03372 25.7997 2.31166C25.9604 2.58959 26.0919 2.86753 26.1942 3.16009C26.2965 3.45266 26.3549 3.74522 26.3987 4.03779L26.4134 4.11092V4.18406H26.3842ZM20.5986 5.72003C20.7008 5.92483 20.8469 6.10036 21.0222 6.24665C21.1976 6.39293 21.4021 6.4807 21.6066 6.50995C21.972 6.58309 22.2934 6.49532 22.5709 6.24665C22.6293 6.18813 22.6878 6.12962 22.7462 6.0711C22.8485 5.95408 22.9216 5.8078 23.0092 5.66151C23.1407 5.39821 23.243 5.13489 23.3014 4.85696C23.3599 4.57902 23.3599 4.28647 23.3161 3.97927C23.2576 3.67208 23.1407 3.40877 22.9362 3.18935C22.6732 2.91141 22.3517 2.79439 21.9865 2.8529C21.6651 2.91141 21.3583 3.07232 21.0661 3.33564C20.7739 3.59894 20.5839 3.90613 20.4963 4.22795C20.4525 4.41811 20.4232 4.60829 20.4232 4.78382C20.4087 5.00325 20.4379 5.19341 20.4817 5.38358C20.5109 5.51523 20.5401 5.61763 20.5986 5.72003Z" fill="#46409C"/>
<path d="M38.2185 0.789821C38.3207 0.994616 38.3499 1.28718 38.2769 1.69677L38.2185 2.16488C38.0431 3.45215 37.8824 4.41761 37.7655 5.06126V5.10514L37.7363 5.2368C37.6924 5.45622 37.6486 5.64638 37.6048 5.83655L37.5756 5.9682L37.561 6.01209C37.4003 6.68498 37.2249 7.314 37.0351 7.86987C36.8304 8.46963 36.5675 8.86459 36.246 9.05475C36.0269 9.17178 35.7493 9.2303 35.3987 9.2303H35.3841C34.712 9.2303 34.2153 9.12789 33.923 8.90848L33.8939 8.87921L33.7185 8.74757H33.7623C33.7478 8.74757 33.7478 8.74757 33.7478 8.73293C33.6747 8.64516 33.6163 8.49888 33.5432 8.27946C33.514 8.19168 33.4848 8.10392 33.4702 8.03078V8.01615C33.4409 7.94301 33.4117 7.84061 33.3679 7.70896C33.1633 7.03607 33.0172 6.52407 32.9443 6.173C32.915 6.04134 32.8858 5.95358 32.8565 5.90969C32.7981 5.82192 32.7396 5.79267 32.6812 5.82192C32.6228 5.83655 32.5789 5.88043 32.5497 5.9682C32.4621 6.23151 32.3744 6.5387 32.2721 6.87515C32.1991 7.13846 32.1261 7.46028 32.0383 7.81136L31.9799 8.11855C31.9069 8.49888 31.7754 8.76219 31.6001 8.87921C31.4686 8.99624 31.2494 9.06939 30.9427 9.11327C30.5043 9.17178 30.1537 9.18641 29.8907 9.17178C29.6715 9.15715 29.467 9.09864 29.2917 9.01087C29.1164 8.9231 28.9849 8.83533 28.8826 8.73293C28.7804 8.63054 28.6927 8.49888 28.5904 8.32334C28.4881 8.14781 28.4297 7.9869 28.3859 7.86987C28.342 7.75285 28.2836 7.57731 28.2106 7.34326L28.1667 7.19698V7.18235L28.1522 7.15309C28.0791 6.87516 27.9915 6.55334 27.9037 6.18763L27.8599 6.02672V5.99747C27.8308 5.85118 27.7723 5.63176 27.7139 5.35382L27.6554 5.10514C27.5385 4.60778 27.4362 4.09579 27.3486 3.58381C27.3193 3.46678 27.2902 3.30587 27.2317 3.07182C27.1733 2.82314 27.144 2.6476 27.1148 2.50132C27.0856 2.36966 27.0564 2.19413 27.0272 1.9747C26.9979 1.75528 26.9833 1.56512 26.9979 1.38958C27.0126 1.21404 27.0271 1.0385 27.0564 0.87759C27.1148 0.643539 27.2463 0.468001 27.4362 0.350975L27.4654 0.336347L27.6408 0.248578V0.277835C27.7868 0.219321 27.9622 0.204693 28.1667 0.204693C28.5028 0.204693 28.7804 0.277835 28.9995 0.438744C28.9995 0.453373 29.0142 0.453373 29.0287 0.468001V0.438744L29.1749 0.614282L29.1894 0.628911V0.643539C29.3063 0.789821 29.394 0.979988 29.4232 1.21404C29.6131 2.31116 29.92 3.891 30.329 5.98283C30.3436 5.99747 30.3436 6.01209 30.3436 6.02672C30.3583 6.04134 30.3728 6.05597 30.4021 6.05597C30.4751 6.04134 30.5482 5.98283 30.6358 5.83655C30.7235 5.7049 30.782 5.60249 30.8111 5.51473C30.8696 5.33919 30.928 5.06126 30.9865 4.69555C31.0156 4.54927 31.0303 4.43225 31.0449 4.34447C31.1472 3.77397 31.3225 3.23273 31.5709 2.72075V2.70612L31.5855 2.69148C31.6147 2.61834 31.6439 2.57446 31.6585 2.53057C31.7169 2.42818 31.79 2.34041 31.8631 2.26727C31.98 2.16488 32.1407 2.12099 32.316 2.09173L32.3014 2.07711H32.4767H32.5059C32.7689 2.09173 33.0172 2.16488 33.2657 2.29652C33.7332 2.53057 34.0546 2.89628 34.2299 3.39364C34.3029 3.59844 34.3614 3.90563 34.4344 4.31522C34.5513 4.94423 34.6974 5.38308 34.8581 5.66101C34.9166 5.76341 34.975 5.82192 35.0335 5.83655C35.1064 5.88043 35.1649 5.88043 35.2088 5.82192C35.238 5.80729 35.2526 5.76341 35.2672 5.69027C35.3256 5.38308 35.3841 5.01737 35.4425 4.59316L35.4571 4.50538C35.4863 4.24207 35.5302 3.97877 35.5594 3.70083C35.6178 3.34976 35.6763 2.9548 35.7493 2.51595H35.7347L35.7493 2.48669L35.7786 2.32578C35.837 2.03322 35.8955 1.72602 35.9539 1.38958L36.0415 0.892219C36.1 0.643539 36.1731 0.468001 36.2607 0.365604C36.509 0.116924 36.9182 0.0730394 37.4879 0.219321C37.8531 0.365604 38.0869 0.526513 38.2185 0.789821Z" fill="#46409C"/>
<path d="M11.2203 14.0721C11.3227 14.2768 11.3518 14.5695 11.2788 14.9791L11.2203 15.4472C11.0451 16.7344 10.8844 17.6999 10.7675 18.3435V18.3874L10.7382 18.5191C10.6944 18.7385 10.6506 18.9287 10.6068 19.1188L10.5775 19.2505L10.5629 19.2943C10.4022 19.9672 10.2269 20.5963 10.0369 21.1521C9.8324 21.7519 9.56942 22.1469 9.248 22.337C9.02886 22.4541 8.75126 22.5125 8.40062 22.5125H8.38601C7.71395 22.5125 7.21721 22.4102 6.92502 22.1908L6.89579 22.1615L6.72048 22.0298H6.76431C6.74969 22.0298 6.74969 22.0298 6.74969 22.0152C6.67665 21.9275 6.61821 21.7812 6.54515 21.5617C6.51594 21.474 6.48671 21.3862 6.47211 21.3131V21.2984C6.44288 21.2253 6.41367 21.1229 6.36984 20.9913C6.1653 20.3184 6.01919 19.8063 5.94615 19.4553C5.91692 19.3236 5.8877 19.2358 5.85848 19.192C5.80005 19.1042 5.74161 19.0749 5.68316 19.1042C5.62472 19.1188 5.58089 19.1627 5.55167 19.2505C5.46401 19.5138 5.37635 19.8209 5.27408 20.1574C5.20103 20.4207 5.12799 20.7425 5.04032 21.0936L4.98189 21.4008C4.90883 21.7812 4.77735 22.0444 4.60202 22.1615C4.47054 22.2785 4.25139 22.3516 3.94458 22.3956C3.50627 22.4541 3.15563 22.4687 2.89265 22.4541C2.67351 22.4394 2.46897 22.3809 2.29364 22.2931C2.11832 22.2054 1.98683 22.1176 1.88456 22.0152C1.78229 21.9128 1.69464 21.7812 1.59237 21.6056C1.4901 21.43 1.43166 21.2692 1.38783 21.1521C1.34399 21.0351 1.28556 20.8596 1.2125 20.6255L1.16867 20.4792L1.15406 20.45C1.08102 20.172 0.993352 19.8503 0.905692 19.4845L0.861862 19.3236V19.2797C0.832643 19.1335 0.774202 18.9141 0.715762 18.6361L0.657322 18.3874C0.540443 17.89 0.438173 17.3781 0.350513 16.8661C0.321292 16.749 0.292072 16.5881 0.233632 16.354C0.175192 16.1054 0.145972 15.9299 0.116752 15.7836C0.0875323 15.6519 0.0583123 15.4764 0.0290922 15.257C-0.000127788 15.0376 -0.0147378 14.8474 -0.000127786 14.6718C0.0144822 14.4963 0.0290922 14.3208 0.0583123 14.1599C0.116752 13.9258 0.248243 13.7502 0.438173 13.6333L0.467392 13.6187L0.642713 13.5308V13.604C0.788812 13.5454 0.964132 13.5308 1.16867 13.5308C1.5047 13.5308 1.78229 13.604 2.00145 13.7649C2.00145 13.7795 2.01605 13.7795 2.03066 13.7941V13.7502L2.17676 13.9258L2.19137 13.9404V13.9551C2.30826 14.1014 2.39591 14.2916 2.42513 14.5256C2.61507 15.6226 2.92188 17.2025 3.33096 19.2943C3.34556 19.309 3.34556 19.3236 3.34556 19.3382C3.36017 19.3528 3.37478 19.3674 3.404 19.3674C3.47705 19.3528 3.5501 19.2943 3.63777 19.1481C3.72542 19.0164 3.78386 18.9141 3.81308 18.8262C3.87152 18.6507 3.92996 18.3728 3.9884 18.0071C4.01762 17.8608 4.03223 17.7437 4.04685 17.656C4.14912 17.0855 4.32443 16.5442 4.57281 16.0323V16.0176L4.58741 16.003C4.61664 15.9299 4.64585 15.8859 4.66047 15.8421C4.71891 15.7397 4.79195 15.6519 4.86501 15.5788C4.98189 15.4764 5.14259 15.4325 5.31791 15.4032L5.3033 15.3886H5.47862H5.50784C5.77082 15.4032 6.01919 15.4764 6.26757 15.608C6.73508 15.8421 7.0565 16.2078 7.23183 16.7052C7.30487 16.91 7.36331 17.2171 7.43637 17.6267C7.55325 18.2558 7.69935 18.6946 7.86006 18.9726C7.91849 19.0749 7.97693 19.1335 8.03537 19.1481C8.10843 19.192 8.16687 19.192 8.2107 19.1335C8.23991 19.1188 8.25453 19.0749 8.26914 19.0018C8.32757 18.6946 8.38601 18.3289 8.44445 17.9047L8.45907 17.8169C8.48828 17.5536 8.53211 17.2902 8.56134 17.0123C8.61978 16.6613 8.67822 16.2663 8.75126 15.8275H8.76588L8.78049 15.7982L8.8097 15.6373C8.86815 15.3447 8.92659 15.0376 8.98503 14.7011L9.07269 14.2037C9.13113 13.9551 9.20417 13.7795 9.29184 13.6771C9.54021 13.4285 9.94929 13.3846 10.519 13.5308C10.8697 13.6625 11.0889 13.8235 11.2203 14.0721Z" fill="#F7E300"/>
<path d="M14.7709 21.459C14.7709 21.5176 14.7709 21.576 14.7563 21.6345V21.6492V21.6784L14.7417 21.8393V21.8247C14.727 21.8978 14.6979 21.9564 14.6832 22.0003C14.581 22.2197 14.3911 22.3659 14.0988 22.4391L14.1135 22.4538L13.9673 22.4684H13.9235C13.8505 22.483 13.7921 22.483 13.7481 22.483C13.719 22.483 13.6898 22.483 13.6605 22.483C13.5583 22.4684 13.4414 22.4684 13.3099 22.4391C12.9446 22.3952 12.6963 22.2928 12.5647 22.1173C12.4918 22.0149 12.4333 21.8393 12.4187 21.6053C12.3602 20.9762 12.3164 20.2887 12.3164 19.5135V19.4696V19.3379C12.3164 19.1331 12.3164 18.9283 12.3164 18.709V18.5773V18.5334C12.331 18.1969 12.331 17.6996 12.3457 17.0266C12.3749 16.032 12.3749 15.2859 12.3749 14.7886V14.6277C12.3749 14.1888 12.4918 13.867 12.7109 13.6622C12.8423 13.5451 13.0469 13.4574 13.2807 13.3988H13.266L13.456 13.3696H13.4852C13.9673 13.3403 14.318 13.4574 14.5372 13.7207C14.6979 13.9109 14.7709 14.2619 14.7417 14.7593L14.727 14.8617C14.7125 15.1835 14.7125 15.6662 14.6979 16.2953V16.3976C14.6832 16.9974 14.6979 17.919 14.727 19.1477C14.7563 20.201 14.7709 20.9616 14.7709 21.459Z" fill="#F7E300"/>
<path d="M22.9196 14.6135C22.9049 14.9207 22.8173 15.1548 22.6273 15.3157C22.5105 15.418 22.3644 15.4766 22.1891 15.5059C22.0138 15.5351 21.7362 15.5497 21.3709 15.5351H21.3271C21.2979 15.5351 21.254 15.5351 21.1664 15.5205C20.9034 15.5059 20.6988 15.5059 20.5819 15.5351C20.5528 15.5497 20.5236 15.5497 20.5089 15.579C20.4505 15.6082 20.4212 15.6814 20.3921 15.7545C20.3336 15.9155 20.3044 16.1788 20.3336 16.5444V16.6761L20.3482 16.7931C20.3482 16.8809 20.3482 17.0271 20.3482 17.2466V17.4806L20.3628 17.6854C20.3628 17.8902 20.3628 18.0512 20.3628 18.1535C20.3628 18.8264 20.3628 19.4993 20.3628 20.1576C20.3628 20.2161 20.3628 20.2892 20.3628 20.4209C20.3628 21.1669 20.2898 21.6936 20.1291 22.0008C20.0706 22.1763 19.9975 22.2933 19.8953 22.3664C19.793 22.4396 19.6616 22.4835 19.4862 22.4981C19.384 22.5127 19.2817 22.5127 19.194 22.5127C18.8288 22.5127 18.5365 22.4396 18.332 22.3079C18.2151 22.2202 18.1129 22.1031 18.0544 21.9423C17.996 21.7814 17.9521 21.6497 17.9521 21.5473C17.9376 21.4448 17.9376 21.3133 17.9376 21.1377V20.9329V20.8744C17.9521 20.6257 17.9521 20.3624 17.9521 20.0845V20.0406V19.9821V19.8943L17.9668 17.0271C17.9668 16.954 17.9668 16.8517 17.9814 16.6907C18.0106 16.2811 17.996 15.9886 17.923 15.8423C17.8645 15.6813 17.7038 15.5497 17.4408 15.4474C17.3093 15.4034 17.1194 15.3888 16.8856 15.4034H16.8565C16.608 15.418 16.3743 15.4327 16.1259 15.4474C15.9506 15.4474 15.8191 15.418 15.7315 15.3596C15.6146 15.2864 15.5269 15.1255 15.4977 14.8915C15.4539 14.6135 15.4539 14.3941 15.4977 14.2186C15.5708 13.9553 15.7169 13.7651 15.9214 13.6773C15.9506 13.6627 15.9798 13.6627 16.0383 13.6335H16.0821L16.2136 13.6042C16.2721 13.5895 16.3304 13.5895 16.3889 13.5895H17.4993H17.6454H17.66L21.5317 13.5749C21.6339 13.5749 21.707 13.5749 21.7508 13.5749C22.0138 13.5603 22.2329 13.5895 22.3936 13.6627V13.6481L22.4959 13.7212H22.5105L22.5251 13.7358H22.5397L22.5544 13.7505C22.8027 13.9553 22.9196 14.2332 22.9196 14.6135Z" fill="#F7E300"/>
<path d="M31.3964 17.3484C31.411 19.0161 31.4257 20.2741 31.4257 21.1226C31.4257 21.7955 31.2503 22.205 30.8997 22.3659C30.6806 22.4684 30.3738 22.4976 29.9646 22.4537C29.6141 22.4244 29.3656 22.3221 29.2196 22.1757C29.0735 22.0295 29.0004 21.8101 28.9858 21.5321C28.9712 21.3274 28.9712 21.0786 28.9858 20.7714L29.0004 20.5666C29.0004 20.5374 29.0004 20.4935 29.0004 20.435C29.0004 20.3765 29.0004 20.3326 29.0004 20.2887C29.015 20.0254 29.0296 19.8352 29.0296 19.7035V19.6743C29.0442 19.5135 29.0296 19.411 28.9858 19.3525C28.8543 19.1039 28.4891 18.9575 27.8901 18.9283C27.7585 18.9137 27.554 18.9137 27.2911 18.9137C27.2618 18.9137 27.2472 18.9137 27.2326 18.9137H27.0865H27.0426C27.0134 18.9137 26.9842 18.9137 26.9842 18.899C26.692 18.8844 26.4729 18.9429 26.3268 19.06C26.1661 19.177 26.0638 19.3671 26.0346 19.6158C26.0054 19.7768 26.0199 20.0108 26.0492 20.318C26.0638 20.5228 26.0784 20.6837 26.0784 20.8007C26.0784 21.298 26.0199 21.7223 25.9177 22.0734C25.8885 22.1757 25.8592 22.249 25.8154 22.3074C25.757 22.3805 25.6693 22.4244 25.5524 22.439C25.5233 22.4537 25.4793 22.4537 25.4355 22.4684C25.2895 22.483 25.1434 22.4976 24.9972 22.4976C24.9096 22.4976 24.822 22.4976 24.7343 22.483C24.4713 22.4684 24.2521 22.4098 24.0914 22.3221C23.7408 22.1173 23.5801 21.693 23.5947 21.0201C23.6093 20.5374 23.6239 20.0108 23.6386 19.4403C23.6531 19.1916 23.6531 18.9283 23.6531 18.6211C23.6677 17.919 23.6677 16.8657 23.6677 15.476C23.6677 15.0518 23.6677 14.6861 23.6677 14.3789C23.6677 14.1595 23.6824 13.9986 23.7262 13.8962C23.8431 13.6183 24.0914 13.4719 24.4859 13.4427C25.2018 13.3842 25.6547 13.5013 25.8738 13.7938C25.9323 13.8815 25.9761 14.0132 26.0054 14.2034C26.0346 14.4229 26.0492 14.7008 26.0492 15.0226V15.0664V15.2274C26.0492 15.3444 26.0492 15.4175 26.0492 15.4468C26.0346 15.7539 26.0346 15.9734 26.0492 16.1343C26.0492 16.1782 26.0492 16.2367 26.0638 16.2953C26.1076 16.6317 26.2391 16.8511 26.4437 16.9535C26.5605 17.012 26.7797 17.0413 27.0719 17.012C27.1742 16.9974 27.2472 16.9974 27.2911 16.9974C27.3933 16.9974 27.5832 16.9974 27.8608 17.012C28.0215 17.012 28.1384 17.012 28.2115 17.0266C28.4452 17.0266 28.6205 16.9828 28.7374 16.8803C28.8543 16.778 28.9419 16.6317 28.9712 16.4415C29.0296 16.1343 29.0296 15.6223 29.0004 14.9348C28.9858 14.5983 28.9712 14.3643 28.9712 14.218C28.9712 14.0425 29.0004 13.9108 29.0442 13.8231C29.1173 13.6914 29.2634 13.6036 29.5118 13.5305C29.9939 13.3988 30.3883 13.3988 30.6952 13.5013C31.002 13.6183 31.2065 13.8231 31.3088 14.1448L31.3234 14.1888L31.3672 14.3204H31.3526C31.3819 14.4813 31.3965 14.73 31.3819 15.0372V15.125V15.1542C31.3672 15.2858 31.3672 15.4029 31.3672 15.4614C31.3672 15.9149 31.3819 16.5439 31.3964 17.3484Z" fill="#F7E300"/>
<path d="M7.66924 31.5236C7.68385 32.1819 7.62541 32.767 7.52314 33.2936C7.42087 33.8202 7.21633 34.2737 6.89491 34.6394C6.88029 34.654 6.86569 34.6686 6.83646 34.6979L6.69037 34.8734V34.8588C6.5881 34.9612 6.48583 35.0636 6.38356 35.1513H6.39817L6.23746 35.2538L6.20823 35.2684C5.52157 35.7511 4.71801 35.9998 3.81219 36.029C3.79758 36.029 3.76837 36.029 3.75375 36.029C3.60765 36.029 3.44694 36.0144 3.25702 35.9852H3.16936L3.11092 35.9706C2.81872 35.9267 2.54113 35.8535 2.26353 35.7511H2.24893L2.19049 35.7219L2.11743 35.6926C1.91289 35.5902 1.73758 35.5025 1.57687 35.4001C0.904805 34.9466 0.451895 34.303 0.218135 33.4837L0.203526 33.4399L0.159695 33.3082C0.101255 33.1181 0.072035 32.9133 0.042815 32.6939L0.028205 32.5622V32.5183C-0.00101502 32.2842 -0.015625 32.0502 -0.015625 31.8015L-0.00101503 27.925C-0.00101503 27.6764 0.013595 27.5008 0.057425 27.3838C0.130475 27.1644 0.291185 27.0035 0.510335 26.8865C0.729485 26.7694 0.963246 26.7109 1.21162 26.7109H1.27006L1.45999 26.7255L1.44537 26.7402C1.70835 26.7694 1.92751 26.8719 2.08822 27.0181C2.26353 27.179 2.38042 27.4277 2.42424 27.7933L2.43886 27.9689V28.0128C2.45347 28.2322 2.45347 28.5541 2.42424 28.9783C2.40963 29.1977 2.39503 29.3439 2.39503 29.4172C2.39503 29.7536 2.39503 30.2363 2.38042 30.8799C2.3658 31.5675 2.3658 32.0941 2.3658 32.4306C2.3658 32.8255 2.48269 33.1766 2.71644 33.4837C2.95021 33.791 3.28623 33.9665 3.70992 33.9957C4.119 34.025 4.45504 33.908 4.70341 33.6593C5.08326 33.3082 5.2732 32.7377 5.25859 31.9625V31.7869L5.24397 30.9238L5.22937 28.4662C5.21476 28.0128 5.25859 27.6764 5.34624 27.4716C5.40468 27.34 5.47774 27.2083 5.58001 27.1059C5.68228 27.0035 5.79915 26.9011 5.93065 26.8279C6.06213 26.7548 6.20823 26.7109 6.33973 26.7109C6.45661 26.6963 6.5881 26.6963 6.71958 26.7402H6.74881L6.96796 26.7986H6.93873C7.11406 26.8865 7.27477 27.0034 7.37704 27.1644V27.1205L7.4647 27.3106V27.3252L7.47931 27.3692C7.55235 27.5447 7.58158 27.7933 7.59618 28.1298C7.6108 28.671 7.62541 29.4756 7.62541 30.5434C7.66924 30.9677 7.66924 31.2896 7.66924 31.5236Z" fill="#EF7669"/>
<path d="M38.3207 35.8099H12.2857C11.9642 35.8099 11.7012 35.5466 11.7012 35.2247C11.7012 34.903 11.9642 34.6397 12.2857 34.6397H37.7216V13.9992C37.7216 13.6774 37.9846 13.4141 38.306 13.4141C38.6274 13.4141 38.8904 13.6774 38.8904 13.9992V35.2394C38.9051 35.5466 38.6421 35.8099 38.3207 35.8099Z" fill="#F7E300"/>
</g>
<defs>
<clipPath id="clip0_1722_2420">
<rect width="39" height="36" fill="white"/>
</clipPath>
</defs>
</svg>
