<svg width="1728" height="289" viewBox="0 0 1728 289" fill="none" xmlns="http://www.w3.org/2000/svg">
<path d="M870.105 33.8464C871.693 33.487 871.672 28.3124 872.314 26.7227C873.681 26.78 880.028 25.222 879.995 24.0688C879.91 23.1432 878.219 22.5467 877.572 22.1274C876.226 21.1192 874.494 20.8093 873.168 19.7929C873.212 19.4064 873.281 19.0261 873.335 18.6409C873.463 17.2555 874.388 13.5992 872.608 13.3094C872.112 13.2945 871.336 13.8651 871.006 14.1763C870.136 14.9468 869.475 16.0096 868.818 16.964C867.707 18.573 866.106 17.6197 864.585 16.9169C863.879 16.591 861.041 15.129 860.478 16.3057C860.237 16.8056 860.845 17.6651 861.137 18.0777C862.036 19.2986 862.962 20.4772 863.818 21.7365C863.266 22.3115 862.704 22.8552 862.161 23.4425C861.366 24.4381 860.72 25.6001 860.004 26.6594C859.721 27.0772 859.334 27.649 859.625 28.1386C859.895 28.5705 860.466 28.5701 860.882 28.5701C863.014 28.5732 864.358 28.4508 866.729 27.7228C867.365 29.3418 868.638 34.1784 870.105 33.8464Z" fill="white"/>
<path d="M47.4762 50.6948C45.6513 53.5001 35.6892 49.7714 32.1663 49.8766C31.3025 52.5526 23.7738 63.6799 21.5743 62.793C19.8505 61.9689 19.9057 58.2841 19.5582 56.7381C18.5739 53.4241 19.2114 49.8629 18.1968 46.5822C17.4204 46.3911 16.6379 46.2534 15.8566 46.0834C13.094 45.343 5.38555 44.5188 6.09592 40.8799C6.42043 39.9138 8.07352 38.8249 8.90893 38.41C11.0145 37.2822 13.5353 36.7644 15.8437 36.178C19.7374 35.1843 19.0408 31.418 18.7705 27.9828C18.6452 26.3903 17.8496 19.876 20.5198 19.6287C21.6549 19.5217 22.8788 21.3062 23.4662 22.1635C25.1794 24.7666 26.7915 27.393 28.6092 29.9413C30.1115 29.2862 31.5609 28.5893 33.0798 27.9619C35.566 27.1395 38.2673 26.721 40.8199 26.0959C41.8269 25.8489 43.2057 25.5091 43.9418 26.4205C44.5824 27.248 44.1748 28.3484 43.8778 29.1514C42.3637 33.2649 41.1703 35.7673 38.0764 39.8198C40.7441 42.2016 49.162 48.1034 47.4762 50.6948Z" fill="white"/>
<path d="M444.424 119.059C442.142 115.551 429.684 120.214 425.279 120.082C424.199 116.736 414.784 102.821 412.034 103.93C409.878 104.961 409.947 109.569 409.513 111.502C408.282 115.646 409.079 120.099 407.81 124.202C406.839 124.441 405.861 124.613 404.884 124.826C401.429 125.751 391.79 126.782 392.678 131.332C393.084 132.541 395.151 133.902 396.196 134.421C398.829 135.831 401.981 136.479 404.868 137.212C409.737 138.455 408.866 143.165 408.528 147.46C408.371 149.452 407.376 157.598 410.715 157.907C412.135 158.041 413.665 155.809 414.4 154.737C416.542 151.482 418.558 148.198 420.831 145.011C422.709 145.83 424.522 146.702 426.421 147.486C429.53 148.515 432.908 149.038 436.1 149.82C437.36 150.129 439.084 150.554 440.004 149.414C440.805 148.379 440.296 147.003 439.924 145.999C438.031 140.855 436.538 137.726 432.67 132.658C436.006 129.68 446.532 122.3 444.424 119.059Z" fill="white"/>
<path d="M550.072 31.4147C548.58 29.685 552.919 23.8659 553.52 21.5372C551.931 20.462 546.071 13.4113 547.071 12.1386C547.939 11.1657 550.343 11.9029 551.423 11.9693C553.782 11.9547 555.994 13.05 558.337 13.0093C558.61 12.5368 558.849 12.0502 559.109 11.5705C560.12 9.90094 562.127 5.00613 564.376 6.16393C564.948 6.56041 565.347 7.85089 565.46 8.4773C565.798 10.0717 565.658 11.8222 565.603 13.4466C565.513 16.1872 568.114 16.4473 570.417 16.9237C571.484 17.1445 575.905 17.8624 575.559 19.6594C575.413 20.4236 574.011 20.8862 573.337 21.108C571.305 21.7355 569.277 22.2923 567.262 22.9987C567.405 24.1079 567.586 25.1903 567.708 26.305C567.774 28.0908 567.535 29.9407 567.459 31.7324C567.429 32.4394 567.389 33.4076 566.652 33.7166C565.988 33.9789 565.344 33.5025 564.874 33.1551C562.467 31.3803 561.054 30.1221 558.987 27.3236C556.918 28.6187 551.449 33.0124 550.072 31.4147Z" fill="white"/>
<path d="M1315.46 38.8056C1313.99 41.0695 1305.95 38.0605 1303.11 38.1454C1302.41 40.3048 1296.34 49.2844 1294.56 48.5686C1293.17 47.9036 1293.22 44.93 1292.94 43.6824C1292.14 41.0081 1292.66 38.1343 1291.84 35.4868C1291.21 35.3326 1290.58 35.2215 1289.95 35.0843C1287.72 34.4869 1281.5 33.8217 1282.07 30.8852C1282.33 30.1055 1283.67 29.2269 1284.34 28.892C1286.04 27.9819 1288.07 27.5641 1289.94 27.0908C1293.08 26.289 1292.52 23.2496 1292.3 20.4774C1292.2 19.1923 1291.56 13.9354 1293.71 13.7358C1294.63 13.6495 1295.61 15.0895 1296.09 15.7814C1297.47 17.882 1298.77 20.0015 1300.24 22.0579C1301.45 21.5293 1302.62 20.9669 1303.85 20.4606C1305.85 19.7969 1308.03 19.4592 1310.09 18.9548C1310.91 18.7554 1312.02 18.4812 1312.61 19.2167C1313.13 19.8845 1312.8 20.7725 1312.56 21.4205C1311.34 24.74 1310.38 26.7594 1307.88 30.0297C1310.03 31.9518 1316.82 36.7144 1315.46 38.8056Z" fill="white"/>
<path d="M1253.89 244.413C1252.6 246.401 1245.54 243.759 1243.05 243.834C1242.43 245.73 1237.1 253.614 1235.54 252.985C1234.32 252.401 1234.36 249.791 1234.11 248.695C1233.42 246.347 1233.87 243.824 1233.15 241.499C1232.6 241.364 1232.04 241.266 1231.49 241.146C1229.53 240.621 1224.07 240.037 1224.57 237.459C1224.8 236.775 1225.98 236.003 1226.57 235.709C1228.06 234.91 1229.85 234.543 1231.48 234.128C1234.24 233.424 1233.75 230.755 1233.56 228.321C1233.47 227.193 1232.9 222.577 1234.79 222.402C1235.6 222.326 1236.47 223.59 1236.88 224.198C1238.1 226.042 1239.24 227.903 1240.53 229.709C1241.59 229.245 1242.62 228.751 1243.69 228.306C1245.46 227.724 1247.37 227.427 1249.18 226.984C1249.89 226.809 1250.87 226.568 1251.39 227.214C1251.84 227.801 1251.55 228.58 1251.34 229.149C1250.27 232.064 1249.43 233.837 1247.23 236.708C1249.12 238.396 1255.09 242.577 1253.89 244.413Z" fill="white"/>
<path d="M1676.04 35.3474C1677.47 31.7879 1689.5 33.7755 1693.44 32.8771C1693.82 29.676 1699.82 15.4934 1702.49 16.0038C1704.61 16.549 1705.37 20.7056 1706.1 22.3675C1707.94 25.8768 1708.01 30.0235 1709.88 33.4887C1710.8 33.5317 1711.71 33.5132 1712.62 33.5315C1715.89 33.7523 1724.75 32.9722 1724.75 37.2223C1724.6 38.3809 1722.98 39.9716 1722.14 40.6233C1720.02 42.3581 1717.3 43.4987 1714.83 44.6695C1710.67 46.6494 1712.29 50.7312 1713.35 54.5351C1713.85 56.2985 1716.19 63.4491 1713.24 64.3187C1711.98 64.6904 1710.21 62.9544 1709.36 62.1202C1706.86 59.5718 1704.46 56.9747 1701.85 54.5112C1700.31 55.5807 1698.83 56.6855 1697.26 57.7275C1694.65 59.2032 1691.71 60.2721 1688.97 61.5404C1687.89 62.0413 1686.42 62.7288 1685.39 61.8668C1684.49 61.0779 1684.7 59.75 1684.86 58.7811C1685.65 53.8192 1686.44 50.7403 1689.02 45.4972C1685.49 43.409 1674.72 38.6353 1676.04 35.3474Z" fill="white"/>
<path d="M541.413 140.432C548.246 136.7 550.675 134.242 551.115 131.928C559.059 132.515 572.804 132.752 592.787 130.575C611.029 128.627 624.232 118.092 643.005 105.715C645.497 104.998 648.074 104.198 650.731 103.566C673.574 97.4456 711.157 91.4912 740.036 86.2672C744.38 90.2084 752.453 94.1087 771.202 91.1724C803.972 86.0749 844.092 119.57 909.754 128.01C975.332 136.449 1045.04 123.651 1080.39 117.174C1115.75 110.781 1157.11 100.231 1178.57 98.816C1191.42 97.9666 1205.77 95.8919 1215.31 94.3428C1230.13 102.129 1226.05 111.192 1226.05 111.192C1224.07 118.375 1219.2 124.449 1212.35 129.589C1204.44 125.608 1193.21 122.418 1182.3 128.175C1168.64 135.392 1161.42 144.255 1148.54 155.456C1140.81 157.688 1133.25 159.922 1126.35 162.163C1100.66 170.653 1062.69 188.777 1034.27 205.186C1028.76 201.48 1020.93 198.245 1011.31 199.876C993.468 202.823 972.177 218.236 956.789 216.821C959.737 212.382 965.203 204.99 967.221 202.362C974.221 198.466 982.689 196.573 999.913 189.396C1051.33 168.111 969.405 177.459 932.209 185.902C895.012 194.345 844.847 192.456 806.311 180.015C791.623 175.295 767.154 171.293 742.593 168.201C726.659 163.798 709.484 159.299 690.652 154.781C608.141 135.054 581.6 160.677 566.966 165.813C552.333 170.949 506.034 186.08 502.897 177.846C499.677 169.611 526.164 148.791 541.413 140.432Z" fill="white"/>
<path d="M1080.32 117.256C1044.97 123.65 975.338 136.532 909.676 128.092C844.098 119.653 803.895 86.157 771.125 91.2545C752.375 94.1908 744.387 90.2086 739.958 86.3493C755.891 83.4642 769.172 80.7977 775.823 78.5536C794.697 71.892 795.099 72.9732 808.07 75.6863C821.042 78.3994 854.03 67.1909 917.284 68.7301C980.539 70.2694 1114.3 76.1185 1168.09 79.7334C1193.25 81.4241 1206.75 89.8575 1215.23 94.3421C1205.69 95.8912 1191.34 97.8831 1178.5 98.8153C1157.03 100.313 1115.67 110.78 1080.32 117.256Z" fill="#E9E8FF"/>
<path d="M932.217 185.985C969.413 177.542 1051.34 168.193 999.921 189.479C982.698 196.656 974.229 198.548 967.229 202.445C968.826 200.31 967.229 202.445 967.229 202.445C967.229 202.445 952.312 210.642 887.394 202.458C837.278 196.181 796.598 182.97 742.685 168.202C767.246 171.294 791.632 175.295 806.403 180.016C844.855 192.539 895.02 194.428 932.217 185.985Z" fill="#E9E8FF"/>
<path d="M1182.31 128.34C1193.22 122.583 1204.45 125.691 1212.36 129.755C1196.9 141.507 1171.73 148.843 1148.54 155.621C1161.42 144.42 1168.65 135.557 1182.31 128.34Z" fill="#E9E8FF"/>
<path d="M945.239 242.944C943.804 237.958 950.476 226.439 956.795 216.903C972.183 218.319 993.557 202.907 1011.31 199.959C1020.85 198.41 1028.69 201.562 1034.28 205.269C1022.36 212.092 1012.1 218.685 1005.08 224.072C981.352 242.521 947.785 252.165 945.239 242.944Z" fill="#E9E8FF"/>
<path d="M551.127 131.928C551.573 129.117 548.786 126.601 546.928 122.44C543.533 114.948 550.856 119.254 570.359 122.952C588.374 126.384 611.607 115.051 643.1 105.715C624.245 118.009 611.042 128.544 592.799 130.574C572.816 132.752 558.989 132.43 551.127 131.928Z" fill="#E9E8FF"/>
<path d="M1112.8 115.717C1119.51 115.792 1119.39 126.143 1112.69 126.067C1105.98 125.992 1106.09 115.641 1112.8 115.717Z" fill="#E9E8FF"/>
<path d="M1225.96 105.228C1225.96 105.228 1196.2 108.206 1179.59 112.326C1162.98 116.446 1147.48 124.719 1136.45 126.168C1128.66 127.24 1139.47 130.426 1160.25 123.372C1181.03 116.318 1201.88 111.169 1216.63 110.341C1223.34 110.002 1226.5 108.713 1226.5 108.713C1226.5 108.713 1226.85 106.978 1225.96 105.228Z" fill="#E9E8FF"/>
<path d="M1483.77 239.74C1520.23 246.106 1585.91 249.121 1640.19 238.601C1686.56 229.614 1729.45 212.255 1713.81 177.743C1698.18 143.232 1630 164.245 1613.32 137.85C1593.55 106.562 1521.54 80.0429 1497.91 119.249C1474.28 158.455 1407.71 122.369 1384.6 186.227C1371.76 221.677 1447.31 233.374 1483.77 239.74Z" fill="white"/>
<path fill-rule="evenodd" clip-rule="evenodd" d="M715.31 287.027C684.388 290.322 634.7 286.693 624.913 282.112C586.914 264.324 615.843 250.604 636.48 240.817C642.715 237.86 648.192 235.262 650.84 233.02C683.766 205.129 737.624 227.069 749.212 252.124C780.453 257.421 803.9 273.591 777.502 283.384C758.818 290.314 732.372 288.372 718.722 287.269C717.684 287.185 716.539 287.106 715.31 287.027Z" fill="white"/>
<path fill-rule="evenodd" clip-rule="evenodd" d="M79.8112 222.035C122.597 229.779 180.778 223.522 203.244 220.819C231.8 217.384 285.184 207.799 276.795 178.172C272.605 163.372 261.085 158.454 248.535 153.096C235.963 147.728 222.358 141.919 214.052 125.292C197.456 92.0672 131.809 105.613 111.004 113.74C105.899 115.734 99.6645 117.416 92.9612 119.224C72.3484 124.783 47.3006 131.538 37.0013 152.27C30.5112 165.334 26.1662 175.844 26.6447 185.035C10.0995 189.262 -0.614466 196.795 0.0273303 208.775C0.859337 224.306 26.6681 223.032 49.1172 221.923C56.6835 221.55 63.868 221.195 69.5861 221.509C72.6374 221.676 76.0734 221.861 79.8112 222.035Z" fill="white"/>
</svg>
