<svg width="223" height="367" viewBox="0 0 223 367" fill="none" xmlns="http://www.w3.org/2000/svg">
<path d="M86.8475 269.681C43.0639 278.558 -99.8779 294.264 -160.08 242.025C-206.753 201.526 -218.914 152.573 -198.39 83.9465C-177.867 15.3205 -66.3952 45.3658 -34.5837 24.8804C-2.77222 4.39502 97.7934 -30.0888 123.79 52.5356C149.786 135.16 207.594 109.895 220.935 183.642C234.275 257.389 130.631 260.804 86.8475 269.681Z" fill="white"/>
<path d="M97.8844 337.082L97.8728 337.051C97.3937 335.851 95.9625 335.613 94.9173 335.439C94.6623 335.396 94.4248 335.358 94.2452 335.314C92.923 334.907 91.6784 334.742 90.3608 334.569C90.023 334.524 89.6782 334.479 89.3399 334.431C88.5218 334.277 87.7361 334.063 86.9052 333.836C85.7678 333.526 84.5928 333.205 83.3117 333.055C81.6661 332.936 80.5955 332.595 79.1069 331.976C78.9151 331.88 78.6741 331.778 78.3902 331.673C78.3919 331.525 78.3653 331.377 78.2778 331.253C78.1712 331.029 78.0704 330.723 78.0495 330.671C77.4423 329.414 76.8924 328.028 76.2857 326.234C76.1473 325.455 75.9566 324.43 75.7115 323.4C75.5082 322.588 75.2648 321.797 75.029 321.031C74.5307 319.416 74.0614 317.891 73.9768 316.234C73.8522 314.979 73.3447 313.13 72.5399 312.057C72.3522 311.776 72.1082 311.514 71.8521 311.318L71.8631 311.285C71.8307 311.271 71.8 311.26 71.7496 311.242C71.5978 311.137 71.4628 311.067 71.3295 311.021L70.5751 311L70.5676 311.067C69.3995 311.21 68.7366 312.329 68.1457 313.358C67.67 313.783 67.3473 314.447 67.0808 315.051C66.8148 315.49 66.5634 315.939 66.3084 316.392C66.0454 316.862 65.7777 317.339 65.5019 317.793C65.1548 318.287 64.8616 318.756 64.6224 319.196C64.4114 319.516 64.1965 319.829 63.9827 320.14C63.1837 321.301 62.3581 322.502 61.829 324.004C61.4043 325.416 60.91 326.856 60.4517 328.015C60.3335 328.484 60.2234 328.927 59.8613 329.42C59.8051 329.533 59.6603 329.747 59.5322 329.925C59.2384 329.901 58.9476 329.88 58.6782 329.869C58.3027 329.829 57.9273 329.774 57.5524 329.719C57.1735 329.664 56.7951 329.61 56.3953 329.566C55.3721 329.502 54.4467 329.535 53.5504 329.566C52.6633 329.597 51.8243 329.627 50.8875 329.565C50.3591 329.565 49.7999 329.477 49.209 329.383C48.6116 329.289 48.0143 329.172 47.4406 329.193L47.2547 329.174C45.9081 329.036 43.1015 328.744 42.3888 330.743C42.3575 330.86 42.3442 330.966 42.3372 331.064C42.1634 331.299 42.0504 331.592 42 331.974C42 332.55 42.3569 333.078 42.6171 333.463L42.9068 333.957C43.3326 334.718 43.8164 335.581 44.481 336.245C45.8582 337.709 47.4214 338.735 49.0762 339.823C49.8386 340.325 50.6272 340.842 51.4019 341.413C51.6667 341.595 51.9419 341.773 52.2177 341.951C54.0631 343.144 55.6576 344.173 54.8268 346.361C54.4374 347.386 54.1049 348.472 53.7821 349.522C53.3795 350.836 52.9623 352.194 52.4356 353.431C51.216 356.296 49.8347 359.543 50.1463 362.935C50.2263 363.801 50.5519 364.368 51.1139 364.616C52.4888 365.227 54.7694 363.509 55.8644 362.683L56.0411 362.545C56.5064 362.079 57.2272 361.457 57.4641 361.296L57.6171 361.213C57.8732 361.021 58.1612 360.797 58.4485 360.573C58.722 360.36 58.9943 360.148 59.2817 359.928C60.0083 359.202 61.6057 357.849 61.6039 357.849C62.0901 357.485 62.6214 357.141 63.1347 356.809C63.6631 356.467 64.2089 356.114 64.7188 355.731C64.9778 355.537 65.209 355.372 65.439 355.207L65.5653 355.115C66.0445 355.548 66.5225 355.983 66.9947 356.424C67.5451 357.211 68.4716 357.88 68.9925 358.252L69.3929 358.622C69.6919 358.9 69.9926 359.179 70.3258 359.469C70.7777 359.808 71.4428 360.249 72.0784 360.454C72.4104 360.66 72.747 360.864 73.0918 361.073L73.9811 361.615C74.3601 361.832 75.0866 362.339 75.8562 362.874C76.8313 363.554 77.8406 364.257 78.4878 364.616C78.694 364.719 78.9443 364.878 79.2236 365.055C80.0707 365.592 81.1449 366.273 82.1734 366.273C82.5483 366.273 82.9168 366.183 83.265 365.961C84.414 365.195 84.3664 363.647 84.3323 362.518C84.327 362.336 84.3213 362.162 84.3207 362.025C84.476 359.254 84.3948 357.047 84.0605 355.049C83.9342 354.543 83.7754 354.036 83.6178 353.53C83.4689 353.055 83.3212 352.58 83.2001 352.105C83.185 351.475 82.9376 349.044 82.3704 347.923C82.0251 347.463 81.7939 347.004 81.5511 346.519C83.2349 346.27 84.7639 345.71 86.2466 345.168C86.7958 344.967 87.344 344.766 87.9204 344.573C90.1772 343.696 92.1448 342.712 94.4624 341.552L94.868 341.315C96.2423 340.519 98.5431 339.193 97.8838 337.082L97.8844 337.082Z" fill="white"/>
<path d="M210.94 56.39L210.934 56.3741C210.686 55.7524 209.945 55.6294 209.404 55.5391C209.272 55.5172 209.149 55.4971 209.056 55.4743C208.371 55.2639 207.726 55.1784 207.044 55.0884C206.869 55.0653 206.691 55.0419 206.515 55.017C206.092 54.9375 205.685 54.8265 205.254 54.7092C204.665 54.5483 204.057 54.3821 203.394 54.3044C202.541 54.2432 201.987 54.0665 201.216 53.7457C201.117 53.6959 200.992 53.6434 200.845 53.5891C200.846 53.5126 200.832 53.4355 200.787 53.3716C200.731 53.2554 200.679 53.097 200.668 53.07C200.354 52.4192 200.069 51.7012 199.755 50.7722C199.683 50.3687 199.585 49.8379 199.458 49.305C199.352 48.884 199.226 48.4745 199.104 48.078C198.846 47.2418 198.603 46.4518 198.559 45.5936C198.495 44.9437 198.232 43.9866 197.815 43.4309C197.718 43.2854 197.592 43.1494 197.459 43.048L197.465 43.0309C197.448 43.0237 197.432 43.0177 197.406 43.0084C197.327 42.9541 197.258 42.9178 197.188 42.8944L196.798 42.8833L196.794 42.9178C196.189 42.9919 195.846 43.5713 195.54 44.1045C195.293 44.3247 195.126 44.6683 194.988 44.9812C194.851 45.2087 194.72 45.4412 194.588 45.6758C194.452 45.9192 194.313 46.1658 194.171 46.4013C193.991 46.657 193.839 46.9 193.715 47.1278C193.606 47.2934 193.495 47.4554 193.384 47.6165C192.97 48.2178 192.543 48.8399 192.269 49.6176C192.049 50.3485 191.793 51.0947 191.555 51.6948C191.494 51.9376 191.437 52.1671 191.25 52.4221C191.221 52.4809 191.145 52.5917 191.079 52.6838C190.927 52.6712 190.776 52.6607 190.637 52.655C190.442 52.634 190.248 52.6055 190.054 52.5773C189.858 52.5488 189.662 52.5206 189.455 52.4977C188.925 52.4647 188.446 52.4815 187.981 52.4977C187.522 52.5136 187.088 52.5293 186.602 52.4974C186.329 52.4974 186.039 52.4518 185.733 52.4032C185.424 52.3543 185.115 52.294 184.817 52.3048L184.721 52.2949C184.024 52.2232 182.57 52.072 182.201 53.1074C182.185 53.1677 182.178 53.2227 182.175 53.2734C182.085 53.3952 182.026 53.547 182 53.7447C182 54.0433 182.185 54.3163 182.32 54.5159L182.47 54.7715C182.69 55.1661 182.941 55.6128 183.285 55.9567C183.998 56.7146 184.808 57.2463 185.664 57.8095C186.059 58.0693 186.468 58.3373 186.869 58.6329C187.006 58.7271 187.148 58.8192 187.291 58.9113C188.247 59.5291 189.073 60.0623 188.642 61.1952C188.441 61.726 188.269 62.2886 188.101 62.8323C187.893 63.5128 187.677 64.2161 187.404 64.8567C186.773 66.3401 186.057 68.0216 186.219 69.778C186.26 70.2266 186.429 70.52 186.72 70.6488C187.432 70.965 188.613 70.0754 189.18 69.6478L189.271 69.5761C189.512 69.3352 189.885 69.0126 190.008 68.9292L190.087 68.8863C190.22 68.787 190.369 68.6709 190.518 68.5551C190.66 68.4449 190.801 68.3351 190.949 68.2208C191.326 67.8448 192.153 67.1442 192.152 67.1442C192.404 66.9558 192.679 66.7778 192.945 66.6056C193.218 66.4289 193.501 66.2461 193.765 66.0478C193.899 65.9473 194.019 65.8615 194.138 65.776L194.203 65.7286C194.452 65.953 194.699 66.178 194.944 66.4064C195.229 66.8141 195.709 67.1604 195.978 67.353L196.186 67.5447C196.34 67.6888 196.496 67.8334 196.669 67.9834C196.903 68.1589 197.247 68.3873 197.576 68.4932C197.748 68.6003 197.923 68.7056 198.101 68.8139L198.562 69.0948C198.758 69.207 199.134 69.4695 199.533 69.7468C200.038 70.0987 200.56 70.463 200.895 70.6487C201.002 70.7021 201.132 70.7846 201.277 70.8762C201.715 71.154 202.271 71.5069 202.804 71.5069C202.998 71.5069 203.189 71.46 203.369 71.3451C203.964 70.9485 203.94 70.147 203.922 69.5622C203.919 69.468 203.916 69.378 203.916 69.3072C203.996 67.8717 203.954 66.7289 203.781 65.6943C203.716 65.4324 203.634 65.1698 203.552 64.9079C203.475 64.6619 203.398 64.4158 203.336 64.1698C203.328 63.8433 203.2 62.5846 202.906 62.0044C202.727 61.7661 202.608 61.5282 202.482 61.2771C203.354 61.1483 204.146 60.8582 204.913 60.5773C205.198 60.4732 205.482 60.3691 205.78 60.2695C206.949 59.8149 207.968 59.3054 209.168 58.7051L209.378 58.5823C210.09 58.1698 211.281 57.483 210.94 56.3899L210.94 56.39Z" fill="white"/>
</svg>
