<svg width="218" height="356" viewBox="0 0 218 356" fill="none" xmlns="http://www.w3.org/2000/svg">
<path d="M155.845 288.318C205.696 297.416 302.272 313.455 370.357 257.497C423.141 214.114 436.621 162.012 412.794 89.2594C388.967 16.5066 328.503 48.834 292.183 27.3126C255.864 5.79127 141.262 -30.0779 112.29 57.9018C83.3172 145.881 17.4023 119.48 2.75812 197.932C-11.886 276.384 105.994 279.221 155.845 288.318Z" fill="white"/>
<path d="M46.556 34.7163L46.5464 34.6908C46.1481 33.6931 44.9588 33.4957 44.0901 33.3507C43.8782 33.3156 43.6807 33.2833 43.5315 33.2467C42.4326 32.9092 41.3982 32.7719 40.3032 32.6275C40.0225 32.5904 39.736 32.5528 39.4548 32.5129C38.7748 32.3853 38.1219 32.2071 37.4314 32.0188C36.4861 31.7607 35.5095 31.4939 34.4448 31.3692C33.0773 31.271 32.1875 30.9874 30.9503 30.4726C30.7909 30.3927 30.5906 30.3084 30.3546 30.2213C30.3561 30.0985 30.3339 29.9747 30.2612 29.8721C30.1726 29.6858 30.0888 29.4315 30.0715 29.3882C29.5669 28.3437 29.1099 27.1915 28.6057 25.7006C28.4906 25.053 28.3322 24.2011 28.1285 23.3459C27.9595 22.6703 27.7572 22.013 27.5612 21.3768C27.1471 20.0348 26.7571 18.7669 26.6867 17.3897C26.5832 16.3467 26.1614 14.8106 25.4925 13.9188C25.3365 13.6853 25.1338 13.4672 24.921 13.3044L24.9301 13.277C24.9031 13.2654 24.8776 13.2558 24.8357 13.2408C24.7096 13.1537 24.5974 13.0954 24.4866 13.0579L23.8597 13.04L23.8534 13.0954C22.8826 13.2144 22.3317 14.1442 21.8406 14.9999C21.4453 15.3533 21.1771 15.9047 20.9556 16.4069C20.7345 16.7719 20.5255 17.1451 20.3137 17.5216C20.0951 17.9122 19.8726 18.308 19.6434 18.686C19.355 19.0963 19.1113 19.4863 18.9124 19.8518C18.7371 20.1176 18.5585 20.3776 18.3808 20.6362C17.7168 21.6012 17.0306 22.5994 16.5909 23.8476C16.2379 25.0206 15.8272 26.2181 15.4463 27.1812C15.348 27.5708 15.2565 27.9392 14.9556 28.3485C14.9089 28.4429 14.7885 28.6205 14.6821 28.7684C14.4379 28.7481 14.1962 28.7313 13.9723 28.7221C13.6603 28.6884 13.3482 28.6427 13.0367 28.5974C12.7218 28.5517 12.4073 28.5064 12.0751 28.4698C11.2247 28.4168 10.4556 28.4438 9.71068 28.4698C8.97345 28.4953 8.27616 28.5204 7.49757 28.4693C7.05841 28.4693 6.59374 28.3961 6.10262 28.3181C5.60616 28.2396 5.10969 28.1428 4.63296 28.1602L4.47839 28.1443C3.35931 28.0292 1.02676 27.7865 0.434433 29.4483C0.40843 29.5451 0.397356 29.6332 0.391577 29.7146C0.247114 29.9101 0.153216 30.1537 0.111328 30.4711C0.111328 30.9502 0.407947 31.3884 0.624167 31.7086L0.86493 32.1189C1.21886 32.7521 1.62094 33.4691 2.17322 34.0209C3.31783 35.2373 4.61698 36.0906 5.99221 36.9944C6.6259 37.4114 7.28127 37.8414 7.92512 38.3158C8.14519 38.467 8.37391 38.6148 8.60312 38.7626C10.1368 39.7541 11.4619 40.6097 10.7715 42.428C10.4479 43.2799 10.1715 44.1827 9.90328 45.0552C9.56862 46.1473 9.22191 47.2761 8.78419 48.3041C7.77056 50.6847 6.62261 53.3832 6.88161 56.2021C6.94806 56.922 7.21868 57.393 7.68576 57.5995C8.82844 58.1071 10.7238 56.6793 11.6338 55.9932L11.7807 55.8781C12.1673 55.4914 12.7664 54.9738 12.9633 54.8399L13.0905 54.771C13.3033 54.6117 13.5426 54.4253 13.7815 54.2394C14.0087 54.0627 14.2351 53.8865 14.4739 53.703C15.0777 53.0996 16.4053 51.9752 16.4039 51.9752C16.8079 51.6728 17.2494 51.3873 17.676 51.1109C18.1152 50.8272 18.5688 50.534 18.9926 50.2157C19.2078 50.0544 19.4 49.9167 19.5911 49.7794L19.6961 49.7033C20.0943 50.0635 20.4916 50.4247 20.8841 50.7911C21.3415 51.4455 22.1115 52.0012 22.5444 52.3103L22.8771 52.618C23.1256 52.8492 23.3755 53.0813 23.6524 53.322C24.028 53.6037 24.5808 53.9702 25.109 54.1401C25.3849 54.312 25.6647 54.4811 25.9512 54.6549L26.6904 55.1056C27.0053 55.2857 27.6091 55.7071 28.2486 56.152C29.0591 56.7168 29.8979 57.3014 30.4358 57.5995C30.6072 57.6852 30.8152 57.8176 31.0473 57.9645C31.7513 58.4104 32.644 58.9766 33.4988 58.9766C33.8104 58.9766 34.1166 58.9015 34.406 58.7171C35.3609 58.0805 35.3214 56.7943 35.293 55.8558C35.2887 55.7046 35.2839 55.5601 35.2834 55.4465C35.4124 53.1428 35.345 51.3087 35.0672 49.6484C34.9622 49.228 34.8303 48.8067 34.6993 48.3863C34.5755 47.9915 34.4527 47.5966 34.3521 47.2017C34.3396 46.6778 34.134 44.6578 33.6625 43.7266C33.3755 43.3442 33.1834 42.9624 32.9816 42.5593C34.381 42.3527 35.6517 41.8871 36.884 41.4364C37.3405 41.2693 37.796 41.1022 38.2751 40.9423C40.1507 40.2128 41.7859 39.3951 43.712 38.4316L44.0491 38.2347C45.1913 37.5726 47.1034 36.4704 46.5555 34.7161L46.556 34.7163Z" fill="white"/>
<path d="M128.413 336.68L128.421 336.66C128.737 335.868 129.681 335.711 130.37 335.596C130.538 335.569 130.695 335.543 130.814 335.514C131.686 335.246 132.506 335.137 133.375 335.023C133.598 334.993 133.826 334.963 134.049 334.932C134.588 334.83 135.106 334.689 135.654 334.54C136.404 334.335 137.179 334.123 138.024 334.024C139.11 333.946 139.816 333.721 140.797 333.313C140.924 333.249 141.083 333.182 141.27 333.113C141.269 333.016 141.286 332.917 141.344 332.836C141.414 332.688 141.481 332.486 141.495 332.452C141.895 331.623 142.258 330.709 142.658 329.526C142.749 329.012 142.875 328.336 143.037 327.657C143.171 327.121 143.331 326.6 143.487 326.095C143.815 325.03 144.125 324.024 144.181 322.931C144.263 322.103 144.598 320.884 145.128 320.176C145.252 319.991 145.413 319.818 145.582 319.689L145.575 319.667C145.596 319.658 145.616 319.65 145.65 319.638C145.75 319.569 145.839 319.523 145.927 319.493L146.424 319.479L146.429 319.523C147.199 319.617 147.637 320.355 148.026 321.034C148.34 321.315 148.553 321.752 148.729 322.151C148.904 322.44 149.07 322.737 149.238 323.035C149.411 323.345 149.588 323.659 149.77 323.959C149.999 324.285 150.192 324.594 150.35 324.884C150.489 325.095 150.631 325.302 150.772 325.507C151.299 326.273 151.843 327.065 152.192 328.055C152.472 328.986 152.798 329.936 153.101 330.701C153.178 331.01 153.251 331.302 153.49 331.627C153.527 331.702 153.623 331.843 153.707 331.96C153.901 331.944 154.093 331.931 154.27 331.923C154.518 331.897 154.765 331.86 155.013 331.825C155.263 331.788 155.512 331.752 155.776 331.723C156.451 331.681 157.061 331.703 157.652 331.723C158.237 331.744 158.79 331.763 159.408 331.723C159.757 331.723 160.125 331.665 160.515 331.603C160.909 331.541 161.303 331.464 161.681 331.478L161.804 331.465C162.692 331.374 164.543 331.181 165.013 332.5C165.034 332.577 165.043 332.646 165.047 332.711C165.162 332.866 165.236 333.06 165.27 333.311C165.27 333.692 165.034 334.039 164.863 334.293L164.672 334.619C164.391 335.121 164.072 335.69 163.633 336.128C162.725 337.094 161.694 337.771 160.603 338.488C160.1 338.819 159.58 339.16 159.069 339.536C158.894 339.656 158.713 339.774 158.531 339.891C157.314 340.678 156.262 341.357 156.81 342.8C157.067 343.476 157.286 344.192 157.499 344.885C157.765 345.751 158.04 346.647 158.387 347.463C159.192 349.352 160.103 351.493 159.897 353.73C159.844 354.301 159.63 354.675 159.259 354.839C158.352 355.242 156.848 354.109 156.126 353.564L156.009 353.473C155.703 353.166 155.227 352.755 155.071 352.649L154.97 352.595C154.801 352.468 154.611 352.32 154.422 352.173C154.241 352.032 154.062 351.893 153.872 351.747C153.393 351.268 152.339 350.376 152.341 350.376C152.02 350.136 151.67 349.909 151.331 349.69C150.983 349.465 150.623 349.232 150.286 348.98C150.116 348.852 149.963 348.742 149.811 348.633L149.728 348.573C149.412 348.859 149.097 349.145 148.785 349.436C148.422 349.956 147.811 350.397 147.468 350.642L147.204 350.886C147.007 351.069 146.808 351.254 146.589 351.445C146.291 351.668 145.852 351.959 145.433 352.094C145.214 352.23 144.992 352.364 144.764 352.502L144.178 352.86C143.928 353.003 143.449 353.337 142.941 353.69C142.298 354.139 141.632 354.602 141.206 354.839C141.07 354.907 140.905 355.012 140.72 355.129C140.162 355.482 139.453 355.932 138.775 355.932C138.528 355.932 138.285 355.872 138.055 355.726C137.297 355.221 137.329 354.2 137.351 353.455C137.355 353.335 137.358 353.221 137.359 353.131C137.256 351.302 137.31 349.847 137.53 348.529C137.614 348.196 137.718 347.861 137.822 347.528C137.921 347.215 138.018 346.901 138.098 346.588C138.108 346.172 138.271 344.569 138.645 343.83C138.873 343.527 139.025 343.224 139.185 342.904C138.075 342.74 137.067 342.371 136.089 342.013C135.726 341.88 135.365 341.748 134.985 341.621C133.496 341.042 132.199 340.393 130.67 339.628L130.403 339.472C129.496 338.947 127.979 338.072 128.414 336.68L128.413 336.68Z" fill="white"/>
</svg>
