<svg width="304" height="259" viewBox="0 0 304 259" fill="none" xmlns="http://www.w3.org/2000/svg">
<path d="M208.397 190.697C177.451 196.974 76.4202 208.081 33.8698 171.142C0.881622 142.504 -7.71393 107.887 6.79201 59.3604C21.2979 10.8333 100.086 32.079 122.57 17.5934C145.054 3.10768 216.133 -21.2766 234.507 37.149C252.882 95.5745 293.74 77.7089 303.169 129.857C312.598 182.006 239.343 184.42 208.397 190.697Z" fill="white"/>
<path d="M216.197 238.358L216.189 238.336C215.85 237.488 214.839 237.32 214.1 237.196C213.92 237.166 213.752 237.139 213.625 237.108C212.69 236.821 211.811 236.704 210.879 236.581C210.641 236.549 210.397 236.517 210.158 236.483C209.58 236.375 209.024 236.223 208.437 236.063C207.633 235.843 206.803 235.616 205.897 235.51C204.734 235.427 203.977 235.185 202.925 234.747C202.79 234.679 202.619 234.608 202.419 234.534C202.42 234.429 202.401 234.324 202.339 234.237C202.264 234.078 202.193 233.862 202.178 233.825C201.749 232.936 201.36 231.956 200.931 230.687C200.833 230.136 200.699 229.411 200.525 228.684C200.382 228.109 200.21 227.55 200.043 227.008C199.691 225.866 199.359 224.788 199.299 223.616C199.211 222.728 198.852 221.422 198.284 220.663C198.151 220.464 197.979 220.278 197.798 220.14L197.805 220.117C197.782 220.107 197.761 220.099 197.725 220.086C197.618 220.012 197.522 219.962 197.428 219.93L196.895 219.915L196.89 219.962C196.064 220.063 195.596 220.855 195.178 221.583C194.842 221.883 194.614 222.352 194.425 222.78C194.237 223.09 194.059 223.408 193.879 223.728C193.693 224.06 193.504 224.397 193.309 224.719C193.064 225.068 192.857 225.4 192.688 225.711C192.539 225.937 192.387 226.158 192.235 226.378C191.671 227.199 191.087 228.049 190.713 229.111C190.413 230.109 190.064 231.128 189.74 231.947C189.656 232.278 189.578 232.592 189.323 232.94C189.283 233.02 189.18 233.172 189.09 233.297C188.882 233.28 188.677 233.266 188.486 233.258C188.221 233.229 187.956 233.19 187.691 233.152C187.423 233.113 187.155 233.075 186.873 233.043C186.15 232.998 185.496 233.021 184.862 233.043C184.235 233.065 183.642 233.086 182.98 233.043C182.606 233.043 182.211 232.981 181.794 232.914C181.371 232.848 180.949 232.765 180.544 232.78L180.412 232.766C179.46 232.668 177.477 232.462 176.973 233.876C176.951 233.958 176.941 234.033 176.937 234.102C176.814 234.269 176.734 234.476 176.698 234.746C176.698 235.154 176.951 235.527 177.134 235.799L177.339 236.148C177.64 236.687 177.982 237.297 178.452 237.767C179.425 238.801 180.53 239.527 181.7 240.296C182.239 240.651 182.796 241.017 183.343 241.421C183.531 241.549 183.725 241.675 183.92 241.801C185.224 242.645 186.351 243.373 185.764 244.92C185.489 245.644 185.254 246.413 185.026 247.155C184.741 248.084 184.446 249.045 184.074 249.919C183.212 251.945 182.236 254.241 182.456 256.639C182.513 257.252 182.743 257.652 183.14 257.828C184.112 258.26 185.724 257.045 186.498 256.461L186.622 256.364C186.951 256.035 187.461 255.594 187.628 255.48L187.736 255.422C187.917 255.286 188.121 255.127 188.324 254.969C188.517 254.819 188.71 254.669 188.913 254.513C189.426 253.999 190.555 253.043 190.554 253.043C190.898 252.785 191.273 252.543 191.636 252.307C192.01 252.066 192.395 251.817 192.756 251.546C192.939 251.408 193.102 251.291 193.265 251.174L193.354 251.11C193.693 251.416 194.031 251.724 194.364 252.035C194.753 252.592 195.408 253.065 195.776 253.328L196.059 253.59C196.271 253.786 196.483 253.984 196.719 254.189C197.038 254.428 197.508 254.74 197.957 254.885C198.192 255.031 198.43 255.175 198.674 255.323L199.302 255.706C199.57 255.859 200.084 256.218 200.628 256.597C201.317 257.077 202.03 257.575 202.488 257.828C202.633 257.901 202.81 258.014 203.008 258.139C203.606 258.518 204.366 259 205.093 259C205.358 259 205.618 258.936 205.864 258.779C206.676 258.237 206.643 257.143 206.618 256.345C206.615 256.216 206.611 256.093 206.61 255.996C206.72 254.036 206.663 252.476 206.426 251.063C206.337 250.705 206.225 250.347 206.114 249.989C206.008 249.653 205.904 249.317 205.818 248.981C205.808 248.536 205.633 246.817 205.232 246.024C204.988 245.699 204.824 245.374 204.653 245.031C205.843 244.856 206.924 244.459 207.971 244.076C208.36 243.934 208.747 243.792 209.155 243.656C210.75 243.035 212.14 242.339 213.778 241.519L214.065 241.352C215.036 240.788 216.663 239.851 216.197 238.358L216.197 238.358Z" fill="white"/>
<path d="M296.105 39.8746L296.101 39.8634C295.926 39.4238 295.402 39.3368 295.019 39.2729C294.926 39.2574 294.839 39.2432 294.773 39.2271C294.289 39.0784 293.834 39.0179 293.351 38.9543C293.228 38.9379 293.102 38.9214 292.978 38.9038C292.678 38.8475 292.391 38.769 292.087 38.6861C291.67 38.5723 291.24 38.4548 290.771 38.3998C290.169 38.3566 289.777 38.2316 289.232 38.0048C289.162 37.9696 289.074 37.9324 288.97 37.894C288.971 37.8399 288.961 37.7854 288.929 37.7402C288.89 37.6581 288.853 37.5461 288.845 37.527C288.623 37.0668 288.422 36.5591 288.2 35.9022C288.149 35.6168 288.079 35.2415 287.989 34.8646C287.915 34.567 287.826 34.2774 287.74 33.9971C287.557 33.4057 287.385 32.8471 287.354 32.2403C287.309 31.7807 287.123 31.1039 286.829 30.7109C286.76 30.608 286.671 30.5119 286.577 30.4402L286.581 30.4281C286.569 30.423 286.558 30.4188 286.539 30.4122C286.484 30.3738 286.434 30.3481 286.386 30.3316L286.109 30.3237L286.107 30.3481C285.679 30.4005 285.437 30.8102 285.22 31.1873C285.046 31.343 284.928 31.5859 284.83 31.8072C284.733 31.968 284.641 32.1325 284.548 32.2984C284.451 32.4705 284.353 32.6449 284.253 32.8114C284.125 32.9922 284.018 33.1641 283.931 33.3251C283.853 33.4422 283.775 33.5568 283.696 33.6707C283.404 34.0959 283.102 34.5357 282.908 35.0857C282.753 35.6025 282.572 36.1302 282.404 36.5546C282.361 36.7262 282.321 36.8885 282.188 37.0689C282.167 37.1104 282.114 37.1887 282.068 37.2539C281.96 37.245 281.854 37.2375 281.755 37.2335C281.617 37.2187 281.48 37.1985 281.343 37.1786C281.204 37.1584 281.066 37.1385 280.919 37.1223C280.545 37.099 280.206 37.1109 279.878 37.1223C279.553 37.1336 279.246 37.1446 278.903 37.1221C278.71 37.1221 278.505 37.0899 278.289 37.0555C278.07 37.0209 277.852 36.9783 277.642 36.9859L277.574 36.9789C277.081 36.9282 276.054 36.8213 275.793 37.5534C275.781 37.5961 275.776 37.6349 275.774 37.6708C275.71 37.7569 275.669 37.8643 275.65 38.0041C275.65 38.2152 275.781 38.4083 275.876 38.5494L275.982 38.7301C276.138 39.0092 276.315 39.3251 276.558 39.5682C277.063 40.1042 277.635 40.4801 278.24 40.8784C278.519 41.0621 278.808 41.2516 279.092 41.4606C279.189 41.5272 279.289 41.5924 279.39 41.6575C280.066 42.0944 280.649 42.4714 280.345 43.2725C280.203 43.6479 280.081 44.0457 279.963 44.4301C279.815 44.9113 279.663 45.4087 279.47 45.8616C279.024 46.9105 278.518 48.0996 278.632 49.3416C278.661 49.6588 278.781 49.8663 278.986 49.9573C279.49 50.181 280.324 49.5519 280.725 49.2495L280.79 49.1988C280.96 49.0285 281.224 48.8004 281.311 48.7414L281.367 48.711C281.46 48.6408 281.566 48.5587 281.671 48.4768C281.771 48.3989 281.871 48.3213 281.976 48.2404C282.242 47.9746 282.826 47.4792 282.826 47.4792C283.004 47.3459 283.198 47.2201 283.386 47.0983C283.579 46.9733 283.779 46.8441 283.966 46.7039C284.061 46.6328 284.145 46.5721 284.23 46.5117L284.276 46.4781C284.451 46.6368 284.626 46.796 284.799 46.9574C285 47.2458 285.339 47.4906 285.53 47.6268L285.677 47.7624C285.786 47.8642 285.896 47.9665 286.018 48.0726C286.184 48.1967 286.427 48.3582 286.66 48.4331C286.781 48.5088 286.904 48.5833 287.031 48.6599L287.356 48.8585C287.495 48.9378 287.761 49.1235 288.042 49.3195C288.399 49.5684 288.769 49.826 289.006 49.9573C289.081 49.9951 289.173 50.0534 289.275 50.1181C289.585 50.3146 289.978 50.5641 290.355 50.5641C290.492 50.5641 290.627 50.531 290.754 50.4497C291.175 50.1692 291.157 49.6025 291.145 49.189C291.143 49.1224 291.141 49.0587 291.141 49.0087C291.197 47.9936 291.168 47.1855 291.045 46.4539C290.999 46.2687 290.941 46.083 290.883 45.8978C290.829 45.7239 290.775 45.5499 290.73 45.3759C290.725 45.1451 290.634 44.255 290.427 43.8447C290.3 43.6762 290.216 43.508 290.127 43.3304C290.743 43.2394 291.303 43.0342 291.845 42.8356C292.047 42.762 292.247 42.6883 292.458 42.6179C293.284 42.2965 294.004 41.9362 294.853 41.5117L295.001 41.4249C295.504 41.1331 296.346 40.6475 296.105 39.8745L296.105 39.8746Z" fill="white"/>
</svg>
