<svg viewBox="0 0 1920 915" fill="none" xmlns="http://www.w3.org/2000/svg">
<path d="M578.052 90.7784C586.035 82.0391 600.872 72.7531 623.351 63.9399C645.438 55.2808 673.158 47.7427 705.067 41.491C768.852 28.9942 847.496 21.9964 927.218 20.7436C1006.92 19.4912 1086.98 23.9918 1153.55 34.2058C1186.84 39.314 1216.39 45.7958 1240.66 53.5454C1265.24 61.393 1283.01 70.1087 1293.88 78.9525C1304.48 87.5774 1315.9 102.864 1327.2 125.08C1338.36 147.023 1348.77 174.436 1357.95 205.919C1376.31 268.875 1389.33 346.55 1394.23 425.882C1399.12 505.257 1395.82 585.414 1382.03 653.474C1368.11 722.21 1344.14 775.378 1310.41 804.591C1275.29 835 1219.3 858.252 1151.05 873.52C1083.24 888.688 1005.37 895.532 928.412 894.58C851.446 893.628 776.101 884.887 713.36 869.277C649.795 853.462 602.261 831.343 577.69 805.835C553.482 780.704 534.453 730.676 522.303 663.619C510.352 597.655 505.692 519.007 507.311 440.585C508.928 362.191 516.804 284.749 529.597 221.276C535.996 189.531 543.552 161.645 552.005 139.046C560.582 116.113 569.552 100.084 578.052 90.7784Z" stroke="white" stroke-width="40"/>
<path d="M1507.94 77.9472C1512.52 72.7293 1524.7 65.7578 1547.84 59.1863C1569.96 52.907 1598.76 47.8726 1632.55 44.0922C1700.03 36.5424 1785.06 34.2421 1871.17 35.9981C1957.22 37.7527 2043.75 43.5444 2114.1 52.019C2149.3 56.2585 2180.18 61.1379 2204.8 66.45C2230.07 71.9013 2246.74 77.4086 2254.97 82.1148C2259.2 84.5271 2266.38 93.2745 2273.54 114.638C2280.28 134.774 2285.66 161.981 2289.62 194.71C2297.52 260.016 2299.44 344.155 2297.02 430.575C2294.59 516.884 2287.85 604.795 2278.65 677.438C2274.04 713.769 2268.85 746.071 2263.32 772.332C2257.7 799.02 2252.01 818.081 2246.87 828.813C2243.9 834.993 2234.79 843.441 2214.49 851.895C2194.95 860.025 2168.46 866.758 2136.42 871.933C2072.48 882.26 1989.82 885.866 1904.39 883.944C1819.07 882.025 1731.79 874.613 1658.83 863.204C1622.35 857.498 1589.72 850.834 1562.84 843.449C1535.61 835.967 1515.62 828.097 1503.53 820.517C1494.24 814.694 1484.25 801.674 1475.1 779.016C1466.14 756.842 1458.99 727.939 1453.66 693.906C1443.03 625.921 1440.15 540.407 1443.08 454.028C1446 367.744 1454.69 281.427 1466.88 212.043C1472.98 177.325 1479.89 147.217 1487.26 123.636C1494.88 99.2489 1502.23 84.4452 1507.94 77.9472Z" stroke="white" stroke-width="40"/>
<path d="M363.062 77.9472C358.481 72.7293 346.303 65.7578 323.159 59.1863C301.044 52.907 272.24 47.8726 238.449 44.0922C170.965 36.5424 85.9356 34.2421 -0.173462 35.9981C-86.2153 37.7527 -172.747 43.5444 -243.105 52.019C-278.302 56.2585 -309.184 61.1379 -333.804 66.45C-359.071 71.9013 -375.74 77.4086 -383.974 82.1148C-388.195 84.5271 -395.385 93.2745 -402.537 114.638C-409.278 134.774 -414.655 161.981 -418.618 194.71C-426.525 260.016 -428.444 344.155 -426.016 430.575C-423.592 516.884 -416.854 604.795 -407.648 677.438C-403.044 713.769 -397.849 746.071 -392.32 772.332C-386.702 799.02 -381.015 818.081 -375.866 828.813C-372.901 834.993 -363.794 843.441 -343.486 851.895C-323.954 860.025 -297.464 866.758 -265.424 871.933C-201.484 882.26 -118.82 885.866 -33.3864 883.944C51.9338 882.025 139.211 874.613 212.166 863.204C248.651 857.498 281.285 850.834 308.162 843.449C335.393 835.967 355.375 828.097 367.47 820.517C376.761 814.694 386.752 801.674 395.904 779.016C404.86 756.842 412.015 727.939 417.337 693.906C427.97 625.921 430.85 540.407 427.922 454.028C424.997 367.744 416.306 281.427 404.116 212.043C398.017 177.325 391.105 147.217 383.736 123.636C376.115 99.2489 368.768 84.4452 363.062 77.9472Z" stroke="white" stroke-width="40"/>
</svg>
