<svg width="1920" height="763" viewBox="0 0 1920 763" fill="none" xmlns="http://www.w3.org/2000/svg">
<path d="M1921 -1V664C1650 754.633 1278.25 795.879 960.5 727C635.196 656.484 331.471 834.967 0 664V-1H1921Z" fill="url(#paint0_linear_1304_347)"/>
<g filter="url(#filter0_f_1304_347)">
<path d="M1018.99 516C865.02 388.884 1162.41 233.555 1378.99 216C1622.46 196.264 1878.5 205.5 1958.5 -71" stroke="url(#paint1_linear_1304_347)" stroke-width="53"/>
</g>
<g filter="url(#filter1_f_1304_347)">
<path d="M990.343 485.5C935.546 401.283 984.267 311.85 1031.49 252C1145.96 106.911 1875.49 150 2019.99 -108" stroke="url(#paint2_linear_1304_347)" stroke-width="233"/>
</g>
<g filter="url(#filter2_f_1304_347)">
<path d="M893.901 477.5C772.083 397.722 906.105 163.335 1199.49 102C1425.61 54.7274 1665.09 -45.7904 1740.99 -129" stroke="url(#paint3_linear_1304_347)" stroke-width="128"/>
</g>
<mask id="mask0_1304_347" style="mask-type:alpha" maskUnits="userSpaceOnUse" x="0" y="-4" width="1921" height="767">
<path d="M1921 -4V665C1650 755.633 1278.25 796.879 960.5 728C635.196 657.484 331.471 835.967 0 665V-4H1921Z" fill="white"/>
</mask>
<g mask="url(#mask0_1304_347)">
<path d="M1617.5 818.208C1390.59 840.208 1275.37 864.293 1119.63 818.208C1064.88 802.005 648.65 783.127 816 671.5C896.663 617.695 987.56 534.994 1086.33 515.835C1129.17 507.356 1164.23 485.358 1199.05 462.902C1254.82 426.888 1249.59 350.304 1320.7 326.79C1371 310.439 1447.59 269.524 1496.88 308.001C1552.84 351.87 1617.45 455.045 1696.88 445.258C1773.42 436.559 1805.59 520.115 1861.61 555.706C2066 717 1844.41 796.208 1617.5 818.208Z" fill="#F7F7FF"/>
</g>
<mask id="mask1_1304_347" style="mask-type:alpha" maskUnits="userSpaceOnUse" x="778" y="292" width="1143" height="471">
<path fill-rule="evenodd" clip-rule="evenodd" d="M778.199 710.66C782.263 699.052 794.163 686.066 816 671.5C835.053 658.791 854.677 644.47 874.841 629.754C940.043 582.171 1010.89 530.469 1086.33 515.835C1129.17 507.356 1164.23 485.358 1199.05 462.902C1223.66 447.011 1236.39 423.221 1249.05 399.576C1265.07 369.636 1280.97 339.929 1320.7 326.79C1329.51 323.927 1339.13 320.31 1349.26 316.498C1396.99 298.543 1456.22 276.262 1496.88 308.001C1512.65 320.359 1529.1 337.423 1546.37 355.343C1590.42 401.036 1639.83 452.288 1696.88 445.258C1747.04 439.557 1778.15 473.478 1809.4 507.554C1825.83 525.476 1842.3 543.439 1861.61 555.706C1888.42 576.864 1907.9 596.61 1921 614.999V665C1650 755.633 1278.25 796.879 960.5 728C899.074 714.685 838.418 710.248 778.199 710.66Z" fill="url(#paint4_linear_1304_347)"/>
</mask>
<g mask="url(#mask1_1304_347)">
<path d="M1457.88 727.804C1456.47 740.201 1455.05 752.597 1453.93 764.957C1451.74 785.42 1451.93 784.598 1433.82 784.746C1416.88 784.746 1399.97 782.618 1383.15 781.275C1380.46 781.082 1377.72 780.628 1374.99 780.174C1370.73 779.38 1368.91 776.687 1369.19 771.869C1369.45 769.181 1369.38 766.268 1369.93 763.542C1374.86 717.502 1382.84 672.14 1396.09 628.508C1399.26 618.281 1400.01 617.125 1409.54 619.648C1444.5 628.277 1479.63 631.042 1515.04 633.771C1524.34 634.464 1525.61 635.101 1528.42 645.64C1537.99 684.018 1550.09 721.281 1561.35 758.916C1564.46 769.418 1562.25 775.538 1553.54 779.553C1550.16 781.04 1546.2 782.6 1542.65 782.779C1524.64 783.711 1507.25 787.221 1489 786.323C1482.43 786.084 1479.63 782.717 1477.64 776.326C1472.88 759.658 1465.54 743.843 1457.88 727.804Z" fill="#BCBEFF"/>
<path d="M1792.28 808.569C1780.28 810.074 1779.05 809.697 1774.48 799.379C1766.24 781.023 1755.78 764.007 1746.72 746.284C1745.12 743.031 1743.27 740.076 1741.15 737.42C1738.97 734.24 1735.81 732.777 1732.72 734.227C1722.84 738.388 1712.37 737.843 1702.33 740.697C1695.44 742.624 1690.89 746.648 1686.93 752.988C1680.76 763.059 1677.17 774.667 1673.21 785.789C1669.97 795.492 1664.87 799.851 1655.77 800.727C1634.08 803.183 1612.79 806.386 1591.17 809.364C1589.41 809.585 1587.65 809.805 1585.87 809.763C1582.58 809.644 1581.44 807.662 1582.51 804.341C1583.84 800.721 1585.17 797.101 1586.82 793.705C1601.48 761.318 1616.47 729.156 1631.13 696.769C1633.95 690.837 1637.66 687.185 1643.38 685.404C1677.67 674.461 1711.93 663.256 1747.2 655.377C1754.71 653.638 1761.86 651.413 1769.34 649.412C1780.81 646.113 1782.05 646.489 1788.7 659.202C1802.81 686.386 1816.92 713.569 1831 740.491C1835.66 749.203 1840.58 757.617 1845.2 766.068C1849.83 774.519 1849.22 776.722 1842.91 783.356C1841.58 784.586 1840.61 786.301 1838.92 787.045C1823.19 796.721 1806.16 803.108 1792.28 808.569Z" fill="#BCBEFF"/>
<path d="M1553.12 496.708C1548.06 506.109 1544.62 514.244 1542.13 522.791C1538.57 534.661 1535 546.53 1531.77 558.624C1529.56 567.135 1525.54 572.952 1517.44 574.765C1513.41 575.802 1509.45 577.362 1505.35 577.876C1488.67 579.969 1471.67 581.836 1455.02 584.191C1448.29 585.035 1441.95 584.237 1435.44 582.131C1429.23 579.989 1427.6 576.475 1429.41 569.606C1430.87 564.642 1432.69 560.164 1434.47 555.425C1443.42 531.989 1452.69 508.778 1461.35 485.379C1464.2 477.318 1469.07 473.519 1476.16 470.77C1505.45 460.19 1535.68 452.412 1565.45 443.363C1577.77 439.693 1589.7 435.274 1602.71 434.705C1616.3 434.062 1616.63 436.677 1619.6 448.523C1627.6 481.52 1634.73 514.626 1641.56 547.77C1644.37 560.699 1643.89 561.557 1633.16 563.7C1614.86 567.058 1596.52 570.156 1577.72 569.592C1572.94 569.395 1570.02 567.372 1568.19 562.289C1565.71 554.365 1563.78 546.107 1562.73 537.738C1561.06 524.401 1559.71 511.289 1553.12 496.708Z" fill="#D5D6FF"/>
<path d="M1429.53 414.198C1427.84 414.941 1427.75 416.547 1427.32 417.928C1425.19 426.961 1424.9 426.998 1416.96 427.728C1394.89 429.435 1372.81 431.143 1351.02 432.814C1348.39 433.144 1345.43 433.25 1342.77 433.318C1338.9 433.273 1337.1 430.841 1337.46 426.547C1337.55 424.941 1337.94 423.298 1338.36 421.917C1346.94 383.653 1355.22 345.426 1365.03 307.538C1365.84 304.515 1366.97 301.716 1367.78 298.692C1369.01 294.288 1371.64 291.567 1376.03 291.016C1410.33 287.244 1444.21 280.072 1479.07 283.136C1486.58 283.787 1488.6 285.659 1490.59 294.44C1491.35 298.065 1491.77 301.464 1492.23 305.125C1496.1 335.984 1502.02 366.586 1509.37 396.742C1509.44 397.265 1509.47 397.527 1509.54 398.05C1512.87 412.773 1511.9 414.488 1499.45 417.113C1489.01 419.219 1478.61 421.587 1468.27 424.478C1460.5 426.515 1452.57 427.245 1444.57 427.452C1437.77 427.773 1433.02 425.447 1431.39 417.152C1431.22 415.844 1430.22 414.909 1429.53 414.198Z" fill="#D5D6FF"/>
<path d="M1768.7 596.898C1767.5 599.174 1766.72 600.068 1766.55 601.151C1763.57 610.556 1762.57 612.011 1754.14 611.208C1743.9 610.103 1733.59 608.474 1723.25 606.585C1716.26 605.337 1709.72 602.97 1702.69 601.46C1697.52 600.515 1695.34 597.336 1694.94 591.807C1694.94 589.417 1694.64 587.063 1694.64 584.673C1695.74 550.8 1697.75 517.078 1700.38 483.545C1701.02 474.433 1703.1 472.047 1710.58 472.437C1743.71 473.592 1776.85 472.357 1810.08 476.687C1817.04 477.673 1821.47 479.774 1824.01 488.221C1834.98 525.892 1846.57 563.752 1858.12 601.35C1863.18 617.981 1861.3 619.546 1848 617.761C1833.49 615.862 1819.12 615.01 1804.39 613.67C1797.78 613.17 1791.44 612.372 1784.65 612.694C1774.89 613.121 1773.88 612.185 1770.13 601.233C1770.59 600.114 1769.87 599.141 1768.7 596.898Z" fill="#D5D6FF"/>
<path d="M1949.31 695.63C1937.67 695.231 1925.15 694.943 1912.82 693.833C1904.4 693.03 1902.58 690.337 1903.44 680.665C1906.46 645.489 1909.8 610.538 1914.64 575.664C1916.16 564.052 1917.85 563.309 1928.35 564.116C1935.86 564.767 1943.54 564.336 1951.08 565.249C1959.21 566.088 1960.68 568.295 1960.62 577.333C1960.24 612.179 1959.89 647.286 1959.21 682.169C1959.09 693.074 1957.57 695.125 1949.31 695.63Z" fill="#D5D6FF"/>
<path d="M842.241 696.3C840.824 708.697 839.407 721.094 838.283 733.454C836.095 753.916 836.289 753.095 818.177 753.242C801.236 753.243 784.325 751.115 767.512 749.771C764.813 749.578 762.081 749.124 759.349 748.67C755.089 747.877 753.265 745.183 753.552 740.366C753.809 737.677 753.741 734.764 754.29 732.039C759.213 685.998 767.194 640.637 780.444 597.005C783.619 586.778 784.366 585.622 793.896 588.145C828.862 596.774 863.983 599.539 899.397 602.268C908.698 602.96 909.966 603.598 912.775 614.136C922.345 652.515 934.451 689.778 945.712 727.413C948.813 737.915 946.609 744.035 937.899 748.05C934.519 749.536 930.553 751.096 927.009 751.275C908.996 752.207 891.603 755.718 873.36 754.819C866.792 754.581 863.991 751.213 862.001 744.822C857.234 728.154 849.9 712.34 842.241 696.3Z" fill="#BCBEFF"/>
<path d="M1176.64 777.066C1164.64 778.571 1163.4 778.195 1158.84 767.876C1150.59 749.52 1140.14 732.504 1131.08 714.781C1129.48 711.528 1127.62 708.573 1125.51 705.917C1123.32 702.738 1120.17 701.274 1117.08 702.724C1107.2 706.885 1096.73 706.34 1086.68 709.194C1079.79 711.121 1075.24 715.145 1071.28 721.486C1065.12 731.556 1061.52 743.164 1057.57 754.286C1054.33 763.989 1049.23 768.348 1040.12 769.224C1018.44 771.68 997.141 774.883 975.521 777.861C973.765 778.082 972.01 778.302 970.221 778.26C966.937 778.141 965.796 776.159 966.866 772.838C968.195 769.218 969.524 765.598 971.178 762.202C985.84 729.815 1000.83 697.653 1015.49 665.266C1018.31 659.334 1022.01 655.682 1027.73 653.901C1062.03 642.958 1096.29 631.753 1131.56 623.874C1139.07 622.135 1146.22 619.91 1153.7 617.909C1165.17 614.61 1166.41 614.986 1173.05 627.699C1187.16 654.883 1201.28 682.066 1215.35 708.988C1220.01 717.7 1224.93 726.114 1229.56 734.565C1234.19 743.016 1233.57 745.219 1227.27 751.853C1225.94 753.083 1224.96 754.798 1223.27 755.542C1207.55 765.218 1190.52 771.605 1176.64 777.066Z" fill="#BCBEFF"/>
<path d="M1212.34 253.81C1236.72 249.157 1260.62 250.142 1284.22 246.384C1289.46 245.462 1293.59 247.599 1297.14 252.201C1300.36 256.578 1303.29 260.992 1305.71 266.002C1319.14 294.864 1330.62 324.768 1341.54 355.007C1344.28 362.632 1342.89 365.729 1335.74 367.955C1326.86 370.662 1317.63 372.883 1308.63 374.544C1295 377.316 1281.09 377.733 1267.96 382.037C1257.39 385.488 1250 381.102 1243.95 370.706C1235.25 355.859 1225.22 342.243 1217.62 326.726C1216.48 324.744 1215.31 322.501 1213.91 320.817C1212.48 318.872 1210.69 318.831 1209.45 320.845C1208.19 322.597 1207.28 324.836 1206.05 326.851C1199.82 338.789 1192.54 349.529 1185.63 360.756C1181.93 366.799 1177.77 369.18 1170.88 368.717C1151.3 366.658 1132.63 359.969 1113.21 356.827C1108.95 356.033 1108 353.23 1109.27 349.087C1111.54 341.099 1113.54 333.41 1115.81 325.422C1120.12 310.006 1125.04 294.779 1129.06 279.4C1131.45 270.068 1136.46 264.924 1145.27 264.084C1168.12 261.482 1190.13 254.471 1212.34 253.81Z" fill="#D5D6FF"/>
<path d="M1153.05 565.395C1151.85 567.671 1151.07 568.565 1150.91 569.648C1147.93 579.054 1146.92 580.508 1138.5 579.705C1128.26 578.6 1117.95 576.972 1107.61 575.082C1100.61 573.834 1094.07 571.467 1087.05 569.957C1081.88 569.012 1079.7 565.833 1079.3 560.305C1079.3 557.914 1079 555.561 1079 553.17C1080.1 519.297 1082.11 485.575 1084.74 452.042C1085.38 442.93 1087.46 440.544 1094.94 440.934C1128.07 442.089 1161.2 440.854 1194.44 445.184C1201.4 446.17 1205.83 448.271 1208.37 456.718C1219.34 494.389 1230.93 532.249 1242.48 569.847C1247.54 586.478 1245.65 588.043 1232.35 586.258C1217.85 584.359 1203.47 583.507 1188.74 582.167C1182.14 581.668 1175.8 580.869 1169 581.191C1159.25 581.618 1158.24 580.682 1154.49 569.731C1154.94 568.611 1154.23 567.638 1153.05 565.395Z" fill="#D5D6FF"/>
<path d="M1333.67 664.127C1322.02 663.728 1309.51 663.44 1297.18 662.33C1288.76 661.527 1286.93 658.834 1287.8 649.162C1290.82 613.986 1294.16 579.035 1299 544.161C1300.51 532.549 1302.2 531.806 1312.71 532.613C1320.22 533.264 1327.89 532.833 1335.44 533.746C1343.57 534.585 1345.03 536.792 1344.98 545.83C1344.6 580.676 1344.24 615.783 1343.57 650.666C1343.45 661.571 1341.92 663.622 1333.67 664.127Z" fill="#D5D6FF"/>
</g>
<g filter="url(#filter3_f_1304_347)">
<circle cx="1333.5" cy="157.5" r="13.5" fill="white" fill-opacity="0.5"/>
</g>
<g filter="url(#filter4_f_1304_347)">
<circle cx="1096.5" cy="157.5" r="5.5" fill="white" fill-opacity="0.5"/>
</g>
<g filter="url(#filter5_f_1304_347)">
<circle cx="997.5" cy="281.5" r="5.5" fill="white" fill-opacity="0.5"/>
</g>
<g filter="url(#filter6_f_1304_347)">
<circle cx="1446.5" cy="237.5" r="5.5" fill="white" fill-opacity="0.5"/>
</g>
<g filter="url(#filter7_f_1304_347)">
<circle cx="1179" cy="277" r="4" fill="white" fill-opacity="0.5"/>
</g>
<g filter="url(#filter8_f_1304_347)">
<circle cx="1572" cy="266" r="4" fill="white" fill-opacity="0.5"/>
</g>
<g filter="url(#filter9_f_1304_347)">
<circle cx="1572" cy="157" r="4" fill="white" fill-opacity="0.5"/>
</g>
<g filter="url(#filter10_f_1304_347)">
<circle cx="1724" cy="205" r="4" fill="white" fill-opacity="0.5"/>
</g>
<path d="M1103.83 161.004L1103.83 160.996C1103.89 160.673 1103.61 160.428 1103.41 160.249C1103.36 160.205 1103.31 160.165 1103.28 160.131C1103.05 159.865 1102.81 159.661 1102.55 159.446C1102.48 159.39 1102.41 159.334 1102.34 159.278C1102.19 159.134 1102.05 158.982 1101.9 158.821C1101.7 158.6 1101.49 158.372 1101.23 158.166C1100.89 157.919 1100.71 157.7 1100.47 157.366C1100.44 157.319 1100.4 157.264 1100.36 157.203C1100.38 157.172 1100.39 157.136 1100.39 157.098C1100.4 157.035 1100.42 156.955 1100.42 156.941C1100.46 156.588 1100.53 156.215 1100.64 155.747C1100.71 155.56 1100.81 155.313 1100.9 155.058C1100.96 154.856 1101.02 154.652 1101.07 154.456C1101.18 154.04 1101.29 153.648 1101.49 153.279C1101.64 152.992 1101.78 152.525 1101.75 152.185C1101.74 152.099 1101.73 152.01 1101.7 151.933L1101.71 151.927C1101.7 151.92 1101.7 151.913 1101.69 151.903C1101.67 151.859 1101.65 151.826 1101.63 151.798L1101.47 151.692L1101.46 151.705C1101.19 151.578 1100.89 151.73 1100.62 151.872C1100.46 151.899 1100.31 151.998 1100.17 152.092C1100.05 152.151 1099.93 152.214 1099.82 152.277C1099.7 152.343 1099.58 152.409 1099.46 152.47C1099.31 152.53 1099.19 152.591 1099.08 152.653C1098.99 152.694 1098.9 152.732 1098.81 152.77C1098.48 152.913 1098.14 153.06 1097.82 153.312C1097.54 153.559 1097.24 153.803 1096.99 153.99C1096.9 154.075 1096.81 154.156 1096.67 154.213C1096.64 154.23 1096.58 154.257 1096.53 154.278C1096.47 154.233 1096.41 154.189 1096.35 154.15C1096.28 154.091 1096.2 154.028 1096.13 153.966C1096.06 153.903 1095.98 153.84 1095.9 153.776C1095.69 153.624 1095.49 153.506 1095.29 153.392C1095.09 153.278 1094.91 153.171 1094.71 153.032C1094.6 152.96 1094.49 152.866 1094.38 152.765C1094.26 152.664 1094.15 152.558 1094.02 152.485L1093.98 152.456C1093.71 152.244 1093.15 151.802 1092.72 152.137C1092.7 152.157 1092.68 152.178 1092.67 152.199C1092.6 152.226 1092.54 152.274 1092.47 152.349C1092.4 152.473 1092.4 152.635 1092.41 152.754L1092.4 152.899C1092.39 153.121 1092.38 153.372 1092.43 153.605C1092.53 154.107 1092.73 154.539 1092.94 154.997C1093.03 155.209 1093.13 155.427 1093.22 155.654C1093.26 155.729 1093.29 155.805 1093.33 155.881C1093.56 156.387 1093.77 156.825 1093.29 157.184C1093.07 157.352 1092.85 157.541 1092.64 157.724C1092.38 157.953 1092.1 158.189 1091.82 158.384C1091.17 158.837 1090.44 159.35 1090.04 160.123C1089.94 160.32 1089.94 160.487 1090.03 160.616C1090.24 160.934 1090.96 160.872 1091.31 160.842L1091.37 160.836C1091.53 160.798 1091.77 160.761 1091.84 160.759L1091.89 160.762C1091.97 160.755 1092.06 160.746 1092.15 160.736C1092.24 160.727 1092.33 160.718 1092.42 160.71C1092.67 160.651 1093.2 160.576 1093.2 160.576C1093.35 160.563 1093.52 160.561 1093.67 160.558C1093.83 160.556 1094 160.554 1094.16 160.54C1094.24 160.534 1094.31 160.529 1094.38 160.525L1094.42 160.522C1094.47 160.68 1094.51 160.838 1094.56 160.997C1094.57 161.241 1094.68 161.511 1094.74 161.661L1094.77 161.795C1094.8 161.895 1094.83 161.996 1094.86 162.104C1094.91 162.238 1095 162.423 1095.11 162.553C1095.15 162.642 1095.19 162.732 1095.24 162.823L1095.36 163.06C1095.41 163.158 1095.5 163.366 1095.59 163.585C1095.71 163.863 1095.83 164.151 1095.92 164.316C1095.96 164.366 1095.99 164.435 1096.02 164.51C1096.13 164.741 1096.27 165.033 1096.5 165.172C1096.58 165.222 1096.67 165.253 1096.77 165.252C1097.12 165.242 1097.32 164.902 1097.47 164.654C1097.49 164.614 1097.51 164.576 1097.53 164.546C1097.94 163.97 1098.22 163.483 1098.42 163.008C1098.46 162.882 1098.49 162.751 1098.53 162.621C1098.56 162.498 1098.59 162.376 1098.63 162.257C1098.71 162.119 1098.99 161.562 1099.02 161.244C1099.01 161.098 1099.02 160.968 1099.03 160.83C1099.43 161.004 1099.83 161.09 1100.23 161.174C1100.37 161.205 1100.52 161.235 1100.67 161.272C1101.27 161.388 1101.83 161.442 1102.49 161.505L1102.6 161.509C1103.01 161.523 1103.68 161.548 1103.83 161.004L1103.83 161.004Z" fill="white"/>
<path d="M1578.41 269.04L1578.41 269.031C1578.47 268.684 1578.18 268.421 1577.96 268.229C1577.91 268.182 1577.86 268.139 1577.82 268.103C1577.57 267.817 1577.31 267.598 1577.03 267.366C1576.96 267.307 1576.89 267.246 1576.81 267.186C1576.65 267.032 1576.5 266.868 1576.34 266.695C1576.12 266.458 1575.89 266.213 1575.62 265.992C1575.25 265.726 1575.06 265.492 1574.8 265.132C1574.77 265.082 1574.73 265.023 1574.68 264.958C1574.7 264.924 1574.72 264.886 1574.71 264.844C1574.72 264.777 1574.74 264.692 1574.75 264.676C1574.79 264.297 1574.86 263.897 1574.98 263.393C1575.06 263.193 1575.17 262.928 1575.26 262.654C1575.33 262.436 1575.39 262.218 1575.45 262.007C1575.57 261.56 1575.68 261.139 1575.9 260.743C1576.05 260.435 1576.2 259.933 1576.17 259.568C1576.17 259.476 1576.15 259.379 1576.12 259.297L1576.13 259.291C1576.12 259.283 1576.12 259.276 1576.11 259.264C1576.09 259.218 1576.07 259.182 1576.04 259.152L1575.87 259.038L1575.86 259.052C1575.57 258.916 1575.25 259.079 1574.97 259.231C1574.8 259.26 1574.62 259.367 1574.48 259.468C1574.35 259.531 1574.23 259.599 1574.1 259.667C1573.97 259.737 1573.84 259.809 1573.71 259.874C1573.56 259.938 1573.42 260.004 1573.3 260.071C1573.21 260.114 1573.11 260.155 1573.02 260.196C1572.67 260.349 1572.3 260.507 1571.96 260.778C1571.66 261.043 1571.33 261.305 1571.06 261.507C1570.96 261.598 1570.87 261.685 1570.72 261.746C1570.69 261.764 1570.62 261.793 1570.57 261.815C1570.5 261.767 1570.44 261.72 1570.38 261.678C1570.3 261.615 1570.22 261.547 1570.14 261.48C1570.06 261.413 1569.98 261.345 1569.89 261.277C1569.67 261.113 1569.45 260.987 1569.24 260.864C1569.03 260.742 1568.83 260.627 1568.62 260.477C1568.5 260.4 1568.38 260.299 1568.26 260.191C1568.13 260.083 1568.01 259.969 1567.88 259.89L1567.84 259.859C1567.54 259.631 1566.94 259.156 1566.48 259.516C1566.46 259.538 1566.44 259.561 1566.42 259.582C1566.35 259.612 1566.28 259.663 1566.21 259.744C1566.13 259.878 1566.14 260.051 1566.14 260.178L1566.13 260.335C1566.12 260.573 1566.11 260.843 1566.17 261.093C1566.27 261.632 1566.49 262.096 1566.71 262.588C1566.81 262.815 1566.92 263.05 1567.02 263.294C1567.05 263.375 1567.09 263.456 1567.13 263.537C1567.38 264.081 1567.6 264.551 1567.09 264.937C1566.85 265.117 1566.62 265.321 1566.39 265.517C1566.11 265.762 1565.81 266.016 1565.51 266.226C1564.81 266.712 1564.02 267.263 1563.6 268.094C1563.5 268.306 1563.49 268.484 1563.58 268.623C1563.81 268.964 1564.59 268.898 1564.96 268.866L1565.02 268.859C1565.2 268.819 1565.46 268.78 1565.54 268.777L1565.58 268.78C1565.67 268.772 1565.77 268.762 1565.87 268.752C1565.96 268.743 1566.06 268.733 1566.15 268.724C1566.43 268.661 1566.99 268.58 1566.99 268.58C1567.16 268.566 1567.33 268.564 1567.5 268.561C1567.67 268.559 1567.85 268.557 1568.02 268.542C1568.11 268.535 1568.19 268.53 1568.27 268.525L1568.31 268.522C1568.36 268.692 1568.4 268.862 1568.45 269.033C1568.46 269.295 1568.58 269.584 1568.65 269.746L1568.68 269.89C1568.71 269.997 1568.74 270.106 1568.78 270.221C1568.83 270.365 1568.92 270.564 1569.04 270.704C1569.09 270.8 1569.14 270.896 1569.18 270.994L1569.31 271.249C1569.37 271.354 1569.46 271.577 1569.56 271.812C1569.69 272.111 1569.82 272.421 1569.92 272.598C1569.95 272.651 1569.99 272.725 1570.03 272.806C1570.14 273.053 1570.29 273.367 1570.53 273.516C1570.62 273.571 1570.72 273.603 1570.83 273.602C1571.21 273.592 1571.42 273.227 1571.58 272.96C1571.6 272.918 1571.63 272.877 1571.65 272.845C1572.08 272.226 1572.39 271.703 1572.6 271.192C1572.64 271.057 1572.68 270.916 1572.72 270.776C1572.75 270.645 1572.79 270.513 1572.83 270.386C1572.91 270.238 1573.21 269.639 1573.24 269.297C1573.23 269.141 1573.24 269.001 1573.26 268.853C1573.68 269.04 1574.12 269.133 1574.54 269.222C1574.7 269.255 1574.85 269.289 1575.01 269.328C1575.66 269.452 1576.26 269.51 1576.97 269.578L1577.09 269.582C1577.53 269.597 1578.25 269.624 1578.41 269.04L1578.41 269.04Z" fill="white"/>
<path d="M1332.46 139.18L1332.44 139.187C1331.65 139.499 1331.48 140.444 1331.36 141.135C1331.34 141.303 1331.31 141.46 1331.28 141.578C1331.01 142.451 1330.89 143.273 1330.77 144.143C1330.74 144.366 1330.71 144.594 1330.68 144.817C1330.57 145.358 1330.43 145.876 1330.27 146.424C1330.06 147.175 1329.85 147.951 1329.74 148.797C1329.66 149.884 1329.43 150.59 1329.01 151.572C1328.95 151.698 1328.88 151.857 1328.81 152.045C1328.71 152.043 1328.61 152.06 1328.53 152.117C1328.38 152.187 1328.18 152.252 1328.15 152.266C1327.31 152.662 1326.39 153.02 1325.21 153.414C1324.69 153.503 1324.01 153.625 1323.33 153.783C1322.79 153.914 1322.27 154.072 1321.76 154.224C1320.69 154.547 1319.68 154.852 1318.59 154.901C1317.76 154.978 1316.53 155.307 1315.82 155.834C1315.63 155.957 1315.46 156.117 1315.33 156.286L1315.31 156.279C1315.3 156.3 1315.29 156.32 1315.28 156.353C1315.21 156.453 1315.16 156.542 1315.13 156.63L1315.11 157.129L1315.16 157.134C1315.25 157.907 1315.98 158.349 1316.66 158.744C1316.94 159.06 1317.38 159.276 1317.78 159.455C1318.07 159.632 1318.36 159.8 1318.66 159.971C1318.97 160.146 1319.28 160.325 1319.58 160.509C1319.91 160.741 1320.22 160.936 1320.51 161.096C1320.72 161.237 1320.92 161.38 1321.13 161.523C1321.89 162.056 1322.68 162.606 1323.67 162.962C1324.61 163.248 1325.56 163.581 1326.32 163.888C1326.63 163.968 1326.92 164.043 1327.25 164.284C1327.32 164.322 1327.46 164.418 1327.58 164.504C1327.56 164.698 1327.55 164.89 1327.54 165.068C1327.51 165.316 1327.47 165.564 1327.44 165.811C1327.4 166.062 1327.36 166.312 1327.33 166.576C1327.28 167.252 1327.3 167.864 1327.32 168.456C1327.34 169.043 1327.35 169.598 1327.31 170.217C1327.31 170.566 1327.24 170.935 1327.18 171.325C1327.12 171.72 1327.04 172.114 1327.05 172.494L1327.03 172.616C1326.94 173.506 1326.73 175.36 1328.05 175.839C1328.13 175.86 1328.2 175.87 1328.26 175.875C1328.42 175.99 1328.61 176.066 1328.86 176.101C1329.25 176.103 1329.6 175.87 1329.85 175.699L1330.18 175.51C1330.68 175.231 1331.26 174.915 1331.7 174.478C1332.67 173.573 1333.36 172.544 1334.08 171.455C1334.42 170.952 1334.76 170.433 1335.14 169.923C1335.26 169.749 1335.38 169.568 1335.5 169.386C1336.3 168.171 1336.98 167.121 1338.43 167.679C1339.1 167.94 1339.82 168.165 1340.51 168.382C1341.38 168.653 1342.27 168.935 1343.09 169.288C1344.98 170.105 1347.12 171.031 1349.36 170.839C1349.94 170.789 1350.31 170.576 1350.48 170.206C1350.89 169.299 1349.76 167.785 1349.22 167.058L1349.13 166.94C1348.82 166.631 1348.41 166.152 1348.31 165.995L1348.25 165.893C1348.13 165.723 1347.98 165.532 1347.83 165.341C1347.7 165.16 1347.56 164.979 1347.41 164.788C1346.93 164.305 1346.05 163.243 1346.05 163.245C1345.81 162.922 1345.58 162.569 1345.36 162.229C1345.14 161.878 1344.91 161.516 1344.66 161.177C1344.53 161.005 1344.42 160.852 1344.31 160.699L1344.25 160.615C1344.54 160.3 1344.83 159.986 1345.13 159.675C1345.65 159.315 1346.09 158.705 1346.34 158.362L1346.59 158.099C1346.77 157.902 1346.96 157.705 1347.15 157.486C1347.38 157.188 1347.67 156.75 1347.81 156.331C1347.95 156.112 1348.08 155.891 1348.22 155.663L1348.59 155.078C1348.73 154.828 1349.07 154.35 1349.42 153.843C1349.88 153.201 1350.35 152.537 1350.59 152.11C1350.66 151.975 1350.76 151.81 1350.88 151.626C1351.24 151.068 1351.69 150.361 1351.7 149.681C1351.7 149.433 1351.64 149.189 1351.49 148.958C1350.99 148.195 1349.97 148.221 1349.22 148.239C1349.1 148.242 1348.99 148.245 1348.9 148.244C1347.07 148.131 1345.61 148.176 1344.28 148.389C1343.95 148.47 1343.61 148.573 1343.28 148.675C1342.96 148.772 1342.65 148.868 1342.33 148.946C1341.92 148.953 1340.31 149.107 1339.57 149.478C1339.26 149.704 1338.96 149.855 1338.64 150.014C1338.48 148.9 1338.11 147.887 1337.76 146.905C1337.63 146.541 1337.5 146.178 1337.37 145.796C1336.8 144.301 1336.16 142.996 1335.4 141.459L1335.25 141.19C1334.73 140.279 1333.86 138.753 1332.46 139.18L1332.46 139.18Z" fill="white"/>
<path d="M1569.87 160.843L1569.88 160.844C1570.12 160.868 1570.29 160.65 1570.41 160.491C1570.43 160.453 1570.46 160.416 1570.48 160.39C1570.67 160.205 1570.8 160.012 1570.95 159.808C1570.98 159.755 1571.02 159.702 1571.06 159.649C1571.15 159.526 1571.26 159.414 1571.37 159.295C1571.52 159.133 1571.67 158.965 1571.81 158.764C1571.97 158.5 1572.12 158.351 1572.35 158.157C1572.39 158.133 1572.42 158.102 1572.47 158.064C1572.49 158.077 1572.52 158.085 1572.55 158.082C1572.59 158.083 1572.65 158.093 1572.66 158.094C1572.92 158.102 1573.2 158.13 1573.55 158.185C1573.7 158.229 1573.88 158.286 1574.08 158.335C1574.23 158.371 1574.38 158.399 1574.53 158.427C1574.84 158.484 1575.14 158.538 1575.42 158.667C1575.64 158.755 1575.99 158.831 1576.24 158.79C1576.31 158.783 1576.37 158.765 1576.42 158.739L1576.43 158.744C1576.43 158.74 1576.44 158.736 1576.45 158.729C1576.48 158.713 1576.5 158.696 1576.52 158.678L1576.59 158.554L1576.58 158.547C1576.66 158.34 1576.53 158.133 1576.41 157.945C1576.38 157.829 1576.29 157.717 1576.22 157.621C1576.17 157.538 1576.11 157.457 1576.06 157.376C1576 157.291 1575.95 157.205 1575.9 157.12C1575.84 157.019 1575.79 156.93 1575.74 156.851C1575.7 156.789 1575.67 156.726 1575.64 156.663C1575.51 156.429 1575.38 156.187 1575.18 155.969C1574.98 155.776 1574.78 155.569 1574.63 155.392C1574.56 155.331 1574.5 155.275 1574.45 155.172C1574.43 155.152 1574.41 155.11 1574.39 155.073C1574.42 155.026 1574.45 154.979 1574.48 154.935C1574.52 154.876 1574.56 154.819 1574.6 154.761C1574.64 154.703 1574.68 154.644 1574.72 154.581C1574.82 154.416 1574.9 154.259 1574.97 154.107C1575.04 153.957 1575.11 153.814 1575.2 153.664C1575.25 153.576 1575.31 153.49 1575.38 153.4C1575.45 153.308 1575.52 153.219 1575.56 153.121L1575.58 153.092C1575.72 152.88 1576.01 152.437 1575.74 152.145C1575.73 152.13 1575.71 152.119 1575.69 152.109C1575.67 152.06 1575.63 152.015 1575.57 151.974C1575.48 151.924 1575.36 151.938 1575.27 151.947L1575.16 151.953C1575 151.958 1574.81 151.964 1574.64 152.017C1574.28 152.119 1573.97 152.291 1573.65 152.472C1573.5 152.556 1573.35 152.642 1573.18 152.722C1573.13 152.75 1573.08 152.781 1573.02 152.811C1572.66 153.015 1572.35 153.192 1572.06 152.864C1571.92 152.71 1571.77 152.56 1571.63 152.415C1571.44 152.234 1571.25 152.047 1571.09 151.852C1570.72 151.4 1570.3 150.889 1569.71 150.647C1569.55 150.585 1569.43 150.59 1569.34 150.662C1569.12 150.838 1569.21 151.367 1569.25 151.621L1569.26 151.663C1569.3 151.781 1569.34 151.955 1569.34 152.008L1569.34 152.041C1569.35 152.1 1569.37 152.168 1569.38 152.235C1569.39 152.299 1569.4 152.363 1569.41 152.43C1569.47 152.614 1569.56 152.997 1569.56 152.997C1569.58 153.109 1569.59 153.228 1569.6 153.342C1569.61 153.46 1569.62 153.581 1569.64 153.699C1569.65 153.759 1569.66 153.812 1569.67 153.865L1569.67 153.894C1569.56 153.936 1569.44 153.978 1569.33 154.019C1569.15 154.042 1568.96 154.139 1568.85 154.193L1568.76 154.228C1568.68 154.253 1568.61 154.279 1568.53 154.31C1568.44 154.356 1568.31 154.428 1568.22 154.516C1568.15 154.554 1568.09 154.592 1568.03 154.632L1567.86 154.733C1567.79 154.777 1567.64 154.854 1567.49 154.936C1567.29 155.04 1567.08 155.147 1566.97 155.223C1566.93 155.249 1566.88 155.277 1566.83 155.308C1566.67 155.403 1566.46 155.523 1566.37 155.694C1566.34 155.756 1566.32 155.826 1566.33 155.903C1566.36 156.161 1566.62 156.287 1566.81 156.379C1566.84 156.394 1566.87 156.408 1566.89 156.42C1567.34 156.686 1567.72 156.864 1568.08 156.982C1568.17 157.005 1568.27 157.022 1568.37 157.04C1568.46 157.056 1568.55 157.073 1568.64 157.094C1568.75 157.146 1569.18 157.315 1569.41 157.318C1569.52 157.3 1569.62 157.302 1569.72 157.303C1569.61 157.605 1569.57 157.909 1569.54 158.203C1569.52 158.312 1569.51 158.421 1569.49 158.533C1569.44 158.985 1569.43 159.399 1569.43 159.885L1569.43 159.974C1569.44 160.272 1569.47 160.77 1569.87 160.843L1569.87 160.843Z" fill="white"/>
<path d="M998.945 291.412L998.933 291.41C998.476 291.328 998.289 290.841 998.153 290.485C998.119 290.398 998.089 290.318 998.06 290.258C997.822 289.821 997.674 289.395 997.519 288.943C997.479 288.828 997.438 288.709 997.397 288.594C997.284 288.317 997.152 288.056 997.012 287.779C996.821 287.401 996.624 287.01 996.479 286.57C996.319 285.999 996.121 285.647 995.796 285.167C995.749 285.107 995.696 285.029 995.638 284.937C995.586 284.948 995.532 284.949 995.482 284.927C995.396 284.906 995.281 284.892 995.261 284.889C994.775 284.765 994.247 284.671 993.572 284.587C993.287 284.594 992.913 284.601 992.533 284.588C992.232 284.575 991.936 284.546 991.649 284.518C991.045 284.459 990.474 284.403 989.884 284.493C989.434 284.539 988.746 284.493 988.311 284.287C988.198 284.241 988.088 284.174 988.001 284.098L987.99 284.104C987.983 284.094 987.977 284.084 987.967 284.068C987.919 284.022 987.884 283.979 987.859 283.936L987.797 283.671L987.82 283.664C987.786 283.242 988.133 282.929 988.453 282.646C988.568 282.448 988.779 282.287 988.972 282.15C989.108 282.025 989.248 281.904 989.389 281.781C989.535 281.655 989.684 281.526 989.824 281.397C989.973 281.239 990.117 281.102 990.255 280.986C990.352 280.889 990.447 280.791 990.541 280.693C990.893 280.328 991.256 279.951 991.747 279.657C992.213 279.406 992.685 279.128 993.06 278.883C993.217 278.808 993.365 278.737 993.512 278.574C993.548 278.546 993.613 278.48 993.667 278.422C993.637 278.321 993.609 278.22 993.586 278.126C993.544 277.996 993.498 277.868 993.452 277.74C993.405 277.61 993.359 277.481 993.315 277.344C993.219 276.988 993.163 276.66 993.11 276.342C993.057 276.027 993.007 275.73 992.918 275.404C992.88 275.218 992.809 275.028 992.734 274.826C992.657 274.623 992.573 274.421 992.539 274.217L992.519 274.153C992.374 273.689 992.069 272.722 992.722 272.327C992.761 272.308 992.797 272.295 992.831 272.286C992.901 272.208 992.996 272.147 993.127 272.102C993.33 272.06 993.542 272.148 993.696 272.212L993.891 272.278C994.19 272.373 994.528 272.482 994.81 272.668C995.424 273.048 995.898 273.524 996.4 274.029C996.631 274.261 996.87 274.502 997.127 274.733C997.21 274.814 997.293 274.898 997.375 274.982C997.928 275.546 998.405 276.033 999.116 275.583C999.448 275.373 999.807 275.177 1000.15 274.988C1000.59 274.752 1001.04 274.507 1001.43 274.233C1002.35 273.598 1003.4 272.878 1004.61 272.744C1004.93 272.709 1005.15 272.783 1005.28 272.963C1005.59 273.404 1005.15 274.33 1004.94 274.775L1004.9 274.847C1004.77 275.045 1004.6 275.343 1004.56 275.438L1004.55 275.498C1004.5 275.602 1004.44 275.719 1004.38 275.837C1004.32 275.948 1004.27 276.059 1004.21 276.177C1004.01 276.485 1003.65 277.144 1003.65 277.144C1003.55 277.341 1003.47 277.553 1003.39 277.757C1003.31 277.968 1003.22 278.186 1003.13 278.393C1003.08 278.498 1003.03 278.591 1002.99 278.684L1002.97 278.735C1003.16 278.873 1003.34 279.01 1003.53 279.144C1003.85 279.282 1004.15 279.56 1004.32 279.716L1004.48 279.831C1004.6 279.916 1004.72 280.002 1004.85 280.098C1005 280.233 1005.2 280.435 1005.32 280.645C1005.41 280.747 1005.51 280.85 1005.61 280.957L1005.86 281.231C1005.97 281.349 1006.2 281.568 1006.44 281.801C1006.75 282.095 1007.07 282.4 1007.24 282.602C1007.3 282.667 1007.37 282.744 1007.45 282.83C1007.7 283.089 1008.02 283.418 1008.09 283.781C1008.12 283.913 1008.11 284.049 1008.06 284.187C1007.87 284.647 1007.33 284.742 1006.93 284.811C1006.86 284.822 1006.8 284.833 1006.75 284.842C1005.79 285.096 1005 285.226 1004.28 285.252C1004.09 285.244 1003.9 285.225 1003.71 285.206C1003.53 285.187 1003.35 285.169 1003.18 285.161C1002.96 285.201 1002.08 285.289 1001.65 285.17C1001.46 285.081 1001.28 285.033 1001.09 284.982C1001.13 285.593 1001.04 286.171 1000.95 286.733C1000.92 286.94 1000.89 287.148 1000.87 287.365C1000.72 288.222 1000.51 288.986 1000.27 289.885L1000.22 290.045C1000.04 290.586 999.735 291.492 998.944 291.412L998.945 291.412Z" fill="white"/>
<path d="M1182.54 270.351L1182.53 270.349C1182.27 270.277 1182.04 270.488 1181.88 270.642C1181.84 270.679 1181.81 270.714 1181.77 270.739C1181.54 270.91 1181.35 271.099 1181.15 271.299C1181.1 271.35 1181.05 271.403 1181 271.454C1180.87 271.572 1180.73 271.677 1180.59 271.788C1180.39 271.941 1180.19 272.098 1180 272.295C1179.77 272.557 1179.57 272.694 1179.28 272.866C1179.24 272.886 1179.19 272.914 1179.14 272.948C1179.11 272.929 1179.08 272.915 1179.05 272.914C1179 272.903 1178.93 272.881 1178.92 272.878C1178.63 272.82 1178.33 272.735 1177.95 272.608C1177.8 272.532 1177.6 272.433 1177.4 272.343C1177.23 272.274 1177.07 272.214 1176.91 272.156C1176.58 272.034 1176.26 271.918 1175.97 271.72C1175.74 271.581 1175.36 271.431 1175.08 271.429C1175.01 271.425 1174.93 271.433 1174.87 271.451L1174.86 271.445C1174.86 271.448 1174.85 271.452 1174.84 271.458C1174.8 271.471 1174.77 271.484 1174.75 271.501L1174.65 271.626L1174.66 271.635C1174.54 271.851 1174.64 272.105 1174.74 272.337C1174.75 272.471 1174.82 272.61 1174.89 272.732C1174.93 272.833 1174.97 272.933 1175.01 273.034C1175.06 273.138 1175.11 273.244 1175.15 273.349C1175.19 273.471 1175.23 273.58 1175.27 273.677C1175.3 273.753 1175.32 273.829 1175.35 273.905C1175.44 274.188 1175.54 274.481 1175.73 274.762C1175.91 275.014 1176.09 275.281 1176.23 275.507C1176.29 275.586 1176.35 275.662 1176.39 275.786C1176.4 275.81 1176.42 275.861 1176.43 275.906C1176.39 275.952 1176.35 275.999 1176.31 276.043C1176.26 276.101 1176.2 276.157 1176.14 276.213C1176.09 276.27 1176.03 276.327 1175.97 276.389C1175.83 276.553 1175.72 276.714 1175.61 276.869C1175.5 277.022 1175.4 277.168 1175.27 277.318C1175.2 277.407 1175.11 277.49 1175.02 277.578C1174.93 277.666 1174.83 277.752 1174.76 277.852L1174.74 277.881C1174.54 278.09 1174.13 278.526 1174.38 278.902C1174.4 278.922 1174.41 278.938 1174.43 278.951C1174.44 279.011 1174.48 279.067 1174.54 279.125C1174.63 279.198 1174.77 279.205 1174.87 279.211L1174.99 279.225C1175.17 279.25 1175.38 279.279 1175.58 279.252C1176 279.206 1176.37 279.074 1176.77 278.934C1176.95 278.869 1177.14 278.802 1177.33 278.745C1177.4 278.723 1177.46 278.699 1177.53 278.676C1177.96 278.517 1178.34 278.379 1178.6 278.799C1178.73 278.996 1178.87 279.19 1179 279.379C1179.17 279.615 1179.35 279.859 1179.49 280.105C1179.82 280.677 1180.19 281.325 1180.8 281.706C1180.96 281.803 1181.09 281.82 1181.21 281.757C1181.49 281.603 1181.49 280.999 1181.49 280.709L1181.49 280.661C1181.47 280.524 1181.46 280.322 1181.46 280.262L1181.46 280.225C1181.46 280.158 1181.46 280.081 1181.46 280.004C1181.46 279.93 1181.46 279.857 1181.46 279.781C1181.43 279.565 1181.41 279.123 1181.41 279.123C1181.41 278.995 1181.42 278.861 1181.43 278.732C1181.44 278.6 1181.45 278.462 1181.45 278.327C1181.45 278.259 1181.45 278.199 1181.45 278.139L1181.45 278.106C1181.59 278.08 1181.72 278.055 1181.85 278.032C1182.06 278.04 1182.29 277.969 1182.42 277.929L1182.53 277.908C1182.62 277.893 1182.7 277.878 1182.79 277.859C1182.91 277.826 1183.07 277.77 1183.18 277.689C1183.26 277.66 1183.34 277.629 1183.42 277.598L1183.62 277.517C1183.71 277.481 1183.89 277.423 1184.07 277.361C1184.31 277.284 1184.56 277.203 1184.7 277.14C1184.75 277.118 1184.81 277.097 1184.87 277.072C1185.07 276.998 1185.32 276.904 1185.45 276.73C1185.5 276.667 1185.53 276.593 1185.54 276.506C1185.56 276.214 1185.29 276.025 1185.1 275.886C1185.07 275.864 1185.04 275.843 1185.01 275.825C1184.56 275.445 1184.18 275.177 1183.8 274.978C1183.7 274.935 1183.6 274.897 1183.49 274.859C1183.39 274.823 1183.29 274.787 1183.2 274.747C1183.09 274.669 1182.65 274.4 1182.38 274.353C1182.26 274.352 1182.16 274.333 1182.04 274.312C1182.22 273.996 1182.32 273.666 1182.42 273.347C1182.45 273.229 1182.49 273.111 1182.53 272.989C1182.67 272.496 1182.75 272.038 1182.85 271.499L1182.87 271.401C1182.91 271.067 1182.98 270.51 1182.54 270.351L1182.54 270.351Z" fill="white"/>
<path d="M1724.49 199.972L1724.48 199.971C1724.3 199.921 1724.15 200.066 1724.04 200.172C1724.01 200.198 1723.98 200.222 1723.96 200.239C1723.8 200.356 1723.67 200.486 1723.54 200.623C1723.5 200.659 1723.47 200.695 1723.43 200.73C1723.34 200.811 1723.25 200.883 1723.15 200.959C1723.01 201.064 1722.87 201.172 1722.74 201.307C1722.58 201.487 1722.45 201.581 1722.25 201.699C1722.22 201.713 1722.19 201.732 1722.15 201.756C1722.13 201.743 1722.11 201.733 1722.09 201.732C1722.06 201.725 1722.01 201.71 1722 201.707C1721.81 201.668 1721.6 201.61 1721.34 201.522C1721.23 201.47 1721.1 201.402 1720.96 201.34C1720.85 201.293 1720.73 201.252 1720.62 201.212C1720.39 201.128 1720.17 201.048 1719.98 200.913C1719.82 200.817 1719.56 200.714 1719.37 200.713C1719.32 200.71 1719.27 200.715 1719.22 200.728L1719.22 200.723C1719.21 200.726 1719.21 200.729 1719.2 200.733C1719.18 200.741 1719.16 200.751 1719.14 200.762L1719.07 200.848L1719.08 200.854C1718.99 201.002 1719.06 201.177 1719.13 201.336C1719.14 201.428 1719.19 201.524 1719.23 201.608C1719.26 201.677 1719.29 201.746 1719.32 201.815C1719.35 201.886 1719.38 201.959 1719.41 202.031C1719.44 202.115 1719.47 202.19 1719.5 202.256C1719.52 202.309 1719.53 202.361 1719.55 202.413C1719.62 202.607 1719.68 202.808 1719.81 203.001C1719.94 203.174 1720.06 203.358 1720.15 203.513C1720.2 203.567 1720.24 203.619 1720.26 203.704C1720.27 203.721 1720.28 203.756 1720.29 203.787C1720.27 203.819 1720.24 203.85 1720.21 203.881C1720.18 203.921 1720.14 203.959 1720.1 203.998C1720.06 204.037 1720.02 204.076 1719.98 204.119C1719.88 204.231 1719.8 204.341 1719.73 204.448C1719.65 204.553 1719.58 204.653 1719.49 204.756C1719.45 204.818 1719.39 204.875 1719.33 204.935C1719.26 204.996 1719.2 205.055 1719.15 205.123L1719.13 205.143C1719 205.287 1718.72 205.586 1718.89 205.844C1718.9 205.858 1718.91 205.869 1718.92 205.878C1718.93 205.919 1718.95 205.958 1718.99 205.997C1719.06 206.048 1719.15 206.052 1719.22 206.056L1719.3 206.066C1719.43 206.083 1719.57 206.103 1719.71 206.084C1720 206.053 1720.25 205.962 1720.52 205.866C1720.65 205.822 1720.78 205.776 1720.91 205.736C1720.96 205.721 1721 205.705 1721.05 205.689C1721.35 205.58 1721.6 205.485 1721.79 205.773C1721.87 205.908 1721.97 206.042 1722.06 206.172C1722.18 206.334 1722.3 206.501 1722.39 206.671C1722.62 207.063 1722.87 207.508 1723.29 207.769C1723.4 207.836 1723.5 207.848 1723.57 207.805C1723.77 207.699 1723.77 207.284 1723.77 207.085L1723.77 207.052C1723.75 206.958 1723.74 206.82 1723.75 206.778L1723.75 206.753C1723.75 206.707 1723.75 206.653 1723.75 206.601C1723.75 206.55 1723.75 206.5 1723.75 206.447C1723.73 206.3 1723.71 205.996 1723.71 205.996C1723.71 205.908 1723.72 205.816 1723.72 205.728C1723.73 205.636 1723.74 205.542 1723.74 205.45C1723.74 205.403 1723.74 205.361 1723.74 205.32L1723.74 205.298C1723.83 205.28 1723.93 205.263 1724.02 205.247C1724.16 205.252 1724.32 205.203 1724.4 205.176L1724.48 205.162C1724.54 205.152 1724.6 205.141 1724.66 205.128C1724.74 205.106 1724.85 205.067 1724.93 205.011C1724.98 204.991 1725.04 204.97 1725.09 204.948L1725.23 204.893C1725.29 204.868 1725.41 204.828 1725.54 204.786C1725.71 204.733 1725.88 204.678 1725.97 204.634C1726.01 204.619 1726.05 204.604 1726.09 204.588C1726.23 204.537 1726.4 204.472 1726.49 204.353C1726.52 204.309 1726.54 204.259 1726.55 204.199C1726.56 203.999 1726.38 203.868 1726.24 203.773C1726.22 203.758 1726.2 203.743 1726.19 203.731C1725.88 203.47 1725.62 203.286 1725.36 203.15C1725.29 203.12 1725.21 203.094 1725.14 203.068C1725.07 203.043 1725 203.019 1724.94 202.991C1724.86 202.937 1724.56 202.753 1724.38 202.72C1724.3 202.72 1724.23 202.706 1724.15 202.692C1724.27 202.475 1724.34 202.249 1724.4 202.03C1724.43 201.948 1724.45 201.867 1724.48 201.784C1724.58 201.445 1724.64 201.131 1724.7 200.761L1724.71 200.693C1724.74 200.464 1724.79 200.081 1724.49 199.973L1724.49 199.972Z" fill="white"/>
<path d="M1450.97 229.51L1450.96 229.507C1450.57 229.401 1450.25 229.708 1450.02 229.931C1449.96 229.986 1449.9 230.037 1449.86 230.072C1449.52 230.321 1449.24 230.595 1448.96 230.885C1448.88 230.959 1448.81 231.035 1448.73 231.109C1448.55 231.281 1448.35 231.433 1448.14 231.595C1447.85 231.815 1447.56 232.043 1447.28 232.329C1446.95 232.71 1446.67 232.909 1446.24 233.158C1446.18 233.187 1446.11 233.227 1446.03 233.277C1446 233.25 1445.95 233.228 1445.91 233.227C1445.83 233.212 1445.74 233.179 1445.72 233.175C1445.3 233.091 1444.86 232.968 1444.31 232.784C1444.09 232.674 1443.81 232.53 1443.51 232.4C1443.27 232.299 1443.04 232.212 1442.8 232.128C1442.32 231.95 1441.86 231.782 1441.44 231.496C1441.1 231.294 1440.56 231.076 1440.15 231.074C1440.04 231.068 1439.93 231.079 1439.84 231.105L1439.83 231.096C1439.82 231.101 1439.81 231.107 1439.8 231.116C1439.75 231.134 1439.7 231.154 1439.67 231.178L1439.52 231.358L1439.54 231.373C1439.36 231.685 1439.51 232.055 1439.65 232.39C1439.67 232.585 1439.77 232.787 1439.87 232.964C1439.93 233.111 1439.99 233.255 1440.05 233.402C1440.12 233.553 1440.19 233.707 1440.25 233.859C1440.3 234.035 1440.36 234.194 1440.43 234.334C1440.47 234.445 1440.5 234.555 1440.54 234.665C1440.67 235.076 1440.82 235.501 1441.09 235.909C1441.35 236.274 1441.61 236.662 1441.81 236.989C1441.9 237.105 1441.99 237.214 1442.05 237.394C1442.06 237.428 1442.09 237.503 1442.11 237.568C1442.05 237.635 1441.99 237.703 1441.94 237.766C1441.86 237.851 1441.77 237.932 1441.69 238.014C1441.61 238.097 1441.52 238.179 1441.44 238.269C1441.23 238.507 1441.07 238.74 1440.91 238.965C1440.76 239.188 1440.61 239.399 1440.42 239.616C1440.32 239.746 1440.2 239.866 1440.06 239.993C1439.93 240.122 1439.79 240.247 1439.69 240.391L1439.65 240.433C1439.37 240.737 1438.77 241.369 1439.13 241.914C1439.15 241.943 1439.18 241.966 1439.2 241.986C1439.23 242.072 1439.28 242.154 1439.36 242.237C1439.5 242.344 1439.7 242.355 1439.84 242.362L1440.01 242.383C1440.28 242.42 1440.58 242.461 1440.87 242.422C1441.48 242.356 1442.02 242.164 1442.59 241.961C1442.86 241.867 1443.13 241.77 1443.41 241.686C1443.51 241.655 1443.6 241.621 1443.7 241.586C1444.33 241.356 1444.88 241.156 1445.26 241.765C1445.44 242.05 1445.64 242.333 1445.84 242.606C1446.08 242.949 1446.34 243.302 1446.55 243.66C1447.02 244.49 1447.56 245.429 1448.45 245.982C1448.67 246.123 1448.87 246.148 1449.04 246.057C1449.44 245.833 1449.44 244.957 1449.44 244.536L1449.44 244.467C1449.42 244.267 1449.4 243.975 1449.4 243.887L1449.41 243.835C1449.41 243.736 1449.41 243.624 1449.41 243.513C1449.41 243.406 1449.4 243.3 1449.4 243.189C1449.36 242.877 1449.33 242.235 1449.33 242.236C1449.33 242.049 1449.34 241.856 1449.35 241.668C1449.37 241.476 1449.38 241.277 1449.38 241.081C1449.38 240.982 1449.39 240.894 1449.39 240.808L1449.39 240.76C1449.59 240.723 1449.78 240.686 1449.98 240.652C1450.27 240.664 1450.61 240.561 1450.79 240.502L1450.96 240.473C1451.08 240.451 1451.21 240.43 1451.34 240.402C1451.5 240.354 1451.74 240.273 1451.9 240.155C1452.02 240.112 1452.13 240.068 1452.24 240.022L1452.54 239.905C1452.66 239.852 1452.92 239.769 1453.2 239.68C1453.54 239.567 1453.9 239.45 1454.11 239.358C1454.17 239.327 1454.26 239.295 1454.35 239.26C1454.64 239.152 1455.01 239.015 1455.2 238.764C1455.27 238.672 1455.31 238.565 1455.32 238.439C1455.35 238.016 1454.96 237.74 1454.68 237.539C1454.63 237.507 1454.59 237.476 1454.56 237.451C1453.91 236.899 1453.35 236.51 1452.8 236.222C1452.65 236.159 1452.5 236.104 1452.35 236.049C1452.2 235.997 1452.06 235.945 1451.92 235.887C1451.76 235.774 1451.12 235.384 1450.74 235.315C1450.57 235.314 1450.41 235.286 1450.25 235.255C1450.5 234.797 1450.65 234.319 1450.79 233.856C1450.84 233.684 1450.89 233.513 1450.95 233.336C1451.16 232.621 1451.28 231.957 1451.43 231.175L1451.44 231.032C1451.5 230.548 1451.61 229.74 1450.97 229.51L1450.97 229.51Z" fill="white"/>
<defs>
<filter id="filter0_f_1304_347" x="858.251" y="-170.065" width="1217.4" height="798.2" filterUnits="userSpaceOnUse" color-interpolation-filters="sRGB">
<feFlood flood-opacity="0" result="BackgroundImageFix"/>
<feBlend mode="normal" in="SourceGraphic" in2="BackgroundImageFix" result="shape"/>
<feGaussianBlur stdDeviation="45.85" result="effect1_foregroundBlur_1304_347"/>
</filter>
<filter id="filter1_f_1304_347" x="757.921" y="-256.628" width="1455.41" height="897.364" filterUnits="userSpaceOnUse" color-interpolation-filters="sRGB">
<feFlood flood-opacity="0" result="BackgroundImageFix"/>
<feBlend mode="normal" in="SourceGraphic" in2="BackgroundImageFix" result="shape"/>
<feGaussianBlur stdDeviation="45.85" result="effect1_foregroundBlur_1304_347"/>
</filter>
<filter id="filter2_f_1304_347" x="693.3" y="-263.829" width="1186.67" height="886.569" filterUnits="userSpaceOnUse" color-interpolation-filters="sRGB">
<feFlood flood-opacity="0" result="BackgroundImageFix"/>
<feBlend mode="normal" in="SourceGraphic" in2="BackgroundImageFix" result="shape"/>
<feGaussianBlur stdDeviation="45.85" result="effect1_foregroundBlur_1304_347"/>
</filter>
<filter id="filter3_f_1304_347" x="1295.5" y="119.5" width="76" height="76" filterUnits="userSpaceOnUse" color-interpolation-filters="sRGB">
<feFlood flood-opacity="0" result="BackgroundImageFix"/>
<feBlend mode="normal" in="SourceGraphic" in2="BackgroundImageFix" result="shape"/>
<feGaussianBlur stdDeviation="12.25" result="effect1_foregroundBlur_1304_347"/>
</filter>
<filter id="filter4_f_1304_347" x="1077.9" y="138.9" width="37.2" height="37.2" filterUnits="userSpaceOnUse" color-interpolation-filters="sRGB">
<feFlood flood-opacity="0" result="BackgroundImageFix"/>
<feBlend mode="normal" in="SourceGraphic" in2="BackgroundImageFix" result="shape"/>
<feGaussianBlur stdDeviation="6.55" result="effect1_foregroundBlur_1304_347"/>
</filter>
<filter id="filter5_f_1304_347" x="978.9" y="262.9" width="37.2" height="37.2" filterUnits="userSpaceOnUse" color-interpolation-filters="sRGB">
<feFlood flood-opacity="0" result="BackgroundImageFix"/>
<feBlend mode="normal" in="SourceGraphic" in2="BackgroundImageFix" result="shape"/>
<feGaussianBlur stdDeviation="6.55" result="effect1_foregroundBlur_1304_347"/>
</filter>
<filter id="filter6_f_1304_347" x="1427.9" y="218.9" width="37.2" height="37.2" filterUnits="userSpaceOnUse" color-interpolation-filters="sRGB">
<feFlood flood-opacity="0" result="BackgroundImageFix"/>
<feBlend mode="normal" in="SourceGraphic" in2="BackgroundImageFix" result="shape"/>
<feGaussianBlur stdDeviation="6.55" result="effect1_foregroundBlur_1304_347"/>
</filter>
<filter id="filter7_f_1304_347" x="1161.9" y="259.9" width="34.2" height="34.2" filterUnits="userSpaceOnUse" color-interpolation-filters="sRGB">
<feFlood flood-opacity="0" result="BackgroundImageFix"/>
<feBlend mode="normal" in="SourceGraphic" in2="BackgroundImageFix" result="shape"/>
<feGaussianBlur stdDeviation="6.55" result="effect1_foregroundBlur_1304_347"/>
</filter>
<filter id="filter8_f_1304_347" x="1554.9" y="248.9" width="34.2" height="34.2" filterUnits="userSpaceOnUse" color-interpolation-filters="sRGB">
<feFlood flood-opacity="0" result="BackgroundImageFix"/>
<feBlend mode="normal" in="SourceGraphic" in2="BackgroundImageFix" result="shape"/>
<feGaussianBlur stdDeviation="6.55" result="effect1_foregroundBlur_1304_347"/>
</filter>
<filter id="filter9_f_1304_347" x="1554.9" y="139.9" width="34.2" height="34.2" filterUnits="userSpaceOnUse" color-interpolation-filters="sRGB">
<feFlood flood-opacity="0" result="BackgroundImageFix"/>
<feBlend mode="normal" in="SourceGraphic" in2="BackgroundImageFix" result="shape"/>
<feGaussianBlur stdDeviation="6.55" result="effect1_foregroundBlur_1304_347"/>
</filter>
<filter id="filter10_f_1304_347" x="1706.9" y="187.9" width="34.2" height="34.2" filterUnits="userSpaceOnUse" color-interpolation-filters="sRGB">
<feFlood flood-opacity="0" result="BackgroundImageFix"/>
<feBlend mode="normal" in="SourceGraphic" in2="BackgroundImageFix" result="shape"/>
<feGaussianBlur stdDeviation="6.55" result="effect1_foregroundBlur_1304_347"/>
</filter>
<linearGradient id="paint0_linear_1304_347" x1="988.5" y1="-119.5" x2="911" y2="888" gradientUnits="userSpaceOnUse">
<stop stop-color="#46409C"/>
<stop offset="1" stop-color="#635ACE"/>
</linearGradient>
<linearGradient id="paint1_linear_1304_347" x1="1539.24" y1="269.9" x2="1061.91" y2="521.661" gradientUnits="userSpaceOnUse">
<stop stop-color="#71D9CE"/>
<stop offset="1" stop-color="#5953C4"/>
</linearGradient>
<linearGradient id="paint2_linear_1304_347" x1="1659" y1="-39.5" x2="1070.88" y2="573.369" gradientUnits="userSpaceOnUse">
<stop stop-color="#719BD9"/>
<stop offset="1" stop-color="#5A53C5"/>
</linearGradient>
<linearGradient id="paint3_linear_1304_347" x1="1330.69" y1="283.632" x2="853.38" y2="534.429" gradientUnits="userSpaceOnUse">
<stop stop-color="#71C0D9"/>
<stop offset="1" stop-color="#5953C3"/>
</linearGradient>
<linearGradient id="paint4_linear_1304_347" x1="1106.41" y1="2.70795" x2="1106.41" y2="770.566" gradientUnits="userSpaceOnUse">
<stop stop-color="#4247C2"/>
<stop offset="1" stop-color="#CFC7FF" stop-opacity="0.1"/>
</linearGradient>
</defs>
</svg>
