<svg width="588" height="692" viewBox="0 0 588 692" fill="none" xmlns="http://www.w3.org/2000/svg">
<path d="M740 -55V594.535C576.779 661.458 352.879 691.914 161.5 641.054C-34.4275 588.985 -217.358 720.776 -417 594.535V-55H740Z" fill="url(#paint0_linear_1456_3456)"/>
<g filter="url(#filter0_f_1456_3456)">
<path d="M303.361 558.47C188.908 463.976 409.98 348.511 570.972 335.461C751.959 320.79 942.293 327.655 1001.76 122.115" stroke="url(#paint1_linear_1456_3456)" stroke-width="53"/>
</g>
<g filter="url(#filter1_f_1456_3456)">
<path d="M282.07 535.797C241.336 473.193 277.554 406.712 312.655 362.221C397.749 254.367 940.055 286.398 1047.47 94.6104" stroke="url(#paint2_linear_1456_3456)" stroke-width="233"/>
</g>
<g filter="url(#filter2_f_1456_3456)">
<path d="M210.378 529.85C119.823 470.546 219.45 296.311 437.539 250.717C605.628 215.576 783.652 140.855 840.071 79" stroke="url(#paint3_linear_1456_3456)" stroke-width="128"/>
</g>
<mask id="mask0_1456_3456" style="mask-type:alpha" maskUnits="userSpaceOnUse" x="-412" y="209" width="1158" height="462">
<path d="M745.174 209V611.993C581.929 666.589 357.995 691.434 166.587 649.943C-29.3698 607.466 -212.328 714.98 -412 611.993V209H745.174Z" fill="white"/>
</mask>
<g mask="url(#mask0_1456_3456)">
<path d="M562.352 704.282C425.669 717.535 356.258 732.044 262.448 704.282C229.466 694.522 -21.2646 683.15 79.5436 615.908C128.134 583.497 182.888 533.68 242.387 522.138C268.194 517.031 289.309 503.78 310.286 490.253C343.884 468.559 340.728 422.426 383.566 408.262C413.867 398.412 460.003 373.766 489.693 396.943C523.403 423.369 562.324 485.52 610.172 479.625C656.278 474.384 675.657 524.717 709.397 546.156C832.52 643.317 699.036 691.03 562.352 704.282Z" fill="#F7F7FF"/>
</g>
<mask id="mask1_1456_3456" style="mask-type:alpha" maskUnits="userSpaceOnUse" x="56" y="387" width="690" height="284">
<path fill-rule="evenodd" clip-rule="evenodd" d="M56.7725 639.498C59.2205 632.506 66.389 624.683 79.5428 615.909C91.02 608.253 102.841 599.626 114.988 590.762C154.264 562.099 196.941 530.954 242.386 522.139C268.193 517.032 289.308 503.781 310.285 490.253C325.11 480.681 332.779 466.35 340.401 452.107C350.053 434.071 359.629 416.176 383.565 408.262C388.872 406.537 394.664 404.358 400.769 402.062C429.522 391.247 465.202 377.825 489.693 396.944C499.189 404.388 509.099 414.667 519.505 425.462C546.039 452.986 575.802 483.86 610.171 479.625C640.386 476.191 659.123 496.624 677.946 517.151C687.845 527.946 697.767 538.768 709.396 546.157C725.546 558.901 737.281 570.795 745.173 581.872V611.993C581.928 666.589 357.994 691.435 166.586 649.943C129.585 641.922 93.0469 639.25 56.7725 639.498Z" fill="url(#paint4_linear_1456_3456)"/>
</mask>
<g mask="url(#mask1_1456_3456)">
<path d="M466.201 649.825C465.348 657.292 464.495 664.76 463.817 672.205C462.499 684.531 462.616 684.037 451.706 684.125C441.501 684.126 431.314 682.844 421.186 682.034C419.56 681.918 417.915 681.645 416.269 681.371C413.703 680.893 412.604 679.271 412.777 676.369C412.932 674.749 412.891 672.994 413.222 671.353C416.187 643.619 420.995 616.294 428.976 590.011C430.889 583.85 431.339 583.154 437.08 584.674C458.142 589.871 479.299 591.537 500.631 593.181C506.234 593.598 506.998 593.982 508.69 600.331C514.455 623.449 521.747 645.896 528.531 668.566C530.399 674.892 529.071 678.579 523.824 680.997C521.788 681.893 519.399 682.833 517.264 682.94C506.413 683.502 495.937 685.616 484.947 685.075C480.99 684.932 479.304 682.903 478.104 679.053C475.233 669.013 470.815 659.486 466.201 649.825Z" fill="#BCBEFF"/>
<path d="M667.637 698.476C660.41 699.382 659.665 699.156 656.916 692.94C651.948 681.883 645.649 671.632 640.191 660.956C639.229 658.997 638.111 657.217 636.836 655.617C635.521 653.702 633.62 652.82 631.761 653.694C625.809 656.2 619.501 655.872 613.451 657.591C609.299 658.752 606.56 661.176 604.174 664.995C600.46 671.062 598.293 678.054 595.911 684.753C593.959 690.599 590.887 693.224 585.403 693.752C572.339 695.231 559.512 697.161 546.488 698.955C545.431 699.088 544.373 699.22 543.296 699.195C541.317 699.124 540.63 697.93 541.274 695.929C542.075 693.748 542.876 691.568 543.872 689.522C552.704 670.013 561.732 650.639 570.563 631.13C572.263 627.556 574.494 625.356 577.94 624.284C598.597 617.692 619.235 610.942 640.482 606.196C645.006 605.148 649.313 603.808 653.817 602.603C660.729 600.616 661.474 600.842 665.479 608.5C673.978 624.875 682.478 641.25 690.958 657.467C693.765 662.715 696.729 667.784 699.516 672.874C702.303 677.965 701.932 679.292 698.137 683.288C697.335 684.029 696.748 685.062 695.73 685.51C686.256 691.339 675.997 695.187 667.637 698.476Z" fill="#BCBEFF"/>
<path d="M523.572 510.617C520.523 516.28 518.452 521.18 516.95 526.329C514.803 533.478 512.657 540.628 510.706 547.913C509.38 553.04 506.955 556.545 502.079 557.636C499.651 558.261 497.262 559.201 494.795 559.51C484.748 560.771 474.505 561.896 464.477 563.314C460.423 563.823 456.603 563.342 452.684 562.074C448.942 560.783 447.96 558.666 449.052 554.529C449.93 551.539 451.024 548.841 452.098 545.986C457.488 531.869 463.075 517.887 468.289 503.792C470.007 498.936 472.943 496.648 477.211 494.992C494.852 488.618 513.063 483.933 530.999 478.483C538.42 476.271 545.606 473.61 553.441 473.267C561.628 472.88 561.825 474.455 563.616 481.591C568.437 501.467 572.73 521.41 576.846 541.375C578.539 549.163 578.246 549.68 571.784 550.971C560.758 552.994 549.713 554.86 538.391 554.521C535.512 554.402 533.747 553.183 532.647 550.121C531.153 545.348 529.992 540.373 529.359 535.332C528.351 527.298 527.539 519.4 523.572 510.617Z" fill="#D5D6FF"/>
<path d="M449.123 460.915C448.105 461.362 448.047 462.33 447.794 463.162C446.507 468.603 446.331 468.625 441.552 469.065C428.253 470.094 414.954 471.122 401.832 472.129C400.246 472.328 398.463 472.391 396.857 472.433C394.526 472.405 393.447 470.94 393.66 468.354C393.717 467.386 393.951 466.397 394.205 465.565C399.37 442.515 404.358 419.488 410.267 396.665C410.755 394.844 411.439 393.158 411.926 391.336C412.668 388.683 414.252 387.044 416.896 386.713C437.559 384.44 457.964 380.12 478.964 381.965C483.489 382.358 484.705 383.485 485.906 388.775C486.359 390.958 486.616 393.006 486.892 395.212C489.225 413.8 492.791 432.234 497.218 450.4C497.258 450.715 497.278 450.872 497.317 451.187C499.325 460.056 498.739 461.09 491.238 462.671C484.952 463.94 478.686 465.366 472.459 467.107C467.779 468.335 463 468.774 458.182 468.899C454.088 469.092 451.227 467.691 450.242 462.694C450.143 461.907 449.535 461.343 449.123 460.915Z" fill="#D5D6FF"/>
<path d="M95.3489 630.847C94.4955 638.315 93.642 645.782 92.9649 653.228C91.6468 665.554 91.7638 665.059 80.8536 665.148C70.6485 665.148 60.4615 663.866 50.3338 663.057C48.7079 662.941 47.0622 662.667 45.4166 662.394C42.8501 661.916 41.7513 660.293 41.9243 657.391C42.0792 655.772 42.0381 654.017 42.3692 652.375C45.3349 624.641 50.1422 597.316 58.1239 571.033C60.0365 564.873 60.4862 564.176 66.2271 565.696C87.2896 570.894 108.446 572.56 129.779 574.203C135.381 574.621 136.146 575.005 137.837 581.353C143.603 604.471 150.895 626.918 157.678 649.589C159.546 655.915 158.218 659.601 152.971 662.02C150.935 662.915 148.547 663.855 146.412 663.963C135.561 664.524 125.084 666.639 114.095 666.098C110.138 665.954 108.451 663.925 107.252 660.076C104.381 650.035 99.9629 640.509 95.3489 630.847Z" fill="#BCBEFF"/>
<path d="M296.783 679.499C289.556 680.405 288.812 680.179 286.062 673.963C281.094 662.906 274.795 652.655 269.338 641.979C268.376 640.02 267.257 638.24 265.982 636.64C264.668 634.725 262.767 633.843 260.907 634.717C254.955 637.223 248.648 636.895 242.597 638.614C238.446 639.775 235.706 642.199 233.321 646.018C229.606 652.085 227.44 659.077 225.058 665.776C223.105 671.622 220.033 674.247 214.549 674.775C201.486 676.254 188.658 678.184 175.635 679.978C174.577 680.111 173.519 680.243 172.442 680.218C170.464 680.147 169.777 678.953 170.421 676.952C171.222 674.771 172.022 672.591 173.019 670.545C181.85 651.036 190.878 631.662 199.71 612.153C201.41 608.579 203.64 606.379 207.086 605.307C227.744 598.715 248.381 591.965 269.629 587.219C274.152 586.171 278.46 584.831 282.964 583.626C289.876 581.639 290.621 581.865 294.625 589.523C303.125 605.898 311.625 622.273 320.105 638.49C322.912 643.738 325.875 648.807 328.662 653.897C331.45 658.988 331.079 660.315 327.283 664.311C326.481 665.052 325.895 666.085 324.877 666.533C315.403 672.362 305.143 676.21 296.783 679.499Z" fill="#BCBEFF"/>
<path d="M318.289 364.299C332.977 361.496 347.374 362.09 361.592 359.826C364.745 359.27 367.234 360.558 369.372 363.33C371.314 365.967 373.08 368.625 374.533 371.643C382.623 389.03 389.538 407.043 396.12 425.259C397.771 429.852 396.931 431.717 392.623 433.058C387.277 434.689 381.716 436.027 376.291 437.027C368.086 438.697 359.703 438.948 351.793 441.541C345.429 443.62 340.98 440.978 337.329 434.715C332.089 425.772 326.047 417.57 321.473 408.223C320.786 407.029 320.079 405.677 319.236 404.663C318.372 403.491 317.295 403.467 316.552 404.68C315.789 405.736 315.243 407.084 314.5 408.298C310.747 415.489 306.367 421.959 302.202 428.722C299.973 432.362 297.468 433.796 293.315 433.517C281.522 432.277 270.274 428.248 258.578 426.355C256.011 425.877 255.441 424.188 256.202 421.692C257.568 416.881 258.777 412.249 260.143 407.437C262.738 398.151 265.705 388.978 268.123 379.714C269.566 374.093 272.579 370.994 277.887 370.488C291.655 368.921 304.911 364.698 318.289 364.299Z" fill="#D5D6FF"/>
<path d="M282.578 551.993C281.855 553.363 281.385 553.902 281.288 554.555C279.492 560.22 278.886 561.096 273.812 560.613C267.642 559.947 261.431 558.966 255.201 557.828C250.989 557.076 247.05 555.65 242.818 554.741C239.703 554.172 238.389 552.257 238.15 548.926C238.148 547.486 237.97 546.069 237.969 544.629C238.631 524.224 239.842 503.911 241.426 483.711C241.811 478.222 243.063 476.785 247.569 477.02C267.529 477.715 287.488 476.971 307.51 479.58C311.702 480.174 314.367 481.44 315.901 486.527C322.508 509.22 329.487 532.026 336.447 554.674C339.494 564.693 338.359 565.635 330.347 564.56C321.609 563.417 312.951 562.903 304.077 562.096C300.1 561.795 296.28 561.314 292.187 561.508C286.311 561.765 285.703 561.201 283.443 554.604C283.716 553.93 283.285 553.344 282.578 551.993Z" fill="#D5D6FF"/>
<path d="M391.376 611.466C384.363 611.226 376.822 611.052 369.397 610.384C364.324 609.9 363.225 608.278 363.747 602.452C365.565 581.262 367.578 560.208 370.492 539.201C371.405 532.206 372.423 531.759 378.751 532.245C383.276 532.637 387.898 532.377 392.443 532.927C397.341 533.433 398.223 534.762 398.19 540.207C397.959 561.197 397.748 582.345 397.341 603.357C397.27 609.927 396.351 611.162 391.376 611.466Z" fill="#D5D6FF"/>
</g>
<defs>
<filter id="filter0_f_1456_3456" x="153.542" y="23.05" width="965.376" height="647.555" filterUnits="userSpaceOnUse" color-interpolation-filters="sRGB">
<feFlood flood-opacity="0" result="BackgroundImageFix"/>
<feBlend mode="normal" in="SourceGraphic" in2="BackgroundImageFix" result="shape"/>
<feGaussianBlur stdDeviation="45.85" result="effect1_foregroundBlur_1456_3456"/>
</filter>
<filter id="filter1_f_1456_3456" x="55.8723" y="-54.0179" width="1184.94" height="745.051" filterUnits="userSpaceOnUse" color-interpolation-filters="sRGB">
<feFlood flood-opacity="0" result="BackgroundImageFix"/>
<feBlend mode="normal" in="SourceGraphic" in2="BackgroundImageFix" result="shape"/>
<feGaussianBlur stdDeviation="45.85" result="effect1_foregroundBlur_1456_3456"/>
</filter>
<filter id="filter2_f_1456_3456" x="21.3" y="-55.8294" width="957.756" height="730.92" filterUnits="userSpaceOnUse" color-interpolation-filters="sRGB">
<feFlood flood-opacity="0" result="BackgroundImageFix"/>
<feBlend mode="normal" in="SourceGraphic" in2="BackgroundImageFix" result="shape"/>
<feGaussianBlur stdDeviation="45.85" result="effect1_foregroundBlur_1456_3456"/>
</filter>
<linearGradient id="paint0_linear_1456_3456" x1="178.364" y1="15.9998" x2="108.413" y2="757.741" gradientUnits="userSpaceOnUse">
<stop stop-color="#46409C"/>
<stop offset="1" stop-color="#635ACE"/>
</linearGradient>
<linearGradient id="paint1_linear_1456_3456" x1="690.098" y1="375.528" x2="335.273" y2="562.678" gradientUnits="userSpaceOnUse">
<stop stop-color="#71D9CE"/>
<stop offset="1" stop-color="#5953C4"/>
</linearGradient>
<linearGradient id="paint2_linear_1456_3456" x1="779.126" y1="145.531" x2="341.939" y2="601.115" gradientUnits="userSpaceOnUse">
<stop stop-color="#719BD9"/>
<stop offset="1" stop-color="#5A53C5"/>
</linearGradient>
<linearGradient id="paint3_linear_1456_3456" x1="535.074" y1="385.736" x2="180.256" y2="572.169" gradientUnits="userSpaceOnUse">
<stop stop-color="#71C0D9"/>
<stop offset="1" stop-color="#5953C3"/>
</linearGradient>
<linearGradient id="paint4_linear_1456_3456" x1="254.483" y1="213.041" x2="254.483" y2="675.584" gradientUnits="userSpaceOnUse">
<stop stop-color="#4247C2"/>
<stop offset="1" stop-color="#CFC7FF" stop-opacity="0.1"/>
</linearGradient>
</defs>
</svg>
