<svg aria-hidden="true" style="position: absolute; width: 0; height: 0; overflow: hidden;" version="1.1" xmlns="http://www.w3.org/2000/svg" xmlns:xlink="http://www.w3.org/1999/xlink">
<defs>
<symbol id="svg-hero_bears" viewBox="0 0 22 32">
<path fill="#72709a" style="fill: var(--color1, #72709a)" opacity="0.04" d="M21.904 30.99c0 0.558-4.835 1.010-10.799 1.010s-10.799-0.452-10.799-1.010c0-0.558 4.835-1.010 10.799-1.010s10.799 0.452 10.799 1.010z"></path>
<path fill="#e9e8ff" style="fill: var(--color2, #e9e8ff)" d="M20.484 30.508c-1.164 0.97-3.966 0.498-5.851 0.248-0.505-0.067-0.931-0.125-1.233-0.146-0.803-0.058-1.963 0.015-2.836 0.033-0.409 0.023-0.819-0.022-1.213-0.135-0.394 0.205-0.817 0.35-1.254 0.431h-0.005c-0.452 0.091-0.912 0.135-1.372 0.132 0 0-1.257 0.014-3.425 0.015l-0.038-0.125c-1.113-0.209-3.951-7.822-3.097-14.55 0.683-5.351 2.795-8.451 3.472-9.854 1.684-3.46 7.452-0.808 10.251 3.767 0.267 0.435 2.522 0.562 3.050 1.271 0.888 1.198 1.288 1.354 1.597 2.99s0.786 2.791 0.552 2.447c3.075 1.719 4.198 11.147 1.404 13.475z"></path>
<path fill="#fff" style="fill: var(--color3, #fff)" d="M20.236 19.993c0.421 2.998-0.102 7.522-0.413 9.689-0.047 0.324-0.207 0.621-0.453 0.837s-0.561 0.338-0.888 0.343l-2.501 0.038c-0.226 0.004-0.447-0.063-0.633-0.191s-0.327-0.311-0.403-0.524c-0.087-0.245-0.155-0.466-0.12-0.498-0.303-2.052-0.198-4.939-0.682-6.875-0.591-2.373-0.923-5.459-3.079-5.368-0.758 0.033-1.771 4.446-1.969 6.958-0.193 2.446-0.207 4.852-0.207 4.852l0.252 0.657c0.126 0.327 0.168 0.621 0 0.81-0.051 0.048-0.111 0.085-0.178 0.108h-0.005c-0.967 0.381-4.828 0.295-4.828 0.295l-0.037-0.144-0.014-0.058c-1.113-0.211-3.221-8.667-3.493-11.085-0.12-1.242-0.043-2.576 0.131-3.884 0.425-3.155 1.653-6.324 1.903-7.433 0.354-1.57 3.116-5.419 5.242-6.583 1.872-1.32 3.145-2.049 5.667-1.053s3.518 4.026 3.548 4.744 0.658 1.897 0.97 2.767c0.311 0.869-1.058 1.040-1.271 1.069-0.257 0.041-0.517 0.056-0.776 0.044l0.005 0.007c0.044 0.078 0.096 0.167 0.155 0.264 1.083 1.778 3.48 5.984 4.075 10.214z"></path>
<path fill="#f6f6f8" style="fill: var(--color4, #f6f6f8)" d="M15.166 23.171l-0.845 0.539c-1.035-4.258-1.344-6.268-3.080-6.010-1.23 0.184-1.397 2.391-2.101 6.254-0.283-7.787 0.834-9.672 2.992-10.706 1.457-0.699 3.134 1.032 4.473 2.998 1.563 2.295 0.902 5.431-1.438 6.924z"></path>
<path fill="#e9e8ff" style="fill: var(--color2, #e9e8ff)" d="M13.65 2.13h-0.037c-0.010-0.388-0.086-0.899-0.376-1.341-0.373-0.567-1.251 0.377-1.802 1.080-0.015 0.020-0.036 0.036-0.059 0.046s-0.048 0.014-0.073 0.012c-0.027-0.002-0.052-0.011-0.074-0.027s-0.039-0.036-0.050-0.060c-0.011-0.024-0.016-0.051-0.013-0.077s0.012-0.052 0.027-0.074c0.43-0.602 1.668-2.217 2.129-1.514 0.56 0.852 0.329 1.955 0.329 1.955z"></path>
<path fill="#40316a" style="fill: var(--color5, #40316a)" d="M13.613 2.126c0 0-0.776-0.466-2.229-0.22 0.345-0.613 1.468-1.708 1.851-1.121 0.29 0.442 0.367 0.952 0.377 1.341z"></path>
<path fill="#f0eff8" style="fill: var(--color6, #f0eff8)" d="M10.728 8.303c-1.743-0.13-2.484-1.785-2.761-2.558 0.47 1.029 1.258 1.61 1.931 1.952 0.273 0.133 0.817 0.501 0.83 0.605z"></path>
<path fill="#40316a" style="fill: var(--color5, #40316a)" d="M15.073 5.235l0.401 0.482c0.082 0.099 0.22 0.107 0.273 0.014 0.16-0.282 0.336-0.812-0.595-0.776-0.131 0.006-0.175 0.163-0.079 0.28z"></path>
<path fill="#e9e8ff" style="fill: var(--color2, #e9e8ff)" d="M14.154 7.904c0.083 0.065 1.133 1.228 1.653 1.363s0.812-0.078 0.812-0.078c0.013 0.052 0.082 0.294 0.082 0.294s-0.736 0.113-1.857-0.1c-0.165-0.026 0.604-0.040 0.165-0.367s-0.939-1.179-0.855-1.112z"></path>
<path fill="#40316a" style="fill: var(--color5, #40316a)" d="M16.887 8.649c0.478-0.147 0.82-0.306 1.022-0.104s0.26 0.258-0.021 0.543c-0.281 0.285-1.025 0.574-1.172 0.455s-0.155-0.795 0.171-0.894z"></path>
<path fill="#e9e8ff" style="fill: var(--color2, #e9e8ff)" d="M18.071 30.397c0.082 0.017 0.047 0.123 0.039 0.317s-0.040 0.591-0.233 0.446c-0.061-0.043-0.111-0.1-0.144-0.167s-0.049-0.141-0.047-0.215c-0.002-0.216 0.232-0.415 0.385-0.382z"></path>
<path fill="#e9e8ff" style="fill: var(--color2, #e9e8ff)" d="M16.239 30.401c0.082 0.018 0.047 0.123 0.038 0.317s-0.039 0.592-0.233 0.447c-0.061-0.043-0.111-0.1-0.144-0.167s-0.049-0.141-0.047-0.215c-0.002-0.216 0.233-0.415 0.386-0.383z"></path>
<path fill="#e9e8ff" style="fill: var(--color2, #e9e8ff)" d="M5.97 30.609c-0.082 0.018-0.047 0.123-0.039 0.317s0.040 0.592 0.233 0.447c0.061-0.043 0.111-0.1 0.144-0.167s0.049-0.141 0.047-0.215c0.002-0.216-0.232-0.416-0.385-0.383z"></path>
<path fill="#e9e8ff" style="fill: var(--color2, #e9e8ff)" d="M7.802 30.612c-0.078 0.018-0.047 0.123-0.038 0.318s0.039 0.591 0.233 0.446c0.061-0.042 0.111-0.1 0.145-0.166s0.049-0.141 0.046-0.215c0.002-0.216-0.233-0.413-0.386-0.383z"></path>
<path fill="#c9c9ea" style="fill: var(--color7, #c9c9ea)" d="M9.438 30.907c0.604 0.264 6.853-0.187 7.84-0.186 0 0 1.992-3.242 1.766-5.527 0.055-0.567-0.943-2.989-1.024-3.583-0.621-1.891 0.326-1.807-1.254-4.605 0.058-0.397-4.81 0.38-5.143 0.642-2.1 1.63-3.495 12.050-2.186 13.26z"></path>
<path fill="#e9e8ff" style="fill: var(--color2, #e9e8ff)" d="M9.735 30.981c0.605 0.264 1.411 0.227 2.269 0.113 0.233-0.030 0.425-0.057 0.561-0.066 0.366-0.026 0.893 0.007 1.291 0.015 0.186 0.011 0.373-0.010 0.552-0.061 0.179 0.093 0.372 0.159 0.571 0.196 0.204 0.041 0.412 0.061 0.621 0.060 0 0 0.572 0.006 1.558 0.007l0.018-0.057c0.506-0.096 1.485-3.912 1.608-5.012 0.048-0.59 0.028-1.184-0.059-1.769-0.621-1.891-1.58-3.031-1.732-3.726-0.086-0.394-5.228 0.519-5.447 0.882-1.374 2.276-3.12 8.21-1.811 9.419z"></path>
<path fill="#fff" style="fill: var(--color3, #fff)" d="M9.981 15.833c0.023 0.466 0.324 1.119 0.366 1.229s0.394 0.269 0.365 0.612c-0.029 0.342 0.025 3.113-0.019 3.45s-0.071 1.027-0.093 1.289c-0.022 0.262-0.032 1.561 0 2.465s1.009 6.28 1.009 6.28l1.43 0.031h0.345c0.091 0 0.118-0.045 0.109-0.109-0.019-0.155 0.273-5.462 0.918-5.465s0.238 4.883 0.238 4.883l-0.114 0.299c-0.057 0.149-0.078 0.283 0 0.369 0.022 0.022 0.048 0.039 0.078 0.049 0.44 0.174 2.213 0.069 2.213 0.069l-0.299 0.031c0.506-0.096 1.456-3.774 1.46-5.689s-0.271-3.971-0.385-4.479c-0.161-0.714 0.217-1.397-0.321-2.707-0.363-1.309-0.708-1.928-1.63-3.145s-2.705-1.068-3.122-0.907c-0.417 0.161-1.419 0.203-1.962 0.238s-0.599 1.077-0.587 1.207z"></path>
<path fill="#e9e8ff" style="fill: var(--color2, #e9e8ff)" d="M15.148 15.416l0.009 0.027c0.293-0.116 0.681-0.22 1.069-0.141 0.493 0.1-0.065 1.074-0.491 1.708-0.009 0.013-0.015 0.029-0.017 0.044s-0 0.032 0.005 0.047l0.016 0.048c0.006 0.016 0.015 0.031 0.028 0.043s0.028 0.020 0.045 0.025c0.017 0.004 0.035 0.004 0.051 0s0.033-0.013 0.045-0.024c0.375-0.346 1.48-1.472 0.626-2.059-0.013-0.009-0.028-0.015-0.043-0.018-0.726-0.137-1.345 0.3-1.345 0.3z"></path>
<path fill="#40316a" style="fill: var(--color5, #40316a)" d="M15.132 15.437c0.776 0.826 0.588 1.593 0.588 1.593 0.435-0.643 1.306-1.282 0.494-1.735-0.387-0.079-0.668-0.041-1.082 0.142z"></path>
<path fill="#40316a" style="fill: var(--color5, #40316a)" d="M12.938 15.898l-0.155-0.139-0.205-0.136c-0.146-0.098-0.196-0.252-0.093-0.283 0.269-0.078 0.71-0.102 0.751 0.567 0.008 0.116-0.16 0.111-0.297-0.009z"></path>
<path fill="#e9e8ff" style="fill: var(--color2, #e9e8ff)" d="M12.112 16.958c-0.049-0.033-1.677-0.069-1.983-0.741-0.15-0.269-0.15-0.422-0.15-0.422s0 0.442 0.275 1.042c0.038 0.088-0.098-0.286 0.155-0.112s1.656 0.363 1.703 0.234z"></path>
<path fill="#40316a" style="fill: var(--color5, #40316a)" d="M10.699 15.134c0.181-0.171 0.342-0.276 0.261-0.435s-0.106-0.203-0.329-0.167c-0.223 0.036-0.543 0.283-0.501 0.388s0.446 0.328 0.569 0.213z"></path>
<path fill="#e9e8ff" style="fill: var(--color2, #e9e8ff)" d="M12.661 31.105c-0.001 0.034 0.006 0.068 0.021 0.098s0.038 0.057 0.066 0.076c0.087 0.066 0.101-0.115 0.105-0.203s0.019-0.137-0.018-0.144c-0.069-0.016-0.179 0.075-0.174 0.173z"></path>
<path fill="#e9e8ff" style="fill: var(--color2, #e9e8ff)" d="M11.827 31.107c-0.001 0.034 0.006 0.067 0.021 0.098s0.038 0.056 0.066 0.075c0.087 0.066 0.101-0.115 0.105-0.203s0.019-0.137-0.018-0.144c-0.069-0.015-0.176 0.076-0.174 0.175z"></path>
<path fill="#e9e8ff" style="fill: var(--color2, #e9e8ff)" d="M15.97 31.027c0.037 0.009 0.021 0.057 0.017 0.145s-0.018 0.269-0.105 0.203c-0.028-0.019-0.050-0.045-0.065-0.075s-0.023-0.064-0.022-0.097c-0.002-0.099 0.105-0.19 0.175-0.175z"></path>
<path fill="#e9e8ff" style="fill: var(--color2, #e9e8ff)" d="M15.139 31.028c0.037 0.009 0.021 0.057 0.017 0.145s-0.018 0.269-0.105 0.203c-0.028-0.019-0.052-0.045-0.067-0.076s-0.024-0.065-0.023-0.099c-0.002-0.098 0.105-0.189 0.178-0.174z"></path>
<path fill="#f0eff8" style="fill: var(--color6, #f0eff8)" d="M15.185 18.301c-0.834 0.647-1.831 0.202-2.273-0.032 0.524 0.222 1.109 0.256 1.656 0.095 0.177-0.048 0.571-0.102 0.617-0.064z"></path>
</symbol>
<symbol id="svg-howworks_exchange" viewBox="0 0 38 32">
<path fill="#3a357a" style="fill: var(--color8, #3a357a)" d="M16.475 26.391c0.564 0.861 1.558 1.456 2.604 1.737 1.482 0.398 2.524 0.302 8.961 0.091 0.039 0.517 0.063 1.042 0.126 1.548s0.66 0.539 0.939 0.35c4.861-3.335 4.84-3.161 4.859-3.414 0.007-0.085-0.027-0.169-0.090-0.227-1.419-1.302-2.98-2.948-4.412-4.262-0.248-0.227-1.080-0.084-1.119 0.381-0.012 0.646 0.042 1.261 0.039 1.903-2.056 0.052-4.212 0.017-6.389 0.068-0.544 0.013-1.103-0.013-1.62-0.197-0.662-0.535-0.788-1.389-0.853-2.239-0.147-1.918 0.072-5.609 0.029-5.914s-0.249-0.782-0.631-0.926-0.503 0.090-3.687-0.293c-0.174-0.019-0.322 0.12-0.313 0.293 0.135 2.608 0.323 5.187 0.457 7.775 0.054 1.045 0.23 2.253 1.098 3.327s0 0 0 0z"></path>
<path fill="#3a357a" style="fill: var(--color8, #3a357a)" d="M20.919 14.79c0.209 0.203 1.101 0.245 1.129-0.349 0.031-0.647-0.006-1.264 0.015-1.906 1.034 0.003 2.066 0.029 3.144 0.057 3.652 0.095 4.412 0.016 4.858 0.304s0.748 1.412 0.788 2.262c0.092 1.922-0.218 5.655-0.198 5.911s0.267 0.708 0.676 0.95c0.409 0.242 0.419-0.084 3.606 0.391 0.014 0.002 0.028 0.003 0.041 0.003 0.157 0 0.283-0.129 0.28-0.287-0.062-2.635-0.176-5.206-0.235-7.785-0.025-1.047-0.212-2.249-1.004-3.359s-1.515-1.499-2.553-1.809c-1.498-0.449-2.603-0.369-8.955-0.346-0.024-0.518-0.033-1.044-0.082-1.551s-0.645-0.558-0.929-0.376c-4.939 3.184-4.929 3.020-4.955 3.274-0.009 0.085 0.022 0.17 0.083 0.229 1.383 1.345 2.897 3.034 4.289 4.386v0z"></path>
<path fill="#f25b69" style="fill: var(--color9, #f25b69)" d="M29.281 16.144c-0.346-0.35-0.88-0.655-1.637-0.648-0.881 0.063-1.364 0.456-1.683 0.911-0.176 0.251-0.575 0.251-0.752 0.001-0.349-0.492-0.89-0.921-1.827-0.911-1.117 0.072-1.784 0.753-2.026 1.604-0.295 1.039 0.085 2.184 0.552 2.836 0.482 0.673 1.183 1.232 1.799 1.767 0.586 0.509 0.978 0.737 1.651 1.272 0.141 0.112 0.343 0.107 0.481-0.010 0.821-0.699 1.979-1.459 2.957-2.477 0.488-0.529 0.914-1.079 1.053-1.993 0.148-0.969-0.021-1.8-0.566-2.351z"></path>
<path fill="#46409c" style="fill: var(--color10, #46409c)" d="M19.659 14.471c-0.415-0.493-0.954-1.024-1.494-1.555-1.14-1.123-2.285-2.25-2.285-3.044 0-0.7 1.642-1.553 3.734-2.639 0.436-0.227 0.892-0.463 1.357-0.711-1.688-2.108-5.202-3.331-9.94-3.331-4.57 0-7.444 1.695-7.444 4.422 0 2.395 1.131 5.001 5.155 3.551s6.758 1.974 2.178 2.745c-1.695 0.074-2.727 1.069-2.727 2.543 0.037 1.585 1.216 2.114 2.838 2.077 4.393-0.759 1.567 5.778-1.453 3.714s-6.986-0.958-6.986 2.064c0 3.611 3.538 5.859 9.213 5.859 2.576 0 4.805-0.401 6.599-1.144-1.228-0.46-2.192-1.339-2.979-2.52-1.367-2.050-1.595-11.39-1.215-11.921 0.328-0.459 3.142-0.182 4.981 0.146 0.162-0.078 0.318-0.163 0.467-0.254z"></path>
</symbol>
<symbol id="svg-howworks_fill" viewBox="0 0 38 32">
<path fill="#46409c" style="fill: var(--color10, #46409c)" d="M6.197 13.574c-0.729 0.454-1.346 0.838-1.594 0.825-0.988-0.054-1.21-0.87-1.306-2.401-0.007-0.113-0.016-0.233-0.025-0.36-0.113-1.604-0.303-4.292 1.331-5.773 3.153-2.857 12.002-6.722 13.187-2.437 0.571 2.064 0.689 7.861 0.535 13.443-0.112 0.036-0.225 0.073-0.338 0.111-0.777 0.257-1.561 0.516-2.161 0.416-0.062-0.010-0.125-0.021-0.188-0.032-0.868-0.151-1.832-0.318-2.399 0.538-0.115 0.174-0.3 0.381-0.509 0.616-0.616 0.692-1.443 1.619-1.317 2.628 0.075 0.606 0.614 0.803 1.169 1.006 0.431 0.157 0.871 0.319 1.114 0.677 0.41 0.607 0.333 1.426 0.256 2.229-0.097 1.024-0.192 2.021 0.733 2.514 0.363 0.194 1.066 0.304 1.67 0.399 0.297 0.047 0.569 0.089 0.765 0.137 0.103 0.025 0.215 0.055 0.336 0.091-0.111 0.543-0.228 0.899-0.349 1.023-0.909 0.93-4.935 2.19-7.611-0.336-0.943-0.89-0.631-3.61-0.214-7.241 0.291-2.539 0.634-5.523 0.634-8.639 0-1.749-2.127-0.424-3.719 0.567z"></path>
<path fill="#3a357a" style="fill: var(--color8, #3a357a)" d="M20.125 23.3l2.667-3.073-8.493-2.232-2.493 2.87c-0.145 0.174-0.058 0.464 0.174 0.522l7.711 2.029c0.145 0.058 0.319 0 0.435-0.116v0z"></path>
<path fill="#3a357a" style="fill: var(--color8, #3a357a)" d="M34.868 20.865l-2.493-2.87-8.464 2.232 2.667 3.073c0.116 0.116 0.29 0.174 0.435 0.145l7.711-2.029c0.203-0.087 0.29-0.348 0.145-0.551v0z"></path>
<path fill="#3a357a" style="fill: var(--color8, #3a357a)" d="M19.824 23.91l-5.305-1.391v4.070c0 0.203 0.145 0.377 0.319 0.406l8.232 2.174v-8.505l-2.667 3.073c-0.116 0.174-0.348 0.232-0.58 0.174v0z"></path>
<path fill="#3a357a" style="fill: var(--color8, #3a357a)" d="M26.242 23.736l-2.638-3.073v8.505l8.233-2.174c0.203-0.058 0.319-0.232 0.319-0.406v-4.070l-5.305 1.391c-0.232 0.058-0.464 0-0.609-0.174z"></path>
<path fill="#f4cd6b" style="fill: var(--color11, #f4cd6b)" d="M25.134 16.505c-0.319 0.522-0.667 0.899-0.87 1.131-0.232 0.261-0.58 0.562-0.928 0.562s-0.696-0.301-0.928-0.562c-0.203-0.203-0.551-0.609-0.87-1.131l-5.624 1.478 7.421 1.942 7.421-1.942-5.624-1.479z"></path>
<path fill="#3a357a" style="fill: var(--color8, #3a357a)" d="M23.221 15.809c-0.116-0.116-0.319-0.348-0.493-0.609h-0.725c0.087 1.131 0.899 2.087 1.217 2.406 0.058 0.058 0.174 0.058 0.261 0 0.319-0.319 1.131-1.276 1.217-2.406h-0.725c-0.203 0.29-0.377 0.493-0.522 0.609-0.058 0.087-0.174 0.087-0.232 0v0z"></path>
<path fill="#3a357a" style="fill: var(--color8, #3a357a)" d="M19.974 14.179l1.362-0.493 0.174 0.812c0.058 0.203 0.232 0.348 0.435 0.348h2.783c0.203 0 0.377-0.145 0.435-0.348l0.174-0.812 1.362 0.493c0.232 0.087 0.493-0.087 0.493-0.348v-1.159c0-0.812-0.493-1.507-1.246-1.797l-0.058-0.029c-0.087-3.044-1.739-4.638-2.348-5.131-0.145-0.116-0.319-0.116-0.435 0-0.609 0.493-2.261 2.087-2.348 5.131l-0.029 0.029c-0.754 0.29-1.246 0.986-1.246 1.797v1.159c0 0.261 0.261 0.435 0.492 0.348v0zM23.337 8.904c0.551 0 0.985 0.464 0.985 1.015s-0.435 0.986-0.986 0.986c-0.551 0-1.015-0.435-1.015-0.986 0-0.58 0.464-1.015 1.015-1.015z"></path>
</symbol>
<symbol id="svg-howworks_takepart" viewBox="0 0 38 32">
<path fill="#46409c" style="fill: var(--color10, #46409c)" d="M17.993 29.409c0.203-0.822 0.688-1.608 1.092-2.019 0.169-0.171 0.352-0.578 0.597-1.123 0.47-1.045 1.169-2.597 2.429-3.963-0.648-0.244-1.438-0.34-2.357-0.219-1.42 0.187-2.661 0.471-3.719 0.713-2.483 0.568-3.963 0.907-4.416-0.773-0.231-0.855 1.222-1.358 3.16-2.028 2.050-0.709 4.644-1.605 6.361-3.306-0.847-1.154-1.223-1.881-1.543-2.928-0.401-1.277-1.061-1.941-1.537-2.42-0.132-0.133-0.25-0.251-0.344-0.364-0.434-0.523-0.155-1.44 0.579-1.846 0.78-0.432 2.508-0.483 3.924-0.526 0.014 0 0.028-0.001 0.042-0.001-1.649-3.947-5.974-6.074-11.93-5.672-4.398 0.297-7.279 2.83-7.124 5.123 0.29 4.294 2.812 5.646 7.078 3.708 4.895-2.222 6.487 2.2 2.459 3.411-5.221 1.57-9.697 4.039-9.358 9.070 0.391 5.79 8.729 6.25 14.608 5.163z"></path>
<path fill="#3a357a" style="fill: var(--color8, #3a357a)" d="M19.533 28.997c-0.374 0-0.678 0.304-0.678 0.678s0.304 0.678 0.678 0.678h14.455c0.374 0 0.678-0.304 0.678-0.678s-0.304-0.678-0.678-0.678h-14.455z"></path>
<path fill="#62c2e9" style="fill: var(--color12, #62c2e9)" d="M33.307 11.832h-13.092c0.033 0.959 0.274 1.88 0.69 2.71h11.712c0.416-0.83 0.657-1.752 0.69-2.71z"></path>
<path fill="#62c2e9" style="fill: var(--color12, #62c2e9)" d="M26.761 25.287c-0.393 0.855-1.257 1.451-2.259 1.451h-3.968c-0.188 0.577-0.298 1.184-0.319 1.807h13.092c-0.021-0.623-0.131-1.23-0.319-1.807h-3.968c-1.001 0-1.866-0.596-2.259-1.451z"></path>
<path fill="#3a357a" style="fill: var(--color8, #3a357a)" d="M34.666 10.702c0-0.374-0.304-0.678-0.678-0.678h-14.455c-0.374 0-0.678 0.304-0.678 0.678s0.304 0.678 0.678 0.678h14.455c0.374 0 0.678-0.304 0.678-0.678z"></path>
<path fill="#3a357a" style="fill: var(--color8, #3a357a)" d="M32.367 14.994h-11.213c0.598 0.99 1.458 1.822 2.519 2.39 1.195 0.64 2.232 1.465 3.088 2.455 0.855-0.99 1.893-1.815 3.088-2.455 1.060-0.568 1.921-1.4 2.519-2.39z"></path>
<path fill="#3a357a" style="fill: var(--color8, #3a357a)" d="M23.672 22.994c-1.369 0.733-2.406 1.907-2.974 3.293h3.803c1.121 0 2.033-0.912 2.033-2.033 0-0.125 0.101-0.226 0.226-0.226s0.226 0.101 0.226 0.226c0 1.121 0.912 2.033 2.033 2.033h3.803c-0.568-1.386-1.604-2.56-2.974-3.293-1.195-0.64-2.232-1.465-3.088-2.455-0.856 0.99-1.893 1.815-3.088 2.455zM27.212 22.899c0 0.249-0.202 0.452-0.452 0.452s-0.452-0.202-0.452-0.452c0-0.25 0.202-0.452 0.452-0.452s0.452 0.202 0.452 0.452z"></path>
</symbol>
<symbol id="svg-whyus_cultivation" viewBox="0 0 33 32">
<path fill="#46409c" style="fill: var(--color10, #46409c)" d="M29.575 19.893c-0.628 2.976-3.314 4.935-5.575 6.353-3.221 2.019-6.67 3.534-10.909 2.64-3.168-0.668-5.583-4.159-7.449-6.512-2.384-3.006-3.714-5.261-2.86-9.309 0.725-3.438 3.663-5.249 6.326-7.124 2.926-2.061 5.717-3.982 9.495-3.185 3.685 0.777 5.612 3.298 7.625 6.796 1.929 3.352 4.093 6.81 3.348 10.341z"></path>
<path fill="#fff" style="fill: var(--color3, #fff)" d="M10.385 18.971c1.618-0.335 3.252-0.759 4.905-0.856 0.318-0.025 0.637-0.021 0.955 0.013-0.099-0.013 0.091 0.016 0.121 0.024 0.060 0.013 0.119 0.031 0.183 0.048 0.108 0.033-0.033-0.035 0.059 0.026l0.048 0.027c0.106 0.051-0.042-0.031 0.013 0.009l0.035 0.035 0.016 0.018c-0.044-0.059-0.053-0.068-0.029-0.031 0.055 0.101-0.015-0.086 0 0.029s0-0.112 0-0.016c0.003 0.019 0.003 0.038 0 0.057-0.027 0 0.073-0.157 0 0 0.024-0.053 0.027-0.064 0.013-0.035l-0.022 0.040c-0.079 0.071 0.068-0.066-0.013 0.013l-0.049 0.049c-0.011 0.011-0.102 0.079-0.026 0.024l-0.082 0.053c-0.059 0.037-0.12 0.070-0.183 0.101-0.059 0.032-0.12 0.059-0.183 0.080-0.374 0.13-0.759 0.226-1.15 0.287-0.183 0.031-0.229 0.037-0.443 0.057-0.128 0.013-0.256 0.022-0.384 0.022-0.563 0-0.563 0.88 0 0.876 0.713-0.012 1.42-0.136 2.096-0.366 0.642-0.214 1.522-0.68 1.28-1.507-0.192-0.668-0.984-0.801-1.576-0.827-0.894-0.005-1.786 0.084-2.661 0.265-1.053 0.183-2.096 0.417-3.142 0.633-0.549 0.113-0.318 0.958 0.232 0.845l-0.011 0.007z"></path>
<path fill="#fff" style="fill: var(--color3, #fff)" d="M10.003 21.337c1.618 0.51 3.31 0.753 4.996 0.479 1.169-0.183 2.248-0.66 3.358-1.053 0.519-0.192 1.054-0.335 1.598-0.43 0.043-0.008 0.086-0.015 0.13-0.018 0.062 0 0.123-0.013 0.183-0.016 0.207-0.016 0.411-0.031 0.616-0.062 0.337-0.047 0.663-0.148 0.967-0.3 0.448-0.23 0.872-0.655 0.891-1.187 0.022-0.569-0.422-0.96-0.914-1.145-0.585-0.216-1.223-0.163-1.829-0.104l-1.426 0.141c-0.115 0.003-0.224 0.050-0.305 0.132s-0.128 0.191-0.132 0.305c0 0.116 0.047 0.227 0.128 0.309s0.193 0.129 0.309 0.13l1.137-0.112c0.462-0.067 0.929-0.090 1.395-0.070 0.118 0.010 0.235 0.033 0.349 0.068 0.027 0 0.15 0.048 0.128 0.038s0.027 0.013 0.037 0.018l0.097 0.053 0.059 0.037c0.053 0.033-0.055-0.049-0.011 0s0.066 0.064 0.095 0.099c-0.060-0.069-0.011-0.015 0 0.027s0-0.024-0.011-0.031c0.009 0.024 0.016 0.049 0.020 0.075 0.018-0.009-0.033 0.183 0-0.038 0 0 0 0.038 0 0.051 0.003 0.018 0.003 0.035 0 0.053 0.013-0.192 0.011-0.038 0-0.038s-0.070 0.15-0.009 0.040c-0.022 0.040-0.044 0.079-0.068 0.117-0.055 0.086 0.044-0.046 0 0-0.016 0.016-0.029 0.035-0.046 0.049s-0.077 0.075-0.119 0.108c0.071-0.057-0.051 0.033-0.069 0.044-0.059 0.038-0.12 0.072-0.183 0.102-0.034 0.018-0.069 0.034-0.106 0.046-0.062 0.022-0.124 0.044-0.183 0.062-0.139 0.040-0.281 0.070-0.424 0.090-0.318 0.042-0.636 0.051-0.955 0.101-0.498 0.086-0.988 0.216-1.463 0.39-1.031 0.338-2.017 0.772-3.072 1-1.628 0.344-3.332 0.102-4.938-0.402-0.536-0.17-0.768 0.675-0.23 0.843z"></path>
<path fill="#fff" style="fill: var(--color3, #fff)" d="M19.426 14.619c-0.201 0.223-0.318 0.509-0.329 0.808-0.003 0.259 0.068 0.513 0.207 0.732 0.134 0.22 0.323 0.4 0.549 0.525 0.267 0.138 0.572 0.186 0.869 0.137 0.297-0.057 0.569-0.204 0.779-0.421 0.233-0.218 0.379-0.513 0.413-0.83 0.010-0.257-0.054-0.511-0.183-0.734s-0.32-0.403-0.548-0.521c-0.288-0.157-0.62-0.215-0.944-0.165-0.321 0.057-0.613 0.223-0.827 0.47-0.082 0.082-0.128 0.194-0.128 0.31s0.046 0.227 0.129 0.309c0.082 0.082 0.194 0.128 0.31 0.128s0.227-0.046 0.309-0.129c0.045-0.050 0.094-0.097 0.144-0.141 0.046-0.038-0.042 0.037-0.044 0.035l0.038-0.027c0.026-0.016 0.051-0.033 0.079-0.048l0.069-0.035c-0.134 0.069-0.051 0.022 0 0.009 0.055-0.017 0.111-0.028 0.168-0.033l-0.117 0.016c0.084-0.011 0.17-0.011 0.254 0l-0.119-0.016c0.052 0.007 0.104 0.018 0.154 0.035l0.073 0.026c0.053 0.018-0.062-0.027-0.060-0.027 0.014 0.007 0.028 0.014 0.042 0.020 0.044 0.021 0.086 0.046 0.126 0.073l0.031 0.024c0.051 0.035-0.082-0.069-0.046-0.037l0.059 0.049c0.035 0.035 0.064 0.071 0.097 0.106-0.102-0.11-0.040-0.055-0.015-0.016 0.015 0.020 0.027 0.042 0.038 0.064 0.013 0.020 0.022 0.044 0.033 0.066s-0.029-0.066-0.026-0.066c0.004 0 0.013 0.040 0.015 0.042 0.015 0.046 0.026 0.093 0.033 0.141l-0.015-0.117c0.008 0.068 0.008 0.137 0 0.205l0.016-0.115c-0.005 0.040-0.015 0.079-0.027 0.117l-0.011 0.029c-0.020 0.064 0.044-0.090 0.024-0.053-0.009 0.020-0.018 0.040-0.029 0.059s-0.022 0.040-0.035 0.059c-0.008 0.009-0.014 0.019-0.020 0.029-0.024 0.038 0.068-0.082 0.037-0.046s-0.080 0.090-0.124 0.132l-0.064 0.059c-0.046 0.038 0.037-0.026 0.038-0.031-0.009 0.010-0.019 0.018-0.031 0.024-0.042 0.030-0.086 0.056-0.132 0.080l-0.033 0.015c-0.049 0.027 0.051-0.022 0.055-0.022s-0.053 0.020-0.073 0.026c-0.045 0.014-0.092 0.024-0.139 0.031l0.117-0.015c-0.079 0.009-0.159 0.009-0.238 0l0.117 0.015c-0.052-0.007-0.102-0.019-0.152-0.035-0.046-0.015-0.112-0.060 0.018 0.013l-0.070-0.042c-0.043-0.023-0.083-0.048-0.123-0.077-0.042-0.027 0.091 0.077 0.046 0.035l-0.029-0.024c-0.018-0.018-0.038-0.035-0.055-0.053-0.017-0.016-0.033-0.033-0.048-0.051-0.007-0.010-0.015-0.020-0.024-0.029-0.031-0.037 0.071 0.099 0.037 0.046-0.028-0.041-0.055-0.084-0.079-0.128-0.022-0.044-0.035-0.119 0 0.022 0-0.024-0.018-0.046-0.026-0.069-0.015-0.047-0.026-0.096-0.033-0.144l0.016 0.115c-0.009-0.073-0.009-0.148 0-0.221l-0.015 0.117c0.004-0.035 0.011-0.069 0.022-0.102 0-0.015 0-0.029 0.013-0.044 0.031-0.086-0.035 0.075-0.016 0.040s0.031-0.062 0.049-0.091l0.027-0.042c0.038-0.057-0.082 0.099-0.015 0.022 0.080-0.083 0.125-0.194 0.128-0.309 0-0.086-0.027-0.171-0.075-0.242s-0.117-0.128-0.197-0.161c-0.080-0.033-0.168-0.042-0.253-0.025s-0.163 0.058-0.224 0.119l0.007 0.004z"></path>
<path fill="#fff" style="fill: var(--color3, #fff)" d="M11.802 14.619c-0.201 0.223-0.318 0.509-0.329 0.808-0.003 0.259 0.068 0.513 0.207 0.732 0.137 0.221 0.329 0.401 0.558 0.525 0.267 0.138 0.571 0.186 0.867 0.137 0.297-0.057 0.569-0.204 0.779-0.421 0.233-0.218 0.38-0.513 0.415-0.83 0.010-0.257-0.053-0.512-0.183-0.734s-0.32-0.403-0.549-0.521c-0.288-0.157-0.62-0.215-0.944-0.165-0.321 0.057-0.613 0.223-0.827 0.47-0.082 0.083-0.127 0.195-0.126 0.311s0.048 0.228 0.131 0.309c0.083 0.082 0.195 0.127 0.311 0.126s0.228-0.048 0.309-0.131c0.046-0.049 0.093-0.095 0.144-0.141l-0.042 0.035c0.012-0.010 0.025-0.019 0.038-0.027 0.025-0.017 0.050-0.033 0.077-0.048l0.071-0.035c-0.135 0.069-0.053 0.022-0.009 0.009 0.052-0.018 0.105-0.030 0.159-0.037l-0.115 0.016c0.084-0.011 0.169-0.011 0.252 0l-0.115-0.011c0.052 0.007 0.102 0.019 0.152 0.035l0.075 0.026c0.051 0.018-0.064-0.027-0.062-0.027l0.042 0.020c0.044 0.022 0.087 0.046 0.128 0.073l0.031 0.024c0.051 0.035-0.082-0.069-0.046-0.037l0.057 0.049c0.035 0.035 0.066 0.071 0.099 0.106-0.102-0.11-0.042-0.055-0.016-0.016s0.027 0.042 0.040 0.064c0.013 0.022 0.022 0.044 0.033 0.066s-0.031-0.066-0.027-0.066c0.006 0.014 0.011 0.028 0.015 0.042 0.016 0.046 0.028 0.093 0.035 0.141l-0.016-0.117c0.009 0.068 0.009 0.137 0 0.205l0.015-0.115c-0.005 0.040-0.015 0.079-0.027 0.117-0.002 0.010-0.005 0.020-0.009 0.029-0.020 0.064 0.042-0.090 0.022-0.053-0.009 0.020-0.018 0.040-0.029 0.059s-0.022 0.040-0.035 0.059l-0.020 0.029c-0.024 0.038 0.068-0.082 0.037-0.046s-0.080 0.090-0.124 0.132l-0.064 0.059c-0.046 0.038 0.037-0.026 0.040-0.031-0.010 0.009-0.021 0.018-0.033 0.024-0.042 0.029-0.085 0.056-0.13 0.080l-0.033 0.015c-0.051 0.027 0.051-0.022 0.055-0.022s-0.055 0.020-0.075 0.026c-0.045 0.014-0.091 0.024-0.137 0.031l0.115-0.015c-0.079 0.009-0.159 0.009-0.238 0l0.117 0.015c-0.051-0.007-0.101-0.019-0.15-0.035-0.046-0.015-0.113-0.060 0.018 0.013l-0.069-0.042c-0.042-0.023-0.083-0.049-0.123-0.077s0.093 0.077 0.046 0.035l-0.029-0.024-0.055-0.053c-0.016-0.016-0.031-0.033-0.046-0.051l-0.018-0.026c-0.031-0.037 0.071 0.099 0.037 0.046-0.028-0.041-0.055-0.084-0.079-0.128-0.022-0.044-0.035-0.119 0 0.022 0-0.024-0.018-0.046-0.026-0.069-0.014-0.047-0.024-0.096-0.031-0.144l0.015 0.115c-0.009-0.073-0.009-0.148 0-0.221l-0.015 0.117c0.005-0.035 0.013-0.069 0.022-0.102 0.004-0.015 0.009-0.030 0.015-0.044 0.029-0.086-0.037 0.075-0.018 0.040s0.031-0.062 0.049-0.091l0.027-0.042c0.038-0.057-0.080 0.099-0.015 0.022 0.080-0.083 0.125-0.194 0.128-0.309-0.001-0.086-0.027-0.171-0.075-0.242s-0.117-0.128-0.197-0.161c-0.080-0.033-0.168-0.042-0.253-0.025s-0.163 0.058-0.224 0.119z"></path>
<path fill="#fff" style="fill: var(--color3, #fff)" d="M15.103 15.972c1.097-0.035 2.205 0 3.308 0 0.563 0 0.565-0.876 0-0.876-1.097 0-2.205-0.033-3.308 0-0.060-0.004-0.12 0.005-0.176 0.025s-0.108 0.052-0.152 0.093c-0.044 0.041-0.079 0.091-0.103 0.146s-0.036 0.114-0.036 0.174c0 0.060 0.012 0.119 0.036 0.174s0.059 0.105 0.103 0.146c0.044 0.041 0.096 0.073 0.152 0.093s0.117 0.029 0.176 0.025z"></path>
<path fill="#fff" style="fill: var(--color3, #fff)" d="M22.612 14.163c0.019-0.584-0.182-1.153-0.563-1.596-0.357-0.357-0.812-0.601-1.308-0.7-0.978-0.232-1.984-0.128-2.975-0.208l-0.15-0.013c-0.11-0.011 0.070 0.015-0.055-0.009-0.090-0.016-0.183-0.035-0.263-0.059-0.035-0.011-0.15-0.068-0.026 0-0.027-0.016-0.052-0.034-0.077-0.053-0.013-0.006-0.025-0.014-0.037-0.022 0.077 0.051-0.016-0.018-0.033-0.035-0.066-0.064-0.134-0.126-0.199-0.194-0.459-0.472-0.865-1.050-1.487-1.322-0.354-0.153-0.746-0.193-1.123-0.115-0.329 0.090-0.647 0.22-0.945 0.386-0.532 0.245-1.081 0.455-1.595 0.732-0.549 0.3-1.097 0.706-1.366 1.295-0.342 0.761-0.15 1.565 0.183 2.293 0.060 0.099 0.156 0.171 0.268 0.201s0.231 0.014 0.332-0.043c0.095-0.061 0.163-0.156 0.191-0.266s0.013-0.226-0.041-0.325c-0.128-0.268-0.212-0.555-0.249-0.85 0-0.064 0-0.128 0-0.192 0-0.029 0.016-0.172 0-0.106 0.009-0.057 0.022-0.113 0.037-0.168 0-0.033 0.071-0.192 0.042-0.13 0.183-0.404 0.503-0.638 0.914-0.874 0.487-0.261 0.986-0.496 1.498-0.704 0.481-0.214 0.962-0.54 1.463-0.344 0.225 0.11 0.427 0.262 0.594 0.448 0.219 0.225 0.421 0.466 0.638 0.691 0.281 0.328 0.67 0.544 1.097 0.609 0.896 0.137 1.81 0.042 2.71 0.144 0.011 0 0.097 0.015 0.044 0s0.055 0.009 0.064 0.011c0.068 0.011 0.134 0.022 0.199 0.037 0.116 0.023 0.231 0.053 0.344 0.088 0.062 0.018 0.121 0.040 0.183 0.062 0.016 0 0.077 0.035 0 0l0.084 0.038c0.104 0.052 0.202 0.113 0.294 0.183-0.075-0.057 0.044 0.040 0.062 0.059 0.044 0.041 0.085 0.084 0.123 0.13-0.038-0.057 0.042 0.049 0 0 0.018 0.024 0.035 0.049 0.051 0.075 0.034 0.053 0.065 0.109 0.091 0.166 0 0.015 0.029 0.075 0 0l0.033 0.095c0.020 0.060 0.035 0.123 0.049 0.183 0.027 0.132 0.039 0.267 0.035 0.402 0 0.563 0.881 0.563 0.876 0l-0.009 0.002z"></path>
</symbol>
<symbol id="svg-whyus_development" viewBox="0 0 33 32">
<path fill="#fff" style="fill: var(--color3, #fff)" d="M10.385 18.971c1.618-0.335 3.252-0.759 4.905-0.856 0.318-0.025 0.637-0.021 0.955 0.013-0.099-0.013 0.091 0.016 0.121 0.024 0.060 0.013 0.119 0.031 0.183 0.048 0.108 0.033-0.033-0.035 0.059 0.026l0.048 0.027c0.106 0.051-0.042-0.031 0.013 0.009l0.035 0.035 0.016 0.018c-0.044-0.059-0.053-0.068-0.029-0.031 0.055 0.101-0.015-0.086 0 0.029s0-0.112 0-0.016c0.003 0.019 0.003 0.038 0 0.057-0.027 0 0.073-0.157 0 0 0.024-0.053 0.027-0.064 0.013-0.035l-0.022 0.040c-0.079 0.071 0.068-0.066-0.013 0.013l-0.049 0.049c-0.011 0.011-0.102 0.079-0.026 0.024l-0.082 0.053c-0.059 0.037-0.12 0.070-0.183 0.101-0.059 0.032-0.12 0.059-0.183 0.080-0.374 0.13-0.759 0.226-1.15 0.287-0.183 0.031-0.229 0.037-0.443 0.057-0.128 0.013-0.256 0.022-0.384 0.022-0.563 0-0.563 0.88 0 0.876 0.713-0.012 1.42-0.136 2.096-0.366 0.642-0.214 1.522-0.68 1.28-1.507-0.192-0.668-0.984-0.801-1.576-0.827-0.894-0.005-1.786 0.084-2.661 0.265-1.053 0.183-2.096 0.417-3.142 0.633-0.549 0.113-0.318 0.958 0.232 0.845l-0.011 0.007z"></path>
<path fill="#fff" style="fill: var(--color3, #fff)" d="M10.003 21.337c1.618 0.51 3.31 0.753 4.996 0.479 1.169-0.183 2.248-0.66 3.358-1.053 0.519-0.192 1.054-0.335 1.598-0.43 0.043-0.008 0.086-0.015 0.13-0.018 0.062 0 0.123-0.013 0.183-0.016 0.207-0.016 0.411-0.031 0.616-0.062 0.337-0.047 0.663-0.148 0.967-0.3 0.448-0.23 0.872-0.655 0.891-1.187 0.022-0.569-0.422-0.96-0.914-1.145-0.585-0.216-1.223-0.163-1.829-0.104l-1.426 0.141c-0.115 0.003-0.224 0.050-0.305 0.132s-0.128 0.191-0.132 0.305c0 0.116 0.047 0.227 0.128 0.309s0.193 0.129 0.309 0.13l1.137-0.112c0.462-0.067 0.929-0.090 1.395-0.070 0.118 0.010 0.235 0.033 0.349 0.068 0.027 0 0.15 0.048 0.128 0.038s0.027 0.013 0.037 0.018l0.097 0.053 0.059 0.037c0.053 0.033-0.055-0.049-0.011 0s0.066 0.064 0.095 0.099c-0.060-0.069-0.011-0.015 0 0.027s0-0.024-0.011-0.031c0.009 0.024 0.016 0.049 0.020 0.075 0.018-0.009-0.033 0.183 0-0.038 0 0 0 0.038 0 0.051 0.003 0.018 0.003 0.035 0 0.053 0.013-0.192 0.011-0.038 0-0.038s-0.070 0.15-0.009 0.040c-0.022 0.040-0.044 0.079-0.068 0.117-0.055 0.086 0.044-0.046 0 0-0.016 0.016-0.029 0.035-0.046 0.049s-0.077 0.075-0.119 0.108c0.071-0.057-0.051 0.033-0.069 0.044-0.059 0.038-0.12 0.072-0.183 0.102-0.034 0.018-0.069 0.034-0.106 0.046-0.062 0.022-0.124 0.044-0.183 0.062-0.139 0.040-0.281 0.070-0.424 0.090-0.318 0.042-0.636 0.051-0.955 0.101-0.498 0.086-0.988 0.216-1.463 0.39-1.031 0.338-2.017 0.772-3.072 1-1.628 0.344-3.332 0.102-4.938-0.402-0.536-0.17-0.768 0.675-0.23 0.843z"></path>
<path fill="#fff" style="fill: var(--color3, #fff)" d="M19.426 14.619c-0.201 0.223-0.318 0.509-0.329 0.808-0.003 0.259 0.068 0.513 0.207 0.732 0.134 0.22 0.323 0.4 0.549 0.525 0.267 0.138 0.572 0.186 0.869 0.137 0.297-0.057 0.569-0.204 0.779-0.421 0.233-0.218 0.379-0.513 0.413-0.83 0.010-0.257-0.054-0.511-0.183-0.734s-0.32-0.403-0.548-0.521c-0.288-0.157-0.62-0.215-0.944-0.165-0.321 0.057-0.613 0.223-0.827 0.47-0.082 0.082-0.128 0.194-0.128 0.31s0.046 0.227 0.129 0.309c0.082 0.082 0.194 0.128 0.31 0.128s0.227-0.046 0.309-0.129c0.045-0.050 0.094-0.097 0.144-0.141 0.046-0.038-0.042 0.037-0.044 0.035l0.038-0.027c0.026-0.016 0.051-0.033 0.079-0.048l0.069-0.035c-0.134 0.069-0.051 0.022 0 0.009 0.055-0.017 0.111-0.028 0.168-0.033l-0.117 0.016c0.084-0.011 0.17-0.011 0.254 0l-0.119-0.016c0.052 0.007 0.104 0.018 0.154 0.035l0.073 0.026c0.053 0.018-0.062-0.027-0.060-0.027 0.014 0.007 0.028 0.014 0.042 0.020 0.044 0.021 0.086 0.046 0.126 0.073l0.031 0.024c0.051 0.035-0.082-0.069-0.046-0.037l0.059 0.049c0.035 0.035 0.064 0.071 0.097 0.106-0.102-0.11-0.040-0.055-0.015-0.016 0.015 0.020 0.027 0.042 0.038 0.064 0.013 0.020 0.022 0.044 0.033 0.066s-0.029-0.066-0.026-0.066c0.004 0 0.013 0.040 0.015 0.042 0.015 0.046 0.026 0.093 0.033 0.141l-0.015-0.117c0.008 0.068 0.008 0.137 0 0.205l0.016-0.115c-0.005 0.040-0.015 0.079-0.027 0.117l-0.011 0.029c-0.020 0.064 0.044-0.090 0.024-0.053-0.009 0.020-0.018 0.040-0.029 0.059s-0.022 0.040-0.035 0.059c-0.008 0.009-0.014 0.019-0.020 0.029-0.024 0.038 0.068-0.082 0.037-0.046s-0.080 0.090-0.124 0.132l-0.064 0.059c-0.046 0.038 0.037-0.026 0.038-0.031-0.009 0.010-0.019 0.018-0.031 0.024-0.042 0.030-0.086 0.056-0.132 0.080l-0.033 0.015c-0.049 0.027 0.051-0.022 0.055-0.022s-0.053 0.020-0.073 0.026c-0.045 0.014-0.092 0.024-0.139 0.031l0.117-0.015c-0.079 0.009-0.159 0.009-0.238 0l0.117 0.015c-0.052-0.007-0.102-0.019-0.152-0.035-0.046-0.015-0.112-0.060 0.018 0.013l-0.070-0.042c-0.043-0.023-0.083-0.048-0.123-0.077-0.042-0.027 0.091 0.077 0.046 0.035l-0.029-0.024c-0.018-0.018-0.038-0.035-0.055-0.053-0.017-0.016-0.033-0.033-0.048-0.051-0.007-0.010-0.015-0.020-0.024-0.029-0.031-0.037 0.071 0.099 0.037 0.046-0.028-0.041-0.055-0.084-0.079-0.128-0.022-0.044-0.035-0.119 0 0.022 0-0.024-0.018-0.046-0.026-0.069-0.015-0.047-0.026-0.096-0.033-0.144l0.016 0.115c-0.009-0.073-0.009-0.148 0-0.221l-0.015 0.117c0.004-0.035 0.011-0.069 0.022-0.102 0-0.015 0-0.029 0.013-0.044 0.031-0.086-0.035 0.075-0.016 0.040s0.031-0.062 0.049-0.091l0.027-0.042c0.038-0.057-0.082 0.099-0.015 0.022 0.080-0.083 0.125-0.194 0.128-0.309 0-0.086-0.027-0.171-0.075-0.242s-0.117-0.128-0.197-0.161c-0.080-0.033-0.168-0.042-0.253-0.025s-0.163 0.058-0.224 0.119l0.007 0.004z"></path>
<path fill="#fff" style="fill: var(--color3, #fff)" d="M11.802 14.619c-0.201 0.223-0.318 0.509-0.329 0.808-0.003 0.259 0.068 0.513 0.207 0.732 0.137 0.221 0.329 0.401 0.558 0.525 0.267 0.138 0.571 0.186 0.867 0.137 0.297-0.057 0.569-0.204 0.779-0.421 0.233-0.218 0.38-0.513 0.415-0.83 0.010-0.257-0.053-0.512-0.183-0.734s-0.32-0.403-0.549-0.521c-0.288-0.157-0.62-0.215-0.944-0.165-0.321 0.057-0.613 0.223-0.827 0.47-0.082 0.083-0.127 0.195-0.126 0.311s0.048 0.228 0.131 0.309c0.083 0.082 0.195 0.127 0.311 0.126s0.228-0.048 0.309-0.131c0.046-0.049 0.093-0.095 0.144-0.141l-0.042 0.035c0.012-0.010 0.025-0.019 0.038-0.027 0.025-0.017 0.050-0.033 0.077-0.048l0.071-0.035c-0.135 0.069-0.053 0.022-0.009 0.009 0.052-0.018 0.105-0.030 0.159-0.037l-0.115 0.016c0.084-0.011 0.169-0.011 0.252 0l-0.115-0.011c0.052 0.007 0.102 0.019 0.152 0.035l0.075 0.026c0.051 0.018-0.064-0.027-0.062-0.027l0.042 0.020c0.044 0.022 0.087 0.046 0.128 0.073l0.031 0.024c0.051 0.035-0.082-0.069-0.046-0.037l0.057 0.049c0.035 0.035 0.066 0.071 0.099 0.106-0.102-0.11-0.042-0.055-0.016-0.016s0.027 0.042 0.040 0.064c0.013 0.022 0.022 0.044 0.033 0.066s-0.031-0.066-0.027-0.066c0.006 0.014 0.011 0.028 0.015 0.042 0.016 0.046 0.028 0.093 0.035 0.141l-0.016-0.117c0.009 0.068 0.009 0.137 0 0.205l0.015-0.115c-0.005 0.040-0.015 0.079-0.027 0.117-0.002 0.010-0.005 0.020-0.009 0.029-0.020 0.064 0.042-0.090 0.022-0.053-0.009 0.020-0.018 0.040-0.029 0.059s-0.022 0.040-0.035 0.059l-0.020 0.029c-0.024 0.038 0.068-0.082 0.037-0.046s-0.080 0.090-0.124 0.132l-0.064 0.059c-0.046 0.038 0.037-0.026 0.040-0.031-0.010 0.009-0.021 0.018-0.033 0.024-0.042 0.029-0.085 0.056-0.13 0.080l-0.033 0.015c-0.051 0.027 0.051-0.022 0.055-0.022s-0.055 0.020-0.075 0.026c-0.045 0.014-0.091 0.024-0.137 0.031l0.115-0.015c-0.079 0.009-0.159 0.009-0.238 0l0.117 0.015c-0.051-0.007-0.101-0.019-0.15-0.035-0.046-0.015-0.113-0.060 0.018 0.013l-0.069-0.042c-0.042-0.023-0.083-0.049-0.123-0.077s0.093 0.077 0.046 0.035l-0.029-0.024-0.055-0.053c-0.016-0.016-0.031-0.033-0.046-0.051l-0.018-0.026c-0.031-0.037 0.071 0.099 0.037 0.046-0.028-0.041-0.055-0.084-0.079-0.128-0.022-0.044-0.035-0.119 0 0.022 0-0.024-0.018-0.046-0.026-0.069-0.014-0.047-0.024-0.096-0.031-0.144l0.015 0.115c-0.009-0.073-0.009-0.148 0-0.221l-0.015 0.117c0.005-0.035 0.013-0.069 0.022-0.102 0.004-0.015 0.009-0.030 0.015-0.044 0.029-0.086-0.037 0.075-0.018 0.040s0.031-0.062 0.049-0.091l0.027-0.042c0.038-0.057-0.080 0.099-0.015 0.022 0.080-0.083 0.125-0.194 0.128-0.309-0.001-0.086-0.027-0.171-0.075-0.242s-0.117-0.128-0.197-0.161c-0.080-0.033-0.168-0.042-0.253-0.025s-0.163 0.058-0.224 0.119z"></path>
<path fill="#fff" style="fill: var(--color3, #fff)" d="M15.103 15.972c1.097-0.035 2.205 0 3.308 0 0.563 0 0.565-0.876 0-0.876-1.097 0-2.205-0.033-3.308 0-0.060-0.004-0.12 0.005-0.176 0.025s-0.108 0.052-0.152 0.093c-0.044 0.041-0.079 0.091-0.103 0.146s-0.036 0.114-0.036 0.174c0 0.060 0.012 0.119 0.036 0.174s0.059 0.105 0.103 0.146c0.044 0.041 0.096 0.073 0.152 0.093s0.117 0.029 0.176 0.025z"></path>
<path fill="#fff" style="fill: var(--color3, #fff)" d="M22.612 14.163c0.019-0.584-0.182-1.153-0.563-1.596-0.357-0.357-0.812-0.601-1.308-0.7-0.978-0.232-1.984-0.128-2.975-0.208l-0.15-0.013c-0.11-0.011 0.070 0.015-0.055-0.009-0.090-0.016-0.183-0.035-0.263-0.059-0.035-0.011-0.15-0.068-0.026 0-0.027-0.016-0.052-0.034-0.077-0.053-0.013-0.006-0.025-0.014-0.037-0.022 0.077 0.051-0.016-0.018-0.033-0.035-0.066-0.064-0.134-0.126-0.199-0.194-0.459-0.472-0.865-1.050-1.487-1.322-0.354-0.153-0.746-0.193-1.123-0.115-0.329 0.090-0.647 0.22-0.945 0.386-0.532 0.245-1.081 0.455-1.595 0.732-0.549 0.3-1.097 0.706-1.366 1.295-0.342 0.761-0.15 1.565 0.183 2.293 0.060 0.099 0.156 0.171 0.268 0.201s0.231 0.014 0.332-0.043c0.095-0.061 0.163-0.156 0.191-0.266s0.013-0.226-0.041-0.325c-0.128-0.268-0.212-0.555-0.249-0.85 0-0.064 0-0.128 0-0.192 0-0.029 0.016-0.172 0-0.106 0.009-0.057 0.022-0.113 0.037-0.168 0-0.033 0.071-0.192 0.042-0.13 0.183-0.404 0.503-0.638 0.914-0.874 0.487-0.261 0.986-0.496 1.498-0.704 0.481-0.214 0.962-0.54 1.463-0.344 0.225 0.11 0.427 0.262 0.594 0.448 0.219 0.225 0.421 0.466 0.638 0.691 0.281 0.328 0.67 0.544 1.097 0.609 0.896 0.137 1.81 0.042 2.71 0.144 0.011 0 0.097 0.015 0.044 0s0.055 0.009 0.064 0.011c0.068 0.011 0.134 0.022 0.199 0.037 0.116 0.023 0.231 0.053 0.344 0.088 0.062 0.018 0.121 0.040 0.183 0.062 0.016 0 0.077 0.035 0 0l0.084 0.038c0.104 0.052 0.202 0.113 0.294 0.183-0.075-0.057 0.044 0.040 0.062 0.059 0.044 0.041 0.085 0.084 0.123 0.13-0.038-0.057 0.042 0.049 0 0 0.018 0.024 0.035 0.049 0.051 0.075 0.034 0.053 0.065 0.109 0.091 0.166 0 0.015 0.029 0.075 0 0l0.033 0.095c0.020 0.060 0.035 0.123 0.049 0.183 0.027 0.132 0.039 0.267 0.035 0.402 0 0.563 0.881 0.563 0.876 0l-0.009 0.002z"></path>
<path fill="#46409c" style="fill: var(--color10, #46409c)" d="M29.575 19.893c-0.628 2.976-3.314 4.935-5.575 6.353-3.221 2.019-6.67 3.534-10.909 2.64-3.168-0.668-5.583-4.159-7.449-6.512-2.384-3.006-3.714-5.261-2.86-9.309 0.725-3.438 3.663-5.249 6.326-7.124 2.926-2.061 5.717-3.982 9.495-3.185 3.685 0.777 5.612 3.298 7.625 6.796 1.929 3.352 4.093 6.81 3.348 10.341z"></path>
<path fill="#fff" style="fill: var(--color3, #fff)" d="M9.65 18.195c0.088 0.963-0.299 1.952 0.121 2.88 0.098 0.239 0.27 0.441 0.49 0.576 0.324 0.153 0.683 0.216 1.040 0.183 0.719-0.026 1.431-0.011 2.15 0 0.367 0 0.734 0 1.101-0.029 0.183-0.015 0.352-0.037 0.526-0.064 0.19-0.010 0.376-0.054 0.55-0.128 0.26-0.152 0.383-0.589 0.433-0.868 0.052-0.311 0.069-0.626 0.053-0.941-0.009-0.292-0.033-0.585-0.031-0.877 0.027-0.279 0.040-0.56 0.038-0.84-0.023-0.285-0.109-0.562-0.254-0.809s-0.343-0.458-0.581-0.618c-0.273-0.174-0.593-0.261-0.917-0.249-0.418 0.015-0.84 0-1.26-0.009l-2.605-0.033c-0.565 0-0.565 0.871 0 0.879l2.605 0.033c0.431 0 0.862 0.013 1.284 0.009 0.111-0.002 0.22 0.021 0.321 0.066s0.191 0.111 0.264 0.195c0.402 0.446 0.2 1.046 0.215 1.583 0.017 0.609 0.165 1.334-0.183 1.878l0.262-0.202c-0.752 0.183-1.528 0.156-2.295 0.136-0.394 0-0.789-0.022-1.183-0.013-0.316 0-0.783 0.116-1.079-0.037-0.154-0.079-0.2-0.282-0.238-0.46-0.039-0.242-0.050-0.489-0.033-0.734 0.022-0.501 0.125-1.009 0.079-1.51-0.002-0.116-0.049-0.226-0.131-0.307s-0.192-0.129-0.307-0.131c-0.116 0-0.228 0.047-0.31 0.129s-0.129 0.193-0.13 0.31l0.005 0.004z"></path>
<path fill="#fff" style="fill: var(--color3, #fff)" d="M17.009 17.813c0 0.402-0.079 0.805-0.11 1.207-0.058 0.545-0.039 1.096 0.055 1.636 0.101 0.49 0.378 0.97 0.89 1.101 0.131 0.032 0.267 0.043 0.402 0.035 0.275 0 0.55 0 0.827 0.018 0.506 0.026 1.011 0.073 1.519 0.086 0.511 0.021 1.022-0.017 1.524-0.114 0.116-0.019 0.226-0.064 0.321-0.132s0.174-0.157 0.229-0.261c0.091-0.151 0.162-0.312 0.213-0.481 0.229-0.721 0.169-1.521 0.134-2.264-0.027-0.578 0.055-1.203-0.422-1.627s-1.117-0.51-1.706-0.572c-0.726-0.053-1.455-0.065-2.183-0.035-0.38 0-0.758-0.017-1.090 0.202-0.192 0.136-0.348 0.317-0.453 0.528s-0.157 0.444-0.151 0.679c-0.015 0.565 0.864 0.565 0.879 0 0-0.257 0.103-0.475 0.33-0.521 0.253-0.026 0.509-0.031 0.763-0.013 0.614-0.019 1.228-0.005 1.84 0.042 0.251 0.024 0.5 0.070 0.743 0.139 0.050 0.015 0.099 0.031 0.147 0.050 0.083 0.029 0.031 0.011 0.013 0l0.073 0.033c0.046 0.024 0.090 0.050 0.134 0.077 0.021 0.013 0.042 0.027 0.062 0.042-0.081-0.061 0 0.015 0.018 0.024 0.016 0.016 0.032 0.033 0.046 0.051-0.061-0.064-0.009-0.013 0 0 0.013 0.018 0.024 0.038 0.033 0.059 0-0.015-0.027-0.090 0-0.013 0.009 0.033 0.029 0.158 0.020 0.057 0 0.068 0 0.136 0 0.204 0 0.328 0.027 0.655 0.040 0.983 0.026 0.402 0.018 0.805-0.022 1.205-0.019 0.281-0.112 0.552-0.27 0.785l0.183-0.114c-0.805 0.183-1.638 0.121-2.454 0.064-0.407-0.027-0.813-0.053-1.22-0.051-0.083 0-0.165 0-0.248 0-0.050 0-0.094-0.018-0.018 0-0.015 0-0.127-0.042-0.068-0.017s-0.101-0.068-0.035-0.018c0.066 0.050-0.031-0.035-0.046-0.048-0.050-0.046 0.029 0.062-0.017-0.022l-0.057-0.103c0-0.017-0.033-0.075 0 0.011-0.010-0.022-0.018-0.045-0.024-0.068-0.028-0.085-0.051-0.171-0.070-0.259 0-0.022-0.024-0.139-0.018-0.105s0-0.095-0.013-0.13c-0.029-0.428-0.021-0.858 0.024-1.284 0.031-0.356 0.095-0.717 0.099-1.075 0.007-0.561-0.864-0.561-0.869 0.006z"></path>
<path fill="#fff" style="fill: var(--color3, #fff)" d="M13.031 10.436c0 0.644-0.090 1.284-0.123 1.93-0.037 0.725-0.073 1.53 0.169 2.225 0.090 0.322 0.291 0.603 0.567 0.792 0.338 0.204 0.734 0.147 1.101 0.163 1.013 0.040 2.038 0.226 3.052 0.152 0.367-0.026 0.802-0.079 1.082-0.349 0.22-0.256 0.361-0.57 0.407-0.904 0.172-0.9 0.234-1.817 0.183-2.731-0.011-0.336 0.009-0.734-0.152-1.047-0.129-0.227-0.325-0.408-0.561-0.519-0.578-0.286-1.264-0.339-1.898-0.367-1.177-0.031-2.354 0.046-3.516 0.229-0.112 0.031-0.207 0.106-0.264 0.207s-0.073 0.221-0.042 0.333c0.034 0.111 0.109 0.204 0.209 0.261s0.219 0.073 0.332 0.045h0.117c-0.183 0.027-0.042 0 0 0 0.196-0.024 0.393-0.048 0.589-0.068 0.604-0.062 1.209-0.106 1.814-0.117 0.325 0 0.651 0 0.976 0.017 0.147 0 0.293 0.020 0.438 0.037h0.042l0.077 0.011 0.24 0.046c0.117 0.025 0.233 0.057 0.347 0.095l0.088 0.035c-0.097-0.039-0.042-0.020-0.020-0.009 0.059 0.029 0.114 0.062 0.171 0.095 0.095 0.051-0.038-0.057 0.031 0.024 0.026 0.029 0.103 0.136 0.026 0.018 0.011 0.018 0.022 0.040 0.035 0.059 0.044 0.059-0.020-0.048-0.017-0.044 0.011 0.020 0.018 0.042 0.020 0.064 0.009 0.046 0.009 0.031 0-0.048 0 0.028 0 0.055 0.009 0.081 0.064 0.802 0.056 1.608-0.024 2.408-0.025 0.337-0.086 0.669-0.183 0.992 0 0.024-0.017 0.048-0.026 0.072-0.040 0.11 0.044-0.075 0 0.022-0.015 0.026-0.031 0.051-0.044 0.079s-0.018-0.018 0.020-0.024c0.038-0.005-0.147 0.108 0.022 0l-0.070 0.042c-0.024 0.011-0.094 0.035-0.011 0-0.050 0.018-0.102 0.033-0.154 0.044-0.372 0.058-0.751 0.071-1.126 0.039-0.495-0.024-0.987-0.070-1.48-0.108-0.437-0.033-0.873-0.050-1.31-0.053-0.083 0 0.017 0 0.026 0-0.029-0.003-0.058-0.011-0.084-0.024 0.121 0.050-0.013-0.011-0.044-0.031 0.105 0.064-0.027-0.035-0.057-0.070 0.075 0.090-0.027-0.061-0.048-0.095 0 0-0.046-0.103-0.020-0.040s-0.024-0.070-0.027-0.081c-0.024-0.073-0.042-0.147-0.059-0.222s-0.033-0.161-0.044-0.244c0.013 0.094 0-0.050 0-0.055 0-0.053-0.011-0.105-0.015-0.156-0.024-0.394-0.024-0.789 0-1.183 0.029-0.673 0.132-1.35 0.127-2.018-0.024-0.574-0.902-0.574-0.897-0.009z"></path>
</symbol>
<symbol id="svg-whyus_free" viewBox="0 0 33 32">
<path fill="#46409c" style="fill: var(--color10, #46409c)" d="M29.575 19.955c-0.628 2.976-3.314 4.935-5.575 6.353-3.221 2.019-6.67 3.534-10.909 2.64-3.168-0.668-5.583-4.16-7.449-6.512-2.384-3.006-3.714-5.261-2.86-9.309 0.725-3.438 3.663-5.249 6.326-7.124 2.926-2.061 5.717-3.982 9.495-3.185 3.685 0.777 5.612 3.298 7.625 6.796 1.929 3.352 4.093 6.81 3.348 10.341z"></path>
<path fill="#fff" style="fill: var(--color3, #fff)" d="M12.601 18.997c0 0-0.078-0.045-0.028-0.013s-0.033-0.028-0.035-0.031c-0.038-0.035-0.073-0.072-0.106-0.112-0.081-0.101-0.149-0.212-0.201-0.33-0.035-0.080-0.050-0.167-0.043-0.254 0 0.078 0.031-0.021 0 0s0.038-0.033 0.038-0.033c0.043-0.059 0 0-0.008 0.008 0.017-0.020 0.040-0.038 0.056-0.059 0.046-0.064-0.050 0.028-0.010 0 0.018-0.010 0.036-0.021 0.053-0.033 0.040-0.030-0.073 0.013 0.017 0s-0.073-0.010 0.040 0h0.050c-0.073-0.025 0.078 0 0 0l0.134 0.036c0.018 0 0.036 0.013 0.054 0.020-0.081-0.031-0.030-0.013-0.012 0 0.098 0.049 0.193 0.104 0.284 0.165 0.074 0.048 0.143 0.104 0.206 0.165 0.099 0.084 0.193 0.173 0.284 0.266 0.162 0.168 0.314 0.346 0.455 0.531 0.139 0.184 0.265 0.378 0.378 0.579 0.046 0.084 0.087 0.165 0.127 0.256-0.045-0.097 0.015 0.040 0.023 0.061s0.025 0.078 0.035 0.117c0.147 0.573 0.302 1.155 0.644 1.639 0.055 0.089 0.141 0.153 0.242 0.18s0.208 0.013 0.299-0.038c0.090-0.053 0.155-0.14 0.181-0.241s0.012-0.208-0.040-0.299c-0.112-0.166-0.208-0.341-0.287-0.525-0.119-0.324-0.218-0.654-0.297-0.99-0.184-0.507-0.459-0.975-0.812-1.383-0.338-0.46-0.767-0.845-1.261-1.132-0.459-0.241-1.033-0.3-1.408 0.129-0.13 0.148-0.215 0.33-0.244 0.525s-0.002 0.394 0.079 0.574c0.135 0.343 0.373 0.729 0.71 0.911 0.447 0.241 0.847-0.441 0.399-0.683l0.003-0.005z"></path>
<path fill="#fff" style="fill: var(--color3, #fff)" d="M11.77 17.020c-0.137-0.553-0.193-1.294-0.736-1.607-0.739-0.426-1.563 0.281-1.475 1.063 0.031 0.285 0.104 0.569 0.145 0.855 0.035 0.267 0.087 0.532 0.155 0.792 0.21 0.72 0.609 1.372 1.155 1.886 0.473 0.441 0.99 0.832 1.543 1.168 0.235 0.154 0.449 0.338 0.637 0.546 0.066 0.073 0.13 0.147 0.191 0.224-0.063-0.079 0 0 0.020 0.026 0.055 0.089 0.142 0.153 0.242 0.179s0.208 0.013 0.299-0.037c0.089-0.054 0.154-0.14 0.181-0.241s0.013-0.208-0.039-0.299c-0.181-0.256-0.391-0.49-0.625-0.698-0.403-0.356-0.886-0.606-1.32-0.932-0.593-0.417-1.072-0.975-1.394-1.624-0.051-0.111 0.026 0.071-0.018-0.041-0.008-0.023-0.018-0.046-0.026-0.068-0.025-0.068-0.046-0.134-0.068-0.201-0.036-0.119-0.066-0.238-0.092-0.358-0.050-0.238-0.081-0.479-0.117-0.718s-0.124-0.474-0.096-0.66c-0.013 0.091 0.063-0.134 0.017-0.045 0.014-0.030 0.032-0.059 0.053-0.086-0.054 0.071 0.013-0.010 0.025-0.018-0.102 0.064 0.135-0.063 0.015-0.013 0.029-0.012 0.059-0.021 0.089-0.028 0.086-0.025-0.064 0 0.018 0h0.030c0.021 0.004 0.041 0.009 0.061 0.017-0.046-0.021-0.045-0.020 0 0 0.020 0.010 0.038 0.022 0.056 0.035-0.087-0.064 0.066 0.084 0.010 0.013 0.069 0.106 0.112 0.226 0.125 0.352 0.056 0.246 0.12 0.495 0.182 0.736 0.122 0.495 0.885 0.284 0.762-0.211l-0.003-0.007z"></path>
<path fill="#fff" style="fill: var(--color3, #fff)" d="M20.028 19.762c0.274-0.17 0.498-0.411 0.649-0.696 0.186-0.33 0.29-0.736 0.097-1.084-0.261-0.47-0.797-0.594-1.279-0.408-0.516 0.231-0.971 0.581-1.327 1.020-0.377 0.405-0.679 0.874-0.89 1.386-0.12 0.33-0.157 0.675-0.287 0.99-0.088 0.214-0.198 0.417-0.33 0.607-0.041 0.089-0.047 0.191-0.017 0.285s0.093 0.173 0.178 0.222c0.085 0.049 0.185 0.065 0.281 0.045s0.181-0.076 0.239-0.156c0.27-0.406 0.465-0.856 0.578-1.33 0.030-0.117 0.045-0.239 0.079-0.355 0.012-0.043 0.028-0.083 0.043-0.124s0.031-0.066 0 0.017c0.012-0.026 0.023-0.054 0.036-0.081 0.095-0.195 0.205-0.381 0.33-0.558 0.131-0.183 0.274-0.357 0.429-0.52 0.079-0.086 0.165-0.165 0.248-0.246 0.046-0.043 0.094-0.086 0.142-0.125l0.056-0.048 0.035-0.026c0.081-0.060 0.166-0.115 0.254-0.165 0.046-0.026 0.094-0.049 0.14-0.074 0.017-0.010 0.069-0.028-0.013 0l0.081-0.030 0.117-0.031c0.035 0 0.081 0-0.017 0 0.016-0.002 0.033-0.002 0.049 0 0.020 0.003 0.040 0.003 0.059 0h0.012c-0.066-0.010-0.078-0.012-0.036 0 0.015 0.003 0.030 0.007 0.045 0.013 0.073 0.038-0.086-0.040-0.010 0s-0.033-0.046 0.035 0.025c0 0 0.061 0.069 0.020 0.018s0.026 0.046 0.033 0.054c-0.017-0.071 0.007 0.008 0 0-0.015-0.078 0 0.025 0 0.043 0-0.064 0 0 0 0.012-0.010 0.041-0.022 0.081-0.036 0.12 0.018-0.048-0.018 0.035-0.023 0.045-0.021 0.040-0.043 0.079-0.066 0.117-0.032 0.052-0.068 0.103-0.107 0.15-0.043 0.050-0.089 0.097-0.135 0.142 0 0-0.089 0.071-0.038 0.035s-0.041 0.023-0.051 0.028c-0.449 0.239-0.049 0.922 0.399 0.683h-0.002z"></path>
<path fill="#fff" style="fill: var(--color3, #fff)" d="M21.376 17.233l0.165-0.675c0.018-0.102 0.044-0.202 0.076-0.3 0 0 0.079-0.135 0.049-0.092 0-0.010 0.094-0.084 0.025-0.033 0.027-0.020 0.055-0.036 0.086-0.049-0.082 0.040 0 0 0.026 0-0.107 0 0 0.008 0 0s0.111 0.012 0 0c0.031 0.005 0.061 0.013 0.091 0.021 0.096 0.030-0.068-0.038 0.020 0.012l0.053 0.035c-0.074-0.056 0.008 0.012 0.016 0.025-0.048-0.076 0.015 0.028 0.025 0.043 0.033 0.058-0.035-0.087 0.008 0.018 0 0.008 0.028 0.124 0.017 0.041 0 0.035 0 0.165 0 0.145-0.018 0.124-0.054 0.248-0.074 0.371-0.054 0.485-0.155 0.963-0.302 1.427-0.036 0.098-0.079 0.193-0.13 0.284-0.079 0.149-0.168 0.293-0.267 0.429-0.225 0.294-0.482 0.562-0.767 0.799-0.451 0.384-0.977 0.66-1.437 1.028-0.296 0.237-0.556 0.515-0.774 0.825-0.052 0.090-0.067 0.198-0.040 0.299s0.092 0.188 0.182 0.241c0.091 0.051 0.198 0.064 0.298 0.038s0.187-0.091 0.241-0.18l0.046-0.063c-0.068 0.087 0.008 0 0.018-0.018s0.054-0.066 0.082-0.097c0.162-0.191 0.345-0.363 0.545-0.513 0.484-0.358 1-0.652 1.457-1.050 0.612-0.51 1.077-1.173 1.348-1.921 0.165-0.508 0.198-1.043 0.31-1.564 0.086-0.404 0.079-0.795-0.205-1.124-0.118-0.137-0.272-0.239-0.443-0.294s-0.356-0.064-0.532-0.022c-0.754 0.183-0.825 1.078-0.982 1.703-0.122 0.495 0.64 0.705 0.762 0.211l0.007 0.002z"></path>
<path fill="#fff" style="fill: var(--color3, #fff)" d="M18.829 12.755c-0.353 0.309-0.757 0.538-1.129 0.825-0.166 0.098-0.296 0.246-0.373 0.422-0.045 0.178-0.023 0.367 0.063 0.53 0.165 0.386 0.459 0.72 0.685 1.074 0.164 0.245 0.287 0.516 0.365 0.8 0.015 0.049 0.046 0.193 0.046 0.191 0-0.056 0 0.053 0 0.049v0.030c-0.001-0.037 0.009-0.074 0.030-0.106 0 0 0.307-0.165 0.253-0.154 0.040-0.010 0.109 0 0.033 0-0.015-0.004-0.029-0.009-0.043-0.015 0.111 0.038-0.013-0.010-0.036-0.021-0.281-0.14-0.545-0.312-0.812-0.474-0.336-0.208-0.683-0.398-1.038-0.571-0.161-0.075-0.326-0.142-0.495-0.198-0.243-0.078-0.457 0.021-0.677 0.12-0.352 0.183-0.678 0.412-0.969 0.682-0.373 0.317-0.79 0.576-1.239 0.771l0.581 0.446c0.278-0.941 0.543-1.882 0.795-2.824 0.021-0.084 0.015-0.172-0.018-0.253s-0.090-0.148-0.164-0.193c-0.409-0.265-0.803-0.551-1.183-0.857-0.116-0.095-0.223-0.2-0.32-0.314 0.091 0.111-0.050-0.102-0.012-0.020s0 0 0-0.018c0.025 0.165 0.020 0 0 0.084-0.005 0.041-0.021 0.079-0.048 0.111 0.041-0.046-0.087 0.071-0.008 0 0.018-0.011 0.037-0.021 0.056-0.030-0.106 0.059 0.063-0.018 0.107-0.030 0.078-0.021 0.155-0.036 0.234-0.051 0.165-0.030 0.371-0.048 0.594-0.064 0.299-0.023 0.597-0.036 0.898-0.050 0.086-0.001 0.17-0.030 0.238-0.083s0.119-0.125 0.143-0.208c0.129-0.479 0.256-0.962 0.432-1.427 0.015-0.038 0.030-0.078 0.046-0.117-0.028 0.064 0.020-0.040 0.021-0.043 0.028-0.058 0.059-0.112 0.089-0.165s0.038-0.051 0 0c0 0 0.036-0.051 0.045-0.051 0.048 0-0.068 0.038-0.020 0.015s-0.059 0.018-0.069 0.020c-0.019 0.005-0.040 0.006-0.060 0.003s-0.039-0.010-0.056-0.021c0.069 0.045-0.043-0.045-0.013-0.013s0.041 0.041 0.063 0.061c0.021 0.020 0.064 0.086 0.010 0.012 0.020 0.026 0.040 0.054 0.058 0.082 0.043 0.066 0.083 0.135 0.12 0.205 0.231 0.452 0.434 0.917 0.609 1.393 0.023 0.084 0.073 0.158 0.141 0.211s0.152 0.084 0.239 0.087c0.695-0.015 1.396-0.053 2.091-0.040 0.046 0 0.092 0 0.139 0h0.071c-0.049-0.009-0.053-0.009-0.010 0 0.056 0 0.102 0.059 0.028 0 0.035 0.021 0.025 0.013-0.031-0.026-0.026-0.025-0.047-0.056-0.061-0.089s-0.021-0.069-0.021-0.106c0.013-0.071 0.015-0.082 0-0.040 0.023-0.051 0.025-0.056 0-0.013-0.014 0.033-0.034 0.062-0.059 0.087-0.11 0.132-0.23 0.255-0.358 0.37-0.38 0.34 0.18 0.898 0.558 0.559 0.249-0.223 0.566-0.495 0.64-0.835s-0.177-0.602-0.495-0.67c-0.337-0.046-0.678-0.054-1.017-0.023l-1.474 0.031 0.381 0.29c-0.205-0.583-0.456-1.148-0.751-1.691-0.165-0.286-0.416-0.617-0.787-0.606s-0.592 0.368-0.728 0.677c-0.218 0.545-0.396 1.104-0.533 1.675l0.381-0.29c-0.495 0.020-0.99 0.045-1.485 0.111-0.289 0.020-0.571 0.103-0.825 0.243-0.119 0.072-0.21 0.181-0.259 0.311s-0.053 0.273-0.011 0.405c0.119 0.269 0.309 0.5 0.55 0.668 0.416 0.347 0.865 0.65 1.32 0.954l-0.182-0.446c-0.252 0.944-0.512 1.886-0.787 2.824-0.107 0.363 0.284 0.573 0.581 0.446 0.508-0.227 0.979-0.528 1.399-0.893 0.287-0.276 0.629-0.488 1.003-0.624h-0.21c0.523 0.152 1.012 0.47 1.485 0.756 0.216 0.129 0.429 0.262 0.652 0.383 0.164 0.11 0.354 0.177 0.551 0.195 0.713 0 0.47-0.921 0.317-1.32-0.226-0.583-0.622-1.043-0.936-1.578-0.017-0.028-0.091-0.187-0.068-0.125-0.038-0.094 0-0.018-0.028 0.064-0.008 0.035-0.074 0.068-0.023 0.050s0.064-0.056 0.091-0.078c0.058-0.045 0.119-0.086 0.18-0.127 0.371-0.24 0.728-0.502 1.068-0.786 0.378-0.325-0.183-0.883-0.559-0.55z"></path>
</symbol>
<symbol id="svg-whyus_safety" viewBox="0 0 33 32">
<path fill="#46409c" style="fill: var(--color10, #46409c)" d="M29.575 19.955c-0.628 2.976-3.314 4.935-5.575 6.353-3.221 2.019-6.67 3.534-10.909 2.64-3.168-0.668-5.583-4.16-7.449-6.512-2.384-3.006-3.714-5.261-2.86-9.309 0.725-3.438 3.663-5.249 6.326-7.124 2.926-2.061 5.717-3.982 9.495-3.185 3.685 0.777 5.612 3.298 7.625 6.796 1.929 3.352 4.093 6.81 3.348 10.341z"></path>
<path fill="#fff" style="fill: var(--color3, #fff)" d="M11.053 18.716c0.478 0.869 1.020 1.712 1.783 2.358 0.461 0.384 0.966 0.712 1.504 0.978 0.329 0.165 0.666 0.31 1.007 0.447s0.794 0.393 1.175 0.252c1.29-0.473 2.472-1.199 3.477-2.137 1.073-1.038 1.796-2.384 2.068-3.851 0.333-1.626 0.283-3.28 0.29-4.931-0.002-0.107-0.038-0.212-0.103-0.297s-0.156-0.148-0.259-0.178c-0.921-0.327-1.838-0.66-2.751-0.999-0.711-0.263-1.423-0.529-2.128-0.811-0.403-0.187-0.844-0.276-1.289-0.263-0.468 0.055-0.92 0.207-1.326 0.447-0.782 0.414-1.584 0.798-2.385 1.183-0.414 0.207-0.827 0.401-1.226 0.62-0.12 0.047-0.223 0.127-0.299 0.23s-0.121 0.227-0.129 0.355c-0.074 0.875-0.102 1.753-0.085 2.631 0.005 0.724 0.055 1.448 0.151 2.165 0.065 0.626 0.24 1.236 0.517 1.801 0.302 0.563 1.158 0.062 0.856-0.498-0.021-0.037-0.039-0.074-0.058-0.114s-0.025-0.052-0.037-0.079c0 0 0.027 0.068 0 0.014-0.041-0.105-0.077-0.207-0.11-0.316-0.067-0.23-0.121-0.465-0.161-0.701-0.084-0.51-0.135-1.024-0.153-1.541-0.040-0.944-0.030-1.89 0.029-2.834 0.010-0.197 0.023-0.395 0.041-0.592l-0.246 0.428c0.817-0.445 1.655-0.827 2.501-1.241 0.447-0.217 0.885-0.447 1.324-0.68 0.366-0.196 0.767-0.366 1.191-0.279 0.388 0.107 0.766 0.246 1.131 0.414l1.096 0.414c0.706 0.265 1.414 0.525 2.124 0.78 0.383 0.139 0.767 0.277 1.15 0.414l-0.364-0.478c0 1.669 0.066 3.361-0.327 4.995-0.181 0.815-0.525 1.585-1.009 2.265-0.482 0.628-1.063 1.172-1.721 1.613-0.673 0.468-1.404 0.848-2.174 1.131h0.265c-1.065-0.366-2.174-0.827-2.997-1.574-0.658-0.587-1.067-1.255-1.502-2.046-0.294-0.554-1.15-0.056-0.842 0.503z"></path>
<path fill="#fff" style="fill: var(--color3, #fff)" d="M13.457 15.81l2.199 2.366c0.094 0.092 0.219 0.143 0.351 0.143s0.257-0.051 0.351-0.143c1.131-1.16 2.176-2.405 3.309-3.566 0.447-0.457-0.254-1.158-0.699-0.701-1.133 1.162-2.176 2.405-3.309 3.568h0.701l-2.194-2.378c-0.432-0.47-1.131 0.234-0.699 0.701l-0.008 0.010z"></path>
</symbol>
</defs>
</svg>
