<svg width="1232" height="647" viewBox="0 0 1232 647" fill="none" xmlns="http://www.w3.org/2000/svg">
<path d="M1516.78 -154V542.735C1285.19 637.693 967.507 680.907 695.964 608.741C417.968 534.86 158.413 721.86 -124.854 542.735V-154H1516.78Z" fill="url(#paint0_linear_1455_1477)"/>
<g filter="url(#filter0_f_1455_1477)">
<path d="M745.895 435.569C614.306 326.927 868.478 194.173 1053.58 179.169C1261.66 162.301 1480.49 170.195 1548.87 -66.1206" stroke="url(#paint1_linear_1455_1477)" stroke-width="53"/>
</g>
<g filter="url(#filter1_f_1455_1477)">
<path d="M721.416 409.501C674.583 337.524 716.223 261.089 756.581 209.937C854.415 85.9338 1477.92 122.761 1601.42 -97.7432" stroke="url(#paint2_linear_1455_1477)" stroke-width="233"/>
</g>
<g filter="url(#filter2_f_1455_1477)">
<path d="M638.989 402.664C534.876 334.48 649.42 134.158 900.164 81.7366C1093.42 41.3343 1298.1 -44.5749 1362.97 -115.691" stroke="url(#paint3_linear_1455_1477)" stroke-width="128"/>
</g>
<g clip-path="url(#clip0_1455_1477)">
<mask id="mask0_1455_1477" style="mask-type:alpha" maskUnits="userSpaceOnUse" x="-125" y="-9" width="1642" height="656">
<path d="M1516.81 -8.85791V562.914C1285.2 640.375 967.48 675.627 695.907 616.758C417.881 556.491 158.297 709.034 -125 562.914V-8.85791H1516.81Z" fill="white"/>
</mask>
<g mask="url(#mask0_1455_1477)">
<path d="M1257.42 693.856C1063.5 712.659 965.015 733.244 831.915 693.856C785.12 680.008 429.38 663.874 572.409 568.47C641.349 522.485 719.035 451.803 803.453 435.428C840.068 428.182 870.026 409.381 899.788 390.188C947.458 359.408 942.98 293.955 1003.76 273.858C1046.75 259.883 1112.21 224.915 1154.33 257.799C1202.16 295.293 1257.38 383.473 1325.27 375.109C1390.69 367.674 1418.18 439.087 1466.05 469.505C1640.74 607.357 1451.35 675.053 1257.42 693.856Z" fill="#F7F7FF"/>
</g>
</g>
<mask id="mask1_1455_1477" style="mask-type:alpha" maskUnits="userSpaceOnUse" x="540" y="244" width="977" height="403">
<path fill-rule="evenodd" clip-rule="evenodd" d="M540.101 601.938C543.574 592.018 553.744 580.918 572.408 568.47C588.692 557.608 605.464 545.368 622.697 532.791C678.423 492.123 738.974 447.935 803.452 435.428C840.067 428.181 870.025 409.381 899.787 390.188C920.822 376.606 931.703 356.274 942.517 336.065C956.211 310.476 969.798 285.087 1003.76 273.858C1011.29 271.41 1019.51 268.319 1028.17 265.061C1068.96 249.716 1119.59 230.673 1154.33 257.799C1167.81 268.361 1181.87 282.945 1196.63 298.261C1234.28 337.313 1276.51 381.116 1325.27 375.108C1368.14 370.236 1394.72 399.227 1421.43 428.351C1435.47 443.667 1449.55 459.02 1466.05 469.504C1488.97 487.586 1505.62 504.461 1516.81 520.177V562.914C1285.2 640.375 967.478 675.627 695.905 616.758C643.408 605.378 591.567 601.586 540.101 601.938Z" fill="url(#paint4_linear_1455_1477)"/>
</mask>
<g mask="url(#mask1_1455_1477)">
<path d="M1121 616.59C1119.79 627.185 1118.58 637.78 1117.62 648.344C1115.75 665.832 1115.92 665.131 1100.44 665.256C1085.96 665.257 1071.51 663.438 1057.14 662.29C1054.83 662.125 1052.49 661.737 1050.16 661.349C1046.52 660.67 1044.96 658.369 1045.21 654.251C1045.42 651.954 1045.37 649.464 1045.84 647.134C1050.04 607.785 1056.86 569.016 1068.19 531.725C1070.9 522.985 1071.54 521.997 1079.69 524.153C1109.57 531.528 1139.59 533.891 1169.85 536.223C1177.8 536.815 1178.89 537.36 1181.29 546.367C1189.47 579.168 1199.81 611.015 1209.44 643.181C1212.09 652.156 1210.2 657.387 1202.76 660.818C1199.87 662.089 1196.48 663.422 1193.45 663.575C1178.06 664.372 1163.19 667.372 1147.6 666.604C1141.99 666.4 1139.59 663.522 1137.89 658.06C1133.82 643.814 1127.55 630.298 1121 616.59Z" fill="#BCBEFF"/>
<path d="M1406.8 685.617C1396.55 686.903 1395.49 686.582 1391.59 677.763C1384.54 662.075 1375.61 647.531 1367.86 632.384C1366.5 629.604 1364.91 627.079 1363.1 624.808C1361.24 622.091 1358.54 620.84 1355.9 622.079C1347.46 625.636 1338.51 625.17 1329.92 627.609C1324.03 629.256 1320.15 632.695 1316.76 638.114C1311.49 646.722 1308.42 656.642 1305.04 666.148C1302.27 674.441 1297.91 678.166 1290.13 678.915C1271.59 681.014 1253.39 683.751 1234.92 686.297C1233.42 686.485 1231.91 686.673 1230.39 686.638C1227.58 686.536 1226.6 684.842 1227.52 682.003C1228.65 678.909 1229.79 675.815 1231.2 672.914C1243.73 645.234 1256.54 617.746 1269.07 590.066C1271.49 584.996 1274.65 581.874 1279.54 580.352C1308.85 570.999 1338.13 561.423 1368.28 554.689C1374.69 553.203 1380.81 551.301 1387.2 549.591C1397 546.771 1398.06 547.093 1403.74 557.958C1415.8 581.191 1427.86 604.424 1439.89 627.433C1443.87 634.879 1448.08 642.071 1452.03 649.293C1455.99 656.516 1455.46 658.398 1450.08 664.069C1448.94 665.119 1448.11 666.586 1446.66 667.221C1433.22 675.491 1418.66 680.95 1406.8 685.617Z" fill="#BCBEFF"/>
<path d="M1202.4 419.08C1198.08 427.115 1195.14 434.067 1193.01 441.372C1189.96 451.517 1186.92 461.661 1184.15 471.997C1182.27 479.271 1178.83 484.243 1171.91 485.792C1168.46 486.679 1165.07 488.012 1161.57 488.451C1147.32 490.24 1132.78 491.836 1118.56 493.848C1112.81 494.57 1107.39 493.888 1101.83 492.088C1096.52 490.257 1095.12 487.254 1096.67 481.384C1097.92 477.141 1099.47 473.314 1100.99 469.263C1108.64 449.233 1116.57 429.396 1123.96 409.397C1126.4 402.508 1130.57 399.261 1136.62 396.912C1161.65 387.869 1187.49 381.221 1212.94 373.488C1223.47 370.351 1233.66 366.574 1244.78 366.088C1256.4 365.538 1256.68 367.773 1259.22 377.898C1266.06 406.099 1272.15 434.394 1277.99 462.721C1280.39 473.77 1279.97 474.504 1270.81 476.335C1255.16 479.206 1239.49 481.853 1223.43 481.372C1219.34 481.203 1216.84 479.474 1215.28 475.129C1213.16 468.357 1211.51 461.299 1210.61 454.147C1209.18 442.748 1208.03 431.541 1202.4 419.08Z" fill="#D5D6FF"/>
<path d="M1096.77 348.562C1095.33 349.197 1095.25 350.569 1094.89 351.75C1093.06 359.471 1092.81 359.502 1086.03 360.126C1067.16 361.585 1048.29 363.044 1029.68 364.472C1027.42 364.755 1024.9 364.845 1022.62 364.904C1019.31 364.865 1017.78 362.786 1018.08 359.116C1018.16 357.744 1018.49 356.34 1018.85 355.16C1026.18 322.457 1033.26 289.785 1041.64 257.404C1042.34 254.819 1043.31 252.427 1044 249.843C1045.05 246.079 1047.3 243.754 1051.05 243.283C1080.36 240.059 1109.32 233.929 1139.11 236.548C1145.53 237.104 1147.26 238.704 1148.96 246.209C1149.6 249.307 1149.97 252.212 1150.36 255.341C1153.67 281.715 1158.73 307.869 1165.01 333.643C1165.07 334.09 1165.09 334.314 1165.15 334.761C1168 347.344 1167.17 348.81 1156.53 351.054C1147.61 352.854 1138.72 354.877 1129.88 357.348C1123.24 359.089 1116.46 359.713 1109.62 359.89C1103.82 360.164 1099.76 358.176 1098.36 351.087C1098.22 349.969 1097.36 349.17 1096.77 348.562Z" fill="#D5D6FF"/>
<path d="M594.834 589.665C593.623 600.26 592.412 610.855 591.451 621.419C589.581 638.908 589.747 638.206 574.267 638.332C559.788 638.332 545.335 636.513 530.966 635.365C528.659 635.2 526.324 634.812 523.989 634.424C520.348 633.746 518.789 631.444 519.034 627.327C519.254 625.029 519.196 622.539 519.665 620.21C523.873 580.86 530.694 542.091 542.018 504.8C544.732 496.06 545.37 495.072 553.515 497.228C583.399 504.603 613.416 506.966 643.683 509.299C651.632 509.89 652.717 510.436 655.117 519.442C663.297 552.243 673.643 584.091 683.267 616.256C685.917 625.231 684.033 630.462 676.589 633.894C673.7 635.164 670.311 636.497 667.282 636.65C651.887 637.447 637.022 640.447 621.431 639.679C615.816 639.476 613.423 636.597 611.722 631.135C607.648 616.89 601.38 603.374 594.834 589.665Z" fill="#BCBEFF"/>
<path d="M880.632 658.692C870.379 659.979 869.322 659.657 865.421 650.839C858.373 635.15 849.435 620.607 841.692 605.46C840.327 602.68 838.74 600.154 836.931 597.884C835.066 595.167 832.369 593.916 829.731 595.155C821.286 598.712 812.337 598.245 803.752 600.685C797.862 602.332 793.975 605.771 790.591 611.19C785.32 619.797 782.247 629.718 778.867 639.223C776.097 647.517 771.738 651.242 763.957 651.991C745.423 654.089 727.223 656.827 708.745 659.373C707.244 659.561 705.744 659.749 704.215 659.714C701.408 659.612 700.434 657.918 701.348 655.079C702.484 651.985 703.62 648.891 705.034 645.989C717.564 618.309 730.373 590.822 742.903 563.141C745.315 558.071 748.48 554.95 753.369 553.428C782.678 544.075 811.959 534.499 842.105 527.765C848.523 526.279 854.635 524.377 861.025 522.667C870.832 519.847 871.888 520.169 877.57 531.034C889.63 554.267 901.689 577.499 913.721 600.509C917.704 607.955 921.908 615.146 925.863 622.369C929.817 629.592 929.291 631.474 923.906 637.144C922.768 638.195 921.936 639.662 920.492 640.297C907.05 648.567 892.494 654.026 880.632 658.692Z" fill="#BCBEFF"/>
<path d="M911.143 211.483C931.982 207.506 952.41 208.348 972.582 205.136C977.056 204.348 980.587 206.175 983.621 210.108C986.376 213.849 988.882 217.621 990.943 221.903C1002.42 246.571 1012.23 272.129 1021.57 297.973C1023.91 304.49 1022.72 307.137 1016.61 309.039C1009.02 311.353 1001.13 313.251 993.438 314.67C981.796 317.039 969.902 317.396 958.678 321.075C949.65 324.024 943.337 320.275 938.158 311.39C930.723 298.701 922.15 287.064 915.66 273.802C914.685 272.108 913.683 270.191 912.486 268.752C911.262 267.089 909.733 267.054 908.679 268.776C907.597 270.273 906.821 272.187 905.767 273.909C900.442 284.112 894.227 293.291 888.319 302.887C885.156 308.051 881.601 310.086 875.709 309.69C858.977 307.93 843.018 302.214 826.424 299.528C822.783 298.85 821.974 296.454 823.054 292.913C824.992 286.086 826.707 279.514 828.645 272.687C832.326 259.512 836.536 246.498 839.967 233.354C842.015 225.378 846.29 220.982 853.82 220.264C873.355 218.04 892.163 212.048 911.143 211.483Z" fill="#D5D6FF"/>
<path d="M860.476 477.785C859.45 479.73 858.784 480.495 858.646 481.42C856.098 489.459 855.238 490.702 848.04 490.016C839.284 489.071 830.473 487.679 821.634 486.064C815.657 484.997 810.069 482.974 804.065 481.684C799.645 480.877 797.78 478.159 797.441 473.434C797.439 471.391 797.186 469.38 797.184 467.337C798.124 438.387 799.842 409.566 802.089 380.906C802.636 373.118 804.412 371.079 810.805 371.412C839.125 372.399 867.443 371.344 895.85 375.045C901.798 375.887 905.579 377.683 907.755 384.902C917.129 417.099 927.032 449.456 936.906 481.59C941.23 495.804 939.619 497.141 928.251 495.616C915.854 493.993 903.57 493.264 890.979 492.12C885.337 491.693 879.917 491.011 874.109 491.285C865.772 491.65 864.91 490.85 861.703 481.49C862.091 480.534 861.479 479.702 860.476 477.785Z" fill="#D5D6FF"/>
<path d="M1014.84 562.168C1004.89 561.827 994.19 561.58 983.656 560.632C976.458 559.946 974.899 557.644 975.64 549.378C978.218 519.314 981.075 489.442 985.21 459.637C986.505 449.712 987.949 449.077 996.927 449.767C1003.35 450.324 1009.91 449.955 1016.35 450.735C1023.3 451.452 1024.56 453.338 1024.51 461.063C1024.18 490.845 1023.88 520.85 1023.3 550.663C1023.2 559.983 1021.9 561.736 1014.84 562.168Z" fill="#D5D6FF"/>
</g>
<g filter="url(#filter3_f_1455_1477)">
<circle cx="1014.7" cy="129.171" r="11.538" fill="white" fill-opacity="0.5"/>
</g>
<g filter="url(#filter4_f_1455_1477)">
<circle cx="812.142" cy="129.171" r="4.70067" fill="white" fill-opacity="0.5"/>
</g>
<g filter="url(#filter5_f_1455_1477)">
<circle cx="727.53" cy="235.149" r="4.70067" fill="white" fill-opacity="0.5"/>
</g>
<g filter="url(#filter6_f_1455_1477)">
<circle cx="1111.27" cy="197.543" r="4.70067" fill="white" fill-opacity="0.5"/>
</g>
<g filter="url(#filter7_f_1455_1477)">
<circle cx="882.651" cy="231.303" r="3.41867" fill="white" fill-opacity="0.5"/>
</g>
<g filter="url(#filter8_f_1455_1477)">
<circle cx="1218.54" cy="221.902" r="3.41867" fill="white" fill-opacity="0.5"/>
</g>
<g filter="url(#filter9_f_1455_1477)">
<circle cx="1218.54" cy="128.743" r="3.41867" fill="white" fill-opacity="0.5"/>
</g>
<path d="M818.403 132.165L818.405 132.158C818.455 131.882 818.219 131.673 818.047 131.52C818.005 131.482 817.965 131.448 817.937 131.419C817.741 131.191 817.53 131.017 817.308 130.833C817.251 130.786 817.193 130.738 817.136 130.69C817.003 130.567 816.883 130.437 816.756 130.299C816.582 130.11 816.403 129.915 816.184 129.74C815.895 129.528 815.737 129.341 815.535 129.055C815.51 129.015 815.478 128.969 815.437 128.917C815.455 128.89 815.467 128.859 815.465 128.826C815.472 128.773 815.488 128.705 815.491 128.693C815.524 128.391 815.583 128.072 815.678 127.672C815.743 127.512 815.826 127.301 815.9 127.084C815.956 126.91 816.003 126.737 816.048 126.568C816.143 126.213 816.232 125.878 816.408 125.563C816.53 125.317 816.65 124.918 816.626 124.628C816.624 124.554 816.609 124.478 816.585 124.412L816.591 124.407C816.586 124.401 816.582 124.395 816.575 124.386C816.559 124.349 816.542 124.321 816.523 124.297L816.386 124.206L816.377 124.217C816.146 124.109 815.894 124.238 815.666 124.36C815.53 124.383 815.394 124.468 815.275 124.549C815.175 124.599 815.077 124.652 814.977 124.706C814.875 124.763 814.77 124.819 814.667 124.871C814.546 124.922 814.438 124.975 814.343 125.028C814.267 125.063 814.191 125.095 814.116 125.128C813.835 125.25 813.544 125.375 813.273 125.591C813.032 125.802 812.774 126.01 812.556 126.171C812.48 126.243 812.409 126.312 812.285 126.361C812.261 126.375 812.21 126.398 812.166 126.416C812.115 126.378 812.063 126.34 812.015 126.307C811.951 126.256 811.888 126.203 811.825 126.149C811.762 126.096 811.698 126.042 811.63 125.988C811.449 125.858 811.274 125.757 811.106 125.659C810.939 125.562 810.781 125.471 810.615 125.351C810.518 125.29 810.425 125.209 810.327 125.124C810.228 125.037 810.131 124.947 810.023 124.884L809.991 124.859C809.759 124.678 809.276 124.3 808.914 124.586C808.895 124.604 808.88 124.622 808.867 124.639C808.808 124.663 808.753 124.703 808.7 124.768C808.633 124.874 808.638 125.013 808.642 125.114L808.638 125.238C808.628 125.427 808.618 125.642 808.663 125.841C808.748 126.27 808.917 126.64 809.097 127.031C809.179 127.212 809.264 127.398 809.341 127.593C809.369 127.657 809.399 127.721 809.429 127.786C809.631 128.219 809.806 128.593 809.4 128.9C809.21 129.044 809.024 129.205 808.843 129.361C808.617 129.557 808.383 129.759 808.143 129.926C807.588 130.313 806.958 130.751 806.624 131.412C806.538 131.581 806.533 131.723 806.608 131.833C806.79 132.105 807.409 132.052 807.706 132.026L807.754 132.021C807.894 131.989 808.099 131.958 808.161 131.955L808.199 131.958C808.268 131.952 808.347 131.944 808.426 131.936C808.501 131.928 808.575 131.921 808.654 131.913C808.871 131.864 809.322 131.799 809.322 131.799C809.453 131.788 809.591 131.786 809.724 131.784C809.86 131.782 810.002 131.78 810.14 131.769C810.21 131.763 810.272 131.759 810.333 131.755L810.367 131.753C810.405 131.888 810.443 132.023 810.479 132.159C810.49 132.368 810.583 132.598 810.636 132.727L810.667 132.841C810.69 132.927 810.713 133.013 810.741 133.105C810.785 133.22 810.856 133.378 810.95 133.489C810.987 133.565 811.026 133.641 811.065 133.72L811.166 133.922C811.211 134.006 811.286 134.183 811.366 134.371C811.467 134.609 811.572 134.855 811.65 134.996C811.676 135.039 811.703 135.097 811.734 135.162C811.828 135.358 811.948 135.608 812.137 135.727C812.206 135.77 812.284 135.796 812.374 135.795C812.674 135.787 812.844 135.497 812.968 135.285C812.989 135.25 813.008 135.218 813.023 135.193C813.372 134.7 813.612 134.284 813.781 133.877C813.817 133.77 813.846 133.658 813.875 133.547C813.903 133.442 813.93 133.337 813.963 133.236C814.033 133.118 814.268 132.642 814.293 132.37C814.283 132.245 814.293 132.134 814.305 132.016C814.643 132.165 814.99 132.239 815.326 132.31C815.45 132.336 815.574 132.363 815.703 132.394C816.22 132.493 816.696 132.539 817.257 132.593L817.359 132.596C817.704 132.608 818.281 132.63 818.403 132.165L818.403 132.165Z" fill="white"/>
<path d="M1224.01 224.5L1224.01 224.493C1224.07 224.196 1223.81 223.971 1223.63 223.807C1223.58 223.767 1223.54 223.73 1223.51 223.699C1223.3 223.454 1223.07 223.267 1222.83 223.069C1222.77 223.019 1222.71 222.967 1222.65 222.915C1222.51 222.784 1222.38 222.644 1222.24 222.496C1222.06 222.293 1221.86 222.084 1221.63 221.895C1221.32 221.668 1221.15 221.467 1220.93 221.16C1220.9 221.117 1220.87 221.067 1220.83 221.011C1220.84 220.982 1220.86 220.949 1220.86 220.914C1220.86 220.857 1220.88 220.784 1220.88 220.771C1220.92 220.447 1220.98 220.104 1221.08 219.674C1221.15 219.503 1221.24 219.276 1221.32 219.042C1221.38 218.856 1221.43 218.669 1221.48 218.489C1221.58 218.107 1221.68 217.747 1221.87 217.409C1222 217.145 1222.13 216.717 1222.1 216.405C1222.1 216.326 1222.08 216.243 1222.06 216.173L1222.06 216.168C1222.06 216.161 1222.05 216.155 1222.05 216.145C1222.03 216.106 1222.01 216.075 1221.99 216.049L1221.84 215.952L1221.83 215.964C1221.59 215.847 1221.32 215.986 1221.07 216.117C1220.92 216.142 1220.78 216.233 1220.65 216.319C1220.54 216.373 1220.44 216.431 1220.33 216.489C1220.22 216.549 1220.11 216.61 1220 216.666C1219.87 216.721 1219.75 216.777 1219.65 216.834C1219.57 216.871 1219.49 216.907 1219.41 216.942C1219.1 217.072 1218.79 217.207 1218.5 217.439C1218.24 217.665 1217.96 217.889 1217.73 218.062C1217.65 218.14 1217.57 218.214 1217.44 218.266C1217.41 218.282 1217.36 218.306 1217.31 218.325C1217.26 218.284 1217.2 218.244 1217.15 218.208C1217.08 218.154 1217.01 218.096 1216.95 218.039C1216.88 217.981 1216.81 217.923 1216.74 217.865C1216.54 217.725 1216.35 217.617 1216.17 217.512C1215.99 217.408 1215.82 217.31 1215.65 217.181C1215.54 217.116 1215.44 217.029 1215.34 216.937C1215.23 216.844 1215.13 216.747 1215.01 216.68L1214.98 216.653C1214.73 216.459 1214.21 216.053 1213.82 216.36C1213.8 216.379 1213.78 216.398 1213.77 216.417C1213.7 216.442 1213.65 216.486 1213.59 216.555C1213.52 216.669 1213.52 216.818 1213.53 216.926L1213.52 217.06C1213.51 217.263 1213.5 217.494 1213.55 217.708C1213.64 218.168 1213.82 218.566 1214.01 218.986C1214.1 219.18 1214.2 219.38 1214.28 219.589C1214.31 219.658 1214.34 219.727 1214.37 219.797C1214.59 220.262 1214.78 220.663 1214.34 220.993C1214.14 221.148 1213.94 221.321 1213.74 221.489C1213.5 221.699 1213.25 221.916 1212.99 222.095C1212.39 222.51 1211.72 222.981 1211.36 223.691C1211.27 223.872 1211.26 224.025 1211.34 224.144C1211.54 224.435 1212.2 224.378 1212.52 224.351L1212.57 224.345C1212.72 224.311 1212.94 224.277 1213.01 224.275L1213.05 224.278C1213.12 224.271 1213.21 224.263 1213.29 224.254C1213.37 224.246 1213.45 224.238 1213.54 224.23C1213.77 224.176 1214.26 224.107 1214.26 224.107C1214.4 224.095 1214.55 224.093 1214.69 224.091C1214.84 224.089 1214.99 224.087 1215.14 224.074C1215.21 224.068 1215.28 224.064 1215.34 224.06L1215.38 224.057C1215.42 224.203 1215.46 224.348 1215.5 224.494C1215.51 224.718 1215.61 224.965 1215.67 225.103L1215.7 225.226C1215.73 225.318 1215.75 225.411 1215.78 225.51C1215.83 225.633 1215.91 225.802 1216.01 225.922C1216.05 226.004 1216.09 226.086 1216.13 226.17L1216.24 226.388C1216.29 226.478 1216.37 226.668 1216.45 226.869C1216.56 227.125 1216.67 227.389 1216.76 227.541C1216.78 227.587 1216.81 227.649 1216.85 227.719C1216.95 227.93 1217.08 228.198 1217.28 228.326C1217.35 228.372 1217.44 228.4 1217.54 228.399C1217.86 228.39 1218.04 228.078 1218.17 227.851C1218.2 227.814 1218.22 227.779 1218.23 227.752C1218.61 227.223 1218.86 226.776 1219.05 226.339C1219.08 226.224 1219.12 226.104 1219.15 225.984C1219.18 225.872 1219.21 225.759 1219.24 225.65C1219.32 225.524 1219.57 225.012 1219.6 224.72C1219.59 224.586 1219.6 224.467 1219.61 224.34C1219.97 224.5 1220.34 224.579 1220.71 224.656C1220.84 224.684 1220.97 224.712 1221.11 224.746C1221.67 224.852 1222.18 224.902 1222.78 224.96L1222.89 224.963C1223.26 224.976 1223.88 225 1224.01 224.5L1224.01 224.5Z" fill="white"/>
<path d="M1013.81 113.512L1013.79 113.519C1013.11 113.786 1012.97 114.593 1012.87 115.183C1012.85 115.327 1012.82 115.461 1012.8 115.563C1012.56 116.308 1012.47 117.011 1012.36 117.755C1012.34 117.945 1012.31 118.14 1012.28 118.331C1012.19 118.793 1012.07 119.236 1011.94 119.704C1011.76 120.346 1011.57 121.009 1011.49 121.732C1011.41 122.661 1011.22 123.265 1010.86 124.104C1010.81 124.212 1010.75 124.348 1010.69 124.508C1010.61 124.506 1010.52 124.521 1010.45 124.57C1010.32 124.629 1010.15 124.685 1010.12 124.697C1009.41 125.036 1008.62 125.342 1007.61 125.678C1007.17 125.754 1006.59 125.858 1006.01 125.993C1005.55 126.105 1005.1 126.24 1004.66 126.371C1003.75 126.647 1002.89 126.907 1001.95 126.949C1001.24 127.015 1000.2 127.296 999.586 127.747C999.427 127.852 999.278 127.989 999.166 128.133L999.148 128.126C999.14 128.145 999.133 128.162 999.123 128.19C999.063 128.276 999.023 128.352 998.997 128.427L998.982 128.853L999.02 128.858C999.097 129.518 999.727 129.896 1000.31 130.234C1000.55 130.504 1000.92 130.688 1001.26 130.841C1001.51 130.993 1001.76 131.136 1002.01 131.282C1002.28 131.432 1002.55 131.585 1002.8 131.742C1003.08 131.94 1003.35 132.107 1003.59 132.244C1003.77 132.364 1003.95 132.487 1004.12 132.609C1004.78 133.064 1005.45 133.534 1006.3 133.838C1007.1 134.083 1007.91 134.367 1008.56 134.63C1008.83 134.698 1009.08 134.762 1009.35 134.968C1009.42 135 1009.54 135.083 1009.64 135.156C1009.62 135.322 1009.61 135.486 1009.6 135.638C1009.58 135.85 1009.55 136.062 1009.51 136.274C1009.48 136.488 1009.45 136.701 1009.42 136.927C1009.38 137.505 1009.4 138.028 1009.41 138.534C1009.43 139.036 1009.44 139.51 1009.4 140.039C1009.4 140.337 1009.35 140.653 1009.3 140.986C1009.24 141.324 1009.17 141.661 1009.18 141.985L1009.17 142.09C1009.09 142.85 1008.91 144.435 1010.04 144.844C1010.11 144.862 1010.17 144.87 1010.22 144.874C1010.35 144.973 1010.52 145.038 1010.74 145.068C1011.06 145.07 1011.36 144.87 1011.58 144.724L1011.86 144.562C1012.29 144.324 1012.78 144.054 1013.16 143.681C1013.99 142.908 1014.57 142.028 1015.19 141.097C1015.48 140.668 1015.77 140.224 1016.1 139.788C1016.2 139.639 1016.3 139.484 1016.41 139.329C1017.09 138.291 1017.67 137.393 1018.91 137.87C1019.48 138.093 1020.1 138.285 1020.69 138.471C1021.43 138.703 1022.2 138.943 1022.89 139.245C1024.51 139.944 1026.34 140.735 1028.25 140.57C1028.74 140.528 1029.07 140.346 1029.21 140.029C1029.56 139.255 1028.59 137.96 1028.13 137.339L1028.05 137.239C1027.79 136.974 1027.44 136.565 1027.35 136.43L1027.31 136.344C1027.2 136.198 1027.07 136.035 1026.95 135.872C1026.83 135.717 1026.71 135.562 1026.59 135.399C1026.18 134.986 1025.42 134.079 1025.42 134.08C1025.22 133.804 1025.02 133.503 1024.84 133.212C1024.65 132.912 1024.45 132.602 1024.23 132.313C1024.13 132.166 1024.03 132.035 1023.94 131.904L1023.89 131.833C1024.14 131.563 1024.38 131.295 1024.63 131.03C1025.08 130.721 1025.46 130.2 1025.67 129.907L1025.88 129.682C1026.04 129.514 1026.2 129.345 1026.36 129.158C1026.56 128.904 1026.81 128.529 1026.93 128.171C1027.05 127.984 1027.16 127.795 1027.28 127.601L1027.59 127.1C1027.71 126.887 1028 126.478 1028.31 126.045C1028.69 125.496 1029.1 124.928 1029.3 124.564C1029.36 124.448 1029.45 124.307 1029.55 124.15C1029.86 123.673 1030.25 123.068 1030.25 122.487C1030.25 122.276 1030.2 122.067 1030.08 121.87C1029.65 121.218 1028.77 121.24 1028.13 121.255C1028.03 121.257 1027.93 121.26 1027.86 121.26C1026.29 121.163 1025.04 121.201 1023.91 121.383C1023.63 121.453 1023.34 121.541 1023.05 121.628C1022.79 121.711 1022.52 121.793 1022.25 121.859C1021.89 121.866 1020.52 121.997 1019.88 122.314C1019.62 122.508 1019.36 122.637 1019.09 122.772C1018.95 121.82 1018.64 120.954 1018.34 120.115C1018.23 119.804 1018.12 119.493 1018.01 119.167C1017.52 117.889 1016.97 116.774 1016.32 115.461L1016.19 115.231C1015.75 114.452 1015 113.148 1013.81 113.513L1013.81 113.512Z" fill="white"/>
<path d="M1216.72 132.028L1216.72 132.029C1216.93 132.049 1217.07 131.863 1217.17 131.727C1217.2 131.694 1217.22 131.663 1217.24 131.641C1217.4 131.483 1217.51 131.318 1217.63 131.143C1217.67 131.098 1217.7 131.052 1217.73 131.008C1217.81 130.902 1217.9 130.806 1217.99 130.705C1218.12 130.566 1218.26 130.422 1218.37 130.251C1218.51 130.025 1218.64 129.898 1218.84 129.732C1218.87 129.712 1218.9 129.685 1218.93 129.653C1218.95 129.664 1218.98 129.671 1219 129.668C1219.04 129.669 1219.09 129.677 1219.1 129.678C1219.33 129.685 1219.56 129.709 1219.86 129.756C1219.99 129.794 1220.15 129.843 1220.31 129.884C1220.44 129.915 1220.57 129.939 1220.7 129.963C1220.97 130.011 1221.22 130.057 1221.46 130.168C1221.65 130.243 1221.95 130.308 1222.16 130.273C1222.22 130.267 1222.27 130.252 1222.32 130.23L1222.32 130.234C1222.33 130.23 1222.33 130.227 1222.34 130.221C1222.36 130.207 1222.38 130.193 1222.4 130.177L1222.46 130.072L1222.45 130.066C1222.51 129.889 1222.4 129.711 1222.3 129.551C1222.28 129.452 1222.21 129.356 1222.14 129.274C1222.1 129.203 1222.05 129.134 1222.01 129.064C1221.96 128.992 1221.91 128.919 1221.87 128.846C1221.82 128.76 1221.78 128.683 1221.73 128.616C1221.7 128.563 1221.67 128.509 1221.64 128.455C1221.54 128.255 1221.43 128.049 1221.25 127.862C1221.08 127.697 1220.92 127.52 1220.78 127.369C1220.73 127.317 1220.67 127.269 1220.63 127.181C1220.62 127.164 1220.6 127.128 1220.58 127.096C1220.61 127.056 1220.63 127.016 1220.65 126.979C1220.69 126.928 1220.72 126.879 1220.76 126.83C1220.79 126.78 1220.83 126.73 1220.86 126.676C1220.95 126.535 1221.01 126.401 1221.08 126.271C1221.14 126.142 1221.19 126.021 1221.27 125.892C1221.31 125.817 1221.37 125.743 1221.42 125.666C1221.48 125.588 1221.54 125.512 1221.58 125.428L1221.6 125.403C1221.72 125.222 1221.97 124.844 1221.73 124.594C1221.72 124.581 1221.71 124.571 1221.69 124.563C1221.67 124.521 1221.64 124.483 1221.59 124.448C1221.51 124.405 1221.4 124.417 1221.33 124.425L1221.24 124.43C1221.1 124.434 1220.94 124.439 1220.8 124.484C1220.49 124.572 1220.22 124.719 1219.95 124.874C1219.82 124.945 1219.69 125.019 1219.55 125.087C1219.5 125.111 1219.46 125.137 1219.41 125.163C1219.1 125.338 1218.84 125.489 1218.59 125.208C1218.47 125.077 1218.34 124.949 1218.22 124.825C1218.06 124.67 1217.9 124.51 1217.76 124.344C1217.44 123.958 1217.08 123.52 1216.57 123.313C1216.45 123.26 1216.34 123.265 1216.26 123.326C1216.07 123.477 1216.15 123.929 1216.19 124.146L1216.19 124.182C1216.23 124.282 1216.26 124.431 1216.27 124.477L1216.27 124.505C1216.27 124.556 1216.29 124.613 1216.3 124.671C1216.31 124.725 1216.32 124.78 1216.33 124.837C1216.38 124.994 1216.45 125.322 1216.45 125.322C1216.47 125.418 1216.48 125.519 1216.48 125.617C1216.49 125.718 1216.5 125.821 1216.52 125.922C1216.53 125.974 1216.54 126.019 1216.54 126.064L1216.55 126.089C1216.45 126.125 1216.35 126.161 1216.25 126.195C1216.1 126.215 1215.94 126.298 1215.85 126.344L1215.76 126.374C1215.7 126.396 1215.64 126.418 1215.57 126.444C1215.49 126.483 1215.38 126.545 1215.3 126.621C1215.25 126.653 1215.19 126.685 1215.14 126.719L1215 126.806C1214.94 126.843 1214.81 126.909 1214.68 126.979C1214.51 127.068 1214.33 127.159 1214.24 127.225C1214.21 127.247 1214.16 127.271 1214.12 127.297C1213.98 127.378 1213.8 127.481 1213.73 127.627C1213.7 127.68 1213.68 127.74 1213.69 127.806C1213.71 128.026 1213.94 128.134 1214.1 128.213C1214.13 128.226 1214.15 128.238 1214.17 128.248C1214.56 128.475 1214.88 128.627 1215.18 128.728C1215.27 128.747 1215.35 128.762 1215.43 128.777C1215.51 128.791 1215.59 128.805 1215.67 128.823C1215.76 128.868 1216.12 129.013 1216.32 129.015C1216.42 129 1216.5 129.001 1216.59 129.002C1216.5 129.261 1216.46 129.52 1216.43 129.771C1216.42 129.864 1216.41 129.957 1216.39 130.054C1216.35 130.44 1216.34 130.793 1216.34 131.209L1216.34 131.285C1216.35 131.539 1216.37 131.965 1216.72 132.028L1216.72 132.028Z" fill="white"/>
<path d="M728.764 243.62L728.754 243.619C728.363 243.548 728.204 243.132 728.087 242.829C728.059 242.754 728.033 242.685 728.008 242.634C727.805 242.261 727.679 241.897 727.545 241.511C727.511 241.412 727.476 241.311 727.441 241.212C727.345 240.975 727.232 240.752 727.113 240.516C726.949 240.193 726.78 239.859 726.656 239.483C726.52 238.995 726.351 238.693 726.073 238.283C726.033 238.232 725.987 238.165 725.938 238.086C725.894 238.096 725.848 238.097 725.805 238.078C725.731 238.06 725.633 238.048 725.616 238.045C725.2 237.94 724.749 237.86 724.172 237.787C723.929 237.794 723.609 237.799 723.284 237.789C723.027 237.777 722.774 237.753 722.529 237.729C722.013 237.678 721.525 237.631 721.021 237.707C720.635 237.747 720.048 237.708 719.676 237.531C719.58 237.492 719.486 237.435 719.411 237.37L719.402 237.375C719.395 237.366 719.39 237.358 719.382 237.344C719.341 237.304 719.311 237.268 719.289 237.231L719.237 237.005L719.256 236.999C719.228 236.638 719.523 236.37 719.797 236.129C719.896 235.96 720.076 235.822 720.241 235.705C720.357 235.597 720.477 235.494 720.597 235.39C720.722 235.282 720.849 235.172 720.969 235.061C721.097 234.926 721.22 234.809 721.337 234.71C721.421 234.627 721.502 234.543 721.582 234.459C721.882 234.148 722.193 233.825 722.613 233.574C723.011 233.359 723.414 233.122 723.735 232.913C723.869 232.848 723.995 232.788 724.121 232.649C724.152 232.625 724.208 232.568 724.253 232.519C724.228 232.432 724.204 232.346 724.184 232.265C724.149 232.155 724.109 232.045 724.07 231.936C724.03 231.825 723.99 231.714 723.952 231.597C723.87 231.293 723.823 231.012 723.777 230.741C723.732 230.472 723.69 230.217 723.614 229.939C723.581 229.78 723.52 229.617 723.456 229.445C723.391 229.271 723.319 229.099 723.29 228.925L723.273 228.87C723.148 228.473 722.888 227.647 723.446 227.309C723.479 227.293 723.51 227.282 723.539 227.274C723.599 227.207 723.68 227.155 723.792 227.117C723.966 227.081 724.146 227.156 724.278 227.211L724.445 227.268C724.7 227.349 724.989 227.442 725.23 227.601C725.755 227.925 726.16 228.333 726.589 228.764C726.787 228.962 726.991 229.168 727.211 229.366C727.282 229.434 727.352 229.506 727.423 229.578C727.895 230.06 728.303 230.477 728.91 230.093C729.195 229.912 729.501 229.746 729.797 229.584C730.168 229.382 730.551 229.173 730.891 228.938C731.678 228.395 732.57 227.78 733.61 227.665C733.876 227.636 734.066 227.699 734.176 227.853C734.444 228.23 734.067 229.021 733.886 229.402L733.855 229.463C733.744 229.632 733.601 229.887 733.567 229.968L733.551 230.019C733.509 230.108 733.459 230.209 733.41 230.309C733.363 230.404 733.315 230.499 733.267 230.599C733.093 230.863 732.784 231.427 732.784 231.426C732.704 231.595 732.633 231.776 732.565 231.951C732.495 232.131 732.422 232.317 732.338 232.494C732.296 232.583 732.26 232.663 732.224 232.743L732.205 232.786C732.364 232.904 732.525 233.021 732.686 233.136C732.957 233.253 733.215 233.491 733.359 233.625L733.495 233.722C733.597 233.795 733.7 233.869 733.808 233.951C733.937 234.066 734.111 234.239 734.211 234.418C734.294 234.505 734.376 234.594 734.46 234.685L734.678 234.919C734.767 235.02 734.964 235.207 735.172 235.406C735.437 235.658 735.71 235.918 735.858 236.091C735.902 236.147 735.965 236.212 736.035 236.286C736.249 236.507 736.52 236.789 736.583 237.098C736.606 237.211 736.602 237.328 736.556 237.446C736.396 237.839 735.928 237.92 735.586 237.979C735.531 237.988 735.478 237.997 735.437 238.006C734.612 238.223 733.943 238.334 733.321 238.356C733.161 238.349 732.999 238.333 732.837 238.316C732.685 238.301 732.533 238.285 732.383 238.278C732.192 238.312 731.445 238.387 731.073 238.285C730.914 238.21 730.761 238.168 730.6 238.125C730.629 238.647 730.554 239.142 730.482 239.621C730.455 239.799 730.429 239.976 730.406 240.162C730.281 240.895 730.106 241.547 729.899 242.316L729.853 242.453C729.697 242.915 729.44 243.689 728.764 243.62L728.764 243.62Z" fill="white"/>
<path d="M885.676 225.62L885.67 225.618C885.445 225.556 885.254 225.737 885.115 225.868C885.081 225.901 885.049 225.931 885.023 225.952C884.82 226.098 884.661 226.259 884.492 226.43C884.449 226.474 884.404 226.519 884.361 226.562C884.249 226.664 884.132 226.753 884.009 226.848C883.84 226.979 883.666 227.113 883.504 227.281C883.307 227.505 883.141 227.623 882.889 227.77C882.855 227.787 882.814 227.81 882.768 227.84C882.746 227.823 882.722 227.811 882.695 227.81C882.651 227.801 882.596 227.782 882.586 227.779C882.338 227.73 882.079 227.658 881.754 227.549C881.626 227.484 881.458 227.4 881.283 227.323C881.143 227.263 881.003 227.212 880.867 227.162C880.579 227.058 880.308 226.959 880.06 226.79C879.866 226.671 879.544 226.543 879.301 226.542C879.24 226.538 879.176 226.544 879.119 226.56L879.116 226.555C879.11 226.558 879.105 226.561 879.097 226.566C879.066 226.577 879.041 226.589 879.02 226.603L878.934 226.709L878.943 226.718C878.836 226.902 878.925 227.119 879.009 227.317C879.018 227.432 879.079 227.551 879.137 227.655C879.171 227.742 879.208 227.827 879.246 227.913C879.285 228.002 879.324 228.093 879.36 228.182C879.393 228.286 879.429 228.38 879.466 228.462C879.489 228.528 879.511 228.593 879.532 228.658C879.612 228.9 879.695 229.15 879.854 229.39C880.011 229.605 880.165 229.834 880.282 230.026C880.336 230.095 880.388 230.159 880.42 230.265C880.43 230.285 880.445 230.33 880.457 230.367C880.421 230.407 880.386 230.447 880.355 230.484C880.309 230.534 880.26 230.582 880.211 230.63C880.162 230.679 880.112 230.728 880.062 230.78C879.942 230.921 879.845 231.058 879.752 231.191C879.659 231.322 879.572 231.446 879.461 231.574C879.403 231.651 879.33 231.721 879.252 231.796C879.173 231.872 879.091 231.946 879.031 232.031L879.008 232.055C878.841 232.234 878.493 232.607 878.703 232.928C878.716 232.945 878.73 232.959 878.744 232.97C878.758 233.021 878.788 233.07 878.838 233.118C878.921 233.181 879.036 233.188 879.12 233.192L879.223 233.204C879.379 233.226 879.556 233.25 879.725 233.227C880.086 233.188 880.405 233.075 880.742 232.955C880.898 232.9 881.058 232.843 881.225 232.794C881.28 232.775 881.336 232.755 881.392 232.735C881.765 232.599 882.088 232.482 882.312 232.84C882.418 233.008 882.538 233.175 882.654 233.336C882.799 233.537 882.95 233.746 883.071 233.957C883.35 234.445 883.668 234.999 884.191 235.324C884.324 235.407 884.441 235.422 884.539 235.368C884.777 235.237 884.778 234.721 884.779 234.473L884.778 234.432C884.762 234.314 884.751 234.142 884.753 234.091L884.758 234.059C884.758 234.002 884.757 233.936 884.757 233.87C884.756 233.807 884.755 233.745 884.754 233.679C884.729 233.495 884.708 233.117 884.708 233.117C884.709 233.008 884.717 232.893 884.725 232.783C884.734 232.67 884.743 232.553 884.743 232.437C884.743 232.379 884.745 232.327 884.746 232.276L884.747 232.248C884.861 232.226 884.976 232.205 885.091 232.185C885.265 232.191 885.463 232.131 885.573 232.096L885.67 232.079C885.743 232.066 885.816 232.053 885.894 232.037C885.992 232.009 886.128 231.961 886.227 231.892C886.293 231.867 886.359 231.84 886.427 231.813L886.603 231.744C886.675 231.713 886.828 231.664 886.989 231.612C887.193 231.545 887.405 231.476 887.527 231.422C887.565 231.404 887.615 231.385 887.671 231.364C887.841 231.301 888.056 231.22 888.168 231.072C888.209 231.018 888.237 230.955 888.243 230.88C888.258 230.631 888.029 230.469 887.863 230.351C887.836 230.332 887.81 230.314 887.791 230.299C887.408 229.974 887.081 229.744 886.756 229.574C886.67 229.537 886.579 229.505 886.489 229.473C886.404 229.442 886.32 229.412 886.238 229.377C886.146 229.31 885.768 229.081 885.545 229.04C885.441 229.04 885.349 229.023 885.253 229.005C885.401 228.735 885.487 228.454 885.571 228.181C885.602 228.079 885.633 227.978 885.668 227.874C885.788 227.453 885.861 227.062 885.946 226.601L885.957 226.517C885.992 226.232 886.052 225.756 885.676 225.62L885.676 225.62Z" fill="white"/>
<path d="M1115.09 190.714L1115.08 190.712C1114.76 190.622 1114.48 190.884 1114.28 191.075C1114.23 191.121 1114.18 191.165 1114.15 191.195C1113.85 191.408 1113.62 191.642 1113.38 191.89C1113.31 191.953 1113.25 192.018 1113.19 192.081C1113.02 192.228 1112.85 192.358 1112.68 192.496C1112.43 192.685 1112.18 192.88 1111.94 193.124C1111.66 193.45 1111.42 193.619 1111.05 193.833C1111 193.857 1110.94 193.892 1110.87 193.935C1110.84 193.911 1110.81 193.893 1110.77 193.892C1110.7 193.878 1110.62 193.851 1110.61 193.847C1110.25 193.775 1109.87 193.67 1109.4 193.513C1109.22 193.419 1108.97 193.296 1108.72 193.184C1108.52 193.098 1108.31 193.024 1108.12 192.952C1107.7 192.8 1107.31 192.657 1106.95 192.412C1106.66 192.239 1106.2 192.053 1105.85 192.051C1105.76 192.046 1105.66 192.055 1105.58 192.078L1105.58 192.07C1105.57 192.075 1105.56 192.08 1105.55 192.087C1105.5 192.102 1105.47 192.119 1105.44 192.14L1105.31 192.295L1105.33 192.307C1105.17 192.574 1105.3 192.889 1105.42 193.176C1105.43 193.343 1105.52 193.516 1105.61 193.667C1105.66 193.792 1105.71 193.916 1105.76 194.041C1105.82 194.17 1105.88 194.302 1105.93 194.432C1105.98 194.582 1106.03 194.718 1106.08 194.838C1106.12 194.932 1106.15 195.027 1106.18 195.121C1106.3 195.472 1106.42 195.835 1106.65 196.183C1106.88 196.496 1107.1 196.827 1107.27 197.107C1107.35 197.206 1107.42 197.299 1107.47 197.453C1107.48 197.482 1107.5 197.547 1107.52 197.601C1107.47 197.659 1107.42 197.717 1107.37 197.771C1107.31 197.843 1107.24 197.913 1107.17 197.983C1107.09 198.053 1107.02 198.124 1106.95 198.201C1106.77 198.404 1106.63 198.603 1106.5 198.796C1106.37 198.986 1106.24 199.166 1106.08 199.352C1105.99 199.463 1105.89 199.566 1105.77 199.675C1105.66 199.785 1105.54 199.891 1105.45 200.014L1105.42 200.05C1105.18 200.31 1104.67 200.851 1104.98 201.316C1105 201.341 1105.02 201.361 1105.04 201.378C1105.06 201.451 1105.1 201.521 1105.17 201.592C1105.29 201.684 1105.46 201.693 1105.58 201.699L1105.73 201.717C1105.96 201.748 1106.22 201.784 1106.46 201.75C1106.98 201.694 1107.45 201.53 1107.94 201.356C1108.16 201.276 1108.39 201.193 1108.64 201.121C1108.72 201.095 1108.8 201.065 1108.88 201.036C1109.42 200.839 1109.89 200.668 1110.21 201.189C1110.37 201.433 1110.54 201.674 1110.71 201.908C1110.92 202.2 1111.14 202.503 1111.31 202.809C1111.72 203.517 1112.18 204.321 1112.94 204.793C1113.13 204.913 1113.3 204.935 1113.44 204.857C1113.79 204.666 1113.79 203.917 1113.79 203.557L1113.79 203.498C1113.77 203.327 1113.75 203.078 1113.75 203.003L1113.76 202.958C1113.76 202.874 1113.76 202.778 1113.76 202.682C1113.76 202.591 1113.76 202.501 1113.76 202.406C1113.72 202.139 1113.69 201.591 1113.69 201.591C1113.69 201.432 1113.7 201.266 1113.71 201.106C1113.73 200.942 1113.74 200.771 1113.74 200.604C1113.74 200.519 1113.74 200.445 1113.74 200.37L1113.75 200.329C1113.91 200.298 1114.08 200.267 1114.25 200.238C1114.5 200.247 1114.78 200.16 1114.94 200.11L1115.09 200.085C1115.19 200.066 1115.3 200.047 1115.41 200.024C1115.55 199.983 1115.75 199.913 1115.89 199.813C1115.99 199.776 1116.09 199.738 1116.18 199.699L1116.44 199.599C1116.54 199.554 1116.76 199.482 1117 199.406C1117.29 199.31 1117.6 199.21 1117.78 199.132C1117.83 199.105 1117.91 199.078 1117.99 199.048C1118.23 198.955 1118.55 198.839 1118.71 198.624C1118.77 198.545 1118.81 198.454 1118.82 198.346C1118.84 197.984 1118.51 197.749 1118.27 197.577C1118.23 197.55 1118.19 197.523 1118.16 197.502C1117.61 197.03 1117.13 196.698 1116.66 196.451C1116.54 196.397 1116.4 196.35 1116.27 196.303C1116.15 196.259 1116.03 196.215 1115.91 196.165C1115.77 196.068 1115.23 195.735 1114.9 195.676C1114.75 195.675 1114.62 195.651 1114.48 195.625C1114.69 195.233 1114.82 194.825 1114.94 194.429C1114.99 194.282 1115.03 194.136 1115.08 193.985C1115.26 193.374 1115.36 192.806 1115.49 192.138L1115.5 192.016C1115.55 191.602 1115.64 190.911 1115.09 190.714L1115.09 190.714Z" fill="white"/>
<defs>
<filter id="filter0_f_1455_1477" x="591.342" y="-165.186" width="1074.68" height="712.89" filterUnits="userSpaceOnUse" color-interpolation-filters="sRGB">
<feFlood flood-opacity="0" result="BackgroundImageFix"/>
<feBlend mode="normal" in="SourceGraphic" in2="BackgroundImageFix" result="shape"/>
<feGaussianBlur stdDeviation="45.85" result="effect1_foregroundBlur_1455_1477"/>
</filter>
<filter id="filter1_f_1455_1477" x="492.519" y="-246.371" width="1302.24" height="811.109" filterUnits="userSpaceOnUse" color-interpolation-filters="sRGB">
<feFlood flood-opacity="0" result="BackgroundImageFix"/>
<feBlend mode="normal" in="SourceGraphic" in2="BackgroundImageFix" result="shape"/>
<feGaussianBlur stdDeviation="45.85" result="effect1_foregroundBlur_1455_1477"/>
</filter>
<filter id="filter2_f_1455_1477" x="444.914" y="-250.521" width="1057.04" height="798.425" filterUnits="userSpaceOnUse" color-interpolation-filters="sRGB">
<feFlood flood-opacity="0" result="BackgroundImageFix"/>
<feBlend mode="normal" in="SourceGraphic" in2="BackgroundImageFix" result="shape"/>
<feGaussianBlur stdDeviation="45.85" result="effect1_foregroundBlur_1455_1477"/>
</filter>
<filter id="filter3_f_1455_1477" x="978.66" y="93.1328" width="72.0762" height="72.0762" filterUnits="userSpaceOnUse" color-interpolation-filters="sRGB">
<feFlood flood-opacity="0" result="BackgroundImageFix"/>
<feBlend mode="normal" in="SourceGraphic" in2="BackgroundImageFix" result="shape"/>
<feGaussianBlur stdDeviation="12.25" result="effect1_foregroundBlur_1455_1477"/>
</filter>
<filter id="filter4_f_1455_1477" x="794.341" y="111.37" width="35.6014" height="35.6014" filterUnits="userSpaceOnUse" color-interpolation-filters="sRGB">
<feFlood flood-opacity="0" result="BackgroundImageFix"/>
<feBlend mode="normal" in="SourceGraphic" in2="BackgroundImageFix" result="shape"/>
<feGaussianBlur stdDeviation="6.55" result="effect1_foregroundBlur_1455_1477"/>
</filter>
<filter id="filter5_f_1455_1477" x="709.729" y="217.348" width="35.6014" height="35.6014" filterUnits="userSpaceOnUse" color-interpolation-filters="sRGB">
<feFlood flood-opacity="0" result="BackgroundImageFix"/>
<feBlend mode="normal" in="SourceGraphic" in2="BackgroundImageFix" result="shape"/>
<feGaussianBlur stdDeviation="6.55" result="effect1_foregroundBlur_1455_1477"/>
</filter>
<filter id="filter6_f_1455_1477" x="1093.47" y="179.743" width="35.6014" height="35.6014" filterUnits="userSpaceOnUse" color-interpolation-filters="sRGB">
<feFlood flood-opacity="0" result="BackgroundImageFix"/>
<feBlend mode="normal" in="SourceGraphic" in2="BackgroundImageFix" result="shape"/>
<feGaussianBlur stdDeviation="6.55" result="effect1_foregroundBlur_1455_1477"/>
</filter>
<filter id="filter7_f_1455_1477" x="866.132" y="214.784" width="33.0369" height="33.0374" filterUnits="userSpaceOnUse" color-interpolation-filters="sRGB">
<feFlood flood-opacity="0" result="BackgroundImageFix"/>
<feBlend mode="normal" in="SourceGraphic" in2="BackgroundImageFix" result="shape"/>
<feGaussianBlur stdDeviation="6.55" result="effect1_foregroundBlur_1455_1477"/>
</filter>
<filter id="filter8_f_1455_1477" x="1202.02" y="205.383" width="33.0369" height="33.0374" filterUnits="userSpaceOnUse" color-interpolation-filters="sRGB">
<feFlood flood-opacity="0" result="BackgroundImageFix"/>
<feBlend mode="normal" in="SourceGraphic" in2="BackgroundImageFix" result="shape"/>
<feGaussianBlur stdDeviation="6.55" result="effect1_foregroundBlur_1455_1477"/>
</filter>
<filter id="filter9_f_1455_1477" x="1202.02" y="112.224" width="33.0369" height="33.0374" filterUnits="userSpaceOnUse" color-interpolation-filters="sRGB">
<feFlood flood-opacity="0" result="BackgroundImageFix"/>
<feBlend mode="normal" in="SourceGraphic" in2="BackgroundImageFix" result="shape"/>
<feGaussianBlur stdDeviation="6.55" result="effect1_foregroundBlur_1455_1477"/>
</filter>
<linearGradient id="paint0_linear_1455_1477" x1="719.893" y1="-278.155" x2="620.636" y2="774.309" gradientUnits="userSpaceOnUse">
<stop stop-color="#46409C"/>
<stop offset="1" stop-color="#635ACE"/>
</linearGradient>
<linearGradient id="paint1_linear_1455_1477" x1="1190.54" y1="225.235" x2="782.585" y2="440.407" gradientUnits="userSpaceOnUse">
<stop stop-color="#71D9CE"/>
<stop offset="1" stop-color="#5953C4"/>
</linearGradient>
<linearGradient id="paint2_linear_1455_1477" x1="1292.89" y1="-39.1985" x2="790.249" y2="484.6" gradientUnits="userSpaceOnUse">
<stop stop-color="#719BD9"/>
<stop offset="1" stop-color="#5A53C5"/>
</linearGradient>
<linearGradient id="paint3_linear_1455_1477" x1="1012.3" y1="236.972" x2="604.357" y2="451.319" gradientUnits="userSpaceOnUse">
<stop stop-color="#71C0D9"/>
<stop offset="1" stop-color="#5953C3"/>
</linearGradient>
<linearGradient id="paint4_linear_1455_1477" x1="820.615" y1="-3.12484" x2="820.615" y2="653.138" gradientUnits="userSpaceOnUse">
<stop stop-color="#4247C2"/>
<stop offset="1" stop-color="#CFC7FF" stop-opacity="0.1"/>
</linearGradient>
<clipPath id="clip0_1455_1477">
<rect width="1641.81" height="655.069" fill="white" transform="translate(-125 -8.85791)"/>
</clipPath>
</defs>
</svg>
