<svg width="1750" height="515" viewBox="0 0 1750 515" fill="none" xmlns="http://www.w3.org/2000/svg">
<path d="M1379.39 272.314C1309.75 272.047 1240.91 271.784 1171.27 271.518C1126.44 271.346 1081.62 271.175 1036 269.365C978.375 267.042 920.73 268.69 863.08 271.04C835.857 272.104 808.637 272.7 781.421 272.596C650.143 272.094 518.862 272.059 387.589 270.622C293.137 269.56 198.691 267.33 104.233 267.202C81.0193 267.114 58.5992 268.196 36.1723 270.446C18.5509 272.248 8.12195 276.18 4.88207 282.709C-0.786355 293.901 -0.0497041 304.884 7.09086 315.892C11.8517 323.152 21.444 325.525 40.6636 324.197C111.139 318.626 183.163 322.172 253.603 322.909C280.017 323.244 305.628 324.042 332.044 324.144C451.311 325.301 571.372 327.629 690.645 327.618C767.493 327.678 843.549 326.1 919.612 323.354C965.25 321.66 1011.68 322.304 1058.09 324.351C1074.1 325.113 1089.31 325.405 1105.31 325.466C1293.43 326.186 1481.54 326.905 1668.85 327.622C1672.85 327.637 1676.86 327.652 1681.66 327.671C1708.88 327.541 1711.28 326.85 1716.14 317.29C1721.81 306.565 1721.87 295.818 1716.33 285.05C1711.58 274.986 1708.39 273.806 1679.57 273.462C1638.75 273.072 1597.92 273.15 1557.1 272.993C1499.46 272.773 1439.43 272.543 1379.39 272.314Z" fill="#E9E8FF"/>
<path d="M222.754 404.854C349.22 406.97 476.486 409.089 602.951 411.204C608.554 411.226 613.356 411.477 618.959 411.499C723.82 412.132 828.667 415.098 933.532 415.032C1016.78 414.884 1099.22 417.997 1181.65 420.178C1187.26 420.2 1192.06 420.451 1197.66 420.473C1336.14 422.168 1474.61 425.029 1613.09 425.091C1634.7 425.174 1657.11 426.426 1678.72 426.508C1705.14 426.609 1712.36 424.537 1718.81 415.699C1726.88 404.767 1726.14 393.569 1719 382.58C1713.45 374.628 1705.46 372.265 1681.45 371.474C1662.24 370.934 1643.83 370.864 1624.61 371.024C1483.72 371.185 1343.66 368.318 1202.78 366.147C1108.33 364.854 1014.69 361.93 920.245 359.704C909.84 359.431 899.435 359.391 889.028 359.351C740.935 359.719 593.665 356.124 445.586 354.159C388.755 353.476 331.918 353.725 275.903 350.479C248.695 348.976 221.464 351.437 194.247 351.334C153.423 351.178 112.601 350.788 71.7737 351.099C25.3448 351.155 9.30034 357.158 8.40631 373.248C8.37241 379.079 7.53639 385.14 11.5049 390.986C16.2697 397.535 26.6531 401.54 44.2541 403.24C57.854 404.691 70.6589 405.206 84.267 405.258C130.694 405.436 176.321 405.61 222.749 405.787C222.75 405.554 222.752 405.321 222.754 404.854Z" fill="#E9E8FF"/>
<path d="M872.249 199.955C619.298 198.986 366.346 198.017 114.195 197.052C94.9837 196.978 76.5756 196.44 57.3654 196.132C36.5543 195.819 25.3324 198.349 20.4889 205.346C11.6131 217.474 13.1438 229.641 21.0781 241.833C23.4565 245.818 31.4473 248.187 42.6486 249.165C57.0491 250.624 71.4552 251.147 85.8638 251.202C618.983 253.243 1151.3 255.282 1684.42 257.323C1719.64 257.458 1723.65 256.538 1727.73 243.924C1730.98 234.348 1731.04 224.526 1727.09 214.922C1723.15 205.318 1717.55 203.659 1690.34 203.087C1679.93 202.814 1669.53 203.008 1659.12 202.968C1396.56 201.962 1134.81 200.96 872.249 199.955Z" fill="#E9E8FF"/>
<path d="M228.493 70.7666C379.805 67.3799 530.279 70.5197 681.577 69.6982C738.413 69.4488 793.672 65.2289 850.519 63.1139C892.153 61.6404 933.787 60.1669 976.214 60.0957C1030.65 60.0704 1085.08 59.8118 1139.52 59.0869C1213.97 58.2051 1288.39 62.2206 1362.03 64.3674C1459.67 67.3055 1554.88 75.8313 1652.54 76.2042C1673.35 76.2836 1694.15 78.2287 1714.96 78.7746C1738.17 79.3296 1742.98 78.182 1746.23 70.0321C1751.1 59.09 1750.36 47.6602 1747.22 36.6875C1744.88 27.3503 1737.68 25.9235 1711.27 24.4235C1659.26 21.4264 1606.42 22.1575 1554.41 19.1604C1473.58 14.654 1391.95 11.0775 1311.12 8.20358C1233.49 5.34188 1156.66 2.94964 1078.99 5.45157C1055.78 6.06254 1032.56 5.9739 1010.15 5.88831C929.303 5.34641 849.236 8.53876 769.164 12.4307C725.124 14.5946 681.889 16.062 637.863 15.8939C573.024 15.6463 507.384 15.6289 442.547 15.1481C394.519 14.9647 346.481 16.4137 298.442 18.0959C260.811 19.3515 223.192 18.7414 185.569 18.5977C149.548 18.4602 114.322 19.2585 79.0928 20.5232C42.2628 21.7818 35.0409 24.7859 30.9626 37.8299C29.3264 43.887 30.0929 49.7201 33.2609 55.5624C38.0068 65.3751 42.0037 66.3232 69.2131 67.5932C122.033 69.6605 174.862 70.3286 228.493 70.7666Z" fill="#E9E8FF"/>
<path d="M1397.09 102.233C1288.2 106.945 1179.36 102.334 1070.48 104.949C998.423 106.771 925.58 106.493 853.532 107.15C793.491 107.854 735.036 111.126 675.786 113.464C623.742 115.596 571.701 117.262 518.869 117.06C425.214 116.703 332.359 116.348 238.701 116.457C197.876 116.534 157.05 116.611 117.004 120.421C71.3497 124.907 64.9299 127.68 64.0331 144.223C63.9992 150.049 63.1633 156.105 64.7304 161.938C67.0857 169.87 74.2776 171.995 95.0953 171.143C220.798 166.728 346.452 170.703 472.129 170.717C565.786 170.841 658.658 168.166 750.737 164.322C789.17 162.604 827.598 161.819 866.825 161.269C952.483 160.431 1038.94 159.13 1124.6 158.291C1127.8 158.303 1131.01 158.083 1134.21 158.095C1221.46 158.428 1307.91 158.525 1395.18 156.76C1451.22 155.576 1505.63 159.745 1560.04 163.682C1599.24 166.395 1638.45 168.642 1677.66 171.122C1688.87 171.864 1696.08 170.493 1697.7 166.304C1705.79 152.585 1705.07 139.065 1697.94 125.288C1695.57 120.851 1687.58 118.024 1675.58 116.813C1666.78 115.847 1657.18 114.878 1648.38 114.378C1599.56 112.561 1551.55 108.416 1502.74 105.433C1468.33 103.437 1433.12 102.137 1397.09 102.233Z" fill="#E9E8FF"/>
<path d="M1019.7 452.067C871.611 452.153 723.52 452.238 576.229 452.324C523.396 452.354 471.364 452.84 419.331 453.783C341.683 455.424 264.036 452.504 187.19 448.899C155.972 447.321 125.554 445.286 93.533 447.813C67.1157 449.881 58.3093 451.939 53.5019 460.837C49.4955 468.822 49.4919 476.805 54.2909 484.785C60.6899 494.817 68.6935 497.549 98.3111 498.9C131.931 500.478 164.751 501.599 198.371 502.948C272.015 506.099 346.46 508.336 420.906 507.381C751.512 503.312 1082.11 505.858 1411.92 505.439C1477.56 505.401 1544 506.731 1610.44 506.693C1651.27 506.669 1660.07 504.384 1664.88 490.24C1667.29 482.256 1668.09 474.272 1663.29 466.292C1657.69 456.716 1648.89 454.44 1620.87 453.544C1536.82 451.084 1452.77 452.273 1369.52 452.093C1252.65 451.704 1136.57 452 1019.7 452.067Z" fill="#E9E8FF"/>
</svg>
