<svg width="1771" height="579" viewBox="0 0 1771 579" fill="none" xmlns="http://www.w3.org/2000/svg">
<path d="M1395.51 308.515C1325.07 308.183 1255.43 307.855 1184.99 307.523C1139.64 307.309 1094.3 307.095 1048.15 305.051C989.863 302.427 931.553 304.24 873.24 306.837C845.703 308.012 818.17 308.666 790.639 308.536C657.845 307.91 525.049 307.807 392.26 306.137C296.717 304.904 201.18 302.365 105.632 302.176C82.1504 302.065 59.4722 303.264 36.7878 305.767C18.9641 307.771 8.41718 312.159 5.14387 319.453C-0.583197 331.956 0.168614 344.229 7.39827 356.532C12.2184 364.646 21.9229 367.303 41.3635 365.828C112.649 359.638 185.507 363.636 256.759 364.494C283.479 364.88 309.386 365.786 336.107 365.912C456.751 367.263 578.199 369.924 698.849 369.97C776.583 370.075 853.517 368.35 930.456 365.319C976.62 363.448 1023.58 364.191 1070.53 366.501C1086.73 367.36 1102.11 367.694 1118.3 367.77C1308.59 368.666 1498.87 369.563 1688.34 370.456C1692.39 370.475 1696.44 370.494 1701.3 370.517C1728.83 370.386 1731.26 369.614 1736.17 358.934C1741.9 346.954 1741.95 334.946 1736.34 322.912C1731.54 311.664 1728.3 310.344 1699.16 309.945C1657.86 309.49 1616.56 309.556 1575.27 309.362C1516.97 309.087 1456.24 308.801 1395.51 308.515Z" fill="#E9E8FF"/>
<path d="M225.544 457.278C353.471 459.708 482.207 462.141 610.134 464.572C615.802 464.598 620.659 464.882 626.327 464.909C732.399 465.67 838.459 469.041 944.534 469.019C1028.75 468.893 1112.13 472.419 1195.52 474.9C1201.19 474.927 1206.05 475.211 1211.72 475.237C1351.79 477.203 1491.86 480.473 1631.95 480.611C1653.81 480.714 1676.47 482.126 1698.34 482.229C1725.06 482.355 1732.36 480.04 1738.88 470.151C1747.03 457.921 1746.28 445.387 1739.05 433.084C1733.43 424.182 1725.34 421.534 1701.06 420.636C1681.63 420.023 1663 419.935 1643.57 420.104C1501.05 420.216 1359.36 416.938 1216.86 414.439C1121.32 412.945 1026.6 409.627 931.06 407.089C920.535 406.778 910.009 406.728 899.483 406.679C749.68 407.017 600.708 402.922 450.917 400.65C393.43 399.857 335.937 400.108 279.273 396.447C251.75 394.751 224.206 397.493 196.676 397.363C155.38 397.169 114.086 396.713 72.7876 397.041C25.8227 397.08 9.59664 403.791 8.70205 421.798C8.6713 428.324 7.82931 435.107 11.8472 441.652C16.671 448.984 27.1767 453.471 44.9819 455.383C58.7398 457.014 71.6928 457.597 85.458 457.662C132.422 457.883 178.575 458.1 225.539 458.322C225.54 458.061 225.542 457.8 225.544 457.278Z" fill="#E9E8FF"/>
<path d="M882.517 226.481C626.646 225.275 370.775 224.07 115.714 222.868C96.2806 222.776 77.6598 222.166 58.2278 221.814C37.1763 221.454 25.8264 224.272 20.9312 232.08C11.9604 245.612 13.5162 259.193 21.5494 272.805C23.9576 277.254 32.0421 279.902 43.3732 281C57.9408 282.635 72.5134 283.226 87.0884 283.294C626.361 285.835 1164.82 288.372 1704.1 290.913C1739.72 291.081 1743.78 290.056 1747.89 275.979C1751.18 265.292 1751.23 254.329 1747.23 243.607C1743.24 232.886 1737.58 231.032 1710.05 230.38C1699.52 230.069 1689 230.281 1678.47 230.231C1412.88 228.98 1148.1 227.732 882.517 226.481Z" fill="#E9E8FF"/>
<path d="M231.37 79.3178C384.427 75.6013 536.641 79.1899 689.685 78.3448C747.177 78.0936 803.071 73.3972 860.574 71.0578C902.688 69.4289 944.801 67.8001 987.717 67.7412C1042.78 67.7397 1097.84 67.477 1152.91 66.6923C1228.22 65.742 1303.5 70.2734 1377.99 72.7127C1476.76 76.0495 1573.07 85.6397 1671.86 86.1052C1692.91 86.2044 1713.95 88.3919 1735 89.0131C1758.48 89.6459 1763.35 88.3636 1766.63 79.2426C1771.55 66.9969 1770.8 54.2024 1767.62 41.9185C1765.24 31.4657 1757.96 29.8651 1731.24 28.173C1678.62 24.7926 1625.18 25.5849 1572.56 22.2045C1490.8 17.1205 1408.23 13.0769 1326.46 9.82017C1247.93 6.5787 1170.21 3.86311 1091.65 6.62544C1068.17 7.2979 1044.68 7.18726 1022.01 7.08044C940.232 6.43406 859.242 9.96804 778.248 14.2851C733.701 16.6856 689.968 18.3068 645.433 18.097C579.846 17.788 513.448 17.7361 447.862 17.1661C399.279 16.9372 350.687 18.5355 302.095 20.3948C264.03 21.7817 225.976 21.0803 187.919 20.901C151.482 20.7293 115.849 21.6056 80.2144 23.0039C42.96 24.3946 35.6566 27.7537 31.5391 42.3526C29.8877 49.1319 30.6666 55.6616 33.8747 62.2027C38.6813 73.189 42.725 74.2523 70.2493 75.6872C123.681 78.0273 177.12 78.8011 231.37 79.3178Z" fill="#E9E8FF"/>
<path d="M1413.42 116.213C1303.27 121.437 1193.17 116.219 1083.03 119.094C1010.15 121.1 936.464 120.752 863.585 121.453C802.851 122.211 743.723 125.848 683.79 128.437C631.146 130.8 578.505 132.64 525.064 132.388C430.327 131.942 336.399 131.499 241.66 131.575C200.363 131.641 159.066 131.708 118.559 135.955C72.3809 140.958 65.8886 144.06 64.9915 162.589C64.9608 169.115 64.1189 175.898 65.7076 182.432C68.0949 191.318 75.3712 193.702 96.4288 192.757C223.58 187.874 350.688 192.389 477.816 192.466C572.554 192.651 666.498 189.7 759.637 185.44C798.514 183.535 837.385 182.674 877.065 182.078C963.711 181.181 1051.17 179.766 1137.82 178.869C1141.05 178.884 1144.29 178.639 1147.53 178.654C1235.79 179.07 1323.24 179.221 1411.51 177.287C1468.2 175.988 1523.24 180.685 1578.28 185.121C1617.94 188.179 1657.61 190.716 1697.27 193.513C1708.61 194.35 1715.9 192.818 1717.54 188.127C1725.71 172.764 1724.97 157.62 1717.76 142.185C1715.35 137.213 1707.27 134.043 1695.13 132.68C1686.23 131.594 1676.52 130.504 1667.61 129.94C1618.23 127.88 1569.67 123.214 1520.29 119.849C1485.48 117.596 1449.86 116.123 1413.42 116.213Z" fill="#E9E8FF"/>
<path d="M1031.8 511.718C882.002 511.012 732.204 510.306 583.216 509.604C529.775 509.352 477.14 509.626 424.504 510.423C345.953 511.88 267.426 508.116 189.713 503.573C158.142 501.597 127.384 499.103 94.9817 501.822C68.25 504.045 59.332 506.353 54.4257 516.51C50.3341 525.627 50.2913 534.763 55.1066 543.922C61.5302 555.438 69.6126 558.609 99.5648 560.316C133.564 562.304 166.757 563.766 200.757 565.492C275.234 569.497 350.526 572.463 425.834 571.773C760.269 568.911 1094.67 573.62 1428.27 574.93C1494.67 575.243 1561.87 577.126 1629.08 577.443C1670.37 577.637 1679.29 575.069 1684.23 558.908C1686.7 549.783 1687.55 540.651 1682.73 531.492C1677.12 520.501 1668.22 517.849 1639.89 516.671C1554.88 513.399 1469.86 514.304 1385.65 513.646C1267.43 512.567 1150.02 512.275 1031.8 511.718Z" fill="#E9E8FF"/>
</svg>
