<svg width="567" height="381" viewBox="0 0 567 381" fill="none" xmlns="http://www.w3.org/2000/svg">
<mask id="mask0_1455_1879" style="mask-type:alpha" maskUnits="userSpaceOnUse" x="0" y="0" width="567" height="381">
<path d="M0 80C0 35.8172 35.8172 0 80 0H487C531.183 0 567 35.8172 567 80V350.747C567 367.316 553.569 380.747 537 380.747H0V80Z" fill="white"/>
</mask>
<g mask="url(#mask0_1455_1879)">
<path d="M265.244 441.937C343.705 449.361 495.716 462.408 603.212 414.903C686.551 378.073 657.619 300.557 620.453 239.345C583.287 178.133 533.121 226.757 481.233 221.247C420.109 214.755 243.841 173.609 197.783 247.916C151.725 322.222 48.05 300.29 24.603 366.495C1.15602 432.7 186.783 434.513 265.244 441.937Z" fill="#675FCC"/>
<path d="M140.514 426.898C218.964 432.694 548.111 434.933 655.672 397.008C739.06 367.606 710.235 306.003 673.154 257.378C636.072 208.752 585.84 247.487 533.96 243.177C472.846 238.099 296.636 205.62 250.476 264.774C204.316 323.927 113.652 309.883 50.272 368.797C8.01104 408.08 62.0638 421.102 140.514 426.898Z" fill="url(#paint0_linear_1455_1879)"/>
</g>
<path d="M507.621 335.16C507.621 335.16 373.884 338.95 371.815 337.658C371.815 337.658 371.349 335.11 376.695 330.459C382.041 325.808 393.026 329.26 391.905 324.953C390.784 320.646 359.568 244.014 362.155 186.991C364.483 136.343 392.854 98.7998 398.89 91.5643C399.666 90.7029 396.993 89.8416 396.562 88.7218C395.699 86.3099 393.371 83.7258 390.698 82.3476C386.646 80.3665 370.349 86.3715 364.359 89.7292C363.066 89.7292 365.054 87.681 376.867 79.3257C388.68 70.9705 390.774 62.9318 394.137 58.8834C397.5 54.8349 416.307 41.6048 433.208 50.4769C450.108 59.349 479.597 114.046 486.668 164.953C493.738 215.86 466.232 293.211 466.232 293.211C466.232 293.211 452.35 317.416 474.337 322.325C496.325 327.235 507.621 335.16 507.621 335.16Z" fill="#F6F6F8"/>
<path d="M361.466 91.5648C361.466 91.5648 362.099 87.0718 371.411 81.4729C379.085 76.8215 386.14 71.0489 388.164 67.4597C390.16 63.9206 392.435 59.3237 397.163 55.1288C407.942 45.5676 433.378 38.8489 451.141 65.6375C467.093 89.5836 460.367 86.5688 473.129 110.687C485.89 134.806 496.496 180.027 488.132 218.186C479.768 256.345 469.651 284.998 477.014 307.283C484.378 329.568 508.419 328.486 517.985 338.403C514.698 338.403 460.108 337.228 435.62 337.314C435.62 337.314 463.9 327.205 459.847 312.648C455.794 298.091 453.297 288.216 454.849 269.179C456.487 250.143 458.643 215.43 455.711 225.766C452.779 236.103 445.795 262.547 442.001 279.946C438.207 297.346 437.172 307.596 423.98 281.066C410.787 254.536 403.63 236.878 421.997 201.992C440.363 167.107 434.241 102.59 425.273 101.384C416.306 100.178 406.125 96.2799 394.884 88.5186C383.644 80.7573 381.825 83.7848 361.811 91.9093C361.811 91.9093 361.466 91.737 361.466 91.5648Z" fill="#3A357A"/>
<path d="M407.08 70.0305C407.08 70.0305 404.149 65.8959 407.08 62.7089C410.012 59.5218 416.996 58.9188 418.203 63.6564C419.411 68.3939 414.841 77.4383 407.08 70.0305Z" fill="#F5F4FE"/>
<path d="M408.804 68.8246C408.804 68.8246 406.907 66.0682 408.804 64.0009C410.701 61.9336 415.271 61.5029 416.047 64.6039C416.823 67.7048 413.891 73.6483 408.804 68.8246Z" fill="#3A357A"/>
<path d="M418.981 80.3669C418.981 80.3669 412.945 78.558 423.896 73.2175C434.846 67.877 440.279 74.9402 433.381 78.1273C426.482 81.3144 421.826 81.7451 418.981 80.3669Z" fill="#F6F6F8"/>
<path d="M546.092 83.7127C548.256 84.2021 548.228 91.2436 549.103 93.407C550.965 93.3293 559.611 95.4503 559.566 97.0196C559.45 98.2792 557.147 99.0906 556.266 99.6611C554.433 101.033 552.073 101.454 550.267 102.837C550.327 103.363 550.421 103.881 550.495 104.405C550.67 106.29 551.93 111.266 549.505 111.66C548.83 111.68 547.773 110.904 547.323 110.48C546.138 109.431 545.237 107.985 544.342 106.686C542.829 104.497 540.649 105.793 538.576 106.75C537.615 107.193 533.749 109.182 532.982 107.581C532.654 106.901 533.482 105.731 533.88 105.17C535.104 103.508 536.365 101.904 537.531 100.191C536.779 99.4085 536.013 98.6685 535.273 97.8693C534.191 96.5143 533.31 94.933 532.334 93.4914C531.949 92.9228 531.421 92.1447 531.819 91.4784C532.186 90.8907 532.963 90.8913 533.531 90.8914C536.435 90.8875 538.265 91.0543 541.494 92.0453C542.362 89.8422 544.094 83.2607 546.092 83.7127Z" fill="#E2D8FF"/>
<path d="M305.581 36.3106C308.944 37.0712 308.901 48.0208 310.261 51.3846C313.156 51.2635 326.601 54.5606 326.53 57.0009C326.349 58.9594 322.768 60.2215 321.398 61.1088C318.547 63.2421 314.878 63.8978 312.07 66.0484C312.163 66.8663 312.309 67.6709 312.424 68.486C312.696 71.4176 314.654 79.1544 310.883 79.7675C309.834 79.799 308.191 78.5916 307.491 77.9331C305.649 76.3028 304.247 74.0537 302.856 72.0342C300.504 68.6295 297.113 70.6465 293.89 72.1337C292.395 72.8231 286.384 75.9166 285.191 73.4267C284.682 72.3689 285.969 70.5503 286.588 69.6771C288.491 67.0938 290.453 64.5998 292.266 61.9351C291.096 60.7185 289.905 59.5679 288.756 58.3252C287.073 56.2183 285.703 53.7596 284.186 51.5181C283.588 50.634 282.767 49.424 283.384 48.388C283.955 47.4741 285.164 47.4748 286.047 47.475C290.563 47.4685 293.408 47.7276 298.43 49.2682C299.779 45.8423 302.474 35.608 305.581 36.3106Z" fill="#FFCD1E"/>
<path d="M234.784 107.019C235.731 106.237 238.811 108.634 240.057 108.984C240.653 108.142 244.513 105.073 245.186 105.624C245.699 106.102 245.275 107.385 245.227 107.965C245.208 109.232 244.593 110.409 244.588 111.668C244.839 111.82 245.098 111.954 245.353 112.099C246.24 112.661 248.849 113.795 248.201 114.991C247.981 115.293 247.282 115.493 246.944 115.547C246.083 115.711 245.143 115.615 244.27 115.568C242.797 115.488 242.627 116.883 242.344 118.115C242.213 118.686 241.776 121.053 240.814 120.847C240.404 120.76 240.172 120.001 240.06 119.637C239.746 118.538 239.47 117.442 239.113 116.351C238.515 116.415 237.93 116.5 237.329 116.553C236.368 116.569 235.376 116.419 234.413 116.358C234.033 116.334 233.513 116.302 233.355 115.902C233.222 115.542 233.485 115.202 233.678 114.953C234.66 113.68 235.353 112.935 236.882 111.856C236.209 110.729 233.908 107.741 234.784 107.019Z" fill="#E2D8FF"/>
<path d="M480.284 28.2183C481.406 28.4721 481.392 32.1242 481.846 33.2462C482.811 33.2059 487.295 34.306 487.272 35.1199C487.212 35.7731 486.017 36.194 485.56 36.4899C484.61 37.2013 483.386 37.4199 482.449 38.1372C482.48 38.41 482.529 38.6784 482.567 38.9502C482.658 39.928 483.311 42.5086 482.054 42.713C481.704 42.7235 481.156 42.3207 480.922 42.1011C480.308 41.5572 479.84 40.807 479.376 40.1334C478.591 38.9977 477.46 39.6704 476.385 40.1663C475.887 40.3962 473.882 41.4279 473.484 40.5974C473.314 40.2446 473.743 39.638 473.95 39.3468C474.585 38.4852 475.239 37.6534 475.844 36.7647C475.453 36.3589 475.056 35.975 474.673 35.5605C474.111 34.8578 473.654 34.0376 473.148 33.29C472.949 32.9951 472.675 32.5915 472.881 32.2459C473.071 31.9411 473.474 31.9414 473.769 31.9415C475.275 31.9395 476.224 32.0259 477.899 32.5399C478.349 31.3973 479.248 27.9838 480.284 28.2183Z" fill="#E2D8FF"/>
<g clip-path="url(#clip0_1455_1879)">
<path d="M265.456 339.11C265.456 339.11 355.326 341.657 356.717 340.788C356.717 340.788 357.03 339.076 353.437 335.951C349.845 332.825 342.463 335.145 343.217 332.251C343.97 329.356 364.947 277.86 363.208 239.541C361.644 205.505 342.579 180.277 338.523 175.415C338.001 174.836 339.798 174.257 340.087 173.504C340.667 171.884 342.231 170.147 344.027 169.221C346.751 167.89 357.702 171.925 361.727 174.181C362.596 174.181 361.26 172.805 353.322 167.19C345.383 161.576 343.977 156.174 341.717 153.453C339.457 150.733 326.818 141.842 315.461 147.804C304.104 153.766 284.288 190.522 279.536 224.731C274.785 258.941 293.269 310.92 293.269 310.92C293.269 310.92 302.598 327.186 287.822 330.485C273.047 333.784 265.456 339.11 265.456 339.11Z" fill="#F6F6F8"/>
<path d="M363.673 175.415C363.673 175.415 363.428 169.849 357.17 166.087C352.013 162.961 348.623 152.946 347.263 150.535C345.922 148.156 344.394 145.067 341.216 142.248C333.973 135.823 314.505 134.347 302.568 152.349C291.849 168.441 297.212 172.058 288.636 188.265C280.06 204.472 272.933 234.861 278.554 260.504C284.174 286.146 290.973 305.401 286.025 320.376C281.076 335.352 264.921 334.625 258.493 341.289C260.701 341.289 297.385 340.499 313.841 340.557C313.841 340.557 294.838 333.764 297.561 323.982C300.285 314.199 301.963 307.563 300.92 294.771C299.819 281.979 298.37 258.651 300.341 265.598C302.311 272.544 307.004 290.314 309.554 302.006C312.103 313.699 312.798 320.587 321.664 302.759C330.529 284.931 335.338 273.065 322.996 249.622C310.655 226.179 314.768 182.824 320.795 182.014C326.821 181.203 333.662 178.583 341.216 173.368C348.769 168.152 349.991 170.187 363.441 175.646C363.441 175.646 363.673 175.531 363.673 175.415Z" fill="#3A357A"/>
<path d="M335.585 165.803C337.149 167.845 345.943 169.206 347.507 170.227L345.553 170.907C342.882 170.113 337.149 169.206 335.585 165.803Z" fill="#312D65"/>
<path d="M336.014 160.561C336.014 160.561 339.021 156.593 336.014 153.535C333.007 150.477 325.843 149.898 324.605 154.444C323.367 158.99 328.054 167.669 336.014 160.561Z" fill="#F5F4FE"/>
<path d="M334.01 159.688C334.01 159.688 336.066 156.729 334.01 154.51C331.954 152.291 327.001 151.829 326.16 155.157C325.319 158.486 328.496 164.866 334.01 159.688Z" fill="#3A357A"/>
<path d="M325.024 167.89C325.024 167.89 329.08 166.675 321.721 163.086C314.362 159.497 310.711 164.243 315.347 166.385C319.982 168.527 323.111 168.816 325.024 167.89Z" fill="#F6F6F8"/>
</g>
<path d="M409.246 78.1885C405.84 80.7404 386.681 82.4417 383.274 83.7177L387.532 84.5683C393.351 83.5759 405.84 82.4417 409.246 78.1885Z" fill="#312D65"/>
<defs>
<linearGradient id="paint0_linear_1455_1879" x1="363.398" y1="460.711" x2="376.827" y2="195.826" gradientUnits="userSpaceOnUse">
<stop stop-color="#46409C"/>
<stop offset="1" stop-color="#635ACE"/>
</linearGradient>
<clipPath id="clip0_1455_1879">
<rect width="109.856" height="211.722" fill="white" transform="matrix(-1 2.01844e-09 2.02261e-09 1 366.249 129.276)"/>
</clipPath>
</defs>
</svg>
