<svg width="689" height="463" viewBox="0 0 689 463" fill="none" xmlns="http://www.w3.org/2000/svg">
<mask id="mask0_1304_552" style="mask-type:alpha" maskUnits="userSpaceOnUse" x="0" y="0" width="689" height="463">
<path d="M0.0195312 80.1187C0.0195312 35.9359 35.8368 0.118652 80.0195 0.118652H608.02C652.202 0.118652 688.02 35.9359 688.02 80.1187V402.119C688.02 435.256 661.157 462.119 628.02 462.119H0.0195312V80.1187Z" fill="white"/>
</mask>
<g mask="url(#mask0_1304_552)">
<path d="M321.867 536.366C417.073 545.375 601.523 561.206 731.959 503.563C833.083 458.873 797.977 364.815 752.88 290.541C707.783 216.266 646.91 275.266 583.95 268.58C509.782 260.703 295.898 210.776 240.01 300.94C184.123 391.104 58.3235 364.492 29.8728 444.825C1.42212 525.158 226.662 527.358 321.867 536.366Z" fill="#675FCC"/>
<path d="M170.52 518.119C265.711 525.152 665.099 527.869 795.614 481.85C896.798 446.173 861.821 371.425 816.827 312.422C771.832 253.419 710.879 300.421 647.928 295.19C573.772 289.029 359.958 249.619 303.947 321.396C247.937 393.173 137.925 376.132 61.0195 447.619C9.73984 495.285 75.3277 511.086 170.52 518.119Z" fill="url(#paint0_linear_1304_552)"/>
</g>
<path d="M512.047 407.208C512.047 407.208 354.992 411.663 352.562 410.144C352.562 410.144 352.015 407.149 358.293 401.681C364.571 396.213 377.471 400.271 376.155 395.208C374.838 390.145 338.18 300.059 341.218 233.025C343.952 173.484 377.269 129.349 384.357 120.843C385.269 119.831 382.13 118.818 381.623 117.502C380.611 114.666 377.877 111.628 374.738 110.008C369.978 107.679 350.84 114.739 343.806 118.686C342.287 118.686 344.623 116.278 358.495 106.456C372.368 96.6336 374.827 87.1836 378.776 82.4243C382.725 77.6651 404.812 62.1122 424.659 72.542C444.506 82.9718 479.137 147.272 487.44 207.117C495.744 266.962 463.442 357.894 463.442 357.894C463.442 357.894 447.139 386.348 472.96 392.12C498.782 397.892 512.047 407.208 512.047 407.208Z" fill="#F6F6F8"/>
<path d="M340.408 120.844C340.408 120.844 341.151 115.562 352.088 108.98C361.1 103.512 369.385 96.7257 371.762 92.5063C374.106 88.3458 376.777 82.9419 382.33 78.0104C394.988 66.7705 424.859 58.8722 445.719 90.3642C464.452 118.515 456.554 114.97 471.54 143.323C486.527 171.676 498.982 224.838 489.16 269.696C479.337 314.555 467.456 348.239 476.104 374.436C484.751 400.633 512.983 399.362 524.218 411.02C520.358 411.02 456.25 409.638 427.492 409.74C427.492 409.74 460.702 397.856 455.943 380.743C451.184 363.63 448.25 352.021 450.073 329.642C451.997 307.264 454.529 266.456 451.086 278.607C447.643 290.759 439.441 321.845 434.985 342.3C430.53 362.755 429.315 374.805 413.822 343.616C398.329 312.428 389.925 291.67 411.493 250.659C433.061 209.649 425.872 133.805 415.341 132.387C404.81 130.97 392.854 126.387 379.654 117.263C366.453 108.139 364.318 111.698 340.813 121.249C340.813 121.249 340.408 121.046 340.408 120.844Z" fill="#3A357A"/>
<path d="M393.975 95.5282C393.975 95.5282 390.533 90.6677 393.975 86.9211C397.418 83.1745 405.62 82.4657 407.038 88.035C408.456 93.6043 403.089 104.237 393.975 95.5282Z" fill="#F5F4FE"/>
<path d="M396 94.1108C396 94.1108 393.772 90.8705 396 88.4402C398.228 86.01 403.594 85.5037 404.506 89.149C405.417 92.7944 401.974 99.7814 396 94.1108Z" fill="#3A357A"/>
<path d="M407.951 107.68C407.951 107.68 400.863 105.553 413.723 99.2752C426.583 92.9971 432.962 101.3 424.861 105.047C416.76 108.794 411.292 109.3 407.951 107.68Z" fill="#F6F6F8"/>
<path d="M557.23 111.614C559.77 112.189 559.737 120.467 560.764 123.01C562.951 122.918 573.104 125.41 573.051 127.255C572.914 128.736 570.21 129.69 569.175 130.361C567.022 131.974 564.25 132.47 562.129 134.095C562.2 134.714 562.31 135.322 562.397 135.938C562.602 138.154 564.081 144.003 561.233 144.467C560.44 144.491 559.199 143.578 558.671 143.08C557.28 141.848 556.221 140.147 555.17 138.621C553.394 136.047 550.833 137.572 548.399 138.696C547.27 139.217 542.73 141.556 541.829 139.674C541.444 138.874 542.417 137.499 542.884 136.839C544.322 134.886 545.804 133.001 547.173 130.986C546.289 130.066 545.39 129.197 544.522 128.257C543.25 126.664 542.216 124.806 541.071 123.111C540.619 122.443 539.999 121.528 540.465 120.745C540.896 120.054 541.81 120.054 542.476 120.055C545.887 120.05 548.036 120.245 551.829 121.41C552.847 118.82 554.883 111.083 557.23 111.614Z" fill="#E2D8FF"/>
<path d="M274.781 55.8888C278.731 56.7829 278.679 69.6546 280.277 73.6089C283.677 73.4664 299.465 77.3419 299.382 80.2106C299.17 82.5129 294.964 83.9966 293.356 85.0397C290.007 87.5476 285.698 88.3185 282.4 90.8468C282.509 91.8082 282.681 92.7541 282.816 93.7123C283.135 97.1585 285.434 106.253 281.006 106.974C279.773 107.011 277.844 105.592 277.022 104.818C274.858 102.901 273.213 100.258 271.579 97.8836C268.817 93.8813 264.834 96.2525 261.049 98.0008C259.294 98.8113 252.234 102.448 250.833 99.5211C250.235 98.2777 251.747 96.1397 252.473 95.1132C254.709 92.0764 257.014 89.1444 259.143 86.0119C257.769 84.5818 256.37 83.2292 255.02 81.7685C253.044 79.2918 251.435 76.4015 249.654 73.7665C248.951 72.7272 247.987 71.3049 248.713 70.087C249.383 69.0126 250.803 69.0135 251.839 69.0136C257.143 69.0059 260.484 69.3104 266.382 71.1213C267.966 67.0939 271.132 55.063 274.781 55.8888Z" fill="#FFCD1E"/>
<path d="M191.637 139.01C192.75 138.091 196.367 140.909 197.83 141.32C198.531 140.331 203.063 136.724 203.853 137.372C204.456 137.934 203.958 139.442 203.902 140.123C203.88 141.613 203.158 142.996 203.153 144.477C203.447 144.656 203.752 144.813 204.051 144.984C205.092 145.645 208.157 146.978 207.396 148.383C207.138 148.739 206.317 148.974 205.92 149.037C204.908 149.229 203.805 149.117 202.779 149.061C201.049 148.967 200.85 150.607 200.518 152.055C200.365 152.726 199.852 155.509 198.721 155.266C198.241 155.164 197.967 154.272 197.836 153.843C197.467 152.552 197.142 151.263 196.723 149.98C196.021 150.056 195.335 150.156 194.629 150.218C193.5 150.236 192.335 150.06 191.204 149.988C190.758 149.96 190.147 149.922 189.961 149.452C189.804 149.029 190.114 148.629 190.34 148.337C191.493 146.84 192.307 145.964 194.102 144.696C193.312 143.372 190.61 139.858 191.637 139.01Z" fill="#E2D8FF"/>
<path d="M479.945 46.3756C481.263 46.6738 481.245 50.9671 481.778 52.286C482.912 52.2385 488.178 53.5311 488.151 54.4879C488.08 55.2559 486.677 55.7507 486.141 56.0987C485.024 56.9351 483.586 57.1923 482.486 58.0355C482.523 58.3562 482.58 58.6717 482.625 58.9913C482.732 60.1408 483.498 63.1743 482.021 63.4147C481.61 63.4271 480.967 62.9537 480.693 62.6955C479.971 62.0563 479.422 61.1744 478.877 60.3826C477.956 59.0477 476.628 59.8386 475.365 60.4217C474.78 60.692 472.425 61.905 471.957 60.9288C471.758 60.514 472.262 59.801 472.505 59.4586C473.25 58.4457 474.019 57.4677 474.729 56.4229C474.271 55.9459 473.804 55.4948 473.354 55.0076C472.695 54.1815 472.158 53.2174 471.564 52.3386C471.33 51.9919 471.008 51.5175 471.25 51.1113C471.474 50.753 471.948 50.7532 472.293 50.7533C474.062 50.7507 475.177 50.8523 477.144 51.4563C477.672 50.113 478.728 46.1002 479.945 46.3756Z" fill="#E2D8FF"/>
<g clip-path="url(#clip0_1304_552)">
<path d="M227.654 411.853C227.654 411.853 333.194 414.847 334.827 413.827C334.827 413.827 335.195 411.814 330.976 408.14C326.757 404.465 318.088 407.192 318.973 403.79C319.857 400.387 344.492 339.85 342.45 294.803C340.613 254.792 318.224 225.133 313.461 219.418C312.848 218.737 314.958 218.057 315.298 217.172C315.978 215.267 317.816 213.225 319.925 212.137C323.123 210.572 335.984 215.315 340.711 217.968C341.731 217.968 340.162 216.35 330.84 209.749C321.517 203.149 319.865 196.798 317.211 193.6C314.558 190.402 299.715 179.951 286.378 186.959C273.041 193.968 249.769 237.178 244.189 277.393C238.609 317.609 260.316 378.715 260.316 378.715C260.316 378.715 271.272 397.836 253.92 401.714C236.568 405.593 227.654 411.853 227.654 411.853Z" fill="#F6F6F8"/>
<path d="M342.996 219.418C342.996 219.418 342.708 212.875 335.359 208.452C329.303 204.777 325.323 193.005 323.725 190.169C322.15 187.373 320.355 183.742 316.623 180.428C308.118 172.875 285.255 171.14 271.238 192.303C258.649 211.22 264.947 215.471 254.876 234.524C244.805 253.577 236.435 289.301 243.036 319.446C249.636 349.591 257.621 372.226 251.809 389.831C245.998 407.435 227.026 406.581 219.477 414.415C222.071 414.415 265.151 413.486 284.476 413.554C284.476 413.554 262.159 405.569 265.357 394.069C268.555 382.569 270.527 374.768 269.302 359.73C268.009 344.691 266.308 317.269 268.621 325.434C270.935 333.6 276.447 354.49 279.441 368.235C282.435 381.981 283.251 390.078 293.662 369.12C304.073 348.162 309.721 334.212 295.227 306.653C280.734 279.095 285.565 228.128 292.642 227.175C299.719 226.222 307.753 223.143 316.623 217.011C325.494 210.88 326.929 213.272 342.724 219.69C342.724 219.69 342.996 219.554 342.996 219.418Z" fill="#3A357A"/>
<path d="M310.012 208.119C311.848 210.519 322.176 212.119 324.012 213.319L321.717 214.119C318.58 213.185 311.848 212.119 310.012 208.119Z" fill="#312D65"/>
<path d="M310.515 201.956C310.515 201.956 314.046 197.292 310.515 193.697C306.983 190.102 298.57 189.422 297.116 194.766C295.662 200.11 301.167 210.312 310.515 201.956Z" fill="#F5F4FE"/>
<path d="M308.161 200.93C308.161 200.93 310.576 197.452 308.161 194.843C305.747 192.235 299.93 191.691 298.942 195.604C297.955 199.517 301.686 207.017 308.161 200.93Z" fill="#3A357A"/>
<path d="M297.608 210.572C297.608 210.572 302.372 209.143 293.73 204.924C285.088 200.705 280.801 206.285 286.245 208.803C291.688 211.321 295.363 211.661 297.608 210.572Z" fill="#F6F6F8"/>
</g>
<path d="M396.52 105.119C392.52 108.119 370.02 110.119 366.02 111.619L371.02 112.619C377.853 111.452 392.52 110.119 396.52 105.119Z" fill="#312D65"/>
<defs>
<linearGradient id="paint0_linear_1304_552" x1="440.967" y1="559.148" x2="457.262" y2="237.735" gradientUnits="userSpaceOnUse">
<stop stop-color="#46409C"/>
<stop offset="1" stop-color="#635ACE"/>
</linearGradient>
<clipPath id="clip0_1304_552">
<rect width="129.01" height="248.895" fill="white" transform="matrix(-1 2.02052e-09 2.02052e-09 1 346.021 165.178)"/>
</clipPath>
</defs>
</svg>
