<svg width="331" height="223" viewBox="0 0 331 223" fill="none" xmlns="http://www.w3.org/2000/svg">
<mask id="mask0_1456_3701" style="mask-type:alpha" maskUnits="userSpaceOnUse" x="0" y="0" width="331" height="223">
<path d="M0 80C0 35.8172 35.8172 0 80 0H251C295.183 0 331 35.8172 331 80V192.27C331 208.839 317.569 222.27 301 222.27H0V80Z" fill="white"/>
</mask>
<g mask="url(#mask0_1456_3701)">
<path d="M154.842 257.991C200.646 262.325 289.386 269.942 352.139 242.209C400.79 220.709 383.901 175.457 362.204 139.723C340.508 103.989 311.222 132.375 280.931 129.158C245.249 125.369 142.348 101.348 115.46 144.727C88.5727 188.105 28.0501 175.302 14.3624 213.95C0.674664 252.599 109.039 253.657 154.842 257.991Z" fill="#675FCC"/>
<path d="M82.0285 249.212C127.826 252.596 319.973 253.903 382.764 231.763C431.444 214.599 414.617 178.637 392.97 150.25C371.323 121.864 341.998 144.477 311.712 141.96C276.035 138.996 173.168 120.036 146.221 154.568C119.274 189.1 66.3469 180.902 29.3475 215.294C4.67658 238.227 36.2312 245.829 82.0285 249.212Z" fill="url(#paint0_linear_1456_3701)"/>
</g>
<path d="M296.337 195.658C296.337 195.658 218.265 197.87 217.057 197.116C217.057 197.116 216.785 195.629 219.906 192.913C223.027 190.198 229.44 192.213 228.785 189.699C228.131 187.185 209.908 142.449 211.418 109.161C212.777 79.5932 229.339 57.6766 232.863 53.4527C233.316 52.9499 231.755 52.447 231.504 51.7933C231 50.3853 229.641 48.8768 228.081 48.0723C225.715 46.9157 216.201 50.4213 212.705 52.3814C211.95 52.3814 213.11 51.1858 220.007 46.3081C226.903 41.4305 228.125 36.7378 230.088 34.3744C232.051 32.011 243.031 24.2876 252.897 29.467C262.763 34.6463 279.978 66.577 284.105 96.2952C288.233 126.013 272.175 171.169 272.175 171.169C272.175 171.169 264.071 185.299 276.907 188.165C289.743 191.031 296.337 195.658 296.337 195.658Z" fill="#F6F6F8"/>
<path d="M211.016 53.453C211.016 53.453 211.385 50.8302 216.821 47.5617C221.301 44.8463 225.42 41.4764 226.601 39.3811C227.767 37.315 229.094 34.6315 231.855 32.1826C238.147 26.6011 252.996 22.6789 263.366 38.3174C272.678 52.2965 268.752 50.5365 276.201 64.6162C283.651 78.6959 289.843 105.095 284.96 127.371C280.077 149.647 274.171 166.374 278.47 179.384C282.769 192.393 296.803 191.761 302.388 197.551C300.469 197.551 268.601 196.865 254.305 196.915C254.305 196.915 270.814 191.014 268.448 182.516C266.082 174.018 264.624 168.253 265.53 157.14C266.487 146.027 267.745 125.762 266.034 131.796C264.322 137.831 260.245 153.268 258.03 163.425C255.815 173.583 255.211 179.567 247.51 164.079C239.808 148.591 235.63 138.283 246.352 117.918C257.074 97.5526 253.5 59.8894 248.265 59.1855C243.03 58.4815 237.087 56.2056 230.525 51.6748C223.962 47.1439 222.901 48.9113 211.217 53.6542C211.217 53.6542 211.016 53.5536 211.016 53.453Z" fill="#3A357A"/>
<path d="M237.644 40.8819C237.644 40.8819 235.933 38.4683 237.644 36.6078C239.356 34.7472 243.433 34.3952 244.138 37.1609C244.843 39.9265 242.175 45.2064 237.644 40.8819Z" fill="#F5F4FE"/>
<path d="M238.65 40.1779C238.65 40.1779 237.543 38.5688 238.65 37.362C239.758 36.1551 242.426 35.9037 242.879 37.714C243.332 39.5242 241.62 42.9938 238.65 40.1779Z" fill="#3A357A"/>
<path d="M244.592 46.916C244.592 46.916 241.068 45.86 247.461 42.7424C253.854 39.6248 257.025 43.7481 252.998 45.6086C248.971 47.4691 246.253 47.7206 244.592 46.916Z" fill="#F6F6F8"/>
<path d="M318.795 48.8694C320.058 49.155 320.042 53.2657 320.553 54.5286C321.64 54.4832 326.687 55.7215 326.66 56.6376C326.593 57.3729 325.249 57.8465 324.734 58.1796C323.664 58.9804 322.286 59.2265 321.232 60.0338C321.267 60.3408 321.322 60.6429 321.365 60.9489C321.467 62.0495 322.203 64.9541 320.787 65.1842C320.393 65.196 319.776 64.7426 319.514 64.4954C318.822 63.8833 318.296 63.0389 317.773 62.2807C316.89 61.0024 315.617 61.7595 314.407 62.3177C313.846 62.5765 311.589 63.7377 311.141 62.8029C310.95 62.4058 311.433 61.7231 311.666 61.3953C312.38 60.4255 313.117 59.4892 313.797 58.4889C313.358 58.0321 312.911 57.6001 312.479 57.1336C311.847 56.3426 311.333 55.4194 310.764 54.5779C310.539 54.246 310.231 53.7917 310.462 53.4028C310.677 53.0597 311.131 53.06 311.462 53.0601C313.157 53.0578 314.226 53.1552 316.111 53.7337C316.617 52.4476 317.629 48.6055 318.795 48.8694Z" fill="#E2D8FF"/>
<path d="M178.391 21.1972C180.355 21.6412 180.329 28.0333 181.124 29.997C182.814 29.9263 190.662 31.8511 190.62 33.2756C190.515 34.419 188.425 35.1557 187.625 35.6737C185.961 36.9191 183.818 37.3019 182.179 38.5574C182.233 39.0348 182.319 39.5045 182.386 39.9804C182.545 41.6917 183.688 46.2083 181.487 46.5662C180.874 46.5846 179.915 45.8798 179.506 45.4954C178.431 44.5436 177.613 43.2306 176.8 42.0517C175.427 40.0641 173.448 41.2416 171.566 42.1098C170.694 42.5122 167.185 44.3181 166.488 42.8646C166.191 42.2471 166.942 41.1854 167.303 40.6757C168.415 39.1676 169.56 37.7117 170.619 36.1561C169.936 35.4459 169.24 34.7742 168.569 34.0488C167.586 32.8188 166.787 31.3835 165.902 30.0749C165.552 29.5588 165.073 28.8525 165.433 28.2477C165.767 27.7142 166.473 27.7146 166.988 27.7147C169.624 27.7109 171.285 27.8621 174.217 28.7615C175.004 26.7615 176.578 20.787 178.391 21.1972Z" fill="#FFCD1E"/>
<path d="M137.061 62.4747C137.614 62.0183 139.412 63.4177 140.139 63.6217C140.488 63.1303 142.741 61.3386 143.134 61.6606C143.433 61.9393 143.186 62.6886 143.158 63.0268C143.146 63.7668 142.788 64.4537 142.785 65.1889C142.931 65.2776 143.083 65.3558 143.231 65.4406C143.749 65.7686 145.272 66.4304 144.894 67.1284C144.765 67.3051 144.358 67.4217 144.16 67.453C143.657 67.5487 143.108 67.4931 142.599 67.4652C141.739 67.419 141.64 68.2331 141.475 68.9523C141.398 69.2857 141.143 70.6676 140.581 70.5472C140.342 70.4964 140.207 70.0535 140.141 69.8407C139.958 69.1992 139.797 68.5594 139.588 67.9224C139.239 67.9601 138.898 68.0098 138.547 68.0407C137.986 68.0496 137.407 67.9623 136.845 67.9266C136.623 67.9126 136.319 67.8938 136.227 67.6605C136.149 67.4504 136.303 67.2517 136.415 67.1066C136.989 66.3631 137.393 65.9282 138.286 65.2982C137.893 64.6408 136.55 62.8962 137.061 62.4747Z" fill="#E2D8FF"/>
<path d="M280.378 16.473C281.033 16.6211 281.025 18.7531 281.29 19.4081C281.853 19.3846 284.471 20.0268 284.457 20.502C284.422 20.8833 283.725 21.129 283.458 21.3017C282.903 21.7171 282.189 21.8447 281.642 22.2634C281.66 22.4226 281.689 22.5793 281.711 22.738C281.764 23.3088 282.145 24.8153 281.411 24.9346C281.207 24.9407 280.887 24.7056 280.751 24.5774C280.392 24.2599 280.119 23.822 279.848 23.4287C279.39 22.7658 278.73 23.1584 278.102 23.448C277.811 23.5822 276.641 24.1844 276.408 23.6996C276.309 23.4936 276.56 23.1395 276.68 22.9695C277.051 22.4665 277.433 21.981 277.786 21.4621C277.558 21.2252 277.326 21.0012 277.102 20.7592C276.775 20.3489 276.508 19.8702 276.212 19.4337C276.096 19.2615 275.936 19.0259 276.056 18.8242C276.167 18.6463 276.403 18.6464 276.575 18.6465C277.454 18.6453 278.008 18.6958 278.986 18.9959C279.248 18.3288 279.773 16.3361 280.378 16.473Z" fill="#E2D8FF"/>
<g clip-path="url(#clip0_1456_3701)">
<path d="M154.967 197.962C154.967 197.962 207.431 199.449 208.243 198.942C208.243 198.942 208.425 197.943 206.328 196.118C204.231 194.294 199.922 195.648 200.361 193.958C200.801 192.269 213.047 162.207 212.032 139.837C211.119 119.968 199.989 105.24 197.621 102.401C197.317 102.064 198.366 101.726 198.535 101.286C198.873 100.34 199.786 99.3265 200.835 98.7858C202.425 98.0086 208.818 100.364 211.167 101.682C211.675 101.682 210.895 100.878 206.261 97.6003C201.626 94.3226 200.805 91.1691 199.486 89.5809C198.167 87.9927 190.789 82.8026 184.159 86.2831C177.529 89.7636 165.96 111.221 163.187 131.191C160.413 151.162 171.203 181.506 171.203 181.506C171.203 181.506 176.649 191.001 168.024 192.928C159.398 194.854 154.967 197.962 154.967 197.962Z" fill="#F6F6F8"/>
<path d="M212.304 102.402C212.304 102.402 212.161 99.1526 208.507 96.9561C205.497 95.1314 203.518 89.2852 202.724 87.8772C201.941 86.4888 201.049 84.6855 199.194 83.0399C194.966 79.2891 183.601 78.4276 176.632 88.9366C170.375 98.3305 173.505 100.442 168.499 109.903C163.493 119.365 159.332 137.105 162.613 152.074C165.895 167.044 169.864 178.284 166.975 187.026C164.086 195.769 154.655 195.344 150.902 199.235C152.192 199.235 173.607 198.774 183.213 198.807C183.213 198.807 172.12 194.842 173.709 189.131C175.299 183.42 176.279 179.546 175.67 172.079C175.028 164.611 174.182 150.993 175.332 155.048C176.482 159.103 179.222 169.477 180.71 176.303C182.199 183.128 182.605 187.149 187.78 176.742C192.955 166.334 195.763 159.407 188.558 145.722C181.353 132.036 183.755 106.727 187.273 106.254C190.79 105.781 194.784 104.251 199.194 101.207C203.603 98.1619 204.317 99.3496 212.168 102.537C212.168 102.537 212.304 102.469 212.304 102.402Z" fill="#3A357A"/>
<path d="M195.907 96.7908C196.82 97.9826 201.954 98.7771 202.866 99.373L201.725 99.7703C200.166 99.3068 196.82 98.7771 195.907 96.7908Z" fill="#312D65"/>
<path d="M196.157 93.7302C196.157 93.7302 197.913 91.4141 196.157 89.6288C194.402 87.8435 190.22 87.5058 189.497 90.1596C188.774 92.8134 191.511 97.8798 196.157 93.7302Z" fill="#F5F4FE"/>
<path d="M194.987 93.2208C194.987 93.2208 196.187 91.4936 194.987 90.1982C193.787 88.9028 190.895 88.633 190.404 90.576C189.913 92.5191 191.768 96.2434 194.987 93.2208Z" fill="#3A357A"/>
<path d="M189.742 98.0091C189.742 98.0091 192.109 97.2994 187.813 95.2044C183.518 93.1094 181.387 95.8802 184.093 97.1305C186.799 98.3808 188.625 98.5497 189.742 98.0091Z" fill="#F6F6F8"/>
</g>
<path d="M238.908 45.6443C236.919 47.134 225.734 48.1272 223.746 48.8721L226.232 49.3687C229.628 48.7893 236.919 48.1272 238.908 45.6443Z" fill="#312D65"/>
<defs>
<linearGradient id="paint0_linear_1456_3701" x1="212.142" y1="268.951" x2="219.982" y2="114.318" gradientUnits="userSpaceOnUse">
<stop stop-color="#46409C"/>
<stop offset="1" stop-color="#635ACE"/>
</linearGradient>
<clipPath id="clip0_1456_3701">
<rect width="64.1311" height="123.598" fill="white" transform="matrix(-1 2.01844e-09 2.02261e-09 1 213.808 75.467)"/>
</clipPath>
</defs>
</svg>
